<svg xmlns="http://www.w3.org/2000/svg" viewBox="0 0 3367.31 1488.51" xmlns:v="https://vecta.io/nano"><style><![CDATA[.Q{fill:#2d3c66}.R{fill:#e0745a}.S{fill:#fff}.T{fill:#fab293}.U{fill:#a84a2a}.V{fill:#ff8b47}.W{fill:#cf7455}.X{fill:#f29c77}]]></style><defs><clipPath id="A"><path d="M60.4 0h3236v1413.25H60.4z" fill="none"/></clipPath></defs><g clip-path="url(#A)"><path d="M60.4 0h3236v1413.25H60.4z" class="S"/><g class="Q"><path d="M1672.7 1183.2c-6.87-9.5-11.68-17.9-20-26.18a1.07 1.07 0 0 0-1.9-.38c-3.17 4.33-7.2 11.38-2.34 15.66 3.85 3.4 8.37 6.26 12.55 9.22 3.58 2.53 3 7.4 7.3 8.55.66.18 4 0 4.06-.5.63-.1.82-5.7.33-6.37zm-16.03 99.8c-.8-3.38-3.22-7.75-5.08-10.92q-3.67-6.3-7.95-12.22a153 153 0 0 0-19.24-21.91 1 1 0 0 0-1.71.7c-1.65 17.27-1.45 33.9 10.1 47.9a47.54 47.54 0 0 0 8.09 7.76c2.14 1.6 5.46 5 7 1.2.32-.9 9.74-8.5 8.8-12.5z"/></g><path d="M1799.32 898.92c6.22-10.7 9.58-23.47 8.7-35.18-1.2-15.9-8.77-30.45-21.52-39.8l.24-.77a65.57 65.57 0 0 0 2.19-13c.75-8.94-.18-18-4-26.2-4.75-10.2-16.66-20.2-28.77-21.73 2.14-6.65 3.35-13.58 2.48-20.6-1.43-11.57-9.6-21.9-20.1-26.77-12.8-5.94-26.7-.3-37.8 6.9-11.43 7.42-21.55 17-31.2 26.5-11 10.92-21.43 22.47-31.4 34.35-5.74 6.85-14.65 24.85-25.33 22.32-10.84-2.57-16.25-13.6-20.8-22.65-6.93-13.76-10.56-28.86-12.37-44.1-4.86-40.92.26-86.08-20.68-123.4-6.4-11.42-20.16-22.67-32.08-27.72-20.8-8.82-25.5 13.33-23.07 30.06 6.7 46.22 14.1 92 9.78 138.8l-9.44 98.72c-3.57 49.1-.27 96.28 21.12 141.22 2.77 5.83 5.7 11.83 9 17.6-2.64 12.77-7.1 25.38-10.37 37.77-2.55 9.65-5.8 19.1-8.8 28.6-2.4 7.64-8.92 20.8-6.45 28.83a20 20 0 0 0 3.2 5.68c16.87 23.2 40.35 37.57 64.83 51.52 12.85 7.33 25.4 14.94 37.8 23 6.93 4.5 16.5 11.94 25.3 9.58a6.43 6.43 0 0 0 4.13-3.06 7.58 7.58 0 0 0 1.26-2.32c8.17-24.3 18.73-47.5 29.95-70.5 5.34-10.93 11.17-21.6 16.62-32.46l5.22-10.8c27-25.4 48.5-55.45 64.76-88.85 9.07-3.12 17.73-7.4 25-13.76 10.07-8.8 15.36-21.1 17.67-34.06 1.57-8.74 2.2-17.66.5-26.44-1.18-5.98-3.78-11.53-5.55-17.33z" class="T"/><path d="M1669.38 1179.9c-4.08-2.88-8.6-5.05-12.63-8.07-5.17-3.9-10.16-8.08-15.23-12.12l-27.44-21.44c-19-14.4-37.37-29.55-55.87-44.55-9.17-7.43-17.5-15.7-25.9-23.94-7.35-7.22-15.38-14.18-25.93-15.53a5.55 5.55 0 0 0-4.42 1.56 7.07 7.07 0 0 0-.61.4c-5.9 4.3-14.57 33.28-17.32 41.2l-8.77 26.5c-3.1 9.1-7 17.9-10.13 27a7.59 7.59 0 0 0-.39 1.94 6.46 6.46 0 0 0 1.19 7.87c12.2 12.46 25 24.28 38.3 35.6s26.9 21.88 39.58 33.78 25 24.23 38.4 35.35c6.5 5.4 13.28 10.43 20.26 15.2 5.43 3.7 11.27 7.48 15.64 12.5a6.69 6.69 0 0 0 4.88 5.84 7.71 7.71 0 0 0 7.13-2c2.4-1.54 3.85-4.26 2.66-7.2a67.33 67.33 0 0 1 4.41-8.33c3-5.26 31.4-67.26 34.5-78.16 2.43-8.42 6.3-17.3-2.32-23.4z" class="S"/><path d="M1656 1281.67a5.17 5.17 0 0 0-1.64-2.36c-11.86-9.5-25.27-16.6-37.64-25.36-12.9-9.14-25.2-19.1-37.42-29.12q-18.62-15.27-37.2-30.57c-10.8-8.86-20.63-18.8-30.67-28.5-11.63-11.2-23.7-22-37.5-30.56-4.43-2.74-8.65.14-10 4-3.64 10.73-33.55 81.07-44.26 105-18.28 40.92-38.1 81.27-54.9 122.82-9.07 22.43-20.72 44-27.8 67.16-2.58 3.63-2 9.5 3.52 10.8 16.44 3.78 32.94 2.63 49.62 3.45 17.3.85 34.27 3.17 51.63 2.88s34.5-1.8 51.74-.7c15.56 1 30.9 3.87 46.34 6 10.44 1.42 22.46 3.3 33.1.7 3 2.65 8 3 10.5-1.52 14.84-27.58 28.84-57.32 41.3-86.7q9.57-22.58 18.36-45.47c3.14-8.05 18.22-34.07 12.93-41.96z" class="Q"/><path d="M1623.44 944.65c-.62-1.13-2.35-.12-1.73 1a185.41 185.41 0 0 1 22.1 70.62c.13 1.27 2.13 1.28 2 0a187.76 187.76 0 0 0-22.37-71.62z" class="R"/><path d="M1625.62 1197.55c-14.8 0-14.83 23 0 23s14.82-23 0-23z" class="Q"/><g class="R"><path d="M1659.73 877.33c21.65-21.4 43-43.15 62.42-66.6a450.12 450.12 0 0 0 30.19-40.78c.7-1.08-1-2.08-1.73-1-19.4 29.72-42.78 56.5-67.42 82q-18.12 18.7-36.9 36.8a183.67 183.67 0 0 1-19.55 16.78c-6.16 4.43-16.83 12.4-24 6.7a1 1 0 0 0-.26-.27c-.18-.13-.35-.28-.53-.42s-.6-.6-.87-.94a.78.78 0 0 0-.63-.33c-14.22-13.13-6.33-39.9-.6-55.46 6.62-18 16.73-34.4 26.82-50.56.68-1.1-1.05-2.1-1.73-1-11.38 18.24-22.8 36.9-29.24 57.56-5 15.88-10.16 40 4.72 52.06 3.3 3.4 7.36 3.87 11.52 2.9a33.19 33.19 0 0 0 36.73 23.57c3 9.15 6.6 18.18 14.58 24.15a32.85 32.85 0 0 0 12.82 5.79 69.39 69.39 0 0 0 9.93 17c4.1 5.33 8.32 10.43 14.83 12.76 7.2 2.58 15.64 2.67 23.18 2.48a112.09 112.09 0 0 0 24.11-3.31c1.25-.3.72-2.23-.53-1.92-13.62 3.34-29.15 5-43 1.76-7.2-1.68-11.76-6.25-16.16-11.87a70.34 70.34 0 0 1-10.06-16.5 33.78 33.78 0 0 0 8.93.09c1.26-.16 1.28-2.16 0-2a31.61 31.61 0 0 1-23.79-6.58c-7.4-6-10.52-15-13.37-23.74a1 1 0 0 0-1.92 0 31.16 31.16 0 0 1-34.37-22.18c5.42-1.8 10.8-5.7 14.6-8.47 11.37-8.44 21.27-18.6 31.27-28.47zm121.15-51.13c-14.06 22.35-34.42 39.35-54.83 55.67-20.9 16.7-42.16 33.8-67.6 43-1.2.44-.68 2.37.53 1.93 25.25-9.17 46.4-25.9 67.15-42.48 21-16.77 42-34.15 56.48-57.15.7-1.05-1.04-2.06-1.73-.97zm11.25 80.08c-27.32 23.18-55.6 46.84-90.36 57.78-1.22.38-.7 2.3.54 1.93 35.08-11 63.64-34.9 91.24-58.3.98-.84-.44-2.25-1.42-1.42z"/></g><path d="M1826.77 1400.74c-3.55-4.65-10.33-9.62-16.9-10.77-3.22 12.27-6.6 24.5-10.75 36.5 6.2 8.58 17.4 16.06 27 7.93s7.5-24.7.66-33.66z" class="S"/><path d="M915.05 337.2c1.46-21.84-.7-43.34-12.7-55.2a11.08 11.08 0 0 0-1.75-1.4 262 262 0 0 0 1.78-29.51c0-11.37-1.64-22.93-3.64-34.1-.83-4.64-1.32-8.74-3.1-13.15-1.08-2.7-7.37-9.72-7.34-11.9l-.1-7.8c-.55-11.4-5-23.7-15-30.1a24.37 24.37 0 0 0-30.18 2.5c-5.5-7-23.4-7.8-27.9 0-23.78 41-87.17 214.26-108.5 260.55-19.72 42.8-37.13 86.85-46.9 133.1-11 52.23-9.6 105.68-8.46 158.73l3.5 166.5a46.59 46.59 0 0 1-3.41 18.55c-15.92 39.3-297.77 501.27-305 516.83-18.94 26.52 215.88 1 220.44 1h.15c6.82-.65 235.35-487.32 239.4-498.84 12.35-16.48 22.15-34.48 26.57-55.56 4-19.12 4-38.86 4.7-58.3l2-61c1.34-39.82.77-80.38 7-119.83 6.1-39 19.7-76.7 30.1-114.7 10.2-37.3 22.5-74.1 29.94-112.1 2.53-13.36 7-33.94 8.37-54.23z" fill="#bf6749"/><g class="U"><path d="M846.8 162.06c-.42-1.22-2.24-.38-1.82.83 8.77 25.68 1.4 52.46-5.83 77.52-.35 1.23 1.5 2 1.87.73 7.4-25.66 14.75-52.83 5.78-79.08zM889 200c0-1.27-2-1.5-2-.2 0 11.57-3.26 22.57-6.66 33.54-.38 1.22 1.5 1.95 1.87.72 3.47-11.17 6.8-22.34 6.8-34.06zm9.9 85.7a116.8 116.8 0 0 1-5.32 24.58c-.4 1.22 1.46 1.94 1.87.72a119.72 119.72 0 0 0 5.44-25.1 1 1 0 0 0-1.99-.2z"/></g><path d="M908.8 872.22a1871.4 1871.4 0 0 1 16.86-218.93l9-60.26a319.54 319.54 0 0 0 2.64-59.54c-2-39.6-8-79.25-13.5-118.48q-4.62-32.85-10-65.6c-2.48-15.07-3.07-39.2-19.38-46.5l-2.15-29.64c-1-14-1.2-52.34-26.64-41.53a19.36 19.36 0 0 0-12-2c-32 5.07-38.24 64.44-41.7 88.45-4.15 28.86-4.78 58.1-4.5 87.2.53 54.15 4.27 108.7-4.83 162.38a269.53 269.53 0 0 1-12.6 48.15 9.2 9.2 0 0 1-16.7 1.27l-5.3-10c-8.25-20.2-13.6-41.4-19.47-62.4-4.2-15-8-30.56-14-44.92-5.1-12.06-13.67-24.5-26.7-27.66-28.2-6.84-24.65 7.5-23.55 10.7a13.26 13.26 0 0 1 .45 1.64c1.93 9.28 6.73 36.83 8.66 47.86q6.1 34.9 12.2 69.78l19.17 110.25c3.68 39.6 9 79 24.25 116.12a197.2 197.2 0 0 0 29.35 50c13.44 96.1 59.2 557.88 62.9 583 1.87 12.73 76.05 4.34 90.38 5.74a395.52 395.52 0 0 1 83.31 17.29c5.05 1.66-101-579.95-106.16-612.4z" class="W"/><path d="M833.25 373.28c-4.33-6.92-17.6-23.7-26.94-14.84-11 10.42-18.88 23-26.54 35.9Q766.53 416.66 753.3 439q-11 18.54-22 37.07c6.68 16.07 15.16 31.36 21.58 47.55 4.23 10.7 7.82 21.62 11.4 32.56 19.44-46.6 42.3-91.6 64.5-136.9 6.9-14.08 13.53-31.5 4.46-46z" fill="#bf6749"/><g class="U"><path d="M868.58 242.5c.07-1.28-1.92-1.5-2-.2l-7.4 128.6c-.08 1.3 1.9 1.5 2 .2zM863 421.6c0-1.27-2-1.5-2-.2q2.28 80 .15 160.1c0 1.28 2 1.5 2 .2q2.1-80.04-.15-160.1zm1 188.3c0-1.28-2-1.5-2-.2a98.72 98.72 0 0 1-7.75 37.82c-.5 1.2 1.37 1.9 1.87.72A100.23 100.23 0 0 0 864 609.9zm32.58-295.82c-.1-1.28-2.06-.94-2 .33q8.5 125.5 13 251.23c0 1.28 2 .93 2-.34q-4.5-125.7-13-251.22zm9.07 280.6a169.51 169.51 0 0 1-14.22 53.86c-.52 1.18 1.34 1.9 1.87.72a171 171 0 0 0 14.34-54.38 1 1 0 0 0-1.99-.2zm-21.4-329.33a20.27 20.27 0 0 0-5.06-2.87c-3-1.32-3.74-2.08-4.22-5.52a41.37 41.37 0 0 1 2.28-20.08 1.004 1.004 0 0 0-1.87-.73A43.92 43.92 0 0 0 873 257.3c.27 1.88.42 4.5 1.93 5.93a4.5 4.5 0 0 0 1.41.64c2.53 1 4.48 1.24 6.74 3.1 1 .82 2.16-.8 1.17-1.6zm-29.52.9a15.81 15.81 0 0 0-5.67-2.59 19.86 19.86 0 0 1-3-.32c-3.4-1.57-3-4.37-2.68-7a31.62 31.62 0 0 1 9.43-19c.9-.9-.34-2.46-1.26-1.55a33.76 33.76 0 0 0-10.23 21.16c-.2 2.17-.72 6 1.25 7.64a4.26 4.26 0 0 0 1.92.77c3.5.7 5.92.37 9.12 2.54 1 .7 2.2-.9 1.12-1.65zm50.9 71.98a28.4 28.4 0 0 1-4.23-18.71 1.005 1.005 0 0 0-2-.2 30.65 30.65 0 0 0 4.67 20.17c.7 1.1 2.24-.2 1.56-1.26zm-189.1 164.82c-2.24-12-8.26-30.2-24.28-25.68-1.23.35-.9 2.32.33 2 14.62-4.1 19.77 12.47 21.88 23.5a87.59 87.59 0 0 0-16.25 2.5c-1.24.3-.92 2.3.34 2a87.1 87.1 0 0 1 17.52-2.59c.93-.1 1-1.18.46-1.73z"/></g><path d="M611.86 966.57c-8.06 11.7-29.32 47.37-36.2 59.4a4.49 4.49 0 0 0 0 4.5c4.6 7.84 10.14 15.24 15.45 22.57a535.34 535.34 0 0 0 70.23 79.11q13.33 12.3 27.5 23.67a5.4 5.4 0 0 0 8.29-1.92c8.38-18 27.78-56.64 33.37-68a4.37 4.37 0 0 0-1.14-5.29c-41.15-34.08-82.42-69.28-112.25-114a3.15 3.15 0 0 0-5.24-.03z" class="Q"/><g class="S"><path d="M591.12 1091q-11.6-13.5-22.6-27.47-4.1-5.23-8.12-10.52a3.35 3.35 0 0 0-5.55.31L540 1079.88a6.34 6.34 0 0 0 .57 7.06 868.35 868.35 0 0 0 121.11 125.15 5.23 5.23 0 0 0 8.07-1.66l11.74-24.46a4.62 4.62 0 0 0-1.18-5.57 840.94 840.94 0 0 1-89.21-89.4zm326.74-172a621.07 621.07 0 0 0-128.45 47.5 10 10 0 0 0-5.47 9.85l2.57 24.8a4.05 4.05 0 0 0 5.94 3.11A589.66 589.66 0 0 1 905 958.53c6.83-2 13.7-3.8 20.62-5.5a4.07 4.07 0 0 0 3.05-4.6 202.38 202.38 0 0 0-6-26.64 4.08 4.08 0 0 0-4.81-2.8z"/></g><g class="U"><path d="M803.3 358.25c-7.65 8.1-13.12 17.74-18.73 27.28l-57.64 98.16c-.65 1.1 1 2.28 1.6 1.17L767 419.43q9.36-15.93 18.7-31.86c5.77-9.82 11.35-19.8 19.24-28.14.85-.93-.77-2.1-1.65-1.18zm17.36 11.15c-.4-1.22-2.23-.38-1.82.83 3.6 10.9-.24 21.82-5.73 31.35-1.07 1.86-2.2 3.68-3.36 5.5l-2 3.1q-2.5 2.22-4.56.1c-4.3-1.52-8.74-5.4-12.65-7.82-1.1-.68-2.27.94-1.17 1.62l9.48 5.86c1.73 1.07 4.1 3.18 6.15 3.63 4.4.95 7.1-6.38 8.8-9.2 6.38-10.63 10.94-22.64 6.87-34.94zm-15.43 95.08A719 719 0 0 0 757 557c-.52 1.18 1.35 1.9 1.86.72a715.83 715.83 0 0 1 48-92.06c.67-1.1-.95-2.28-1.63-1.18z"/></g><path d="M1215.1 1315.8a187.53 187.53 0 0 0-23.16 18.91 4.41 4.41 0 0 0 .08 6.67c.56 2.64 2.87 4.77 6.06 3.45 6-2.5 12.52-4.5 17.33-9a24 24 0 0 0 7.22-14.59c.46-4-3.62-8.17-7.53-5.44z" class="Q"/><path d="M1441.2 471.75c-10.45-10.32-26.75-5.94-38.3 0-.24.12-.47.25-.7.38 7.57-4-4.8-62.46-6.36-72.2-5.67-35.32-.25-82.5-14.8-115.23-1.44-3.25-4.4-5.46-8-4.78a6.58 6.58 0 0 0-2.81.53c-.4.15-.78.33-1.17.5-2.15-9.28-6.7-19.58-15-22.52-10.75-3.8-22.08 10-27.94 17.4a103.14 103.14 0 0 0-12 19.39c-22.77 15.48-32.75 40.76-37.4 67.24l-.2.12c-17 11.1-23.82 30.42-26.83 49.65-12.43 79.3-25.28 158.56-50.82 235-22.2 66.47-46.86 117.82-64.77 185.54-9.35 35.33-25.77 73.57-8.28 109.1 6.08 12.36 26.9 46.8 29.22 52.74q9.27 66.1 20.26 131.94 16.6 99.4 37 198.08 10.88 52.44 22.86 104.65c-1.27 3.16-.47 7.1 2.3 8.78 2.4 4.17 8.4 3.45 11.25 0l134-15.4a447.53 447.53 0 0 0 16.3-2.41c5.15-.87 11.13-1.2 15.62-4.14 9.8-6.4 3-18.87 0-27.1-7.8-21.53-123.23-447.07-120.86-467.75 2.52-21.92 58.44-131.5 70.47-168.33 6.57-20.1 11.53-40.52 13.65-61.57a1374.48 1374.48 0 0 1 43.87-154.59q9.66-27.72 20.52-55a9.55 9.55 0 0 0 .67-3 6.58 6.58 0 0 0-1.78-7.05z" fill="#f5a571"/><g fill="#e0845a"><path d="M1397.25 483.24c-40.9 28.14-50.94 80-61.56 125.15-6.34 26.94-14.07 53.4-29.45 76.74-15.86 24.06-33.12 47.13-48.65 71.45q-26.38 41.34-49.56 84.6a1.012 1.012 0 0 0 1.76 1c27.07-50.46 57.65-98.7 90.82-145.35 8.08-11.36 15.5-23 21-35.8a249.18 249.18 0 0 0 11.75-35c6.65-25 10.9-50.62 19.47-75.07 9-25.58 22.68-50.28 45.46-65.95 1.08-.8.03-2.5-1.04-1.76zm-35.05-192.87c.8-1-.66-2.38-1.46-1.37-30.08 38-21.8 89-19 133.7a264.25 264.25 0 0 1-6.16 76.68c-5.36 23.23-13 45.83-20.5 68.45-8.54 26-16.75 52.13-21 79.2-.2 1.26 1.75 1.74 1.95.46 7.36-47.34 27-91.4 39-137.56 5.77-22.22 9.55-44.93 9.4-67.94-.15-26.2-4.42-52.22-4.06-78.44.35-25.8 5.45-52.5 21.8-73.2zm-46.3 15.5a418 418 0 0 0-10.89 61.93c-2.1 21.7-1.47 43.2-1.62 64.94-.16 22.27-6.77 43.56-11.9 65l-14.5 64.34q-7.85 37.08-14.6 74.38c-.23 1.27 1.7 1.74 1.94.47q12-65.87 27.28-131.06c4.78-20.27 11.54-40.8 13.3-61.62.9-10.65.3-21.34.18-32a414.58 414.58 0 0 1 .9-32.26 413.71 413.71 0 0 1 11.81-73.7 1 1 0 0 0-1.91-.42zm-42.38 86.62c-3.35 36.3-6.7 72.72-14 108.5s-18.55 70.43-27.28 105.74q-7.34 29.68-13.72 59.6l-1.1.17c-1.25.2-1.2 2.2.07 2l7.47-1.2c1.25-.2 1.2-2.2-.07-2l-4.25.68q11.43-53.26 25.83-105.84c4.83-17.6 9.92-35.14 13.8-53 3.92-18 6.77-36.25 9.07-54.54 2.52-20 4.37-40.1 6.22-60.18.1-1.26-1.9-1.18-2.03.08z"/></g><path d="M1435.94 1420.57c-14.5-52.7-46.08-158.46-54.07-185.14a4.3 4.3 0 0 0-6.74-2.19c-39.34 30.2-182.42 99-184.15 103.26-1.9 4.7 0 10.2 1 14.92q1.9 9.66 3.9 19.32 8.45 40.86 18.26 81.42a5.46 5.46 0 0 0 .52 2.19l.24 1c1.12 4.6 6.6 4.2 8.8 1.15a1533.17 1533.17 0 0 0 209-29.65c2.66-.6 3.9-3.85 3.24-6.28z" fill="#e0eaff"/><path d="M937.7 1295.3c-9.4 1.43-19.75 6.36-28 11-2 1.1 1 1.92 2.87 1.74a1.72 1.72 0 0 0 1.17.32c7.8-.73 26.26.8 26-11.17a2 2 0 0 0-2.04-1.89z" class="Q"/><path d="M1315.06 1065.8a71 71 0 0 0-16.06 2.61c-11-3.76-24.13-3.38-34.88-1.72a89.85 89.85 0 0 0-24.32 7.3c-6.5 3-13.56 6.66-18.1 12.4-6.3-.7-13.14 1-18.76 3.06a105.27 105.27 0 0 0-24.43 13.41 38.07 38.07 0 0 0-6 5.33c-.07-.7-.12-1.3-.13-1.7-5.27-7.27-5.6-18.32-3.3-26.08 3-10 9.22-19 18.37-24.3a38.6 38.6 0 0 1 15-4.64 23.78 23.78 0 0 0-.62 10.36c1.36 7 8 12.85 15.32 10.36 6.53-2.2 10.64-10.16 8.9-16.8-1.38-5.24-5.48-9-10.27-11.23q.13-.35.27-.66c7-17.8 23.4-42.47 46.22-35.6a52.89 52.89 0 0 0-1.79 10.84c-.37 6.62 3.16 14.53 11.07 13.26s11.06-10.52 9.76-17.46a18.85 18.85 0 0 0-6.65-11.41 53 53 0 0 1 10.63-15.56c7.92-8 19.52-14.4 31.13-13.05 6.4.75 12.8 3.93 11.92 11.3-.8 6.68-6.5 11.56-11.2 15.8-4.16 3.74.83 9 5.14 8.2 11.84-2.13 31.93 3.7 28.17 19.25-2.9 12-16.25 13.22-26.22 9.57.92 3.65 2 9.17 3 12.42 14.32 2.46 30.25-4.78 33.2-20.93 3.32-18.2-12-28.2-27.87-30.16a26.24 26.24 0 0 0 5.69-13.12 18.56 18.56 0 0 0-10.51-19.32c-15.7-7.6-34.18-.54-46.5 10.17a62.61 62.61 0 0 0-15.57 20.87 39.47 39.47 0 0 0-23.88 1c-16.52 6.3-27 21-33.6 36.8l-2.28 5.32c-16.56-1.37-32.74 9.36-41 23.3-7.45 12.6-12.26 36.6 3 50.87-.55 1.77 6.7 11.6 6.53 5.17-.12-4.88 6.87-8 10.55-10.54a135.91 135.91 0 0 1 14-8.36c5.16-2.7 10.84-5 16.68-5.63.6-.06 1.23-.13 1.88-.17a14.8 14.8 0 0 0 1.84 9.22c3.6 6.16 11.73 4.14 14.82-1.4 2.86-5.12 1.17-10.54-2.8-14 7.62-6.7 23.6-11.48 28.46-12.6a79.69 79.69 0 0 1 23.5-1.78l1.9.15a14.92 14.92 0 0 0-4.18 9.46c-.84 13.2 17.75 26.8 29.46 18.8 9.92-6.8 8.43-20.23 1.24-28.14a55.56 55.56 0 0 1 18.37.93c7.25 1.6 16.93 4.73 21 11.5 4.7 7.8-3.15 17.16-9.35 21.6l2.56 10.22c11.6-8.33 24-26.63 13.6-39.44-9.64-11.8-28.4-15.76-42.9-15.05zm-44-51.14a7.72 7.72 0 0 1 .63 3.65c-.08 1.18-.9 6.17-1.24 2.46a21.09 21.09 0 0 1 .55-6.11zm-58.85 38.5a10 10 0 0 1 3.23 2.89c2.2 3.12-1.18 9.5-3.55 4.88-1.02-1.93-.6-4.82.3-7.77zm93.55 42c-4.34 4.83-14.67-3.5-14.73-8.68 0-3.62 3.68-6 7.78-7.46a21.33 21.33 0 0 1 4.45 2.62c3.94 3.12 6.3 9.3 2.47 13.55z" class="S"/><path d="M1353.73 566.58c-4.34-2.1-10.44-1.1-15.27-.47-22.8 3-41 20-54.48 37.52-12.55 16.3-23 34.06-34.3 51.22-3.66 5.56-13.5 23-23.8 31.56a8.33 8.33 0 0 1-13.5-7.78c3.2-19.6 11.44-40.32 16.74-58.53 7.38-25.32 16.84-66.17 26.35-90.8 9-23.38 43.32-88.1 47.6-106.5 3.73-16 5.05-32.4-.27-52.16-1.57-5.8-11-14-16.52-15.35 6.28-16.33-7-48.9-28.83-24.5-3.73 4.17-21.07 30.5-20.4 30.8-23-10.6-40 28.73-48 43.8-1.53 2.9-14.58 12.22-23.1 23-13.92 17.57-37.9 56.9-49.92 87.9l-66.27 171.6c-4.25 18.78-23.4 202.8-27.73 265.4-.88 12.7-132.3 473.83-133.56 479.7-1.06 4.9 3.86 1.47 5.37 6.44 3.33 11 18.7 10.72 27.93 12q18.16 2.58 36.5 3.64a430.39 430.39 0 0 0 75.37-2.23c10.2-1.2 23.84-1.16 31.18-9.5 6.75-7.67 6.93-19.54 8.35-29.1q22.7-153.57 54.1-305.7 13.67-66.1 29-131.85c27.78-34.18 51.62-71.66 65.58-113.5a5.13 5.13 0 0 0 2.88-3c15.15-40.82 30.33-81.66 48.08-121.44 17.85-40 39.28-77.5 62.3-114.68l19.25-32.08c3.12-5.5 6.27-13.7 4-20a8.91 8.91 0 0 0-4.65-5.4z" fill="#ffb98a"/><path d="M1100 1299.5a4.92 4.92 0 0 0-4.56-3.18c-23.47-.75-46.8 1.94-70.17 3.62-11.32.82-22.67 1.36-34 1.15s-22.67-1-34-.75a271.94 271.94 0 0 0-33.13 2.65c-4.57.64-10.46.76-14.45 3.36s-5.7 7.65-7.7 11.74q-14.55 30.23-27.3 61.3-13.63 33.2-25.2 67.18c-4 1.63-4.76 8.5.5 9.48 35.77 6.63 72.22 5.75 108.43 5.06 37.53-.72 75.1-1.7 112.4-6.48a5.25 5.25 0 0 0 4.6-5.29 4.15 4.15 0 0 0 .1-.53q10.86-73.07 25.23-145.56a4.84 4.84 0 0 0-.75-3.74z" fill="#e0eaff"/><g fill="#e0845a"><path d="M1283.25 361.7c-13.1 16.12-19.4 36.8-27.8 55.52-9.38 20.88-19.57 41.38-30.07 61.7-10 19.3-20.1 38.24-26.5 59.1-6.72 21.94-12.23 44.3-18.23 66.45l-21 77.5c-.34 1.25 1.6 1.7 1.95.47l36.14-133.32c6.06-21.76 15-41.55 25.4-61.52 10.28-19.72 20.32-39.58 29.66-59.76 5.16-11.14 10-22.4 14.78-33.72 4.63-11 9.6-21.77 17.15-31.06.8-1-.65-2.37-1.46-1.37zM1154 694.76a58.22 58.22 0 0 0-4.63 30.15c.14 1.27 2.14 1.22 2-.06a56.12 56.12 0 0 1 4.39-29.14c.5-1.17-1.26-2.13-1.76-.95zm82.58-322.64l-55.46 102.77c-16.93 33.27-26.35 70.07-37.65 105.5l-20 62.77c-.4 1.23 1.56 1.7 2 .47l35-109.62c5.66-17.74 11.4-35.4 19.54-52.18 8.38-17.27 17.94-34 27.08-50.88q15.68-28.93 31.36-57.88a1.049 1.049 0 0 0-1.87-.95zm-126.3 303.38a115.73 115.73 0 0 0-4 40.48c.1 1.28 2.1 1.22 2-.07a114.66 114.66 0 0 1 4-39.95c.3-1.24-1.65-1.7-2-.46zm-22.03-12.87a112.53 112.53 0 0 0-7.92 38.69c0 1.24 1.9 1.38 1.93.13a110.87 110.87 0 0 1 7.83-38.18c.46-1.16-1.38-1.8-1.84-.64zm90.85-223.86c-9.73 16.4-24.83 44.33-34.14 61.72a236 236 0 0 0-14.39 32.45q-11.77 33.27-21.7 67.15c-.35 1.22 1.48 2 1.84.78 4.74-16.18 13.17-41.38 19.45-59.8a305.15 305.15 0 0 1 19.69-45.3l30.92-55.9c.65-1.1-1.02-2.2-1.67-1.1zm167.76 135.07c-12.1 4.86-20.7 14.74-26.25 26.32a1 1 0 0 0 1.06 1.46 69.2 69.2 0 0 1 11.14 7.15c1 .8 2.38-.66 1.37-1.46a71.45 71.45 0 0 0-11.26-7.28c5.3-10.62 13.3-19.77 24.54-24.28 1.18-.48.6-2.4-.6-1.9z"/></g><g class="Q"><path d="M2920.68 1022.1a262.71 262.71 0 0 0-41.26 25.87 3 3 0 0 0 .09 4.86 3.17 3.17 0 0 0 3.71 1.75l16.67-4.46c4.85-1.3 10.48-2 14.88-4.55 7.18-4.1 6.9-12.58 9.7-19.4.9-2.17-1.3-5.32-3.8-4.06zm6.8-97.82a65.62 65.62 0 0 0-20.9 14.27 2.5 2.5 0 0 0 .12 3.8 3.17 3.17 0 0 0 4 2.55c5.1-1.5 12-2.3 16.18-5.76 3.42-2.84 4.22-7.36 4.63-11.54.2-2.15-1.78-4.3-4.03-3.32z"/></g><path d="M3061.46 765.62c-4.6-12.85-11.75-24.7-18-36.82-25.4-49.6-40-73.56-62.15-124.64-9.35-21.55-20.65-42.2-29.88-63.78-8.9-20.8-15-42.76-21-64.57-5.26-19.4-10.22-39-17.93-57.6-5.16-12.47-16.27-34.63-32.47-33.4-1.9-10.94-4.15-22.48-11.5-30.9-6.35-7.27-16.4-11.52-25.75-8.6l-1.54-6.64c-3.1-12.44-13.58-32.33-30-25.2-11.74.75-11.84 16.65-11.63 25.86q.24 10.5.6 21c-1.76-5.06-4-10.17-7.57-14a14.79 14.79 0 0 0-25.3 6.51c-.57.4-3.83 45.5-5.23 67.25-1.35 21.1-2.9 42 .22 63.05s8.75 41.77 13.6 62.48l27.06 115.2c-1.87 4.5-5.74 7.42-12.5 6.23A105.42 105.42 0 0 1 2779 656.5c-11.4-12.9-25.73-33.07-35.82-46.94-15.37-21.13-38.82-42.1-66.38-42.1-14.53 0-29.45 2.63-32.88 17.23-1.75 7.64 17.57 18.34 22.33 22.4 31.32 26.65 59.44 65 81.25 100.23 14.43 23.3 24.23 49.6 40.38 71.77 12.5 17.17 96.4 69.25 122.47 89.17 1.58 24.35 5.85 59.87 6.62 84.27a5.49 5.49 0 0 0 2.54 6.66c2.7 1.64 16.55 2.05 20.1 2.1a190 190 0 0 0 45.69-5.11 192.64 192.64 0 0 0 78.06-38.45c1.74 1.62-3.35-69.57-2.9-83.6.46-14.28 2.58-16.85 4.37-31 1.66-12.93 1.05-25.12-3.38-37.5z" class="X"/><g class="R"><path d="M2863 610.37a54.45 54.45 0 0 0-9.69 2.29c-15.55-35.7-29.87-72.67-39.75-110.38-5.24-20-4.84-39.92-4.82-60.38a315.87 315.87 0 0 0-5.69-60.28c-.24-1.25-2.24-1.08-2 .2a315.94 315.94 0 0 1 5.69 60.28c0 20-.46 39.56 4.47 59.1 9.68 38.33 24.44 76 40.2 112.15a54 54 0 0 0-5.64 2.49c-1.13.58-.43 2.45.7 1.87a52.11 52.11 0 0 1 16.7-5.33c1.28-.18 1.1-2.17-.18-2zm91.32-.65a79.39 79.39 0 0 0-10.9-3.1q-8.88-21.8-17.46-43.7c-6.47-16.55-13.18-33.1-18-50.23-5.1-18-8.1-36.57-11.5-55l-10.35-56c-.23-1.26-2.22-1.08-2 .2l10.35 56c3.3 17.93 6.26 36 11.1 53.62 4.88 17.78 11.84 34.94 18.55 52.1q8.34 21.33 17 42.55c-1.64-.3-3.3-.53-5-.7-1.27-.14-1.62 1.83-.34 2a124.57 124.57 0 0 1 17.73 4.1c1.2.4 2.03-1.37.82-1.8zM2936.8 780.4c-13.07-33.08-54.17-37.57-77-61-.9-.92-2.17.64-1.28 1.55 22.6 23.14 63.6 27.63 76.45 60.18a1 1 0 0 0 1.83-.73zm-92.18-426.22c-.18-1.27-2.18-1.1-2 .2a490.54 490.54 0 0 1 4.74 58.31c0 1.3 2 1.1 2-.2a490.37 490.37 0 0 0-4.74-58.31zm64.93 253.72a48.89 48.89 0 0 0-10.83-1.36c-10.58-27.93-26.36-53.48-34.33-82.44-8.2-29.86-10.4-61-12.58-91.72a1.005 1.005 0 0 0-2 .19c2.15 30.33 4.35 60.93 12.2 90.42s23.74 55.3 34.55 83.56a50.43 50.43 0 0 0-6.44.61c-1.27.2-1.08 2.2.2 2a47.24 47.24 0 0 1 18.87.72c1.27.3 1.6-1.68.36-1.98z"/></g><path d="M3067.52 883.16c-.27 0-149.95 51.85-160.17 55.72-3 1.13-1.46 6-1.46 9.08l.1 15.73q.14 14.74.46 29.5.7 32.33 2.33 64.63a3.4 3.4 0 0 0 .14 2.94l.06 1.2c.2 3.8 6 3.28 6-.45a880.8 880.8 0 0 0 148.63-37 3.32 3.32 0 0 0 3.37-3.17q2-67.8 4-135.63c.03-2.2-1.8-2.95-3.45-2.54z" class="S"/><g class="Q"><path d="M3052.34 936.1a1 1 0 0 0-1.52-.46 168.71 168.71 0 0 0-25.64 25.54 1 1 0 0 0 1.55 1.27v-.05a.85.85 0 0 0 1.37.27c6.18-5.48 12.6-10.6 19.13-15.67 3.7-2.82 7-6 5.1-10.9z"/><path d="M3054.78 939.5a11.31 11.31 0 0 0-10.65-5.77l-2.88.67a11 11 0 0 0-4.56 3.28l-1.5 2.38a11.08 11.08 0 0 0-1 5.67l.1 1a8.14 8.14 0 0 0 1.35 4.13 8.27 8.27 0 0 0 2.6 3.3 8.14 8.14 0 0 0 3.74 1.93 8.31 8.31 0 0 0 4.31.54l2.87-.68a10.83 10.83 0 0 0 4.56-3.28l1.5-2.38a10.94 10.94 0 0 0 1-5.67l-.1-1a8.3 8.3 0 0 0-1.34-4.12z"/></g><path d="M3267.26 485.47c-10.9 2-25.2 14.72-28.82 18.78-9.4 10.54-15.78 23.6-21.53 36.37-11.73 26-18.92 54-32.3 79.33q-1.78 3.4-3.74 6.7a3.82 3.82 0 0 1-7.09-2.4c1.6-13.38 5.66-109.6 3.66-132.13-3.93-44.33-31-175.12-43.2-187.9-9.68-10.12-24.1 3.92-24.37 2.24-1.5-9.54-2.85-16.5-6.78-26-3-7.32-23.92-6-29.7-1.35-11.66 9.4-15.53 35.2-15.2 35.2-12.55.34-22.72 9.54-28 20.83-3.6 7.7-6.6 25.5-7.27 34.06-18.76 18.15-23.8 34.73-24.5 60.22-.9 31.66 3.9 63.5 6.07 95 2.14 31.38 2.62 62.78-1.85 94-4.14 28.94-11.33 57.3-16.6 86.05-5.76 31.36-9.08 63.5-3.38 95.12a3.23 3.23 0 0 0 .38 1c6.24 10.86 6.77 26.37 11.6 38.23 9.52 23.35 18.87 25.06 28.47 48.18l36.37 84.42c1.15 2.8 4.9 2.08 5.7-.13 22 3.43 117.17-32 125.6-39.1.1-.08.16-.17.24-.25a3.18 3.18 0 0 0 2.33-3.94q-11.33-40.3-24.45-80.07c.16-1.7 39.72-108.56 44-122.34 4.3-14 9-32 12.73-46.14q11.9-45.3 25.08-90.23 7.14-24.35 14.64-48.57c3.9-12.62 18.9-35.25 13.54-49.08-2.24-5.62-6.58-7-11.65-6.1z" class="T"/><path d="M2914.25 1465.46c17.67-1.56 166.43-12 196.48-14.26-1.6-34.6-8.2-123.9-11.52-172.4-4.16-61-9-251.1-13.3-284.82a3.08 3.08 0 0 0-5.32-1.91q-59 14.3-117.4 31-29.07 8.3-58 17.18c-4.74 1.46-22.93 6.42-26.45 8.85-6.6 4.54-7.75 197-6.32 283.55.74 45.17.67 90.38-2 135.4 14.57-.98 29.24-1.28 43.82-2.58z" class="V"/><g class="R"><path d="M3134.18 624.38a54.14 54.14 0 0 1-7.09 24.94c-.63 1.12 1.2 1.95 1.82.84a56.14 56.14 0 0 0 7.26-26c.04-1.25-1.95-1.05-2 .22zm52.52 36.48c-4.64.54-6.74-9.93-7.66-13.07a93.17 93.17 0 0 1-3-15.06 1.005 1.005 0 0 0-2 .19 93.61 93.61 0 0 0 5.16 21.7c1.34 3.58 3 8.78 7.7 8.23a1 1 0 0 0-.19-1.99zM3029.5 402.1c-.17-1.27-2.16-1.08-2 .2 5 37.2 10 74.46 11.85 112 1.9 38.43-1.15 76.08-6.15 114.16-.16 1.27 1.8 1.62 2 .35 4.94-37.6 8-74.8 6.26-112.77-1.8-38.2-6.87-76.1-11.96-113.94z"/></g><path d="M3058.53 1041.65c-8.4 6-17.6 13.12-24.4 21-.06.08.55 1.48 1.67 1 5.63-2.37 10.77-6 15.82-9.38 4.3-2.9 7.9-6.22 8.48-11.6a1 1 0 0 0-1.57-1.01z" class="Q"/><g class="R"><path d="M3122.34 384.34q-4.3-29.74-10.06-59.24c-.24-1.26-2.24-1.08-2 .2a1237.26 1237.26 0 0 1 22.49 210.34q.63 30-.23 60.1c0 1.28 2 1.08 2-.2a1237.06 1237.06 0 0 0-12.2-211.19zm-51.02.66q-4.43-32.54-8.86-65.1c-.17-1.27-2.16-1.1-2 .2l15.32 112.73c4.95 37.6 8.14 75.06 6.93 113-.7 21.88-2.36 43.7-4 65.53-.1 1.28 1.88 1.63 2 .35 2.85-37.48 5.66-75.07 3.74-112.67-2-38.27-7.97-76.2-13.13-114.04zm10.16 244.8a130.42 130.42 0 0 1-8.52 28.06c-.5 1.18 1.3 2 1.82.84a133.28 133.28 0 0 0 8.67-28.55 1 1 0 0 0-1.97-.35z"/></g><path d="M3181.9 871.94c-1.14-3.34-111.82 53.25-158.33 91.45-.42.35-1.88 2.93-1.44 4.13l36.36 100.15a3.09 3.09 0 0 0 .69 1.12 3 3 0 0 0 3.34 1.09c53.55-15.92 157.9-65.06 158-65.12 2.97-1.6-24.38-91.06-38.62-132.82z" class="S"/><path d="M3367.1 1407c-22.34-57.8-147.86-436.76-151.8-438.78-4.3-2.22-19.6 7.8-24 9.88q-26.82 12.7-53.12 26.42-51.54 26.92-100.9 57.74c-2.36 1.48-1.2 4.4.87 5.16 33 98.53 56.15 199.93 83.62 300.06 7.73 28.17 15.82 56.25 24.55 84.13 1.16 3.68 6.76 1.54 5.6-2.14l-3.47-11.28c35.67-2.9 71.37-5.84 106.8-11 18.2-2.66 36.24-6 54.2-9.94s35.93-7.68 54.28-6.23c2.27.15 4.27-1.76 3.36-4.02z" class="V"/><path d="M3081 981.62a10 10 0 0 0-6.35-5.23 8.3 8.3 0 0 0-4.31-.54l-2.87.68a11 11 0 0 0-4.56 3.28l-1.5 2.38a10.84 10.84 0 0 0-1 5.67l.1 1a11.32 11.32 0 0 0 12 9.9l2.87-.67a11 11 0 0 0 4.56-3.28l1.5-2.38a11 11 0 0 0 1-5.67l-.1-1a8.34 8.34 0 0 0-1.34-4.14z" class="Q"/><g class="R"><path d="M3269.4 493.38c-6.54-.8-12.73 4.65-16.72 9.3-5.85 6.8-9 15.3-11.77 23.72a1.45 1.45 0 0 0 0 .29 1 1 0 0 0 .63 1.55 38.16 38.16 0 0 1 13.72 5.49c1.07.7 2.35-.84 1.28-1.54a40.76 40.76 0 0 0-13.54-5.67c2.16-6.6 4.58-13.2 8.5-19 3.6-5.27 10.47-13.06 17.58-12.2 1.24.2 1.6-1.77.3-1.93zm-173.92-164.2a39.78 39.78 0 0 0-17.4-2.47 1 1 0 0 0 0-.3 88 88 0 0 1-2.91-20.46c0-7.27.45-18.22 8.82-20.8 1.23-.37.52-2.24-.7-1.86-7.47 2.28-9.26 10.2-9.88 17.14-.8 9 .7 17.95 2.8 26.7a1.12 1.12 0 0 0 .15.31 1 1 0 0 0 1 1.32 37.59 37.59 0 0 1 17.29 2.24c1.2.45 2.03-1.36.83-1.82zm41.72 7.87l-13.72-1.75c-1.75-6.77-6.2-24.9 3.2-26.55 1.26-.22 1.08-2.2-.2-2-12.25 2.14-6.63 22.42-4.7 30.08a.85.85 0 0 0 1.4.43l13.68 1.75c1.27.17 1.62-1.8.34-1.96zm-82.85 23.8l-14.3-.4c-.2-12.68.23-26.73 10.73-35.53 1-.82-.18-2.45-1.17-1.62-11.4 9.56-11.78 24.66-11.53 38.44a.93.93 0 0 0 1.51.68l14.94.4c1.3.04 1.08-1.95-.2-2zm-31.13 51.38a46.18 46.18 0 0 0-8.64.18c-.75-8.36-1.16-16.88 3.47-24.3.68-1.1-1.15-1.9-1.82-.83-4.93 7.9-4.4 17.2-3.57 26.1a.73.73 0 0 0 .06.21.9.9 0 0 0 1.05.89 44.76 44.76 0 0 1 9.11-.3c1.27.1 1.62-1.88.34-1.97z"/></g><g class="Q"><path d="M3036.1 1064.47a.76.76 0 0 1 .34-.87c5.14-3.12 11.95-8.24 17.1-11.36 1.1-.66-1.74-.28-2.84.4l-16.57 10a.61.61 0 0 0-.24.68l62.53 211.8c.36 1.24 2.23.52 1.86-.7q-31.08-104.97-62.18-209.93zm-694.58 15.03c-15.36-17-34.7-31.3-52.56-46-17.65-14.5-34.87-30.27-56.8-38a1 1 0 0 0-1.16 1.5l27.5 37.67c7.64 10.26 16 19.92 25.92 28a101.12 101.12 0 0 0 30.19 17.33c3.65 1.28 7.4 2.3 11 3.9 2.16 1 4.26 2.54 6.67 2.86 4.2.57 3.14 6.6 5 3.35.63-.1 4.82-9.96 4.25-10.6z"/></g><path d="M2491.66 573.1c-7.87-6.58-19.64-2.6-27.22 2.4a94.38 94.38 0 0 0-13.22 10.82q4.6-14 9.16-28 4.18-12.78 8.38-25.56c2.35-7.17 5.53-15 3.32-22.62-1.86-6.4-7.14-11.4-14-11.7a18.89 18.89 0 0 0-2.91.11q1.07-2.77 2-5.6c4.33-12.74 9.07-30.3-2.9-40.5-13-11.1-37 9.72-45 18.75q-4.57 5.16-9 10.54c-42.33 13.93-56.14 29.48-73.4 68.66-11.06 25.1-22.76 58.1-38.22 80.8l-55.33 80c-11.53 17.17-36.5 47.5-48 46-6.68-.9-5.57-24.25-5.32-29.32 1.7-35.13 11.4-73.18 5.37-108.63-1.88-11-4.77-23.23-11.3-32.52-14.7-20.88-32.55-3.2-35.17 15.48-1.77 12.63-.93 25.64-1.6 38.36-1.57 30.16-5.73 60.1-11 89.82-5.25 29.4-11.58 58.57-17.67 87.8-6.06 29.06-11.66 58-11.8 87.8-.17 33.65 4.78 67.08 10.4 100.18 1 5.9 8.2 5.27 10.77 1.14 20 1.82 39.28 8 58.24 14.5 19.48 6.62 39.1 13.12 56.5 24.37a5.31 5.31 0 0 0 7.65-1.68c3.28 3.44 10.63 2.16 10.47-3.9-.5-19.3-2.6-27.14-2.1-55.34.35-19.37 6.1-23.24 16.67-39.33 21.28-32.36 95.68-123.33 97.5-125.2 11.46-11.84 65.37-94.56 71.54-109.5 6.52-15.8 13.22-31.48 20.46-47 16.52-35.26 20.12-38.68 40.8-71.67a5.31 5.31 0 0 0 .57-5 14.34 14.34 0 0 0-4.64-14.43z" class="X"/><path d="M2365 1385.27c-4.47-26.2-12.35-51.6-16.84-77.8-4.44-25.83-8.08-51.87-9.37-78.07-2.47-50 6.58-100 2.83-149.87h-.14l-42.48-31.4c-14.86-11-29.5-22.45-44.83-32.8a209.87 209.87 0 0 0-96.57-34.22c-16.7-1.52-39.17-3.5-54.46 4.73-11.45 6.17-9.55 20.23-10.16 31.7-1.05 19.63-.3 39.3.54 58.93 1.2 28.06 1.2 55.72-1.67 83.7s-8.08 138.68-6.26 166.18a795.81 795.81 0 0 0 11.76 93.19 11.07 11.07 0 0 0 6.66 7.27q107.25 4.37 214.5 9.08l56.1 2.48c-4.86-17.26-6.54-35.44-9.6-53.1z" fill="#e6594c"/><path d="M2174.37 1051.77a367.57 367.57 0 0 0-39.2-35.37 124.25 124.25 0 0 0-18.8-12.54c-3.83-2-10.64-6.63-15-4.75a1 1 0 0 0-.35 1.37c10.72 14.25 20.8 31 35.07 42.08 7.63 5.92 16.38 11.07 24.75 15.87 6.24 3.57 3.55 14.25 6.26 8.16 0-.1-3.38 15.88 2.5.16.9.7 5.62-14.07 4.77-14.98z" class="Q"/><path d="M2121.67 916.76c-8.2-34.87-27.33-64.33-42.82-96.12-7.88-16.18-28.46-60.4-21.46-106.4 6-39.44 31-165.7 34.45-187.92 1.56-10.1 5.17-23.5 1.55-33.4-2.47-6.76-11.67-22.67-22.9-22.6 3.36-15.56 8.17-26 3.14-42.6-2.7-8.95-8.1-20.26-17.9-23.1a15.08 15.08 0 0 0-10.86.84 107.76 107.76 0 0 0-.51-13.91c-1.16-10.9-2.06-22.8-10.95-30.28s-20.15-3.6-25.75 5.6c-2.86 4.7-6.94 15.1-7.08 15.72-3.58-5.25-9.08-9.26-15.76-7.75-9.67 2.2-13.25 13.8-17.1 21.65-13.5 27.67-57 128.1-62.32 146.12-.22-2.37-1.33-52.67-27.4-47a7.76 7.76 0 0 0-3.82 1.58 5.24 5.24 0 0 0-2.22 3.49c-14.4 70.43-11.55 47.16-23.57 106.55-6.36 31.43-7.83 123.5 3.5 147.5 10.35 21.9 65.12 94.63 85.9 124.7 9.48 13.72 21 29.22 26.46 45.13 5.73 16.7 2.07 35.78-.8 52.64a6.08 6.08 0 0 0 1.7 5.47 5.6 5.6 0 0 0 2.36 2.08 461.39 461.39 0 0 0 145.18 44.58 4.78 4.78 0 0 0 4-1.5 5.57 5.57 0 0 0 2.72-3.54 216.38 216.38 0 0 0 2.24-107.52z" class="T"/><path d="M2175.3 1054.53a5 5 0 0 0-2.06-4c-13.46-11-28.85-19.14-44.4-27.12l-51.34-26.3-107.57-54.32a5.48 5.48 0 0 0-6.66 2.74c-32.18 59.92-84.13 255-95.3 286.82-5.7 16.24-12 32.3-19.16 48-7.6 16.73-15.74 33.27-22 50.52-13 36.1-18.5 74.32-33.15 109.93a5.83 5.83 0 0 0-4.19 1.82c-2.6 2.6-3 6-.8 9 2.6 3.44 6.7 3.72 10.8 3.68l94.24-.96c41.67-.43 83.56.17 125.14-2.94 21.6-1.6 43.42-4.07 64.28-9.84 3.22 1.44 7.58.64 8.65-3.58 12.7-49.7 26.93-99.33 36.42-149.7 4.72-25 6.13-50.14 8.54-75.42 2.35-24.7 7.3-49.1 13.5-73.17 7.14-27.75 16-55.07 24.82-82.37a5.53 5.53 0 0 0 .24-2.8z" fill="#e6594c"/><g class="R"><path d="M2441.2 598.6a332.16 332.16 0 0 0-48.59 87.16c-3.18 8.5-7.45 14.74-13.7 21.3q-10.17 10.65-20.46 21.2-19.87 20.38-40.18 40.36c-.9.9.5 2.32 1.42 1.4q20.28-20 40.18-40.35 10.3-10.54 20.46-21.2c4.73-5 9.12-9.74 11.87-16.1 7-16.15 12.93-32.42 21.37-48a329.54 329.54 0 0 1 29-44.42c.83-.96-.57-2.38-1.36-1.36zm10.27-98.02c-29.84 24.56-47.57 61.53-62.84 96.17-15.47 35.1-29.3 71.57-52.25 102.67-13.83 18.76-31.5 34.2-45.78 52.58-1.74-.23-3.47-.43-5.22-.58-1.28-.1-1.28 1.9 0 2s10.64 1.2 15.75 2.43c1.25.3 1.8-1.65.54-1.93a116.05 116.05 0 0 0-8.8-1.6c12.87-16.37 28.46-30.37 41.33-46.74 11.42-14.5 20.74-30.53 29-47 16.95-34 29.38-70.24 48-103.45 11-19.55 24.26-38.74 41.7-53.1 1-.85-.43-2.26-1.42-1.45zm-548.77 51.5A967.15 967.15 0 0 0 1871.48 693c-.18 1.26 1.75 1.8 1.93.53a967.15 967.15 0 0 1 31.22-140.93 1.001 1.001 0 0 0-1.93-.53zm96.37-159.87A1771.71 1771.71 0 0 0 1944 588.44q-6.18 28.18-11.44 56.56c-.24 1.26 1.7 1.8 1.92.54a1773 1773 0 0 1 48.67-197.93q8.5-27.58 17.9-54.87c.37-1.22-1.56-1.74-1.98-.53zm32.13 41.72q-34.2 116-60.92 234c-.28 1.26 1.64 1.8 1.93.53q26.68-118 60.92-234a1.001 1.001 0 0 0-1.93-.53zm29.17 56.63q-18.12 56.2-32.82 113.44-7.2 28.13-13.58 56.47c-4.08 18.16-9 36.95-4.8 55.55.28 1.25 2.2.68 1.9-.58-4.54-20 1.68-40.67 6.1-60.14q6.24-27.37 13.26-54.56 14.3-55.3 31.86-109.7c.4-1.23-1.55-1.7-1.94-.5zm-83.04 250.4a68 68 0 0 1-11.32-50c.2-1.26-1.72-1.8-1.93-.53A70.07 70.07 0 0 0 1975.6 742c.73 1 2.46 0 1.73-1.06zm-43.03-12.22a106.28 106.28 0 0 1-14-31.06 1.001 1.001 0 0 0-1.93.53 107.85 107.85 0 0 0 14.17 31.54c.74 1.07 2.46.07 1.76-1zm-53.75-226.87c-.72-1.06-2.45-.06-1.73 1 5.32 7.77 3.67 17.34 2.2 26q-.5 2.93-1 5.84c-.4 2.13-.47 5.9-1.58 7.75-2.6 4.3-5.9 2.5-9.92 3.17-1.27.2-.73 2.14.53 1.92 3.2-.53 7.6 1.26 10.08-1.58 1.12-1.28 1.3-3.34 1.65-4.9a194.76 194.76 0 0 0 2-10.68c1.63-9.46 3.57-20.02-2.24-28.5zm509.8-1.22c-17.46 28.54-33.22 58.24-44.94 89.63-6.08 16.3-9.75 33.6-19 48.5-9.46 15.15-20 29.68-30.06 44.44l-34.95 51.3c-1.3 1.87-2.72 3.65-4.1 5.47l-2.14 2.83c-.25.33-1.83 2.86-2.14 2.83a70.25 70.25 0 0 0-8-.4 1 1 0 0 0 0 2 68.57 68.57 0 0 1 17.06 2c1.25.3 1.8-1.62.53-1.93a74.38 74.38 0 0 0-7.35-1.41c2.92-3.85 5.95-7.62 8.66-11.63l26.25-38.44q8.76-12.8 17.5-25.65 8.45-12.45 16.83-25a109.38 109.38 0 0 0 11.23-20.46c3.16-8 5.38-16.33 8.16-24.45a419.16 419.16 0 0 1 20.07-48c8.5-17.35 18-34.17 28.08-50.64.7-1.08-1.04-2.1-1.7-1zM2289.8 783.5c-25.16 15.92-48.47 32.9-66.8 56.68a198 198 0 0 0-35.61 74.38c-.3 1.26 1.62 1.8 1.92.54a196.39 196.39 0 0 1 35.26-73.7c18.15-23.56 41.32-40.4 66.24-56.18 1.1-.68.1-2.4-1-1.72zM2028 367.38c-.8-1-2.2.42-1.42 1.42 8.52 10.7 2.75 27.2-.47 39.1-5.4-1.56-10.8-3-16.48-3.1a1 1 0 0 0 0 2c5.8.15 11.3 1.67 16.83 3.28a.94.94 0 0 0 1.21-.84 1.06 1.06 0 0 0 .27-.45c3.4-12.8 9.27-29.8.06-41.4zm36.7 63.3c-.26-6.87-1-14.74-7.1-19-1.06-.74-2.06 1-1 1.72 6.6 4.6 6.4 15.3 6.1 22.46a66.15 66.15 0 0 1-4.83 21.81c-5.86-3.76-12.7-4.8-19.52-5.66-1.27-.16-1.26 1.84 0 2 6.8.87 13.52 1.9 19.27 5.9a.87.87 0 0 0 1.33-.39 1 1 0 0 0 .56-.57 67.63 67.63 0 0 0 5.2-28.26zm11.94 49.02c-1-.83-2.4.58-1.42 1.4 10.42 8.8 8.43 22.85 6 34.78a36 36 0 0 0-16.09-3.61 1 1 0 0 0 0 2 33.79 33.79 0 0 1 16 3.79 1 1 0 0 0 .94 0 .85.85 0 0 0 .87-.71c2.67-12.83 4.96-28.17-6.3-37.66zM1992 380.94c-.47-1.2-2.4-.67-1.93.53 3.4 8.64-.66 19-3.6 27.4a54 54 0 0 0-13-2.4c-1.28-.08-1.28 1.92 0 2a51.32 51.32 0 0 1 13.4 2.61 1 1 0 0 0 1.23-.7c3.03-9.04 7.6-19.98 3.9-29.45z"/></g><g class="Q"><path d="M2170.4 1059.9c-13.43 45.7-26.93 91.62-33.6 139-3.28 23.26-5 46.7-8.2 70q-4.86 35.73-12.2 71-8.23 39.7-19.55 78.6a1.005 1.005 0 0 0 1.93.56 1046.21 1046.21 0 0 0 30.5-140.7c3.3-22.74 5.35-45.6 8.08-68.4a608 608 0 0 1 13.46-71.92c6.37-26.1 13.94-51.86 21.5-77.6a1.001 1.001 0 0 0-1.93-.53zm-227.87 116.3h-.22a1 1 0 0 1-.75-1.19c15.62-68.8 58.46-182.94 58.9-184.1a1 1 0 1 1 1.87.71c-.43 1.14-43.23 115.17-58.82 183.82a1 1 0 0 1-.98.75zm67.77 23.94a.65.65 0 0 1-.2 0 1 1 0 0 1-.79-1.17c5.9-29.42 52.18-172.17 52.65-173.6a1 1 0 0 1 1.26-.64 1 1 0 0 1 .64 1.26c-.46 1.44-46.72 144.08-52.58 173.38a1 1 0 0 1-.98.78zm76.43 17.78h-.16a1 1 0 0 1-.83-1.14c4.6-30.34 31.07-163 31.34-164.38a1.019 1.019 0 0 1 2 .39l-31.33 164.3a1 1 0 0 1-1.02.84zm130.55 9.28a1 1 0 0 1-1-.82c-4-21.1 8.1-169.72 8.63-176a1.004 1.004 0 1 1 2 .17c-.12 1.54-12.56 154.65-8.65 175.5a1 1 0 0 1-.8 1.17zm69.14 4.5a1 1 0 0 1-1-.72c-4-13.88-.2-142.3 0-147.77a1 1 0 1 1 2 0c0 1.34-4 133.57 0 147.16a1 1 0 0 1-.69 1.24z"/></g><path d="M490.77 773.64c-.16-20.32-4.2-40.57-6.27-60.74q-3.2-31.08-4.3-62.33-.62-17.43-.56-34.88c0-9.45 1.94-21.24-3.6-29.58-4.7-7.07-14.4-10.13-21.42-4.48-3.92 3.17-6.74 8-9.72 12l-2.94 3.94c-24.88 14-41.58 39.17-51.07 65.7-12.8 35.7-15.27 74.26-24.08 111-9.08 37.83-21.57 74.74-35 111.22-13.34 36.3-27.86 72.1-35.93 110.07-8.23 38.7-4 184.25-4 185.8.67 53.56 0 42.65 7.22 95.72.95 7 122-25.5 121.87-26.44a6.14 6.14 0 0 0-.1-1.06L411 1147.42c1.25-.76 34.1-170.32 53.7-252.76q7.3-30.72 15.36-61.26c5.22-19.55 10.86-39.4 10.7-59.76z" class="T"/><path d="M449.55 594.3c.55-1.17-1.33-1.87-1.88-.7-19.07 40.45-10.77 85.95-11.84 129 0 1.28 2 1.47 2 .2 1.06-42.87-7.28-88.2 11.72-128.48z" class="R"/><path d="M443 720.66a17.85 17.85 0 0 0-1.38-1.66c-16.52-17.84-33 10.2-39.27 23-8.4 17.28-26.08 57.2-27.1 59.6a795.64 795.64 0 0 1 6-26c5.82-22.77 95.72-203.56 48.77-224.7-.5-.22 4.46-41.7-12.75-39.23-10.28 1.46-16.6 9.82-21.3 18.33L378 563.3 303.72 700c-11.76 21.64-24.2 43.13-33.47 66-9.4 23.13-14.34 47.63-18.67 72.13l-13.24 75.9-13.1 74.93c-4.5 24.93-9.83 49.67-18.08 73.67-9.1 26.5-20.63 52.12-31.6 77.88l-34.1 80.12c-2.7 6.34 3.66 10.83 8.9 9.67 15.3 7.55 30.55 15.22 45 24.3 15.9 10 30.26 22 44.54 34.1 4.3 3.65 9 1 10.8-3.08a7.71 7.71 0 0 0 1.3-2.2l44.6-113.88c18.8-23.85 36.75-48.52 50.13-75.9 22-45 20.27-92.94 30.56-140.6A394 394 0 0 1 390.22 908c10.15-29.5 22.62-58.12 33.68-87.28 6.2-16.4 12-33 16.63-49.9 3.66-13.34 12.27-36.93 2.47-50.17z" class="X"/><path d="M248 1213.3c-15.88-13.7-69.18-64.77-77.46-64.93a6.23 6.23 0 0 0-5.38 2.94c-22.9 33.45-42.46 69-63.83 103.42C81 1287.6 57.12 1318 35.45 1350c-11.4 16.85-21.9 34.34-30.5 52.8-6.67 1.13-6.9 12.63 1.1 14l96.2 15.8a360.36 360.36 0 0 0 48.2 4.16c15.3.18 31-.4 45.6 4.75 2.77 1 6.52.17 8.17-2.48 8.67-14 12.53-29.67 17.05-45.3q7.42-25.65 17-50.63c12.2-31.84 28.45-62.22 35.73-95.76.47-2.14-21.1-29.84-26-34.04z" class="V"/><g class="R"><path d="M370.17 820.12a821.41 821.41 0 0 0-35.49 100.11c-.35 1.23 1.52 1.95 1.87.7A820.81 820.81 0 0 1 372 820.83c.55-1.2-1.32-1.9-1.83-.7zm47.23-271.76c-6.54 7.54-9.87 16.8-12.8 26.2-3.44 11.1-7 22.12-11.14 33-8.48 22.32-19.06 43.68-29.4 65.18-20.64 43-36.86 87.63-50.7 133.24-7.8 25.66-14.95 51.5-22.1 77.35-.34 1.23 1.53 2 1.87.7 12.6-45.5 25.2-91.07 41.25-135.5 7.92-21.9 16.7-43.5 26.6-64.6 10-21.3 20.78-42.23 29.74-64q7.73-18.75 13.76-38.14c3.54-11.35 6.58-23.06 14.55-32.24.85-1-.8-2.14-1.63-1.18zm-130.7 356.7a1.004 1.004 0 0 0-2-.18 222.7 222.7 0 0 0 .31 39.5c.12 1.28 2.1.92 2-.35a220.54 220.54 0 0 1-.31-38.97zm151.1-175.23c-.1-1.28-2.06-.92-2 .35.68 9.6-1.56 18.8-4.73 27.78-1.08 3.1-2.48 10.23-6 11.42-1.43.5-3.95-.14-5.54-.2l-7.4-.27c-1.28 0-1.47 2-.18 2l9.23.33c1.8.07 4.2.64 5.9-.15 2.8-1.3 3.63-6.36 4.57-8.88 3.92-10.46 6.92-21.1 6.13-32.38zm-25.57-208.9c-.26-1.26-2.23-.9-2 .35 1.6 7.63-2.58 15.26-5.8 22a80.18 80.18 0 0 1-5.42 10.31c-3.1 4.54-7.77 4-12.64 3.45a1.004 1.004 0 0 0-.18 2c3.23.37 8.94 1.3 11.9-.74 2.76-1.92 4.24-6.5 5.76-9.4 4.33-8.24 10.4-18.33 8.4-27.96zm12.47 41.26c0-1.27-2-1.46-2-.18a86.16 86.16 0 0 1-1.79 21.55c-.77 3.5-1.55 8.77-3.55 11.85l-.67 1.68a6 6 0 0 1-4.95.58 57 57 0 0 1-6.55-1.63c-1.24-.3-2 1.57-.7 1.88l8.42 2.08c1.06.25 2.32.73 3.4.36 2.62-.9 3.4-5.46 4.14-7.64a85.94 85.94 0 0 0 4.25-30.53z"/></g><path d="M410.5 1071.3c.2-27.5-.27-54.87 1.4-82.34s4.9-54.87 8.8-82.16l7-52.26c.82-7.57 8.6-44.6-2.48-45.22a5.5 5.5 0 0 0-2.8-1.12c-21-2.48-36.48 14.22-43.85 32-9 21.73-12.56 46.27-15 69.5-5.06 47.37 2.86 91.58-4.94 138.68-4.2 25.38-17.27 54.24-29.86 76.8a5.67 5.67 0 0 0-.68 3.86 5.34 5.34 0 0 0 1.6 6.69c8.9 6.9 19.9 9.74 30.94 10.8 10.72 1 22.57 1.2 31.42-5.9s12.2-18.73 14.6-29.16c2.93-13.16 3.75-26.66 3.86-40.17z" class="T"/><g class="R"><path d="M432.2 819.38c.2-1.27-1.8-1.45-2-.18a1376 1376 0 0 0-15.45 196.67c0 1.28 2 1.47 2 .18a1374.66 1374.66 0 0 1 15.45-196.67zM414.17 1048a1.005 1.005 0 0 0-2-.19 158.86 158.86 0 0 1-15.88 59.69c-.57 1.15 1.3 1.85 1.87.7a160.12 160.12 0 0 0 16.01-60.2zm6.88-230.76c-7.7-.43-12.95 5.8-16.26 12.1a45.58 45.58 0 0 0-4.59 27.54 1 1 0 0 0 .63.76l14 3.26c1.24.28 1.95-1.6.7-1.88-3.22-.75-11.83-1.2-13.57-4.2-.8-1.38-.28-5.1-.22-6.65a42.74 42.74 0 0 1 .87-6.87c1.82-8.64 7.58-22.64 18.3-22 1.25.03 1.44-1.96.15-2.04z"/></g><path d="M464.36 1466.57v-.13a2.88 2.88 0 0 0-.68-2.55l-14.84-56.37c-4.86-19.27-6.86-38.92-9.14-58.62l-14.1-121.48c-.33-2.8-3.14-3.36-5.07-2.3-.3 0-43.12 6.76-63.5 13.2-10.15 3.2-20.23 6.66-30.28 10.17-8.25 2.88-24.42 12.45-31 18.4-7.18 6.45-5.74 42.5-7 53.4-2.64 22.52-1.56 117.27 0 142a3.91 3.91 0 0 0 .47 3.94c.87 1.94 3.48 2 5.16.77 26.93-4.6 53.95 1.45 80.93 2.76 27.47 1.34 55.85-6.9 82.94-.45 2.04 2.48 7.1 1.1 6.1-2.7z" class="V"/><g class="Q"><path d="M328.34 1260.43c0-1.28-2-1.47-2-.18q-1.75 113.6 2.64 227.2c0 1.27 2 1.47 2 .2q-4.38-113.55-2.64-227.2zm31.46-.65c-.07-1.28-2-.92-2 .35l11.07 195c.08 1.28 2 .92 2-.35zm61.87 208.74q-12.24-102.15-24.5-204.3c-.15-1.27-2.12-.92-2 .36q12.26 102.14 24.5 204.3c.2 1.28 2.16.92 2-.35zM193.2 1188q-52.7 90-100.85 182.67-13.92 26.8-27.45 53.8c-.57 1.15 1.3 1.85 1.88.7q46.86-93.5 98.4-184.57 14.64-25.86 29.65-51.5c.65-1.1-.98-2.27-1.63-1.1zm29.53 41.44c-11.87 16.6-21.86 34.37-31.85 52.12l-91.4 162.5c-.63 1.1 1 2.28 1.63 1.16q30.63-54.45 61.25-108.9l30.15-53.6c10-17.75 20-35.52 31.84-52.12a1 1 0 0 0-1.62-1.16zm12.35 54.94c-15.47 56.66-52.5 104.1-71.2 159.5-.4 1.2 1.46 1.92 1.87.7 18.7-55.4 55.72-102.83 71.2-159.5.34-1.24-1.53-1.95-1.87-.7z"/></g><g class="W"><path d="M2251.67 277.88q-2.72 49.55-10 98.68c-.28 1.9 2.6 2.7 2.9.8q7.4-49.5 10.15-99.48c.06-1.88-2.94-1.88-3.04 0zm42.33 33.65l-7.38 41.32c-.34 1.9 2.55 2.7 2.9.8q3.7-20.65 7.4-41.32c.3-1.9-2.58-2.7-2.9-.8zm641.82-45.27q-14.13-69.78-28.27-139.55c-.38-1.9-3.28-1.1-2.9.8q14.13 69.78 28.27 139.55c.38 1.94 3.27 1.1 2.9-.8zM2959 157.9l-1.62 66.68c0 1.93 3 1.93 3 0l1.62-66.68c0-1.9-3-1.9-3 0zm-1653.12-60c-.1-1.92-3.1-1.94-3 0q3.18 65.72 4.65 131.5c0 1.93 3 1.94 3 0q-1.47-65.77-4.65-131.5zm42.52 40.5q-1.17 39.07-4.92 78c-.2 1.92 2.8 1.9 3 0q3.75-38.92 4.92-78c.06-1.93-2.94-1.93-3 0zm-68.12 93.13q-11.2-45.25-25.83-89.54c-.6-1.83-3.5-1.05-2.9.8q14.63 44.26 25.83 89.55c.46 1.87 3.36 1.08 2.9-.8zM393.78 445.9q6.93-96 18.82-191.58c.24-1.9-2.76-2-3-.13q-11.88 95.52-18.8 191.57c-.14 1.93 2.85 2.07 3 .14zm38.67-15.9q8.4-42.67 14.48-85.76c.27-1.9-2.73-2-3-.14q-6 42.67-14.33 85c-.37 1.9 2.48 2.8 2.85.9zM988.12 73.1q-12.7 66.14-30.66 131.1a1.51 1.51 0 0 0 2.9.8q18-64.9 30.66-131.1c.36-1.9-2.53-2.7-2.9-.8zm11.28 76.12L979 210.1c-.62 1.84 2.28 2.63 2.9.8q10.2-30.43 20.38-60.87c.64-1.84-2.27-2.62-2.87-.8zm2.9 50.58l-12 27c-.78 1.75 1.8 3.28 2.6 1.52q6-13.5 12-27c.78-1.75-1.8-3.3-2.6-1.52z"/></g><path d="M2570.22 1357.82l29.17-32.9s17.33 17.08 18.67 19.2-47.84 13.7-47.84 13.7z" class="Q"/><path d="M2797.28 1427.3c-34.87-58.6-90.1-167-119.85-228.35 8.6-53.25 15.6-69.46 18.38-123.15 2.6-50.14 25-98.7 51.16-140.84a412.31 412.31 0 0 1 26.35-37.52q7.57-9.6 15.7-18.75c4.33-4.87 14.14-12.46 9.52-20.1-7.8-12.92-20.65-14.93-34.65-10.83-35.45 10.4-58.67 42.4-73.75 74.28-6 12.8-12.76 25.3-19.83 37.55-4.47 7.75-8.26 16.8-15.3 22.64-6.17 5.1-22.86 6.87-23.75-4.55-2.1-26.58-3.65-58.14-7.74-80.07-2.73-14.63-4.75-30.8-14-43-8.3-11-22.43-9.9-36.13-5.33-15.74 5.28-23.3 11.78-28.9 26.36a61.39 61.39 0 0 0-12.27-7.69c-10-4.8-21 4.3-30.16 10-14.57 9.1-22.16 18-23.1 34.27-25.73-4.27-47.3 29.7-47.53 39.3a81.46 81.46 0 0 0 3 24c-8 10.18-17.75 26.06-22.18 38.16-5.36 14.66 2 25.1 12.46 36.5 9.72 10.6 14.54 25.2 21.34 28.54 9.76 61.3 31.2 113.3 78.47 153.12a112.52 112.52 0 0 0 17.26 12l94.24 185c-1.3 3.78.65 8.9 5.88 9q75.66 1.7 151.33 1.1c6.7 0 8.06-8.3 4.07-11.6z" class="W"/><g class="U"><path d="M2595.57 1071.68c.47-1.2-1.46-1.72-1.92-.53q-6.6 16.9-13.2 33.82c-4.33 11.1-9.66 22.26-12.7 33.8-5.3 20.12 8.7 35.93 14.33 54.13.38 1.23 2.3.7 1.93-.53-2.63-8.5-7-16.22-10.6-24.32-4.74-10.67-6.4-20.83-2.7-32.16 7.1-21.72 16.56-42.88 24.86-64.2zm-13.8-57.38q-14.4-66.88-32.72-132.84a1.001 1.001 0 0 0-1.93.53q18.3 65.93 32.73 132.84c.27 1.26 2.16.72 1.92-.53zm47.74-30.43c-.94 12.43 0 28.78-9.62 38.24-4.3 4.2-10.06 6.37-15.88 7.45-6.45 1.2-16.92 3-20.06-4.3-.5-1.17-2.23-.16-1.72 1 1.6 3.76 3.88 5.38 6.7 6-10.2 11.46-26.38 25.65-41.16 12.77-5.67-4.93-9.53-12-13.5-18.25q-6.32-10-12.15-20.23a496.32 496.32 0 0 1-39-87.47c-.4-1.22-2.34-.7-1.93.53a497.84 497.84 0 0 0 44.67 97.36c4.5 7.53 9.07 15.17 14.22 22.3 3.74 5.15 8.3 10.12 14.6 12a22 22 0 0 0 7.53.85c-4.52 12.23-16 22.37-29.65 20.62-14.06-1.8-27.5-13.12-37.75-22.18-21.1-18.64-38.3-42-52.9-65.9-.67-1.1-2.4-.1-1.73 1 16.4 26.92 36.23 53.6 61.3 73 8.56 6.64 19.32 14.65 30.67 16.1-2.68 4.83-5.63 9.85-10.24 13-5.8 4-13.18 3.24-19.8 2.44a114.57 114.57 0 0 1-38.79-12.06c-1.14-.6-2.16 1.13-1 1.72a116 116 0 0 0 43.3 12.7c6.57.56 13 .32 18.4-3.9 4.57-3.58 7.54-8.75 10.3-13.74a26.41 26.41 0 0 0 6-.39c11.65-2.18 20.35-11.85 24.07-22.7 10.83-1.75 19.9-11.22 26.9-19.26a52 52 0 0 0 6.44-.23c7-.52 14.25-2 20.13-6 13.45-9.24 12.54-28 13.63-42.46.1-1.3-1.9-1.3-2-.01z"/></g><path d="M2801.73 1421.83l-68.63-126.53c-1.84-2.72-3.55-4.62-6.78-4-11.26 2-102.93 23-154.48 65.17-14.4 11.8-1.86 15.5 18.86 71.23 8.15 21.9 0 0 8.9 21.6z" class="Q"/></g></svg>