<svg xmlns="http://www.w3.org/2000/svg" xmlns:xlink="http://www.w3.org/1999/xlink" width="793.701" height="564.654" viewBox="0 0 595.276 423.49" xmlns:v="https://vecta.io/nano"><style><![CDATA[.AF{fill:#fff}.AG{fill:#f4a082}.AH{fill:#fde1c8}.AI{fill:#3b261e}.AJ{fill:#554844}.AK{fill:#db7753}.AL{fill:#fef1e6}.AM{fill:#974b36}.AN{fill:#716765}.AO{fill:#c7926d}.AP{fill:#bb7460}.AQ{fill:#d9af91}.AR{fill:#635ea6}.AS{fill:#d5e2ec}.AT{fill:#f5d6c1}.AU{fill:#4f8372}]]></style><path d="M589.837 226.612l-2.876-78.774-.595-34.497c-.025-16.47.38-33.116-3.18-49.243-3.56-16.14-11.528-32.04-25.426-42.174-16.203-11.82-37.36-14.074-58.352-14.2l-2.052-.013c-4.7 0-9.4.1-14.012.203-50.94 1.19-101.907 1.064-152.872.95l-63.23-.152q-10.813-.02-21.613-.05c-2.255 0-4.5-.013-6.765-.013-1.178 0-2.356 0-3.535-.013l-18.306-.038c-1.99 0-3.978-.012-5.967-.012q-11.554-.02-23.12-.05-37.93-.095-75.873-.178c-21.03-.05-43.048.114-61.646 9.3C29.452 28.006 16.01 48.605 9.93 70.04a153.496 153.496 0 0 0-5.207 34.991c-.494 10.35-.33 20.764-.152 31.114l.05 2.673q1.083 65.237 2.217 130.474.285 17.673.595 35.346c.393 23.7.95 48.1 10.996 69.842 10.464 22.664 30.734 37.5 56.756 40.793 32.61 4.13 67.688 1.546 100.728 1.862.317-.013.633 0 .95 0l63.57.684q13.416.152 26.807.29 29.037.304 58.073.62l6.334.076q27.953.285 55.894.595l16.862.177 22.563.2 23.21-.1 5.283-.09c10.566-.228 21.12-.67 31.634-1.444 6.46-.48 12.91-1.09 19.332-1.875q6.062-.703 12.086-1.634c.114-.013.24-.038.355-.05 2.103-.33 4.22-.684 6.334-1.1 4.447-.824 8.906-1.837 13.24-3.09a91.352 91.352 0 0 0 9.197-3.142c9.6-3.826 18.09-9.286 23.956-17.305 6.246-8.526 8.716-18.927 10.63-29.113 2.698-14.265 4.573-28.606 5.84-42.985l.76-9.78c1.9-27.035 1.787-54.22 1.014-81.46z" class="AL"/><path d="M254.602 8.683h1.267v389.802h-1.267z" fill="#e8cbb5"/><path d="M586.393 117.216l-26.997 18.154-9.425 6.347-2.952-.48L269.436 95.4V8.71l7.98.025q26.528.057 53.056.127l152.872-.95 14.012-.203 2.052.013 3.117.038 1.57.038 3.18.09c3.737.14 7.462.367 11.136.747l1.812.203c.545.05 1.1.127 1.634.2a33.33 33.33 0 0 1 1.621.228c.824.1 1.634.228 2.445.355l1.166.203a86.56 86.56 0 0 1 15.848 4.219c.456.165.912.355 1.368.532.912.355 1.824.748 2.71 1.153.013 0 .013.013.025.013.456.203.925.418 1.38.646a62.765 62.765 0 0 1 6.385 3.534 27.29 27.29 0 0 1 1.09.722q.95.627 1.862 1.292a51.08 51.08 0 0 1 3.75 3.003 50.32 50.32 0 0 1 2.255 2.077 57.423 57.423 0 0 1 4.219 4.574c.33.393.66.798.975 1.203.253.304.494.62.722.938.71.912 1.38 1.85 2.027 2.813l.85 1.292a46.21 46.21 0 0 1 .824 1.318q.418.665.798 1.33a27.72 27.72 0 0 1 .76 1.343c.253.443.494.9.735 1.368l.71 1.38c.228.456.456.925.672 1.393.177.355.342.7.507 1.077a58.36 58.36 0 0 1 1.356 3.18l.558 1.42q.722 1.862 1.33 3.763c.14.393.254.785.38 1.178.165.494.317 1 .456 1.495a83.88 83.88 0 0 1 1.039 3.889l.355 1.495q.076.323.152.646a117.846 117.846 0 0 1 2.09 13.1c.09.76.165 1.52.228 2.267l.215 2.584.177 2.597c.29 4.84.405 9.692.443 14.556l.013 2.154.013 11.985.026 3.876z" class="AT"/><path d="M586.393 117.216l-26.997 18.154-281.98-46.57V8.734q13.682.038 27.364.063l3.332.013 22.36.05q21.34.057 42.668.063 12.37 0 24.73-.025 17.406-.038 34.8-.2 11.877-.114 23.754-.29 3.8-.038 7.6-.127 9.654-.152 19.32-.38l14.012-.203 2.052.013 3.117.038 1.57.038 3.18.09 1.926.088 1.267.064 7.943.595 1.812.203 1.634.2a33.33 33.33 0 0 1 1.621.228l2.445.355 1.166.203a86.56 86.56 0 0 1 15.848 4.219l1.368.532 2.71 1.153c.013 0 .013.013.025.013l1.38.646a62.765 62.765 0 0 1 6.385 3.534 27.29 27.29 0 0 1 1.09.722q.95.627 1.862 1.292a51.08 51.08 0 0 1 3.75 3.003 50.32 50.32 0 0 1 2.255 2.077 57.423 57.423 0 0 1 4.219 4.574l.975 1.203.722.938 2.027 2.813.85 1.292a46.21 46.21 0 0 1 .824 1.318q.418.665.798 1.33l.76 1.343.735 1.368.71 1.38.672 1.393.507 1.077a58.36 58.36 0 0 1 1.356 3.18l.558 1.42q.722 1.862 1.33 3.763l.38 1.178.456 1.495 1.04 3.89.355 1.495q.076.323.152.646a117.846 117.846 0 0 1 2.09 13.1l.228 2.267.215 2.584.177 2.597c.29 4.84.405 9.692.443 14.556l.013 2.154.013 11.985.026 3.876z" fill="#e8c2a7"/><path d="M433.723 11.015L432.67 8.71q-17.406.152-34.8.2c-2.407 3.218-4.447 6.537-4.168 10.502.253 3.535 3.573 5.638 6.45 7.095a46.57 46.57 0 0 0 14.506 4.333c7.702 1.064 16.938-1.04 20.067-9.083 1.444-3.674.48-7.22-1-10.73z" class="AF"/><path d="M373.14 8.924q-21.34 0-42.668-.063l-16.19-.038a10.606 10.606 0 0 0 .165 1.051 14.106 14.106 0 0 0 7.513 9.261c4.22 2.18 8.906 2.432 13.556 2.23 5.98-.253 11.503 1.964 17.42 2.622 4.13.468 8.627.785 12.517-.988 3.813-1.736 5.992-5.36 7.044-9.286a15.15 15.15 0 0 0 .646-4.789z" class="AO"/><g class="AQ"><path d="M509.838 99.49a.633.633 0 0 1-.633-.633V59.8a.633.633 0 1 1 1.267 0v39.067a.633.633 0 0 1-.633.633z"/><path d="M465.622 119.44a.633.633 0 0 1-.261-1.211l44.215-19.95a.633.633 0 1 1 .522 1.154l-44.215 19.95a.635.635 0 0 1-.261.056zm99.265-84.983a.66.66 0 0 1-.099-.008L509.74 25.9a.634.634 0 0 1 .195-1.252l55.048 8.55a.634.634 0 0 1-.096 1.26zm-104.32 57.38a.667.667 0 0 1-.098-.007L322.528 70.66a.633.633 0 0 1 .193-1.252L460.663 90.58a.633.633 0 0 1-.095 1.259z"/></g><g class="AR"><path d="M511.463 67.157l-14.57-2.022-9.29 56.772 14.203 2.062 9.657-56.812z"/><path d="M501.806 123.686l13.668-8.256 8.65-55.723h-17.52l-9.712 5.428 2.64 15.688 2.273 42.863z"/></g><path d="M498.508 65.135l12.246-7.084 7.74 2.428-10.907 6.23-9.08-1.573z" class="AF"/><path d="M579.192 110.263a.661.661 0 0 1-.099-.007L509.74 99.484a.634.634 0 0 1 .195-1.252l69.353 10.772a.634.634 0 0 1-.097 1.26z" class="AQ"/><g fill="#fabf82"><path d="M523.904 68.988l-14.57-2.022-9.3 56.77 14.202 2.062 9.657-56.81z"/><path d="M514.247 125.516l13.67-8.256 8.65-55.723h-17.52l-9.713 5.43 2.64 15.688 2.273 42.862z"/></g><path d="M511.974 67.118l11.93-7.41 8.472 2.375L521.4 69.05l-9.426-1.932z" class="AF"/><g class="AJ"><path d="M532.885 70.24l-9.41-.928-9.29 56.49 9.044 1.25 9.656-56.81z"/><path d="M543.116 63.07l-6.22 55.73-13.67 8.247L521 84.367l.504-3.422.43-2.508 1.546-9.122 9.704-5.434h3.408l6.524-.81z"/></g><path d="M536.782 81.01l-.43 2.495-14.847-2.56.43-2.508 14.848 2.572z" class="AH"/><path d="M525.697 69.632l12.04-6.857 4.175 1.188-11.085 6.413-5.13-.744z" class="AF"/><g fill="#ec7660"><path d="M547.018 72.305l-14.57-1.74-9.3 56.488 14.203 2.062 9.656-56.81z"/><path d="M537.362 129.116l13.668-8.255 2.745-51.182-8.207-4.54h-3.406l-9.713 5.428 2.64 15.688 2.273 42.862z"/></g><path d="M535.09 71.058l11.93-7.412 8.473 2.376-10.977 6.967-9.425-1.93z" class="AF"/><path d="M322.625 70.666a.633.633 0 0 1-.633-.633V30.23a.634.634 0 0 1 1.267 0v39.802a.633.633 0 0 1-.634.633z" class="AQ"/><path d="M464.7 119.737l-7.614-1.254-.67-110.065q3.8-.038 7.6-.127zm121.693-2.52l-26.997 18.154-9.425 6.347-2.952-.48V15.715c.013 0 .013.013.025.013l1.38.646a62.765 62.765 0 0 1 6.385 3.534l1.1.722q.95.627 1.862 1.292l3.75 3.003 2.255 2.077a57.423 57.423 0 0 1 4.219 4.574l.975 1.203.722.938 2.027 2.813.85 1.292.824 1.318q.418.665.798 1.33l.76 1.343.735 1.368.7 1.38.672 1.393.507 1.077 1.356 3.18.558 1.42q.722 1.862 1.33 3.763l.38 1.178.456 1.495 1.04 3.9.355 1.495q.076.323.152.646a117.846 117.846 0 0 1 2.09 13.1l.228 2.267.215 2.584.177 2.597c.3 4.84.405 9.692.443 14.556l.013 2.154.013 11.985.026 3.876z" class="AT"/><g class="AQ"><path d="M278.328 88.774a.634.634 0 0 1-.24-1.22l44.297-18.108a.634.634 0 0 1 .48 1.173l-44.297 18.108a.634.634 0 0 1-.24.047zM308.113 8.8l-27.947 11.427a.587.587 0 0 1-.241.051.637.637 0 0 1-.241-1.229L304.78 8.79l3.332.013zm202.357-.763v17.23a.464.464 0 0 1-.038.19.394.394 0 0 1-.063.152.551.551 0 0 1-.266.241h-.013a.565.565 0 0 1-.253.051.43.43 0 0 1-.127-.013.651.651 0 0 1-.507-.621V7.974l1.267.064z"/><path d="M465.622 45.857a.633.633 0 0 1-.261-1.211l44.215-19.95a.633.633 0 1 1 .522 1.154L465.883 45.8a.633.633 0 0 1-.261.056z"/></g><path d="M536.57 127.686a.71.71 0 0 1-.095-.007.633.633 0 0 1-.532-.721l7.947-52.796a.633.633 0 1 1 1.252.188l-7.948 52.796a.633.633 0 0 1-.625.539z" fill="#d5563d"/><g class="AH"><path d="M283.666 66.966v19.116l85.2 15.095V80.62l-85.2-13.653z"/><path d="M283.666 66.966l39.592-16.834 68.338 8.417.865 25.522-23.594 17.106-21.17-18.758-64.032-15.453z"/></g><path d="M369.657 85.025L386.95 72.86l3.165 12.164-20.458 12.66v-12.66z" class="AF"/><g class="AN"><path d="M283.666 48.088v19.117l85.2 15.094V61.74l-85.2-13.653z"/><path d="M283.666 48.088l39.592-16.834 68.338 8.417.865 25.523L368.867 82.3l-21.17-18.758-64.032-15.453z"/></g><path d="M584.53 71.33L272.2 27.75l1.064-7.538 4.143.583 305.62 42.655q.076.323.152.646.798 3.61 1.343 7.234z" class="AT"/><g class="AF"><path d="M369.657 65.945L386.95 53.78l3.165 12.164-20.458 12.66v-12.66zM293.25 55.562l-.204 9.127 27.996 5.2V61l-27.792-5.428zm0 19.15l-.204 9.127 27.996 5.2v-8.9l-27.792-5.428zM535.8 29.774c-.083 3.4-9.03 5.958-19.98 5.7s-19.763-3.247-19.68-6.657 9.03-5.958 19.98-5.692 19.763 3.247 19.68 6.657zm-3.094 13.18c-.083 3.4-7.77 6-17.17 5.76s-16.953-3.18-16.87-6.588 7.77-6 17.17-5.76 16.953 3.178 16.87 6.588z"/><path d="M536.415 36.87c-.62 5.46-5.524 8.69-5.524 8.69l-30.633-.747a10.911 10.911 0 0 1-5.27-6.524h-.013c-.013-.025-.013-.063-.025-.09a14.28 14.28 0 0 1 .532-8.095 17.576 17.576 0 0 1 .874-2.179l11.363 1.723c.43.165 27.884-.76 27.884-.76s1.42 2.508.81 7.98z"/></g><path d="M536.436 18.94c-1.142-2.373-3.334-2.192-5.177-.994-1.42-2.3-3.97-4.747-6.773-4.786-1.99-.028-3.322 1.59-4.225 3.378a7.801 7.801 0 0 0-5.156-4.203c-2.274-.5-3.492.964-4.138 2.834a3.419 3.419 0 0 0-1.946.074 5.236 5.236 0 0 0-2.38 1.656 5.658 5.658 0 0 0-2.328-1.622 2.919 2.919 0 0 0-3.935 1.824 3.567 3.567 0 0 0-4.215 1.734 5.706 5.706 0 0 0 .143 5.815 5.479 5.479 0 0 0 1.284 4.158 6.241 6.241 0 0 0 3.051 1.974c1.163.33 2.142.198 3.165 1 2.625 2.06 6.89 2.08 10.074 2.233l1.287.047 1.63.05c2.714.084 5.78.183 8.35-.857 1.554-.63 2.147-1.728 3.914-1.678 1.666.047 3.44-.16 4.56-1.54a17.07 17.07 0 0 0 2.022-3.87c.952-2.16 1.894-4.946.796-7.227z" class="AU"/><path d="M530.638 19.385c-.008 2.295.132 5.376-1.186 7.364-.452.682.645 1.317 1.094.64 1.44-2.172 1.35-5.498 1.36-8.003a.634.634 0 0 0-1.267-.001zm-8.682-2.243c-.372-.726-1.465-.085-1.094.64a29.217 29.217 0 0 1 3.119 10.631c.077.804 1.345.812 1.267 0a30.984 30.984 0 0 0-3.292-11.27zm-.414 7.238c-.096-.8-1.364-.8-1.267 0q.4 3.338.92 6.66c.126.803 1.347.462 1.22-.337q-.494-3.154-.875-6.322zm-10.205-7.613c-.16-.8-1.38-.46-1.22.337.77 3.853 1.416 7.7.736 11.618-.14.797 1.082 1.14 1.222.337.72-4.154.08-8.203-.736-12.3zm-2.517 10.056a22.706 22.706 0 0 1-1.42-8.943c.034-.815-1.233-.814-1.267 0a23.581 23.581 0 0 0 1.466 9.28c.28.758 1.505.43 1.22-.336zm-6.756-3.96c-.486-1.242-1.2-2.385-1.643-3.64-.274-.76-1.5-.433-1.222.337.878 2.433 2.2 4.482 2.506 7.12.096.8 1.364.8 1.267 0a15.387 15.387 0 0 0-.908-3.817z" fill="#386758"/><path d="M498.726 34.16a4.152 4.152 0 0 1-3.737 4.13h-.013c-.013-.025-.013-.063-.025-.1a14.28 14.28 0 0 1 .532-8.095 4.156 4.156 0 0 1 3.243 4.054zm10.514 5.997a4.16 4.16 0 1 1-4.159-4.16 4.16 4.16 0 0 1 4.159 4.16zm25.545-1.837a4.16 4.16 0 1 1-4.159-4.16 4.16 4.16 0 0 1 4.159 4.16zm-12.132 3.3a4.16 4.16 0 1 1-4.159-4.16 4.16 4.16 0 0 1 4.159 4.16z" class="AH"/><path d="M367.758 65.77a.666.666 0 0 1-.124-.012L284.76 49.495a.634.634 0 0 1 .245-1.243l82.873 16.262a.634.634 0 0 1-.121 1.255z" class="AJ"/><path d="M358.292 72.04a5.068 5.068 0 1 1-4.127-5.897 5.09 5.09 0 0 1 4.127 5.897z" class="AF"/><ellipse cx="353.298" cy="71.181" rx="3.988" ry="3.954" transform="matrix(.16981 -.985477 .985477 .16981 223.1575 407.2611)" class="AJ"/><path d="M358.292 91.244a5.068 5.068 0 1 1-4.127-5.897 5.09 5.09 0 0 1 4.127 5.897z" class="AF"/><path d="M357.195 91.055a3.954 3.954 0 1 1-3.22-4.601 3.971 3.971 0 0 1 3.22 4.601z" fill="#e8c2a7"/><path d="M331.65 170.424v248.382l-6.334-.076V170.424zm193.553 0v243.06l-6.334 1.1v-244.15z" class="AJ"/><path d="M561.586 159.455v10.97l-11.92 7.626-1.19.76-17.064 10.92h-.013L175.915 417.135c-33.04-.317-68.12 2.268-100.728-1.862C56.3 412.88 40.46 404.416 29.2 391.304c-.29-.317-.57-.646-.836-.976a72.219 72.219 0 0 1-9.856-15.696l-.076-.152-.443-.988a81.98 81.98 0 0 1-1.976-4.764q-1.12-2.964-2.052-5.967a142.643 142.643 0 0 1-5.523-31.519l-.127-1.913c-.583-8.222-.735-16.507-.874-24.69l-.038-1.95q-.285-16.703-.557-33.394l298.84-157.345 18.775 3.484 1.267.24 68.41 12.694 1.254.24L529.7 153.54l1.33.24z" class="AO"/><g fill="#d4a282"><path d="M549.666 178.05l-1.2.76a33.147 33.147 0 0 1-5.688-4.231 47.296 47.296 0 0 1-9.438-13.188l-3.547-7.652a1.489 1.489 0 0 0-.101-.203l1.33.24 1.267 2.496 3.078 6.233a43.005 43.005 0 0 0 8.665 11.503 32.784 32.784 0 0 0 5.625 4.041zm-197.916-3.642c-2.96.126-4.747 4.03-5.732 6.264-1.7 3.858-2.488 8.03-3.443 12.114a188.926 188.926 0 0 1-11.191 33.309c-.327.74.765 1.384 1.094.64a190.903 190.903 0 0 0 10.319-29.538c1.288-4.998 2.06-10.236 3.972-15.05.83-2.1 5.494-10.372 6.414-3.358.344 2.624-.86 6.24-1.254 8.863a549.883 549.883 0 0 1-13.783 64.792.634.634 0 0 0 1.222.337 550.299 550.299 0 0 0 12.945-59.384l2.057-14.005c.252-2.033.203-5.105-2.62-4.984zm-64.135-52.948a139.964 139.964 0 0 1-12.25 21.068c-6.043 8.754-12.377 17.014-21.397 22.905-18.142 11.82-41.084 19.573-62.862 16.57-.798-.114-.735-1.38.063-1.267 21.32 2.94 43.4-4.548 61.304-15.85 9.577-6.043 16.178-14.76 22.474-23.994a137.749 137.749 0 0 0 10.819-18.471zm38.105-5.787c-4.75 9.704-9.666 19.345-15.633 28.365-6.246 9.438-13.67 18.1-22.778 24.894-9.83 7.335-21.118 12.428-32.52 16.8-12.5 4.8-25.26 9.3-38.4 11.87-13.315 2.622-26.845 2.584-40.35 2.103-11.186-.393-22.423-.747-33.585-1.824l2.052-1.1h.013c12.504 1.128 25.122 1.546 37.677 1.837 14.2.33 28.124-.545 41.92-4.08a270.598 270.598 0 0 0 35.941-12.263c11.77-4.865 23.222-10.844 32.685-19.472 8.868-8.095 15.8-18.028 21.765-28.4 3.56-6.195 6.803-12.58 9.958-19.003z"/><path d="M298.484 115.736c-4.852 12.415-10.97 24.527-19 35.03a77.993 77.993 0 0 1-35.282 25.819c-14.328 5.333-29.9 7.12-45.138 6.347a91.084 91.084 0 0 1-21.714-3.42l1.52-.798a77.327 77.327 0 0 0 11.719 2.318 124.557 124.557 0 0 0 16.431.786 117.53 117.53 0 0 0 6.676-.253 101.64 101.64 0 0 0 36.346-8.767c14.24-6.6 25.375-17.153 33.673-30.392a168.406 168.406 0 0 0 13.214-25.857zm61.596 6.306a224.79 224.79 0 0 0-19.307 40.261 384.498 384.498 0 0 0-13.898 48.407c-3.534 15.608-6.094 31.482-10.832 46.785a111.604 111.604 0 0 1-21.739 39.919c-10.072 11.858-21.866 22.208-33.37 32.635-23.817 21.562-48.458 43.06-66.726 69.753q-3.192 4.656-6.094 9.527l-2.38 1.52a189.166 189.166 0 0 1 12.466-18.774c19.6-26.02 44.644-47.153 68.55-69.03 11.858-10.844 23.956-21.828 33.28-35.003 9.577-13.517 14.835-29.074 18.597-45.062 3.826-16.216 6.74-32.622 10.933-48.75a311.839 311.839 0 0 1 16.026-47.241 209.431 209.431 0 0 1 13.125-25.198zm-65.824 55.186c-.07-.517-.743-.548-1.06-.28q-14.298 12.127-29.334 23.34c-9.253 6.883-18.625 13.955-28.87 19.3-10.74 5.614-22.56 7.234-33.815 11.377a113.392 113.392 0 0 0-27.141 14.964c-9.657 6.998-18.534 15-27.362 22.988-.606.55.292 1.442.896.896 16.215-14.7 33.082-29.948 53.944-37.626 10.62-3.9 21.88-5.465 32.115-10.488 10.332-5.07 19.7-12.073 28.92-18.88q15.708-11.583 30.608-24.204c4.7 37.55-14.687 75.393-45.572 96.457-17.403 11.87-37.36 19.075-56.3 28.037a369.751 369.751 0 0 0-53.363 30.984 373.695 373.695 0 0 0-51.324 43.216c-1.15-11.215 3.08-21.917 8.014-31.807 4.425-8.87 9.16-17.622 14.042-26.247 9.795-17.302 21.03-33.982 36.178-47.07.618-.534-.28-1.427-.896-.896-15.773 13.627-27.323 31.132-37.423 49.187-5.23 9.35-10.503 18.803-14.995 28.533-4.344 9.4-7.447 19.388-6.014 29.84.067.488.757.586 1.06.28a371.499 371.499 0 0 1 103.389-73.984c19.528-9.4 40.257-16.698 58.264-28.978a109.031 109.031 0 0 0 35.614-40.446c9.18-18 13.178-38.423 10.416-58.5zM241.73 304.826c-2.42-.583-5.27 1.76-6.854 3.28-2.876 2.774-5.22 6.056-8.16 8.792a61.115 61.115 0 0 1-11.364 8.336c-7.5 4.27-16.127 5.815-23.627 9.995-7.766 4.32-12.82 11.947-17.508 19.244-2.825 4.396-4.23 8.88-5.574 13.897q-.946 3.533-1.88 7.068a53.375 53.375 0 0 1-1.903 6.852c-.845 2.022-1.483 7.24 1.26 8.225 2.432.86 4.903-1.76 6.372-3.27 5.827-5.93 13.555-9.844 19.84-15.316 6.537-5.688 10.946-12.162 15.43-19.472 5.042-8.235 12.5-14.708 18.9-21.866 2.964-3.307 5.866-6.7 8.716-10.097 2.597-3.104 6.562-6.6 7.93-10.502.634-1.824.722-4.6-1.57-5.17zm-.62 6.6c-1 1.926-2.914 3.687-4.307 5.372l-8.627 10.185c-5.042 5.764-10.566 11.098-15.595 16.875-4.624 5.308-7.525 11.592-11.706 17.204-5.283 7.107-12.34 12.72-19.573 17.762-2.85 2-5.904 3.8-8.437 6.22-1.305 1.267-3.28 4.143-5.257 4.244-1.786.1-2.116-1.95-2.217-3.864a.333.333 0 0 0 .063-.114c2.103-7.905 3.66-16.267 6.537-23.93 1.33-3.547 3.56-6.664 5.65-9.793a67.365 67.365 0 0 1 7.487-9.654c5.676-5.815 12.846-8.133 20.295-10.82a65.584 65.584 0 0 0 17.381-9.273 62.391 62.391 0 0 0 6.993-6.182c2.483-2.546 4.5-5.676 7.36-7.83.786-.596 2.027-1.57 3.04-1.584 4.738-.037 1.52 4.004.912 5.182zm-112.182-35.65c-10.97 13.517-21.942 27.035-32.115 41.16-8.298 11.554-15.697 23.73-24.184 35.143a147.543 147.543 0 0 1-26.072 27.314A143.642 143.642 0 0 1 29.2 391.302c-.3-.317-.57-.646-.836-.976a140.044 140.044 0 0 0 27.314-20.663c9.286-8.995 16.95-19.358 24.172-30.05 7.538-11.16 14.974-22.348 23.108-33.103 8.12-10.73 16.596-21.182 25.084-31.634.507-.633 1.394.28.887.9zm-26.022 25.07c-5.32 6.917-12.68 11.858-18.94 17.837-12.706 12.137-19.6 29.315-33.37 40.465-7.665 6.195-17.343 9.35-26.325 13.087l-5.764 2.394-.076-.152-.444-.988 7.082-2.952c9.97-4.143 20.118-7.7 28.036-15.304 11.376-10.933 18.027-25.755 29.3-36.8 5.752-5.638 12.466-10.25 17.812-16.305 2.736-3.116 5.447-6.942 6.46-11.034a2.995 2.995 0 0 0-3.699-3.75 18.03 18.03 0 0 0-3.788 1.28 60.623 60.623 0 0 0-5.574 3.028C76.86 301.418 56.97 304.18 38.803 310.3a65.749 65.749 0 0 0-30.367 20.93l-.127-1.913a63.848 63.848 0 0 1 9.654-9.387c8.374-6.6 17.977-10.274 28.137-13.2 10.768-3.1 21.7-5.878 32.293-9.552a84.856 84.856 0 0 0 15.038-6.879c3.28-1.913 7.728-4.877 11.744-4.4 7.246.824-.355 12.453-2.268 14.95zm-33.686 8.538c-4.776 3.218-9.083 6.6-14.353 9.07-4.953 2.33-10.312 3.5-15.3 5.74-9.983 4.447-15.264 11.43-22.054 19.665a40.848 40.848 0 0 0-3.207 6.673.633.633 0 0 0 .608.798c10.566-.95 19-7.247 27.377-13.15 8.387-5.916 18.154-10.338 25.287-17.85 2.255-2.37 6.182-6.524 6.144-9.996-.025-3.053-2.875-2.065-4.5-.95zm1.622 4.6a28.491 28.491 0 0 1-2.8 3.94 41.1 41.1 0 0 1-5.828 5.574c-4.6 3.687-9.818 6.537-14.784 9.692-10.046 6.385-19.37 15.278-31.634 16.748a14.474 14.474 0 0 1 2.508-4.941c.203-.266 11.912-15.798 21.904-19.725 5.247-2.062 10.692-3.522 15.798-5.967a67.754 67.754 0 0 0 7.728-4.333 66.38 66.38 0 0 0 3.636-2.546 13.481 13.481 0 0 1 2.622-2.027c1.064-1.204 1.66-.596 1.812 1.824a29.04 29.04 0 0 1-.963 1.76zM33.114 255.46c-2.28 7.145-4.054 14.544-7.196 21.372-4.6 9.983-11.186 19.282-18.483 27.808l-.038-1.95a126.537 126.537 0 0 0 16.457-24.463c3.484-6.968 5.27-14.544 7.652-21.917zm272.58-31.26a414.556 414.556 0 0 1-32.723 60.252 435.402 435.402 0 0 1-36.485 47.736c-6.942 7.93-14.012 15.76-20.5 24.058a270.442 270.442 0 0 0-18.382 27.542l-19.206 31.773-2.382 1.533L200.227 377a232.321 232.321 0 0 1 17.774-25.312c6.65-8.184 13.77-15.962 20.662-23.944a415.701 415.701 0 0 0 65.928-104.2c.33-.747 1.42-.1 1.102.647zm-31.468-13.587c-22.716 10.78-45.784 21.04-68.065 32.703-19.52 10.218-38.4 22.53-52.402 39.807a91.414 91.414 0 0 0-16.123 29.105c-.254.777.97 1.1 1.222.337 14.267-43.648 59.04-64.333 97.4-82.536q18.73-8.888 37.458-17.775c-2.717 16.005-13.187 28.93-24.923 39.62-13.645 12.43-28.976 23.233-44.257 33.54-.672.453-.04 1.55.64 1.094 15.633-10.543 31.38-21.607 45.26-34.42 11.876-10.964 22.382-24.32 24.723-40.758a.643.643 0 0 0-.93-.715zM531.4 189.73h-.013l-1.9 1.216a27.473 27.473 0 0 0 1.609-4.143c2-6.778-.798-12.67-3.104-18.915a71.538 71.538 0 0 1-3.813-15.38l1.305.24a70.915 70.915 0 0 0 3.167 13.213c1.52 4.396 3.674 8.64 4.32 13.3a20.233 20.233 0 0 1-1.571 10.477zm-136.013-61.125a315.237 315.237 0 0 0-24.742 104.352c-.05.8-1.318.8-1.267 0a316.625 316.625 0 0 1 24.755-104.592z"/></g><path d="M158.565 415.835a.634.634 0 0 1-.339-1.169L559.56 160.08a.633.633 0 0 1 .678 1.07L158.904 415.737a.629.629 0 0 1-.339.099z" fill="#ab7753"/><path d="M135.983 293.41s-29.868-12.32-30.505-13.513 36.81-21.426 36.81-21.426l43.526 12.497z" class="AI"/><g class="AJ"><path d="M180.68 83.245l-8.66-1.932-52.125 8.767 16.1 203.33 8.03 2.97 41.8-25.412-5.134-187.723z"/><use xlink:href="#B"/></g><use xlink:href="#C" class="AS"/><g class="AI"><use xlink:href="#D"/><use xlink:href="#E"/></g><use xlink:href="#F" class="AF"/><g class="AL"><use xlink:href="#G"/><use xlink:href="#H"/><use xlink:href="#I"/><use xlink:href="#J"/></g><use xlink:href="#K" class="AH"/><g class="AL"><path d="M62.346 182.65l.9 18.687 47.304-25.64-.743-18.545-47.462 25.5zM223.242 55.395l1.26-.125 2.9 29.15-1.26.125zM187.598 73.4l1.267-.003.073 30.054-1.267.003z"/><path d="M187.943 80.748l36.376-18.586.577 1.128-36.376 18.586z"/></g><path d="M182.59 71.18l45.178-22.308v6.46l-45.178 22.83v-6.98z" class="AH"/><path d="M192.728 152.872l-.43-39.085 35.47-18.82v43.2l-35.04 14.706z" class="AL"/><use xlink:href="#L" class="AH"/><use xlink:href="#M" class="AL"/><use xlink:href="#N" class="AH"/><ellipse cx="155.535" cy="210.303" rx="16.456" ry="12.435" transform="matrix(.019524 -.999809 .999809 .019524 -57.7645 361.7023)" class="AF"/><g fill="#7da799"><use xlink:href="#O"/><use xlink:href="#P"/><use xlink:href="#Q"/></g><use xlink:href="#R" class="AR"/><use xlink:href="#S" class="AI"/><use xlink:href="#T" class="AG"/><use xlink:href="#U" class="AK"/><use xlink:href="#V" class="AG"/><use xlink:href="#W" class="AI"/><use xlink:href="#X" class="AH"/><use xlink:href="#Y" class="AF"/><use xlink:href="#Z" class="AP"/><use xlink:href="#a" fill="#a25a46"/><use xlink:href="#b" class="AP"/><use xlink:href="#c" class="AI"/><use xlink:href="#d" class="AO"/><g class="AG"><use xlink:href="#e"/><use xlink:href="#f"/></g><use xlink:href="#g" class="AO"/><use xlink:href="#h" class="AG"/><use xlink:href="#i" class="AK"/><use xlink:href="#j" class="AG"/><use xlink:href="#k" class="AF"/><use xlink:href="#l" class="AM"/><use xlink:href="#m" class="AN"/><use xlink:href="#n" class="AG"/><use xlink:href="#o" class="AK"/><use xlink:href="#p" class="AG"/><use xlink:href="#q" class="AH"/><use xlink:href="#r" class="AM"/><use xlink:href="#s" class="AG"/><use xlink:href="#t" class="AK"/><g class="AG"><use xlink:href="#u"/><use xlink:href="#v"/></g><use xlink:href="#w" class="AF"/><g class="AM"><use xlink:href="#x"/><use xlink:href="#y"/></g><use xlink:href="#z" class="AU"/><g class="AG"><use xlink:href="#AA"/><use xlink:href="#AB"/><use xlink:href="#AC"/></g><use xlink:href="#AD" class="AK"/><use xlink:href="#AE" class="AG"/><use xlink:href="#AF" class="AI"/><use xlink:href="#AG" class="AN"/><g class="AJ"><use xlink:href="#AH"/><use xlink:href="#AI"/></g><g class="AS"><use xlink:href="#AJ"/><use xlink:href="#AK"/><use xlink:href="#AL"/></g><g class="AP"><use xlink:href="#AM"/><use xlink:href="#AN"/></g><use xlink:href="#AO" class="AI"/><g class="AJ"><use xlink:href="#AP"/><use xlink:href="#AQ"/></g><g class="AL"><use xlink:href="#AR"/><path d="M189.872 48.088l-1.567 20.52 8.344-4.368-2.865-17.557-3.912 1.406z"/></g><path d="M294.114 258.484l-137.366 88.972a1.69 1.69 0 0 1-1.457.19l-48.8-16.013a1.687 1.687 0 0 1-.342-3.053l140.28-84.513a1.655 1.655 0 0 1 1.292-.19l45.886 11.54a1.693 1.693 0 0 1 .507 3.065z" class="AJ"/><path d="M256.35 246.043l-144.27 87.427-1.583-.52 144.13-87.338 1.723.43z" class="AI"/><path d="M286.386 228.548c.47 2.382-9.2 13.593-12.517 13.58-1.077 0-18.724-4.383-28.67-7.816l-1.267-.456c-3.306-1.19-5.473-2.242-5.397-2.888.203-1.596 3.978-5.55 7.918-8.577l1.38-1.013a17.992 17.992 0 0 1 4.979-2.648 24.299 24.299 0 0 1 7.753-.57c.684.038 1.393.1 2.103.177 2.508.28 5.194.735 8.02 1.305 8.88 1.786 15.215 6.537 15.697 8.906z" class="AJ"/><g class="AI"><path d="M262.67 218.337a59.86 59.86 0 0 0-7.665 5.524l-2.192 2.027c-3 3-5.828 6.27-7.614 8.425l-1.267-.456c1.786-2.166 4.79-5.675 7.98-8.868a40.17 40.17 0 0 1 1.305-1.254l1.19-1.052h.013a58.189 58.189 0 0 1 6.144-4.523c.684.038 1.393.1 2.103.177z"/><path d="M255.22 223.493a.577.577 0 0 1-.215.367.62.62 0 0 1-.393.139.389.389 0 0 1-.127-.013l-1.267-.253-6.765-1.343 1.38-1.013 6.892 1.368a.627.627 0 0 1 .494.747z"/></g><path d="M72.578 350.433l17.736-15.203 84.758 21.653-32.183 47.187-74.112-20.7 3.8-32.938z" class="AL"/><path d="M84.874 346l8.184-6.406 3.907 1.76-8.3 7.4-3.79-2.745z" fill="#ec8181"/><path d="M100.948 354.138l8.184-6.406 3.906 1.76-8.3 7.4-3.8-2.745z" class="AR"/><path d="M140.988 370.475l-48.774 40.45-76.202-42.2q-1.12-2.964-2.052-5.967l48.8-30.43z" class="AF"/><g class="AH"><path d="M28.87 361.94a.633.633 0 0 1-.344-1.165l31.672-20.48a.633.633 0 1 1 .688 1.064l-31.672 20.48a.631.631 0 0 1-.344.101z"/><use xlink:href="#AS"/><use xlink:href="#AS" x="5.824" y="3.106"/><path d="M47.063 381.03a.634.634 0 0 1-.367-1.15L88.3 350.32a.634.634 0 0 1 .735 1.033l-41.595 29.56a.632.632 0 0 1-.367.117zm5.823 3.106a.634.634 0 0 1-.367-1.15l41.595-29.56a.634.634 0 0 1 .735 1.033l-41.595 29.56a.631.631 0 0 1-.367.117zm5.814 3.106a.634.634 0 0 1-.367-1.15l41.595-29.56a.634.634 0 0 1 .735 1.033l-41.595 29.56a.632.632 0 0 1-.367.117zm4.8 3.203a.634.634 0 0 1-.369-1.149l30.983-22.17a.634.634 0 0 1 .737 1.031l-30.983 22.17a.629.629 0 0 1-.369.118z"/></g><path d="M431.164 353.904c-4.8-3.572-11.934-3.978-17.597-5.08-9.805-1.9-19.662-3.725-29.556-5.13-.456-.076-.912-.14-1.368-.203l-6.803-.887q-4.067-.494-8.16-.874a209.215 209.215 0 0 0-27.022-.836c-7.12.266-14.404.86-21.144 3.307-9.527 3.446-16.8 11.262-22.575 19.877-1.42 2.103-2.736 4.257-3.99 6.398a58.302 58.302 0 0 0-21.853 4.662 50.282 50.282 0 0 0-13.517 8.349c-4.498 4.067-6.664 9.527-8.982 15q-4.066 9.672-8.16 19.332 73.56.78 147.108 1.584l16.862.177 15.215.14a35.933 35.933 0 0 0 7.145-12.238c2.18-6.588 1.76-13.555 2.014-20.384a39.934 39.934 0 0 1 1.812-11.465c1.102-3.243 2.8-6.27 3.763-9.577 1.317-4.5.785-9.172-3.193-12.15z" fill="#393579"/><path d="M384 343.693l-.203.507-5.7 17.736a36.539 36.539 0 0 1-3.598 7.399s-6.334-2.964-12.67-1.267c-6.334 1.685-9.704 1.685-16.672 1.267-6.968-.43-43.63.8-52.22 1.14 1.254-2.14 2.572-4.295 4-6.398 5.777-8.615 13.05-16.43 22.575-19.877 6.74-2.445 14.024-3.04 21.144-3.307a209.215 209.215 0 0 1 27.022.836q4.086.38 8.16.874l6.803.887 1.368.203zm-3.826 52.737a49.317 49.317 0 0 1-5.454-25.832c.05-.814-1.218-.812-1.267 0a50.598 50.598 0 0 0 5.627 26.471c.375.724 1.47.084 1.094-.64zm-9.257-23.682q-1.785 9.362-3.272 18.776c-.126.798 1.094 1.14 1.222.337q1.488-9.414 3.272-18.776c.152-.797-1.07-1.138-1.222-.337z" fill="#282455"/><g class="AG"><path d="M320.25 190.58l-.912-9.046-.507-4.98s-11.668-6.803-17.37-4.22c-1.76.786-5.764 7.538-5.764 7.538l-4.37 63.508-1.8 28.82c-.317 6.144.76 23.564 2.736 29.556 3.47 10.553 16.52-3.47 24.172-8.602 10.122-6.752 12.048-21.435 12.048-21.435zm57.084-46.177l-6.5-12.508s-13.356-2-17.7 2.497c-1.346 1.38-3.458 6.36-3.458 6.36l20.3 63.403 8.978 27.446c1.976 5.827 9.413 21.615 13.463 26.453 7.125 8.523 14.068-9.33 19.283-16.925 6.9-10.015 3.275-24.37 3.275-24.37zm12.098-50.6c-1.415-5.382-5.355-16.305-5.192-16.674.347-.783-.913-1.212-1.257-.435l-.007.016c-.373.007-2.9 6.936-3.886 9.754-.968 2.762-2.32 5.86-2.672 8.77-.635 5.236 5.6 4.736 9.26 4.55 1.194-.06 3.23.13 4.044-1 .893-1.23.037-3.754-.288-4.992z"/><path d="M445.238 74.358c-.798-9.552-3.243-18.167-12.91-21.84-7.93-3.028-16.254-1.216-24.07 1.355-5.017.152-10.198-5.637-15.164-4.94-2.75.393-11.934 6.094-11.934 6.094l1.05 14.417 1.926 21.968a163.21 163.21 0 0 0 1.128 7.867l.443 2.546q.057.266.114.532a58.99 58.99 0 0 0 .418 2.065v.038c.29 1.42.62 2.838.975 4.23a1.562 1.562 0 0 0 .063.228c.178.785.393 1.558.608 2.318q.855 3.06 1.938 5.853c2.47 6.448 11.085 6.5 16.81 6.03l1.938-.178c7.22-.646 15.152-1.735 21.486-5.017 3.877-1.99 9.958-6.31 10.262-11.085a68.759 68.759 0 0 0 4.915-32.482z"/><path d="M452.61 134.318a342.861 342.861 0 0 1-10.557-39.276c-.144-.7-1.073-.56-1.282 0-1.198 3.218-3.933 5.08-6.565 7.054l-7.373 5.492q-6.84 5.096-13.68 10.19l-.77-3.5c-.172-.838-1.454-.483-1.282.353l.89 4.046a.726.726 0 0 0 .25 1.133q2.917 12.95 7.038 25.584a.684.684 0 0 0 1.292-.006 54.901 54.901 0 0 0 31.735-10.321.685.685 0 0 0 .305-.751z"/></g><path d="M462.602 51.372c-.557-3.332-3.5-4.84-4.333-8.025-1.156-4.42-2.7-8.095-5.763-10.96a13.241 13.241 0 0 0-2.324-3.404 12.452 12.452 0 0 0-4.225-2.902c-.89-1.17-1.85-2.32-2.87-3.465-1.796-2.01-2.638-4.502-5.27-5.613a12.166 12.166 0 0 0-6.427-.514 30.191 30.191 0 0 0-8.471 2.639c-1.826.85-3.81 2.014-5.883 2.107-2.08.093-3.652-1.23-5.628-1.553-4.008-.652-8.27 1.588-11.57 4.217a23.649 23.649 0 0 0-13.568 7.859 4.153 4.153 0 0 0-.501.059c-2.298.512-4.237 3.083-5.555 4.844-3.455 4.62.987 18.963.987 18.963s8.454 2.104 13.722 1.383a8.086 8.086 0 0 1 4.309.472 23.154 23.154 0 0 1 2.88 4.688c1.8 3.923 1.85 7.798 2.258 11.993a9.09 9.09 0 0 0 3.428 6.783 39.352 39.352 0 0 1 3.767 2.775c1.59 1.594 1.974 3.59 2.623 5.643 2.054 6.5 8.198 7.123 13.33 10.376 2.826 1.79 5.02 5.272 8.01 6.68 2.392 1.123 8.898-.705 8.898-.705.934-.796 1.445-4.24 1.846-5.444l1.97-6.202c.978-3.32 1.304-6.787 2.286-10.115.567-1.92 1.98-1.98 3.427-3.045a16.58 16.58 0 0 0 3.214-2.97 8.822 8.822 0 0 0 2.008-7.35 17.688 17.688 0 0 1-.796-2.282 7.372 7.372 0 0 1 1.233-3.996 26.815 26.815 0 0 0 1.971-4.601 18.375 18.375 0 0 0 1.015-8.335z" class="AM"/><path d="M403.018 72.884s6.546-6.546 14.147-1.584 2.72 22.276-4.5 23.965-9.648-13.675-9.648-13.675z" class="AG"/><path d="M388.022 75.22q-.07-.3-.16-.593c-.34-1.12-1.147-2.594-2.292-2.354-.924.194-1.342 1.53-1.404 2.713a8.33 8.33 0 0 0 .474 3.249c.536 1.472 2.302 3.174 3.196 1.183a6.974 6.974 0 0 0 .186-4.198z" class="AI"/><path d="M394.45 65.3a3.861 3.861 0 0 0-.963-.887 12.897 12.897 0 0 0-5.878-1.419 13.638 13.638 0 0 0-5.815.684l.418 5.764h.025a28.953 28.953 0 0 1 7.943-.861c1.33.1 2.888.773 4.193.24 1.596-.646 1.013-2.37.076-3.522zm14.48 44.847a25.605 25.605 0 0 1-.849-7.069 37.598 37.598 0 0 0-1.153-7.677c-.28-1.406-4.23-19.915-.05-24.552 5.13-5.7-1.622-12.96-2.04-13.797-.646-1.292-2.445-1.824-2.94-.608a.627.627 0 0 0-.697.608c-.076 2.306-4.396 31.127-5.042 33.37-.735 2.623-2.382 3.446-4.497 4.763-1.432.874-3.104 1.406-4.358 2.52-.532.47-1.38 1-2.04 1.57l.443 2.546q.057.266.114.532a58.99 58.99 0 0 0 .418 2.065v.038c.3 1.42.62 2.838.975 4.23a1.562 1.562 0 0 0 .063.228c.178.785.393 1.558.608 2.318q.855 3.06 1.938 5.853c2.47 6.448 11.085 6.5 16.8 6.03l1.938-.178a2.859 2.859 0 0 0 .887-2.23c-.1-2-.545-3.306.013-5.067.507-1.646-.2-3.825-.545-5.497z" class="AM"/><path d="M394.678 100.33c-.773-.608-6.106.734-8.97 1.495q.057.266.114.532l.418 2.065v.038l.975 4.23a1.562 1.562 0 0 0 .063.228 14.198 14.198 0 0 0 4.713-2.559c2.128-2.014 3.46-5.41 2.686-6.03z" class="AF"/><path d="M412.772 82.278c-.342-1.763-1.59-3.03-2.44-4.552-.397-.712-1.492-.074-1.094.64.685 1.23 1.77 2.317 2.182 3.688a7.204 7.204 0 0 1-.612 4.791c-.312.752.913 1.08 1.22.337a8.616 8.616 0 0 0 .742-4.903z" class="AK"/><path d="M521.124 262.044c-2.166-16.216-5.37-32.28-7.588-48.496-2.318-16.887-3.484-33.927-5.815-50.8-.937-6.816-2.774-13.48-7.183-18.914-4.384-5.397-10.515-9.337-16.8-12.162-12.48-5.6-26.566-6.84-40.02-4.852a91.547 91.547 0 0 0-21.638 6.119.515.515 0 0 0-.735-.101l-1.356.988a127.907 127.907 0 0 0-21.094 11.896 192.549 192.549 0 0 0-18.699 14.759c-5.067 4.485-9.882 9.273-12.884 15.316a26.586 26.586 0 0 0-2.825 6.359c-3.66 12.86 5.612 25.02 3.585 37.955-1.052 6.613-2.394 12.795-1.9 19.56.507 6.676 2.75 12.795 4.345 19.23 2.04 8.222 2.217 16.938 2.94 25.35l1.014 11.82q-.095.646-.2 1.292c-.66 4.46-1.432 8.995-.76 13.492.684 4.56 3.37 8.336 4.573 12.72 1.317 4.79.963 9.818 1.267 14.734a15.1 15.1 0 0 0 2.356 7.829c1.558 2.28 3.978 4.003 7.576 5.46 5.827 2.356 11.757 4.548 17.977 4.168a59.259 59.259 0 0 0 21.423.709c18.357-2.572 36.017-12.656 50.6-23.944 5.916-4.573 11.617-9.413 17.293-14.278 5.51-4.713 10.997-9.552 15.52-15.24a43.853 43.853 0 0 0 8.868-18.053c1.62-7.538 1.165-15.33.152-22.917z" class="AF"/><path d="M442.337 287.267a.636.636 0 0 0-1.153-.152 36.795 36.795 0 0 1-7.031 10.211c-2.888 2.94-6.385 5.156-9.375 7.97-5.802 5.486-9.274 12.555-13.25 19.345a35.966 35.966 0 0 1-8.666 9.539 69.821 69.821 0 0 1-10.819 7.842c-2.964 1.634-6.955 2.534-10.325 4.117 1.558 2.28 3.978 4.003 7.576 5.46 5.827 2.356 11.757 4.548 17.977 4.168a59.259 59.259 0 0 0 21.423.709 43.859 43.859 0 0 0 4.383-9.692c1.368-4.662 1.406-9.6 2.242-14.34.874-4.9 2.204-9.68 3.522-14.455 2.762-10.058 5.397-20.257 3.497-30.72z" class="AH"/><path d="M405.234 145.095s-.675-12.67.502-15.414 17.435-10.98 29.682-13.513 16.68-3.8 20.06-2.534S472.8 134.75 472.8 134.75z" class="AF"/><path d="M538.442 410.394a157.574 157.574 0 0 1-19.928 4.231q-6.024.93-12.086 1.634-9.634 1.16-19.332 1.875c-10.515.773-21.068 1.216-31.634 1.444l-5.283.09q-5.8.095-11.608.113-5.803.02-11.6-.01l-22.613-.2c5.65-24.87 27.592-120.238 34.56-131.665 8.02-13.175 119.82-77.786 122.67-78.736s11.718 3.167 12.985 6.018c1.102 2.483-23.665 138.24-36.13 195.198z" class="AN"/><g class="AJ"><path d="M420.965 418.278a.646.646 0 0 1-.145-.017.633.633 0 0 1-.471-.762l16.79-67.55 3.838-14.39c4.73-18.028 9.2-35.056 13.99-41.864 6.025-8.56 112.527-73.43 117.058-76.19a.633.633 0 0 1 .658 1.083c-1.107.674-110.806 67.49-116.68 75.835-4.66 6.622-9.1 23.543-13.802 41.457l-3.84 14.406c-5.946 21.592-16.673 67.05-16.78 67.505a.633.633 0 0 1-.616.488z"/><path d="M454.956 295.493a.628.628 0 0 1-.269-.06l-14.83-6.952a.633.633 0 1 1 .537-1.147l14.83 6.952a.633.633 0 0 1-.268 1.207z"/></g><path d="M389.544 236.638c-2.154-21.96-12.907-72.933-13.553-72.435-8.698 6.718-19.716 17.296-24.912 27.328-2.675 5.165-4.118 10.893-7.092 15.914-2.684 4.532-6.465 8.252-10.006 12.103-3.14 3.416-6.212 7.016-8.135 11.284-2.297 5.1-2.56 10.914-5.647 15.682-4.53 6.997-13.924 12.027-15.395 20.53-4.143 3.08-7.62 6.738-9.567 11.9-2.44 6.47-5.188 18.482-2.29 24.775 6.118 13.282 22.55 19.16 38.603 9.732 2.85-1.674 6.046-2.694 8.68-4.693 3.307-2.51 5.43-6.333 8.766-8.692 3.17-2.243 6.97-3 9.938-5.658 3.782-3.373 7.05-7.466 10.47-11.2q4.543-4.966 9.045-9.97c3.06-3.4 6.415-6.747 8.967-10.57 5.047-7.56 2.963-17.522 2.13-26.026z" class="AF"/><path d="M324.098 142.466q-1.034-3.255-2.07-6.5c-.43-1.35-.718-3.468-1.657-4.62a1.998 1.998 0 0 0-3.476.346c-1.74 2.882-.228 6.44.29 9.296.634 3.484-.133 5.41-.467 7.937-2.863 4.538-12.762-8.12-14.792-10.17-3.295-3.33-4.922-7.663-7.65-11.393-2.084-2.85-4.655-6.128-7.567-8.172-1.38-.97-4.17-2.123-5.523-.412-1.8 2.277 2.195 6.3 3.4 8.022 3.705 5.29 7.737 10.397 10.73 16.1-3.2-1.192-10.785-7.77-11.838-8.683-3.185-2.764-6.068-6.04-9.518-8.475-1.59-1.122-4.78-3.277-6.627-1.512a2.639 2.639 0 0 0-.841 2.397c-1.294 1.03-1.385 2.56-1.02 4.23.702 3.216 3.457 7.496 5.263 10.237a141.626 141.626 0 0 0 11.085 13.83s-5.978-2.913-8.868-4.645c-1.1-.66-5.653-3.784-6.87-2.13-1.692 2.3 1.184 6.038 2.69 7.552a60.967 60.967 0 0 0 6.079 4.925c6.263 4.855 23.437 22.065 23.437 22.065a7.434 7.434 0 0 0 8.168 5.139c2.63-.214 10.178-3.565 12.366-11.263 1.06-3.724 3.843-9.677 5.45-14.925 1.288-4.213 1.117-15.095-.176-19.166z" class="AG"/><path d="M288.74 150.104a221.532 221.532 0 0 1-20.274-23.222c-.486-.642-1.586-.01-1.094.64A223.833 223.833 0 0 0 287.845 151a.634.634 0 0 0 .896-.896z" class="AK"/><path d="M320.25 190.58c-8.463-1.356-17.8-1.596-25.363 1.077l.633-9.2c7.538-1.9 15.874-1.938 23.817-.912z" class="AI"/><ellipse cx="305.614" cy="186.26" rx="8.235" ry="7.76" class="AF"/><path d="M373.897 112.55c-.447-3.524-2.21-6.695-3.692-9.863a58.504 58.504 0 0 1-4.184-12.827c-.338-1.594-.756-3.888-2.832-3.862-2.057.025-3.013 2.416-3.22 4.132-.404 3.36 1.12 6.834 1.95 10.014a18.93 18.93 0 0 1 .702 5.692 35.673 35.673 0 0 0-5.635-4.942c-3.386-2.507-20.2-18.75-27.57-22.436-2.417-1.21-3.797 1.575-2.848 3.627 1.272 2.75 4.182 5.27 6.177 7.51l6.128 6.764a45.52 45.52 0 0 1 1.121 1.26c-2.19.91-4.812 1.742-5.786 4.037a6.93 6.93 0 0 0-.019 4.8 5.545 5.545 0 0 0-2.328 4.106 6.499 6.499 0 0 0 .493 2.928c-2.523 2.79-3.838 6.544-1.37 9.802a90.529 90.529 0 0 0 11.891 12.786c3.09 2.76 7.552 7.654 12.1 7.427 2.338-.117 4.424-1.442 6.37-2.61a61.283 61.283 0 0 1 8.772-4.841c.277.355.916.392.993-.156q.928-6.565 1.855-13.13c.468-3.313 1.368-6.854.942-10.213z" class="AG"/><path d="M360.12 112.54a19.818 19.818 0 0 0-2.31 19.786c.317.748 1.4.103 1.094-.64a18.584 18.584 0 0 1 2.31-18.507c.488-.654-.6-1.286-1.094-.64zm-8.372-2.098a4.131 4.131 0 0 0-4.16-.017 28.786 28.786 0 0 1-3.94-6.457c-.283-.757-1.508-.43-1.222.337 1.153 3.084 3.477 5.8 5.3 8.512.454.672 1.552.038 1.094-.64l-.508-.73c1.337-.92 3.28.306 3.613 1.728a4.296 4.296 0 0 1-1.065 3.871c-2.148 2.237-4.985 1.284-7.278-.07a.579.579 0 0 0-.483-.064 19.308 19.308 0 0 1-6.261-7.835c-.293-.75-1.52-.424-1.22.337a20.91 20.91 0 0 0 6.856 8.602.594.594 0 0 0 .161.358 6.149 6.149 0 0 1 1.957 4.156 3.514 3.514 0 0 1-2.429 3.433.531.531 0 0 0-.297-.142c-.928-.134-1.917-1.15-2.692-1.672a13.761 13.761 0 0 1-2.538-2.075c-1.406-1.536-3.062-3.553-3.4-5.645-.13-.803-1.35-.462-1.222.337.377 2.336 2.154 4.5 3.726 6.204a15.093 15.093 0 0 0 2.531 2.1c.68.477 1.354 1.12 2.106 1.548a.618.618 0 0 0 .058.355c.3.622.606 2.14-.295 2.48a4.007 4.007 0 0 1-2.38-.199c-.74-.32-1.387.772-.64 1.094 1.076.463 3.06.8 4.04-.033a2.988 2.988 0 0 0 .693-3.056 4.35 4.35 0 0 0 3.755-3.156 6.017 6.017 0 0 0-.9-5.115 6.316 6.316 0 0 0 4.739.391 5.595 5.595 0 0 0 3.648-3.805c.455-1.7.142-4.025-1.358-5.133z" class="AK"/><g class="AI"><path d="M382.84 88.123a.633.633 0 0 1-.628-.565l-1.68-15.597a.633.633 0 1 1 1.259-.136l1.68 15.598a.633.633 0 0 1-.562.698.672.672 0 0 1-.069.003z"/><path d="M381.446 74.44a.633.633 0 0 1-.106-1.258l30.56-5.25a.633.633 0 1 1 .215 1.248l-30.56 5.25a.657.657 0 0 1-.109.009z"/></g><path d="M426.054 30.34c-2.83-2.373-5.9-4.915-9.713-5.293a8.781 8.781 0 0 0-3.897.426c-1.922.7-2.8 2.026-4.902 2.465-2.485.522-4.416-.7-6.905-.52a10.112 10.112 0 0 0-3.955 1.185c-3.56 1.868-5.772 5.4-7.824 8.702-.43.695.665 1.332 1.094.64 1.94-3.133 4.004-6.478 7.37-8.247 2.4-1.262 4.517-1.04 7.055-.43a8.865 8.865 0 0 0 3.232.481c2.704-.358 3.992-3.083 6.84-3.404 4.237-.477 7.668 2.342 10.7 4.892.62.52 1.522-.372.896-.896zm6.98 13.296c-2.27-6.626-10.083-13.507-17.5-12.227-.802.14-.462 1.36.337 1.222 6.596-1.14 13.947 5.555 15.93 11.342.263.767 1.487.438 1.222-.337zm.546 12.337c-2.185-2.198-5.105-3.017-7.865-4.2-3.35-1.436-5.37-4.978-9.123-5.57a8.303 8.303 0 0 0-6.951 2.261c-.604.55.294 1.445.896.896 3.404-3.106 7.118-2.053 10.336.646a16.835 16.835 0 0 0 4.869 3.148c2.455.958 5.03 1.8 6.943 3.714 2.326 2.326 1.834 5.255 2.274 8.23.12.804 1.34.462 1.222-.337-.5-3.376.002-6.17-2.6-8.788zm9.92-25.703c-.77-.273-1.1.95-.337 1.222a14.03 14.03 0 0 1 9.394 14.99c-.08.8 1.187.805 1.267 0A15.278 15.278 0 0 0 443.51 30.27z" fill="#74301e"/><path d="M303.908 308.555c-5.37-4.03-6.896-10.815-6.284-17.2a49.356 49.356 0 0 1 5.789-19.112.634.634 0 0 0-1.094-.639 48.384 48.384 0 0 0-6.1 22.076c-.12 6.156 2.026 12.212 7.05 15.98.652.5 1.284-.6.64-1.094zm72.772-132.752a.634.634 0 0 0-.337 1.222c20.8 6.068 23.38 30.676 20.163 48.722a254.069 254.069 0 0 1-6.627 28.554 27.382 27.382 0 0 1-7.392 11.848c-2.382 2.395-4.576 4.78-5.473 8.117a.634.634 0 0 0 1.222.337c1.286-4.785 5.567-7.477 8.52-11.158 2.745-3.42 4.106-7.58 5.146-11.78 2.583-10.435 5.504-21.028 6.737-31.725 1.996-17.318-3.075-38.627-21.958-44.136zm10.627 18.847c-5.65-7.888-12.847-15.977-23.4-15.655-.813.025-.817 1.292 0 1.267 10.07-.307 16.93 7.52 22.307 15.028.47.657 1.57.025 1.094-.64zm76.927-68.713c-19.237-3.027-37.28 4.95-54.342 12.826-.74.34-.113 1.443.624 1.103 16.703-7.7 34.5-15.678 53.365-12.712.796.125 1.157-1.1.353-1.217zm19.202 73.623c-4.496 14.668-14.897 26.32-21.3 40.08-3.286 7.074-4.698 14.75-7.547 21.978a66.284 66.284 0 0 1-13.603 21.226c-.56.592.334 1.5.896.896a67.508 67.508 0 0 0 12.836-19.163c3.472-7.884 4.898-16.465 8.512-24.297 6.407-13.885 16.884-25.595 21.416-40.382.24-.782-.983-1.116-1.222-.337z" class="AH"/><path d="M512.604 125.036a.641.641 0 0 1-.098-.007.633.633 0 0 1-.53-.722l8.354-54.026a.642.642 0 0 1 .722-.529.633.633 0 0 1 .529.722L513.23 124.5a.634.634 0 0 1-.625.537z" fill="#eea558"/><path d="M498.985 123.56a.619.619 0 0 1-.101-.008.635.635 0 0 1-.526-.725l8.762-54.607a.634.634 0 0 1 1.252.2l-8.762 54.607a.634.634 0 0 1-.625.534z" fill="#393579"/><g class="AN"><path d="M120.823 412.785a2.043 2.043 0 0 1-2.347-2.915l26.81-51.567a2.043 2.043 0 0 1 3.625 1.885l-26.81 51.567a2.038 2.038 0 0 1-1.278 1.029z"/><path d="M141.647 381.02a1.022 1.022 0 0 1-1.17-1.466l9.156-17.22-3.716-.532a1.022 1.022 0 0 1 .29-2.022l5.156.74a1.021 1.021 0 0 1 .757 1.491l-9.84 18.505a1.018 1.018 0 0 1-.635.506z"/></g><path d="M135.983 293.41s-29.868-12.32-30.505-13.513 36.81-21.426 36.81-21.426l43.526 12.497z" class="AI"/><g class="AJ"><path d="M180.68 83.245l-8.66-1.932-52.125 8.767 16.1 203.33 8.03 2.97 41.8-25.412-5.134-187.723z"/><use xlink:href="#B"/></g><use xlink:href="#C" class="AS"/><g class="AI"><use xlink:href="#D"/><use xlink:href="#E"/></g><use xlink:href="#F" class="AF"/><g class="AL"><use xlink:href="#G"/><use xlink:href="#H"/><use xlink:href="#I"/><use xlink:href="#J"/></g><use xlink:href="#K" class="AH"/><g class="AL"><path d="M62.346 182.65l.9 18.687 47.304-25.64-.743-18.545-47.462 25.5zM223.242 55.395l1.26-.125 2.9 29.15-1.26.125zM187.598 73.4l1.267-.003.073 30.054-1.267.003z"/><path d="M187.943 80.748l36.376-18.586.577 1.128-36.376 18.586z"/></g><path d="M182.59 71.18l45.178-22.308v6.46l-45.178 22.83v-6.98z" class="AH"/><path d="M192.728 152.872l-.43-39.085 35.47-18.82v43.2l-35.04 14.706z" class="AL"/><use xlink:href="#L" class="AH"/><use xlink:href="#M" class="AL"/><use xlink:href="#N" class="AH"/><ellipse cx="155.535" cy="210.303" rx="16.456" ry="12.435" transform="matrix(.019524 -.999809 .999809 .019524 -57.7645 361.7023)" class="AF"/><g fill="#7da799"><use xlink:href="#O"/><use xlink:href="#P"/><use xlink:href="#Q"/></g><use xlink:href="#R" class="AR"/><use xlink:href="#S" class="AI"/><use xlink:href="#T" class="AG"/><use xlink:href="#U" class="AK"/><use xlink:href="#V" class="AG"/><use xlink:href="#W" class="AI"/><use xlink:href="#X" class="AH"/><use xlink:href="#Y" class="AF"/><use xlink:href="#Z" class="AP"/><use xlink:href="#a" fill="#a25a46"/><use xlink:href="#b" class="AP"/><use xlink:href="#c" class="AI"/><use xlink:href="#d" class="AO"/><g class="AG"><use xlink:href="#e"/><use xlink:href="#f"/></g><use xlink:href="#g" class="AO"/><use xlink:href="#h" class="AG"/><use xlink:href="#i" class="AK"/><use xlink:href="#j" class="AG"/><use xlink:href="#k" class="AF"/><use xlink:href="#l" class="AM"/><use xlink:href="#m" class="AN"/><use xlink:href="#n" class="AG"/><use xlink:href="#o" class="AK"/><use xlink:href="#p" class="AG"/><use xlink:href="#q" class="AH"/><use xlink:href="#r" class="AM"/><use xlink:href="#s" class="AG"/><use xlink:href="#t" class="AK"/><g class="AG"><use xlink:href="#u"/><use xlink:href="#v"/></g><use xlink:href="#w" class="AF"/><g class="AM"><use xlink:href="#x"/><use xlink:href="#y"/></g><use xlink:href="#z" class="AU"/><g class="AG"><use xlink:href="#AA"/><use xlink:href="#AB"/><use xlink:href="#AC"/></g><use xlink:href="#AD" class="AK"/><use xlink:href="#AE" class="AG"/><use xlink:href="#AF" class="AI"/><use xlink:href="#AG" class="AN"/><g class="AJ"><use xlink:href="#AH"/><use xlink:href="#AI"/></g><g class="AS"><use xlink:href="#AJ"/><use xlink:href="#AK"/><use xlink:href="#AL"/></g><g class="AP"><use xlink:href="#AM"/><use xlink:href="#AN"/></g><use xlink:href="#AO" class="AI"/><g class="AJ"><use xlink:href="#AP"/><use xlink:href="#AQ"/></g><g class="AL"><use xlink:href="#AR"/><path d="M189.872 48.088l-1.567 20.52 8.344-4.368-2.865-17.557-3.912 1.406z"/></g><path d="M109.215 314.66l-13.13 17.97a1.159 1.159 0 0 1-1.333.405l-44.62-16.272a1.159 1.159 0 0 1-.51-1.81l13.583-17.09a1.159 1.159 0 0 1 1.289-.373l44.166 15.39a1.159 1.159 0 0 1 .555 1.778z" class="AF"/><path d="M99.215 312.063l-11.233 15.742-35.28-12.58 12.5-15.503 34.015 12.34zm-1.967 8.237c1.126-1.712 2.677-2.68 3.466-2.16s.516 2.327-.6 4.038-2.677 2.68-3.466 2.16-.515-2.327.6-4.04z" class="AH"/><defs ><path id="B" d="M244.275 189.277L54.232 296.3a5.529 5.529 0 0 1-5.131.228l-3.42-1.596a5.539 5.539 0 0 1-3.028-3.649L34.165 104.93a7.624 7.624 0 0 1 4.206-7.132l178.653-89.2 28.606.064 1.292 174.713a5.525 5.525 0 0 1-2.648 5.903z"/><path id="C" d="M241.057 182.07a3.037 3.037 0 0 1-1.52 2.66L57.843 285.876a2.065 2.065 0 0 1-3.104-1.685l-8.387-174.866a3.082 3.082 0 0 1 1.634-2.85L235.33 8.636l3.535.013a3.02 3.02 0 0 1 1.305 2.483z"/><path id="D" d="M134.25 252.66a.634.634 0 0 1-.314-1.184l49.17-28.03a.634.634 0 0 1 .629 1.101l-49.17 28.03a.636.636 0 0 1-.314.083z"/><path id="E" d="M143.828 296.05a.634.634 0 0 1-.631-.587l-3.36-45.502a.634.634 0 0 1 1.264-.093l3.36 45.502a.634.634 0 0 1-.585.678l-.048.002z"/><path id="F" d="M235.495 139.338a3.043 3.043 0 0 1-1.571 2.686l-.228.127-170.42 93.9a3.04 3.04 0 0 1-4.51-2.521l-5.853-122.024a3.092 3.092 0 0 1 1.672-2.876l176.056-89.162a3.043 3.043 0 0 1 4.421 2.711z"/><path id="G" d="M179.707 121.815c-.957-2.14-3.4-2.062-5.178-1.043-2.825 1.62-4.07 4.945-4.487 8.01a31.915 31.915 0 0 0-.054 5.664c.147 3.597-.816 5.687-2.332 8.834-2.505 5.2-4.918 15.945.322 20.438l-.28 1.256c-.186.794 1.063 1.01 1.248.217l.157-.686c.66.285 1.13-.777.46-1.173-.06-.035-.11-.08-.167-.117l3.34-14.2c.72-2.73 1.957-5.157 2.896-7.793.834-2.343.878-4.668 1.312-7.093.633-3.536 4.417-8.612 2.762-12.315z"/><path id="H" d="M166.298 149.163a41.726 41.726 0 0 1-.797-6.255c-.07-2.247-.626-10.743-4.432-8.895-5.886 2.857-2.55 10.106-2.8 15.062-.076 1.45-.634 2.966-.412 4.425.256 1.682 1.083 2.557 1.218 4.407a17.348 17.348 0 0 0 2.436 7.651.66.66 0 0 0 1.051.131c.392.41 1.246-.096 1-.768q-.12-.34-.24-.682a.521.521 0 0 0 .567-.554c-.064-4.1 1.648-7.29 2.448-11.163a7.864 7.864 0 0 0-.038-3.358z"/><path id="I" d="M163.924 165.313a7.99 7.99 0 0 0-1.232-.668.661.661 0 0 0-.051-.306 10.525 10.525 0 0 0-5.887-5.583c-1.768-.74-3.882-.668-5.578-1.41-1.928-.845-3.072-2.836-4.714-4.087-1.743-1.327-12.064-8.848-13.352-3.68a2.635 2.635 0 0 0 .516 2.08 8.852 8.852 0 0 0 1.265 1.197 12.806 12.806 0 0 1 2.154 3.325 10.744 10.744 0 0 0 5.349 5.173 47.951 47.951 0 0 1 4.79 2.381 4.898 4.898 0 0 0 2.001.694c4.604.7 9.95-.8 14.1 1.98.678.456 1.313-.64.64-1.094z"/><path id="J" d="M154.377 167.964a10.155 10.155 0 0 0-1.877-1.308c-.01-.006-.014-.015-.024-.02a31.594 31.594 0 0 0-5.569-2.908c-1.322-.422-2.75-.383-4.086-.847-1.026-.356-1.977-.926-3.013-1.262-2.313-.75-6.644-.856-7.065 2.52-.364 2.917 4.572 2.995 6.385 3.19 1.123.12 2.207.044 3.33.102a16.432 16.432 0 0 1 4.537 1.199 18.327 18.327 0 0 0 6.936.415c.503-.037.892-.692.448-1.08z"/><path id="K" d="M173.593 167.62c.14 2.572.586 5.53-.098 7.696l-22.7 12.504-5.06-18.75 26.978-11.92a177.78 177.78 0 0 0 .871 10.47z"/><path id="L" d="M233.696 142.15l-43.314 23.867c-.342-3.7-1.026-12.605.152-13.606 1.507-1.267 40.045-22.423 41.44-21.587.81.494 1.38 6.423 1.723 11.326z"/><path id="M" d="M164.656 65.114a.636.636 0 0 0-.779.442c-1.007 5.29 2.725 11.938 5.313 16.385a51.44 51.44 0 0 0 4.048 5.947 38.207 38.207 0 0 0-14.781-4.964.622.622 0 0 0-.547.314c-1.845 3.05 3.903 7.698 5.97 9.308a24.854 24.854 0 0 0 5.991 3.457c3.776 1.518 9.654 2.165 10.073 7.258a.637.637 0 0 0 1.244.168 23.374 23.374 0 0 0 1.171-6.699.562.562 0 0 0-.176-.449.666.666 0 0 0 .131-.096.633.633 0 0 0 1.178-.303c-.344-12.94-6.232-25.767-18.836-30.77z"/><path id="N" d="M67.572 164.09s-3.22-21.278-2.428-24.74 29.312-16.864 32.305-13.644c.972 1.046 3.38 20.867 3.38 20.867z"/><path id="O" d="M156.848 205.923s-.84-.275-.923-.662a45.503 45.503 0 0 1 2.44-7.485c.327-.183 1.037.342 1.037.342a4.427 4.427 0 0 1 1.942 5.383h0c-.705 2.155-2.718 3.24-4.496 2.422z"/><path id="P" d="M152.055 220.575s-.704-.193-.807-.592 1.887-7.462 2.326-7.592 1.034.38 1.034.38a4.427 4.427 0 0 1 1.943 5.383h0c-.705 2.155-2.718 3.24-4.496 2.422z"/><path id="Q" d="M153.583 220.83l-.844-3.216c.207-.047 5.21-1.247 6.82-7.502 1.57-6.102-.672-8.54-.768-8.642l1.638-2.38c.15.148 3.82 4.042 1.717 12.226-2.084 8.108-8.29 9.454-8.564 9.513z"/><path id="R" d="M103.71 148.188a42.185 42.185 0 0 0-4.127-9.101 7.832 7.832 0 0 0-5.51-3.48c-3.553-.5-6.797-.356-10.253-1.655a.464.464 0 0 0-.635.364 8.19 8.19 0 0 0-2.259.652.579.579 0 0 0-.779.279c-.036.07-.084.125-.12.192-.16.097-.326.183-.484.29a.623.623 0 0 0-.202.796c-2.622 3.776-6.866 5.754-9.32 9.746-2.758 4.488-4.413 18.424-4.87 23.83-.285.1 15.805-7.13 19.14-8.228 6.082-2 19.958-11.937 19.42-13.686z"/><path id="S" d="M77.592 107.325a10.681 10.681 0 0 0-6.308 9.444c-.184 6.076.896 22.584 1.372 23.233s8.267-6.577 8.745-6.95 11.837 2.732 12.513 1.404-1.537-17.4-3.334-21.722-6.6-7.208-12.988-5.41z"/><path id="T" d="M88.488 137.513l-.426-4.875-.1-1.34-.224-2.516c-.04-.543.06-1.467-.458-1.812-.386-.262-.582-.126-1.015-.124-.976.007-2.335.576-3.38.692a20.17 20.17 0 0 1-3.434.022.503.503 0 0 0-.337.091l-.143-.593c-.222-.843-1.365-.378-1.14.45a42.485 42.485 0 0 1 1.043 5.365l.164 1.24.092.952.148 2.458a11.512 11.512 0 0 0 .141 3.128 16.12 16.12 0 0 0 3.334 4.615c.756.822 4.376 6.198 4.376 6.198s1.5-12.173 1.368-13.955z"/><path id="U" d="M88.062 132.637c-.65 1.805-1.77 4.316-3.41 4.646-1.1.214-3.62-1.087-5.533-2.214l-.092-.952-.164-1.24a7.172 7.172 0 0 1 .927.201 7.04 7.04 0 0 0 7.444-1.633.58.58 0 0 1 .717-.146l.1 1.34z"/><path id="V" d="M85.835 112.308c-2.45-1.793-5.91-1.714-8.706-.45-3.167 1.432-3.557 4.478-2.888 7.694l1.58 8.704c.985 4.357 4.635 7.13 6.245 7.315s3.7-.037 4.7-1.56a21.586 21.586 0 0 0 2.496-5.807 35.737 35.737 0 0 0 .186-8.055c-.285-2.932-.95-5.447-3.046-7.377a6.585 6.585 0 0 0-.565-.464z"/><path id="W" d="M90.4 121.224a.588.588 0 0 0 .46-.647 15.149 15.149 0 0 0-3.026-8.834c-2.108-2.502-5.755-2.684-8.643-2.302-2.54.336-4.655 1.306-5.567 4.116-.946 2.914-.622 6.34-.015 9.28a.533.533 0 0 0 .191.323c-.087.588.6 1.137.976.562 1.87-2.86 2.512-6.19 2.9-9.628 5.042.94 9.627 1.933 11.754 7.88a.587.587 0 1 0 1.094-.424c-.04-.115-.1-.217-.132-.33z"/><path id="X" d="M108.568 211.105l-38.842 21.398c-.063-4.852.05-16.317.57-18.243 1.913-7.056 6.12-11.756 11.364-14.3a25.987 25.987 0 0 1 17.014-1.558c5.004 1.115 8.16 7.436 9.894 12.694z"/><path id="Y" d="M82.636 203.85a11.332 11.332 0 0 0 2.389 4.506c1.866 2.03 4.91 3.553 5.346 3.407s1.475-2.986 1.712-5.56a23.766 23.766 0 0 0-.155-4.154z"/><path id="Z" d="M87.862 207.05c-2.72-.293-5.263-2.562-5.227-3.2.005-.283-.166-2.35-.35-4.538l-.517-5.558.768-.05 8.612-.574.39 4.133.432 5.758c-.022 1.198-1.4 4.318-4.108 4.028z"/><path id="a" d="M91.538 197.264a6.442 6.442 0 0 1-4.144 3.012 9.078 9.078 0 0 1-5.11-.964l-.395-4.238q.316-.647.647-1.37l8.612-.574.39 4.133z"/><path id="b" d="M89.42 176.33c-2.418-1.83-5.89-1.846-8.725-.675-3.21 1.325-3.668 4.314-3.068 7.498l1.392 8.612c.892 4.316 4.492 7.144 6.104 7.37s3.714.063 4.75-1.41a20.956 20.956 0 0 0 2.633-5.65 26.711 26.711 0 0 0 .377-3.419s-.844-9.895-2.906-11.85a6.613 6.613 0 0 0-.557-.473z"/><path id="c" d="M92.872 184.146c-.093-3.662.798-4.76-1.087-7.943-2.012-3.4-4.307-3.754-7.76-3.176-2.34.392-5.588.957-6.507 3.62-1.136 3.295-.688 7.463.072 10.892a16.409 16.409 0 0 0 1.177 2.853 52.256 52.256 0 0 1 .637-5.57c.475-2.4 2.268-4.983 4.554-4.808 1.26.097 3.47-.218 4.692.016 2.814.54 4.235 8.622 4.235 8.622l-.013-4.507z"/><path id="d" d="M145.787 94.966s-11.782 8.94-13.204 12.253c-2.406 5.602-3.25 25.39-3.25 25.39l42.202-18.066s-2.402-12.1-5.777-15.35c-4.414-4.25-19.97-4.226-19.97-4.226z"/><path id="e" d="M130.468 103.51q-.13-.3-.258-.597l-2.292-4.75a.759.759 0 0 0-1.478.23 23.819 23.819 0 0 0 .683 3.657s-4.028-5.116-6.082-5.706a.767.767 0 0 0-.74.221c-1.27 1.37.165 4.71.697 6.138a20.538 20.538 0 0 0 5.142 7.56c.004.012.016.01.02.02l.047.025c-.328.363 2.695.966 4.43-.703a3.673 3.673 0 0 0 1.048-1.979c.264-1.282-.717-2.972-1.218-4.118z"/><path id="f" d="M137.623 131.534l-2.634-8.824c-2.86-8.744-4.707-16.47-4.707-16.47l-4.227 3.142s1.562 18.102 2.97 26.963c2.897-1.542 5.73-3.204 8.597-4.81z"/><path id="g" d="M133.687 115.432s-3.326 3.652-5.542 4.84l-2.217 1.188s1.82 12.114 2.375 13.54 9.818-3.298 9.818-3.298 2.53-2.086 2.374-2.957-6.808-13.312-6.808-13.312z"/><path id="h" d="M153.574 95.59l-.005-1.636-.038-2.978a3.076 3.076 0 0 0-.001-.317q.003-.493-.004-.95l-.026-2.38c.002-.513.163-1.37-.296-1.742-.34-.28-.534-.17-.938-.208-.91-.08-2.22.33-3.203.346a18.851 18.851 0 0 1-3.205-.288.464.464 0 0 0-.321.055l-.1-.57c-.146-.81-1.246-.478-1.097.32a40.556 40.556 0 0 1 .584 5.129l.063 1.18.017.9-.007 1.316-.033 1.004a10.925 10.925 0 0 0-.096 2.948 15.584 15.584 0 0 0 2.776 4.631c.646.84 3.633 6.2 3.633 6.2s2.282-11.288 2.29-12.973z"/><path id="i" d="M153.568 93.953a7.249 7.249 0 0 1-3.603 2.365c-1.03.106-3.27-1.323-4.96-2.55l.007-1.315-.017-.9.74.382a6.508 6.508 0 0 0 7.063-.862 2.847 2.847 0 0 1 .731-.412 3.076 3.076 0 0 1 .001.317l.038 2.978z"/><path id="j" d="M152.926 73.16a8.209 8.209 0 0 0-8.038-1.197c-3.04 1.052-3.62 3.858-3.232 6.916l.836 8.257c.6 4.15 3.782 7.063 5.262 7.38s3.433.296 4.47-1.035a19.821 19.821 0 0 0 2.732-5.191 33.514 33.514 0 0 0 .752-7.494c-.052-2.76-.487-5.165-2.292-7.15a6.264 6.264 0 0 0-.491-.484z"/><path id="k" d="M144.792 96.7s3.356 2.68 5.16 2.543 3.566-2.954 3.566-2.954a64.427 64.427 0 0 1 3.771 8.267c1.36 3.895 2.905 14.71 2.905 14.71l-16.546 7.223.488-17.982c.14-3.614.656-11.808.656-11.808z"/><path id="l" d="M142.187 84.328a58.168 58.168 0 0 0 .886-5.822c-.005-1.254.32-1.254 1.61-2.093a12.644 12.644 0 0 1 2.345-1.493c1.104-.48 1.707.808 3.018.34s2.625.266 3.365.2S155.7 82.6 155.7 82.6l.046-9.12c.08-1.592-1.562-5.512-3.58-6.002s-4.498-1.022-5.572.25-1.747.122-3.187 1.276a7.858 7.858 0 0 0-2.13 3.026 3.536 3.536 0 0 0-1.772 3.083c.135 2.026 2.693 9.21 2.693 9.21z"/><path id="m" d="M173.938 175.076L134.36 196.89c.29-5.51 1.115-15.8 2.217-19.383 1.8-5.853 12.073-13.112 12.073-13.112l8.767-1.178s9.223 1.57 12.67 4.75c1.47 1.355 2.813 4.257 3.85 7.107z"/><path id="n" d="M157.413 163.213l-.058-1.635-.135-2.974a2.966 2.966 0 0 0-.012-.316q-.013-.493-.035-.95l-.103-2.378c-.014-.513.126-1.376-.365-1.73-.365-.267-.563-.15-.986-.172-.954-.046-2.308.415-3.334.467a20.54 20.54 0 0 1-3.357-.166.503.503 0 0 0-.333.068l-.112-.565c-.178-.805-1.316-.43-1.135.363a38.823 38.823 0 0 1 .773 5.104c.055.393.083.793.103 1.177l.046.9.034 1.315-.03 3.33a2.864 2.864 0 0 0 .212 1.12 17.762 17.762 0 0 0 2.856 4.026c.248.287.818 1.13 1.453 2.096a1.826 1.826 0 0 0 3.357-.785l1.16-8.295z"/><path id="o" d="M157.355 161.58a7.664 7.664 0 0 1-3.687 2.501c-1.072.145-3.457-1.198-5.262-2.36l-.034-1.315-.046-.9.785.353a7.057 7.057 0 0 0 7.348-1.131 3.035 3.035 0 0 1 .75-.439 2.966 2.966 0 0 1 .012.316l.135 2.974z"/><path id="p" d="M156.02 140.822c-2.297-1.81-4.408-1.177-7.18-.147-3.14 1.167-4.52 5.595-4.018 8.637l.75 5.875c.758 4.125 4.175 6.915 5.73 7.175s3.595.165 4.634-1.205a19.651 19.651 0 0 0 2.688-5.292 32.168 32.168 0 0 0 .547-7.518c-.143-2.756-.673-5.143-2.622-7.06a6.356 6.356 0 0 0-.528-.465z"/><path id="q" d="M160.887 144.076c.41-.82 1.048-1.044 1.276-2.108.368-1.717-.715-2.85-2.08-3.522a2.879 2.879 0 0 0-.911-3.055 2.939 2.939 0 0 0-1.605-.564c-1.023-.138-.513-.04-1.25-.73-1.94-1.814-4.562-.855-6.433.748-.872-1.073-2.066-1.683-3.423-.793a4.329 4.329 0 0 0-1.288 1.686c-1.02 1.788-.175.137-1.262 1.32a4.393 4.393 0 0 0-1.096 4.016c.238 1.683.74 3.125.882 4.818.01.128.04.25.058.377a.6.6 0 0 0-.006.125c.263 1.803 1.493 6.46 1.493 6.46a44.457 44.457 0 0 1 1.748-6.399c.8.254 3.843-.2 4.752-.23 1.283-.04 2.564.56 3.83.386.43-.06.935-.51 1.317-.54a3.971 3.971 0 0 1 1.224.287c.823.192 1.614.346 2.244-.398.542-.64.21-1.247.53-1.885z"/><path id="r" d="M228.338 140.643c-.2-1.356-.95-2.217-1.482-3.433-.013-.038-.038-.076-.05-.114a11.066 11.066 0 0 1-.532-4.624.404.404 0 0 1-.013-.089 9.225 9.225 0 0 0-.063-1.166 48.459 48.459 0 0 0-1.406-5.283 41.704 41.704 0 0 1-.735-6.765c-.304-5.562.608-11.782-4.852-14.328-5.17-2.407-12.44-1.824-14.873 2.825-2.14 2.9-2.483 8.55-1.913 12.174a76.143 76.143 0 0 1 1.128 12.783c-.1 4.18 1.723 7.88 1.444 12.137-.05.81 2.445-.836 2.508-1.647a18.513 18.513 0 0 0-.38-4.802c2.217-.786 3.8-1.85 4.155-4.472.29-2.128-.342-4.98 2.584-5.27 2.078-.2 3.104 1.394 3.99 3.155q.323.646.57 1.292a37.957 37.957 0 0 1 1.926 7.753 13.457 13.457 0 0 0 1.482 3.421 17.369 17.369 0 0 1 1.318 3.775l4.624-2.546.798-.443.076-.038c-.316-1.495-.088-2.787-.304-4.295z"/><path id="s" d="M218.195 132.736l.186-4.61.058-1.265.092-2.38c.028-.512.242-1.36-.227-1.757-.35-.3-.56-.202-.986-.263-.965-.135-2.377.2-3.422.156a21.357 21.357 0 0 1-3.393-.477.519.519 0 0 0-.344.036l-.067-.573c-.114-.82-1.3-.55-1.182.256a38.247 38.247 0 0 1 .363 5.156c.023.397.02.797.008 1.182l-.028.9-.16 2.314c-.032.37-.116.79-.19 1.212a4.503 4.503 0 0 0-.06 1.726 15.526 15.526 0 0 0 2.718 4.788c.644.876 3.55 6.416 3.55 6.416s2.993-11.138 3.086-12.82z"/><path id="t" d="M218.38 128.126c-.867 1.59-2.285 3.77-3.943 3.84-1.11.04-3.44-1.54-5.187-2.867l.028-.9-.008-1.182a7.583 7.583 0 0 1 .89.322 7.28 7.28 0 0 0 7.552-.445.6.6 0 0 1 .726-.032l-.058 1.266z"/><path id="u" d="M218.7 108.84c-2.196-2.028-5.62-2.455-8.54-1.68-3.305.877-4.068 3.662-3.808 6.76l.477 8.348c.43 4.207 4.4 6.644 5.966 7.05s2.696.512 4.067-.528a11.056 11.056 0 0 0 3.243-4.623 31.699 31.699 0 0 0 1.185-7.487c.084-2.776-.26-5.22-2.1-7.323a6.588 6.588 0 0 0-.501-.516z"/><path id="v" d="M231.973 143.1l-36.815 20.283c.228-6.638 1.61-17.685 2.572-20.89.532-1.786 4.434-5.562 7.03-7.082l1.115-.62c2.622-1.444 4.9-2.483 4.9-2.483l4.56.013a30.059 30.059 0 0 1 6.613.253 16.272 16.272 0 0 1 5.764 2.103c2.103 1.508 3.446 5.106 4.27 8.425z"/><path id="w" d="M227.767 145.42l-24.843 13.695.177-5.55.81-5.942c.494-3.725 1.292-7.78.938-11.554a3.759 3.759 0 0 0-.089-.659l1.115-.62c.67 3.028 11.795 15.088 11.795 15.088s5.118-13.936 4.27-17.305a11.982 11.982 0 0 1 1.305.266c.532 2.217 2.888 8.16 4.523 12.58z"/><path id="x" d="M219.606 107.902a8.781 8.781 0 0 0-8.18-2.99c-7.462 1.456-6.507 12.265-5.326 18.07a1.196 1.196 0 0 1-.288.081c-.762.088-.696 8.304.077 8.214 2.58-.3 2.87-9.51 2.742-11.89-.13-2.404 1.1-3.814 1.9-5.844a10.992 10.992 0 0 0 .665-3.89c4.142.01 8.44 3.44 9.728 6.017s1.022.432 1.108-.134c.346-2.276-1.062-5.83-2.428-7.635z"/><path id="y" d="M228.566 144.975l-.798.443-5.98 3.294c-.47 0-.798.013-.86-.076-.114-.165-.43-8.083-1.242-10.997l-1.267-4.624-.203-.773s1.04-1.81 1.33-1.875 1.014-.71 1.888-.152c.862.545 4.827 2.167 4.827 2.167a.404.404 0 0 0 .013.089c.038.456.24 2.483.532 4.624a27.524 27.524 0 0 0 1.09 5.384 10.111 10.111 0 0 1 .671 2.496z"/><path id="z" d="M229.917 83.06l-37.62 17.023s2.345-14.694 3.046-17.023c2.084-6.954 7.182-12.315 12.216-14.572 4.85-2.18 11.747-3.142 17.104-.932 4.474 1.845 5.254 15.504 5.254 15.504z"/><path id="AA" d="M228.515 85.863l-8.045 4.37 1.1-7.804 1.61-10.54 4.865-2.014s-.038 3.687.14 8.957l.342 7.03z"/><path id="AB" d="M223.175 71.9s.425-4.118 1.69-5.7 5.613-6.495 6.805-8.394 2.22.08 2.22 1.19a19.425 19.425 0 0 1-3.106 7.982 19.347 19.347 0 0 1-2.747 2.906l-3.79 5.343z"/><path id="AC" d="M212.437 75.453c-2.542-.434-4.834-2.833-4.774-3.47.017-.283-.06-2.357-.143-4.55l-.257-5.578.723-.01 8.106-.125.197 4.15.17 5.774c-.07 1.195-1.5 4.24-4.02 3.8z"/><path id="AD" d="M216.3 65.87a5.982 5.982 0 0 1-4.013 2.793 8.168 8.168 0 0 1-4.757-1.229l-.197-4.253q.324-.63.664-1.334l8.106-.125.197 4.15z"/><path id="AE" d="M215.165 44.847a8.06 8.06 0 0 0-8.161-1.128c-3.067 1.157-3.62 4.118-3.188 7.33l.952 8.675c.66 4.358 3.922 7.37 5.426 7.68s3.483.256 4.516-1.162c1.98-2.718 2.485-5.33 2.7-9.35a33.701 33.701 0 0 0-.472-8.198 7.52 7.52 0 0 0-1.269-3.343 6.46 6.46 0 0 0-.503-.501z"/><path id="AF" d="M218.24 46.705a6.28 6.28 0 0 0-.669-3.963c-.393-.587-1.06-1.737-1.718-1.885a2.313 2.313 0 0 0-1.45.288 3.796 3.796 0 0 0-2.181-2.206c-1.537-.535-1.734.62-2.917 1.13-.803.345-1.986-.34-2.934-.233a3.635 3.635 0 0 0-1.757.627 3.476 3.476 0 0 0-1.335 2.512 4.516 4.516 0 0 0-1.854 5.213c.188.555.806 1.154.84 1.69.025.4-.305.785-.376 1.2-.254 1.474 2.5 5.42 2.5 5.42a4.938 4.938 0 0 0 1.104-2.509c.018-.52-.167-.993.078-1.48.146-.288.434-.483.594-.773a3.27 3.27 0 0 0 .298-1.891 3.444 3.444 0 0 0 2.24-.032 4.598 4.598 0 0 0 1.494-.815c1.392-.936 2.174.143 3.363 1.143a.539.539 0 0 0 .194.103 2.208 2.208 0 0 0 .727.567c.62.293 1.262.144 1.832.452.554.3 1.157 2.866 1.157 2.866l.774-7.426z"/><path id="AG" d="M145.58 31.833l.01 11.353a1.438 1.438 0 0 0 .964 1.356l5.903 2.06a1.438 1.438 0 0 0 1.135-.081l38.165-19.762a1.438 1.438 0 0 0 .776-1.251l.196-10.956a1.438 1.438 0 0 0-1.063-1.414l-6.322-1.706a1.437 1.437 0 0 0-1.019.103l-37.95 19.012a1.437 1.437 0 0 0-.794 1.287z"/><path id="AH" d="M162.603 36.765c-.14 1.94-1.267 3.44-2.52 3.35s-2.154-1.735-2.015-3.676 1.267-3.44 2.52-3.35 2.154 1.735 2.015 3.675z"/><path id="AI" d="M176.872 28.587a.634.634 0 0 1-.286-1.199l11.433-5.784a.633.633 0 1 1 .571 1.131l-11.433 5.784a.629.629 0 0 1-.286.068z"/><path id="AJ" d="M122.73 210.418l-6.255 2.057-3.236-70.75-2.69-64.084 6.272-1.77 2.672 63.978 3.236 70.568z"/><path id="AK" d="M186.023 120.102l-.257-6.58.002-.012-2.63-75.392a20.471 20.471 0 0 1-6.194 3.672l2.814 80.352 2.213 58.815 6.26-2.235z"/><path id="AL" d="M239.448 79.91l-125.293 68.17-60.544 32.533-1.57-6.36 66.257-35.637 119.87-65.218 1.28 6.512z"/><path id="AM" d="M112.18 209.117l-7.79 4.294 1.114-10.122.76-7.02 3.7-1.28 1.748 1.495.013.266.456 12.365z"/><path id="AN" d="M112.37 188.745c-.773-1.14-2.698-1.42-4.054-1.432a32.144 32.144 0 0 0 .798-5.384c.013-.557-.165-1.28-.9-1.013-.988.355-1.317 2.66-1.508 3.484a16.229 16.229 0 0 0-.431 2.47c-.076.76-.09 3.66-1.267 3.51-.355-1.204-.786-2.51-1.698-2.9a.893.893 0 0 0-1.279.912 1.897 1.897 0 0 0 .304.811 11.217 11.217 0 0 1 .938 2.28 9.31 9.31 0 0 0 .52 2.508 17.143 17.143 0 0 0 2.382 3.117l.7.735s1-.86 1.102-.81c.95.393 3.382.988 3.382.988l.355-1.267 1-3.927a5.673 5.673 0 0 0-.355-4.078z"/><path id="AO" d="M43.608 106.873a.625.625 0 0 1-.29-.071l-7.813-4.02a.633.633 0 1 1 .579-1.126l7.813 4.022a.633.633 0 0 1-.289 1.196z"/><path id="AP" d="M152.854 46a.633.633 0 0 1-.633-.633v-11.6l-5.648-1.62a.633.633 0 0 1 .349-1.217l6.566 1.882v12.566a.633.633 0 0 1-.633.633z"/><path id="AQ" d="M152.854 33.914a.634.634 0 0 1-.278-1.203l38.903-19.054a.634.634 0 1 1 .557 1.138L153.132 33.85a.63.63 0 0 1-.278.064z"/><path id="AR" d="M104.454 102.66c-.384 5.36-3.453 9.506-6.855 9.262s-5.85-4.786-5.465-10.145 3.453-9.506 6.855-9.262 5.85 4.786 5.465 10.145z"/><path id="AS" d="M35.416 374.82a.634.634 0 0 1-.367-1.15l41.595-29.56a.634.634 0 0 1 .735 1.033l-41.595 29.56a.632.632 0 0 1-.368.117z"/></defs></svg>