<svg width="373" height="75" viewBox="0 0 373 75" fill="none" xmlns="http://www.w3.org/2000/svg">
<path d="M33.2779 0.494887C14.0275 3.49527 -0.898496 21.2309 0.356965 39.4998C1.47293 55.0351 11.8654 67.8368 27.6981 73.2375C33.6964 75.2377 44.0889 75.3044 50.7149 73.3708C64.4552 69.2369 74.9872 58.2356 77.9166 44.8338C79.7998 36.0994 78.9628 29.7653 74.6384 21.1642C69.8956 11.6963 60.3401 4.02867 50.0872 1.42834C45.3443 0.228187 37.6023 -0.238539 33.2779 0.494887ZM46.1813 4.4954C59.4334 6.49565 71.0813 17.3637 74.0107 30.3653C75.6149 37.7663 74.4292 46.5674 70.872 53.3683C68.2914 58.1689 60.8283 65.0364 55.1788 67.7034C46.0418 72.104 33.1385 72.104 23.862 67.7034C15.004 63.5029 6.77377 53.5016 5.09982 44.9672C4.82083 43.2336 4.61158 41.8335 4.68133 41.8335C4.75108 41.8335 6.21578 43.567 7.95948 45.7006C10.3309 48.6343 12.2838 50.1679 16.2595 52.1681C21.1418 54.6351 21.6998 54.7684 27.6981 54.7684C32.5805 54.7684 34.6729 54.4351 37.1141 53.3683C44.7863 50.0345 49.8779 44.3671 52.1796 36.8995C56.2947 23.0311 45.8326 8.4959 30.488 6.82903C25.7452 6.29562 26.3729 5.49552 32.3712 4.56207C37.5326 3.76197 40.9502 3.76197 46.1813 4.4954ZM33.2779 11.2296C39.6947 12.8965 46.4603 19.1639 48.2737 25.1647L48.9712 27.4983L46.5998 25.0313C43.0426 21.2975 40.3225 20.2307 34.6729 20.1641C30.6275 20.1641 29.2326 20.4974 26.5822 21.9643C21.4208 24.8313 18.2822 30.0986 18.2822 35.6994C18.3519 41.2334 21.7696 46.4341 27.6981 49.7011L30.488 51.2347L26.1637 50.9013C15.4922 50.1679 7.262 42.2335 6.56452 32.0322C6.21578 26.9649 7.54099 22.9644 10.9586 18.4972C15.9805 11.963 24.9082 9.0293 33.2779 11.2296ZM41.7174 26.1648C44.9956 28.5651 46.3208 30.632 46.6695 34.0992C47.7158 42.5002 39.7645 48.7677 30.9763 46.5674C27.5586 45.634 23.3738 41.3667 22.746 38.033C21.6998 32.8323 24.4897 27.4983 29.5116 24.9647C32.8595 23.2311 38.509 23.8312 41.7174 26.1648Z" fill="white"/>
<path d="M123.371 49.709L120.004 40.3916H107.111L103.812 49.709H98L110.616 16.0195H116.613L129.23 49.709H123.371ZM118.551 35.6641L115.391 26.5303C115.16 25.9183 114.837 24.9544 114.422 23.6387C114.022 22.3229 113.745 21.359 113.592 20.7471C113.177 22.6289 112.569 24.6867 111.77 26.9204L108.725 35.6641H118.551Z" fill="white"/>
<path d="M146.044 50.168C142.815 50.168 140.308 49.0129 138.525 46.7026H138.202C138.417 48.8446 138.525 50.145 138.525 50.604V61H133.104V24.3271H137.487C137.61 24.8014 137.863 25.9336 138.248 27.7236H138.525C140.216 25.1533 142.753 23.8682 146.136 23.8682C149.319 23.8682 151.794 25.0156 153.563 27.3105C155.346 29.6055 156.238 32.826 156.238 36.9722C156.238 41.1183 155.331 44.3542 153.517 46.6797C151.718 49.0052 149.227 50.168 146.044 50.168ZM144.729 28.2744C142.576 28.2744 141 28.9017 140.001 30.1563C139.017 31.4108 138.525 33.415 138.525 36.1689V36.9722C138.525 40.0627 139.017 42.304 140.001 43.6963C140.985 45.0732 142.592 45.7617 144.821 45.7617C146.697 45.7617 148.143 44.9967 149.157 43.4668C150.172 41.9368 150.68 39.7567 150.68 36.9263C150.68 34.0806 150.172 31.931 149.157 30.4775C148.158 29.0088 146.682 28.2744 144.729 28.2744Z" fill="white"/>
<path d="M175.474 50.168C172.245 50.168 169.739 49.0129 167.955 46.7026H167.632C167.847 48.8446 167.955 50.145 167.955 50.604V61H162.535V24.3271H166.917C167.04 24.8014 167.294 25.9336 167.678 27.7236H167.955C169.647 25.1533 172.184 23.8682 175.566 23.8682C178.749 23.8682 181.225 25.0156 182.993 27.3105C184.777 29.6055 185.669 32.826 185.669 36.9722C185.669 41.1183 184.762 44.3542 182.947 46.6797C181.148 49.0052 178.657 50.168 175.474 50.168ZM174.16 28.2744C172.007 28.2744 170.431 28.9017 169.431 30.1563C168.447 31.4108 167.955 33.415 167.955 36.1689V36.9722C167.955 40.0627 168.447 42.304 169.431 43.6963C170.415 45.0732 172.022 45.7617 174.252 45.7617C176.128 45.7617 177.573 44.9967 178.588 43.4668C179.603 41.9368 180.11 39.7567 180.11 36.9263C180.11 34.0806 179.603 31.931 178.588 30.4775C177.588 29.0088 176.112 28.2744 174.16 28.2744Z" fill="white"/>
<path d="M197.386 49.709H191.965V14H197.386V49.709Z" fill="white"/>
<path d="M201.284 24.3271H207.188L212.378 38.7163C213.162 40.7664 213.685 42.6942 213.946 44.4995H214.131C214.269 43.658 214.523 42.6406 214.892 41.4473C215.261 40.2386 217.214 34.5319 220.75 24.3271H226.609L215.699 53.0825C213.715 58.3608 210.409 61 205.781 61C204.582 61 203.413 60.87 202.275 60.6099V56.3413C203.09 56.5249 204.021 56.6167 205.066 56.6167C207.68 56.6167 209.518 55.1097 210.579 52.0957L211.524 49.709L201.284 24.3271Z" fill="white"/>
<path d="M250.504 40.5981C250.504 43.5815 249.42 45.9224 247.251 47.6206C245.083 49.3188 242.093 50.168 238.279 50.168C234.466 50.168 231.345 49.5789 228.915 48.4009V43.2144C230.453 43.9334 232.083 44.4995 233.805 44.9126C235.542 45.3257 237.157 45.5322 238.648 45.5322C240.832 45.5322 242.439 45.1191 243.469 44.293C244.514 43.4668 245.037 42.3576 245.037 40.9653C245.037 39.7108 244.561 38.6475 243.607 37.7754C242.654 36.9033 240.686 35.8706 237.703 34.6772C234.627 33.438 232.459 32.0228 231.198 30.4316C229.938 28.8405 229.307 26.9281 229.307 24.6943C229.307 21.8945 230.307 19.6914 232.306 18.085C234.304 16.4785 236.988 15.6753 240.355 15.6753C243.584 15.6753 246.798 16.3791 249.996 17.7866L248.243 22.2617C245.245 21.0072 242.569 20.3799 240.217 20.3799C238.433 20.3799 237.08 20.77 236.157 21.5503C235.235 22.3153 234.773 23.3327 234.773 24.6025C234.773 25.4746 234.958 26.2243 235.327 26.8516C235.696 27.4635 236.303 28.0449 237.149 28.5957C237.995 29.1465 239.517 29.8732 241.716 30.7759C244.192 31.8009 246.006 32.7572 247.159 33.6445C248.312 34.5319 249.158 35.534 249.696 36.6509C250.234 37.7677 250.504 39.0835 250.504 40.5981Z" fill="white"/>
<path d="M266.741 50.168C262.882 50.168 259.945 49.0511 257.93 46.8174C255.931 44.5684 254.932 41.3478 254.932 37.1558C254.932 32.8872 255.978 29.6055 258.069 27.3105C260.175 25.0156 263.212 23.8682 267.179 23.8682C269.87 23.8682 272.292 24.3654 274.445 25.3599L272.807 29.6973C270.516 28.8099 268.625 28.3662 267.133 28.3662C262.72 28.3662 260.514 31.2808 260.514 37.1099C260.514 39.9556 261.059 42.0975 262.151 43.5356C263.258 44.9585 264.873 45.6699 266.995 45.6699C269.409 45.6699 271.692 45.0732 273.845 43.8799V48.5845C272.876 49.1506 271.838 49.556 270.731 49.8008C269.64 50.0456 268.309 50.168 266.741 50.168Z" fill="white"/>
<path d="M302.284 49.709H296.84V34.1035C296.84 32.1452 296.441 30.6841 295.641 29.7202C294.857 28.7563 293.604 28.2744 291.882 28.2744C289.606 28.2744 287.93 28.9552 286.853 30.3169C285.792 31.6632 285.262 33.9276 285.262 37.1099V49.709H279.842V14H285.262V23.0649C285.262 24.5184 285.17 26.0713 284.985 27.7236H285.331C286.069 26.4997 287.092 25.5511 288.399 24.8779C289.721 24.2048 291.259 23.8682 293.012 23.8682C299.193 23.8682 302.284 26.9663 302.284 33.1626V49.709Z" fill="white"/>
<path d="M332.452 36.9722C332.452 41.1183 331.384 44.3542 329.246 46.6797C327.109 49.0052 324.134 50.168 320.32 50.168C317.937 50.168 315.83 49.6325 314.001 48.5615C312.171 47.4906 310.764 45.953 309.78 43.9487C308.796 41.9445 308.304 39.619 308.304 36.9722C308.304 32.8566 309.365 29.6437 311.487 27.3335C313.608 25.0233 316.599 23.8682 320.459 23.8682C324.149 23.8682 327.071 25.0539 329.223 27.4253C331.376 29.7814 332.452 32.9637 332.452 36.9722ZM313.885 36.9722C313.885 42.8319 316.061 45.7617 320.413 45.7617C324.718 45.7617 326.871 42.8319 326.871 36.9722C326.871 31.1737 324.703 28.2744 320.366 28.2744C318.091 28.2744 316.438 29.0241 315.408 30.5234C314.393 32.0228 313.885 34.1724 313.885 36.9722Z" fill="white"/>
<path d="M361.329 36.9722C361.329 41.1183 360.261 44.3542 358.123 46.6797C355.986 49.0052 353.011 50.168 349.197 50.168C346.814 50.168 344.707 49.6325 342.878 48.5615C341.048 47.4906 339.641 45.953 338.657 43.9487C337.673 41.9445 337.181 39.619 337.181 36.9722C337.181 32.8566 338.242 29.6437 340.363 27.3335C342.485 25.0233 345.476 23.8682 349.336 23.8682C353.026 23.8682 355.948 25.0539 358.1 27.4253C360.253 29.7814 361.329 32.9637 361.329 36.9722ZM342.762 36.9722C342.762 42.8319 344.938 45.7617 349.29 45.7617C353.595 45.7617 355.748 42.8319 355.748 36.9722C355.748 31.1737 353.58 28.2744 349.243 28.2744C346.968 28.2744 345.315 29.0241 344.284 30.5234C343.27 32.0228 342.762 34.1724 342.762 36.9722Z" fill="white"/>
<path d="M373 49.709H367.58V14H373V49.709Z" fill="white"/>
</svg>
