<svg xmlns="http://www.w3.org/2000/svg" xmlns:xlink="http://www.w3.org/1999/xlink" width="2651.845" height="1600" xmlns:v="https://vecta.io/nano"><style><![CDATA[.AC{fill:#fff}.AD{fill:#313440}.AE{fill:#ff9776}.AF{fill:#edd8c8}.AG{fill:#f9e3d0}.AH{fill:#4e7291}.AI{fill:#955e5b}.AJ{fill:#f2764d}.AK{fill:#efd3bd}.AL{fill:#7d4845}.AM{fill:#dc8a63}.AN{fill:#e86f61}.AO{fill:#7b4946}.AP{fill:#365c7d}]]></style><path d="M0 0h2651.845v1600H0z" class="AC"/><path d="M2418.177 728.377c-28.995-73.736-98.946-121.703-171.75-146.113-94.256-31.604-195.82-26.994-293.65-35.138-100.87-8.396-201.088-26.406-297.978-55.868-92.974-28.27-180.125-68.77-265.337-115.07-78.638-42.73-156.465-88.14-240.28-120.207-99.882-38.212-226.184-66.176-322.294-4.067-34.98 22.605-67.17 57.202-83.913 95.403-18.183 41.49-27.983 91.438-56.5 127.617-28.303 35.906-76.77 52.464-118.097 68.13-81.276 30.807-157.814 75.06-218.75 137.735-156.494 160.96-148.102 458.426 25.177 604.852 30.357 25.653 67.472 41.35 106.186 49.282 88.332 18.1 181.514 1.8 269.6-10.02a5077.677 5077.677 0 0 0 615.94-121.911c100.654-26.483 202.26-63.88 307.365-65.888 94.577-1.807 186.16 29.288 267.84 75.223q4.727 2.66 9.41 5.39-20.62 3.91-41.432 6.77c-.763.105-.438 1.262.32 1.158q21.423-2.943 42.65-7.03c36.343 21.23 70.93 45.343 104.096 71.245.602.47 1.458-.374.85-.85-32.778-25.6-67.122-49.62-103.097-70.752a804.662 804.662 0 0 0 223.756-79.079c76.677-40.753 151.327-93.955 201.153-166.27 48.23-70 70.76-163.133 38.746-244.543z" fill="#e8f3fc"/><path d="M2416.604 1094.784l-.613-1.14a1.434 1.434 0 0 0-.096-.192c-4.613-8.36-13.2-11.123-22.702-11.075-.577 0-1.153.012-1.742.048-11.22.445-23.423 4.516-31.735 7.772l-1.814.72c-.024.012-.036.012-.06.024-13.345 5.393-25.886 12.516-38.486 19.435-7.736 4.252-15.483 8.745-23.615 12.012-.817.324-1.622.637-2.438.925a56.937 56.937 0 0 1-20.528 3.82c-3.35-.036-6.666-.216-9.958-.432 14.282-5.862 25.49-14.258 32.852-28.132 6.86-12.913 10.27-27.28 16.096-40.636l.553-1.225c.468-1.08.973-2.138 1.5-3.195 8.096-16.48 21.61-26.426 37.657-34.522.036-.024.072-.036.108-.06l2.787-1.38c14.1-6.943 28.865-13.285 40.12-24.528 13.237-13.213 16.432-29.465 14.546-47.59-1.08-10.474-3.027-20.865-2.535-31.435.517-11.47 3.375-22.678 6.198-33.753l.445-1.73q.162-.65.324-1.297c1.31-5.14 2.606-10.402 3.65-15.7.096-.444.18-.9.264-1.345 2.342-12.336 3.255-24.9-.288-37.01-3.436-11.724-11.075-22.74-22.186-27.904l-1.13-.492a31.468 31.468 0 0 0-5.429-1.742c-15.82-3.58-32.096 4.024-43.34 14.87-13.32 12.853-21.513 29.994-31.135 45.573a266.034 266.034 0 0 1-19.483 28l-2.342 2.823a149.308 149.308 0 0 1-13.345 13.958c-14.68 13.417-32.024 20.336-49.717 28.708-11.087 5.237-21.093 11.832-29.07 20.624-3.543-6.078-7.568-11.88-11.64-17.62-.89-1.25-2.967-.048-2.066 1.213 4.084 5.766 8.36 11.88 12.072 18.294a68.201 68.201 0 0 0-7.892 11.519 73.44 73.44 0 0 0-7.856 23.255c-.252 1.514 2.066 2.162 2.318.637a71.987 71.987 0 0 1 14.654-33.237c6.378 11.627 10.63 24.216 8.348 37.56-3.063 17.886-17.225 31.29-26.126 46.366-10.246 17.38-12.216 38.354-15.856 57.85-3.916 21.01-8.78 42.114-10.198 63.483-.552 8.468-1.886 19.856 1.225 27.976 2.427 6.33 9.862 5.165 15.22 3.82 9.44-2.366 17.237-7.808 24.24-14.294-1.117 13.634-4.41 26.883-11.952 38.86-5.285 8.42-11.47 16.3-13.537 25.97-.108.53-.216 1.08-.3 1.622a31.395 31.395 0 0 0-.384 3.892c-.36 9.958-17.2 43.147-11.22 51.014 6.835 8.95 42.005 2.847 49.705-.012 14.366-5.333 23.315-15.77 37.645-22.426 13.814-6.402 20.36-10.2 35.46-12.048 13.2-1.6 27.58-6.126 37.717-15.7a25.92 25.92 0 0 0 1.009-.985c.096-.096.18-.18.264-.276 11.34-11.64 13.033-28.324 19.375-42.666a39.52 39.52 0 0 1 2.643-4.997c.228-.36.456-.72.71-1.08 9.994-15.16 28.888-23.075 43.543-32.96 20.66-13.947 42.726-41.694 29.573-67.82z" fill="#a3c0d9"/><path d="M2356.87 879.183l-6.402 25.093a175.082 175.082 0 0 1 62.99-27.063q-.162.65-.324 1.297a174.204 174.204 0 0 0-63.182 27.567l-1.13 3.76a149.622 149.622 0 0 1-18.342 38.654c-15.94 23.988-37.5 43.447-59.22 62.077a82.367 82.367 0 0 1 15.411-1.958 44.989 44.989 0 0 1 15.892 3.087c11.303 4.048 23.58 4.144 35.423 5.5a87.132 87.132 0 0 0 16.372.36l-2.787 1.38c-.036.024-.072.036-.108.06a80.201 80.201 0 0 1-11.231-.348l-17.357-1.826c-5.6-.468-11.267-.985-16.696-2.62-5.838-1.754-11.087-4.108-17.297-4.36-6.258-.252-12.456.9-18.546 2.138a.564.564 0 0 1-.541-.156l-31.82 27.904a40.631 40.631 0 0 1 24.036 1.898c3.856 1.585 7.267 3.928 10.787 6.138a55.772 55.772 0 0 0 12.648 5.934 75.539 75.539 0 0 0 26.87 3.015c-.192.408-.372.817-.553 1.225a76.375 76.375 0 0 1-26.126-2.919 53.978 53.978 0 0 1-11.243-4.877c-3.712-2.162-7.17-4.78-11.063-6.63a39.615 39.615 0 0 0-27.147-2.126 279.031 279.031 0 0 0-30.858 33.357 247.21 247.21 0 0 0-40.456 78.666c-.228.733-1.393.42-1.165-.324a248.419 248.419 0 0 1 45.825-85.536 285.364 285.364 0 0 1 25.885-27.075.689.689 0 0 1 .132-.132c21.37-19.88 44.912-37.8 65.477-58.33a.56.56 0 0 1-.216-.589c2.498-11.34 3.904-24.528.685-35.88-1.573-5.55-5.117-9.886-7.796-14.87a47.681 47.681 0 0 1-4.793-14.03c-1.982-11.1-.408-21.994 3.135-32.348l2.342-2.823c-4.925 12.7-7.04 26.27-3.17 39.795 2.907 10.2 10.727 17.814 12.408 28.468 1.633 10.246.673 21.033-1.477 31.147 12.588-12.7 24.024-26.45 33.07-42.33 15.567-27.34 18.306-58.954 29.033-88.107a235.427 235.427 0 0 1 29.525-55.675c.384.156.757.324 1.13.492a233.805 233.805 0 0 0-34.042 69.164c-1.273 4.24-2.414 8.528-3.495 12.83 5.44-5.37 12.78-7.856 20.216-9.177 9.117-1.622 18.306-2.4 27.35-4.492q6.288-1.477 12.445-3.4l-.264 1.345q-4.342 1.35-8.757 2.475c-8.96 2.258-18.006 3.4-27.135 4.72-8.757 1.26-17.693 3.543-23.9 10.294a.563.563 0 0 1-.456.181zm59.734 215.6l-4.77 2.198-15.65 8.096c-10.4 5.453-20.696 11.087-30.726 17.177-17.934 10.895-35.1 23.363-49.417 38.8-7.17 7.748-13.08 16.288-18.955 25.02 6.582-2.474 13.682-1.08 20.228 1.285 8.7 3.147 17.033 6.558 26.174 8.192-.252.36-.48.72-.7 1.08a109.873 109.873 0 0 1-20.516-6.078c-8.348-3.303-17.766-6.98-26.438-2.63-5.32 7.736-11.28 14.98-19.65 19.6-10.042 5.537-21.718 7.952-32.83 10.27l-12.84 2.546a70.853 70.853 0 0 1 25.922 15.147 38.547 38.547 0 0 0 5.549 4.829 19.345 19.345 0 0 0 7.111 2.354c5.658.925 11.46 1.333 17.165 1.754a139.744 139.744 0 0 0 17.081.3c5.742-.264 11.483-.78 17.237-.432.06 0 .132.012.192.012-.084.096-.168.18-.264.276a25.57 25.57 0 0 1-1.009.985 96.68 96.68 0 0 0-10.21.036 205.52 205.52 0 0 1-32.396-.829c-4.384-.457-9.093-.613-13.225-2.282-3.724-1.514-6.258-4.564-9.2-7.16a69.775 69.775 0 0 0-25.381-14.21.615.615 0 0 1-.396-.432c-7.16 1.393-14.318 2.823-21.393 4.624-12.805 3.267-25.74 8.06-36.72 15.53a67.185 67.185 0 0 0-17.453 16.937c-.445.637-1.478.036-1.033-.6a68.621 68.621 0 0 1 18.787-17.958c12.288-8.096 26.847-12.973 41.13-16.288 12.336-2.86 24.865-4.83 37.213-7.64l7.375-1.766c2.474-4.853 5.56-9.38 7.796-14.354 2.45-5.43 3.375-11.267 3.916-17.153.925-10.15 1.658-19.772 5.67-29.285 3.892-9.237 9.622-17.56 15.904-25.32a140.92 140.92 0 0 1 3.436-4.108c.817-.288 1.622-.6 2.438-.925-2.078 2.282-4.06 4.66-5.982 7.075-6.5 8.192-12.384 17.105-15.964 26.98-3.592 9.922-3.412 20.192-4.853 30.498a45.854 45.854 0 0 1-3.748 13.333c-2.066 4.432-4.757 8.54-7.05 12.853 8.96-2.4 17.802-5.67 24.804-11.748a70.979 70.979 0 0 0 11.772-13.922.498.498 0 0 1 .288-.456c.012-.012.036-.012.048-.024l7.904-11.736a156.757 156.757 0 0 1 20.324-23.183 221.691 221.691 0 0 1 28.624-22.546c-.84-6.054-1.67-12.18-1.177-18.306a40.185 40.185 0 0 1 4.877-15.724 147.25 147.25 0 0 0 2.294-4.565 74.35 74.35 0 0 1 1.814-.721l-1.033 2.042c-3.1 5.982-6.054 11.6-6.703 18.426-.6 6.042.204 12.12 1.02 18.102l6.15-3.988a.505.505 0 0 1-.132-.553c3.748-12.156 9.3-23.46 19.58-31.35 4.468-3.435 8.9-6.594 12.853-10.45.588-.036 1.165-.048 1.742-.048a70.006 70.006 0 0 1-9.706 8.384c-5.934 4.312-11.183 8.745-15.147 15.015a77.113 77.113 0 0 0-8.012 18.258q7.225-4.54 14.63-8.757c9.5-5.417 19.147-10.498 28.84-15.507 3.808-1.97 7.916-4.36 12.192-6.126a27.63 27.63 0 0 1 .612 1.14zm-157.242 31.588c-21.936.01-46.266.537-63.224 16.534-.564.532.287 1.38.85.85 16.7-15.763 40.778-16.17 62.374-16.182a.601.601 0 0 0 0-1.201z" class="AC"/><path d="M1033.227 537.343l-10.28-2.187.844-3.965 10.28 2.187z" class="AD"/><g fill="#ffcb87"><path d="M1049.95 553.744l1.416-6.658-21.54-4.582 1.144-5.378a6.9 6.9 0 0 1 8.184-5.313l37.023 7.876a6.9 6.9 0 0 1 5.313 8.184l-119.945 563.852-50.52-10.747L1028.4 549.162z"/><path d="M1050.45 551.395l.417-1.958a2.402 2.402 0 0 0-1.85-2.85l-19.973-4.25a2.402 2.402 0 0 1-1.85-2.85h0a12.813 12.813 0 0 1 15.198-9.866l31.722 6.748a12.813 12.813 0 0 1 9.866 15.198l-44.945 211.286a2.402 2.402 0 0 1-2.85 1.85l-52.087-11.08a2.402 2.402 0 0 1-1.85-2.85l42.53-199.928a2.402 2.402 0 0 1 2.85-1.85l19.973 4.25a2.403 2.403 0 0 0 2.85-1.849z"/></g><g class="AD"><path d="M986.906 708.17l-.885-.188a4.5 4.5 0 0 1-3.465-5.338l36.118-169.76a2.72 2.72 0 0 1 3.225-2.093l2.628.56-37.62 176.82z"/><path d="M987.615 708.32l-.704-.15 2.686-12.63.705.15c1.936.412 3.17 2.315 2.76 4.25l-1.195 5.62c-.198.93-.757 1.743-1.554 2.26s-1.768.697-2.697.5z"/></g><path d="M1030.86 764.766a1.243 1.243 0 0 1-.277-.026l-43.37-9.225a1.202 1.202 0 0 1 .5-2.351l43.37 9.225a1.201 1.201 0 0 1-.223 2.376zm47.333-207.28a1.192 1.192 0 0 1-.272-.025l-23.737-4.93a1.202 1.202 0 0 1 .488-2.353l23.737 4.93a1.201 1.201 0 0 1-.217 2.377z" fill="#eead59"/><path d="M862.596 874.847l42.77-382.378a5.66 5.66 0 0 1 6.115-5.009l84.454 7.347a5.66 5.66 0 0 1 5.138 6.23l-40.054 380.72z" fill="#a3aebc"/><g class="AC"><use xlink:href="#B"/><path d="M991.897 530.22a1.18 1.18 0 0 1-.113-.005l-8.97-.835a1.202 1.202 0 1 1 .223-2.393l8.97.835a1.201 1.201 0 0 1-.11 2.398zm-1.417 23.842a1.21 1.21 0 0 1-.113-.005l-19.534-1.82a1.202 1.202 0 1 1 .223-2.393l19.535 1.82a1.201 1.201 0 0 1-.11 2.398z"/><use xlink:href="#C"/><use xlink:href="#B" x="-9.279" y="95.108"/><path d="M982.62 625.326a1.18 1.18 0 0 1-.113-.005l-8.97-.836a1.202 1.202 0 0 1 .223-2.393l8.97.836a1.201 1.201 0 0 1-.11 2.398zm-1.418 23.842a1.18 1.18 0 0 1-.113-.005l-19.534-1.82a1.202 1.202 0 1 1 .223-2.393l19.535 1.82a1.201 1.201 0 0 1-.11 2.398zm-2.215 23.77a1.21 1.21 0 0 1-.113-.005l-8.97-.836a1.202 1.202 0 0 1 .223-2.393l8.97.836a1.201 1.201 0 0 1-.11 2.398zm-2.2 23.835a1.21 1.21 0 0 1-.113-.005l-19.534-1.82a1.202 1.202 0 0 1 .223-2.393l19.534 1.82a1.201 1.201 0 0 1-.11 2.398zm-2.215 23.768a1.07 1.07 0 0 1-.113-.005l-8.97-.836a1.202 1.202 0 1 1 .223-2.393l8.97.836a1.201 1.201 0 0 1-.11 2.398zm-1.417 23.843a1.18 1.18 0 0 1-.113-.005l-19.534-1.82a1.202 1.202 0 0 1 .223-2.393l19.534 1.82a1.201 1.201 0 0 1-.11 2.398zm-2.215 23.767a1.07 1.07 0 0 1-.113-.005l-8.97-.835a1.202 1.202 0 1 1 .223-2.393l8.97.835a1.201 1.201 0 0 1-.11 2.398zm-3.432 23.73a1.21 1.21 0 0 1-.113-.005l-19.536-1.82a1.202 1.202 0 0 1 .223-2.393l19.536 1.82a1.201 1.201 0 0 1-.11 2.398z"/><use xlink:href="#C" x="-22.962" y="237.817"/><path d="M963.887 839.5a1.07 1.07 0 0 1-.113-.005l-19.535-1.82a1.202 1.202 0 0 1 .223-2.393l19.534 1.82a1.201 1.201 0 0 1-.11 2.398zm-90.1-278.035l37.195 387.716-37.064 3.56-37.195-387.715a9.738 9.738 0 0 1 8.753-10.627l17.695-1.7a9.729 9.729 0 0 1 10.616 8.756z"/></g><path d="M874.76 571.524l.86 8.986.962 10.074-37.064 3.51-2-20.82c13.252-.852 28.908-1.518 37.242-1.75z" class="AG"/><path d="M873.788 561.465l1.83 19.045-37.048 3.73-1.846-19.214a9.738 9.738 0 0 1 8.753-10.627l17.695-1.69a9.729 9.729 0 0 1 10.615 8.756z" class="AE"/><path d="M879.602 897.824a1.201 1.201 0 0 1-1.194-1.087L850.143 600.47a1.2 1.2 0 0 1 1.082-1.309 1.182 1.182 0 0 1 1.309 1.082l28.264 296.266a1.2 1.2 0 0 1-1.082 1.309.953.953 0 0 1-.115.006zm14.133-1.654a1.201 1.201 0 0 1-1.194-1.087l-28.264-296.267a1.201 1.201 0 1 1 2.391-.228l28.264 296.267a1.2 1.2 0 0 1-1.082 1.309.974.974 0 0 1-.115.006z" class="AF"/><path d="M697.876 1082.652l-27.99 154.068 123.386 4.588 2.403-158.656h-97.8z" class="AC"/><path d="M693.24 1071.04h151.683a0 0 0 0 1 0 0v18.593a0 0 0 0 1 0 0h-151.68a7.74 7.74 0 0 1-7.74-7.74v-3.113a7.74 7.74 0 0 1 7.74-7.739zm-30.666 157.77h167.168a0 0 0 0 1 0 0v18.906a0 0 0 0 1 0 0H662.574a7.87 7.87 0 0 1-7.87-7.87v-3.167a7.87 7.87 0 0 1 7.87-7.87z" class="AN"/><path d="M783.964 1106.375H699.88a1.201 1.201 0 1 1 0-2.402h84.083a1.201 1.201 0 1 1 0 2.402zm-1.5 15.54H698.38a1.201 1.201 0 0 1 0-2.402h84.083a1.201 1.201 0 0 1 0 2.402zm-1.503 15.54h-84.083a1.201 1.201 0 0 1 0-2.402h84.083a1.201 1.201 0 1 1 0 2.402zm-1.5 15.54h-84.083a1.201 1.201 0 1 1 0-2.402h84.083a1.201 1.201 0 1 1 0 2.402zm-2.703 15.54h-84.083a1.201 1.201 0 0 1 0-2.402h84.083a1.201 1.201 0 0 1 0 2.402zm-2.702 15.54h-84.083a1.201 1.201 0 1 1 0-2.402h84.083a1.201 1.201 0 1 1 0 2.402zm-1.502 15.54H688.47a1.201 1.201 0 0 1 0-2.402h84.083a1.201 1.201 0 0 1 0 2.402zm-3.903 15.542h-84.083a1.201 1.201 0 0 1 0-2.402h84.083a1.201 1.201 0 0 1 0 2.402z" class="AF"/><path d="M2044.25 616.986h236.28a7.207 7.207 0 0 1 7.128 8.27l-93.946 673.835a7.207 7.207 0 0 1-7.128 6.144h-444.6z" class="AH"/><path d="M2056.74 1301.644a1.129 1.129 0 0 1-.176-.013 1.201 1.201 0 0 1-1.014-1.363l98.82-673.064a1.186 1.186 0 0 1 1.363-1.014 1.201 1.201 0 0 1 1.014 1.363l-98.82 673.064a1.201 1.201 0 0 1-1.187 1.026z" class="AP"/><path d="M2262.67 667.042l-4.132 27.567-38.846 278.315a6.284 6.284 0 0 1-6.222 5.357h-75.194a6.29 6.29 0 0 1-6.222-7.219l38.066-276.453 4.36-29.417a6.284 6.284 0 0 1 6.222-5.369h75.747a6.295 6.295 0 0 1 6.222 7.219z" class="AC"/><use xlink:href="#D" class="AG"/><g class="AF"><path d="M2205.067 712.962h-24.675a2.402 2.402 0 0 1 0-4.805h24.675a2.402 2.402 0 0 1 0 4.805zm42.243 0h-30.88a2.402 2.402 0 1 1 0-4.805h30.88a2.402 2.402 0 0 1 0 4.805zm-4.965 42.043h-67.567a1.201 1.201 0 0 1 0-2.402h67.567a1.201 1.201 0 0 1 0 2.402zm-2.258 15.615h-67.567a1.201 1.201 0 0 1 0-2.402h67.567a1.201 1.201 0 0 1 0 2.402z"/><use xlink:href="#E"/><use xlink:href="#E" x="-2.26" y="15.614"/><use xlink:href="#E" x="-4.06" y="30.329"/><path d="M2205.067 830.58h-41.5a1.201 1.201 0 1 1 0-2.402h41.5a1.201 1.201 0 0 1 0 2.402z"/><use xlink:href="#E" x="-22.68" y="154.234"/><path d="M2213.476 956.904h-67.693a1.201 1.201 0 1 1 0-2.402h67.693a1.201 1.201 0 1 1 0 2.402z"/></g><ellipse cx="2158.96" cy="1133.081" rx="52.452" ry="32.832" transform="matrix(.16519 -.986262 .986262 .16519 684.8057 3075.2056)" class="AC"/><path d="M2182.576 1137.036c-3.79 22.627-17.44 39.19-30.48 37-.167-.03-.335-.06-.49-.1-.394-.085-.787-.182-1.18-.303-12-3.54-18.7-22.878-15.077-44.513 3.253-19.448 13.787-34.428 24.97-36.84a14.61 14.61 0 0 1 1.221-.225 14.18 14.18 0 0 1 4.277.055c13.04 2.18 20.547 22.29 16.76 44.916z" class="AK"/><use xlink:href="#F" class="AD"/><path d="M1878.345 588.157h247.09a7.207 7.207 0 0 1 7.128 8.27l-104.757 702.664a7.207 7.207 0 0 1-7.128 6.144h-444.6z" fill="#ffcb87"/><path d="M1890.835 1301.644a1.27 1.27 0 0 1-.187-.014 1.202 1.202 0 0 1-1.002-1.372l109.632-701.893a1.202 1.202 0 0 1 2.374.371l-109.632 701.893a1.202 1.202 0 0 1-1.186 1.016z" fill="#eead59"/><ellipse cx="1993.659" cy="1127.659" rx="52.452" ry="32.832" transform="matrix(.165192 -.986261 .986261 .165192 552.1545 2907.6459)" class="AC"/><path d="M2017.274 1131.614c-3.79 22.627-17.44 39.19-30.48 37-.167-.03-.335-.06-.49-.1-.394-.085-.787-.182-1.18-.303-12-3.54-18.7-22.878-15.077-44.513 3.253-19.448 13.787-34.428 24.97-36.84a14.57 14.57 0 0 1 1.221-.225 14.176 14.176 0 0 1 4.277.055c13.04 2.18 20.547 22.29 16.76 44.916z" class="AK"/><use xlink:href="#F" x="-165.301" y="-5.422" class="AD"/><path d="M2106.374 638.213l-4.132 27.567-43.65 291.528a6.284 6.284 0 0 1-6.222 5.357h-75.194a6.29 6.29 0 0 1-6.222-7.219l47.23-319.083a6.284 6.284 0 0 1 6.222-5.369h75.747a6.295 6.295 0 0 1 6.223 7.219z" class="AC"/><use xlink:href="#D" x="-156.296" y="-28.829" class="AG"/><g class="AF"><path d="M2088.962 684.134h-64.864a2.402 2.402 0 1 1 0-4.805h64.864a2.402 2.402 0 1 1 0 4.805zm-5.314 42.042h-67.567a1.201 1.201 0 0 1 0-2.402h67.567a1.201 1.201 0 1 1 0 2.402z"/><use xlink:href="#E" x="-156.43" y="-44.444"/><path d="M2079.13 757.407h-67.567a1.201 1.201 0 1 1 0-2.402h67.567a1.201 1.201 0 1 1 0 2.402zm-2.258 15.615h-67.567a1.201 1.201 0 1 1 0-2.402h67.567a1.201 1.201 0 1 1 0 2.402z"/><use xlink:href="#E" x="-183.78" y="138.619"/><path d="M2036.5 941.288h-51.82a1.201 1.201 0 0 1 0-2.402h51.82a1.201 1.201 0 0 1 0 2.402z"/></g><path d="M1064.994 809.755l-23.916 71.543-.9 2.667-22.366 66.498-14.042 41.477-15.483 45.537c-33.777 99.014-66.87 193.75-71.242 197.967-9.273 8.96-167.013 57.14-167.013 57.14l71.493-478.968a4.529 4.529 0 0 1 4.479-3.86z" class="AI"/><path d="M1038 851.928l-32.852-12.384c-12.384-4.565-23.4-5.826-36.504-3.47-21.802 3.904-42.066 11.675-62.22 20.6-9.213 4.084-18.654 7.964-28.72 9.285-9.153 1.2-18.03-.504-27.027-2.006a122.82 122.82 0 0 0-36.552-.697l.384-2.56a118.549 118.549 0 0 1 30.246-.06c12.3 1.562 24.048 4.77 36.492 2.318 11.195-2.198 21.525-7.303 31.867-11.904 18.98-8.444 39.147-15.195 59.76-18.102 23-3.23 44.816 8.77 65.765 16.66 1.44.54.816 2.86-.637 2.32zm59.387 12.482c-17.1-3.902-34.287-7.508-51.872-4.977-18.064 2.6-34.905 9.992-52.4 14.813a189.741 189.741 0 0 1-111.387-3.641c-1.466-.5-2.096 1.82-.64 2.317a192.097 192.097 0 0 0 104.175 5.773c17.78-4.03 34.582-11.44 52.378-15.378 20.145-4.457 39.313-1.1 59.107 3.4 1.505.344 2.148-1.972.64-2.317zm-86.635-17.768c-13.42-5.87-28.32-3.44-42.462-2.318-6.983.554-14 1.072-20.52 3.85-6.308 2.688-11.772 6.848-18.47 8.654a1.202 1.202 0 0 0 .639 2.317c4.975-1.342 9.26-3.814 13.76-6.255 7.14-3.873 14.255-5.313 22.302-5.98 14.184-1.178 30.05-4.1 43.537 1.808 1.403.614 2.628-1.455 1.213-2.074zm-1.217 11.968a167.303 167.303 0 0 1-96.598 6.209c-1.504-.35-2.146 1.965-.64 2.317a169.615 169.615 0 0 0 97.875-6.209c1.436-.535.814-2.858-.64-2.317zm-18.645-4.658a193.056 193.056 0 0 0-20.104 2.542c-1.52.273-.875 2.6.64 2.317a186.892 186.892 0 0 1 19.465-2.456c1.533-.112 1.545-2.516 0-2.402zm-7.77-44.197a151.387 151.387 0 0 0-22.594 6.571c-7.784 3-15.063 7.135-22.883 10.018-7.856 2.907-16.132 4.168-24.432 4.973-18.162 1.766-36.552 3.04-54.7.553-13.153-1.802-26.054-3.3-39.1-4l.372-2.5a328.42 328.42 0 0 1 33.621 3.351c19.267 2.92 38.186 2.114 57.537.4 9.573-.84 19.015-2.258 27.976-5.826 7.796-3.1 15.147-7.183 23.04-10.054A138.89 138.89 0 0 1 973 809.767zm-62.93 0a177.348 177.348 0 0 1-73.645 0h14.174a175.067 175.067 0 0 0 45.117 0zm131.96 73.368a60.138 60.138 0 0 0-11.964.841c-7.904 1.297-15.6 3.88-23.207 6.438q-14.937 5.027-29.525 10.967c-17.9 7.303-35.34 15.784-53.873 21.477a241.632 241.632 0 0 1-105.596 8.036 209.394 209.394 0 0 1-23.195-5.129l.276-1.85a233.708 233.708 0 0 0 28.6 5.345 239.209 239.209 0 0 0 110.569-12.504c18.33-6.667 35.867-15.303 54.1-22.222 13.537-5.13 28.06-11.3 42.75-13.225a65.699 65.699 0 0 1 11.063-.577c1.538.06 1.538 2.463 0 2.403zm-125.03 28.83c-23.1 9.393-48.083 11.604-72.78 9.778a307.951 307.951 0 0 1-36.3-5.105L806.5 914.2l.348-2.342c4.625 1.105 9.3 1.958 13.9 2.847a289.961 289.961 0 0 0 35.687 4.757c22.5 1.465 45.153-.553 66.354-8.42a547.026 547.026 0 0 0-113.476-15.76l.36-2.4a548.735 548.735 0 0 1 117.416 16.745 1.205 1.205 0 0 1 0 2.306zm-129.164 59.65l.348-2.4a141.2 141.2 0 0 1 11.495-.156c18.774.468 37.26 4.096 55.963 5.477 20.78 1.55 40.288-.54 59.122-9.874 16.42-8.12 32.156-15.35 50.534-17.886a128.609 128.609 0 0 1 43.171 1.393q5.64 1.153 11.195 2.787a1.204 1.204 0 0 1-.649 2.318 132.82 132.82 0 0 0-11.315-2.81 125.886 125.886 0 0 0-53.441.793c-18.2 4.276-33.26 14.63-50.618 20.9-16.732 6.054-34.834 6.018-52.336 4.42-20.528-1.862-42.462-6.102-63.47-4.973zm263.276.984a170.22 170.22 0 0 1-57.453 19.351l-4.625.613a165.954 165.954 0 0 1-30.894.769c-10.667-.733-21.07-3.1-31.675-4.24-23.195-2.5-45.945 3.676-68.143 9.645-9.898 2.667-19.928 5.8-30.246 6.1-10.33.3-20.913-1.742-31.063-3.47-4.432-.745-8.853-1.634-13.2-2.775l.348-2.366c8.588 2.282 17.453 3.532 26.234 4.77 11.784 1.658 22.546 1.718 34.174-1.117 10.246-2.486 20.348-5.513 30.594-8.012 18.92-4.625 37.885-7.255 57.297-4.372 20.95 3.1 40.972 5.153 62.065 1.934.108-.012.216-.036.324-.048a167.97 167.97 0 0 0 55.05-18.835c1.358-.745 2.57 1.32 1.214 2.066zM1028.3 968.1c-28.4 5.382-57.552 10.623-86.217 4.78a147.394 147.394 0 0 1 76.784-7.993c1.512.247 2.163-2.068.64-2.317a149.709 149.709 0 0 0-81.828 9.485c-.997.415-1.275 2.012 0 2.317 30.298 7.237 61.2 1.743 91.26-3.955 1.517-.287.875-2.603-.64-2.316zm11.805-52.495l-10.68.372c-19.64.72-39.3 1.766-58.702 4.95-37.597 6.174-72.443 22.45-111.074 22.763a194.298 194.298 0 0 1-54.173-7.255 74.1 74.1 0 0 1-2.186-.649l.372-2.486a93.81 93.81 0 0 0 5.718 1.706 191.921 191.921 0 0 0 58.414 6.042c20.276-1.033 39.64-6.15 59.014-11.82 17.802-5.213 35.53-9.802 53.957-12.156 16.408-2.102 32.948-2.92 49.477-3.52l9.862-.348c1.55-.06 1.537 2.343 0 2.403zM915.6 959.05c-21.2 12.336-46.138 10.763-69.477 6.955-14.534-2.366-28.973-5.417-43.7-6.15l-2.7-.108.36-2.4c.384 0 .78.024 1.165.036 12.312.54 24.432 2.655 36.552 4.77 25.453 4.444 53.105 8.48 76.588-5.177a1.199 1.199 0 0 1 1.213 2.065zm-55.3 26.098c-20.53 4.365-41.457-.132-61.833-3.308-1.513-.236-2.164 2.08-.64 2.317 20.816 3.244 42.14 7.767 63.1 3.308 1.5-.32.872-2.638-.64-2.317zm121.622 66.682c-24.24-5.934-43.987 12.204-62.522 24.708-17.74 11.964-37.765 17.67-58.822 20.516-26.798 3.64-56.732 3.4-83.098 11.543l.396-2.63q1.08-.342 2.162-.65c35.9-10.318 74.33-5.573 109.98-17.033 18.402-5.922 32.396-17.597 48.324-27.94 13.117-8.516 28.456-14.7 44.216-10.835a1.203 1.203 0 0 1-.637 2.318zm-7.772 20.67q-29.495 12.324-59 24.636c-9.165 3.832-18.294 7.904-27.807 10.823-9.453 2.895-19.23 4.408-28.997 5.838l-59.47 8.7a170.946 170.946 0 0 0-24.252 5.201l.384-2.62a152.119 152.119 0 0 1 17.549-3.976c20.12-3.47 40.432-6.018 60.624-8.973 9.8-1.43 19.65-2.727 29.237-5.273 10.306-2.74 20.096-7.027 29.9-11.135l61.176-25.55c1.43-.588 2.042 1.73.636 2.318zM939 1029.968c-9.634 2.402-19.34 4.805-28.588 8.516-8.997 3.603-17.237 8.72-25.826 13.2a246.199 246.199 0 0 1-50.077 19.327 290.045 290.045 0 0 1-52.732 8.901l.36-2.45a286.749 286.749 0 0 0 53.753-9.309 247.809 247.809 0 0 0 53.02-21.513c7.47-4.084 14.87-8.216 22.847-11.23 8.65-3.28 17.645-5.513 26.606-7.748a1.203 1.203 0 0 1 .637 2.318zm53.286 10.547l-4-3.04a70.14 70.14 0 0 0-27.579-11.868c-11.88-2.258-23.904-.793-35.795.637-12.516 1.514-24.997 3.22-37.057 7.04-11.16 3.543-21.898 8.12-33.237 11.1-22.474 5.886-45.73 7.65-68.624 11.123a10.34 10.34 0 0 0-.59.096l.372-2.474 45.573-6.342a234.435 234.435 0 0 0 28.985-6.51c9.814-2.955 19.243-7.05 29.057-9.982a181.155 181.155 0 0 1 28.636-5.586c10.102-1.32 20.36-2.86 30.57-2.703a72.942 72.942 0 0 1 40.48 13.117q2.522 1.748 4.9 3.688c1.2.984-.504 2.666-1.693 1.705zm-157.242 15.325a182.552 182.552 0 0 1-30.952 4.712c-1.535.1-1.546 2.503 0 2.402a186.202 186.202 0 0 0 31.59-4.797c1.503-.362.866-2.68-.638-2.317zm21.952-33.487c-19.867 5.97-39.843 11.94-60.456 14.678-2.8.372-5.645.625-8.48.793l.348-2.33a118.23 118.23 0 0 0 4.564-.42c19.688-2.258 38.8-7.688 57.753-13.345-19.82-2.234-39.687-4.24-59.615-4.36l.36-2.402c21.802.156 43.53 2.56 65.2 5.033a1.205 1.205 0 0 1 .325 2.353zm81.597 123.445a68.461 68.461 0 0 0-44.528-13.441c-17.67.973-31.543 10.186-46.522 18.546-24.192 13.477-51.4 16.264-78.425 13.778l.348-2.318c14.078 1.333 28.3 1.285 42.246-1.2 17.658-3.135 32.18-11.1 47.567-19.856 13.14-7.46 26.92-12.156 42.186-11.363a70.485 70.485 0 0 1 38.342 13.778c1.225.913.024 3.003-1.213 2.078zm-11.438 24.486c-22.153 7.5-45.092 14.776-68.624 9.698-19.202-4.144-37.4-13.644-57.513-11.5-1.522.16-1.538 2.565 0 2.402 21.985-2.33 41.6 9.412 62.866 12.523 21.92 3.208 43.408-3.865 63.9-10.796 1.457-.492.832-2.814-.64-2.316zM917.6 1145.1c-7.442.35-14.6-2.282-22.057-1.812-7.162.45-14.05 2.858-20.777 5.188-10.347 3.583-20.58 7.7-27.357 16.722a1.206 1.206 0 0 0 .718 1.764 199.402 199.402 0 0 0 65.093.456c1.523-.24.876-2.555-.64-2.316a195.691 195.691 0 0 1-61.915-.149c7.273-8.513 18.444-12.112 28.803-15.543 6.247-2.07 12.77-4.016 19.423-3.768 6.325.236 12.342 2.16 18.708 1.86 1.54-.072 1.548-2.475 0-2.402zm-20.476 9.762l-22.136 2.107c-1.526.145-1.54 2.55 0 2.402l22.136-2.107c1.526-.145 1.54-2.55 0-2.402zm-16.5 38.6c-13.32 5.08-27.928 4.7-41.273 9.646-13.585 5.033-25.753 13.55-39.062 19.303-11.856 5.117-24.865 10.63-37.873 11.603a33.769 33.769 0 0 1-3.652.084l.348-2.4q1.1.018 2.198-.036c14.943-.77 30.546-7.844 43.903-14.102 11.88-5.562 22.943-13.32 35.46-17.453 12.83-4.24 26.618-4.132 39.303-8.973 1.453-.54 2.078 1.778.65 2.318zm-24.216 57.848a914.469 914.469 0 0 0-99.494-4.853l.36-2.402a913.971 913.971 0 0 1 99.134 4.853c1.526.168 1.538 2.57 0 2.402zm-18.438-61.632c-21.045-8.504-43.783-8.084-65.98-5.874l-5.802.6.36-2.45 5.44-.54c22.402-2.234 45.393-2.62 66.618 5.958 1.418.576.793 2.906-.636 2.318z" class="AL"/><path d="M2104.447 222.127s61.983-.25 104.424 79.43c37.3 70.027 11.047 152.965 4.14 172.03a6.135 6.135 0 0 1-5.774 4.043h-328.89l71.67-187.785 128.527-65.665z" class="AK"/><path d="M2104.452 222.122s-153.836 14.546-204.286 273.174c-50.45 258.64-65.97 526.78-157.86 676.316-91.89 149.548-203.59 212.598-327.912 212.598-124.31 0-953.093-37.825-953.093-37.825l-23.423-36.336s268.453 93.98 461.244-161.848C1091.9 892.36 1041.722 693.01 1121 472.387c79.266-220.622 181.175-250.265 181.175-250.265z" class="AG"/><path d="M1414.4 1384.216s-64.577-4.094-113.425-17.707c-33.464-9.326-83.032-41.91-97.386-54.08-10.92-9.26-9.505-7.927-21.76-7.693l-891.2-23.85a3.408 3.408 0 0 0-2.188 6.093c17.61 13.782 63.068 46.31 116.45 60.712 102.475 27.65 1009.5 36.526 1009.5 36.526z" class="AK"/><path d="M1783.623 616.568a5.966 5.966 0 0 0 5.834-4.687l23.14-102.618c13.226-54.994 33.273-107.7 41.7-127.03a6.889 6.889 0 0 0-6.249-9.636l-593.236-.3c-5.294-.035-11.152 1.2-14.3 5.465-2.385 3.223-5.43 9.282-7.6 14.2C1223.25 414 1209.932 444 1196 484.4c-10.417 30.213-25.992 93.638-31.82 125.07a6.001 6.001 0 0 0 5.907 7.088zm-74.66 362.758c24.938-84.024 37.733-162.87 49.75-236.958q1.05-6.466 2.093-12.9H1150.82a8.239 8.239 0 0 0-8.125 6.897c-12.807 77.393-27.16 153.076-56.87 231.785a8.239 8.239 0 0 0 7.694 11.165zm-191.044 298.544c19.076-.13 38.656 2.122 51.494-2.074 10.088-3.296 12.1-8.286 16.52-13.102 6.963-7.586 17.76-21.03 35.07-43.027 32.277-41.022 50.884-70.098 74.706-119.014a5.97 5.97 0 0 0-5.511-8.415h-657.743a11.122 11.122 0 0 0-9.513 5.368c-8.145 13.45-18.672 29.785-27.306 42.623-48.7 72.42-89.296 108.292-121.558 128.843a4.424 4.424 0 0 0 2.394 8.148zm493.9-1055.748c-19.17 4.06-31.22 9.393-46.798 19.075a204.369 204.369 0 0 0-41.776 33.482 26.45 26.45 0 0 1-18.969 7.959h-583.748a6.013 6.013 0 0 1-4.908-9.473c14.804-21.26 28.495-39 46.778-51.043z" class="AC"/><path d="M1128.872 1167.54c4.763-12.556 1.18-26-11.486-33.622-7.33-4.41-14.123-4.377-22.222-2.098-8.4 2.364-15.254 10.815-16.936 16.283-.274.9 1.423 2.008 1.967 1.264l1.498-2c3.447 2.6 4.772 1.704 8.606 3.67 5.08 2.604 8.03 6.2 11.86 10.25a151.092 151.092 0 0 0 11.926 10.917l.96.796c-2.08 2.376-4.028 4.88-5.948 7.373q-1.946 2.528-3.816 5.113l-.532.13a.678.678 0 0 0-.349 1.12l-2.584 3.67c-1.85 2.71-3.942 5.346-3.542 8.78a.737.737 0 0 0 1.088.624c4.946-2.128 8.635-6.15 12.384-9.89 5.046-5.032 11.145-10.48 14.597-16.853a45.47 45.47 0 0 0 2.529-5.518z" class="AD"/><g class="AI"><path d="M1112.497 1134.37c-19.92-6.385-31.635 9.576-36.98 22.685-4.23 10.378-6.79 18.074-6.643 28.11.226 15.297 12.624 17.728 26.037 13.034 7.303-2.557 15.768-12.043 15.768-12.043s11.182-13.103 13.803-20.51c3.828-10.813 4.793-25.9-11.986-31.278z"/><path d="M1076.738 1172.88l-13.995 28.792c-2.52 5.07-21.256 10.647-21.256 10.647l31.86 18.246 31.4-7.9s-7.023-13.426-5.35-17.055 10.268-23.994 10.268-23.994z"/></g><path d="M1109.657 1255.873c7.987-9.12 17.447-21.3 14.122-24.503-5.492-5.292-15.935-14.803-15.935-14.803l-8.446-10.967-26.114 10.044c-.93-.015-9.6-16.135-9.6-16.135l-11.7 7.868-32.894 4.584-35.055 43.912z" class="AC"/><path d="M1125.002 1142.057a16.191 16.191 0 0 0-1.4-2.252c-2.38-3.198-5.926-5.344-9.597-6.898-5.442-2.304-11.386-.896-17.226.01-5.627.872-8.38 3.663-12.55 7.54a29.187 29.187 0 0 0-9.364 18.203c2.448-5.84 3.487-8.133 8.528-11.964 1.754-1.333 2.66-3.353 4.832-3.9 3.574-.898 5.99-1.33 9.186.202 6.805 3.266 17.03 3.987 20.66 11.697 1.6 3.397 1.133 7.4.17 11.03s-2.395 7.18-2.647 10.926a3.91 3.91 0 0 0 .217 1.883 1.562 1.562 0 0 0 1.497.981 2.224 2.224 0 0 0 1.112-.6 25.124 25.124 0 0 0 7.519-11.637 39.969 39.969 0 0 0 1.622-13.872 27.327 27.327 0 0 0-2.559-11.349z" class="AD"/><path d="M1062.99 1255.873c.94-4.91 2.407-12.745 2.527-14.56.177-2.7 1.682-5.703 2.405-8.286s3.03-8.286 3.03-8.286-2.475-5.11-2.7-4.79-2.53 2.7-2.53 2.7-8.178 8.662-13.02 13.3c-3.968 3.792-12.258 15.39-12.258 15.39l.555 4.553z" class="AH"/><path d="M1111.755 1172.992a28.486 28.486 0 0 1 2.495-3.166c1.253-1.4 2.962-3.244 4.932-3.496 2.4-.306 3.754 2.685 4.015 4.614a12.366 12.366 0 0 1-1.159 6.69 10.147 10.147 0 0 1-5.198 5.432 40.676 40.676 0 0 1-8.372 1.986z" class="AI"/><path d="M1084 1202.863a17.813 17.813 0 0 1-3.431-.308c-9.665-1.912-11.235-7.162-11.297-7.385a1.291 1.291 0 0 1 2.482-.711c.064.198 1.388 3.994 9.317 5.56 7.51 1.483 19.51-3.805 19.63-3.858a1.291 1.291 0 0 1 1.052 2.358c-.454.203-9.845 4.342-17.75 4.342z" class="AL"/><path d="M1121.45 1155.932a10.189 10.189 0 0 0-5.635-5.578.56.56 0 0 0-.739.228c-.723-1.332-1.326-2.83-2.76-3.36-.874-.322-1.252 1.075-.384 1.394s2.228 3.17 2.708 3.96a11.397 11.397 0 0 1 1.169 8.283 30.999 30.999 0 0 1-5.638 11.956.727.727 0 0 0 .624 1.088c2.956-.183 4.015-2.978 5.8-4.993a12.934 12.934 0 0 1 2.408-2.197c.965-.655 2.286-.86 3.184-1.512a2.442 2.442 0 0 0 .871-.831c.93-1.76-.9-6.848-1.607-8.438z" class="AD"/><path d="M1075.93 1180.285a20.739 20.739 0 0 0 7.693 3.084c4.637.867 9.53 1.25 9.53 1.25s-5.8 4.71-10.727 3.694-6.495-8.03-6.495-8.03z" class="AL"/><path d="M1121.2 1255.873c3.33-6.33 9.473-11.422 14.4-16.383a19.836 19.836 0 0 0-2.727-4.978c-5.307-6.584-13.156-10.46-19.73-15.57-1.627-1.266-17.894 9.398-29.662 18.616-6.347 4.972-17.393 12.465-26.227 18.316zm-77.774 0c-.28-5.94-.72-13.732-1.305-19.58-1.084-10.845 1.526-27.882 1.526-27.882s-43.746 6.38-54.826 16.723c-8.426 7.867-20.195 19.544-34.988 30.74z" fill="#a3aebc"/><path d="M1046.032 1208.87a1.292 1.292 0 0 1-.316-2.544 67.595 67.595 0 0 0 8.796-2.651l7.013-4.343 1.36 2.197-7.013 4.342c-1.415.878-8.18 2.62-9.52 2.96a1.322 1.322 0 0 1-.319.039zm63.635 10.653a1.292 1.292 0 0 1-.871-.338 32.38 32.38 0 0 1-3.314-3.57c-1.343-1.744-5.856-8.193-6.048-8.467a1.291 1.291 0 0 1 2.116-1.48l5.977 8.37a30.14 30.14 0 0 0 3.011 3.24 1.291 1.291 0 0 1-.871 2.245z" class="AF"/><path d="M1072.728 1216.024a51.175 51.175 0 0 0-6.124 1.379c-.753.43-2.397 4.675-2.054 5.4s6.387 3.12 7.05 3.013 3.074-4.437 3.323-5.083-2.194-4.7-2.194-4.7z" class="AH"/><path d="M997.25 1245.217c-.597 3.187-1.475 7.133-2.295 10.656h2.65c.787-3.402 1.6-7.13 2.18-10.18 1.478-7.882-.912-22.57-1.015-23.192a1.278 1.278 0 0 0-1.485-1.063 1.291 1.291 0 0 0-1.063 1.485c.024.148 2.42 14.862 1.025 22.295z" fill="#8495ab"/><path d="M1059.566 1224.004a1.292 1.292 0 0 1-1.153-.706l-6.994-13.775a1.292 1.292 0 1 1 2.303-1.17l6.994 13.775a1.291 1.291 0 0 1-1.15 1.876zm13.666 4.626a1.291 1.291 0 0 1-.371-2.528l30.346-9.107a1.292 1.292 0 1 1 .742 2.474l-30.346 9.107a1.305 1.305 0 0 1-.371.054z" class="AF"/><path d="M1800.204 460.37l-61.154.357a1.802 1.802 0 0 1-1.73-2.34h0c.095-.304 8.462-28.23 14.97-43.166 2.082-4.783 4.205-9.056 6.077-12.826l2.302-4.55a4.589 4.589 0 0 1 3.987-2.507l63.52-1.495a1.802 1.802 0 0 1 1.6 2.714c-3.512 5.975-13.4 28.754-14.045 30.054-2.962 6.055-10.047 25.128-12.423 31.584a3.322 3.322 0 0 1-3.103 2.173zm-56.222-3.275l53.696-.314a3.33 3.33 0 0 0 3.106-2.177c2.638-7.148 8.806-23.642 11.708-29.575.635-1.296 7.195-16.465 11.005-24.87a1.835 1.835 0 0 0-1.586-2.745l-55.964 1.764a3.325 3.325 0 0 0-2.886 1.855q-.714 1.454-1.467 2.964c-1.944 3.916-3.954 7.963-6.002 12.663-4.884 11.214-10.566 29.314-13.34 38.095a1.799 1.799 0 0 0 1.73 2.34zM1632.2 1167.207l-70.856-1.357a1.819 1.819 0 0 1-1.343-3.009v-.001a161.485 161.485 0 0 0 19.284-27.628l3.15-5.765c3.568-6.508 7.662-15.74 9.668-20.38a4.713 4.713 0 0 1 4.417-2.844l70.768 1.3a1.801 1.801 0 0 1 1.611 2.536h0c-12.925 27.27-29.395 49.46-33.556 55.54a3.722 3.722 0 0 1-3.145 1.62zm-64.034-4.836l59.63 1.152a8.608 8.608 0 0 0 7.243-3.751c10.2-14.845 20.56-29.804 27.923-45.423a2.355 2.355 0 0 0-2.094-3.349l-61.782-1.125a4.74 4.74 0 0 0-4.478 2.975c-2.87 7.128-4.738 10.536-9 18.33l-3.143 5.754a163.885 163.885 0 0 1-15.4 23.09 1.448 1.448 0 0 0 1.112 2.347z" fill="#7b92bf"/><path d="M1324.2 479.057c1.455-6.376 3.243-13.184 2.896-19.777-.166-3.15-1.342-6.054-1.75-9.154-.4-2.962-.5-5.575-2.043-8.225-3.246-5.613-9.822-8.828-15.762-10.8-12.937-4.274-31.587-2.743-41.276 7.882a22.303 22.303 0 0 0-4.53 7.357c-1.228 3.377-.963 7.116-2.326 10.454-1.05 2.57-2.6 4.887-3.782 7.392a79.964 79.964 0 0 0-4.762 11.719 31.861 31.861 0 0 0-.91 11.697c.44 4.675 1.64 9.365 1.147 14.083-.558 5.326-4.158 9.635-6.223 14.436-1.774 4.124-2.734 8.46-1.7 12.9a.443.443 0 0 0 .425.323c12.338-.97 24.593.81 36.806 2.36 6.122.777 12.262 1.492 18.432 1.745 5.4.22 12.204-1.114 16.895 2.155a.442.442 0 0 0 .602-.158q.525-1.126 1.05-2.252a.421.421 0 0 0 .4-.192c3.93-5.89 7.627-12.435 4.667-19.543-.965-2.318-1.973-4.45-2.12-7a15.094 15.094 0 0 1 1.498-7.24 10.974 10.974 0 0 0 1.225-4.004c.13-2.272-.264-4.58-.247-6.86.008-1.13.058-2.258.13-3.383.48-2.02.84-4.055 1.267-5.927z" class="AI"/><g class="AE"><path d="M1299.54 432.885c-18.228-1.437-26.353 15.224-29.213 29.1a66.542 66.542 0 0 0 .368 28.994c3.452 14.855 17.206 16.142 27.562 8.343 12.546-9.45 16.935-24.577 18.1-38.832.936-11.46-1.462-26.394-16.817-27.605z"/><path d="M1274.782 493.768s-1.197 18.67-2.472 24.37-36.583 13.03-36.583 13.03l40.17 35.807 46.714-26.23s-18.466-19.418-19.556-22.754 2.427-26.228 2.427-26.228z"/></g><path d="M1284.843 505.874a6.319 6.319 0 0 1-1.608-.188 18.403 18.403 0 0 1-8.612-5.112 1.202 1.202 0 0 1 1.815-1.575 16.251 16.251 0 0 0 7.41 4.365c3.728 1 13.172-4.15 16.494-6.21a1.201 1.201 0 0 1 1.267 2.041c-1.193.74-10.947 6.68-16.765 6.68z" class="AJ"/><path d="M1332.83 582.604s2.857-11.533 4.18-19.888a32.283 32.283 0 0 0-.888-13.568c-3.065-9.186-11.875-13.514-20.032-17.863-.185-.1-5.728-4.17-5.867-4.053 0 0-7.92 11.347-11.343 13.64l-12.87 8.475q-3.17 2.066-6.345 4.13c-1.947 1.268-6.068 4.536-6.068 4.536l-6.557-7.708c-1.152-1.27-1.95-2.806-3.037-4.126a16.785 16.785 0 0 1-3.007-4.554c-.826-2.088-1.705-4.157-2.607-6.213q-2.753-6.28-5.91-12.37a.443.443 0 0 0-.497-.202q-1.887.645-3.793 1.264a9.622 9.622 0 0 1-1.209-2.184c-.2-.524-1.053-.296-.85.234.316.82.565 3.063 1.044 3.74-5.356 1.745-10.59 3.84-15.764 6.064-8.284 3.564-15.377 9.876-18.434 18.57-2.776 7.894-8.662 26.32-9.63 31.54z" fill="#a3c0d9"/><path d="M1273.598 558l16.667-13.513c2.806-2.096 12.635-11.225 15.775-13.513s3.444-4.705 4.945-4.204 2.302 7.708 4.905 9.9 5.405 9.41 4.204 9.8-5.105-1.545-13.313.83-25.325 10.454-29.33 12.12-6.807 6.77-6.807 6.77.14-5.644-1.326-7.683-10.485-11.208-10.485-11.208l-9.9-17.145s9.985 4.404 10.786 6.206 13.89 21.62 13.89 21.62z" class="AC"/><path d="M1278.72 487.947l16.175.826s-5.63 4.28-10.226 3.153-5.95-3.98-5.95-3.98z" class="AJ"/><path d="M1320.38 457.068c-.467-2.708-2.106-5.008-2.707-7.67-.643-2.848.366-5.832-.504-8.647a16.861 16.861 0 0 0-3.755-5.743c-3.104-3.517-8.792-5.157-13.42-4.786a.437.437 0 0 0-.29-.52c-5.985-2.013-12.938.678-18.58 2.654-2.525.884-4.996 1.94-6.754 4.042a14.85 14.85 0 0 0-3.049 7.147 30.737 30.737 0 0 0-.362 4.124c-.024.817.078 1.9.1 3.004a27.304 27.304 0 0 1-2.747 5.391 6.366 6.366 0 0 0-1.074.911 9.167 9.167 0 0 0-1.276 1.936 48.896 48.896 0 0 0-3.27 3.698 24.68 24.68 0 0 0-4.795 13.427 51.143 51.143 0 0 0 .239 8.179c.276 2.895.82 5.9.22 8.792-.5 2.415-1.864 4.55-2.67 6.87-1.005 2.886-1.707 5.893-2.515 8.84a.441.441 0 0 0 .849.234c.774-2.82 1.462-5.687 2.4-8.463.82-2.448 2.263-4.704 2.796-7.245 1.058-5.034-.597-10.474-.496-15.575a24.677 24.677 0 0 1 4.969-14.855.458.458 0 0 0 .18-.093c.256-.214.522-.415.787-.617-2.095 5.807-3.16 12.233-4.055 18.25-.083.555.766.794.85.234a115.493 115.493 0 0 1 4.177-18.442 34.37 34.37 0 0 1 .339-.992c2.315-1.593 4.787-2.992 6.733-5.036 2.446-2.57 3.864-6.014 6.935-7.978a15.103 15.103 0 0 1 2.624-1.296l1.837-.038c2.657-.138 5.324.008 7.975-.135 3.907-.21 7.13-2.818 10.098-5.208a13.581 13.581 0 0 0 .684 6.189c1.145 2.892 3.516 3.847 5.815 5.672a7.752 7.752 0 0 1 2.939 6.027 8.793 8.793 0 0 0 .712 3.85 12.448 12.448 0 0 1 1.446 2.677 19.691 19.691 0 0 1 .326 3.532q.228 3.152.456 6.305a.441.441 0 0 0 .072.21c-.076.46.576.807.786.33.166-.38 1.956-.73 2.382-1.044a5.148 5.148 0 0 0 1.513-2.132c1-2.294.922-4.955 1.03-7.404.125-2.822.534-5.797.05-8.6z" class="AI"/><path d="M1308.6 475.05s4.38-6.523 6.92-4.94c3.98 2.484 1.614 10.996-2.973 12.758a31.568 31.568 0 0 1-6.496 1.541z" class="AE"/><path d="M1303.066 441.567a1.201 1.201 0 0 1-1.017-1.838l4.48-7.157a1.201 1.201 0 0 1 2.036 1.274l-4.48 7.157a1.199 1.199 0 0 1-1.019.564z" class="AL"/><g class="AG"><path d="M1275.972 547.923a5.996 5.996 0 0 1-1.46-.17c-9.896-2.49-8.764-23.72-8.71-24.622a.6.6 0 1 1 1.199.07c-.012.21-1.132 21.137 7.805 23.385 9.058 2.297 32.76-22.916 32.997-23.17a.601.601 0 0 1 .877.821c-.946 1.01-22.26 23.686-32.708 23.686z"/><path d="M1275.91 549.78c-.186 1.417-1.058 2.47-1.947 2.354s-1.46-1.36-1.273-2.777 1.058-2.47 1.947-2.354 1.46 1.36 1.273 2.777z"/></g><path d="M1269.69 508.014c-.2-7.34-1.36-8.134-1.57-15.474a.441.441 0 0 0-.881 0q.284 9.932.568 19.863c.02.707.058 1.43.094 2.16a3.579 3.579 0 0 0-3.908-1.216 23.017 23.017 0 0 0-7.573 3.581c-2.355 1.582-10.875.067-6.83-2.944.45-.335.01-1.1-.445-.76-3.83 2.848-5.573 7.25-6.126 11.88-.232 1.942-.14 3.91-.393 5.85a22.59 22.59 0 0 1-1.872 5.556 33.294 33.294 0 0 1-5.258 8.258c-1.95 2.42-4.018 4.603-4.703 7.74-.298 1.365-.62 3.8.914 4.6 1.465.775 2.67-.67 3.418-1.73.726-1.027 1.438-1.978 2.2-2.87a21.593 21.593 0 0 0-.054 2.538 6.371 6.371 0 0 0 .694 2.952c.81 1.403 2.4 1.99 3.267 3.362 1.75 2.768-1.194 6.442 1.08 8.772 1.447 1.482 4.01 1.14 5.7.382a8.042 8.042 0 0 0 3.026-2.464 27.931 27.931 0 0 1 3.613-3.788c2.468-2.135 4.124-5.32 5.495-8.24a20.885 20.885 0 0 0 2.063-12.159c.053-2.176-.698-4.313-1.14-6.425-.782-3.743.13-6.303 2.835-8.957 1.655-1.623 7.76-7.142 7.995-9.505.565-5.682-2.12-8.146-2.2-10.962z" class="AI"/><g class="AF"><path d="M1336.663 583.805h-136.96l.264-1.42c9.8-52.652 38.4-135.506 39.395-138.313a342.504 342.504 0 0 1 14.623-34.976l.328-.68 133.785.678-.82 1.72c-2.543 5.336-18.997 53.674-29.958 91.3-6.317 21.68-14.726 54.9-20.448 80.76zm-134.068-2.402h132.14l20.28-79.972c11.017-37.812 29.275-89.935 29.275-89.935l-128.466-.678s-10.508 23.028-14.197 34.057c-29.6 88.5-39.03 136.528-39.03 136.528zm288.945-166.98h-77.925a2.403 2.403 0 0 1 0-4.805h77.925a2.403 2.403 0 0 1 0 4.805zm120.455 0h-96.848a2.403 2.403 0 0 1 0-4.805h96.848a2.403 2.403 0 1 1 0 4.805zM1510.377 442.5h-106.552a1.201 1.201 0 1 1 0-2.402h106.552a1.201 1.201 0 0 1 0 2.402zm170.51 0h-150.82a1.201 1.201 0 1 1 0-2.402h150.82a1.201 1.201 0 0 1 0 2.402zm-221.22 19.916H1396.8a1.201 1.201 0 1 1 0-2.402h62.868a1.201 1.201 0 1 1 0 2.402zm257.816 0h-75.77a1.201 1.201 0 1 1 0-2.402h75.77a1.201 1.201 0 0 1 0 2.402zm-3.704 19.904h-127.826a1.201 1.201 0 1 1 0-2.402h127.826a1.201 1.201 0 1 1 0 2.402zm-86.886-19.904H1479.12a1.201 1.201 0 1 1 0-2.402h147.775a1.201 1.201 0 1 1 0 2.402zm-61.29 19.904H1390.23a1.201 1.201 0 1 1 0-2.402h175.374a1.201 1.201 0 0 1 0 2.402zm-62.438 21.305H1385.05a1.201 1.201 0 1 1 0-2.402h118.117a1.201 1.201 0 0 1 0 2.402zm207.4 0H1520.5a1.201 1.201 0 0 1 0-2.402h190.088a1.201 1.201 0 0 1 0 2.402zm-197.32 19.905h-133.152a1.201 1.201 0 0 1 0-2.402h133.152a1.201 1.201 0 0 1 0 2.402zm-94.566 60.94h-41.144a2.298 2.298 0 0 1-2.243-2.794l5.26-21.655a2.277 2.277 0 0 1 2.237-1.776h41.144a2.299 2.299 0 0 1 2.243 2.794l-5.26 21.655a2.277 2.277 0 0 1-2.237 1.776zm-.102-2.324l-.001.004zm-40.908-.078h40.927l5.205-21.42h-40.927zm5.225-21.503l-.001.005z"/><path d="M1401.38 570.82a2.301 2.301 0 0 1-1.073-.266l-18.95-10.043a1.202 1.202 0 0 1 1.126-2.123l18.947 10.042 23.404-10.085a1.201 1.201 0 1 1 .948 2.208l-23.496 10.08a2.312 2.312 0 0 1-.907.187zm64.614 1.814c-14.894 0-26.348-.02-26.994-.078a1.203 1.203 0 0 1-1.087-1.306 1.187 1.187 0 0 1 1.3-1.087c1.865.125 64.577.052 97.5-.005h.002a1.201 1.201 0 0 1 .002 2.402l-70.714.074zm235.304-1.814h-97.002a1.201 1.201 0 0 1 0-2.402h97.002a1.201 1.201 0 1 1 0 2.402zm-121.18 18.538H1561.1a2.785 2.785 0 0 1-2.751-3.22l4.78-30.282a2.772 2.772 0 0 1 2.751-2.351h19.018a2.787 2.787 0 0 1 2.753 3.219l-4.783 30.283a2.773 2.773 0 0 1-2.752 2.351zm-14.237-33.45a.382.382 0 0 0-.379.324l-4.78 30.282a.383.383 0 0 0 .379.442h19.018a.384.384 0 0 0 .38-.324l4.78-30.282a.385.385 0 0 0-.38-.442zm7.12 29.53h-4.863a1.201 1.201 0 1 1 0-2.402H1573a1.201 1.201 0 1 1 0 2.402zm-127.027 184.505h-105.6a2.402 2.402 0 0 1 0-4.805h105.6a2.402 2.402 0 0 1 0 4.805zm93.205 0h-69.095a2.402 2.402 0 1 1 0-4.805h69.095a2.402 2.402 0 0 1 0 4.805zm-34.452 28.088H1334.5a1.201 1.201 0 1 1 0-2.402h170.227a1.201 1.201 0 0 1 0 2.402zm106.524 0h-87.146a1.201 1.201 0 1 1 0-2.402h87.146a1.201 1.201 0 1 1 0 2.402zm-217.38 19.907h-62.866a1.201 1.201 0 0 1 0-2.402h62.866a1.201 1.201 0 0 1 0 2.402zm257.978 0h-75.768a1.201 1.201 0 0 1 0-2.402h75.77a1.201 1.201 0 0 1 0 2.402zm-3.703 19.905h-78.848a1.201 1.201 0 0 1 0-2.402h78.848a1.201 1.201 0 0 1 0 2.402z"/><path d="M1577.366 817.937H1412.15a1.201 1.201 0 0 1 0-2.402h165.215a1.201 1.201 0 0 1 0 2.402zm-23.456 19.905h-71.557a1.201 1.201 0 0 1 0-2.402h71.557a1.201 1.201 0 0 1 0 2.402zm-91.028 0h-135.62a1.201 1.201 0 0 1 0-2.402h135.62a1.201 1.201 0 0 1 0 2.402zm44.48 21.303h-184.74a1.201 1.201 0 0 1 0-2.402h184.74a1.201 1.201 0 0 1 0 2.402zm137.58 0h-123.464a1.201 1.201 0 0 1 0-2.402h123.464a1.201 1.201 0 0 1 0 2.402zm-92.405 19.907h-234.93a1.201 1.201 0 1 1 0-2.402h234.93a1.201 1.201 0 1 1 0 2.402zm-200.685 60.94h-41.143a2.296 2.296 0 0 1-2.242-2.795l6.477-21.713a2.281 2.281 0 0 1 2.221-1.716h41.143a2.296 2.296 0 0 1 2.242 2.795l-6.477 21.714a2.254 2.254 0 0 1-2.221 1.715zm-.1-2.334l-.005.015zm-34.5-21.488l-6.402 21.46 40.932-.04 6.402-21.46zm.025-.084l-.005.015z"/><path d="M1335.746 926.34a2.29 2.29 0 0 1-1.077-.27l-18.946-10.04a1.201 1.201 0 1 1 1.124-2.123l18.948 10.04 23.404-10.083a1.201 1.201 0 0 1 .948 2.208l-23.495 10.08a2.288 2.288 0 0 1-.907.187zm64.612 1.815c-14.894 0-26.348-.02-26.994-.08a1.203 1.203 0 0 1-1.087-1.306 1.189 1.189 0 0 1 1.3-1.087c1.865.124 64.577.052 97.5-.005h.002a1.201 1.201 0 0 1 .002 2.402l-70.714.074zm235.305-1.815h-97.003a1.201 1.201 0 1 1 0-2.402h97.003a1.201 1.201 0 0 1 0 2.402zm-122.383 18.54h-19.02a2.785 2.785 0 0 1-2.752-3.219l6-30.328a2.762 2.762 0 0 1 2.744-2.306h19.02a2.787 2.787 0 0 1 2.752 3.22l-6 30.327a2.761 2.761 0 0 1-2.743 2.306zm-13.037-33.45a.387.387 0 0 0-.379.324l-6 30.326a.36.36 0 0 0 .095.264.379.379 0 0 0 .291.134h19.02a.382.382 0 0 0 .379-.324l6-30.325a.368.368 0 0 0-.095-.265.381.381 0 0 0-.291-.134zm5.92 29.53h-4.862a1.201 1.201 0 1 1 0-2.402h4.862a1.201 1.201 0 1 1 0 2.402zm-176.592 189.1h-92.378a2.403 2.403 0 1 1 0-4.805h92.378a2.403 2.403 0 1 1 0 4.805zm124.436 0H1353.68a2.403 2.403 0 0 1 0-4.805h100.326a2.403 2.403 0 1 1 0 4.805zm-129.54 28.1H1221.75a1.201 1.201 0 0 1 0-2.402h102.717a1.201 1.201 0 0 1 0 2.402zm170.353 0h-154.656a1.201 1.201 0 0 1 0-2.402h154.656a1.201 1.201 0 0 1 0 2.402zm-68.586 18.704H1214.52a1.201 1.201 0 0 1 0-2.402h211.715a1.201 1.201 0 0 1 0 2.402zm105.336 0h-75.77a1.201 1.201 0 0 1 0-2.402h75.77a1.201 1.201 0 0 1 0 2.402z"/><path d="M1458.422 1176.854h-16.367a1.201 1.201 0 0 1 0-2.402h16.367a1.201 1.201 0 0 1 0 2.402zm-191.43 19.282h-64.405a1.201 1.201 0 0 1 0-2.402h64.405a1.201 1.201 0 1 1 0 2.402zm119.158 0h-102.168a1.201 1.201 0 1 1 0-2.402h102.168a1.201 1.201 0 0 1 0 2.402zm139.922 0h-123.464a1.201 1.201 0 1 1 0-2.402h123.464a1.201 1.201 0 1 1 0 2.402zm-198.35 18.144h-135.8a1.201 1.201 0 0 1 0-2.402h135.8a1.201 1.201 0 0 1 0 2.402zm-111.2 44.657h-41.144a2.299 2.299 0 0 1-2.243-2.794l.055-.25 12.5-16.864a2.281 2.281 0 0 1 2.16-1.513h41.144a2.298 2.298 0 0 1 2.243 2.794l-.055.25-12.5 16.864a2.281 2.281 0 0 1-2.16 1.513zm-40.817-2.402h40.732l.038-.167 12.182-16.45h-40.732l-.037.168z"/><path d="M1202.827 1247.687a2.303 2.303 0 0 1-1.073-.266l-15.317-7.627a1.201 1.201 0 1 1 1.07-2.151l15.343 7.64 27.183-7.72a1.201 1.201 0 1 1 .655 2.311l-27.038 7.66a2.282 2.282 0 0 1-.821.153zm61.01 4.253c-14.894 0-26.348-.02-26.994-.08a1.201 1.201 0 0 1 .212-2.393c1.865.126 64.577.052 97.5-.005h.002a1.201 1.201 0 0 1 .002 2.402l-70.714.074zm235.764-.072h-97.003a1.201 1.201 0 0 1 0-2.402h97.003a1.201 1.201 0 0 1 0 2.402zm-119 11.282h-19.02a2.787 2.787 0 0 1-2.752-3.22l.1-.3 10.732-24.15a2.772 2.772 0 0 1 2.718-2.175h19.02a2.785 2.785 0 0 1 2.752 3.219l-.1.3-10.732 24.152a2.772 2.772 0 0 1-2.718 2.174zm-19.4-2.74a.394.394 0 0 0 .09.204.381.381 0 0 0 .291.134h19.02a.387.387 0 0 0 .379-.324l.088-.3 10.7-24.08a.383.383 0 0 0-.38-.337h-19.02a.382.382 0 0 0-.379.324l-.088.3zm12.27-1.18h-4.862a1.201 1.201 0 1 1 0-2.402h4.862a1.201 1.201 0 1 1 0 2.402z"/></g><path d="M1266.1 802.484a6.654 6.654 0 0 0 .576-5.316c-1.62-4.856-6.733-7.546-11.088-9.526-4.758-2.164-8.352-6.176-13.2-8.276a18.133 18.133 0 0 0-9.259-1.408 43.793 43.793 0 0 0-16.412 5.456c-1.87 1.097-4.288 2.677-5.24 4.708-.852 1.82-.738 4.273-.743 6.36-2.627.137-5.682.462-7.687 1.707-1.803 1.12-1.813 3.674-2.064 5.575a107.902 107.902 0 0 0-.524 12.554c-.03 2.14 1.164 12.4 1.164 12.4l6.905-12.266a53.034 53.034 0 0 0 6.196-18.928c3.435 1.865 5.496 5.425 7.863 8.486a105.441 105.441 0 0 0 8.17 9.118c5.942 6.07 11.364 12.975 18.11 18.18q-1.738 4.052-3.215 8.22c-2.243 6.29-4.49 25.293-4.49 25.293l1.984-4.23c3.634-7.746 7.504-15.427 10.81-23.32 2.534-6.053 4.702-12.282 6.89-18.486a6.924 6.924 0 0 1 .818-.981c.6-.597 1.273-1.097 1.863-1.697a8.424 8.424 0 0 0 2.096-3.265c1.14-3.338.242-6.892.476-10.35z" class="AO"/><g class="AE"><path d="M1236.317 784.65c-21.366-1.684-32.214 17.628-34.243 34.1-1.606 13.048-2.224 22.562.43 33.986 4.046 17.413 20.168 18.92 32.308 9.78 6.6-4.978 12.64-18.2 12.64-18.2s7.824-18.12 8.575-27.318c1.097-13.43-1.714-30.938-19.712-32.357z"/><path d="M1207.555 853.837s-1.404 19.483-2.898 26.164-42.882 25.372-42.882 25.372l47.085 31.875 54.757-30.748s-21.645-22.76-22.924-26.672 2.845-28.342 2.845-28.342zm39.37-19.76a25.89 25.89 0 0 1 2.27-2.88c1.14-1.264 2.694-2.95 4.486-3.18 2.182-.278 3.414 2.442 3.652 4.197a11.248 11.248 0 0 1-1.055 6.085 9.23 9.23 0 0 1-4.728 4.941 37.003 37.003 0 0 1-7.615 1.807z"/></g><path d="M1155.514 944.466h97.385l24.126-39.32s-6.15-8.185-15.066-11.957a52.551 52.551 0 0 1-14.577-9.206l-5.947-9.697a25.42 25.42 0 0 1-6.92 6.963c-2.815 1.803-3.677 4.36-5.1 7.182a52.493 52.493 0 0 1-4.377 6.536c-3.247 4.555-7.777 9.214-9.38 14.63-1.044 3.53-.626 7.6-3.055 10.494-.407.486-1.065.034-1.123-.465-.546-4.745-.065-6.736-.075-11.508-.008-3.84-3.522-11.228-2.757-14.95 1.673-8.137.32-13.034-3.4-19.697l-7.882 8.264c-10.845 3.14-39.405 16.838-39.405 16.838s-2.055 24.636-1.82 33.554a118.305 118.305 0 0 1-.609 12.34zm55.883-101.316s6.8 2.176 10.233 2.115 10.882-.655 10.882-.655-3.394 5.167-11.053 4.826a11.819 11.819 0 0 1-10.062-6.286z" class="AC"/><g class="AO"><path d="M1256.407 797.11a24.791 24.791 0 0 0-19.998-14.405c-15.144-1.818-28.162 11.575-32.796 24.854q-.44 1.26-.788 2.547a12.024 12.024 0 0 0-.536 3.828c.02.348-1.338 9.266-1.03 9.43.07.037 1.45-5.245 1.548-5.653 1.35-5.685 1.984-8.73 6.034-13.102 2.83-3.053 6.033-3.17 9.335-1.662a31.53 31.53 0 0 1 4.597 2.959 11.735 11.735 0 0 0 7.243 1.973c5.313-.07 10.78-2.09 16.053-.73 5.54 1.43 5.418 7.387 5.363 8.145-.11 1.533-1.537 8.36-1.537 8.36s1.275.617 1.25 3.787c-.004.48.038 2.47.038 2.47a4.356 4.356 0 0 1 3.851-1.625c.303.028 1.1-1.405 1.197-1.782 2.515-8.872 4.196-20.706.174-29.395z"/><path d="M1253.06 817.08l.244-2.397c.06-.905-1.842 2.63-1.842 2.63l-3.875 15.426-1.568 6.312c-.543 2.13-1.284 4.183-1.958 6.27q-.5 1.578-1.037 3.15a16.773 16.773 0 0 1-2.321 4.827 23.8 23.8 0 0 1-3.625 3.979 21.882 21.882 0 0 1-9.387 4.864 20.473 20.473 0 0 1-5.533.509c-3.932-.175-8.117-.008-11.677-1.938-3.7-2-7.976-7.966-7.976-7.966l.587 4.467c4.186 15.518 23.056 15.547 32.912 9.2 3.74-2.405 6.9-7.65 8.273-12.346 1.53-4.13 2.804-8.34 3.982-12.594 1.64-5.92 2.636-13.177 5.826-18.474a.693.693 0 0 0-.657-1.035q.495-2.262 1-4.524c.193-.883-1.163-1.26-1.357-.375zm-31.6 22.7a2.873 2.873 0 0 0-2.516-.837l-3.658.302a11.51 11.51 0 0 0-4.447 1.268c-1.307.743-2.142 2.322-.25 2.892a17.522 17.522 0 0 0 9.952-.664 2.074 2.074 0 0 0 1.187-2.468 1.718 1.718 0 0 0-.266-.494z"/><path d="M1221.414 840.18a2.074 2.074 0 0 0 .85 2.603 17.523 17.523 0 0 0 9.776 1.976c1.95-.315 1.332-2 .135-2.9a11.508 11.508 0 0 0-4.241-1.846 20.225 20.225 0 0 0-4.438-.875 2.212 2.212 0 0 0-2.082 1.041z"/></g><path d="M1211.714 801.8a1.316 1.316 0 0 1-1.299-1.115l-.704-4.576a1.315 1.315 0 0 1 2.6-.401l.704 4.576a1.315 1.315 0 0 1-1.1 1.5 1.354 1.354 0 0 1-.201.016zm5.043-2.3a1.315 1.315 0 0 1-1.233-1.772c.114-.308 2.878-7.58 10.052-10.22 6.977-2.573 14.74-.828 15.065-.753a1.316 1.316 0 0 1-.59 2.564c-.074-.018-7.343-1.636-13.566.658-6.05 2.228-8.47 8.603-8.495 8.667a1.315 1.315 0 0 1-1.233.858z" fill="#613022"/><path d="M1197.35 881.734l-48.03 16.148-5.058 13.508a2.511 2.511 0 0 1-.108.907l-7.156 24.107-2.897 8.062h58.13l-3.37-33.343c.001-4.224 8.5-29.4 8.5-29.4zm72.998 62.732c1.476-6.457 3.1-12.778 5.13-19.176 2.18-6.835 5.288-14.32 5.673-21.576-10.914-7.06-33.767-19.732-33.767-19.732s-2.906 17.637-5.898 25.733c-1.794 4.854-11.777 21.884-19.488 34.75z" class="AM"/><g fill="#c7744c"><path d="M1147.404 903.1q-1 2.685-2.02 5.36l2.2 19.583c-.062.784-1.547 8.566-3.074 16.412h2.68l3.02-16.36c-.001-1-2.333-20.864-2.82-25zm122.944 41.356c1.476-6.457 3.1-12.778 5.13-19.176l.214-.66c-1.872 3.16-3.138 5.585-3.138 6.366-.048.94-1.717 7.115-3.508 13.47zm-84.655-28.86a1.301 1.301 0 0 1-.211-.017c-3.36-.542-11.334-1.9-12.808-2.823-1.17-.73-2.497-1.56 11.885-25.896a1.316 1.316 0 1 1 2.266 1.338c-5.45 9.222-11.13 19.6-12.097 22.57 1.87.56 6.86 1.518 11.173 2.213a1.315 1.315 0 0 1-.208 2.614z"/><path d="M1181.25 944.466c-3.22-9.5-6.566-19.7-6.67-20.914.172-.966 3.197-5.135 5.913-8.423a1.315 1.315 0 1 0-2.027-1.675c-2.384 2.885-6.4 8.008-6.5 9.914-.075 1.295 3.412 11.937 6.5 21.098zm70.848-24.296a94.323 94.323 0 0 1-13.281-1.412 1.316 1.316 0 0 1 .403-2.6c5.502.855 11.993 1.552 14.127 1.38-.105-4.8.015-24.885.03-27.368a1.315 1.315 0 0 1 1.315-1.308h.008a1.315 1.315 0 0 1 1.308 1.323L1256 918.2a1.544 1.544 0 0 1-.482 1.288c-.248.236-.715.68-3.422.68z"/><path d="M1249.315 929.94c-.895 1.388-6.89 7.976-12.98 14.527h3.608c11.638-12.553 11.86-13.513 11.94-13.87.337-1.495-1.884-7.47-3.807-12.22a1.315 1.315 0 1 0-2.438.986c1.733 4.284 3.587 9.48 3.676 10.576z"/></g><g fill="#414457"><path d="M1210.933 832.652c-2.89 0-5.876-.606-7.07-1.473-.253-.184-1.022-.744-1.418-9.262l-.026-.532.515-.135a32.072 32.072 0 0 1 9.406-.628c5.538.38 8.182 1.89 8.292 1.954l.474.276-.188.515c-.253.7-2.535 6.89-4.49 8.142a10.901 10.901 0 0 1-5.497 1.143zm-7.147-10.244c.18 3.427.57 7.232.926 7.78 1.45 1.035 8.422 1.87 11.01.213 1.106-.71 2.8-4.41 3.756-6.927a22.156 22.156 0 0 0-7.226-1.54 32.913 32.913 0 0 0-8.464.473z"/><path d="M1210.933 833.072c-3.047 0-6.056-.638-7.317-1.553-.385-.282-1.185-.866-1.6-9.582l-.026-.53a.421.421 0 0 1 .313-.427l.515-.135a32.422 32.422 0 0 1 9.54-.642c5.647.4 8.364 1.945 8.476 2.012l.473.274a.422.422 0 0 1 .184.508l-.188.515c-.42 1.166-2.626 7.052-4.658 8.352-1.64 1.052-4.3 1.2-5.723 1.2zm-8.076-11.367l.01.2c.348 7.505.986 8.754 1.245 8.942 1.093.794 4.027 1.394 6.822 1.394a10.332 10.332 0 0 0 5.269-1.078c1.496-.956 3.42-5.435 4.322-7.93l.068-.185-.17-.098c-.107-.062-2.658-1.524-8.1-1.898a31.295 31.295 0 0 0-9.269.616zm8.114 10.065c-2.73 0-5.553-.562-6.502-1.24a.419.419 0 0 1-.109-.114c-.617-.95-.977-7.702-.992-7.988a.42.42 0 0 1 .337-.434 33.416 33.416 0 0 1 8.575-.48 22.518 22.518 0 0 1 7.367 1.573.421.421 0 0 1 .225.535c-.238.625-2.367 6.135-3.923 7.132a9.903 9.903 0 0 1-4.977 1.015zm-5.936-1.87c1.566.978 8.1 1.658 10.46.148.857-.55 2.347-3.54 3.443-6.34a22.979 22.979 0 0 0-6.716-1.351 32.917 32.917 0 0 0-7.995.395 40.46 40.46 0 0 0 .808 7.148zm31.15 4.548c-3.02 0-6.647-.676-8.328-2.126-1.757-1.517-3.14-7.966-3.3-8.697l-.126-.602.593-.164a29.819 29.819 0 0 1 9.362-.647 26.075 26.075 0 0 1 9.392 2.402l.502.262-.185.536c-1.23 3.558-2.878 7.897-3.76 8.364a10.012 10.012 0 0 1-4.159.673zM1226 823.986c.593 2.627 1.736 6.488 2.724 7.34 2.327 2.006 9.345 2.17 11.015 1.286.4-.393 1.812-3.876 2.936-7.07a26.239 26.239 0 0 0-8.368-2.016 30.613 30.613 0 0 0-8.308.462z"/><path d="M1236.185 834.867c-2.778 0-6.698-.583-8.603-2.228-1.83-1.58-3.177-7.715-3.428-8.93l-.127-.6a.42.42 0 0 1 .299-.491l.594-.164a30.016 30.016 0 0 1 9.505-.662 26.676 26.676 0 0 1 9.555 2.447l.503.263a.422.422 0 0 1 .203.51l-.185.535c-2.75 7.956-3.63 8.423-3.96 8.6a10.332 10.332 0 0 1-4.355.721zm-11.253-11.544l.046.215c.537 2.598 1.806 7.303 3.153 8.466 1.62 1.397 5.212 2.024 8.054 2.024a9.723 9.723 0 0 0 3.963-.624c.152-.08 1.045-.856 3.56-8.13l.067-.194-.18-.094a25.778 25.778 0 0 0-9.228-2.356 29.47 29.47 0 0 0-9.218.634zm11.224 10.216c-2.767 0-6.164-.557-7.716-1.896-1.388-1.197-2.713-6.916-2.86-7.565a.422.422 0 0 1 .325-.504 31.226 31.226 0 0 1 8.425-.469 26.694 26.694 0 0 1 8.506 2.051.42.42 0 0 1 .228.524c-.637 1.812-2.427 6.645-3.042 7.235a.445.445 0 0 1-.094.068 9.552 9.552 0 0 1-3.771.556zm-9.658-9.225c.685 2.903 1.728 6.035 2.5 6.693 2.147 1.85 8.812 2.05 10.48 1.265a47.11 47.11 0 0 0 2.67-6.5 26.16 26.16 0 0 0-7.871-1.83 31.021 31.021 0 0 0-7.769.372z"/><path d="M1222.96 824.533a3.41 3.41 0 0 1-.31-.013 10.904 10.904 0 0 1-2.607-.772l.52-1.2a9.697 9.697 0 0 0 2.207.672 9.354 9.354 0 0 0 2.307-.337l.344 1.27a11.21 11.21 0 0 1-2.459.391z"/><path d="M1222.96 824.954a4.19 4.19 0 0 1-.345-.014 10.984 10.984 0 0 1-2.737-.803.418.418 0 0 1-.222-.553l.52-1.2a.416.416 0 0 1 .23-.225.426.426 0 0 1 .323.005 9.397 9.397 0 0 0 2.079.639 8.481 8.481 0 0 0 2.158-.324.425.425 0 0 1 .515.296l.345 1.27a.421.421 0 0 1-.296.516 11.448 11.448 0 0 1-2.571.405zm-2.36-1.433a8.957 8.957 0 0 0 2.089.582 8.376 8.376 0 0 0 2.214-.263l-.124-.46a8.63 8.63 0 0 1-2.038.251 8.772 8.772 0 0 1-1.953-.547zm-17.05-2.327a24.189 24.189 0 0 0-3.086.5 6.43 6.43 0 0 0 .306 2.181c.223.1 2.423.894 2.423.894z"/><path d="M1203.194 825.2a.419.419 0 0 1-.142-.025l-2.455-.905c-.613-.28-.548-2.625-.544-2.648.066-.338.084-.44 3.45-.835a.411.411 0 0 1 .344.117.425.425 0 0 1 .124.343l-.358 3.575a.421.421 0 0 1-.419.378zm-2.133-1.65l1.768.65.252-2.516-2.2.323a10.163 10.163 0 0 0 .179 1.542zm42.207.83a24.206 24.206 0 0 1 2.893 1.185c-.005.144-.552 2.008-.792 2.056s-2.562.322-2.562.322z"/><path d="M1242.808 828.363a.419.419 0 0 1-.417-.474l.46-3.564a.419.419 0 0 1 .558-.341c3.187 1.145 3.184 1.25 3.172 1.595 0 .022-.468 2.32-1.128 2.453-.244.05-2.205.283-2.596.328a.352.352 0 0 1-.049.002zm.8-3.4l-.324 2.508 1.87-.235a9.904 9.904 0 0 0 .522-1.462c-.386-.177-1.22-.5-2.067-.812zm-39.618.905s-.13-2.744.538-3.37 5.026-.794 5.026-.794l-6.826.17z"/><path d="M1204 826.278a.421.421 0 0 1-.401-.293l-1.262-3.995a.42.42 0 0 1 .391-.547l6.827-.17a.42.42 0 0 1 .027.84c-2.03.08-4.425.372-4.755.682-.324.304-.463 1.816-.406 3.043a.422.422 0 0 1-.346.434.391.391 0 0 1-.074.006zm-.693-4.008l.393 1.24a2.682 2.682 0 0 1 .488-1.263zm16.816.874l-3.893-.68a2.812 2.812 0 0 1 2.08 1.411c.612 1.24-.392 3.44-.392 3.44z"/><path d="M1217.918 827.736a.419.419 0 0 1-.382-.595c.256-.562.826-2.2.398-3.08a2.273 2.273 0 0 0-1.677-1.158 1.263 1.263 0 0 1-.181-.048.421.421 0 0 1-.249-.505.409.409 0 0 1 .477-.299l3.892.68a.42.42 0 0 1 .299.61l-2.205 4.173a.418.418 0 0 1-.372.224zm.522-4.46a2.868 2.868 0 0 1 .247.413 2.413 2.413 0 0 1 .226.842l.568-1.073zm23.015 5.562s1.1-2.554.565-3.295-4.947-1.857-4.947-1.857 6.533.503 6.972 1.778-2.6 3.374-2.6 3.374z"/><path d="M1241.454 829.258a.42.42 0 0 1-.386-.587c.475-1.105.843-2.56.6-2.882-.266-.37-2.65-1.175-4.708-1.696a.42.42 0 0 1-.312-.475.407.407 0 0 1 .448-.351c2.047.157 6.86.673 7.337 2.06.516 1.5-2.2 3.476-2.75 3.857a.424.424 0 0 1-.239.074zm.192-4.483a2.113 2.113 0 0 1 .714.523 3.001 3.001 0 0 1-.013 2.289c.792-.72 1.455-1.535 1.3-1.985-.1-.26-.857-.56-2-.827zm-16.4-1.24l3.946-.2a2.813 2.813 0 0 0-2.234 1.152c-.756 1.16-.022 3.463-.022 3.463z"/><path d="M1226.937 828.363a.42.42 0 0 1-.393-.27l-1.7-4.407a.42.42 0 0 1 .371-.57l3.946-.21a.438.438 0 0 1 .438.354.419.419 0 0 1-.307.472 1.293 1.293 0 0 1-.187.027 2.28 2.28 0 0 0-1.804.949c-.528.81-.16 2.517.028 3.106a.422.422 0 0 1-.263.524.409.409 0 0 1-.139.024zm-1.09-4.438l.435 1.133a2.424 2.424 0 0 1 .325-.809 2.921 2.921 0 0 1 .296-.38z"/><path d="M1219.88 825.244a7.648 7.648 0 0 1 2.764-.487 5.474 5.474 0 0 1 2.716.877l-.11-1.95-3.1.2-2.018-.437z"/><path d="M1225.36 826.054a.416.416 0 0 1-.241-.075 5.11 5.11 0 0 0-2.486-.802 7.596 7.596 0 0 0-2.595.456.421.421 0 0 1-.576-.446l.243-1.805a.416.416 0 0 1 .175-.287.407.407 0 0 1 .331-.067l1.963.425 3.05-.187a.421.421 0 0 1 .446.396l.1 1.948a.423.423 0 0 1-.215.391.428.428 0 0 1-.205.053zm-2.846-1.72l.137.002a5.646 5.646 0 0 1 2.246.558l-.043-.764-2.687.164a.58.58 0 0 1-.115-.009l-1.574-.34-.093.7a8.124 8.124 0 0 1 2.13-.3zm29.796 4.566l-9.466-2.75-.437 2.033 8.73 1.87a3.631 3.631 0 0 1 1.173-1.154z"/></g><g class="AF"><path d="M1210.16 922.32a1.314 1.314 0 0 1-1.155-.683c-.182-.333-4.475-8.198-5.6-12.47a42.849 42.849 0 0 1-.808-8.277c-.1-2.854-.222-5.806-.737-7.3-1.085-3.13-5.612-11.137-5.657-11.217l-.482-.85 7.284-7.636a1.315 1.315 0 0 1 1.903 1.816l-5.94 6.226a99.746 99.746 0 0 1 5.375 10.799c.642 1.855.758 4.865.88 8.052a41.7 41.7 0 0 0 .723 7.708c1.042 3.96 5.32 11.796 5.362 11.874a1.315 1.315 0 0 1-1.152 1.947zm3.944.54a1.315 1.315 0 0 1-.848-2.322c.095-.08 9.562-8.062 12.94-12.7a16.522 16.522 0 0 0 2.557-5.193 16.121 16.121 0 0 1 3.551-6.41c3.975-4.513 12.64-11.878 13.005-12.2a1.316 1.316 0 0 1 1.703 2.006c-.1.074-8.884 7.552-12.732 11.923a13.531 13.531 0 0 0-3.031 5.502 19.188 19.188 0 0 1-2.926 5.911c-3.567 4.896-12.975 12.83-13.374 13.165a1.313 1.313 0 0 1-.845.307z"/><path d="M1246.163 886.362a1.315 1.315 0 0 1-1.178-.728l-4.66-9.344a1.315 1.315 0 0 1 2.353-1.174l4.66 9.344a1.314 1.314 0 0 1-.59 1.764 1.298 1.298 0 0 1-.585.139zm-37.66 58.104a64.921 64.921 0 0 0 1.162-10.421 20.837 20.837 0 0 1 2.836-10.25 1.316 1.316 0 0 0-2.205-1.436 23.175 23.175 0 0 0-3.261 11.686 64.58 64.58 0 0 1-1.208 10.421z"/></g><path d="M1244.485 940.7s20.18 1.98 20.016.336-4.533-8.087-5.682-8.897-14.334 8.56-14.334 8.56z" class="AG"/><g class="AF"><path d="M1270.323 946.093h-138.988l.65-1.642c24.338-61.646 35.2-120.666 45.074-180.732l.164-1.006h133.573l-1.742 10.73c-10.3 63.432-22.515 118.02-38.474 171.8zm-135.46-2.402h133.666c15.807-53.394 27.933-107.64 38.152-170.633l1.3-7.943h-128.7c-9.755 59.32-20.56 117.647-44.398 178.576zM1120.8 1257.6H946.697l2.946-2.17c26.896-19.8 46.835-42.876 68.497-71.43 21.076-27.783 32.42-45.894 37.932-60.557l.293-.78h153.952l-.712 1.672a565.04 565.04 0 0 1-42.058 77.564c-16.058 24.52-46.094 55.035-46.396 55.34zm-166.83-2.402h165.825c3.4-3.5 30.756-31.72 45.745-54.612a567.781 567.781 0 0 0 41.128-75.517h-148.64c-5.7 14.752-17.113 32.892-37.97 60.385-21.005 27.687-40.4 50.262-66.086 69.744zM1591.343 259.8H1550.2a2.298 2.298 0 0 1-2.243-2.794l.055-.25 12.5-16.863a2.281 2.281 0 0 1 2.16-1.513h41.144a2.298 2.298 0 0 1 2.243 2.794l-.055.25-12.5 16.863a2.281 2.281 0 0 1-2.16 1.513zm-40.817-2.402h40.732l.037-.167 12.182-16.45h-40.732l-.037.167z"/><path d="M1577.64 248.538a2.305 2.305 0 0 1-1.073-.266l-14.316-7.13a1.201 1.201 0 0 1 1.07-2.151l14.34 7.14 26.035-7.395a1.201 1.201 0 0 1 .655 2.311l-25.9 7.336a2.284 2.284 0 0 1-.821.153zm61.008 4.255c-14.894 0-26.348-.02-26.994-.08a1.203 1.203 0 0 1-1.087-1.306 1.182 1.182 0 0 1 1.3-1.087c1.866.124 64.577.052 97.5-.005h.002a1.201 1.201 0 0 1 .002 2.402l-70.714.074zm235.774-.073h-97.003a1.201 1.201 0 0 1 0-2.402h97.003a1.201 1.201 0 0 1 0 2.402zM1755.4 264.002h-19.02a2.787 2.787 0 0 1-2.752-3.22l.1-.3 11.933-24.152a2.773 2.773 0 0 1 2.718-2.175h19.02a2.787 2.787 0 0 1 2.752 3.22l-.1.302-11.933 24.15a2.772 2.772 0 0 1-2.718 2.176zm-19.4-2.74a.396.396 0 0 0 .09.204.382.382 0 0 0 .291.134h19.02a.383.383 0 0 0 .379-.325l.088-.3 11.903-24.08a.395.395 0 0 0-.09-.204.382.382 0 0 0-.291-.134h-19.02a.387.387 0 0 0-.379.324l-.088.3zm12.282-1.182h-4.862a1.201 1.201 0 0 1 0-2.402h4.862a1.201 1.201 0 0 1 0 2.402z"/></g><path d="M1741.924 676.828h-583.217a2.402 2.402 0 0 1 0-4.805h583.217a2.402 2.402 0 1 1 0 4.805zm-27.64 359.955h-648.907a2.403 2.403 0 0 1 0-4.805h648.907a2.403 2.403 0 0 1 0 4.805zm172.67-706.707H1279.4a2.403 2.403 0 1 1 0-4.805h607.563a2.403 2.403 0 0 1 0 4.805z" class="AK"/><path d="M1517.985 225.666a23.578 23.578 0 0 1-.997 6.51l-.36 1.14a25.997 25.997 0 0 1-1.838 4.276l-21.32 21.717h-128.43s4-8.9 9.6-14.81 12.216-11.71 12.216-11.71l13.778-7.195 1.057-.53 5.922-2.943h110.293l.072 3.544z" class="AG"/><path d="M1533.84 222.122c-13.225 8.84-25.56 18.99-41.237 36.18H1366.25c8.132-15.663 24-27.663 37.86-36.18h-4.48c-13.682 8.9-28.852 21.13-36.408 36.864l-.817 1.718h131.266l.348-.384c16.89-18.582 29.85-28.9 44.204-38.198z" class="AF"/><path d="M1460.028 222.122a15.397 15.397 0 0 0-5.357 3.159c-3.05 3.495-10.727 21.49-11.207 22.606.144-.817 1.9-10.1 1.9-15.555 0-3.29-1.285-7.363-2.366-10.2z" class="AM"/><path d="M1775.066 445.965a2.403 2.403 0 0 1-2.434-2.141l-3.646-33.272a2.403 2.403 0 1 1 4.777-.522l2.934 26.78 37.7-55.588a2.402 2.402 0 0 1 3.977 2.696l-41.364 60.993a2.401 2.401 0 0 1-1.943 1.054z" fill="#e85f4d"/><path d="M559.306 798.82a1.202 1.202 0 0 1-1.144-.833l-13.244-41.15 2.606-11.93a1.201 1.201 0 0 1 2.346.514l-2.468 11.295 13.047 40.532a1.202 1.202 0 0 1-.775 1.512 1.224 1.224 0 0 1-.368.057z" class="AP"/><path d="M645.96 697.32s15.717 10.81 24.726 20.42-1.802 141.06.6 153.674.7 117.815.5 122.02-34.663 7.787-34.663 7.787l-9.54-227.625c-1.952-2.402 1.075-68.167 1.075-68.167z" class="AH"/><path d="M515.792 1318.152l-9.23 35.35-13.564 7.81-7.49-13.126 4.458-44.084 14.666-4.192 11.16 18.244z" class="AE"/><path d="M590.6 936.392c-.44-8.534-1.556-17.25-8.037-23.452-5.8-5.55-13.828-8.1-21.43-10.052-15.73-4.036-60.37 8.177-61.47 11.124a64.122 64.122 0 0 0-3.163 14.863c-2.738 23.35-8.035 129.5-11.587 155.363-4.435 32.306-2.116 65.113-7.755 97.168-7.12 40.472-5.455 64.554-14.278 105.095-.538 2.47-7.873 37.446-6.733 39.452s60.787 1.647 60.787 1.647l48.468-245.242c2.883-16.076 3.576-16.172 4.704-32.46a.494.494 0 0 0 .279-.182c23.252-29.823 22.057-77.51 20.215-113.322z" class="AM"/><path d="M620.753 1315.556l-5.3 36.147-12.627 9.248-8.882-12.226-.4-44.307 14.118-5.773 13.09 16.91z" class="AE"/><path d="M647.74 905.32l.08.006-.05-1.202-.114-.008c-.034-.478.885-6.172.85-6.65-.055-.77-17.864 5.408-25.764 4.832-7.734-.564-15.52-1.395-23.284-1.17-13.037.377-39.96-16.735-44.7-3.41-2.48 6.986 11.242 35.976 10.706 43.295q-1.048 14.312-2.096 28.625c-1.32 18.034-3.375 43.4-3.417 61.494a110.127 110.127 0 0 0 2.81 26.053c2.25 9.38 6.208 74.128 4.91 97.315l-2.1 47.32c-.47 11.12-.983 22.245-.942 33.377.04 10.45 2.915 22.458.363 32.622-.99 3.95-2.173 7.882-1.906 12.002.32 4.93 2.375 9.565 3.177 14.4 1.7 10.203-.452 20.53-2.612 30.5a.577.577 0 0 0-.029.067c-.204.96-.98 2.643.457 2.898a15.729 15.729 0 0 0 2.537.023l3.326.023a.494.494 0 0 0 .364-.142c15.243-.355 49.775.23 49.775.23L640.6 1118.03c5.618-63.186 9.65-176.998 7.13-212.7z" class="AM"/><g class="AO"><path d="M636.9 566.2a16.177 16.177 0 0 0-3.917-7.768 21.165 21.165 0 0 0-4.281-3.874c-7.344-5.06-13.12-8.17-21.66-7.143a60.966 60.966 0 0 1-16.25-.405c-4.116-.6-11.662 1.514-15.797 2.4-3.163.685-6.948 1.74-9.563 3.68-2.644 1.963-4.386 4.907-7.13 6.768a20.102 20.102 0 0 0-6.945 7.424c-1.672 3.362-1.395 6.65-1.34 10.272.06 4-.87 7.82-1.2 11.75-.75 8.642 3.146 15.948 5.23 24.05 1.175 4.572.875 9.748 3.364 13.998 2.173 3.712 5.484 6.786 6.388 11.144a18.58 18.58 0 0 0 4.54-.798c4.628-1.442 9.048-3.86 13.35-6.06a78.602 78.602 0 0 0 12.872-7.948c4.34-3.408 7.707-7.643 11.34-11.75 3.925-4.44 8.3-8.427 12.6-12.505 7.333-6.972 17.994-19.942 18.08-20.703.1-.966.998-7.983.335-12.542zm-83.413 348.534s28.62 2.102 54.145 1.5l43.013-1.5-2.126-20.12s-59.906.9-68.414 0-27.427-5.768-28.028-1.983 1.4 22.103 1.4 22.103z"/><path d="M567.4 541.51c-4.998-2.99-11.5-3.632-17.06-5.153-2.677-.732-4.922.142-5.974 2.76-1.502 3.74-1.372 8.564-1.873 12.518-.422 3.328-1.294 6.965 1.838 9.247 2.65 1.93 5.32.895 7.897-.558 4.58-2.582 9.674-4.034 14.643-5.657 2.233-.73 7.15-1.526 7.256-4.6.118-3.478-4.072-6.97-6.727-8.558z"/></g><path d="M568.433 899.268h6.006V921.5h-6.006zm64.907 1.352h6.006v22.222h-6.006z" class="AM"/><path d="M612.693 917.84h-11.85a4.607 4.607 0 0 1-4.602-4.602v-6.063a4.606 4.606 0 0 1 4.602-4.601h11.85a4.605 4.605 0 0 1 4.601 4.601v6.063a4.606 4.606 0 0 1-4.601 4.602zm-11.85-12.864a2.202 2.202 0 0 0-2.199 2.198v6.063a2.202 2.202 0 0 0 2.199 2.199h11.85a2.201 2.201 0 0 0 2.198-2.199v-6.063a2.201 2.201 0 0 0-2.198-2.198z" class="AF"/><g class="AE"><path d="M635.754 628.467c-.84 6.63-2.15 14.198-5.213 20.793-2.5 5.405-6.174 10.162-11.712 13.225-5.586 3.1-14.546 1.874-23.47-1.225-11.868-4.12-23.7-11.53-27.59-16.492-6.835-8.71-17.237-66.966 5.2-80.78s63.255 5.405 63.255 5.405.336 5.634.456 20.324l.024 5.357c.06 13.285-.132 26.967-.95 33.393z"/><path d="M563.78 623.446l-9.01 58.257 21.92 23.724 24.625-13.213 4.104-34.384-41.64-34.384z"/></g><g class="AD"><use xlink:href="#G"/><use xlink:href="#G" x="-27.978"/></g><path d="M622.576 629.006a18.198 18.198 0 0 1-3.867-.438 1.201 1.201 0 0 1 .545-2.339c1.564.36 6.275.934 7.4-1.1.707-1.292-.635-8.65-2.283-14.724a1.201 1.201 0 1 1 2.318-.629c.865 3.183 3.566 13.78 2.072 16.507-1.2 2.194-3.877 2.72-6.175 2.72z" class="AJ"/><g class="AO"><path d="M613.07 591.42c-1.433-1.295-3.678-1.58-5.525-1.664a23.396 23.396 0 0 0-10.377 2.055 7.141 7.141 0 0 0-2.555 1.727c-.426.505-1.42 2.208-.076 2.233 1.838.033 3.87-.437 5.74-.536l6.203-.125c1.87.05 4.07.612 5.862-.108a2.052 2.052 0 0 0 .73-3.582zm23.633 4.855h-.7c-1.862.012-4.072.54-5.85-.204a2.049 2.049 0 0 1-.673-3.592c1.44-1.273 3.7-1.525 5.55-1.586l1.658.024.024 5.357zm-16.985 52.205a19.508 19.508 0 0 1-.372-3.82l.113-3.495a6.824 6.824 0 0 0-2.936-.673 3.491 3.491 0 0 1 .06-.348c.12-.757-1.033-1.08-1.165-.312l-.132 1.033c-.132.192-.237 3.258-.545 4.425a7.137 7.137 0 0 1-1.531 3.557c-1.173 1.13-3.015.5-4.4.183-7.3-1.656-12.437-6.452-17.62-11.542-4.103-4.03-4.67-12.53-5.097-17.812-.894-11.077-2.187-22.115-3.375-33.163-.072-.757-1.285-.77-1.2 0q.36 3.28.7 6.534a5.65 5.65 0 0 0-3.255 3.399l1.393 17.225c.613 9.5.913 19.075 1.886 28.552a25.981 25.981 0 0 0 3.558 10.745 30.219 30.219 0 0 0 6.208 7.116 28.226 28.226 0 0 0 12.745 5.706c4.58.752 9.895-1 14.078-3.303 5.538-3.063 9.213-7.82 11.712-13.225-4.072 1.43-10.03 2.835-10.822-.78z"/><path d="M636.63 573.997c.216-3.41.616-4.507-1.657-7.332-2.8-3.48-7.325-3.385-11.37-4.183-11.186-2.207-22.917-4.1-34.35-3.912-8.95.148-18.5 2.523-24.488 9.646-3.082 3.66-4.32 8.067-5.125 12.705a104.838 104.838 0 0 0-1.537 16.996c-.056 6.465.69 12.895.808 19.354.112 6.042 3.182 17.065 3.182 17.065s8.73-20.417 8.544-31.982a.531.531 0 0 0 .138-.384 11.282 11.282 0 0 1 1.632-6.383c1.324-2.156 6.553.86 6.553.86a2.625 2.625 0 0 0 2.752 1.697c2.158-.001 2.23-.327 2.23-.327s-.495-10.155 5.738-15.203c3.173-2.57 6.723-4.65 10.766-5.12 4.547-.53 8.55 1.195 12.93 2.015 8.015 1.5 23.178-.755 23.178-.755l.077-4.755z"/></g><path d="M578.962 596.446s-6.354-10.52-11.693-4.552c-4.957 5.54-5.237 14.907-.82 20.933.295.403 4.168 4.448 4.883 3.716 0 0 8.113-8.308 8.113-9.76s-.483-10.337-.483-10.337z" class="AE"/><path d="M627.592 637.288s-6.506-.33-12.412-.93-8.61-3.604-8.61-3.604 1.79 7.3 8.715 8.108c10.28 1.2 12.306-3.575 12.306-3.575z" class="AJ"/><path d="M558.408 658.176s28.26 19.63 32.06 19.814 13.2-5.403 13.2-5.403 41.51 30.707 50.622 41.28.578 71.192-1.377 86.79-.78 89.823-2.27 97.598-47.883 5.54-72.7 4.78-75.164 4.224-82.386-3.97-.998-106.474 2.385-135.08-1.632-57.62-1.34-63.71 61.812-42.1 61.812-42.1z" class="AC"/><path d="M593.192 1345.373c1.088 0 10.104 4.713 12.122 5.035s10.16-5.004 12.73-4.6 3.535 3.655 3.856 4.605 16.657 14.072 19.014 16.215 17.086 7.552 18.8 9.266 0 8.57 0 8.57-69.84.857-70.698-1.07 2.035-21.96 1.82-28.815 1.268-9.213 2.356-9.213zm-108.482 1.16s.78-2.73 6.4-2.78 16.097 3.106 17.498 5.873-.912 17.462-1.305 20.045-.787 14.795-2.1 16.315-18.3 11.448-21.45 12.847-18.373 1-22.155.563-7.448-2.692-7.983-3.73 2-9.547 7.16-14.78c9.666-9.803 12.674-15.626 17.9-22.106 3.235-4.003 6.013-12.247 6.013-12.247z" class="AD"/><path d="M538.187 670.347s23.896 60.005 25.144 95.24-2.5 127.818-5.23 151.195-6.334 79.032-11.54 79.833-83.883-27.227-85.484-29.63 20.22-84.762 21.02-92.77-13.174-155.475 5.605-176.897c9.182-10.473 50.483-26.972 50.483-26.972zm83.86 16.2s13.64 51.022 17.726 82.653 8.733 169.368 8.733 169.368l13.77-9.6v-131.73l-4.657-52.852s-9.344-39.52-13.398-44.325-22.174-13.503-22.174-13.503z" class="AH"/><g class="AE"><path d="M638.223 660.334c-5.015-4.257-15.27-6-20.11-6.386-4.914-.393-9.87-.484-14.795-.57-3.198-.056-6.393-.677-9.595-.282-2.103.26-6.1 3.328-2.038 5.36 2.322 1.16 22.56 3.62 23.526 4.394s-2.142 6.386-1.264 10.256.684 3.483 4.167 11.223 14.706 10.062 21.092 10.256 9.095-19.93 9.095-19.93-5.063-10.062-10.078-14.32z"/><path d="M648.92 681.27s2.046-12.977-1.637-19.576-6.982-12.757-7.147-15.067.276-7.637-2.912-6.818c-2.613.67-3.466 3.354-3.687 7.148s2.474 16.22 2.474 16.22 2.145 7.093 3.464 8.578 9.444 9.513 9.444 9.513z"/><path d="M631.362 687.978l22.1 99.418 23.755 8.36 13.637-18.916L648.3 670.822l-16.94 17.156z"/></g><path d="M637.132 731.553l33.552-13.814s10.81 13.814 14.014 22.622 19.22 34.978 19.22 69.813c0 12.412-13.968 21.978-29.584 20.777s-24.272-33.693-24.272-33.693z" class="AH"/><g class="AE"><path d="M636.344 834.85s11.26-12.95 18.018-15.484 21.115-2.815 23.93-2.534 5.912 2.534 0 4.786-15.484 6.193-15.484 6.193 15.454 4.08 24.76.774 15.217-7.25 16.907-6.122.375 2.548-2.628 7.75-20.1 20.403-27.734 22.092-37.767-1.408-37.767-1.408z"/><path d="M653.76 851.803l-114.052 6.655-13.597-18.943 15.47-19.867L642.877 830.3l10.882 21.513z"/></g><path d="M542.063 784.005s10.984 23.19 16.038 26.827 46.682 7.7 47.32 10.81-2.492 43.443-2.492 43.443-69.24 12.212-76.817 2.202-23.993-58.458-23.993-61.26 39.946-22.022 39.946-22.022z" class="AH"/><path d="M679.994 840.26a1.201 1.201 0 0 1-.401-2.333l9.3-3.302a55.458 55.458 0 0 0 9.365-4.686 1.201 1.201 0 1 1 1.29 2.027 56.983 56.983 0 0 1-9.854 4.923l-9.3 3.302a1.199 1.199 0 0 1-.401.069zM622.05 672.023a.934.934 0 0 1-.114-.006l-7.22-.68a1.201 1.201 0 1 1 .225-2.392l7.22.68a1.202 1.202 0 0 1-.111 2.398zm.512 7.73h-5.48a1.201 1.201 0 1 1 0-2.402h5.48a1.201 1.201 0 0 1 0 2.402z" class="AJ"/><path d="M639.622 852.632l-10.86.625q.216-12.252-.553-24.504l10.92 1.14q.667 11.37.493 22.738z" class="AD"/><ellipse cx="634.503" cy="844.93" rx="8.863" ry="7.878" class="AG"/><path d="M576.346 693.134a1.721 1.721 0 0 1-.508-.072c-2.717-.836-21.028-21.515-26.575-27.832a1.201 1.201 0 1 1 1.804-1.586c10.872 12.38 23.387 25.975 25.45 27.103 1.598-.16 7.72-5.894 12.522-11.247a1.201 1.201 0 0 1 1.788 1.605c-5.015 5.587-11.452 12.03-14.482 12.03zm28.71 1.21a1.962 1.962 0 0 1-.551-.076c-2.94-.846-10.344-10.348-12.543-13.24a1.201 1.201 0 1 1 1.912-1.455c4.277 5.625 9.8 11.96 11.295 12.386h.002c1.18 0 5.234-4.802 8.64-10.3a1.201 1.201 0 1 1 2.041 1.267c-2.7 4.367-7.58 11.408-10.795 11.408zm8.79 128.498a1.202 1.202 0 0 1-1.197-1.111c-.005-.055-.46-5.628-3.574-15.753-1.687-5.483-1.445-10.6-1.14-17.06a151.535 151.535 0 0 0-.508-25.21c-2.367-22.48-16.446-79.145-16.588-79.713a1.202 1.202 0 0 1 2.332-.582c.142.572 14.26 57.4 16.644 80.044a153.592 153.592 0 0 1 .52 25.573c-.306 6.48-.528 11.158 1.036 16.24 3.206 10.42 3.655 16.045 3.673 16.28a1.201 1.201 0 0 1-1.107 1.287q-.046.004-.092.004zm.004 78.977a1.201 1.201 0 0 1-.744-2.145c.106-.086 2.732-2.268 2.775-7.056.048-5.398-.978-35.4-.988-35.702a1.201 1.201 0 0 1 2.4-.082l1 35.806c-.055 5.995-3.545 8.807-3.693 8.923a1.194 1.194 0 0 1-.741.257z" class="AF"/><path d="M566.183 1081.098a1.2 1.2 0 0 1-1.165-1.5l22.1-86.026 29.137-27.067a1.201 1.201 0 1 1 1.635 1.76l-28.62 26.588-21.933 85.343a1.202 1.202 0 0 1-1.162.902zm25.305-83.265a1.201 1.201 0 0 1-.711-2.17l19.138-14.03a1.201 1.201 0 0 1 1.419 1.938l-19.138 14.03a1.191 1.191 0 0 1-.709.232zm-19.3 315.895a1.201 1.201 0 0 1-.703-2.176h0c.055-.04 5.547-4.094 13.287-16.866l11.63-18.845a1.201 1.201 0 1 1 2.02 1.3c-.035.055-3.7 5.748-11.594 18.8-8.045 13.272-13.706 17.403-13.943 17.572a1.193 1.193 0 0 1-.697.224zm12.612-30.664a1.201 1.201 0 0 1-1.008-1.853l19.693-30.43a1.201 1.201 0 0 1 2.018 1.304l-19.693 30.43a1.2 1.2 0 0 1-1.01.549z" fill="#c7744c"/><g class="AP"><path d="M512.3 816.836a1.201 1.201 0 0 1-.591-2.247c.16-.09 4.036-2.22 16.08-4.93 12.093-2.72 29.754-.127 30.5-.016a1.202 1.202 0 1 1-.357 2.377c-.177-.026-17.965-2.638-29.616-.016-11.597 2.61-15.4 4.662-15.437 4.683a1.207 1.207 0 0 1-.581.15z"/><path d="M543.356 810.83a1.201 1.201 0 0 1-.663-.201 36.563 36.563 0 0 0-15.363-4.909c-9.353-.877-24.875 1.47-25.03 1.492a1.201 1.201 0 1 1-.364-2.374c.65-.1 15.972-2.413 25.62-1.5a38.304 38.304 0 0 1 16.469 5.302 1.202 1.202 0 0 1-.669 2.201zm11.414 59.888c-.013 0-.026 0-.04-.001l-43.304-1.632c-16.363-1.342-23.417-43.455-23.7-45.247a1.202 1.202 0 1 1 2.372-.387c1.9 11.693 9.498 42.253 21.536 43.24 5.25.43 42.803 1.614 43.182 1.627a1.201 1.201 0 0 1-.036 2.401zm-4.606-65.194a1.202 1.202 0 0 1-1.158-.887l-30.53-112.372a1.201 1.201 0 1 1 2.318-.629l30.53 112.372a1.201 1.201 0 0 1-.845 1.473 1.168 1.168 0 0 1-.316.042zm-4.606 109.54l-47.873-13.602 3.56-15.303 46.246 15.1zm-45.015-15.287L543.562 912l1.27-9.093L503 889.255zm155.127-82.94a1.2 1.2 0 0 1-1.121-.772c-.062-.163-6.268-16.42-9.253-28.366-1.655-6.618-4.983-21.705-7.656-33.827l-4.262-18.895c-.78-2.004 2.1-3.873 4.64-5.086a1.201 1.201 0 0 1 1.032 2.169 10.849 10.849 0 0 0-3.358 2.272c.366 1.25 1.6 6.8 4.294 19.023l7.64 33.762c2.95 11.802 9.105 27.928 9.166 28.1a1.202 1.202 0 0 1-1.121 1.631zM547.7 744.28c-2.644 0-5.048-.213-6.226-.866-.863-.476-2.308-1.275-8.246-33.518l-5.478-31.5a1.202 1.202 0 1 1 2.371-.387c3.75 22.95 10.455 60.198 12.635 63.372 1.987.893 10.005.43 15.2-.2a1.187 1.187 0 0 1 1.337 1.046 1.199 1.199 0 0 1-1.046 1.337 97.415 97.415 0 0 1-10.537.725zm-4.9-2.834z"/></g><path d="M564.23 556.03a1.201 1.201 0 0 1-.638-2.219l7.158-4.482a1.201 1.201 0 0 1 1.274 2.036l-7.158 4.482a1.187 1.187 0 0 1-.636.183zm64.438 20.57a1.202 1.202 0 0 1-1.173-1.464c.018-.08 1.718-7.92-1.904-11.153a34.131 34.131 0 0 0-19.143-7.959c-8.648-.895-24.542-3.587-24.702-3.614a1.202 1.202 0 1 1 .401-2.37c.16.027 15.978 2.707 24.547 3.593 7.844.812 15.315 3.93 20.496 8.557 4.678 4.176 2.732 13.095 2.648 13.472a1.201 1.201 0 0 1-1.171.938zm-5.17 0a1.201 1.201 0 0 1-1.197-1.114c-.005-.054-.423-5.467-2.638-9.066-1.755-2.852-8.397-4.912-10.807-5.465a1.201 1.201 0 1 1 .537-2.341c.988.226 9.724 2.337 12.316 6.547 2.528 4.107 2.97 9.9 2.988 10.154a1.2 1.2 0 0 1-1.111 1.283c-.03.002-.06.004-.088.004zm-38.095 5.255a1.243 1.243 0 0 1-.185-.014c-.527-.082-13-2.054-19.17-6.845a35.277 35.277 0 0 1-9.002-9.988 1.201 1.201 0 0 1 2.113-1.143 33.561 33.561 0 0 0 8.36 9.233c5.688 4.408 17.944 6.35 18.067 6.368a1.201 1.201 0 0 1-.183 2.388z" fill="#613022"/><g class="AE"><path d="M1779.754 700.87l-29.105 3.94 5.474-43.014-16.01-4.276c-2.138-1.057-3.94-2.87-4.12-4.552-.312-2.955 0-8.637.528-14.7l.516-5.345c.697-6.823 1.538-13.237 1.946-15.832.396-2.462 2.27-9.802 4.456-17.62l1.55-5.393c2.522-8.637 5.105-16.625 6.234-18.054 2.967-3.796 6.318 3.448 10.27.673 3.784-2.667 22.078-10.018 26.486-9.73.84.048-13.153 9.153-13.994 9.105-.108-.012-.216 0-.324-.012.83 3.315 1.44 6.534.613 9.9-.96 3.94-2.63 7.772-3.964 11.58-2.69 7.616 4.673 11.856 1.934 19.47 2.955 3.147 15.05 29.13 16.036 31.315s-8.53 52.527-8.53 52.527z"/><path d="M1741.72 609.64s-9.047 9.373-9.562 12.4c-.657 3.848 8.037 5.107 8.037 5.107a12.083 12.083 0 0 0 1.844-4.783c.137-2.202-.32-12.713-.32-12.713zm7.95 501.416l-39.753 22.022 11.337 160.96h22.644l12.326-130.13c.888-24.024-6.554-52.852-6.554-52.852zm80.448-2.92s-41.862-5.487-35.337 29.988c4.64 25.215 51.696 154.462 51.696 154.462l21.98-5.438-21.345-133.25c-4.907-23.534-16.996-45.763-16.996-45.763zm49.568-481.777c-3.652 8.625-6.546 14.63-6.546 14.63l-18.342-8.805-4.18-33.633s8.913-22.018 8.913-24.024c0-1.658-15.64-78.485-21.02-104.9l-1.777-8.685c-.012-.084-.024-.132-.024-.132l16.12-7.796 1.55 4.072 2.63 6.93c10.042 26.654 34.966 93.668 37.2 108.647 1.826 12.264-7.676 37.56-14.523 53.693zm-234.37 162.38l-8.508 13.915-12.012 21.22s-10.8 14.613 0 23.223c4.202 3.347 18.1-2.86 29.13-13.114 10.584-9.84 23.423-24.624 23.423-24.624z"/><path d="M1623.137 845.545a161.143 161.143 0 0 1-12.457-23.274c-5.706-13.213-23.123-85.585-23.123-85.585l15.615-5.105s35.135 67.567 38.438 77.176-3.303 21.62-5.105 25.225-13.37 11.563-13.37 11.563z"/><path d="M1607.173 711.666a72.944 72.944 0 0 0-2.102-10.318c-.53-2.006-1-7.88-4.372-6.318-2.102.973-1.093 5.393-.95 7.147l.6 4.865.348 2.582c.06.48-.012 2.042.288 2.378l-.985-1.08a52.152 52.152 0 0 1-6.883-9.958q-3.424-5.928-6.847-11.856c-1.165-2.03-2.534-6.198-4.973-7.17a2.414 2.414 0 0 0-3.243 1.189c-.65 1.874 1.694 5.093 2.4 6.606q3.027 6.558 6.054 13.117-2.793-3.946-5.573-7.904l-5.646-7.688c-1.117-1.3-3.135-3.916-5.153-3.808-4.192.204-2.2 5.153-1 7.64-3.28 1.44-1.153 7.916-.18 10.546q2.685 7.243 5.37 14.498-2.072-2.937-4.336-5.754c-.865-1.07-6.018-6.222-7.22-3.22-.505 1.26.372 3.484.985 4.6 1 1.826 2.57 3.303 3.796 4.985 3.23 4.48 7.363 8.072 10.955 12.276 2.595 3.027 7.988 8.444 9.682 10.138l.528.53s10.534-2.883 15.868-2.775a.719.719 0 0 0 1.213-.012.991.991 0 0 0 .084-.156c4.3-7.267 2.367-16.973 1.322-25.08zm229.733-250.45s-8.817-13.226-7.406-17.105 2.903-10.05 4.667-14.107-9.687-1.697-11.627-2.402-7.77-2.712-1.423-6.062 19.574-7.406 26.45-5.114 7.324 22.748 6.972 26.804-2.47 13.226-2.47 13.226z"/></g><path d="M1811.88 662.213l38.737-63.663s19.595 16.145 26.11 24.005c17.436 21.04 17.436 43.26 17.436 43.26s-20.42 33.872-31.23 48.687-21.03 38.2-21.03 38.2z" class="AN"/><path d="M1713.52 848.997l-4.204 26.426s-13.23 24.024-13.213 75.074c.012 33.038 13.814 182.58 13.814 182.58s133.712-4.805 135.023-9.01 1.692-63.062 2.402-84.684 6.416-86.786 2.512-110.21-19.52-64.857-20.72-68.164-1.502-12.015-1.502-12.015z" class="AI"/><path d="M1771.378 674.225s-51.25 20.42-59.66 26.026-21.22 19.62-20.82 21.62 12.813 69.67 14.014 98.097.4 25.625 3.604 33.633 114.974 3.87 121.38-2.602c3.296-3.33 28.897-147.525 24.363-161.96s-20.64-30.9-22.532-32.066-60.35 17.252-60.35 17.252z" class="AN"/><path d="M1832.74 650.448c1.48-11.105 3.136-22.182 2.95-33.408-.243-13.198-3.016-26.935-10.948-37.78a42.823 42.823 0 0 0-36.569-17.315c-7.6.444-22.673-.237-30.64 6.577-4.342 3.713-10.226 9.393-7.28 15.558a27.385 27.385 0 0 0 4.242 5.663 19.868 19.868 0 0 1 2.81 3.916c.94 1.893.743 3.807 1.15 5.8.644 3.147 3.102 5.16 5.405 7.178 4.7 1.695 6.254 7.155 6.276 11.94a21.734 21.734 0 0 1-1.513 8.363c-2.06 4.974-3.17 8.653-1.17 13.968 1.552 4.125 3.784 7.88 3.293 12.448a27.224 27.224 0 0 1-3.736 10.669c-.188.32-.388.63-.587.94a66.807 66.807 0 0 0-3.049 9.956c-1.464 7.933-1.03 16.335-4.602 23.764-3.74 7.78-11.177 12.688-13.827 21.16-1.424 4.554-1.506 9.338-2.4 13.996a42.957 42.957 0 0 1-4.226 11.18l-4.505 8.826a21.549 21.549 0 0 1 6.189.48c2.666.678 4.888 2.4 7.553 3.155a19.796 19.796 0 0 0 6.106.633 16.413 16.413 0 0 1 7.979 1.493 21.852 21.852 0 0 0 5.464 2.014 7.998 7.998 0 0 0 4.978-.928c3.302-1.604 6.028-2.554 9.244.03a.607.607 0 0 0 .839-.138c4.114-5.917 6.085-12.707 7.387-19.665-.633 3.385-.186 7.336-.324 10.8-.092 2.28-1.5 8.034.296 9.64-.6-.55 4.318-1.46 4.912-1.444 2.775.08 5.547 1.427 8.337 1.117 3.55-.395 5.747-3.554 9.1-4.1 3.14-.5 6.348 2.97 9.413 1.098 3.734-2.284 4.634-10.128 5.327-13.965.836-4.63 1.268-9.3 1.64-13.983q.127-1.6.25-3.22c.4-5.34 1.597-10.736 2.166-16.1 1.204-11.347.001-22.745-.05-34.132-.005-2.5.038-5.027.18-7.548.346-6.24 1.1-12.43 1.935-18.64zm-86.577 665.812c-1.802 5.6-1.994 23.027-1.994 23.027h-4.012s-.6-16.42-1.393-16.624c-.805-.192-13.042 15.97-15.293 16.76-1.518.533-27.95.26-29.355-.136-1.405-.408-1.405-8.408 0-10.618.84-1.3 4.733-3.628 8.084-5.562a53.553 53.553 0 0 0 4.925-3.039.037.037 0 0 0 .024-.012c1.694-1.6 14.102-26.018 14.102-26.018l8.83-3.676c1.465-.6 12-1.225 13.97-1.333.204-.012.312-.024.312-.024s2.045 6.42 3.017 10.438c1.016 4.204.587 11.207-1.215 16.816z" class="AD"/><path d="M1744.05 1289.028c-1.946.192-12.276 1.418-15.603 5.9-3.664 4.96-10.81 26.222-17.417 28.432a11.687 11.687 0 0 1-8.829-.264 53.553 53.553 0 0 0 4.925-3.039.037.037 0 0 0 .024-.012c1.694-1.61 14.258-26.46 14.258-26.46a32.662 32.662 0 0 1 8.469-5.469c1.465-.6 12.204 1.01 14.174.903z" class="AE"/><path d="M1875.994 1308.175c-.402 5.878 3.594 22.832 3.594 22.832l-3.895.964s-4.526-15.795-5.345-15.803c-.827.007-7.276 13.006-12.148 18.53-2.706 3.068-20.544 11.893-25.57 10.01-1.37-.514-4.662-6.717-3.828-9.2.502-1.473 3.723-4.658 6.512-7.34 1.884-1.84 3.203-6.216 3.697-6.92a.037.037 0 0 0 .02-.017c1.258-1.97 7.44-28.643 7.44-28.643l7.688-5.688c1.278-.935 11.354-4.07 13.24-4.65.195-.06.297-.098.297-.098s3.527 5.74 5.435 9.408c1.997 3.837 3.262 10.738 2.86 16.616z" class="AD"/><path d="M1867.402 1282.25c-1.843.654-11.576 4.324-13.727 9.484-2.365 5.696-3.55 27.04-9.724 32.465-3.204 2.816-6.75 4.343-8.636 3.968 1.884-1.84 3.203-6.216 3.697-6.92a.037.037 0 0 0 .02-.017c1.258-1.97 7.405-29.04 7.405-29.04s2.637-5.265 6.563-8.104c1.28-.935 12.516-1.257 14.402-1.835z" class="AE"/><path d="M1696.086 714.503s-9.53 6.168-14.736 15.777-36.036 58.458-36.036 58.458l37.237 45.245 40.04-34.834z" class="AN"/><path d="M1865.913 412.194l-60.637 24.42-3.753 3.512a.684.684 0 0 0 .499 1.182l5.05-.237 60.637-24.42a2.403 2.403 0 0 0 1.331-3.126h0a2.403 2.403 0 0 0-3.126-1.332z" class="AD"/><path d="M1834.33 457.064s-9.24-11.737-10.44-15.755 1.952-18.132 3.303-19.783 5.754-1.652 4.904 2.853 4.33 20.87 4.33 20.87z" class="AE"/><path d="M1855.723 426.18a1.201 1.201 0 0 1-.462-2.31l11.584-4.835-1.612-3.686a1.201 1.201 0 1 1 2.201-.962l2.592 5.924-13.84 5.776a1.186 1.186 0 0 1-.462.093z" fill="#381e13"/><path d="M1583.205 713.714a1.201 1.201 0 0 1-1.015-.556l-12.913-20.27a1.201 1.201 0 0 1 2.027-1.29l12.913 20.27a1.201 1.201 0 0 1-1.012 1.846zM1835.258 442.5a1.202 1.202 0 0 1-1.16-.894l-1.863-7.04a1.202 1.202 0 1 1 2.323-.615l1.863 7.04a1.201 1.201 0 0 1-.854 1.469 1.216 1.216 0 0 1-.309.04zm-9.828-14.635a1.22 1.22 0 0 1-.093-.004 1.199 1.199 0 0 1-1.106-1.286c.047-.633.564-6.2 4.12-6.546 2.93-.293 4.33 2.248 4.665 3.632a1.201 1.201 0 0 1-2.334.565c-.05-.194-.508-1.988-2.1-1.807-1.16.116-1.85 2.88-1.964 4.336a1.202 1.202 0 0 1-1.197 1.109zM1633.3 810.96a1.201 1.201 0 0 1-1.076-1.733l3.504-7.105a1.201 1.201 0 1 1 2.154 1.063l-3.503 7.105a1.201 1.201 0 0 1-1.079.67z" class="AJ"/><g class="AG"><path d="M1590.5 755.006a1.385 1.385 0 0 1-.22-.015 1.201 1.201 0 0 1-1.005-1.369 1.228 1.228 0 0 1 1.253-1.018c.178-.014 1.696-.215 6.333-2.938a18.966 18.966 0 0 0 9.228-12.461 1.201 1.201 0 0 1 2.38.323 21.012 21.012 0 0 1-10.391 14.21c-4.84 2.844-6.825 3.27-7.578 3.27z"/><path d="M1589.458 750.1a1.201 1.201 0 0 1-.129-2.395 31.662 31.662 0 0 0 12.183-4.314c5.14-3.377 6.03-4.398 6.066-4.44a1.167 1.167 0 0 1 1.647-.285 1.233 1.233 0 0 1 .292 1.7c-.238.348-1.364 1.534-6.686 5.032a33.563 33.563 0 0 1-13.242 4.694 1.208 1.208 0 0 1-.13.007zm3.505 12.812a1.201 1.201 0 0 1-.845-2.055l17.617-17.417a1.201 1.201 0 0 1 1.689 1.708l-17.617 17.417a1.201 1.201 0 0 1-.845.347z"/></g><g fill="#cc4e3d"><path d="M1706.476 810.96a1.134 1.134 0 0 1-.216-.02 1.199 1.199 0 0 1-.967-1.396c.045-.246 4.442-24.77 2.1-43.58-2.367-18.94-8.627-47.053-8.7-47.334a1.201 1.201 0 1 1 2.344-.523c.063.283 6.347 28.504 8.728 47.56 2.398 19.18-2.067 44.058-2.113 44.308a1.201 1.201 0 0 1-1.18.985zm144.734-80.28a1.298 1.298 0 0 1-.148-.009 1.2 1.2 0 0 1-1.045-1.338 89.621 89.621 0 0 0-3.555-32.546 1.201 1.201 0 1 1 2.304-.68c5.414 18.346 3.7 32.908 3.635 33.52a1.2 1.2 0 0 1-1.191 1.054z"/><path d="M1853.02 703.58a1.201 1.201 0 0 1-1.182-.995c-.035-.205-3.643-20.7-8.65-33.94a1.201 1.201 0 0 1 2.247-.849c5.086 13.464 8.732 34.17 8.768 34.377a1.203 1.203 0 0 1-.977 1.39 1.254 1.254 0 0 1-.208.018zm-142.64 81.454a1.13 1.13 0 0 1-.176-.013 1.201 1.201 0 0 1-1.014-1.363c.03-.203 2.984-20.5 2.7-34.735-.294-14.224-5.323-35.92-5.374-36.138a1.201 1.201 0 0 1 2.339-.547c.052.22 5.138 22.16 5.437 36.635.3 14.447-2.685 34.928-2.716 35.134a1.201 1.201 0 0 1-1.187 1.026zm91.3 70.57a1.201 1.201 0 0 1-.746-2.143 72.593 72.593 0 0 0 18.272-24.186c7.068-15.312 14.26-50.256 14.33-50.607a1.201 1.201 0 0 1 2.353.481c-.296 1.445-7.32 35.57-14.502 51.133a73.637 73.637 0 0 1-18.965 25.064 1.199 1.199 0 0 1-.744.258zm-12.313-2.102a1.201 1.201 0 0 1-.914-1.98l15.615-18.318a1.201 1.201 0 1 1 1.828 1.558l-15.615 18.318a1.196 1.196 0 0 1-.914.422z"/></g><path d="M1857.565 466.778l-7.532 2.45c-3.616 1.105-7.4 1.862-10.967 3.16l-1.477-7.22c5.574-2.138 11.543-3.603 17.345-5.32l2.63 6.93z" class="AD"/><path d="M1857.617 463.598c.8 3.394-.928 6.707-3.863 7.4s-5.963-1.497-6.765-4.9.928-6.707 3.863-7.4 5.963 1.496 6.765 4.9z" class="AC"/><path d="M1755 602.024c-.012-.024-.036-.06-.048-.084-1.982-3.532-5.958-6.258-9.657-7.723a6.25 6.25 0 0 1-.312-.132l-1.55 5.393a25.743 25.743 0 0 1 3.243.601 30.863 30.863 0 0 1 4.132 1.514c.937.385 2.703 1.694 3.724 1.562a.702.702 0 0 0 .613-.577 1.03 1.03 0 0 0-.144-.553zm-7.6 4.68c.158-.8.18-2.008-.422-2.5-3.44-2.814-6.273 8.452-2.226 6.763 1.458-.6 2.358-2.794 2.648-4.263z" class="AD"/><path d="M1745.916 634.792a18.679 18.679 0 0 1-5.742 2.883 18.365 18.365 0 0 1-3.652.601l.516-5.345a25.935 25.935 0 0 0 6.066 1.273c3.327.132 2.81.59 2.81.59z" class="AC"/><path d="M1747.516 740.9a1.147 1.147 0 0 1-.235-.023 1.2 1.2 0 0 1-.944-1.411c.115-.584 2.866-14.36 5.6-19.85a39.285 39.285 0 0 1 5.376-7.195c3.383-3.937 7.216-8.4 8.974-13.668a40.177 40.177 0 0 0 1.738-9.729 53.919 53.919 0 0 1 4.518-18.591c5.7-13.3 1.56-31.694 1.52-31.878a1.201 1.201 0 0 1 2.341-.54c.18.784 4.354 19.35-1.653 33.364a51.193 51.193 0 0 0-4.333 17.863 42.072 42.072 0 0 1-1.853 10.272c-1.905 5.716-5.903 10.368-9.43 14.474a37.926 37.926 0 0 0-5.05 6.704c-2.6 5.2-5.375 19.102-5.403 19.24a1.2 1.2 0 0 1-1.176.968zm10.254 8.484a1.202 1.202 0 0 1-1.195-1.09c-.063-.685-1.493-16.852 4.655-24.087a61.73 61.73 0 0 0 11.281-19.747c1.54-4.935 3.06-15.53 3.074-15.636a1.201 1.201 0 0 1 2.379.338c-.063.443-1.564 10.896-3.16 16.014a64.341 64.341 0 0 1-11.745 20.587c-5.492 6.465-4.107 22.152-4.092 22.3a1.201 1.201 0 0 1-1.085 1.307 1.09 1.09 0 0 1-.112.006zm68.722-65.164a1.201 1.201 0 0 1-1.194-1.089c-.06-.6-1.405-14.982-1.004-21.4.4-6.38 1.577-15.117 3.818-28.33 2.147-12.655.015-29.904-.007-30.077a1.201 1.201 0 0 1 2.384-.3c.1.72 2.198 17.768-.007 30.778-2.228 13.13-3.397 21.788-3.8 28.08-.4 6.23.984 20.878.997 21.025a1.2 1.2 0 0 1-1.083 1.308.923.923 0 0 1-.114.006z" fill="#4c4e61"/><path d="M1768.9 629l-1.5-4.53a.56.56 0 0 0-.156-.24.611.611 0 0 0-1.117-.096c-2.354 4.805-5.826 10.763-2.895 16.132 1.8 3.28 5.117 1.574 6.054-1.32 1.033-3.196.54-6.655-.385-9.946zm-1.26 8.432a1.865 1.865 0 0 1-3.291.505 4.078 4.078 0 0 1-.649-2.222 10.767 10.767 0 0 1 .288-3.159 3.988 3.988 0 0 1 .661-1.538c1.08-1.37 2.5-.553 2.955.83.072.192.12.384.18.577a7.322 7.322 0 0 1-.144 5.009z" class="AG"/><path d="M1773.657 1006.046a1.201 1.201 0 0 1-.907-1.99c.23-.262 22.9-26.417 32.365-44.026a1313.58 1313.58 0 0 1 18.064-32.477 1.201 1.201 0 1 1 2.079 1.203c-.084.145-8.508 14.7-18.026 32.41-9.592 17.846-32.438 44.2-32.668 44.465a1.199 1.199 0 0 1-.907.413z" class="AL"/><defs ><path id="B" d="M994.112 506.45a1.18 1.18 0 0 1-.113-.005l-19.534-1.82a1.202 1.202 0 1 1 .223-2.393l19.534 1.82a1.201 1.201 0 0 1-.11 2.398z"/><path id="C" d="M988.266 577.83a1.21 1.21 0 0 1-.113-.005l-8.97-.835a1.202 1.202 0 1 1 .223-2.393l8.97.835a1.201 1.201 0 0 1-.11 2.398z"/><path id="D" d="M2262.67 667.042l-4.132 27.567h-88.42l4.36-29.417a6.284 6.284 0 0 1 6.222-5.369h75.747a6.295 6.295 0 0 1 6.222 7.219z"/><path id="E" d="M2237.83 786.236h-67.567a1.201 1.201 0 1 1 0-2.402h67.567a1.201 1.201 0 0 1 0 2.402z"/><path id="F" d="M2175.408 1136.802c-3.253 19.46-13.8 34.428-24.982 36.84-12-3.54-18.7-22.878-15.077-44.513 3.253-19.448 13.787-34.428 24.97-36.84 12 3.54 18.714 22.867 15.09 44.514z"/><path id="G" d="M634.392 603.182c-.16-.857-.622-2.07-1.415-2.32-4.543-1.43-2.877 10.906.477 7.615 1.21-1.186 1.235-3.72.938-5.296z"/></defs></svg>