<svg xmlns="http://www.w3.org/2000/svg" viewBox="0 0 575.93 424.36"><defs><style>.cls-1{fill:#fee1c7;}.cls-2{fill:#edc09a;}.cls-3{fill:#fff1e7;}.cls-4{fill:#e9ccb6;}.cls-5{fill:#3b251d;}.cls-6{fill:#716765;}.cls-7{fill:#554844;}.cls-8{fill:#ea765f;}.cls-9{fill:#7ca597;}.cls-10{fill:#c86c48;}.cls-11{fill:#a24d2b;}.cls-12{fill:#fff;}.cls-13{fill:#3a3678;}.cls-14{fill:#fcc081;}.cls-15{fill:#eda558;}.cls-16{fill:#79b09e;}.cls-17{fill:#f8a181;}.cls-18{fill:#deb9a0;}.cls-19{fill:#c7906d;}.cls-20{fill:#4f8271;}.cls-21{fill:#376758;}.cls-22{fill:#d5e2ed;}.cls-23{fill:#242056;}.cls-24{fill:#db7753;}.cls-25{fill:#c69a7b;}</style></defs><title>Asset 1</title><g id="Layer_2" data-name="Layer 2"><g id="Layer_1-2" data-name="Layer 1"><path class="cls-1" d="M575.92,260.54c0,.66,0,1.32,0,2s0,1.12,0,1.68q0,4.73-.13,9.46c0,.21,0,.44,0,.68-.3,12.89-2.08,22.44-4.51,35-2.26,11.71-7.59,32.67-8.81,35.28s-2.36,5.4-3.37,8.19l-52.78-17.45-1.72-.57-7.23-2.39-.2-.07-.73-.24-.94-.31-.47-.16-16.39-5.42L312.74,271.4l-6.95-2.29-1.3-.43-47.26-15.62-8.34,3.87L54.62,347.29,4,324.61c0-.48-.05-1-.07-1.46-.08-1.56-.14-3.13-.21-4.68l0-1c-.07-1.77-.12-3.55-.16-5.32-.09-3.45-.14-6.88-.2-10.3,0-.22,0-.43,0-.65v-.09Q3,280.76,2.7,260.42C2,213.91,1.22,183.86.49,137.35c0-1.38,0-2.74-.07-4.13v-.44c0-2-.06-3.95-.07-5.92a3.93,3.93,0,0,1,0-.49C.21,111.51.47,96.61,2.7,82c.15-1.07.33-2.13.52-3.19.08-.5.17-1,.27-1.49q1-5.37,2.37-10.68c6.08-22.93,19.51-45,40.47-56,1.7-.9,3.41-1.71,5.16-2.45l1.27-.51c15-6,31.84-6.9,48.35-7h.52c.39,0,.79,0,1.17,0,1.73,0,3.46,0,5.18,0h13.49c1.76,0,3.54,0,5.3,0l26.5.06,44.36.11h.73l9.41,0h.73l107.75.29,16.88,0h.08c45.32.1,90.62.07,135.91-1C478.89,0,489-.21,498.89.51a116.51,116.51,0,0,1,19.19,2.85A66.28,66.28,0,0,1,543.54,15.2C557.44,26,565.42,43,569,60.29a167.23,167.23,0,0,1,3,28.95c.24,7.9.16,15.83.18,23.73,0,9.11.15,18.22.35,27.32q.13,6,.3,11.94c0,.61,0,1.23.07,1.83.12,4.65.28,9.3.45,13.94.35,10.29.75,20.55,1.13,30.82l.09,2.52c0,.88.06,1.74.1,2.58V204c0,.25,0,.51,0,.76.14,3.57.26,6.84.39,10,.09,2,.16,4,.23,5.92.3,8.13.52,15.82.6,26.08C575.93,251.32,576,255.93,575.92,260.54Z"/><path class="cls-2" d="M222.37,157.19a.64.64,0,0,1-.64-.63V2.39a.64.64,0,0,1,.64-.64.64.64,0,0,1,.63.64V156.56A.63.63,0,0,1,222.37,157.19Z"/><path class="cls-3" d="M562.13,345.26c-1.15,2.47-2.15,5-3.09,7.57-1,2.82-1.94,5.67-2.85,8.53-1.61,5-3.17,10.1-5.12,15l-.21.52c-.38,1-.79,1.93-1.21,2.89a81,81,0,0,1-7.89,14.59,74.73,74.73,0,0,1-28.68,20.1l-1.5.57q-6.66,2.46-13.36,4.77s0,0,0,0l-1.31.2-1.47.21c-1.38.21-2.77.4-4.15.59l-1.77.22q-4.28.56-8.58,1l-1.16.11c-.48.05-1,.11-1.46.14l-1.49.14-.8.07-2.09.19-.36,0a6,6,0,0,1-.61.05c-1.78.15-3.57.28-5.35.41s-3.58.24-5.36.33l-5,.25c-.91,0-1.83.09-2.75.11a4.41,4.41,0,0,1-.52,0l-.74,0-1.31.05-1.26,0-2.73.11-3.76.1-2.31.05-1.19,0c-1.78,0-3.58.07-5.38.08-1.39,0-2.79,0-4.18,0h-3.27c-3.47,0-6.94,0-10.39,0-.42,0-.85,0-1.27,0s-.87,0-1.3,0h-1.28l-6.82-.07-3,0-5.93-.08-1.86,0-5.87-.08-16.85-.2-12.95-.15h-.9l-1.9,0-9-.1c-2.41,0-4.83-.06-7.24-.09l-5.29-.06-10.78-.11c-.63,0-1.27,0-1.9,0q-17.26-.19-34.55-.38l-1.91,0-35.07-.38-2,0q-19-.21-38.13-.39c-.66,0-1.33,0-2,0q-12.6-.15-25.2-.26l-6.42-.07-2,0-8-.08-3.21,0h-1.4c-2.23,0-4.46,0-6.71,0H156c-3.95,0-7.92.06-11.88.11l-7.1.11c-.68,0-1.37,0-2.05,0-6.91.11-13.81.24-20.71.27-6.66,0-13.29-.21-19.93-.57-.66,0-1.32-.06-2-.1-7.12-.42-14.23-1.05-21.3-2a77.78,77.78,0,0,1-8.75-1.71,67.82,67.82,0,0,1-6.71-2.08c-.48-.16-1-.34-1.45-.53a68.39,68.39,0,0,1-20.89-12.7c-.33-.27-.64-.57-1-.87a72.33,72.33,0,0,1-13.92-17.6c-.22-.36-.43-.73-.62-1.11-1.26-2.26-2.4-4.6-3.45-7a105.77,105.77,0,0,1-4.66-13.21c-.13-.43-.24-.85-.36-1.28a151.9,151.9,0,0,1-4.27-23.69L4.9,336.2c-.38-3.85-.66-7.71-.87-11.59,0-.48-.05-1-.08-1.46-.07-1.56-.14-3.13-.2-4.69,0-.34,0-.68,0-1-.06-1.78-.11-3.55-.15-5.32l49.6-26.47,55-29.36,18.72-10L167,224.91l10-5.37.69-.36,2.91-1.56,17-9.07,5-2.63,7-3.75,7.54,3.06,1.44.58,7.53,3.06,4.56,1.85,11.88,4.82,1.46.59,17.52,7.12,1.39.57,1.45.58,12.38,5,.54.22.85.35h0l15.27,6.2,3.08,1.25,1.68.68.36.14,1.38.57,5.41,2.19,15.4,6.26,1.36.54,18.45,7.5,1.35.55,117.8,47.82,1.32.54,17.84,7.24,4.52,1.84,1.32.53,8.49,3.45,12.8,5.19.47.19,1.65.67,1.3.52,5.36,2.18,37.17,15.09.41.16,4.45,1.8,3.82,1.55,1.31.53Z"/><path class="cls-4" d="M509.4,323.86,397.91,424.13l-1.86,0L508.1,323.34Z"/><path class="cls-4" d="M561.92,345.17,476,422.44l-2.09.19,86.7-78Z"/><path class="cls-4" d="M484.69,313.84,359.48,423.67l-1.9,0,5.63-4.95,1.18-1,119-104.36Z"/><path class="cls-4" d="M465.27,300.49,461,304.23,338.75,411.48l-1.18,1-12.28,10.79c-.63,0-1.27,0-1.9,0L412,345.51l1.1-1,46.57-40.86,4.74-4.15Z"/><path class="cls-4" d="M430.63,300.49l-41.39,35.72-1.11,1-99.29,85.7-1.91,0,55-47.48,1.14-1,86.72-74.84Z"/><path class="cls-4" d="M396,300.5l-78.32,66.27-1.16,1-64.66,54.71-2,0L395.17,299.53Z"/><path class="cls-4" d="M370.56,293,211.78,422.06c-.66,0-1.33,0-2,0l37.11-30.17,1.16-.95,92.52-75.23,1.17-.95,28-22.77Z"/><path class="cls-4" d="M355.65,275.35l-38,31.33-1.15.94-92.14,76-1.16,1-45,37.14-2,0L354.83,274.38Z"/><path class="cls-4" d="M345.08,253.28l-3.19,2.59L137.06,421.79c-.68,0-1.37,0-2.05,0l205.53-166.5,3.74-3Z"/><path class="cls-4" d="M326.11,244.76l-4,3.06L94.37,421.52c-.66,0-1.32-.06-2-.1l42.66-32.53,1.11-.85L320.73,247.28l4.61-3.52Z"/><path class="cls-4" d="M299.92,238.83,111.74,375l-1.14.82-55,39.78c-.48-.16-1-.34-1.45-.53L298.54,238.26Z"/><path class="cls-4" d="M288.64,222.6,278.15,230h0L33.29,402.39c-.33-.27-.64-.57-1-.87l18.05-12.71L51.5,388,276.75,229.42l11.16-7.86Z"/><path class="cls-4" d="M218.58,205.81,35,319.14l-1.23.74L5.05,337.61,4.9,336.2l212.24-131Z"/><path class="cls-4" d="M244,216.13,9.68,362.58c-.13-.43-.24-.85-.36-1.28l46-28.76,1.21-.75,186-116.25Z"/><path class="cls-4" d="M264.37,224.4,32,375.09l-1.15.76-12.45,8.07c-.22-.36-.43-.73-.62-1.11l245.13-159Z"/><rect class="cls-4" x="399.99" y="327.48" width="1.27" height="26.76" transform="matrix(0.33, -0.94, 0.94, 0.33, -53.09, 607)"/><polygon class="cls-4" points="341.62 376.91 316.19 367.65 316.56 366.44 341.98 375.7 341.62 376.91"/><rect class="cls-4" x="328.49" y="297.74" width="1.27" height="26.89" transform="translate(-70.52 524.36) rotate(-71.47)"/><rect class="cls-4" x="235" y="374.59" width="1.27" height="26.32" transform="translate(-204.32 498.69) rotate(-72.87)"/><polygon class="cls-4" points="140.89 385.78 112.41 374.25 112.78 373.04 141.26 384.56 140.89 385.78"/><polygon class="cls-4" points="59.26 383.92 34.51 372.94 34.88 371.73 59.64 382.71 59.26 383.92"/><polygon class="cls-4" points="363.15 420.22 337.25 412.42 337.55 411.19 363.45 418.99 363.15 420.22"/><polygon class="cls-4" points="58.83 331.73 33.42 319.7 34.06 318.61 59.47 330.64 58.83 331.73"/><path class="cls-5" d="M544.29,369.56a1.27,1.27,0,0,1-1.25-1c-.21-1.08-5.18-26.61-.94-43.12,5.6-21.86-2-64.8-2.07-65.23a1.27,1.27,0,0,1,1-1.47,1.25,1.25,0,0,1,1.47,1c.32,1.78,7.77,43.92,2,66.31-4.09,16,.93,41.74,1,42a1.25,1.25,0,0,1-1,1.48A1,1,0,0,1,544.29,369.56Z"/><path class="cls-6" d="M553.35,317.13l-1,24.16-1.48,35.55c-.38,1-.79,1.93-1.21,2.89a81,81,0,0,1-7.89,14.59,74.73,74.73,0,0,1-28.68,20.1l-1.5.57q-6.66,2.46-13.36,4.77c-.44.08-.9.16-1.34.22l-1.47.21c-1.38.21-2.77.4-4.15.59l-1.77.22q-4.28.56-8.58,1l-1.16.11c-.48.05-1,.11-1.46.14l-1.49.14-3.25.28a6,6,0,0,1-.61.05c-1.78.15-3.57.28-5.35.41s-3.58.24-5.36.33l-5,.25c-.91,0-1.83.09-2.75.11a4.41,4.41,0,0,1-.52,0l-.74,0-1.31.05-1.26,0-2.73.11-3.76.1-2.31.05-1.19,0c-1.78,0-3.58.07-5.38.08-1.39,0-2.79,0-4.18,0h-3.27c-3.47,0-6.94,0-10.39,0-.42,0-.85,0-1.27,0s-.87,0-1.3,0h-1.28l-6.82-.07-.43-58.92,72.47-53.86,15.61-11.6Z"/><path class="cls-7" d="M467.42,388.44l-60.17-21.57a.63.63,0,1,1,.43-1.19L467.17,387,551,317.64a.63.63,0,0,1,.8,1Z"/><path class="cls-7" d="M466.59,422.73h0a.64.64,0,0,1-.62-.65l.71-34.37a.65.65,0,0,1,.64-.62.64.64,0,0,1,.63.64l-.71,34.38A.64.64,0,0,1,466.59,422.73Z"/><path class="cls-7" d="M532.32,359.1h0a.64.64,0,0,1-.63-.64l.28-15.55a.62.62,0,0,1,.65-.62.63.63,0,0,1,.62.64L533,358.48A.63.63,0,0,1,532.32,359.1Z"/><path class="cls-7" d="M536.12,355.81h0a.65.65,0,0,1-.63-.65l.28-15.55a.63.63,0,0,1,.65-.62.64.64,0,0,1,.62.65l-.28,15.54A.63.63,0,0,1,536.12,355.81Z"/><path class="cls-7" d="M539.92,352.64h0a.63.63,0,0,1-.62-.64l.27-15.55a.64.64,0,0,1,.65-.63.64.64,0,0,1,.62.65L540.55,352A.63.63,0,0,1,539.92,352.64Z"/><path class="cls-7" d="M543.72,349.55h0a.62.62,0,0,1-.62-.64l.27-15.55a.64.64,0,0,1,1.27,0l-.28,15.55A.63.63,0,0,1,543.72,349.55Z"/><path class="cls-7" d="M547.52,346.38h0a.62.62,0,0,1-.62-.64l.27-15.55a.64.64,0,0,1,1.27,0l-.28,15.55A.63.63,0,0,1,547.52,346.38Z"/><path class="cls-7" d="M419.19,377.84l41.44,14.26a1.09,1.09,0,0,1,.73,1.06l-.09,3.21a1.1,1.1,0,0,1-1.44,1l-41.44-14.12a1.09,1.09,0,0,1-.74-1.06l.09-3.36A1.09,1.09,0,0,1,419.19,377.84Z"/><circle class="cls-7" cx="411.9" cy="378.31" r="2.22"/><circle class="cls-8" cx="457.82" cy="403.01" r="2.22"/><path class="cls-9" d="M452.12,400.79a2.22,2.22,0,1,0-2.21,2.22A2.22,2.22,0,0,0,452.12,400.79Z"/><path class="cls-7" d="M454.52,415.16v8.64a4.41,4.41,0,0,1-.52,0l-.74,0v-8.19l-35.78-10.79v19.46c-.42,0-.85,0-1.27,0V404.08a.61.61,0,0,1,.23-.49.64.64,0,0,1,.55-.13L454,414.54A.64.64,0,0,1,454.52,415.16Z"/><path class="cls-5" d="M490.86,335.33,489.49,421c-2.85.36-5.71.69-8.57,1l-1.17.12c.69-35.26,1.55-79.22,1.55-79.56l5,4.46Z"/><path class="cls-10" d="M575.92,260.54c0,.66,0,1.32,0,2s0,1.12,0,1.68q0,4.73-.13,9.46l-61,52.37h0l-10.21,8.78-.68.57-10.45,9-5.79,5-.77.66-.32-.13-7.17-2.8L254.78,259.24,249.12,257l-.23-.09-24.21-9.46-20.51-8-2-.81-21.58-8.44L167,224.91l-58.43-22.86h0l-1.34-.52-24.76-9.68-6.93-2.71v-8.74l6.53.44,9.71.67,18.83,1.3,7.09.49L186.75,188l10.88.75,3.07.21,7,.48,30.58,2.11,14.33,1,13.71.95L288.76,195l.65.06,1.83.12,8.87.61,15.08,1,3.9.27,9.36.64,21.21,1.46,11.54.78,40.32,2.78,41.7,2.86,5.91.41,1.93.14,124,8.51h0c.42,10.54.72,19.31.83,32C575.93,251.32,576,255.93,575.92,260.54Z"/><path class="cls-10" d="M575.92,260.54,513.27,316l-17.82,15.78-8.26,7.32-.62-.24L304.49,268.68l-229-88.29L236.3,86.73,574.54,201.34c.19,4.94.35,9.29.52,13.37.42,10.54.72,19.31.83,32C575.93,251.32,576,255.93,575.92,260.54Z"/><path class="cls-11" d="M487.19,339.77a.59.59,0,0,1-.22,0L78.48,181.39a.64.64,0,0,1,.46-1.19L487.42,338.54a.64.64,0,0,1-.23,1.23Z"/><path class="cls-11" d="M575.91,262.53c0,.56,0,1.12,0,1.68l-79.5,67.91-8.57,7.31-.33,9.4a.64.64,0,0,1-.63.62h0a.61.61,0,0,1-.6-.65l.34-9.9v-.05l8.41-7.19L513.27,316Z"/><path class="cls-12" d="M293.24,191.25a41.84,41.84,0,0,0-17-12.35,43.72,43.72,0,0,0-20.34-2.34l-32.2,27.38s12.74,2.19,20.66,6.47,14.72,10.29,15.2,10.29,23.35-7.19,23.39-8.18S293.24,191.25,293.24,191.25Z"/><path class="cls-12" d="M258.4,220.81l34.84-29.56A35.33,35.33,0,0,1,313.79,196c13.33,7.92,20.12,15.13,20.12,15.13L303,243.48s-10.8-11.48-21.25-15.43A229.32,229.32,0,0,0,258.4,220.81Z"/><path class="cls-1" d="M262.57,220.44a.64.64,0,0,1-.47-.21.62.62,0,0,1,0-.89l30-27.62a.64.64,0,0,1,.9,0,.62.62,0,0,1,0,.89l-30,27.62A.65.65,0,0,1,262.57,220.44Z"/><path class="cls-1" d="M304.74,211a.59.59,0,0,1-.44-.19,25.13,25.13,0,0,0-6.88-4.22,83.61,83.61,0,0,0-12.66-3.8.62.62,0,0,1-.48-.75.64.64,0,0,1,.75-.49,81.85,81.85,0,0,1,12.9,3.88,25,25,0,0,1,7.26,4.49.62.62,0,0,1,0,.89A.6.6,0,0,1,304.74,211Z"/><path class="cls-1" d="M318.94,217.43a.63.63,0,0,1-.5-.24,72,72,0,0,0-12-11.36c-7.3-5.48-18.1-6.29-18.21-6.29a.64.64,0,0,1,.09-1.27c.46,0,11.29.84,18.88,6.55a73.14,73.14,0,0,1,12.23,11.58.62.62,0,0,1-.1.89A.64.64,0,0,1,318.94,217.43Z"/><path class="cls-1" d="M324.42,213.15a.62.62,0,0,1-.56-.34c0-.07-3.64-6.7-14-12.14s-16.55-5.73-16.61-5.73a.64.64,0,0,1-.62-.65.61.61,0,0,1,.66-.61c.25,0,6.44.26,17.16,5.87s14.41,12.39,14.56,12.67a.64.64,0,0,1-.27.86A.73.73,0,0,1,324.42,213.15Z"/><path class="cls-1" d="M276.77,202.79a.63.63,0,0,1-.47-.2c-.07-.08-7.71-8.21-16.13-11.6s-13.89-3.67-13.94-3.67a.64.64,0,0,1-.61-.66.65.65,0,0,1,.66-.6c.23,0,5.7.27,14.36,3.76s16.27,11.57,16.59,11.91a.62.62,0,0,1,0,.89A.6.6,0,0,1,276.77,202.79Z"/><path class="cls-1" d="M273,206a.64.64,0,0,1-.49-.22,46.17,46.17,0,0,0-13.17-9.81,52.38,52.38,0,0,0-17.6-4.9.63.63,0,0,1-.59-.67.64.64,0,0,1,.68-.59,52.62,52.62,0,0,1,18.08,5,46.71,46.71,0,0,1,13.57,10.12.63.63,0,0,1-.48,1Z"/><path class="cls-1" d="M258.47,202.79a.61.61,0,0,1-.47-.21s-1.48-1.6-6.24-4.16-14.43-3.36-14.53-3.36a.63.63,0,0,1-.58-.68.64.64,0,0,1,.68-.59c.41,0,10,.81,15,3.52s6.52,4.36,6.58,4.43a.63.63,0,0,1-.05.89A.61.61,0,0,1,258.47,202.79Z"/><path class="cls-1" d="M288.27,193.46a.61.61,0,0,1-.45-.19,45.14,45.14,0,0,0-17.06-10c-10.71-3.51-17-2.77-17-2.77a.63.63,0,1,1-.16-1.25c.26,0,6.6-.78,17.59,2.81a45.6,45.6,0,0,1,17.57,10.36.63.63,0,0,1,0,.9A.61.61,0,0,1,288.27,193.46Z"/><path class="cls-7" d="M273.47,167.5l28.68-23.19a1.16,1.16,0,0,1,1.13-.19l150.11,55.06a1.17,1.17,0,0,1,.45,1.89L427.54,229a1.17,1.17,0,0,1-1.28.28L273.77,169.49A1.16,1.16,0,0,1,273.47,167.5Z"/><path class="cls-7" d="M451.49,209a1.89,1.89,0,0,1-1.71-1.07L447.4,203a1.9,1.9,0,1,1,3.43-1.65l2.37,4.92a1.9,1.9,0,0,1-.89,2.54A2,2,0,0,1,451.49,209Z"/><path class="cls-5" d="M425.52,226.15a.69.69,0,0,1-.24-.05L278.49,167.92a.65.65,0,0,1-.4-.49.67.67,0,0,1,.23-.59l24.86-20.27a.63.63,0,0,1,.62-.1l144.58,53.05a.61.61,0,0,1,.4.44.63.63,0,0,1-.14.57L426,225.94A.64.64,0,0,1,425.52,226.15ZM280,167.14l145.38,57.62,21.73-24.38L303.7,147.78Z"/><path class="cls-5" d="M392.72,213.15a.65.65,0,0,1-.43-.17.62.62,0,0,1,0-.89l22.24-24.59a.63.63,0,0,1,.94.85l-22.24,24.59A.64.64,0,0,1,392.72,213.15Z"/><path class="cls-5" d="M411.44,192.45a.57.57,0,0,1-.22,0L299.63,150.7a.63.63,0,1,1,.44-1.18l111.59,41.7a.64.64,0,0,1-.22,1.23Z"/><path class="cls-5" d="M322.41,250l-3.49,0c-38.63-.83-56.51-11.66-56.69-11.77a.64.64,0,0,1,.67-1.08c.17.11,17.81,10.76,56.05,11.58,29.38.63,48.4-6.63,58.21-22.19,4.57-7.25,12.76-10.13,20.68-12.93a90.28,90.28,0,0,0,9.57-3.78c5.91-2.9,7.21-8.84,8.48-14.58.85-3.88,1.66-7.54,3.77-10.36a21.49,21.49,0,0,1,6.25-6,15.21,15.21,0,0,0,4.14-3.7c3.46-4.37,2.85-11,2.85-11.11a.62.62,0,0,1,.56-.69.64.64,0,0,1,.7.57c0,.29.66,7.23-3.11,12a16.23,16.23,0,0,1-4.44,4,20.27,20.27,0,0,0-5.93,5.68c-1.95,2.6-2.73,6.13-3.55,9.88-1.33,6-2.71,12.27-9.16,15.43a92.09,92.09,0,0,1-9.71,3.85c-7.71,2.72-15.69,5.53-20,12.41C368.56,242.51,350.28,250,322.41,250Z"/><polygon class="cls-13" points="279.9 105.64 244.25 130.46 241.19 132.6 236 136.21 191.05 118.83 235.48 88.96 279.9 105.64"/><polygon class="cls-1" points="244.25 121.67 244.25 130.46 241.19 132.6 241.19 121.67 244.25 121.67"/><path class="cls-13" d="M279.9,105.64V97.72L238.64,83.93l-48,28.78.44,6.12s49.07-7.87,49.5-8S279.9,105.64,279.9,105.64Z"/><path class="cls-12" d="M197.63,118.83c.06-.22,37.12,14.77,37.12,14.77v-5.82l-39.94-15.19Z"/><polygon class="cls-8" points="279.89 97.56 236.69 126.86 190.27 109.46 235.71 82.78 279.89 97.56"/><path class="cls-8" d="M279.89,97.56l.12-5.39L238.94,77.8l-49,28.08.35,3.58s49.77-7.15,50.19-7.25S279.89,97.56,279.89,97.56Z"/><path class="cls-12" d="M196.86,109.56c.06-.22,38.62,14.68,38.62,14.68l.08-3.29-41.44-15.14Z"/><polygon class="cls-14" points="277.26 94.5 239.78 119.81 201.5 104.56 239.91 79.47 277.26 94.5"/><path class="cls-14" d="M277.35,87.41l-.09,7.09s-33,3.85-33.33,3.94-18.25,2.64-30.73,4.44l-9.78,1.41-1.92.28-.06-1-.32-5.13,0-.72,40.13-23Z"/><path class="cls-15" d="M239.84,112.38a.63.63,0,0,1-.34-1.16l36.74-23.53a.63.63,0,1,1,.68,1.07l-36.74,23.52A.59.59,0,0,1,239.84,112.38Z"/><path class="cls-12" d="M238.82,112.28l-.06,5.31s-26.68-10.13-35.34-13.3c-.84-.32-1.53-.56-2-.71l-.32-5.13,12.08,4.43Z"/><polygon class="cls-12" points="238.18 108.5 223.37 102.65 228.02 99.38 242.67 105.52 238.18 108.5"/><path class="cls-5" d="M468.45,187.34a32.59,32.59,0,0,1-12.74-2.58c-10.27-4.39-19.67-15.39-16.85-27.12a1.26,1.26,0,0,1,2.46.59c-2.49,10.38,6.07,20.22,15.38,24.2a30.07,30.07,0,0,0,21,.89,139.25,139.25,0,0,0,20.58-8.73,1.26,1.26,0,1,1,1.17,2.24,141.72,141.72,0,0,1-21,8.9A32.12,32.12,0,0,1,468.45,187.34Z"/><path class="cls-12" d="M349.82,258.81,394.16,233a54.21,54.21,0,0,1,8.45-3.7l33.78,27.38S415,269.92,403.84,275.89c-8.75,4.69-23.19,12.91-23.19,12.91Z"/><path class="cls-1" d="M421.56,251.11a.6.6,0,0,1-.4-.15L402,235.13a.65.65,0,0,1-.08-.9.62.62,0,0,1,.89-.08L422,250a.64.64,0,0,1-.4,1.13Z"/><path class="cls-1" d="M416.68,264.53a.59.59,0,0,1-.41-.16L388.71,240.3a.63.63,0,1,1,.83-1l27.56,24.07a.63.63,0,0,1,.06.89A.62.62,0,0,1,416.68,264.53Z"/><path class="cls-1" d="M412.87,266.75a.61.61,0,0,1-.42-.16L384.9,242.52a.63.63,0,0,1-.06-.89.62.62,0,0,1,.89-.06l27.56,24.07a.63.63,0,0,1,.06.89A.66.66,0,0,1,412.87,266.75Z"/><path class="cls-1" d="M409.06,269a.66.66,0,0,1-.42-.15l-27.55-24.07a.64.64,0,0,1-.06-.9.63.63,0,0,1,.89-.06l27.56,24.07a.63.63,0,0,1-.42,1.11Z"/><path class="cls-1" d="M405.25,271.18a.66.66,0,0,1-.42-.15L377.28,247a.63.63,0,0,1,.83-1l27.56,24.07a.63.63,0,0,1-.42,1.11Z"/><path class="cls-1" d="M371.36,272.12a.62.62,0,0,1-.44-.18l-13.51-13a.63.63,0,1,1,.88-.91l13.51,13a.64.64,0,0,1-.44,1.1Z"/><path class="cls-14" d="M477.79,259.24c-1.39,1.68-26.64,23-31.65,26.2s-8,1.9-12.72-.47-3.54-6.74-2.73-8.77,23.48-17.45,29.7-22.18c5.3-4,8.29-5.35,11.69-4.41.31.08.63.19,1,.31s.57.22.86.36a7.08,7.08,0,0,1,1.41.86,6.68,6.68,0,0,1,.57.49C478.45,254,478.94,257.85,477.79,259.24Z"/><path class="cls-12" d="M475.31,251.14c-9.61,7.2-35.81,27.51-36.05,27.18a13.41,13.41,0,0,0-2.71-1.41s26.58-19.63,36.49-27c.28.11.57.22.86.36A7.08,7.08,0,0,1,475.31,251.14Z"/><path class="cls-12" d="M479,250.06a33.18,33.18,0,0,0-4.78-.11c-.62,0-.72.75-.45,1.2.36.61,1.51.68,2.12.85.95.26,1.89.52,2.85.74s1.41-.24,1.52-1.22S480,250.18,479,250.06Z"/><path class="cls-12" d="M572,89.24,498.89,62.66V.51q3.58.24,7.11.68l1.27.17a104.53,104.53,0,0,1,10.81,2c1.52.37,3,.78,4.52,1.24.42.13.85.25,1.26.39a65,65,0,0,1,16.47,7.88c.43.29.85.59,1.27.89.66.46,1.31,1,1.94,1.44a61.53,61.53,0,0,1,14.53,16.56c.44.7.86,1.41,1.27,2.13.66,1.18,1.29,2.37,1.9,3.58.26.54.53,1.07.77,1.61a94.48,94.48,0,0,1,6.9,21c0,.08,0,.16.06.23l.24,1.22a142.63,142.63,0,0,1,2.3,18.32c0,.46.08.92.1,1.39C571.78,83.89,571.89,86.57,572,89.24Z"/><path class="cls-1" d="M571.51,79.83l-12.17-4.44-1.27-.45-16.47-6-1.27-.45-16.47-6L522.6,62l-15.33-5.57V1.36L506,1.19V56.91a.65.65,0,0,0,.42.59l65.19,23.72C571.59,80.75,571.55,80.29,571.51,79.83Z"/><path class="cls-1" d="M569,60.29l.24,1.22-9.87-3.44-1.27-.43L541.6,51.93l-1.27-.44-16.47-5.72-1.26-.44L507.27,40l-.85-.29.42-1.21.43.16L522.6,44l1.26.44,16.47,5.71,1.27.45,16.47,5.71,1.27.44,9.57,3.32C568.94,60.14,569,60.22,569,60.29Z"/><path class="cls-1" d="M561.24,37.47c.26.54.53,1.07.77,1.61l-2.67-.93-1.27-.43L541.6,32l-1.27-.44-16.47-5.72-1.26-.44-15.33-5.32-.85-.29.42-1.2.43.15,15.33,5.32,1.26.44,16.47,5.72,1.27.44,16.47,5.71,1.27.45Z"/><path class="cls-1" d="M522.6,4.6c.42.13.85.25,1.26.39v58H522.6Z"/><path class="cls-1" d="M540.33,12.87c.43.29.85.59,1.27.89V69.27h-1.27Z"/><path class="cls-1" d="M558.07,31.76c.44.7.86,1.41,1.27,2.13V75.61h-1.27Z"/><path class="cls-16" d="M516,25.75a5.35,5.35,0,0,0-3.08.53.53.53,0,0,0-.62.16,7.37,7.37,0,0,0-.5.61,8.55,8.55,0,0,0-2.59,5.83.57.57,0,0,0,.77.58,6.27,6.27,0,0,0,2.23,4.61,4.9,4.9,0,0,0,7.9-2.92C520.87,31.63,520.55,26.27,516,25.75Zm3,7.88c-.17,1.75-.61,3.43-2.47,4.09a3.85,3.85,0,0,1-4.3-1.43c-1.69-2.26-1.12-6.13.52-8.41a4.14,4.14,0,0,1,2.47-.9C518.93,26.87,519.33,30.86,519.07,33.63Z"/><path class="cls-17" d="M556.29,57.73c-2.74,3.21-5.57,6.33-8.47,9.4-1.33-2.48-2.57-5-3.72-7.55-.33-.74-1.42-.1-1.09.64q1.89,4.25,4.11,8.32a.65.65,0,0,0,1,.12q4.67-4.89,9.07-10C557.71,58,556.82,57.11,556.29,57.73Z"/><path class="cls-18" d="M575.29,220.63c-.07.3-.13.59-.19.9-.16.7-.32,1.41-.5,2.1a43.68,43.68,0,0,1-1.25,4.27,85,85,0,0,1-7.44,14.92,7,7,0,0,1-.75,1.2l-.12.18h0c-3.48,4.42-12,7.55-22.09,7.55s-18.59-3.13-22.08-7.55h0a1.93,1.93,0,0,1-.11-.18,7.77,7.77,0,0,1-.76-1.2,85.7,85.7,0,0,1-7.44-14.92,72.17,72.17,0,0,1-2.62-10.85l-.27-1.63c-.51-3.14-.84-6-1-7.7a9.29,9.29,0,0,1-.19-1.82c0-9.57,15.46-17.33,34.52-17.33,14,0,26.13,4.21,31.51,10.25l.09,2.52c0,.88.06,1.74.1,2.58V204c0,.25,0,.51,0,.76.14,3.57.26,6.84.39,10C575.15,216.74,575.22,218.7,575.29,220.63Z"/><path class="cls-19" d="M574.67,204.75c-.14,7.53-14.13,13.61-31.35,13.61S512,212.21,512,204.63s14-13.74,31.34-13.74c16.78,0,30.47,5.77,31.32,13V204C574.65,204.24,574.67,204.5,574.67,204.75Z"/><path class="cls-20" d="M572.87,154.06c0-.6,0-1.22-.07-1.83q-.16-6-.3-11.94a53.37,53.37,0,0,0-9.15,12.33c-2.28,4.43-5.33,14.81-.3,17.67a4.74,4.74,0,0,0,1.22.5,8.11,8.11,0,0,0,3.2.2,10.05,10.05,0,0,0,5.85-3C573.15,163.36,573,158.71,572.87,154.06Z"/><path class="cls-21" d="M572.8,152.23c0,.61,0,1.23.07,1.83a9.74,9.74,0,0,0-.72,1,23.29,23.29,0,0,0-2.36,5.5A38.77,38.77,0,0,1,565,169.6c-.26.39-.5.78-.74,1.19a51.56,51.56,0,0,0-4.36,10.54c-2.78,8.33-5.37,16.73-6.51,25.47-.11.8-1.37.81-1.27,0,1.1-8.45,3.51-16.59,6.18-24.66a64.49,64.49,0,0,1,3.9-10.38c.27-.49.55-1,.84-1.47,1.81-3,3.94-5.71,5.18-9.12,1.09-3,1.95-6,4.14-8.47C572.51,152.53,572.66,152.38,572.8,152.23Z"/><path class="cls-20" d="M530,138.28c-.26-.58-.5-1.15-.74-1.7l-1.05-2.49a73.53,73.53,0,0,0-3.43-7.48,19.47,19.47,0,0,0-8.05-8.36,8.84,8.84,0,0,0-7.51-.61,7.08,7.08,0,0,0-1.17.58c-3.26,1.94-5.15,6.19-4.21,10.79s4.13,8.47,6.79,12.3a27.38,27.38,0,0,1,3.71,6.9c.09.24.16.48.24.74.77,2.71,1,5.57,1.89,8.24a1.8,1.8,0,0,0,.1.33c1.16,3.25,3.58,6.39,7.26,6.72a7.85,7.85,0,0,0,4.24-.86,8.78,8.78,0,0,0,1.11-.66,10.1,10.1,0,0,0,3-3.21C535.9,153,532.76,144.79,530,138.28Z"/><path class="cls-21" d="M535.68,184.3a57.06,57.06,0,0,1-4.45-12,91.25,91.25,0,0,0-2.1-9.59,21.5,21.5,0,0,0-.78-2.11,115.39,115.39,0,0,1-5-12.4q-.29-.93-.54-1.89a42.17,42.17,0,0,0,3.49-6.53c.75-1.83,1.24-3.74,1.81-5.63,0,0,0,0,0-.07a73.53,73.53,0,0,0-3.43-7.48,17.2,17.2,0,0,1-2.44,5.42,14.66,14.66,0,0,0-1.92,5.7c-.28-.89-.56-1.79-.88-2.68a53.74,53.74,0,0,0-10.32-17.41,7.08,7.08,0,0,0-1.17.58,53.37,53.37,0,0,1,10.86,18.92c.34,1,.66,2.06,1,3.1v0c-.91,3.25-3.67,5.34-5.53,8,.09.24.16.48.24.74.77,2.71,1,5.57,1.89,8.24a64.85,64.85,0,0,1,5.51-9.45c.2.69.39,1.36.6,2a116.84,116.84,0,0,0,4.64,11.29c.33.77.6,1.53.85,2.31,1,3.28,1.36,6.63,2.15,10a51.51,51.51,0,0,0,3.32,9.17c3.17,7.07,7.16,14.1,6.89,22.09,0,.8,1.22,1,1.26.18C541.89,197.43,538.73,190.87,535.68,184.3Z"/><path class="cls-20" d="M562.47,90.75a6.94,6.94,0,0,0-3-2.75,5.31,5.31,0,0,0-1.19-.43,4.59,4.59,0,0,0-2.24.05c-4.94,1.39-8.19,7.73-9.72,12.17-1.86,5.35-2.15,11.15-3,16.76q-.24,1.58-.57,3.12c0,.26-.11.54-.17.81-.21.92-.41,1.86-.61,2.79-1.15,5.42-2,10.93-1.52,16.47.4,4.28,1.4,10.17,5.27,12.75a5.21,5.21,0,0,0,2.8,1,4,4,0,0,0,1.26-.12,6.57,6.57,0,0,0,2.35-1.11c3.69-2.26,4.34-9.5,5.28-12.06,3.18-8.82,4.33-18.23,5.41-27.57,0-.16,0-.34.06-.51.22-1.87.45-3.76.63-5.63.26-2.75.45-5.52.45-8.28C564,95.62,563.75,93,562.47,90.75Z"/><path class="cls-21" d="M554.67,112.84c.08-5-.12-10,1.25-14.91,1-3.41,2.49-6.59,3.57-9.93a5.31,5.31,0,0,0-1.19-.43c-1.15,3.54-2.81,6.91-3.75,10.55-1.18,4.57-1.07,9.31-1.12,14,0,.44,0,.89,0,1.32a38.38,38.38,0,0,1-10.06,3.11q-.24,1.58-.57,3.12c0,.26-.11.54-.17.81-.21.92-.41,1.86-.61,2.79a26.11,26.11,0,0,1,6.61-3.74c1.42-.53,2.9-.85,4.36-1.24-1.09,7.87-3.61,15.44-4.09,23.49-.22,3.76-.22,7.52-.32,11.28,0,.13,0,.27,0,.4,0,1.31-.09,2.63-.17,3.95-.3,5.38-1.38,10.63-2.09,16-1.43,10.83,1.23,21.69-.23,32.51-.11.8,1.11,1.14,1.22.34,1.42-10.5-1.08-21,.12-31.54.57-5,1.68-9.87,2.09-14.88.17-2.14.26-4.3.32-6.46,0-.28,0-.56,0-.83.06-2.78.09-5.57.19-8.34a73,73,0,0,1,2.37-16.1,69.74,69.74,0,0,0,2-10.26,6.61,6.61,0,0,0,.67-.24,26.69,26.69,0,0,0,4.7-3.13,28.57,28.57,0,0,1,3-1.84c0-.16,0-.34.06-.51.22-1.87.45-3.76.63-5.63A33.92,33.92,0,0,1,554.67,112.84Z"/><path class="cls-20" d="M507.63,149.27a24.56,24.56,0,0,0-6.26-6.63c-2.2-1.57-4.85-2.82-7.51-2.38a6.81,6.81,0,0,0-2.27.74,4.23,4.23,0,0,0-1,.73c-5.08,5.06,7.3,20.45,11.31,23.19a10.63,10.63,0,0,0,4.41,2,4.84,4.84,0,0,0,4.12-1.27l.26-.3a3.77,3.77,0,0,0,.5-.9,8,8,0,0,0,.37-3.38A24.69,24.69,0,0,0,507.63,149.27Z"/><path class="cls-21" d="M533,205.79c.71,1,1.69.54,1.51-.07S527,192.9,523.86,186.09c-3.58-7.69-7.24-15.22-12.67-21.68-.8-.94-1.62-1.88-2.5-2.77-6.26-6.43-11.1-14-17.1-20.64a4.23,4.23,0,0,0-1,.73,101.19,101.19,0,0,1,7.69,9.11A102.07,102.07,0,0,0,507,161.7c1.23,1.27,2.39,2.57,3.46,3.91,5.43,6.68,9.12,14.23,12.84,22.17A186.91,186.91,0,0,0,533,205.79Z"/><path class="cls-12" d="M575.1,221.53c-.16.7-.32,1.41-.5,2.1-2.8,2.28-6.13,4.15-9.79,4.27a15.2,15.2,0,0,1-5.4-1.12c-3.4-1.16-5.84-1.47-9,.55s-5.8,3-9.58,1.42a57.69,57.69,0,0,1-6.62-3.78c-3.5-2-5.39.11-8.38,1.41a8.48,8.48,0,0,1-8.9-.88c-2.68-2.07-4.28-6.28-7-8.45l-.27-1.63a12.24,12.24,0,0,1,3.36,3.12c1.56,2,2.65,4.35,4.7,5.94,3.06,2.34,6.17,1.53,9.28-.16,1.23-.65,2.54-1.79,4-2,1.67-.22,2.57.65,3.89,1.56a33,33,0,0,0,6.55,3.75c3.44,1.36,5.84.12,8.69-1.61,3.07-1.87,5.56-1.86,8.93-.72,2.94,1,5.55,1.76,8.63.84a20,20,0,0,0,7.13-4.31C574.88,221.73,575,221.64,575.1,221.53Z"/><path class="cls-7" d="M476.05,226.7a9.23,9.23,0,0,1-.49,1.25,24.09,24.09,0,0,1-2.72,4.36c-4,5.22-9.95,6.89-14.6,3.78s-3.15-9,.82-14.24a26.26,26.26,0,0,1,2.48-2.88c.34-.33.67-.65,1-.93,2.62-2.25,5.51-3.19,8.73-1.58a8.86,8.86,0,0,1,1.2.7c.22.14.43.29.65.46C476.66,220.36,477.18,223.45,476.05,226.7Z"/><path class="cls-5" d="M476.05,226.7a9.23,9.23,0,0,1-.49,1.25,71.67,71.67,0,0,0-7.07-5.17l-1.16-.73-.14-.08a45.31,45.31,0,0,0-5.65-3c.34-.33.67-.65,1-.93a45.93,45.93,0,0,1,4.85,2.57l1.09.68c.23.13.45.29.69.43A74.41,74.41,0,0,1,476.05,226.7Z"/><path class="cls-5" d="M472.48,217.16a12.27,12.27,0,0,0-2.24,2c-.82,1-1.41,1.66-1.75,2.12l-.41.53a.63.63,0,0,1-.6.26l-.15,0-.14-.08a.64.64,0,0,1-.14-.89l.35-.47c.35-.45,1-1.23,1.88-2.27a14.4,14.4,0,0,1,2-1.88A8.86,8.86,0,0,1,472.48,217.16Z"/><path class="cls-5" d="M476.16,267.84l10.72,14.66a.93.93,0,0,0,1.08.33l36.42-13.28a.94.94,0,0,0,.42-1.47l-11.09-13.95a.92.92,0,0,0-1.05-.3l-36,12.56A.94.94,0,0,0,476.16,267.84Z"/><polygon class="cls-7" points="484.32 265.72 493.49 278.56 522.28 268.3 512.08 255.65 484.32 265.72"/><circle class="cls-7" cx="484.44" cy="272.72" r="1.39"/><polygon class="cls-7" points="480.57 53.05 474.01 173.71 468.58 176.56 297.23 119.02 300.1 6.29 306.54 3.75 480.57 53.05"/><rect class="cls-7" x="374.74" y="132.76" width="8.23" height="31.25"/><polygon class="cls-12" points="304.24 9.24 302.49 115.82 466.69 170.98 472.5 56.75 304.24 9.24"/><polygon class="cls-22" points="325.09 23.52 322.25 113.05 458.37 158.77 463.18 64.08 325.09 23.52"/><polygon class="cls-12" points="455.85 70.16 451.62 150.11 428.23 142.26 415.08 137.84 413.98 137.47 402.87 133.73 329.5 109.09 331.97 33.76 455.85 70.16"/><path class="cls-1" d="M368.35,58.37l-.18,0L343,50.9a.63.63,0,1,1,.36-1.21l25.18,7.43a.64.64,0,0,1-.18,1.25Z"/><path class="cls-1" d="M385.72,68.36l-.18,0L343,55.88a.65.65,0,0,1-.43-.79.64.64,0,0,1,.79-.43L385.9,67.12a.63.63,0,0,1-.18,1.24Z"/><path class="cls-1" d="M366.61,73.64l-.16,0-24.71-6.56a.64.64,0,0,1,.33-1.23l24.7,6.56a.64.64,0,0,1-.16,1.25Z"/><path class="cls-1" d="M366.61,78.69a.45.45,0,0,1-.16,0L341.74,72.1a.63.63,0,0,1-.45-.77.64.64,0,0,1,.78-.45l24.7,6.56a.64.64,0,0,1-.16,1.25Z"/><path class="cls-1" d="M366.61,83.73a.44.44,0,0,1-.16,0l-24.71-6.56a.63.63,0,1,1,.33-1.22l24.7,6.56a.63.63,0,0,1,.45.77A.62.62,0,0,1,366.61,83.73Z"/><path class="cls-1" d="M386.86,120.79a.69.69,0,0,1-.2,0l-50.44-16.11a.65.65,0,0,1-.44-.63l2.38-61.6a.65.65,0,0,1,.26-.49.63.63,0,0,1,.55-.09l51.82,15.28a.65.65,0,0,1,.45.65l-3.75,62.43a.63.63,0,0,1-.27.48A.61.61,0,0,1,386.86,120.79Zm-49.79-17.2,49.2,15.72L390,58.2,339.39,43.28Z"/><path class="cls-5" d="M473.66,57a.62.62,0,0,1-.57-.36.63.63,0,0,1,.29-.84l4.68-2.28a.64.64,0,0,1,.56,1.14L473.94,57A.58.58,0,0,1,473.66,57Z"/><polygon class="cls-7" points="338.93 152.48 350.03 144.37 414.96 167.49 406.53 176.41 338.93 152.48"/><path class="cls-5" d="M383,162.9a.52.52,0,0,1-.21,0l-8.23-2.9a.65.65,0,0,1-.43-.58l-.1-5.76a.62.62,0,0,1,.62-.64.63.63,0,0,1,.65.62l.09,5.31,7,2.46v-4.54a.63.63,0,0,1,.63-.63.64.64,0,0,1,.64.63v5.44a.61.61,0,0,1-.27.51A.63.63,0,0,1,383,162.9Z"/><path class="cls-5" d="M382.39,148.12a.63.63,0,0,1-.19,0l-7.07-2.27a.63.63,0,0,1,.38-1.21l7.08,2.27a.64.64,0,0,1-.2,1.24Z"/><path class="cls-8" d="M315.14,107.68a2.7,2.7,0,1,0-2.65,3.18A2.95,2.95,0,0,0,315.14,107.68Z"/><path class="cls-22" d="M306.19,80.46l13.28,4.32L319.09,96l-13.21-4.24Z"/><path class="cls-22" d="M306.61,65.18c4.09,1.32,8.65,2.8,13.37,4.35l-.38,11.3c-4.49-1.46-9.08-3-13.31-4.34Z"/><path class="cls-22" d="M307,49.89l13.44,4.37-.38,11.31-13.38-4.35Z"/><path class="cls-22" d="M307.46,34.6,321,39l-.38,11.3-13.47-4.38Z"/><path class="cls-22" d="M321.53,22.67,321.12,35c-4.77-1.56-9.46-3.08-13.55-4.39l.35-12.33Z"/><path class="cls-6" d="M428.25,117.52c.21-1.42.31-2.89-.19-3.69s-1.16-.66-1.88-.81c-2.79-.6-5.73-.8-8.54-1.31a41.76,41.76,0,0,1-7.31-1.49.69.69,0,0,0-1-.62c-1.14.52-1.22,2.11-1.55,3.2-.85,2.82-1.67,5.61-2.42,8.44a102.33,102.33,0,0,0-2.53,12.49L414,137.47c.33-1.38.63-2.76.93-4.16.08,1.51.13,3,.17,4.53l13.15,4.42c.33-3.23.53-6.48.61-9.72C429,127.83,429.39,122.24,428.25,117.52Z"/><path class="cls-1" d="M431.91,86.73a17.9,17.9,0,0,0-7.59-2.62,50.37,50.37,0,0,0-9.27.11c-1.48.17-2.27.42-2.95,1.87-1,2.19-3.42,3.44-3.76,5.85-.38,2.65-1,13.85-1.42,15.28-1.18,4.36,4.33,6.58,7.47,7.09,2.18.36,4.36.73,6.55,1.08s4.56,1.08,6.75.93c3.61-.24,4.38-11.33,4.64-14.23.47-5.19,1.09-2.51,1.24-7.78C433.64,91.92,433.22,87.73,431.91,86.73Z"/><path class="cls-17" d="M426.44,80.22c1.13-2.41,2.39-5.92,1.06-8.47s-8.82-1.36-8.82-1.36a30.81,30.81,0,0,0-1.59,7c-.33,2.54.63,4,3.08,4.78,0,.8-.2,2-.2,2.85a5,5,0,0,0,.1,1.89c.44,1,2.43.85,3.28.77,1.1-.09,2.25-.32,2.36-1.61A36.36,36.36,0,0,1,426.44,80.22Z"/><path class="cls-17" d="M439.06,100.52c-1.57-1.14-3.52.61-5,1.65a.66.66,0,0,0-.85.89l0,.08a.78.78,0,0,0,.18.35l2.57,5.13c-2.51,3.61-8.58,10.64-8.39,10.82a9.36,9.36,0,0,0,1.06,2.24c.17.27,13.3-9.68,13.78-12.6C442.8,106.89,440.86,101.84,439.06,100.52Z"/><path class="cls-1" d="M441.11,101.38c-1.24-2.47-2.4-5-3.76-7.37a70.11,70.11,0,0,0-4.88-6.84,1.53,1.53,0,0,0-.5-.51c-.88-.48-1,.43-1.28.79A7.66,7.66,0,0,0,429.15,90c-1.06,4.89,1.52,11.09,3.12,15.62a.71.71,0,0,0,.86.49,62.14,62.14,0,0,0,7.73-3.79A.7.7,0,0,0,441.11,101.38Z"/><path class="cls-17" d="M429.63,120.11a1.18,1.18,0,0,0-.77-.94.51.51,0,0,0-.44-.63,3.51,3.51,0,0,0-2.35.4,12.72,12.72,0,0,0-2.78,2c-1,1.06-1,3.15.59,3.59s3.61-1.38,4.72-2.43C429.14,121.55,429.77,120.94,429.63,120.11Z"/><path class="cls-6" d="M382.88,81.5q-6.28-10.31-11.56-21.14c-.35-.73-1.45-.09-1.09.64q5.28,10.85,11.55,21.14C382.21,82.83,383.3,82.19,382.88,81.5Z"/><path class="cls-17" d="M400.67,87.2a.59.59,0,0,0-.23,0l-3.14.61a56.84,56.84,0,0,1-8.7-4.66c-1.05-.69-3.26-1.87-4.48-2.52a6,6,0,0,0-2.92-5.14c-1.68-1-3.3.41-3.34,2.15a6.06,6.06,0,0,0,3,5.18c.45.23,1.08,1.2,1.46,1.56,3.73,3.56,12.41,10.27,17.72,10.12,1.18,0,3.07,0,3.56-1.23C404.27,91.55,400.81,86.73,400.67,87.2Z"/><path class="cls-1" d="M415.76,92.53a61.44,61.44,0,0,0-.82-6.91h0c.8-.14.46-1.36-.34-1.23L399.93,87a.64.64,0,0,0-.44.78,45.56,45.56,0,0,0,2.38,9.41.65.65,0,0,0,.61.47c2.78-.19,5.57-.42,8.34-.74,1.05-.12,3.74.12,4.59-.83S415.83,93.6,415.76,92.53Z"/><path class="cls-10" d="M430.58,70.1a2.78,2.78,0,0,0-.55-1.57,4,4,0,0,0-2-1,3.75,3.75,0,0,0-2.91-.66,2.23,2.23,0,0,0-.64-.3c-1.25-.32-3.28.42-4.32,1.08-.7.44-1.78,1.51-1.73,2.44s-.34.84.71,1.12,1.74.18,2.52,1a30.76,30.76,0,0,0,2.09,2.62c.33.28.52.25.88.43h.1l0,.07a3.46,3.46,0,0,1,.57,3.11,3.56,3.56,0,0,0,.51,2.26.63.63,0,0,0,1.09,0c.37-.78.87-1.6,1.25-2.44a4.76,4.76,0,0,0,1-2c.61-1.14,1.57-2.12,1.78-3.44A3.69,3.69,0,0,0,430.58,70.1Z"/><path class="cls-10" d="M116.63.71V72.8L.42,133.22v-.44c0-2-.06-3.95-.07-5.92a3.93,3.93,0,0,1,0-.49C.21,111.51.47,96.61,2.7,82c.15-1.07.33-2.13.52-3.19.08-.5.17-1,.27-1.49q1-5.37,2.37-10.68c6.08-22.93,19.51-45,40.47-56,1.7-.9,3.41-1.71,5.16-2.45l1.27-.51c15-6,31.84-6.9,48.35-7h.52l9.71,0v0Z"/><path class="cls-12" d="M111.34.72V69.63L42.62,104.76l-1.27.64-41,21C.21,111.51-.79,96.61,1.44,82c.15-1.07.32-2.13.51-3.19.08-.5.17-1,.27-1.49.15-.85.3-1.68.48-2.53l.12-.57c.06-.3.12-.62.19-.93s.08-.38.12-.57c.43-2,.93-4.06,1.46-6.08C10.18,45.61,23.23,24,41.35,12.3c.42-.29.84-.56,1.27-.81,1.2-.75,2.45-1.46,3.71-2.13,1.7-.9,3.41-1.71,5.16-2.44.42-.18.85-.36,1.27-.52C67.79.36,84.6.77,101.11.7Z"/><path class="cls-10" d="M42.62,11.49v96.78H41.35v-96C41.77,12,42.19,11.74,42.62,11.49Z"/><path class="cls-10" d="M113.59,28.62l-2.25.94L42.62,58.19l-1.27.53L2.7,74.81l.12-.57c.06-.3.12-.62.19-.93l38.34-16,1.27-.52,68.72-28.63,1.76-.74Z"/><path class="cls-12" d="M162.2,66a15.54,15.54,0,0,1-3.46,2.68c-.39.21-.8.43-1.21.6a10.79,10.79,0,0,1-1.36.56c-3.7,1.31-7.56,1-11.36,1.15-.43,0-.88,0-1.31.08a19.56,19.56,0,0,0-3.62.61c-5,1.38-5.83,4.88-7.76,9-1.54,3.34-3.48,4.81-6.56,5.36-.42.08-.85.14-1.3.19l-.7,0c-1.58.12-3.15.07-4.72.22-3.06.29-6.14.89-9.14,1.47l-.75.15c.52-2.13,1-4.27,1.37-6.42a41.9,41.9,0,0,0-1.07-18.84c-.11-.41-.23-.81-.36-1.23-.25-.86-.54-1.74-.86-2.61-1.75-4.89-3.84-9.79-4.7-14.94-.09-.48-.17-1-.22-1.47S103,41.6,103,41.05c-.4-6.79,2.65-13,3.21-19.7a39.58,39.58,0,0,0-.41-9.17c-.07-.51-.16-1-.25-1.52a68.47,68.47,0,0,0-2-7.88c-.21-.7-.44-1.39-.68-2.08,1.73,0,3.46,0,5.18,0h13.49c1.76,0,3.54,0,5.3,0l8.53,0c.42,0,.84,0,1.27,0,3,0,6,0,9,0,.42,0,.84,0,1.27,0h6.42a71.43,71.43,0,0,1,.07,11.7c-.22,2.93-.64,5.85-1,8.76-.07.62-.15,1.23-.21,1.85-.2,1.7-.36,3.41-.43,5.12A37.23,37.23,0,0,0,155,44.71c.08.18.15.37.23.54s.17.42.28.62a102,102,0,0,1,5.06,12.56A57.38,57.38,0,0,1,162.2,66Z"/><path class="cls-22" d="M152.66,48.56c-.15-.27-.3-.53-.46-.79,1.08-.67,2.17-1.3,3.29-1.9-.11-.2-.19-.41-.28-.62s-.15-.36-.23-.54c-1.15.62-2.29,1.29-3.42,2a22.5,22.5,0,0,1-2.8-5.56c-.8-2.87-.46-5.89-.41-8.82,0-2,0-3.93-.06-5.89q1.88-1.7,3.84-3.32c.06-.62.14-1.23.21-1.85-1,.86-2.05,1.72-3.06,2.6-.36.3-.7.62-1.05.93-.12-2.95-.32-5.9-.54-8.85-.24-3.42-.48-6.84-.64-10.25,2-1.62,4-3.29,6-4.89h-2C149.67,1.91,148.32,3,147,4.16c-.05-1.13-.09-2.25-.11-3.37-.43,0-.85,0-1.27,0,0,1.44.1,2.9.16,4.35a72.32,72.32,0,0,1-6.88,5.05c-.62.4-1.26.78-1.91,1.15A65.69,65.69,0,0,0,136.57.76c-.43,0-.85,0-1.27,0A66.43,66.43,0,0,1,135.67,12a28,28,0,0,1-12.82,3.66,46,46,0,0,0-1.13-7.91A53.47,53.47,0,0,0,119.56.72H118.2c.53,1.36,1,2.72,1.43,4.13a47.41,47.41,0,0,1,2,10.82c-5.1-.28-9.76-2.5-14.42-4.37-.54-.22-1.1-.43-1.67-.63.09.5.18,1,.25,1.52,2.19.79,4.3,1.69,6.2,2.43a30.07,30.07,0,0,0,9.69,2.1,37.6,37.6,0,0,1-.1,4.11c-.43,5.29-2.47,9.9-4.23,14.84a28.47,28.47,0,0,0-1.42,5.55c-4.13.34-8.5.74-12.79,1.48,0,.5.13,1,.22,1.47,4.1-.73,8.25-1.26,12.41-1.66a19.73,19.73,0,0,0,.19,4.78c.73,4.19,2.63,8,4.27,11.91a28.64,28.64,0,0,0-7.38,1,28.09,28.09,0,0,0-3.93,1.48c.13.42.25.82.36,1.23a25.8,25.8,0,0,1,6.86-2.19,30.65,30.65,0,0,1,4.59-.36c.07.18.15.36.21.53a56.62,56.62,0,0,1,3.35,25.39c.45,0,.88-.11,1.3-.19A59.06,59.06,0,0,0,124,66.37a47.45,47.45,0,0,0-2-6,46.13,46.13,0,0,0,6.11-.29,29.57,29.57,0,0,0,9.46-3.24l.61-.33a.2.2,0,0,1,0,0c1.7,4.9,3.6,9.69,5.32,14.54.43,0,.88-.06,1.31-.08-1.23-3.52-2.54-7-3.87-10.55-.58-1.54-1.1-3.09-1.59-4.64,4-2.25,7.77-4.89,11.66-7.34a51.21,51.21,0,0,1,4.89,11.25,47.43,47.43,0,0,1,1.63,9.57c.41-.17.82-.39,1.21-.6A48.92,48.92,0,0,0,152.66,48.56Zm-17-18.45c.28-5.75.92-11.51,1.19-17.28a62,62,0,0,0,8.93-6.14c.14,2.67.33,5.36.52,8,.28,3.72.53,7.44.66,11.17-3.63,3.31-7,6.82-10.4,10.41-.29.3-.57.58-.85.84C135.62,34.85,135.6,32.51,135.7,30.11ZM118.54,36c1.59-4.48,3.49-8.74,4.1-13.51a38,38,0,0,0,.26-5.74,28.59,28.59,0,0,0,12.71-3.25c-.27,5.17-.82,10.34-1.12,15.47a79,79,0,0,0,0,9.24,11.84,11.84,0,0,1-7,2.25c-3.12.14-6.23.29-9.35.56l-.85.08A25.23,25.23,0,0,1,118.54,36Zm18.37,19.77a28.13,28.13,0,0,1-12.63,3.33l-2.78.06c-1-2.34-2-4.67-2.91-7.08a22.66,22.66,0,0,1-1.44-9.71c1.58-.13,3.17-.26,4.74-.36,4.29-.28,9.06.31,12.74-2.17a69.11,69.11,0,0,0,3.15,15.44ZM139,54.62a74.3,74.3,0,0,1-3.11-15.76c3.79-3.21,6.92-7.36,10.56-10.75l.64-.58c0,1.39.05,2.79,0,4.18-.05,4.81-.38,9,2,13.32.44.81.88,1.59,1.32,2.39C146.61,49.81,142.88,52.39,139,54.62Z"/><path class="cls-1" d="M110.11,69.65a.64.64,0,0,1-.63-.57,73.3,73.3,0,0,0-3.55-14.28c-.94-2.9-1.91-5.91-2.62-8.93-1.82-7.68-.43-14.54,1-21.81l.29-1.43c1.47-7.33-.24-14.46-2.3-21.07a.63.63,0,0,1,.41-.79.64.64,0,0,1,.8.42c2.11,6.77,3.85,14.08,2.33,21.69l-.29,1.43c-1.5,7.44-2.8,13.86-1,21.26.7,3,1.66,6,2.59,8.85a73.63,73.63,0,0,1,3.61,14.52.63.63,0,0,1-.56.7Z"/><path class="cls-22" d="M242.56,173.44a1.27,1.27,0,0,1-.86-.33,1.26,1.26,0,0,1-.07-1.79l24.42-26.5a1.26,1.26,0,1,1,1.86,1.71L243.49,173A1.26,1.26,0,0,1,242.56,173.44Z"/><path class="cls-22" d="M260.18,157.82a.63.63,0,0,1-.46-1.07l8.27-8.82-2.13-.92a.63.63,0,0,1,.5-1.16l3,1.28a.63.63,0,0,1,.37.45.61.61,0,0,1-.15.56l-8.9,9.48A.63.63,0,0,1,260.18,157.82Z"/><path class="cls-1" d="M227.23,180.51a1.23,1.23,0,0,0,.51.76,1.25,1.25,0,0,0,1.76-.3l20.71-29.5a1.27,1.27,0,1,0-2.07-1.46l-20.71,29.5A1.28,1.28,0,0,0,227.23,180.51Z"/><path class="cls-14" d="M337.79,333.69s-2.93,7.44-4.52,9.42-2.61,3.72-1.82,5.23a3.28,3.28,0,0,0,4.91.87c1.82-1.43,4.72-7.1,6.88-10.08s6.11-9.95,6.11-9.95Z"/><path class="cls-17" d="M324.23,207.56a4,4,0,0,0-.4-1.26v0a4.73,4.73,0,0,0-.78-1.11.5.5,0,0,0-.3-.47h0l-.46-.18a2.66,2.66,0,0,0-.38-.24s0,0,0,0a.61.61,0,0,0-.54,0,6.15,6.15,0,0,0-.74-.06,5,5,0,0,0-2.11.39,5.11,5.11,0,0,0-.83.44h0a5.71,5.71,0,0,0-1.16.93,6,6,0,0,0-.7.8c-1.31,1.77-1.95,4.41-.13,5.75a3.71,3.71,0,0,0,.79.45,5.72,5.72,0,0,0,2.65.43,6.46,6.46,0,0,0,4.19-2.58,2.65,2.65,0,0,0,.21-.26A3.73,3.73,0,0,0,324.23,207.56Z"/><path class="cls-17" d="M350.67,323.88a2.7,2.7,0,0,0-1.59-.89A4.61,4.61,0,0,0,347,323a6.19,6.19,0,0,0-.71.2l-.42.14a4.13,4.13,0,0,0-.45.17l-.5.19c-.5.21-1.06.44-1.64.71l-.07,0-1.09.48-2.09,1-.71.35c-2.39,1.11-4.74,2.23-6.17,2.76a4.92,4.92,0,0,1-.81.26l-.2.06a7,7,0,0,1-1.23.11,6.68,6.68,0,0,1-.76,0,8.29,8.29,0,0,1-1.35-.23A6,6,0,0,1,328,329a11.5,11.5,0,0,1-1.21-.41c-.33-.12-.65-.26-1-.41s-.86-.39-1.28-.61a40.5,40.5,0,0,1-5.84-3.79c-1.52-1.17-2.49-2.06-2.49-2.06a10.36,10.36,0,0,1-.81,1.21c-.19.2-.41.36-.6.54a.77.77,0,0,0-.34.07,34.82,34.82,0,0,0-4.9,3c-1,.72-3.41,2.11-3.83,3.34-.72,2.1,3,3,4.5,3.62l2,.89a49.73,49.73,0,0,1,7.25,3.86c.33.23.67.46,1,.71a11.29,11.29,0,0,1,1,.75c.33.27.66.53,1,.82l.53.5c2.77,2.66,4.88,3.19,8.55,1.58,2.76-1.2,4.73-3.29,7.08-5.08.41-.3.83-.61,1.26-.88s.64-.44,1-.64l1.16-.72c.62-.37,1.24-.75,1.85-1.14s1.33-.84,1.95-1.31c.26-.19.51-.38.75-.58s.67-.56,1-.86l0,0a11.35,11.35,0,0,0,1-1.14C349.73,328.78,352,325.57,350.67,323.88Z"/><path class="cls-12" d="M350.67,323.88a2.7,2.7,0,0,0-1.59-.89A4.61,4.61,0,0,0,347,323a6.19,6.19,0,0,0-.71.2l-.42.14a4.13,4.13,0,0,0-.45.17l-.5.19c-.5.21-1.06.44-1.64.71l-.07,0-1.09.48-2.09,1-.71.35-1.87.87c-1.7.79-3.25,1.5-4.3,1.89-.31.11-.59.2-.81.26l-.2.06a7,7,0,0,1-1.23.11,6.68,6.68,0,0,1-.76,0,8.29,8.29,0,0,1-1.35-.23A6,6,0,0,1,328,329a11.5,11.5,0,0,1-1.21-.41c-.33-.12-.65-.26-1-.41s-.86-.39-1.28-.61a16.25,16.25,0,0,1-5.1,10.69c.33.23.67.46,1,.71a11.29,11.29,0,0,1,1,.75c.33.27.66.53,1,.82l.53.5c2.77,2.66,4.88,3.19,8.55,1.58,2.76-1.2,4.73-3.29,7.08-5.08.41-.3.83-.61,1.26-.88s.64-.44,1-.64l1.16-.72s.12-.06.17-.1c.57-.33,1.12-.69,1.68-1s1.33-.84,1.95-1.31c.26-.19.51-.38.75-.58s.67-.56,1-.86l0,0a11.35,11.35,0,0,0,1-1.14C349.73,328.78,352,325.57,350.67,323.88Z"/><path class="cls-8" d="M350.67,323.88a2.7,2.7,0,0,0-1.59-.89A4.61,4.61,0,0,0,347,323a6.19,6.19,0,0,0-.71.2l-.42.14a4.13,4.13,0,0,0-.45.17l-.5.19c-.5.21-1.06.44-1.64.71l.1,0a7.53,7.53,0,0,1,3.25,3.92c.33.75.59,1.92,1,3a11.35,11.35,0,0,0,1-1.14C349.73,328.78,352,325.57,350.67,323.88Z"/><path class="cls-14" d="M349,330.18a13.34,13.34,0,0,1-1.08,1.19c-.32.31-2.53,2.18-3,2.48-.76.48-1.88,1.21-2.66,1.66-.3-1.18-.73-2.92-1.17-4.14a10.68,10.68,0,0,0-3.46-4.25.41.41,0,0,1,.08-.71l5.22-2.42c2.39-1.1,6.5-1.93,7.77-.88C352.88,325,350.13,328.69,349,330.18Z"/><path class="cls-15" d="M342.54,338.78a.63.63,0,0,1-.63-.53l-.37-2.38a.64.64,0,0,1,1.26-.19l.36,2.37a.63.63,0,0,1-.52.73Z"/><path class="cls-13" d="M274.56,286.1a52,52,0,0,0-15.75-8.71,28.5,28.5,0,0,0-6.64-1.45,16.06,16.06,0,0,0-2.07,0c-4.59.25-25.47,9.12-26,9.17-.88.08-.89,1.45,0,1.37,0,.08-8.05,6.82-10.57,11.58a19,19,0,0,0-1.35,3.33c-.23.78-.43,1.55-.59,2.33-.38,1.75-.6,3.53-.83,5.3-.13,1-.27,2-.39,3-.17,1.26-.33,2.53-.47,3.8a2.73,2.73,0,0,0,0,.4,5.46,5.46,0,0,0,.07,3.09v0a2.67,2.67,0,0,0,.33.55,6.08,6.08,0,0,0,1.56,1.4,21.19,21.19,0,0,0,7.26,2.43h0l1.12.16c.76.11,1.52.18,2.28.22a23.42,23.42,0,0,0,6.47-.6s0,0,0,0a16.43,16.43,0,0,0,2.46-.71l.81-.3h0l.07,0c2.23-.87,4.22-1.92,6.79-1.77a43.31,43.31,0,0,0,6,.38,20.26,20.26,0,0,0,5-1,52.26,52.26,0,0,0,22.75,12.18l.12,0c6.33,1.52,12.17,2.27,18,5.47a24.09,24.09,0,0,0,6.77,2.93c2.86.56,6-.81,8.69.48a.68.68,0,0,0,.82-.11,52.85,52.85,0,0,0,5-6.59c3.3-4.9,6.27-10.2,6.51-10.62l0,0S281.74,292.17,274.56,286.1Z"/><path class="cls-23" d="M271.52,329.88c-1.52-3.38.18-13-6-18.41-4.66-4.09-8.07-8.62-6.52-15.17a35,35,0,0,0,.54-13.91c-.24-1.49-.38-3.29-.76-5a28.5,28.5,0,0,0-6.64-1.45,16.06,16.06,0,0,0-2.07,0c-4.59.25-25.47,9.12-26,9.17-.88.08-.89,1.45,0,1.37,0,.08-8.05,6.82-10.57,11.58a19,19,0,0,0-1.35,3.33c-.23.78-.43,1.55-.59,2.33-.38,1.75-.6,3.53-.83,5.3-.13,1-.27,2-.39,3-.17,1.26-.33,2.53-.47,3.8a2.73,2.73,0,0,0,0,.4,5.46,5.46,0,0,0,.07,3.09v0a2.67,2.67,0,0,0,.33.55,6.08,6.08,0,0,0,1.56,1.4,21.19,21.19,0,0,0,7.26,2.43h0l1.12.16c.76.11,1.52.18,2.28.22a23.42,23.42,0,0,0,6.47-.6s0,0,0,0a16.43,16.43,0,0,0,2.46-.71l.81-.3h0l.07,0c2.23-.87,4.22-1.92,6.79-1.77a43.31,43.31,0,0,0,6,.38,20.26,20.26,0,0,0,5-1,52.26,52.26,0,0,0,22.75,12.18C272.35,331.36,271.83,330.59,271.52,329.88Z"/><path class="cls-5" d="M167.08,368.47l-2.14,53.09v0h-1.41l-6.57.06H156v-.07l0-.44,2.14-53Z"/><path class="cls-5" d="M68.18,151.1c0,2.21,2.84,56,3.47,57.57s10.43,6,11.08,5.38-1.19-56.37-2.45-58S68.18,148.88,68.18,151.1Z"/><path class="cls-18" d="M240.77,338c-2.34-6.8-11.86-8.34-18-8.88-.65-.06-1.3-.11-2-.15s-1.39-.1-2.09-.14q-3.94-.22-7.9-.23h-1.73c-2.91,0-5.83.14-8.74.32-5.75.34-11.49,1-17.22,1.71-6.89.89-13.74,2-20.54,3.09-1.7.28-3.37.61-5,1-5.64,1.47-10.62,4-14.28,8.66a24.72,24.72,0,0,0-1.51,2.18,25.08,25.08,0,0,0-3.47,10.09c-.21,1.88-6.07,13.27-6.07,13.27s4.74,1.48,10.47,2.68A61.83,61.83,0,0,0,154.41,373a22.17,22.17,0,0,0,3.62-.45c2.33-.45,5.41-1.18,9-2.13,8.74-2.31,20.41-5.87,31.32-9.35,2.84-.91,5.61-1.81,8.28-2.69,10.72-3.52,19.53-6.59,22.19-7.69,4-1.66,11.79-5.28,12.27-10.41h0A5.43,5.43,0,0,0,240.77,338Z"/><path class="cls-17" d="M252.31,336.48a11.86,11.86,0,0,0-.73-1c-.12-.12-.22-.25-.34-.38a14.26,14.26,0,0,0-1.4-1.29l-.58-.43c-.13-.1-.25-.19-.39-.28l-.83-.52c-.42-.25-.83-.49-1.26-.72-1.3-.68-2.64-1.29-3.93-1.9s-3.17-1.38-4.92-2.23l-.74-.38a16.53,16.53,0,0,1-4.45-3.11,4.92,4.92,0,0,1-.48-.56,2.09,2.09,0,0,1-.14-.17c0-.36.09-.73.14-1.1v0c.09-.74.19-1.48.28-2.23q.59-4.64,1.15-9.27s0-.09,0-.13h1a.54.54,0,0,0,0-1.07h-.91l.06-.49h0c.14-1.11.28-2.24.42-3.37.08-.68-1-.68-1.09,0-.14,1.23-.29,2.47-.44,3.69a1,1,0,0,0,0,.18h-.59l-4,0c-1.51,0-3.52-.33-4.93.37a4.77,4.77,0,0,0-2.09,2.69h0A27.05,27.05,0,0,0,220,318c-.05.26-.09.49-.14.69-.13.66-.26,1.3-.37,2-.08.42-.14.84-.19,1.27s-.16,1.17-.24,1.75-.1,1-.14,1.55-.08.93-.09,1.4c0,.72-.06,1.45,0,2.17s0,1.54.09,2.3a7.65,7.65,0,0,0,.14,1.16c.29,1.87,1.06,3.66,3,4.42a13.72,13.72,0,0,0,4.28.45,44,44,0,0,1,7.14,1c1.09.24,2.17.52,3.25.81l2.23.67c.74.23,1.48.47,2.21.73l1.4.49,1.87.7c.52.19,1,.38,1.53.58l.22.08c1.72.65,5.55,3.16,7.16,1.07C254.64,341.42,253.38,338.1,252.31,336.48Z"/><path class="cls-12" d="M252.31,336.48a11.86,11.86,0,0,0-.73-1c-.12-.12-.22-.25-.34-.38a14.26,14.26,0,0,0-1.4-1.29l-.58-.43c-.13-.1-.25-.19-.39-.28l-.83-.52c-.42-.25-.83-.49-1.26-.72-1.3-.68-2.64-1.29-3.93-1.9s-3.17-1.38-4.92-2.23l-.74-.38a16.53,16.53,0,0,1-4.45-3.11c-.17-.18-.33-.37-.48-.56a2.09,2.09,0,0,1-.14-.17c0-.36.09-.73.14-1.1v0c.09-.74.19-1.48.28-2.23l-9.06-1.57L220,318c-.05.26-.09.49-.14.69-.13.66-.26,1.3-.37,2-.08.42-.14.84-.19,1.27s-.16,1.17-.23,1.75-.11,1-.15,1.55-.08.93-.09,1.4c0,.72-.06,1.45,0,2.17s0,1.54.09,2.3a7.65,7.65,0,0,0,.14,1.16c.29,1.87,1.06,3.66,3,4.42a13.72,13.72,0,0,0,4.28.45,44,44,0,0,1,7.14,1c1.09.24,2.17.52,3.25.81l2.23.67,2.21.74c.47.15.94.32,1.4.48l1.87.7c.52.19,1,.38,1.53.58l.22.08c1.72.65,5.55,3.16,7.16,1.07C254.64,341.42,253.38,338.1,252.31,336.48Z"/><path class="cls-8" d="M252.31,336.48a11.86,11.86,0,0,0-.73-1c-.12-.12-.22-.25-.34-.38a14.26,14.26,0,0,0-1.4-1.29l-.58-.43c-.13-.1-.25-.19-.39-.28a13.6,13.6,0,0,1-1.27,7,10.45,10.45,0,0,1-1.74,1.94l.22.08c1.72.65,5.55,3.16,7.16,1.07C254.64,341.42,253.38,338.1,252.31,336.48Z"/><path class="cls-8" d="M232.12,323.53a2.09,2.09,0,0,0,.14.17,81.31,81.31,0,0,1-13-1.79c.05-.43.11-.85.19-1.27a79.15,79.15,0,0,0,12.81,1.79C232.21,322.8,232.17,323.17,232.12,323.53Z"/><path class="cls-13" d="M261.56,218.84c0-.23,0-.46,0-.7-.19-4.82-.93-10.35-5-13.51a21.8,21.8,0,0,0-16.65-4.22,22.65,22.65,0,0,0-9.84,4.91c-.89.69-1.75,1.45-2.59,2.21-.46.44-.93.88-1.38,1.34-1.2,1.15-2.34,2.36-3.45,3.53a109.56,109.56,0,0,0-12.24,16.11c-.57.89-1.13,1.79-1.68,2.69-.08.16-.19.31-.26.46q-1.26,2.07-2.41,4.18c-.66,1.19-1.29,2.39-1.9,3.61s-1.1,2.21-1.62,3.32a129.68,129.68,0,0,0-5,12.2c-1.18,3.34-2.21,6.75-3.11,10.19-.61,2.28-1.14,4.57-1.62,6.87a11.15,11.15,0,0,0-2.31,5,21.89,21.89,0,0,0-.38,4.7c0,1,0,2,0,3a89,89,0,0,1-.84,14.2,112,112,0,0,1-2.6,11.24c-1.08,4-2.18,8-2.86,12a43.54,43.54,0,0,0-.68,8.15v.19c.08,3.22.37,6.93,3.25,8.93s6.94,1.71,10.32,1.5c.95-.07,1.92-.13,2.89-.22a50.63,50.63,0,0,0,5.47-.75,29.08,29.08,0,0,0,3.13-.73,19.1,19.1,0,0,0,10.43-6.63c.11-.15.23-.3.33-.45a19.1,19.1,0,0,0,1.86-3.32,27.59,27.59,0,0,0,1.6-4.88c.12-.48.24-1,.34-1.46s.16-.83.24-1.25.22-1.13.3-1.69c.07-.35.12-.69.17-1.05q.51-3.34.8-6.7c.06-.65.11-1.29.16-1.94,1.56.24,3.12.43,4.69.59h0c1.52.16,3,.27,4.55.35a91.45,91.45,0,0,0,12.92-.23.63.63,0,0,0,.63-.63,68.11,68.11,0,0,1,.78-12.19c.76-4,2.81-7.64,3.52-11.67a76.29,76.29,0,0,0,.57-9.21c0-.34,0-.68.06-1a98,98,0,0,1,1.7-12.3c.28-1.47.6-2.93.91-4.4.41-1.82.84-3.65,1.27-5.47l.27-1.13h0l.57-2.31a3.63,3.63,0,0,1,.1-.42h0c.05-.19.09-.39.14-.6A172.65,172.65,0,0,0,261,229.85q.42-3.28.55-6.6c0-.53,0-1.08,0-1.62s0-1,0-1.5S261.57,219.27,261.56,218.84Z"/><path class="cls-23" d="M245.74,246.54q-4.16,6.81-8.43,13.53l.94-7.14c.1-.8-1.17-.8-1.27,0l-3.12,23.74c-1,7.81-1.46,16.08-4.69,23.36-.33.74.76,1.39,1.09.64,3-6.79,3.59-14.27,4.55-21.56q1.08-8.26,2.17-16.53a.58.58,0,0,0,.42-.28q4.8-7.51,9.43-15.12A.63.63,0,0,0,245.74,246.54Z"/><path class="cls-17" d="M312.6,224.86a18.82,18.82,0,0,0-4.46-7.48.64.64,0,0,0-.58-1,.54.54,0,0,0-.27.07,212.44,212.44,0,0,1-25.56,11.57c-1.47.54-3,1.09-4.44,1.6q-4.17,1.46-8.41,2.74c-2.64-.78-5.28-1.63-7.89-2.54s-5.18-1.84-7.75-2.79c-3.09-1.14-6.17-2.29-9.14-3.7a39.77,39.77,0,0,1-8.24-5.1c-.62-.51-1.52.38-.9.9.19.15.38.27.55.43l-10,15.22a20.93,20.93,0,0,1-1.75,2.2c-.11.12-.23.26-.36.39-1,1.06-2,2.22-3,3.2-1.53,1.55-2.76,2.74-2.76,2.74l10,1.61c3.23.51,7,1.1,10.72,1.67,5.13.79,10.32,1.56,14.43,2.12h0l1.83.24h0c.93.12,1.76.23,2.5.31,1.39.16,2.44.26,3.06.27,1.69,0,3.21.08,4.64.08h0c7.84.05,12.52-.62,20.85-4.4a69.53,69.53,0,0,0,12-6.76l.49-.36c4.34-3.17,7.29-6.22,10.87-9.27v0c1-.87,2.08-1.73,3.24-2.6l.06-.06a.59.59,0,0,0,.19,0,.49.49,0,0,0,.31-.48A.69.69,0,0,0,312.6,224.86Z"/><path class="cls-17" d="M203.09,139.37c-.44-2.17-3.69-10.34-3.69-10.34s0-2.89.06-6.3c0-1.07,0-2.19,0-3.29,0-1.79-.05-3.51-.14-4.85-.12-2-.26-4.65-.33-6.11h0c0-.33,0-.6,0-.79s0-.19,0-.29l-1.28-.69c-1-.54-2.58-1.33-4.24-2.09-2.48-1.14-5.22-2.2-6.84-2.27a73.54,73.54,0,0,0-12.68.66c-8.07,1.14-13.54,7.31-16.66,14.48a66.52,66.52,0,0,0-5,18.27,55.34,55.34,0,0,0-.41,8.79q-.66,4.08-1.44,8.14-.65,3.49-1.4,7c-.15.72-.3,1.46-.47,2.18q-.6,2.78-1.25,5.52c-.48,2.09-2,5.31-1.72,7.44.09.84.26,1.14,1,1.44a5.36,5.36,0,0,0,2.29,0,24.34,24.34,0,0,1,3.72.18c5.06.5,13.9.07,18.94.64a22,22,0,0,0-.36,2.79c0,.76,1.14.76,1.19,0a18.27,18.27,0,0,1,.35-2.66l.44.06c.76.08.75-1.1,0-1.19l-.19,0c.41-1.76.71-4.6,1.07-7.17a33.13,33.13,0,0,1,.71-4l.57-2.32c.38-1.56.71-3.13,1-4.7,7.58,1.56,17.87,3.6,19.3-.76.71-2.13.91-5,1.46-7.23.26-1.13.48-2.27.65-3.4.25-1.42.41-2.84.59-4.22C201.14,141.86,203.64,142.09,203.09,139.37Z"/><path class="cls-5" d="M198.25,127.16c0-.14,0-.29-.05-.43-.14-.83-.57-2-1.41-1.89-.68,0-1.1,1-1.26,1.79a5.68,5.68,0,0,0,0,2.36c.28,1.06,1.33,2.46,2.18,1.32a2.85,2.85,0,0,0,.45-1.21A7.4,7.4,0,0,0,198.25,127.16Z"/><path class="cls-24" d="M192.87,144.77a.59.59,0,0,0-.86.67c.38,1.71,2.56,3.28,4.07,4a8.93,8.93,0,0,0,.9.37c.26-1.13.48-2.27.65-3.4A25.5,25.5,0,0,1,192.87,144.77Z"/><path class="cls-5" d="M198.92,107.39s.54-8.47-10-13.06C182.37,91.49,170.69,90.17,164,92a16.35,16.35,0,0,0-2.84,1.08c-6.93-.36-15.68,7-19.63,12-3.09,3.9-1.83,9.38-2.57,14.31-.35,2.33-2.12,3.38-2.18,5.72-.08,3.21.38,5.82-2.07,7.87a15.69,15.69,0,0,0-3,4.13c-1.14,1.92-.5,3.91-.66,6-.07,1.06-.86,3-1,4.69a13.36,13.36,0,0,0,4.86,1.74c3.31.39,5.26.07,8.4,1.55,4.36,2,8.61,1.28,13.25,2.37,2.61.61,6.61,2.72,9,1.14a2.76,2.76,0,0,0,.18-1.25c-.09-1.16-.74-2.17-.68-3.37a7.11,7.11,0,0,1,2-3.89,22.59,22.59,0,0,0,3-3.58c1.54-2.75.69-6.19.56-9.18a31.15,31.15,0,0,1,.35-6.84l.37-.35a23.58,23.58,0,0,0,3.42-4.08,20,20,0,0,0,3.49-1,8.24,8.24,0,0,0,3-2c.62-.63,1-1.53,1.61-2.14,1.27-1.18,4.5-1.32,5.62-2.38C195.56,107.81,198.92,107.39,198.92,107.39Z"/><path class="cls-5" d="M159.26,90.46a6.61,6.61,0,0,0-2.3-2.75,15.38,15.38,0,0,0-1.6-.85,4.83,4.83,0,0,1-2-1.93,4.16,4.16,0,0,0-5-1.66c-6.71,2.08-6.95,9.45-3.5,14.58a6.61,6.61,0,0,0,1.79,1.85c2.7,1.76,6.06.38,8.07-2.25a4.66,4.66,0,0,0,1.9-1,8,8,0,0,0,2.6-3.38A3.65,3.65,0,0,0,159.26,90.46Z"/><path class="cls-17" d="M177.85,125.28c.06-.37.12-.72.21-1.08a.61.61,0,0,0-.95-.62,6.16,6.16,0,0,0-1.43-1.54,1.2,1.2,0,0,0-.24-.15,5.72,5.72,0,0,0-5.45-.56c-2.7,1.06-3.93,3.71-4.28,6.52a16.34,16.34,0,0,0,.24,5.36c.53,2.46,2.24,4.22,4.13,5.78l.72.57c1.19.91,3,2.06,4.26,1.73l.13,0c.87-.29,1.34-1.81,1.62-3.23.19-1,.29-1.88.39-2.37a59.69,59.69,0,0,0,.41-7.92.58.58,0,0,0,.48-.56A6.63,6.63,0,0,0,177.85,125.28Z"/><path class="cls-5" d="M203.17,193.46a.59.59,0,0,1-.43-.17,116.91,116.91,0,0,1-17.84-22c-7.18-12-11.18-33.8-11.22-34a.65.65,0,0,1,.52-.74.63.63,0,0,1,.73.52c0,.21,4,21.8,11.06,33.59s17.51,21.62,17.61,21.72a.62.62,0,0,1,0,.89A.59.59,0,0,1,203.17,193.46Z"/><path class="cls-5" d="M199.43,119.44a7.23,7.23,0,0,0-1.8-.07,9,9,0,0,0-3.42.77,7.17,7.17,0,0,0-2.18,1.51,10.15,10.15,0,0,1,2.93-6.78,17.87,17.87,0,0,0,2.67-3.4,5.19,5.19,0,0,0,.35-.66c.6-1.34.88-1.54,1-2.3h0a7.35,7.35,0,0,0,0-.82c0-.08,0-.19,0-.29a3.58,3.58,0,0,0-1.28-2.76,3.3,3.3,0,0,0-2.31-.7,4.06,4.06,0,0,0-1.93.68,5.34,5.34,0,0,0-1.6,1.64,33.52,33.52,0,0,1-4,5.2,10.52,10.52,0,0,0-2.57,3.75,4.67,4.67,0,0,0-.19.71,4.53,4.53,0,0,0-.08.74c-.11,1.51.24,3-.2,4.53-.71,2.42-3,2.94-4.25,4.82-.76,1.14-.62,2.39-.64,3.69a14.71,14.71,0,0,1-2.27,7.16c-.16.29-.44.69-.77,1.19a14.57,14.57,0,0,0-1.75,3.25,2,2,0,0,0,.13,2c1.21,1.44,5.13.11,6.14-.93a3.36,3.36,0,0,0,.44-.69,8.33,8.33,0,0,1,2.28-2.69,5.93,5.93,0,0,0,2.12-2.13c.78-1.68-.25-3.23,0-4.9.45-2.77,2.69-3.56,4.25-5.52a7.19,7.19,0,0,0,1.42-3.4,1.17,1.17,0,0,0,.19.2c.52.43,1.33.18,1.9.08a26.86,26.86,0,0,1,3.68-.47c.6,0,1.21-.08,1.83-.08C199.46,121.66,199.46,120.54,199.43,119.44Z"/><path class="cls-12" d="M212.32,306.53c0-1,0-2-.08-3,0-.71-.05-1.43-.11-2.14s-.12-1.37-.21-2.05a17,17,0,0,0-2-6.47,10.29,10.29,0,0,0-3.28-3.22c-2.51-1.79-2.57-4.95-2.41-7.92a31.4,31.4,0,0,1,.47-3.76c.79-4.36,2.26-8.62,2.83-13a22.73,22.73,0,0,0,0-6.64v0l0-.22c-.6-3.48-2.4-6.5-3.56-9.78a30.38,30.38,0,0,1-1.36-5.49,41,41,0,0,1-.43-4.13c-.09-1.38-.11-2.76-.1-4.15,0-1.75.07-3.51.14-5.26v0c0-.19,0-.36,0-.55,0-.71.07-1.41.1-2.11.31-6.86.55-13.77.31-20.63A102.39,102.39,0,0,0,200.7,189c-.38-1.86-.82-3.71-1.34-5.56a.71.71,0,0,0,.25-.86.66.66,0,0,0-.23-.24l-1.75-1.14a145,145,0,0,0-23.71-12.35,108.15,108.15,0,0,0-25.47-7c-1.77-.24-3.53-.43-5.29-.56-8.81-.66-18.12,1-24.87,7.07l-.27.24c-4.14,3.83-6.15,8.88-7.43,14.22-.52,2.11-.93,4.27-1.29,6.42-.18,1.08-.36,2.15-.55,3.22l-.11.72c0,.19-.07.38-.1.57-.45,2.5-.87,5-1.28,7.5,0,.1,0,.2-.05.29q-2,12.07-3.54,24.19c-.48-2.34-1-4.65-1.46-7-.17-.8-1.39-.46-1.22.34q1.14,5.21,2.2,10.43c-.06.46-.13.93-.19,1.39a.52.52,0,0,0,.58.61c1.66,8.23,3.21,16.49,4.6,24.78.23,1.26.44,2.54.65,3.81,2.09,12.67,3.51,25.48,6.09,38.06a117,117,0,0,0,5.55,19.37,73.26,73.26,0,0,0,6.74,13.27c2.9,4.48,6.47,8.51,11.4,10.79a40.15,40.15,0,0,0,4.74,1.78,117,117,0,0,0,12.16,2.75c.94.18,1.86.36,2.8.52,10.43,1.85,21.25,2.66,31.61.23a46.36,46.36,0,0,0,9.51-3.22,26.64,26.64,0,0,0,5.07-3.12c.2-.15.39-.31.58-.48a14.3,14.3,0,0,0,3.42-4.23,23.14,23.14,0,0,0,2.34-7.27c.11-.67.21-1.36.31-2.05.24-1.75.45-3.51.61-5.27.2-2,.34-4.06.44-6.1C212.34,312.27,212.38,309.39,212.32,306.53Z"/><path class="cls-22" d="M199.76,294.4a28.2,28.2,0,0,1-13.69,15c-.73.36-.09,1.46.64,1.09A29.51,29.51,0,0,0,201,294.74C201.28,294,200.06,293.65,199.76,294.4Z"/><path class="cls-22" d="M199.79,296.38c-2.76,12.93-6.58,26.28-16.45,35.67-.59.56.31,1.46.9.89,10-9.53,14-23.08,16.77-36.22C201.18,295.92,200,295.58,199.79,296.38Z"/><path class="cls-12" d="M231.13,211.2c-.14-.15-.29-.32-.46-.48-.88-.94-2-2-3.18-3.19s-2.43-2.33-3.78-3.59c-5.31-4.91-11.7-10.56-16-14.47-2.09-1.87-3.7-3.35-4.5-4.16a35.51,35.51,0,0,0-3.56-2.74,11.68,11.68,0,0,0-2-1.19,10.6,10.6,0,0,0-3.29-1c-.81-.1-.8,1.17,0,1.27l.25.05a.68.68,0,0,0-.34.26c-1.63,2.92-4.77,4-7.3,5.89l-.2.17a13.11,13.11,0,0,0-4.38,7.77c-1.56,7-1.69,14.54-1.72,21.82,0,.9,0,1.79,0,2.68v.62c0,.38,0,.76,0,1.12,0,2.73-.05,5.44-.07,8.16,0,4.77,0,9.53,0,14.29,0,2,0,4,0,6,0,.89,0,1.76,0,2.65,0,3.65,0,7.31,0,10.94,0,1.89-.56,5.26,1.62,6.29,1.22.58,2.77.07,4.26-.69s2.76-1.71,3.71-2.2q2.2-1.19,4.41-2.34l8.5-4.53c1.52-.81,3-1.58,4.53-2.35l.05,0c5.72-2.92,11.3-5.77,16.27-10l.91-.79c1-.89,2-1.71,2.94-2.52l1.53-1.39c1-.9,1.92-1.83,2.87-2.83a4.12,4.12,0,0,0,.35-.37,76.91,76.91,0,0,0,5.18-6.19c1.68-2.19,5.54-9,6.55-10.81l.26-.44S233.13,213.37,231.13,211.2Z"/><path class="cls-18" d="M158.44,352.43c0-1.93-.07-3.86-.13-5.79-.11-4-.33-8-.68-11.93a120.14,120.14,0,0,0-3.89-22.25c-.89-3.09-1.9-6.14-3.07-9.13a106.51,106.51,0,0,0-5.42-11.92c-3.78-7.09-9.07-13.34-12.49-20.6-3.65-7.74-4.89-16.09-5.85-24.51-.82-7.14-1.42-14.32-3.13-21.25-2-8-4.79-15.71-11.7-20.62-1.14-.82-2.33-1.6-3.51-2.38h0l-1.29-.81c-2.83-1.8-5.73-3.48-8.62-5.16-5.36-3.09-47.25-21.52-50.23-22.66-3.78-1.45-8,2.45-9.6,4.85-1.78,2.6.4,11.57.92,16.86,1.16,11.67,2.6,23.31,4.12,34.93q3.51,26.89,8.87,53.48c.14.7.29,1.41.44,2.12q2.55,12.47,5.58,24.83c1.67,6.86,2.69,14.9,7.05,20.69a44.56,44.56,0,0,0,8.79,7.93c17.6,13,53.21,30.64,68.19,32.49a13.39,13.39,0,0,0,4.35-.06c5.33-1.19,10.14-4.91,10.91-9.14A52.26,52.26,0,0,0,158.44,352.43Z"/><path class="cls-18" d="M116.73,156.38c-.15-.47-.3-.95-.48-1.44-1-2.92-5.4-5.11-7.79-6.63-5.24-3.32-55.28-30.5-61.5-27.93-.51.22-4.89,1.91-5,4.18-.35,9.28,2.44,30.33,4.34,33.47,1.59,2.61,12.86,8.25,22.84,12.95,5,2.33,9.61,4.42,12.56,5.79h0l.13.06.75.35c1.35.64,4.89,2.34,9.14,4.32,5.7,2.67,11.6,5.42,16.43,7.28,2.87,1.12,9.26-1.14,9.44-4.56C117.76,181.72,118,160.53,116.73,156.38Z"/><path class="cls-5" d="M210.47,311.92l-1.36,16.64-2.51,29.86c-2.67.88-5.44,1.78-8.28,2.69l2.05-32.23,1.12-14.23Z"/><path class="cls-18" d="M169.4,320.68c.92.56,6.39,2.85,10.5,2.34,7.12-.89,64.54-16.25,65-17.36s.08-5.3-.55-5.94-7.41-2.06-10-1.74-64.63,16.47-65.11,17.1S168.48,320.12,169.4,320.68Z"/><path class="cls-5" d="M215.46,409.24l-30.61,12.44-.25.1-16.46-.17.15-.06,44.79-18.19a3.17,3.17,0,1,1,2.38,5.88Z"/><path class="cls-5" d="M157,421.64H156l-11.6.18-.28-.15L112.94,404a3.17,3.17,0,0,1,3.12-5.52l40,22.67.76.44Z"/><path class="cls-5" d="M223.06,408.83c0,3.76-2.52,6.81-5.62,6.81s-5.63-3.05-5.63-6.81,2.52-6.81,5.63-6.81S223.06,405.07,223.06,408.83Z"/><ellipse class="cls-5" cx="114.19" cy="405.66" rx="5.62" ry="6.81"/><path class="cls-17" d="M325,219.92c1.08-1.74,1.21-3.46,1.83-5.32s1-1.33,1.74-4.09c.76-3,.86-5.57-2.16-7.07a13.77,13.77,0,0,0-7.75-1.15c-.95.13-2.15.6-1.84,1.83.37,1.5,4,1.49,5.49,1.8.93,1.22-.76,2.74-1.63,3.45a27.24,27.24,0,0,1-5.38,3.32c-3.1,1.51-6.61,2.38-9.09,4.9a.63.63,0,0,0,.84.93,75.77,75.77,0,0,0,3,8c.11.27.71.29.71.29S323.66,222,325,219.92Z"/><path class="cls-5" d="M306.82,213.78a1.26,1.26,0,0,1-.71-2.31l25.15-17.15a1.27,1.27,0,1,1,1.43,2.09l-25.15,17.15A1.27,1.27,0,0,1,306.82,213.78Z"/><path class="cls-17" d="M322.24,200.05a1.58,1.58,0,0,0-1.86-1.1.28.28,0,0,0-.14.06,2.15,2.15,0,0,0-.76.59c-.37.38-.68.83-1,1.11a28.72,28.72,0,0,1-3,2.67c-.36.27-.71.54-1.08.79-1.52,1.08-2.74,1.85-3.31,3.7-.07.24-.15.49-.21.73-.11.46-.22.9-.3,1.36-.37,1.78-.59,3.55-1.13,5.31a13.87,13.87,0,0,1-.72,1.83c-.35.74.74,1.38,1.1.65a20.43,20.43,0,0,0,1-2.48l.13.1c1.59.82,5,1.25,6.86.06a2.63,2.63,0,0,0,1.28-2,.1.1,0,0,1,0-.07,6.36,6.36,0,0,0-.56-2.47,5.12,5.12,0,0,1-.29-1.28,5.2,5.2,0,0,1,0-.79,5.77,5.77,0,0,1,.86-2.58c.14-.24.29-.48.45-.71h0a.62.62,0,0,1,.14-.19c.26-.4.57-.78.88-1.17l.26-.3a10.82,10.82,0,0,0,1.15-1.64.19.19,0,0,0,0-.09h0a.2.2,0,0,0,.06-.12,1.64,1.64,0,0,0,.18-.51A2.16,2.16,0,0,0,322.24,200.05Z"/><path class="cls-24" d="M318.92,205.76a11,11,0,0,1-1.12,2.15c-.46.68.64,1.32,1.09.64a11.39,11.39,0,0,0,1.25-2.46C320.43,205.33,319.21,205,318.92,205.76Z"/><path class="cls-24" d="M324.22,206.71a7.94,7.94,0,0,1-1.59-2.18c-.36-.73-1.45-.09-1.09.64a8.55,8.55,0,0,0,1.79,2.43C323.92,208.17,324.81,207.27,324.22,206.71Z"/><path class="cls-8" d="M328,329a25.68,25.68,0,0,1-5.62,11.54c-.32-.29-.65-.55-1-.82a24.11,24.11,0,0,0,5.39-11.13A11.5,11.5,0,0,0,328,329Z"/><path class="cls-22" d="M209.87,292.84a10.29,10.29,0,0,0-3.28-3.22c-2.51-1.79-2.57-4.95-2.41-7.92a31.4,31.4,0,0,1,.47-3.76c.79-4.36,2.26-8.62,2.83-13a22.73,22.73,0,0,0,0-6.64h-.05a29,29,0,0,1-9.92-3.31c-3.15-1.63-6.17-3.59-9-5.28s-5.42-3.39-8.06-5.2c-4-2.72-7.93-5.62-11.73-8.66a.64.64,0,0,0-1,.28c-1.44,3.57,1.41,6.83,3.66,9.36,2.7,3.05,6,5.19,9.09,7.69.53.42,1.07.86,1.59,1.32a8.77,8.77,0,0,1,3.37,7.57c-.06,2.32-.26,4.23.45,6.46a9.93,9.93,0,0,0,.43,1.19,40.11,40.11,0,0,0,4.19,7.33c.42.64.84,1.29,1.23,1.93a21.23,21.23,0,0,1,1.91,4.16c1,2.79,1.56,5.65,2.61,8.55a10.53,10.53,0,0,0,6.3,6.72,22.93,22.93,0,0,0,9.38.92A17,17,0,0,0,209.87,292.84Z"/><path class="cls-25" d="M108.06,187.55a.63.63,0,0,1-.63-.57c-.62-6.66-2.53-28.51-.78-30.37s6.89-2.9,7.1-2.94a.64.64,0,0,1,.24,1.25c-1.36.25-5.15,1.21-6.42,2.56-.9,1.27-.14,15.94,1.12,29.38a.62.62,0,0,1-.57.69Z"/><path class="cls-25" d="M107.11,157.68a.72.72,0,0,1-.28-.07c-21.71-10.78-63.08-31.3-64.23-31.75a.65.65,0,0,1-.37-.82.63.63,0,0,1,.81-.37c1.16.42,57.89,28.59,64.35,31.8a.64.64,0,0,1-.28,1.21Z"/><path class="cls-25" d="M158.48,371.67h-.09a.63.63,0,0,1-.54-.71s.41-3,.78-10.82a104.46,104.46,0,0,0-.37-12.26.64.64,0,0,1,.58-.69.61.61,0,0,1,.68.57,106.34,106.34,0,0,1,.38,12.44c-.38,7.89-.78,10.81-.79,10.93A.64.64,0,0,1,158.48,371.67Z"/><path class="cls-25" d="M146.33,370.67h0a.64.64,0,0,1-.61-.66c0-.21.62-21.25,0-27.47a134.12,134.12,0,0,0-8.34-33.77c-5.32-13.06-9.77-22.79-16.74-33.89-4.76-7.57-7.05-26.39-8.73-40.14-.81-6.71-1.52-12.5-2.29-15.29-1.68-6.07-10.81-9.81-18.86-13.12-3-1.22-5.82-2.38-8.17-3.61C73.84,198.17,39.4,181.13,39.05,181a.63.63,0,0,1-.28-.85.64.64,0,0,1,.85-.29C40,180,74.41,197,83.15,201.6c2.31,1.2,5.11,2.35,8.07,3.56,8.32,3.41,17.75,7.28,19.6,14,.8,2.88,1.51,8.72,2.33,15.48,1.66,13.63,3.93,32.29,8.54,39.62,7,11.17,11.49,21,16.84,34.08A135.31,135.31,0,0,1,147,342.42c.63,6.3,0,26.76,0,27.63A.64.64,0,0,1,146.33,370.67Z"/><path class="cls-25" d="M108.31,216.37a.6.6,0,0,1-.52-.28.63.63,0,0,1,.17-.88l7.93-5.33a.63.63,0,0,1,.88.18.62.62,0,0,1-.17.87l-7.93,5.34A.68.68,0,0,1,108.31,216.37Z"/><path class="cls-25" d="M179.31,318.62h0c-1.74-.06-9-2.1-9.33-2.19a.62.62,0,0,1-.44-.78.64.64,0,0,1,.78-.44,80.6,80.6,0,0,0,9,2.14c1.67-.1,39.32-10.3,64.22-17.13a.63.63,0,0,1,.33,1.22C233.42,304.31,181.21,318.62,179.31,318.62Z"/><path class="cls-25" d="M179.43,322.8a.62.62,0,0,1-.63-.61l-.11-4.19a.64.64,0,1,1,1.27,0l.1,4.18a.62.62,0,0,1-.61.65Z"/><path class="cls-22" d="M166.05,209.27a35.08,35.08,0,0,0-.37,24c.26.77,1.48.44,1.22-.33a33.91,33.91,0,0,1,.38-23.33C167.56,208.84,166.34,208.51,166.05,209.27Z"/><ellipse class="cls-7" cx="173.17" cy="131.31" rx="2.3" ry="2.29"/><path class="cls-7" d="M174.61,138.66h0a1,1,0,0,1-1.21-.8l-1.12-5.31a1,1,0,0,1,.8-1.21h0a1,1,0,0,1,1.22.79l1.11,5.31A1,1,0,0,1,174.61,138.66Z"/><path class="cls-14" d="M273.87,399.49a3.06,3.06,0,0,1-1.41.79c-5.78,1.93-11.57,3.86-17.48,5.31a24.11,24.11,0,0,1-7.34.82,3.47,3.47,0,0,1-2.89-1.93c-.93-2,.09-4.17,1.25-5.33,1.85-1.86,5.45-3.07,7.68-4,4.87-2.13,10.09-4.67,15.38-5.17a4.46,4.46,0,0,1,2.54.37c1.87,1,3.15,4.56,3,7a4,4,0,0,1-.63,2.07Z"/><path class="cls-14" d="M273.29,399.94a8.44,8.44,0,0,0,4.91-4.12c1.74-3.31-.66-6.63-4.73-7s-12.71,1.15-13.15,1.78.91,6,.91,6Z"/><path class="cls-15" d="M263.55,402.83a.62.62,0,0,1-.63-.58,38.8,38.8,0,0,0-.67-4.42,28.32,28.32,0,0,0-1.94-5.12.63.63,0,1,1,1.13-.56,29,29,0,0,1,2.05,5.41,37.27,37.27,0,0,1,.69,4.59.63.63,0,0,1-.58.68Z"/><path class="cls-7" d="M156.19,95.61a10,10,0,0,1-.7-7,.63.63,0,0,0-1.22-.34,11.29,11.29,0,0,0,.83,8C155.45,97,156.55,96.34,156.19,95.61Z"/><path class="cls-7" d="M158.14,94.81c-.61,1.88-1.15,2.32-3.38,2.53a2.26,2.26,0,0,0-1.16.22,3.71,3.71,0,0,0-.71.66c-1.55,1.41-2.26,1.55-4.31,1.18-.8-.14-1.14,1.08-.34,1.22a6.86,6.86,0,0,0,3.89,0c1.33-.55,1.51-1.67,3.14-1.9,2.27-.32,3.35-1.26,4.1-3.54C159.62,94.37,158.4,94,158.14,94.81Z"/><path class="cls-7" d="M154,95.79a11.92,11.92,0,0,1-5.21-9.53.63.63,0,0,0-1.26,0,13.24,13.24,0,0,0,5.83,10.62C154.06,97.35,154.7,96.25,154,95.79Z"/><path class="cls-7" d="M191.47,101.3a17,17,0,0,1-5.12,10.08c-.58.57.31,1.47.9.9a18.5,18.5,0,0,0,5.49-11C192.84,100.49,191.58,100.5,191.47,101.3Z"/><path class="cls-7" d="M185.6,103.94c-2.29,6.3-4.94,13-11.47,15.83-.75.33-.1,1.42.64,1.1,6.84-3,9.66-10,12-16.59C187.1,103.51,185.87,103.18,185.6,103.94Z"/><path class="cls-12" d="M359.79,218l-1.61.43-7.05,1.82a1.17,1.17,0,0,1-1.21-.42l-1.83-2.36a1.16,1.16,0,0,1,.63-1.84l6.13-1.6,2.53-.65a1.14,1.14,0,0,1,1.21.42l1.83,2.36A1.16,1.16,0,0,1,359.79,218Z"/><path class="cls-17" d="M359.79,218l-1.61.43-3.33-4.4,2.53-.65a1.14,1.14,0,0,1,1.21.42l1.83,2.36A1.16,1.16,0,0,1,359.79,218Z"/></g></g></svg>