<svg width="389" height="85" viewBox="0 0 389 85" fill="none" xmlns="http://www.w3.org/2000/svg">
<ellipse cx="45.2165" cy="42.9051" rx="41.5212" ry="40.5487" fill="white"/>
<path d="M37.9949 0.782847C16.083 4.17656 -0.906596 24.2372 0.522437 44.9011C1.79269 62.473 13.6219 76.9529 31.6436 83.0616C38.4712 85.324 50.3004 85.3995 57.8425 83.2124C73.4825 78.5366 85.4705 66.093 88.8049 50.9344C90.9485 41.0549 89.9958 33.8904 85.0735 24.1618C79.675 13.4527 68.7984 4.77989 57.128 1.83867C51.7294 0.481183 42.9171 -0.0467279 37.9949 0.782847ZM52.6821 5.3078C67.7664 7.57028 81.0246 19.8631 84.359 34.5692C86.185 42.9403 84.8354 52.8952 80.7864 60.5876C77.849 66.0176 69.3542 73.7854 62.9235 76.8021C52.5234 81.7795 37.8361 81.7795 27.2771 76.8021C17.1945 72.0509 7.82638 60.7385 5.92101 51.0852C5.60344 49.1244 5.36527 47.5407 5.44466 47.5407C5.52405 47.5407 7.19126 49.5015 9.17602 51.9148C11.8753 55.2331 14.0982 56.9677 18.6235 59.2302C24.1809 62.0205 24.816 62.1714 31.6436 62.1714C37.2009 62.1714 39.5827 61.7943 42.3613 60.5876C51.0943 56.8168 56.8898 50.4065 59.5097 41.9599C64.1938 26.2734 52.2852 9.83275 34.8192 7.94736C29.4207 7.34403 30.1352 6.43904 36.9628 5.38322C42.8377 4.47822 46.7278 4.47822 52.6821 5.3078ZM37.9949 12.9248C45.2988 14.8102 52.9997 21.8993 55.0639 28.6867L55.8578 31.3263L53.1585 28.5359C49.1096 24.3126 46.0133 23.1059 39.5827 23.0305C34.978 23.0305 33.3902 23.4076 30.3733 25.0668C24.4984 28.3096 20.9258 34.2675 20.9258 40.6024C21.0052 46.8619 24.8954 52.7444 31.6436 56.4398L34.8192 58.1743L29.897 57.7972C17.7502 56.9677 8.38212 47.9932 7.58821 36.4546C7.19126 30.723 8.69968 26.198 12.5898 21.1451C18.306 13.7544 28.468 10.4361 37.9949 12.9248ZM47.6011 29.818C51.3325 32.5329 52.8409 34.8708 53.2379 38.7925C54.4287 48.2949 45.3782 55.3839 35.375 52.8952C31.4848 51.8394 26.7214 47.0128 26.0069 43.242C24.816 37.3595 27.9916 31.3263 33.7078 28.4605C37.5185 26.4997 43.9492 27.1784 47.6011 29.818Z" fill="black"/>
<path d="M131.781 54.4688L128.359 44.9531H115.258L111.906 54.4688H106L118.82 20.0625H124.914L137.734 54.4688H131.781ZM126.883 40.125L123.672 30.7969C123.438 30.1719 123.109 29.1875 122.688 27.8438C122.281 26.5 122 25.5156 121.844 24.8906C121.422 26.8125 120.805 28.9141 119.992 31.1953L116.898 40.125H126.883Z" fill="black"/>
<path d="M154.82 54.9375C151.539 54.9375 148.992 53.7578 147.18 51.3984H146.852C147.07 53.5859 147.18 54.9141 147.18 55.3828V66H141.672V28.5469H146.125C146.25 29.0312 146.508 30.1875 146.898 32.0156H147.18C148.898 29.3906 151.477 28.0781 154.914 28.0781C158.148 28.0781 160.664 29.25 162.461 31.5938C164.273 33.9375 165.18 37.2266 165.18 41.4609C165.18 45.6953 164.258 49 162.414 51.375C160.586 53.75 158.055 54.9375 154.82 54.9375ZM153.484 32.5781C151.297 32.5781 149.695 33.2188 148.68 34.5C147.68 35.7812 147.18 37.8281 147.18 40.6406V41.4609C147.18 44.6172 147.68 46.9062 148.68 48.3281C149.68 49.7344 151.312 50.4375 153.578 50.4375C155.484 50.4375 156.953 49.6562 157.984 48.0938C159.016 46.5312 159.531 44.3047 159.531 41.4141C159.531 38.5078 159.016 36.3125 157.984 34.8281C156.969 33.3281 155.469 32.5781 153.484 32.5781Z" fill="black"/>
<path d="M184.727 54.9375C181.445 54.9375 178.898 53.7578 177.086 51.3984H176.758C176.977 53.5859 177.086 54.9141 177.086 55.3828V66H171.578V28.5469H176.031C176.156 29.0312 176.414 30.1875 176.805 32.0156H177.086C178.805 29.3906 181.383 28.0781 184.82 28.0781C188.055 28.0781 190.57 29.25 192.367 31.5938C194.18 33.9375 195.086 37.2266 195.086 41.4609C195.086 45.6953 194.164 49 192.32 51.375C190.492 53.75 187.961 54.9375 184.727 54.9375ZM183.391 32.5781C181.203 32.5781 179.602 33.2188 178.586 34.5C177.586 35.7812 177.086 37.8281 177.086 40.6406V41.4609C177.086 44.6172 177.586 46.9062 178.586 48.3281C179.586 49.7344 181.219 50.4375 183.484 50.4375C185.391 50.4375 186.859 49.6562 187.891 48.0938C188.922 46.5312 189.438 44.3047 189.438 41.4141C189.438 38.5078 188.922 36.3125 187.891 34.8281C186.875 33.3281 185.375 32.5781 183.391 32.5781Z" fill="black"/>
<path d="M206.992 54.4688H201.484V18H206.992V54.4688Z" fill="black"/>
<path d="M210.953 28.5469H216.953L222.227 43.2422C223.023 45.3359 223.555 47.3047 223.82 49.1484H224.008C224.148 48.2891 224.406 47.25 224.781 46.0312C225.156 44.7969 227.141 38.9688 230.734 28.5469H236.688L225.602 57.9141C223.586 63.3047 220.227 66 215.523 66C214.305 66 213.117 65.8672 211.961 65.6016V61.2422C212.789 61.4297 213.734 61.5234 214.797 61.5234C217.453 61.5234 219.32 59.9844 220.398 56.9062L221.359 54.4688L210.953 28.5469Z" fill="black"/>
<path d="M246.766 54.4688H241.211V20.2031H260.547V24.9375H246.766V35.6484H259.68V40.4062H246.766V54.4688Z" fill="black"/>
<path d="M284.453 54.4688L283.68 51.0703H283.398C282.633 52.2734 281.539 53.2188 280.117 53.9062C278.711 54.5938 277.102 54.9375 275.289 54.9375C272.148 54.9375 269.805 54.1562 268.258 52.5938C266.711 51.0312 265.938 48.6641 265.938 45.4922V28.5469H271.492V44.5312C271.492 46.5156 271.898 48.0078 272.711 49.0078C273.523 49.9922 274.797 50.4844 276.531 50.4844C278.844 50.4844 280.539 49.7969 281.617 48.4219C282.711 47.0312 283.258 44.7109 283.258 41.4609V28.5469H288.789V54.4688H284.453Z" fill="black"/>
<path d="M306.297 50.4844C307.641 50.4844 308.984 50.2734 310.328 49.8516V54C309.719 54.2656 308.93 54.4844 307.961 54.6562C307.008 54.8438 306.016 54.9375 304.984 54.9375C299.766 54.9375 297.156 52.1875 297.156 46.6875V32.7188H293.617V30.2812L297.414 28.2656L299.289 22.7812H302.688V28.5469H310.07V32.7188H302.688V46.5938C302.688 47.9219 303.016 48.9062 303.672 49.5469C304.344 50.1719 305.219 50.4844 306.297 50.4844Z" fill="black"/>
<path d="M333.812 54.4688L333.039 51.0703H332.758C331.992 52.2734 330.898 53.2188 329.477 53.9062C328.07 54.5938 326.461 54.9375 324.648 54.9375C321.508 54.9375 319.164 54.1562 317.617 52.5938C316.07 51.0312 315.297 48.6641 315.297 45.4922V28.5469H320.852V44.5312C320.852 46.5156 321.258 48.0078 322.07 49.0078C322.883 49.9922 324.156 50.4844 325.891 50.4844C328.203 50.4844 329.898 49.7969 330.977 48.4219C332.07 47.0312 332.617 44.7109 332.617 41.4609V28.5469H338.148V54.4688H333.812Z" fill="black"/>
<path d="M359.148 28.0781C360.258 28.0781 361.172 28.1562 361.891 28.3125L361.352 33.4453C360.57 33.2578 359.758 33.1641 358.914 33.1641C356.711 33.1641 354.922 33.8828 353.547 35.3203C352.188 36.7578 351.508 38.625 351.508 40.9219V54.4688H346V28.5469H350.312L351.039 33.1172H351.32C352.18 31.5703 353.297 30.3438 354.672 29.4375C356.062 28.5312 357.555 28.0781 359.148 28.0781Z" fill="black"/>
<path d="M378.039 54.9375C374.008 54.9375 370.852 53.7656 368.57 51.4219C366.305 49.0625 365.172 45.8203 365.172 41.6953C365.172 37.4609 366.227 34.1328 368.336 31.7109C370.445 29.2891 373.344 28.0781 377.031 28.0781C380.453 28.0781 383.156 29.1172 385.141 31.1953C387.125 33.2734 388.117 36.1328 388.117 39.7734V42.75H370.844C370.922 45.2656 371.602 47.2031 372.883 48.5625C374.164 49.9062 375.969 50.5781 378.297 50.5781C379.828 50.5781 381.25 50.4375 382.562 50.1562C383.891 49.8594 385.312 49.375 386.828 48.7031V53.1797C385.484 53.8203 384.125 54.2734 382.75 54.5391C381.375 54.8047 379.805 54.9375 378.039 54.9375ZM377.031 32.25C375.281 32.25 373.875 32.8047 372.812 33.9141C371.766 35.0234 371.141 36.6406 370.938 38.7656H382.703C382.672 36.625 382.156 35.0078 381.156 33.9141C380.156 32.8047 378.781 32.25 377.031 32.25Z" fill="black"/>
</svg>
