<svg width="1771" height="1186" viewBox="0 0 1771 1186" fill="none" xmlns="http://www.w3.org/2000/svg">
<rect x="0.147949" width="1770.85" height="1186" rx="24" fill="#D1FAE5"/>
<path d="M1677.71 723.472C1674.82 636.752 1668.41 549.787 1668.27 463.202C1668.22 432.353 1668.93 401.285 1663.94 370.776C1662.82 363.814 1661.4 356.918 1659.6 350.021C1649.89 312.915 1628.12 276.411 1590.25 253.121C1577.98 245.579 1564.66 239.757 1550.64 235.245C1549.5 234.858 1548.32 234.514 1547.18 234.171C1504.32 221.129 1454.95 219.969 1407.29 220.592C1406.14 220.592 1404.97 220.613 1403.82 220.656C1398.26 220.699 1392.75 220.807 1387.24 220.914C1346.15 221.73 1305.02 222.289 1263.93 222.611C1262.76 222.633 1261.61 222.633 1260.47 222.633C1213.82 223.041 1167.2 223.213 1120.58 223.235C1119.43 223.256 1118.26 223.256 1117.11 223.235C1070.49 223.299 1023.84 223.213 977.222 223.106H970.183C924.735 223.02 879.314 222.934 833.866 222.826H830.402C783.78 222.74 737.159 222.654 690.538 222.547H687.101C640.48 222.483 593.831 222.375 547.21 222.289H543.746C497.119 222.203 450.465 222.096 403.841 222.01H400.388C391.713 221.988 383.073 221.988 374.398 221.945C336.416 221.881 297.33 222.01 260.489 228.219C259.316 228.412 258.175 228.606 257.032 228.821C239.407 232.001 222.335 236.599 206.196 243.324C193.822 248.48 182.419 254.711 171.982 261.801C134.104 287.67 108.772 325.097 95.7761 363.685C79.1873 412.93 80.0875 464.644 81.1242 515.571C83.7512 644.645 86.3428 773.692 88.9343 902.766C90.0392 957.204 91.5613 983.307 118.934 1033.31C147.477 1085.41 202.773 1119.46 273.796 1127.02C363.582 1136.61 460.245 1130.48 551.138 1131.33C742.724 1133.07 934.31 1134.81 1125.9 1136.55C1141.2 1136.69 1156.56 1136.82 1171.86 1136.96C1275.88 1137.91 1378.86 1141.22 1481.49 1127.97C1536.24 1120.92 1601.36 1126.01 1632.7 1089.97C1649.78 1070.38 1648.6 1051.66 1653.87 1028.28C1676.68 926.506 1681.2 826.987 1677.71 723.472" fill="white"/>
<path d="M1578.91 235.251V450.484C1578.91 451.219 1578.32 451.844 1577.57 451.844C1576.81 451.844 1576.22 451.219 1576.22 450.484V234.176C1577.11 234.52 1578.02 234.864 1578.91 235.251" fill="#FFE1C7"/>
<path d="M1467.56 220.592V450.484C1467.56 451.219 1466.96 451.844 1466.22 451.844C1465.46 451.844 1464.86 451.219 1464.86 450.484V220.656C1465.75 220.613 1466.67 220.592 1467.56 220.592" fill="#FFE1C7"/>
<path d="M1356.2 222.612V450.484C1356.2 451.219 1355.61 451.844 1354.87 451.844C1354.15 451.844 1353.51 451.219 1353.51 450.484V222.634C1354.4 222.634 1355.29 222.634 1356.2 222.612" fill="#FFE1C7"/>
<path d="M1244.85 223.236V450.484C1244.85 451.219 1244.26 451.844 1243.51 451.844C1242.79 451.844 1242.16 451.219 1242.16 450.484V223.236C1243.05 223.257 1243.96 223.257 1244.85 223.236" fill="#FFE1C7"/>
<path d="M1133.5 223.107V450.484C1133.5 451.219 1132.9 451.844 1132.16 451.844C1131.44 451.844 1130.8 451.219 1130.8 450.484V223.107H1133.5" fill="#FFE1C7"/>
<path d="M1022.14 222.827V450.484C1022.14 451.219 1021.55 451.844 1020.81 451.844C1020.09 451.844 1019.45 451.219 1019.45 450.484V222.827H1022.14" fill="#FFE1C7"/>
<path d="M910.81 222.548V450.484C910.81 451.219 910.195 451.844 909.475 451.844C908.733 451.844 908.14 451.219 908.14 450.484V222.548H910.81" fill="#FFE1C7"/>
<path d="M799.478 222.29V450.484C799.478 451.219 798.842 451.844 798.122 451.844C797.38 451.844 796.787 451.219 796.787 450.484V222.29H799.478" fill="#FFE1C7"/>
<path d="M688.114 222.01V450.484C688.114 451.219 687.498 451.844 686.773 451.844C686.023 451.844 685.432 451.219 685.432 450.484V222.01H688.114Z" fill="#FFE1C7"/>
<path d="M576.763 228.222V450.484C576.763 451.219 576.172 451.844 575.422 451.844C574.669 451.844 574.078 451.219 574.078 450.484V228.824C574.966 228.609 575.852 228.416 576.763 228.222" fill="#FFE1C7"/>
<path d="M1656.6 1031.88C1653.57 1045.42 1650.02 1059.11 1644.3 1072.05C1640.12 1081.5 1639.5 1081.68 1632.32 1089.96C1600.99 1126.01 1535.88 1120.91 1481.15 1127.97C1378.55 1141.22 1275.59 1137.91 1171.6 1136.96C1156.3 1136.82 1140.94 1136.69 1125.64 1136.55C934.103 1134.81 742.563 1133.07 551.024 1131.32C460.153 1130.48 363.513 1136.61 273.749 1127.02C202.743 1119.45 147.46 1085.39 118.925 1033.27C91.5587 983.254 90.0369 957.143 88.9323 902.686C86.3414 773.568 83.7505 644.477 81.1241 515.359C80.0877 464.414 79.1877 412.683 95.7725 363.422C108.765 324.82 134.091 287.38 171.96 261.503L1663.55 370.514C1668.54 401.034 1667.83 432.113 1667.89 462.972C1667.97 503.08 1669.36 543.268 1671.13 583.513C1673.21 630.129 1675.77 676.77 1677.32 723.33C1680.81 826.881 1679.4 930.077 1656.6 1031.88" fill="#D5E2ED"/>
<path d="M1678.69 790.358C1678.69 783.088 1678.61 775.816 1678.5 768.546C1678.31 753.622 1677.99 738.645 1677.61 723.695C1677.21 708.145 1676.72 692.598 1676.17 677.02C1675.96 669.858 1675.68 662.696 1675.41 655.536C1674.56 631.653 1673.65 607.744 1672.8 583.863C1587.09 571.826 1500.61 567.116 1414.18 563.63C1320.48 559.844 899.516 512.108 853.343 507.123C829.61 504.565 805.856 502.549 782.039 500.834C770.206 499.991 730.611 490.813 730.611 490.813C730.611 490.813 717.43 524.061 712.947 532.995C709.751 539.34 706.53 545.683 703.337 552.028C701.243 556.168 699.122 560.308 697.029 564.446C696.679 565.153 696.304 565.863 695.954 566.57C685.618 586.777 675.178 606.927 664.6 627.025C663.902 628.358 663.176 629.72 662.478 631.055C660.788 634.267 659.096 637.454 657.378 640.64C644.009 665.884 630.454 690.99 616.655 715.989C614.642 719.664 612.602 723.342 610.561 727.018C591.367 761.683 571.796 796.103 551.824 830.306C549.059 835.046 546.294 839.783 543.503 844.521C538.189 853.59 532.817 862.63 527.45 871.671C521.464 881.746 500.282 919.515 501.087 919.706C630.613 948.98 731.818 964.964 845.46 981.114C962.281 997.751 1079.59 1011.39 1196.75 1025.47C1316.83 1039.91 1437 1053.39 1557.46 1064.36C1587.34 1067.08 1617.24 1069.67 1647.14 1072.07C1648.75 1072.2 1650.34 1072.31 1651.95 1072.45C1656.4 1059.51 1659.15 1045.82 1661.51 1032.28C1663.01 1023.59 1664.41 1014.88 1665.7 1006.17C1667 997.316 1668.16 988.439 1669.24 979.589C1672.99 948.626 1675.41 917.583 1676.87 886.43C1677.21 879.515 1677.48 872.596 1677.72 865.678C1678.56 840.628 1678.82 815.52 1678.69 790.358" fill="#625DA8"/>
<path d="M1675.41 655.536C1548.03 629.475 1417.27 622.53 1287.8 615.015C1254.02 613.055 1220.27 611.23 1186.47 609.405C1153.48 607.608 1120.38 605.727 1087.68 600.691C1055.86 595.762 1025.45 585.524 993.959 579.233C962.683 572.969 930.686 572.78 898.922 572.943C833.445 573.242 765.508 575.611 703.337 552.028C701.243 556.168 699.122 560.308 697.029 564.446C696.679 565.153 696.304 565.863 695.954 566.57C722.637 577.464 752.14 578.934 780.894 578.798C799.202 578.717 817.532 578.007 835.84 578.661C857.072 579.396 878.241 581.739 899.198 585.116C977.664 597.669 1053.42 623.865 1132.29 634.294C1216.81 645.515 1302.38 634.894 1387.1 643.69C1428.86 648.019 1470.31 654.364 1512.31 655.753C1555.66 657.17 1598.13 657.795 1640.59 667.79C1652.25 670.539 1664.13 673.725 1676.17 677.02C1675.96 669.858 1675.68 662.696 1675.41 655.536V655.536ZM1678.5 768.546C1657.37 766.668 1636.35 764.107 1615.55 759.94C1597.6 756.346 1579.88 751.552 1562.74 745.044C1546.19 738.726 1530.32 730.122 1512.86 726.528C1495.14 722.878 1476.98 723.886 1459.02 724.131C1440.14 724.404 1421.28 723.424 1402.48 721.625C1363.62 717.841 1325.2 710.598 1286.7 704.197C1249.66 698.07 1212.62 693.359 1175.11 691.48C1136.4 689.548 1097.64 689.548 1058.93 687.314C1020.38 685.081 982.39 679.634 944.587 671.655C908.267 663.977 872.266 654.773 835.861 647.419C795.876 639.333 756.032 634.785 715.229 634.267C697.645 634.049 679.873 633.804 662.478 631.055C660.787 634.266 659.096 637.454 657.378 640.64C785.217 648.945 908.988 687.478 1035.6 705.669C1104.89 715.608 1174.75 720.346 1244.51 725.765C1315.22 731.265 1385.78 738.427 1456.22 746.598C1531.57 755.338 1605.54 770.315 1678.69 790.357C1678.69 783.088 1678.61 775.816 1678.5 768.546" fill="white"/>
<path d="M1468.74 856.175C1388.88 849.041 1308.95 842.07 1229.21 833.765C1188.89 829.543 1148.58 824.479 1108.72 816.799C1069.82 809.284 1031.97 798.119 993.769 787.69C957.047 777.669 920.24 770.997 882.501 766.53C842.261 761.765 802.933 756.073 763.871 744.882C742.316 738.7 720.893 731.947 699.042 726.908C678.827 722.28 658.292 719.256 637.649 717.459C630.669 716.833 623.661 716.343 616.656 715.989C614.643 719.664 612.602 723.342 610.562 727.018C612.388 727.291 614.185 727.562 616.012 727.888C652.681 734.234 687.659 747.522 722.745 759.559C758.692 771.867 794.668 781.643 832.514 785.482C873.389 789.622 914.455 790.304 955.203 796.021C1033.46 806.997 1109.68 828.619 1187.09 844.059C1224.95 851.629 1263.18 857.727 1301.74 860.287C1342.3 863.011 1383.05 861.158 1423.57 864.591C1468.83 868.404 1512.5 881.774 1557.49 887.384C1597.15 892.339 1637.33 891.93 1676.87 886.43C1677.21 879.515 1677.48 872.595 1677.72 865.678C1607.98 867.34 1538.2 862.385 1468.74 856.175" fill="white"/>
<path d="M1479.21 964.556C1396.82 956.278 1314.52 947.211 1232.26 937.489C1151 927.877 1068.61 920.959 989.446 899.065C951.114 888.472 913.184 876.327 874.088 868.621C834.823 860.887 794.986 856.586 755.227 852.283C709.215 847.298 663.231 842.343 617.247 837.359L551.825 830.306C549.059 835.046 546.294 839.783 543.503 844.521C611.877 851.438 680.251 858.708 748.222 869.193C785.408 874.911 822.427 881.557 859.17 889.615C896.359 897.758 933.187 907.59 970.46 915.323C1007.35 922.974 1044.65 927.604 1082 931.989C1120.19 936.481 1158.35 940.948 1196.54 945.44C1274.64 954.616 1352.77 963.767 1430.88 972.943C1474.38 978.063 1517.88 983.183 1561.38 988.276C1596.41 992.388 1631.82 996.063 1665.7 1006.17C1667 997.316 1668.16 988.439 1669.24 979.589C1605.78 976.511 1542.42 970.901 1479.21 964.556" fill="white"/>
<path d="M1291.59 1104.72C1291.59 1110.96 1283.03 1116.02 1272.46 1116.02C1261.91 1116.02 1253.35 1110.96 1253.35 1104.72C1253.35 1098.47 1261.91 1093.41 1272.46 1093.41C1283.03 1093.41 1291.59 1098.47 1291.59 1104.72Z" fill="white"/>
<path d="M1291.59 1077.03C1291.59 1083.27 1283.03 1088.33 1272.46 1088.33C1261.91 1088.33 1253.35 1083.27 1253.35 1077.03C1253.35 1070.79 1261.91 1065.73 1272.46 1065.73C1283.03 1065.73 1291.59 1070.79 1291.59 1077.03Z" fill="white"/>
<path d="M1271.42 1054.79L1270.91 1054.49C1270.38 1054.28 1269.73 1054.35 1269.39 1054.79C1269.03 1055.25 1269.13 1055.91 1269.22 1056.49C1269.58 1058.8 1269.49 1061.45 1268.9 1063.83C1268.24 1066.39 1267.25 1069.01 1267.9 1071.67C1268.77 1075.15 1273.62 1077.95 1276.06 1074.25C1276.68 1073.32 1276.89 1072.19 1276.99 1071.09C1277.59 1065.53 1275.81 1059.75 1272.18 1055.53C1271.95 1055.27 1271.7 1055 1271.42 1054.79" fill="#EB8181"/>
<path d="M1291.59 1077.03H1253.35V1104.72H1291.59V1077.03Z" fill="white"/>
<path d="M1273.73 1086.57C1273.31 1086.57 1272.86 1086.57 1272.42 1086.55C1259.19 1086.11 1255.34 1079.96 1255.17 1079.69C1254.79 1079.05 1255 1078.21 1255.61 1077.82C1256.25 1077.43 1257.08 1077.63 1257.46 1078.26C1257.54 1078.37 1260.93 1083.44 1272.52 1083.83C1284.52 1084.2 1287.29 1078.66 1287.4 1078.42C1287.72 1077.74 1288.5 1077.44 1289.18 1077.76C1289.84 1078.06 1290.15 1078.85 1289.86 1079.54C1289.71 1079.83 1286.61 1086.57 1273.73 1086.57" fill="#FFE1C7"/>
<path d="M1211.67 1089.21C1211.67 1095.45 1203.11 1100.51 1192.55 1100.51C1181.98 1100.51 1173.42 1095.45 1173.42 1089.21C1173.42 1082.97 1181.98 1077.91 1192.55 1077.91C1203.11 1077.91 1211.67 1082.97 1211.67 1089.21Z" fill="white"/>
<path d="M1211.67 1076.38C1211.67 1082.63 1203.11 1087.69 1192.55 1087.69C1181.98 1087.69 1173.42 1082.63 1173.42 1076.38C1173.42 1070.14 1181.98 1065.08 1192.55 1065.08C1203.11 1065.08 1211.67 1070.14 1211.67 1076.38Z" fill="white"/>
<path d="M1193.08 1060.07C1192.68 1059.62 1192.19 1059.33 1191.68 1059.59C1191.34 1059.76 1191.17 1060.13 1191.01 1060.47C1189.86 1062.9 1188.36 1068.52 1188.06 1071.19C1187.72 1074.33 1191.3 1079.59 1195.37 1075.05C1196.49 1073.81 1196.71 1071.99 1196.58 1070.32C1196.35 1067.07 1195.01 1064.02 1193.68 1061.04C1193.55 1060.71 1193.34 1060.36 1193.08 1060.07" fill="#EB8181"/>
<path d="M1211.67 1076.38H1173.42V1089.21H1211.67V1076.38Z" fill="white"/>
<path d="M1193.59 1085.49C1193.23 1085.49 1192.87 1085.49 1192.49 1085.47C1179.27 1085.03 1175.41 1078.88 1175.24 1078.62C1174.86 1077.98 1175.07 1077.14 1175.68 1076.75C1176.32 1076.36 1177.15 1076.55 1177.53 1077.19C1177.61 1077.3 1181 1082.37 1192.59 1082.75C1204.69 1083.13 1208.42 1076.08 1208.57 1075.77C1208.91 1075.11 1209.72 1074.84 1210.37 1075.17C1211.03 1075.51 1211.3 1076.32 1210.97 1076.99C1210.8 1077.34 1206.69 1085.49 1193.59 1085.49" fill="#FFE1C7"/>
<path d="M1288.56 272.782C1285.45 264.485 1277.55 255.736 1271.12 250.513C1265.15 245.634 1258.09 245.483 1250.97 245.956C1243.83 238.497 1234.93 233.618 1225.1 232.414C1218 231.533 1210.61 232.866 1203.51 233.274C1197.32 233.618 1192.57 237.616 1186.64 239.185C1176.09 241.979 1168.23 246.472 1161.85 256.596C1157.48 263.518 1153.46 272.288 1150.87 281.208C1149.68 285.249 1146.68 288.538 1146.08 293.245C1145.49 297.953 1146.85 302.316 1147.8 306.852C1148.79 311.495 1149.16 316.267 1150.43 320.824C1152.52 328.218 1156.32 335.526 1161.87 340.363C1168.16 345.844 1176.62 347.327 1184.37 348.23C1205.16 350.68 1225.76 345.307 1246.48 344.576C1252.01 344.382 1257.01 345.113 1262.39 346.36C1265.55 347.091 1268.86 347.886 1272.06 346.94C1276.57 345.607 1279.43 341.91 1279.56 337.267C1280.55 335.892 1281.49 334.473 1282.36 333.011C1282.84 334.344 1284.96 334.193 1284.92 332.474C1284.77 326.52 1287.57 321.898 1288.46 316.224C1289.26 311.022 1288.16 305.906 1288.16 300.704C1288.18 290.752 1292.27 282.605 1288.56 272.782" fill="#964A35"/>
<path d="M1537.29 814.866C1528.35 773.028 1500.87 739.943 1467.07 711.66C1447 694.866 1424.54 680.543 1402.4 666.776C1380.4 653.107 1357.81 640.511 1334.78 628.826C1336.16 627.816 1334.82 625.454 1333.42 626.475C1332.94 626.819 1332.45 627.115 1331.96 627.442C1331.37 627.143 1330.77 626.827 1330.18 626.533C1328.63 625.763 1327.28 628.11 1328.82 628.882L1329.33 629.142C1320.73 634.284 1311.13 637.018 1301.55 639.956C1290.66 643.295 1280.11 647.462 1269.75 652.23C1248.01 662.251 1225.61 673.115 1205.82 686.743C1198.38 691.863 1191.24 697.639 1185.69 704.88C1179.03 713.577 1176.47 723.319 1174.77 734.027C1170.64 760.327 1166.89 786.695 1162.95 813.024C1162.84 813.762 1163.12 814.471 1163.88 814.698C1212.7 829.238 1261.91 843.031 1311.58 854.269C1346.29 862.123 1382.12 867.71 1417.34 873.458C1444.44 877.875 1484.87 883.491 1510.36 869.356C1550.7 846.999 1540.81 831.293 1537.29 814.866" fill="#3B251D"/>
<path d="M1265.06 794.059C1261.33 781.897 1257.56 769.742 1253.77 757.597C1251.82 751.314 1249.85 745.035 1247.86 738.759C1246.4 734.111 1245.53 728.471 1242.96 724.288C1238.96 717.728 1229.57 717.105 1222.73 717.532C1214.12 718.07 1205.92 720.971 1198.04 724.424C1199.08 717.001 1200.35 709.581 1199.18 702.077C1197.49 691.199 1191.49 681.509 1183.89 673.839C1165.17 654.979 1138.48 649.702 1114.89 639.664L1115.06 639.266C1115.8 637.695 1113.49 636.313 1112.73 637.893C1112.62 638.127 1112.54 638.37 1112.43 638.607L1111.95 638.394C1110.38 637.691 1109 640.036 1110.59 640.745C1110.84 640.864 1111.12 640.973 1111.39 641.091C1111.25 641.44 1111.1 641.779 1110.97 642.13C1110.72 641.999 1110.4 641.951 1110.04 642.082C1087.98 649.883 1066.28 658.7 1045.05 668.607C1024.18 678.34 1002.77 688.422 984.297 702.378C954.08 725.178 909.157 756.118 898.393 792.739C893.54 809.278 891.803 831.067 902.546 845.664C931.004 884.373 998.24 871.413 1037.34 863.032C1061.11 857.936 1084.76 852.274 1108.26 846.049C1161.04 832.067 1213.09 815.232 1264.13 795.734C1264.79 795.482 1265.3 794.816 1265.06 794.059" fill="#3B251D"/>
<path d="M1146.04 726.092C1146.04 726.092 1128.94 728.053 1116.5 735.215C1105.99 741.261 1099.06 739.654 1082.6 737.257C1066.17 734.862 1059.46 739.654 1054.1 740.662C1048.71 741.67 1023.22 728.407 1017.52 726.092C1015.11 725.112 1012.86 722.935 1010.95 720.403C1010.19 719.367 1009.47 718.251 1008.81 717.161C1007.27 714.573 1006.12 711.987 1005.44 710.109C1003.75 705.425 1011 699.868 1011 699.868C1011 699.868 1021.87 694.722 1036.32 694.123C1050.73 693.551 1071.85 706.267 1082.96 705.614C1094.04 704.907 1105.76 698.807 1121.21 701.53C1136.63 704.253 1146.04 726.092 1146.04 726.092" fill="#FFA280"/>
<path d="M1020.53 709.848C1014.37 708.807 1008.14 708.33 1003.09 704.154C1001.78 703.053 999.871 704.968 1001.21 706.078C1006.67 710.617 1013.05 711.333 1019.83 712.474C1021.51 712.758 1022.25 710.134 1020.53 709.848" fill="#DB7753"/>
<path d="M1019.51 721.273C1016.63 721.217 1013.77 720.918 1010.95 720.402C1010.19 719.366 1009.47 718.251 1008.81 717.161C1012.31 718.003 1015.89 718.468 1019.51 718.549C1021.25 718.575 1021.25 721.301 1019.51 721.273Z" fill="#DB7753"/>
<path d="M1011 699.864C1011 699.864 969.803 698.986 951.855 693.232L952.003 692.921C952.724 691.459 950.562 690.169 949.842 691.637C942.701 706.325 934.839 720.608 926.258 734.479C925.961 734.926 926.046 735.661 926.448 736.02C936.323 744.726 952.024 770.729 952.024 770.729L1011 699.864" fill="#FFA280"/>
<path d="M1369.91 460.002C1376.82 447.345 1385.7 432.555 1379.17 418.067C1373.05 404.504 1362.26 392.079 1351.58 382.063C1327.55 359.493 1297.17 347.864 1265.32 342.103C1233.75 336.364 1199.1 332.839 1168.48 344.446C1168.12 344.425 1167.76 344.554 1167.46 344.812C1165.05 345.757 1162.63 346.768 1160.26 347.928C1158.69 348.681 1159.96 351.088 1161.51 350.336C1163.25 349.498 1164.98 348.724 1166.74 347.993L1166.72 348.401C1139.87 359.02 1119.98 363.233 1095.69 379.032C1086.62 384.943 1065.31 400.957 1063.29 412.973C1060.84 427.761 1066.11 444.764 1068.85 459.148C1070.37 467.218 1071.79 475.33 1072.34 483.541C1072.91 491.924 1072.57 500.361 1073.74 508.701C1075.77 523.563 1084.25 536.632 1085.99 551.53C1087.66 565.962 1082.3 579.97 1089.29 593.587C1091.09 597.089 1093.53 600.459 1094.55 604.324C1095.91 609.44 1093.79 613.221 1091.26 617.494C1088.87 621.587 1086.79 625.604 1087.87 630.509C1089.59 638.17 1095.84 643.078 1096.03 651.368C1096.18 657.967 1095.46 663.56 1098.07 669.852C1100.63 676.07 1105 681.225 1110.4 684.804C1120.51 694.56 1136.89 698.412 1149.88 700.721C1176.21 705.407 1203.47 707.902 1230.21 706.716C1251.14 705.787 1272.54 705.405 1292.91 699.893C1308.44 695.687 1325.1 688.538 1336.26 676.423C1345.8 666.099 1345.23 650.027 1344.32 636.438C1343.7 627.117 1347.56 619.601 1350.86 610.917C1353.36 604.432 1354.87 598.51 1354.04 591.5C1352.9 581.812 1349.17 572.913 1349.15 563.025C1349.13 554.791 1353.32 546.651 1353.66 538.435C1354.04 529.412 1352.26 520.93 1350.76 512.08C1348.93 501.287 1352.07 491.86 1357.03 482.023C1360.86 474.425 1365.84 467.469 1369.91 460.002" fill="#FFC080"/>
<path d="M1313.38 380.343C1301.93 369.638 1290.09 361.234 1274.79 357.451C1256.44 352.937 1235.97 350.508 1217.11 350.916C1196.96 351.346 1177.53 357.171 1158.69 364.007C1158.42 363.942 1158.12 363.942 1157.82 364.071C1145.02 369.896 1129.36 376.474 1121.14 388.726C1110.48 404.654 1142.48 424.881 1152.42 430.233C1177.4 443.689 1203.4 451.963 1232.56 450.252C1263.75 448.42 1291.57 432.49 1312.49 409.469C1316.01 405.578 1319.95 400.763 1320.82 395.411C1321.81 389.07 1317.66 384.341 1313.38 380.343" fill="#FFA280"/>
<path d="M1167.08 358.526C1167.38 372.734 1167.99 387.115 1171.83 400.786C1180.07 430.212 1205.97 451.045 1236.88 445.917C1246.33 444.356 1255.53 440.379 1262.46 433.694C1275 421.593 1282.19 399.453 1280.98 382.128C1280.43 374.131 1277.5 366.071 1271.78 360.525C1266.42 355.323 1259.05 352.722 1251.67 351.884C1244.32 351.046 1236.88 351.863 1229.51 352.701C1208.74 355.044 1187.98 357.623 1167.08 358.526" fill="#DB7753"/>
<path d="M1265.87 292.428C1257.31 281.358 1245.68 278.951 1232.39 280.327C1217.81 281.853 1203.25 285.894 1190.52 293.374C1179.1 300.081 1164.41 311.86 1163.48 326.283C1163.48 326.52 1163.52 326.713 1163.59 326.885C1163.2 327.079 1162.91 327.444 1162.89 328.003C1161.64 357.709 1169.41 402.612 1193.46 424.322C1200.92 431.072 1207.91 438.81 1219.27 439.885C1228.68 440.788 1233.79 438.66 1241.12 432.491C1249.43 425.505 1259.6 417.38 1263.73 409.34C1276.87 383.675 1279.33 352.572 1279.92 324.155C1280.17 311.581 1273.73 302.596 1265.87 292.428" fill="#FFA280"/>
<path d="M1290.07 332.882C1285.81 323.854 1279.03 329.464 1274.68 335.01C1273.96 334.279 1272.37 334.58 1272.37 335.934C1272.35 336.837 1272.27 337.718 1272.25 338.6C1272.14 338.879 1272.12 339.159 1272.2 339.395C1271.84 346.639 1270.57 353.646 1269.32 360.847C1268.58 365.146 1266.59 373.4 1269.49 377.226C1274.28 383.524 1283.97 371.745 1285.96 367.575C1290.09 358.977 1294.41 342.082 1290.07 332.882" fill="#FFA280"/>
<path d="M1155.11 370.305C1157.1 374.475 1166.79 386.255 1171.57 379.935C1174.48 376.131 1172.46 367.876 1171.72 363.556C1170.49 356.355 1169.22 349.348 1168.86 342.104C1168.95 341.867 1168.93 341.609 1168.82 341.33C1168.78 340.427 1168.71 339.568 1168.69 338.665C1168.69 337.311 1167.1 337.009 1166.38 337.74C1162.04 332.195 1155.26 326.563 1151 335.591C1146.65 344.812 1150.98 361.686 1155.11 370.305Z" fill="#FFA280"/>
<path d="M1106.12 479.482C1104.53 471.957 1102.16 464.638 1098.83 457.706C1095.27 450.247 1090.65 443.152 1089.08 434.876C1087.75 427.826 1088.13 420.969 1085.06 414.305C1082.53 408.824 1078.68 404.439 1073.97 400.849C1075.8 399.259 1077.66 397.711 1079.59 396.206C1080.94 395.153 1079.61 392.789 1078.23 393.863C1057.06 410.286 1041.45 431.974 1031.91 457.194C1026.55 471.351 1024.18 486.148 1019.83 500.576C1015.74 514.165 1003.86 521.039 997.774 533.502C993.303 542.654 993.938 556.097 989.658 566.381C984.297 579.31 975.482 586.264 973.257 599.722C971.074 612.812 961.369 621.98 957.195 634.189C955.627 638.793 955.33 643.297 956.199 648.073C957.788 656.843 954.356 658.466 948.062 665.095C943.061 670.34 938.76 695.719 941.472 697.419C948.041 701.533 955.796 704.308 962.81 707.593C969.697 710.817 971.689 714.043 978.576 717.27C983.513 719.578 989.531 723.68 995.252 722.902C1005.87 721.455 1014.62 707.752 1020.49 699.906C1029.54 687.82 1035.7 673.871 1045.81 662.604C1053.82 653.683 1060.9 645.713 1062.66 633.366C1063.78 625.501 1069.1 618.289 1074.21 611.86C1078.32 606.688 1083.76 602.89 1088.57 598.438C1097.05 590.597 1102.45 580.492 1105.42 569.324C1108.98 555.949 1109.38 541.924 1109.49 528.152C1109.61 511.906 1109.51 495.44 1106.12 479.482" fill="#FFC080"/>
<path d="M1486.88 765.83C1486.88 765.83 1502.98 740.453 1512.99 732.558C1513.39 732.233 1513.5 731.528 1513.24 731.081C1505.65 717.227 1498.79 703.015 1492.64 688.448C1492.03 686.992 1489.87 688.123 1490.48 689.574L1490.61 689.883C1472.98 694.498 1433.12 693.183 1433.12 693.183L1486.88 765.83" fill="#FFA280"/>
<path d="M1499.62 686.893C1498.2 685 1496.5 683.83 1494.78 682.302C1490.38 678.411 1488.26 675.32 1489.13 669.545C1489.25 668.638 1489.47 667.743 1489.57 666.83C1490.44 659.781 1487.62 654.036 1484.53 647.927C1477.58 634.129 1476.62 619.113 1472.92 604.331C1471.39 598.271 1469.29 592.212 1465.88 586.958C1461.47 580.183 1454.71 576.157 1453.04 567.701C1451.58 560.229 1451.24 552.841 1448.97 545.488C1446.64 537.924 1443.21 530.899 1439.18 524.13C1434.71 516.635 1430.24 509.443 1427.19 501.193C1423.95 492.461 1421.87 483.343 1419.16 474.442C1414.96 460.692 1409.18 447.444 1401.95 435.07C1385.76 407.32 1362.81 384.148 1333.72 367.94C1332.19 367.081 1330.82 430.04 1327.19 458.063C1323.84 483.79 1322.68 510.341 1329.93 535.523C1333.21 546.902 1338.15 557.847 1345.08 567.415C1348.79 572.518 1353.21 577.058 1356.71 582.313C1360.21 587.573 1362.11 593.45 1363.89 599.473C1366.75 609.152 1365.17 621.084 1373.3 627.419C1377.69 630.836 1382.65 633.467 1386.84 637.121C1391.78 641.39 1394.98 646.966 1397.71 652.839C1402.82 663.82 1408.18 672.526 1415.83 681.956C1424.33 692.45 1433.61 702.596 1436.17 716.378C1436.28 716.941 1436.91 717.401 1437.49 717.38C1447.64 716.98 1519.03 712.681 1499.62 686.893" fill="#FFC080"/>
<path d="M1550.01 806.915C1551.64 808.658 1553.29 810.619 1555.09 812.334L1555.2 812.441C1556.32 813.477 1557.49 814.43 1558.78 815.193C1568.93 821.347 1578.42 808.385 1569.46 801.578L1569.65 801.468C1573.57 798.173 1569.12 791.391 1567.74 787.935C1564.46 779.573 1554.75 748.42 1545.94 742.213C1533.24 733.281 1527.54 733.363 1512.1 731.212C1511.95 730.775 1511.61 730.395 1511.04 730.341C1502.14 729.415 1494.32 733.062 1486.75 737.447C1484.57 738.726 1481.73 740.007 1480.67 742.539C1479.21 746.052 1481.41 750.355 1482.47 753.622C1484.49 759.723 1486.48 765.851 1488.47 771.977C1489.7 775.734 1490.91 779.492 1492.14 783.251C1495.31 792.917 1498.54 802.558 1501.97 812.117C1503.79 817.181 1516.14 855.823 1524.7 849.396C1529.11 846.129 1523.2 835.59 1522.18 831.996C1521.14 828.318 1520.25 824.614 1519.45 820.885C1521.31 826.411 1523.56 831.83 1526.21 837.06C1529.96 844.495 1536.42 858.845 1546.04 859.58C1546.49 859.608 1546.91 859.363 1547.12 859.008C1550.05 854.57 1544.81 845.557 1542.82 841.363C1540.11 835.617 1536.78 825.908 1534.73 819.971C1539.03 828.277 1545.66 839.287 1551.89 846.012C1554.18 848.489 1561.7 856.938 1565.45 852.283C1568.84 848.035 1560.47 838.203 1558.67 834.472C1554.43 825.732 1546.4 803.837 1545.45 801.195L1545.39 801.006L1545.34 800.924L1545.39 800.95C1545.62 801.331 1547.74 804.462 1550.01 806.915" fill="#FFA280"/>
<path d="M1565.39 797.432C1564.58 796.709 1563.57 796.172 1562.47 795.798C1557.78 791.176 1554.65 785.605 1551.76 779.7C1550.07 776.267 1548.56 770.825 1545.17 768.63C1541.7 766.378 1536.59 768.269 1532.71 768.052C1524.37 767.583 1516.59 764.258 1509.53 759.89C1508.05 758.975 1506.69 761.328 1508.18 762.242C1511.31 764.181 1514.55 765.887 1517.95 767.28C1517.75 771.136 1515.21 774.44 1513.01 777.452C1510.59 780.781 1507.86 783.673 1504.3 785.779C1502.82 786.665 1504.17 789.018 1505.66 788.128C1509.6 785.79 1512.65 782.54 1515.34 778.827C1517.67 775.614 1520.09 772.254 1520.57 768.278C1521.46 768.591 1522.35 768.914 1523.29 769.172C1525.62 769.827 1528.03 770.307 1530.43 770.575C1533.73 770.943 1537.33 769.997 1540.51 770.434C1546.7 771.285 1548.76 779.954 1551.36 784.913C1553.33 788.659 1555.56 792.111 1558.27 795.245C1556.38 795.344 1554.58 795.869 1553.23 796.896C1549.5 799.716 1550.62 805.15 1553.04 808.458C1554.05 809.847 1556.38 808.493 1555.35 807.083C1553.71 804.858 1552.19 800.74 1555.13 798.848C1556.64 797.879 1559.18 797.685 1561.22 798.238L1561.58 798.328C1562.32 798.566 1562.97 798.906 1563.48 799.358C1564.78 800.518 1566.68 798.597 1565.39 797.432" fill="#DB7753"/>
<path d="M1536.19 818.205C1534.62 814.088 1533.03 809.97 1531.46 805.854C1530.85 804.237 1528.26 804.94 1528.88 806.578C1530.45 810.694 1532.04 814.811 1533.6 818.927C1534.22 820.546 1536.8 819.843 1536.19 818.205" fill="#DB7753"/>
<path d="M1521.14 818.76C1520.25 816.15 1519.34 813.543 1518.45 810.933C1517.88 809.289 1515.3 809.996 1515.87 811.658C1516.76 814.265 1517.65 816.874 1518.56 819.482C1519.13 821.126 1521.72 820.419 1521.14 818.76Z" fill="#DB7753"/>
<path d="M959.251 748.129C958.297 745.472 955.415 743.969 953.254 742.55C945.689 737.589 937.806 733.389 928.568 733.836C927.974 733.866 927.614 734.228 927.444 734.668C911.382 736.035 896.168 741.155 883.412 750.873C874.448 757.681 869.956 781.319 866.121 789.749C864.531 793.247 859.573 799.987 863.43 803.609L863.599 803.747C854 810.271 863.069 824.161 873.897 818.404C877.521 816.474 880.487 813.153 883.412 810.329C886.06 807.769 890.553 801.931 890.553 801.931C890.553 801.931 888.37 806.956 887.226 809.473C883.009 819.286 878.898 829.281 873.749 838.64C871.672 842.389 862.476 852.057 865.76 856.629C869.384 861.655 878.771 854.435 881.272 852.012C888.052 845.426 893.879 837.632 898.774 829.277C896.316 835.287 892.82 840.863 889.705 846.625C887.438 850.853 881.526 859.851 884.302 864.615C884.514 864.995 884.937 865.253 885.382 865.244C895.384 865.051 902.8 850.585 907.102 843.135C910.111 837.881 912.717 832.419 914.964 826.811C913.925 830.614 912.802 834.397 911.531 838.133C910.259 841.791 903.606 852.326 907.95 855.956C916.468 863.065 931.322 823.884 933.484 818.744C941.663 799.177 949.058 779.243 956.771 759.471C958.064 756.155 960.564 751.847 959.251 748.129" fill="#FFA280"/>
<path d="M880.635 799.239C876.525 795.802 870.909 796.843 867.264 800.383C866.014 801.597 867.921 803.521 869.172 802.309C871.651 799.882 875.359 798.9 878.41 800.935C881.462 802.982 881.864 807.201 879.3 809.808C878.071 811.049 879.978 812.975 881.186 811.735C884.683 808.192 884.471 802.455 880.635 799.239Z" fill="#DB7753"/>
<path d="M929.288 769.168C922.889 771.917 916.235 772.599 909.37 772.291C905.217 772.104 900.11 770.481 896.041 771.838C893.117 772.816 891.634 775.088 889.939 777.545C886.421 782.667 882.967 787.828 879.471 792.97C878.496 794.416 880.827 795.779 881.802 794.343C884.578 790.229 887.375 786.117 890.172 782.003C891.486 780.064 892.799 777.282 894.622 775.743C897.631 773.188 902.356 774.467 905.831 774.763C914.413 775.501 922.635 774.963 930.623 771.52C932.212 770.836 930.856 768.491 929.288 769.168" fill="#DB7753"/>
<path d="M934.077 789.02C928.928 784.261 924.287 779.023 920.24 773.28C919.244 771.868 916.913 773.226 917.909 774.653C922.105 780.586 926.851 786.028 932.17 790.946C933.441 792.124 935.348 790.205 934.077 789.02Z" fill="#DB7753"/>
<path d="M903.161 815.873C901.91 819.426 900.3 822.777 898.35 825.973C897.418 827.465 899.749 828.834 900.66 827.349C902.737 823.957 904.432 820.365 905.746 816.597C906.318 814.94 903.733 814.226 903.161 815.873" fill="#DB7753"/>
<path d="M916.637 819.67C915.79 821.977 914.667 824.146 913.332 826.207C912.399 827.677 914.709 829.044 915.663 827.583C917.125 825.324 918.29 822.92 919.222 820.395C919.837 818.75 917.252 818.041 916.637 819.67" fill="#DB7753"/>
<path d="M1417.84 722.96C1417.29 724.841 1416.02 726.745 1413.75 728.407C1406.78 733.499 1382.94 745.1 1348.72 758.362C1314.48 771.623 1267.5 792.754 1267.5 792.754L1248.73 748.477C1251.08 748.477 1273.2 746.46 1277.93 739.3C1282.59 732.138 1276.57 714.545 1290.32 707.004C1304.07 699.459 1315.84 708.663 1328.57 710.706C1341.33 712.75 1378.24 717.569 1387.99 714.817C1397.71 712.068 1409.01 714.164 1413.75 714.817C1416.13 715.144 1417.84 717.214 1418.14 719.856C1418.27 720.836 1418.18 721.872 1417.84 722.96" fill="#FFA280"/>
<path d="M1309.37 737.134C1307 744.289 1299.37 746.388 1292.91 748.047C1291.23 748.477 1291.93 751.103 1293.63 750.674C1301.15 748.743 1309.25 746.035 1311.98 737.858C1312.53 736.194 1309.94 735.481 1309.37 737.134" fill="#DB7753"/>
<path d="M1417.84 722.96C1413.56 724.813 1408.92 725.847 1404.07 725.982C1402.35 726.038 1402.35 723.315 1404.07 723.261C1409.09 723.123 1413.82 721.98 1418.14 719.856C1418.27 720.836 1418.18 721.873 1417.84 722.96Z" fill="#DB7753"/>
<path d="M1202.3 369.188C1199.82 368.823 1197.76 370.542 1195.39 370.908C1193.93 371.123 1192.51 370.929 1191.22 370.22C1189.9 369.532 1188.91 368.156 1187.25 368.694C1186.03 369.08 1185.75 370.521 1186.28 371.531C1187.87 374.54 1192.3 375.873 1195.98 375.765C1198.53 375.701 1201.07 374.82 1202.72 373.207C1203.32 372.627 1203.78 371.961 1203.89 371.208C1204.08 369.919 1203.34 369.339 1202.3 369.188" fill="#3B251D"/>
<path d="M1241.5 369.188C1243.98 368.823 1246.04 370.542 1248.41 370.908C1249.87 371.123 1251.29 370.929 1252.58 370.22C1253.9 369.532 1254.89 368.156 1256.55 368.694C1257.77 369.08 1258.05 370.521 1257.52 371.531C1255.93 374.54 1251.5 375.873 1247.82 375.765C1245.27 375.701 1242.73 374.82 1241.08 373.207C1240.48 372.627 1240.02 371.961 1239.91 371.208C1239.72 369.919 1240.46 369.339 1241.5 369.188" fill="#3B251D"/>
<path d="M1206.69 354.979C1206.03 354.549 1205.27 354.226 1204.57 353.969C1196.56 351.239 1187.51 351.733 1179.84 355.344C1178.84 355.817 1177.82 356.376 1177.21 357.3C1174.65 361.126 1181.02 361.32 1183.1 361.298C1189.56 361.298 1196.03 361.277 1202.49 361.234C1203.76 361.213 1205.08 361.191 1206.24 360.697C1207.41 360.202 1208.44 359.127 1208.47 357.838C1208.49 356.612 1207.7 355.688 1206.69 354.979" fill="#964A35"/>
<path d="M1231.88 357.838C1231.9 359.127 1232.92 360.202 1234.11 360.697C1235.27 361.191 1236.59 361.213 1237.86 361.234C1244.32 361.277 1250.76 361.298 1257.22 361.298C1259.32 361.32 1265.68 361.126 1263.11 357.3C1262.5 356.376 1261.48 355.817 1260.51 355.344C1252.84 351.733 1243.79 351.239 1235.78 353.969C1235.06 354.226 1234.32 354.549 1233.66 354.979C1232.62 355.688 1231.86 356.612 1231.88 357.838" fill="#964A35"/>
<path d="M1229.08 401.15C1226.5 402.182 1223.89 403.214 1221.12 403.472C1218.89 403.666 1217.45 403.709 1215.82 402.075C1214.04 400.291 1214.4 398.937 1214.44 396.443C1214.53 390.446 1215.1 384.449 1215.8 378.495C1215.99 376.775 1213.32 376.775 1213.11 378.495C1212.49 383.804 1212.03 389.113 1211.83 394.444C1211.73 397.174 1211.11 400.871 1212.7 403.322C1216.33 408.91 1225.16 405.6 1229.8 403.795C1231.39 403.15 1230.69 400.527 1229.08 401.15Z" fill="#DB7753"/>
<path d="M1239.42 408.954C1234.44 411.555 1229.17 413.683 1223.38 413.854C1219.1 413.962 1214.93 412.952 1211.03 411.34C1209.23 410.587 1207.34 409.469 1205.61 408.717C1204.52 408.266 1202.17 407.578 1203.3 409.534C1210.54 422.323 1233.41 423.14 1240.95 409.792C1241.5 408.825 1240.57 408.352 1239.42 408.954" fill="#DB7753"/>
<path d="M1166 363.964C1160.98 359.622 1163.84 354.721 1165.64 349.584C1166.21 347.929 1163.61 347.22 1163.03 348.875C1161.93 352.077 1160.07 355.108 1160.32 358.633C1160.53 361.514 1161.97 364.05 1164.11 365.899C1165.43 367.038 1167.34 365.103 1166 363.964Z" fill="#DB7753"/>
<path d="M1281.46 346.166C1280.85 344.554 1278.24 345.242 1278.88 346.876C1280.57 351.261 1280.02 355.775 1277.31 359.579C1276.29 361.02 1278.63 362.374 1279.62 360.955C1282.71 356.656 1283.39 351.132 1281.46 346.166Z" fill="#DB7753"/>
<path d="M1257.77 279.983C1248.3 276.222 1237.54 274.932 1227.58 275.684C1217.28 276.458 1205.14 282.627 1195.29 285.894C1176.09 292.278 1162.59 308.185 1161.53 328.799C1161.38 329.013 1161.28 329.25 1161.28 329.551C1161.17 335.806 1161.45 343.824 1167.65 347.306C1170.01 348.638 1172.36 348.703 1174.94 348.123C1180.37 346.876 1184.8 345.887 1190.39 346.038C1199.78 346.253 1207.28 343.2 1213.55 337.998C1212.09 341.846 1211.2 346.124 1214.4 347.8C1219.89 350.659 1226.65 340.986 1229.61 337.698C1235.17 331.528 1239.98 324.779 1244.09 317.6C1243.77 320.652 1243.3 323.683 1242.6 326.692C1241.8 330.282 1238.77 335.462 1239.4 339.138C1240.55 345.844 1248.54 338.6 1252.22 339.525C1253.62 339.869 1254.96 341.266 1256.44 341.76C1258.2 342.34 1260.02 342.534 1261.86 342.577C1265.15 342.598 1269.56 342.34 1272.61 340.965C1279.09 338.063 1280.68 328.24 1281 321.899C1281.87 304.896 1273.22 286.109 1257.77 279.983" fill="#964A35"/>
<path d="M1090.82 590.277C1084.12 577.064 1086.81 562.308 1086.79 548.081C1086.75 533.096 1080.18 519.565 1079.95 504.622C1079.82 497.159 1080.35 489.672 1079.46 482.237C1078.66 475.457 1076.66 468.92 1074.57 462.457C1069.82 447.761 1064.92 433.114 1060.09 418.433C1059.56 416.778 1056.96 417.487 1057.51 419.164C1062.34 433.823 1067.23 448.485 1071.98 463.181C1074.57 471.137 1076.77 479.068 1077.22 487.479C1077.66 495.811 1076.77 504.175 1077.7 512.487C1077.98 515.094 1078.53 517.626 1079.14 520.139C1067.45 497.094 1058.1 472.955 1051.24 447.95C1050.77 446.265 1048.18 446.981 1048.63 448.674C1056.45 477.117 1067.45 504.465 1081.45 530.351C1081.58 530.611 1081.77 530.762 1081.98 530.869C1082.11 531.385 1082.26 531.893 1082.39 532.408C1084.19 539.837 1084.23 547.358 1083.95 554.952C1083.51 567.559 1082.64 580.1 1088.49 591.653C1089.29 593.212 1091.6 591.836 1090.82 590.277" fill="#EDA458"/>
<path d="M1316.89 655.686C1286.25 676.911 1245.27 681.487 1209.02 680.118C1171.89 678.716 1135.21 668.508 1103.98 647.815C1102.52 646.854 1101.18 649.21 1102.62 650.166C1134.24 671.113 1171.45 681.427 1209.02 682.841C1245.7 684.223 1287.25 679.507 1318.25 658.038C1319.67 657.056 1318.34 654.695 1316.89 655.686Z" fill="#EDA458"/>
<path d="M1344.72 611.792C1329.31 627.288 1310.92 638.867 1290.37 645.941C1288.75 646.502 1289.43 649.135 1291.09 648.568C1312.06 641.343 1330.88 629.543 1346.6 613.718C1347.83 612.482 1345.95 610.558 1344.72 611.792" fill="#EDA458"/>
<path d="M1383.24 420.776C1376.8 431.029 1373.85 442.658 1370.31 454.138C1368.26 460.744 1365.97 467.308 1362.5 473.297C1359.68 478.17 1355.95 482.561 1353.93 487.89C1352.01 493.049 1352.35 498.279 1353.07 503.663C1354.13 511.431 1354.87 518.978 1354.34 526.828C1353.38 541.004 1347.18 554.598 1348.74 568.926C1348.93 570.65 1351.63 570.668 1351.43 568.926C1349.99 555.819 1355.33 543.442 1356.71 530.554C1357.41 523.939 1357.41 517.259 1356.71 510.645C1355.91 502.934 1353.72 495.316 1356.9 487.856C1359.21 482.439 1363.13 477.92 1365.89 472.738C1368.37 468.067 1370.25 463.089 1371.88 458.057C1375.89 445.803 1378.62 433.178 1385.55 422.152C1386.48 420.668 1384.17 419.314 1383.24 420.776" fill="#EDA458"/>
<path d="M1492.28 693.344C1476.07 704.001 1456.96 708.222 1437.87 705.185C1436.17 704.917 1435.45 707.541 1437.15 707.812C1456.96 710.961 1476.79 706.772 1493.64 695.693C1495.08 694.745 1493.72 692.385 1492.28 693.344" fill="#EDA458"/>
<path d="M997.032 715.256C980.017 706.035 962.662 697.516 944.99 689.707C943.422 689.015 942.066 691.36 943.634 692.059C961.327 699.868 978.661 708.386 995.676 717.608C997.202 718.433 998.558 716.084 997.032 715.256Z" fill="#EDA458"/>
<path d="M1262.88 796.15C1241.67 805.735 1219.8 813.529 1197.38 819.539C1195.71 819.986 1196.41 822.613 1198.08 822.164C1220.76 816.093 1242.81 808.181 1264.24 798.502C1265.81 797.79 1264.45 795.443 1262.88 796.15" fill="#544743"/>
<path d="M1245.93 740.354C1242.81 733.065 1238.68 721.086 1230.4 718.081C1227.92 717.184 1225.76 717.434 1223.32 718.261C1216.79 720.503 1213.38 724.463 1205.82 722.99C1197.19 721.307 1190.9 717.945 1182.13 720.72C1177.97 722.033 1175.79 722.702 1171.3 722.087C1168.73 721.735 1166.25 721.296 1163.65 721.292C1158.67 721.283 1153.92 722.412 1149.28 724.235C1147.69 724.862 1148.39 727.495 1150 726.859C1155.15 724.83 1160.49 723.723 1166.04 724.101C1170.24 724.387 1174.41 725.905 1178.63 724.957C1182.63 724.054 1185.79 721.752 1190.11 721.956C1194.61 722.169 1198.89 724.078 1203.19 725.159C1209.08 726.64 1213.89 726.403 1219.25 723.502C1222.81 721.574 1225.88 718.702 1230.78 721.264C1233.51 722.706 1235.69 726.186 1237.3 728.755C1239.87 732.807 1241.71 737.325 1243.6 741.727C1244.3 743.331 1246.61 741.947 1245.93 740.354" fill="#544743"/>
<path d="M1046.47 742.108C1038.03 743.109 1029.75 744.79 1021.63 746.998C1021.44 746.62 1021.1 746.312 1020.57 746.254C1008.01 744.883 995.528 743.782 982.962 745.824C981.267 746.102 981.987 748.726 983.682 748.451C994.532 746.686 1005.34 747.4 1016.19 748.513C1000.15 753.455 984.869 760.751 970.778 770.307C969.337 771.277 970.672 773.637 972.113 772.661C994.447 757.531 1019.79 747.995 1046.47 744.829C1048.16 744.629 1048.18 741.904 1046.47 742.108" fill="#544743"/>
<path d="M1490.25 798.055C1474.55 774.009 1450.88 756.43 1423.76 748.438C1439.75 749.76 1455.27 753.773 1468.85 763.665C1470.25 764.69 1471.6 762.328 1470.2 761.314C1445.12 743.051 1413.54 744.322 1384.17 746.155C1382.46 746.261 1382.46 748.984 1384.17 748.879C1393.35 748.305 1402.74 747.778 1412.08 747.894C1412.21 748.2 1412.48 748.447 1412.93 748.535C1443.57 754.674 1470.67 772.999 1487.94 799.429C1488.89 800.882 1491.22 799.521 1490.25 798.055Z" fill="#544743"/>
<path d="M1247.05 271.642C1246.69 269.923 1244.11 270.654 1244.47 272.373C1247.1 284.862 1246.97 297.286 1244.09 309.71C1243.68 311.408 1246.27 312.139 1246.67 310.441C1249.66 297.544 1249.79 284.582 1247.05 271.642Z" fill="#73301E"/>
<path d="M1234.49 298.512C1229.87 312.076 1222.39 324.006 1212.28 334.044C1211.05 335.269 1212.94 337.204 1214.19 335.978C1224.61 325.618 1232.3 313.237 1237.07 299.243C1237.64 297.588 1235.06 296.879 1234.49 298.512Z" fill="#73301E"/>
<path d="M1264.62 253.049C1263.28 251.953 1261.38 253.866 1262.71 254.962C1279.79 268.977 1280.13 292.02 1279.83 312.462C1279.81 314.224 1282.5 314.224 1282.52 312.462C1282.82 291.332 1282.25 267.515 1264.62 253.049Z" fill="#73301E"/>
<path d="M1229.04 287.936C1225.55 301.951 1210.95 308.378 1203.21 319.642C1200.63 323.382 1198.72 326.713 1194.27 328.11C1191.9 328.841 1189.46 328.648 1187.15 329.529C1181.85 331.528 1179.05 337.418 1173.18 338.256C1171.49 338.514 1172.21 341.137 1173.91 340.879C1180.28 339.976 1183.46 333.635 1189.46 332.001C1196.09 330.196 1199.14 330.153 1203.44 324.134C1208.57 316.976 1214.17 311.731 1220.52 305.756C1225.65 300.941 1229.89 295.631 1231.65 288.646C1232.07 286.947 1229.47 286.238 1229.04 287.936" fill="#73301E"/>
<path d="M1241.48 246.494C1229.99 239.036 1210.52 236.972 1198.51 244.066C1197.02 244.947 1198.36 247.311 1199.86 246.409C1210.97 239.853 1229.51 241.959 1240.12 248.838C1241.59 249.783 1242.94 247.419 1241.48 246.494Z" fill="#73301E"/>
<path d="M902.292 962.868L790.154 1092.05L743.577 1071.3L544.98 982.775L590.106 928.747L610.991 903.748L646.425 861.323C647.311 860.287 648.734 859.907 649.97 860.397L901.02 957.748C903.097 958.539 903.733 961.181 902.292 962.868" fill="white"/>
<path d="M785.323 1084.14C785.027 1084.14 784.709 1084.03 784.454 1083.81C783.903 1083.32 783.84 1082.46 784.327 1081.89L885.467 963.544L651.371 870.547L590.246 942.833C589.763 943.405 588.92 943.469 588.354 942.979C587.793 942.489 587.727 941.629 588.21 941.06L649.953 868.041C650.324 867.603 650.93 867.448 651.46 867.658L888.222 961.712C888.624 961.874 888.921 962.226 889.027 962.654C889.133 963.084 889.027 963.537 888.751 963.873L786.34 1083.67C786.086 1083.98 785.705 1084.14 785.323 1084.14" fill="#FFE1C7"/>
<path d="M493.042 873.492L544.977 982.769L790.155 1092.05L723.578 964.176C723.235 963.518 722.676 963.002 721.996 962.721L497.051 869.174C494.396 868.069 491.798 870.87 493.042 873.492Z" fill="white"/>
<path d="M787.908 1089.09C787.421 1089.09 786.955 1088.83 786.722 1088.36L724.09 968.075C723.139 966.25 721.582 964.807 719.704 964.016L603.808 915.048C603.123 914.76 602.799 913.963 603.085 913.269C603.373 912.574 604.159 912.252 604.842 912.536L720.736 961.501C723.188 962.535 725.222 964.418 726.464 966.804L789.095 1087.09C789.434 1087.75 789.179 1088.58 788.544 1088.93C788.332 1089.04 788.12 1089.09 787.908 1089.09" fill="#FFE1C7"/>
<path d="M771.783 954.937L698.467 923.281L713.332 902.442L786.637 934.097L771.783 954.937Z" fill="#FFE1C7"/>
<path d="M1537.97 266.162C1529.43 261.842 1519.34 264.185 1510.44 261.068C1506.93 259.843 1503.56 258.188 1500.21 256.532L1500.32 256.511C1505.59 255.264 1510.89 254.06 1516.36 253.846C1528.54 253.373 1537.06 260.359 1543.14 269.73C1541.57 268.333 1539.86 267.129 1537.97 266.162V266.162ZM1555.75 291.333C1555.68 291.097 1554.33 287.12 1554.2 286.797C1554.07 286.497 1544.33 251.245 1526.44 248.149C1519.51 246.967 1513.35 250.32 1506.86 252.083C1498.26 254.404 1491.61 251.546 1483.28 250.578C1477.13 249.89 1472.37 249.568 1466.73 246.731C1462.22 244.474 1458.06 242.41 1453.06 241.421C1447.55 240.325 1439.33 239.1 1435.73 244.646C1432.63 249.418 1432.57 257.5 1435.88 262.143C1440.67 268.914 1449.78 267.56 1456.92 267.517C1462.72 267.474 1468.53 267.925 1474.25 268.957C1477.68 269.58 1480.1 270.354 1482.73 272.74C1484.46 274.352 1485.5 276.587 1487.33 278.071C1495.91 285.056 1506.57 275.556 1515.4 274.653C1523.22 273.857 1531.61 274.653 1538.94 277.619C1542.57 279.081 1550.81 287.786 1551.87 288.431C1553.12 289.227 1556.36 293.74 1555.75 291.333" fill="#D5E2ED"/>
<path d="M1500.29 428.148C1500.29 428.148 1499.85 444.807 1508.18 456.229C1516.5 467.643 1539.92 473.505 1562.11 474.122C1584.31 474.739 1603.57 465.247 1608.64 458.08C1617.16 446.049 1617.16 428.148 1617.16 428.148H1500.29" fill="#544743"/>
<path d="M1617.16 428.149C1617.16 446.557 1591.01 461.475 1558.74 461.475C1526.44 461.475 1500.29 446.557 1500.29 428.149C1500.29 409.749 1526.44 394.831 1558.74 394.831C1591.01 394.831 1617.16 409.749 1617.16 428.149Z" fill="white"/>
<path d="M1605.84 428.148C1605.84 443.001 1584.76 455.021 1558.74 455.021C1532.69 455.021 1511.61 443.001 1511.61 428.148C1511.61 413.317 1532.69 401.279 1558.74 401.279C1584.76 401.279 1605.84 413.317 1605.84 428.148Z" fill="#FFE1C7"/>
<path d="M1599.89 426.15C1598.78 426.15 1597.75 425.44 1597.36 424.301L1554.41 298.469C1553.93 297.05 1554.67 295.502 1556.07 295.008C1557.48 294.514 1559.01 295.266 1559.5 296.685L1602.43 422.517C1602.92 423.936 1602.17 425.505 1600.78 425.978C1600.48 426.085 1600.18 426.15 1599.89 426.15" fill="#544743"/>
<path d="M729.97 377.464C726.421 417.96 684.95 446.559 637.341 441.347C589.733 436.124 554.013 399.066 557.563 358.569C561.11 318.073 602.583 289.463 650.192 294.686C697.8 299.888 733.518 336.945 729.97 377.464Z" fill="white"/>
<path d="M727.19 438.854C723.421 481.652 681.772 512.098 634.166 506.858C586.559 501.617 551.024 462.674 554.793 419.873C558.563 377.077 600.214 346.618 647.819 351.863C695.427 357.108 730.962 396.057 727.19 438.854" fill="white"/>
<path d="M557.97 354.356L554.793 419.873C554.793 419.873 608.491 453.814 613.426 454.743C618.359 455.669 661.883 468.065 671.429 466.496C680.978 464.929 727.191 438.854 727.191 438.854L730.367 373.337C730.367 373.337 617.391 338.751 615.174 338.794C612.96 338.837 557.97 354.356 557.97 354.356" fill="white"/>
<path d="M717.259 372.133C714.426 404.655 679.305 427.461 638.814 423.055C598.322 418.627 567.795 388.684 570.626 356.162C573.459 323.64 608.58 300.855 649.072 305.261C689.564 309.668 720.092 339.611 717.259 372.133Z" fill="#C7916D"/>
<path d="M647.186 439.756C599.597 439.756 576.574 413.983 567.049 398.528C566.806 398.141 566.636 397.84 566.53 397.69C566.085 397.239 566.007 396.529 566.373 395.97C566.795 395.347 567.63 395.197 568.24 395.626C568.558 395.841 568.704 396.078 569.325 397.088C578.647 412.221 601.32 437.477 648.567 437.026C712.319 436.338 725.197 385.33 725.319 384.814C725.493 384.083 726.231 383.632 726.938 383.826C727.659 383.998 728.102 384.728 727.928 385.459C727.801 385.997 714.415 439.046 648.597 439.734C648.124 439.756 647.65 439.756 647.186 439.756" fill="#FFE1C7"/>
<path d="M660.888 582.202C660.671 584.19 660.377 586.151 660.002 588.111C658.042 598.078 654.149 607.691 648.618 616.295C642.927 625.173 635.544 632.935 627.117 639.443C625.426 628.113 623.385 616.867 619.332 606.111C615.09 594.865 604.244 574.279 590.956 571.229C587.358 570.438 585.023 571.39 583.521 574.823C580.594 581.63 586.714 589.555 590.742 594.157C598.311 602.734 605.775 609.95 610.392 620.816C613.882 629.012 615.6 637.754 616.7 646.55C610.258 650.417 603.439 653.63 596.351 656.162C588.81 658.858 581.078 660.764 573.239 662.48C573.239 655.427 572.809 648.4 571.252 641.457C570.339 637.509 568.864 632.718 566.554 628.522C563.844 623.511 559.951 619.345 554.554 618.419C546.582 617.086 545.75 624.083 546.555 630.484C547.091 634.568 547.843 638.461 548.354 642.41C548.918 646.305 549.24 650.253 549.024 654.419C548.809 658.967 548.193 663.516 547.441 668.008C545.455 668.47 543.442 668.96 541.427 669.478C529.08 672.746 512.57 676.423 502.503 669.695C501.751 669.205 501.054 668.634 500.407 668.034C497.483 665.366 495.335 661.525 494.262 656.162C493.671 653.357 493.107 650.526 492.569 647.721C498.502 641.812 504.705 636.148 511.415 630.484C514.395 627.978 520.328 622.967 524.301 617.63C526.984 614.008 528.758 610.251 528.033 607.037C527.522 604.83 525.965 603.551 523.926 602.925C519.307 601.455 512.221 603.086 509.053 603.796C501.16 605.539 492.624 608.697 485.833 613.789C483.953 603.469 482.449 593.149 481.885 582.774C494.745 575.012 509.966 570.083 523.307 567.469C532.22 565.7 560.784 563.112 557.749 547.29C555.789 537.051 536.729 540.293 530.154 542.389C517.51 546.419 507.12 555.051 495.201 560.608C490.798 562.704 486.316 564.391 481.993 566.407C483.146 549.77 487.846 533.35 497.858 520.032C499.013 518.482 500.274 516.984 501.59 515.539C504.436 514.967 507.254 514.449 510.019 514.041C520.031 512.435 530.662 513.388 540.675 511.81C545.508 511.047 550.178 509.712 554.609 507.206C555.362 506.771 555.764 505.464 555.361 504.701C555.173 504.293 554.929 503.912 554.715 503.558L554.69 503.53C549.992 496.26 539.066 496.86 531.387 497.266C530.474 497.294 529.563 497.432 528.622 497.485C545.294 491.168 564.407 490.543 581.266 496.993C586.017 498.792 590.554 500.508 595.091 502.113C595.949 502.414 596.781 502.741 597.614 503.012C602.392 504.648 607.196 506.144 612.299 507.506C634.311 513.362 652.028 531.661 658.472 552.928C659.358 555.843 660.029 558.809 660.512 561.833C658.927 559.763 657.262 557.749 655.518 555.789C648.055 547.455 634.875 529.1 621.828 529.481C621.156 529.481 620.485 529.563 619.84 529.672C607.035 531.987 621.237 543.941 625.56 547.29C631.626 551.948 639.089 557.259 645.8 563.331C652.003 568.967 657.586 575.203 660.888 582.202" fill="#4E8271"/>
<path d="M597.613 503.011C606.043 482.127 614.633 461.347 622.741 440.336C632.189 415.982 640.619 391.198 646.013 365.554C646.391 363.835 643.733 363.405 643.356 365.103C633.827 410.458 614.9 453.097 597.613 495.823C596.781 497.921 595.923 500.017 595.09 502.113C592.647 508.187 590.203 514.285 587.762 520.386C582.365 518.915 578.204 515.349 573.372 512.57C567.816 509.357 561.319 505.926 554.715 503.557C554.929 503.912 555.172 504.292 555.361 504.701C555.763 505.464 555.361 506.771 554.609 507.205C550.178 509.711 545.507 511.046 540.674 511.809C546.554 515.102 554.983 516.411 559.842 519.35C568.299 524.472 568.916 536.071 577.587 540.537C578.07 540.782 578.606 540.971 579.144 541.163C576.513 547.373 573.802 553.527 570.956 559.627C564.754 572.915 557.749 585.741 550.152 598.241C546.096 597.289 541.856 596.47 537.883 596.96C533.266 597.506 529.695 600.365 525.589 602.243C525.025 602.488 524.487 602.733 523.925 602.925C525.964 603.55 527.521 604.829 528.032 607.037C528.757 610.25 526.983 614.008 524.3 617.629C528.301 617.819 531.95 618.99 535.037 621.469C524.059 637.399 512.326 652.785 500.407 668.033C501.053 668.633 501.75 669.205 502.502 669.695C514.394 654.556 526.072 639.196 537.025 623.321L537.319 623.62C541.64 628.631 544.408 636.227 548.353 642.409C547.842 638.46 547.09 634.568 546.554 630.483C545.749 624.082 546.582 617.086 554.553 618.418C559.95 619.345 563.843 623.511 566.553 628.521C566.634 625.2 566.714 621.849 566.795 618.528C566.903 614.498 568.46 607.907 566.473 604.178C564.513 600.418 558.151 600.038 554.77 599.303C554.151 599.167 553.534 599.03 552.89 598.866C558.582 589.555 563.949 580.022 568.863 570.192C573.453 560.96 577.667 551.539 581.721 542.036C584.486 542.743 587.385 543.151 590.042 543.832C596.753 545.52 603.278 547.889 609.478 550.939C618.606 555.378 625.745 561.832 636.109 562.703C639.517 563.002 643.17 563.629 645.8 563.331C639.089 557.258 631.626 551.947 625.559 547.289C621.236 543.94 607.035 531.987 619.84 529.672C620.484 529.562 621.156 529.48 621.827 529.48C617.801 525.424 612.243 523.137 606.393 522.157C601.129 521.258 595.654 521.72 590.392 520.929C592.486 515.73 594.579 510.556 596.647 505.354C596.969 504.591 597.291 503.774 597.613 503.011" fill="#366657"/>
<path d="M613.237 403.3C612.566 416.433 605.882 427.632 596.432 435.822C597.48 422.237 598.472 408.416 594.794 395.368C594.016 392.617 592.219 386.405 589.238 383.546C587.627 381.998 585.695 381.396 583.387 382.815C580.702 384.449 579.789 388.533 579.761 393.326V393.348C579.736 401.172 581.988 410.888 582.366 414.886C583.359 424.838 583.789 434.597 583.601 444.334C581.749 445.28 579.842 446.124 577.909 446.862C566.42 451.219 554.395 452.554 542.287 452.554C546.046 436.359 542.34 418.948 546.285 402.01C547.682 396.163 553.749 379.354 544.005 377.484C536.837 376.109 533.508 381.633 532.059 388.339C530.69 394.594 530.957 401.924 531.2 405.6C531.414 408.91 531.683 412.199 531.95 415.487C532.972 427.761 534.127 440.142 533.777 452.306C522.69 451.791 511.629 450.456 500.837 449.422C494.664 448.85 488.462 448.304 482.287 447.786C483.925 443.56 485.402 439.261 486.744 435.048C488.248 430.126 493.107 417.444 487.629 413.231C484.597 410.866 481.777 411.984 479.469 414.327C476.892 416.885 474.96 421.012 474.1 423.505C473.161 426.299 472.489 429.115 471.979 431.931C471.12 436.832 470.773 441.776 470.368 446.67C466.745 446.344 463.121 445.963 459.525 445.538C452.382 444.699 449.403 441.905 448.492 436.918C448.276 435.779 448.17 434.554 448.142 433.221C448.114 432.039 448.17 430.771 448.248 429.373C448.759 421.678 450.208 414.155 452.437 406.846C453.242 404.138 454.181 401.43 455.2 398.764C455.927 398.614 456.677 398.442 457.43 398.27C461.242 397.518 465.187 397.346 468.999 396.507C470.074 396.292 471.442 395.97 472.786 395.476C476.354 394.229 479.899 391.929 478.234 387.845C476.409 383.438 469.563 382.557 462.397 383.202C462.583 382.836 462.746 382.514 462.933 382.192C465.242 376.496 468.114 371.057 471.415 365.855C473.511 362.502 475.765 359.256 478.155 356.097C485.375 355.495 492.705 355.903 500.301 357.214C503.952 357.838 507.603 358.547 511.28 359.149C518.126 360.245 524.998 360.869 531.87 359.428C533.025 359.17 533.724 357.967 533.508 356.87C531.709 347.434 520.919 345.005 512.837 343.887C506.421 343.049 499.818 343.049 493.402 343.78C491.361 344.016 489.403 344.425 487.47 344.898C498.449 332.689 510.341 321.791 524.409 314.59C532.65 318.222 540.568 322.887 549.481 324.37C551.547 324.757 553.668 324.929 555.87 324.886C556.969 324.864 558.044 324.069 558.044 322.844C558.071 321.06 557.749 319.383 557.132 317.835C555.386 313.214 551.119 309.646 545.991 307.217C546.796 307.066 547.629 306.894 548.462 306.765C556.997 305.454 566.312 305.562 574.205 309.56C583.171 314.074 587.655 322.93 589.909 332.473C591.412 338.642 593.105 344.683 595.063 350.637C595.359 351.561 595.681 352.442 596.003 353.367C597.667 358.16 599.602 362.932 601.801 367.618C602.284 368.671 602.822 369.768 603.331 370.864C608.298 381.095 613.801 391.628 613.237 403.3" fill="#4E8271"/>
<path d="M640.672 357.924C625.854 353.024 610.447 350.573 595.063 350.638C588.54 350.638 582.044 351.111 575.574 352.013C572.701 348.209 569.991 344.447 570.071 339.116C570.152 334.839 571.387 332.216 568.916 328.24C566.662 324.629 562.958 321.727 559.521 319.362C558.743 318.825 557.936 318.309 557.133 317.836C557.749 319.384 558.071 321.06 558.044 322.844C558.044 324.07 556.969 324.865 555.87 324.886C553.668 324.929 551.547 324.758 549.481 324.371C550.475 325.381 551.28 326.52 551.763 327.917C553.454 332.689 552.971 337.311 555.844 341.825C557.025 343.673 558.635 344.963 559.976 346.661C562.447 349.735 562.475 351.605 562.85 354.356C550.661 357.194 538.797 361.579 527.602 367.619C527.011 367.941 526.42 368.307 525.831 368.651C523.71 366.179 520.65 364.567 517.724 363.126C515.469 361.987 513.375 360.59 511.28 359.15C507.603 358.548 503.952 357.839 500.301 357.215C492.705 355.904 485.375 355.496 478.155 356.097C475.765 359.257 473.511 362.503 471.415 365.856C475.738 366.308 480.571 367.081 483.095 368.823C486.53 371.187 486.53 375.292 489.376 377.936C491.63 380 494.665 380.516 497.508 381.053C500.06 381.505 502.045 381.935 503.925 382.945C495.603 389.157 487.63 395.863 479.872 402.72C478.933 403.559 477.967 404.397 477.026 405.257C475.632 401.001 474.074 397.497 473.053 395.863L472.786 395.476C471.443 395.971 470.074 396.293 468.999 396.508C465.187 397.346 461.242 397.518 457.43 398.271C456.677 398.443 455.927 398.615 455.201 398.765C454.181 401.431 453.243 404.139 452.437 406.847C455.9 408.244 459.443 409.47 462.719 411.576C463.954 412.35 465.215 413.532 466.397 414.865C460.059 420.712 453.859 426.773 448.142 433.222C448.17 434.554 448.276 435.78 448.492 436.919C454.558 429.869 461.214 423.356 468.033 417.015C469.457 419.121 470.557 421.4 471.068 423.463C471.684 426.257 470.879 429.331 471.979 431.932C472.489 429.116 473.161 426.3 474.1 423.506C474.96 421.012 476.893 416.886 479.469 414.328C479.039 412.2 478.503 410.072 477.912 408.051C478.556 407.492 479.228 406.89 479.872 406.31C488.409 398.744 497.106 391.371 506.287 384.578C506.637 384.901 507.012 385.245 507.387 385.61C509 387.244 510.368 389.071 511.979 390.705C515.416 394.165 519.389 396.487 523.093 399.561C528.113 403.752 530.045 409.491 531.95 415.488C531.683 412.2 531.414 408.911 531.2 405.601C530.957 401.925 530.69 394.595 532.059 388.34C529.832 385.309 528.274 382.837 528.113 378.216C528.033 376.088 528.677 374.454 527.977 372.305C527.791 371.81 527.575 371.316 527.335 370.886C538.742 364.545 550.905 359.988 563.386 357.086C564.488 361.385 566.876 363.642 569.722 366.909C573.991 371.789 577.077 377.485 578.42 383.912C578.795 385.739 578.742 390.21 579.761 393.327C579.789 388.534 580.702 384.449 583.387 382.816C585.695 381.397 587.627 381.999 589.238 383.547C588.432 378.732 586.419 373.831 585.345 370.95C583.654 366.522 581.938 362.073 579.653 357.924C578.984 356.721 578.204 355.603 577.426 354.528C583.601 353.733 589.801 353.346 596.004 353.367C610.769 353.432 625.559 355.796 639.814 360.504C641.452 361.063 642.31 358.462 640.672 357.924" fill="#366657"/>
<path d="M968.362 333.807C968.235 334.666 968.044 335.505 967.811 336.257C967.747 336.429 967.535 336.73 967.217 337.095C965.12 339.438 958.063 344.662 952.046 345.371C948.952 342.211 945.837 339.03 942.764 335.892C938.548 331.593 934.352 327.444 931.194 322.307C930.347 320.974 929.648 319.727 928.842 318.631C927.91 317.277 926.808 316.116 925.092 315.17C923.672 314.44 921.956 315.17 921.807 316.89C920.96 328.347 927.296 338.514 935.56 346.682C930.559 346.94 925.198 347.134 919.646 347.284C912.441 347.499 904.94 347.607 897.651 347.65C893.921 334.967 893.879 320.781 888.582 307.647C887.946 306.078 885.784 306.315 884.937 307.497C877.33 317.75 880.042 334.516 885.212 347.714C873.346 347.735 862.984 347.693 856.648 347.65C855.673 347.65 854.677 347.693 853.703 347.693C850.651 347.714 847.621 347.736 844.591 347.757C843.532 345.865 842.599 343.931 841.73 341.91C837.535 331.915 838.594 323.059 837.853 312.763C837.598 309.689 836.73 303.434 833.933 301.306C832.682 300.339 831.093 300.188 828.953 301.521C822.999 305.24 824.779 320.394 825.287 325.81C825.965 333.355 827.427 341.287 830.754 348.165C827.279 348.337 823.783 348.509 820.265 348.746C809.522 349.434 798.439 351.39 787.738 349.756C786.255 345.049 785.344 340.169 785.175 334.989C785.069 331.206 785.153 327.229 785.598 323.338C785.98 320.157 786.658 317.041 787.696 314.16C789.095 310.205 791.065 307.131 791.32 302.854C791.426 301.671 790.43 300.769 789.349 300.618C788.862 300.575 788.395 300.511 787.95 300.511C772.821 300.167 771.147 326.563 774.283 344.898C765.339 339.224 760.185 329.422 761.957 317.298C763.328 307.862 768.4 299.672 774.028 292.278C777.334 287.936 781.17 283.874 784.157 279.317C784.391 278.908 784.645 278.521 784.878 278.113C785.492 277.017 786.065 275.963 786.488 274.867C788.374 270.482 789.052 265.947 789.391 260.917C789.921 252.899 790.684 245.053 796.257 238.841C800.643 233.962 806.852 230.996 813.188 229.62C810.92 233.274 809.14 237.251 808.208 241.722C807.466 245.376 805.347 254.748 811.09 255.543C811.598 255.608 812.107 255.586 812.594 255.479C816.218 254.791 818.633 249.653 820.159 245.849C820.562 244.838 820.901 243.914 821.197 243.205C823.253 238.239 825.478 233.274 828.296 228.825C833.975 229.341 839.611 230.458 845.206 231.49C850.355 232.479 855.546 233.511 860.717 234.693C853.237 239.465 846.731 246.193 842.387 253.867C839.951 258.166 838.171 262.744 837.259 267.451C836.984 268.934 838.043 270.676 839.717 270.203C842.769 269.386 845.248 267.602 847.537 265.388C851.457 261.519 854.593 256.424 858.428 252.964C864.128 247.891 870.273 242.861 876.969 238.841C889.683 242.474 902.164 247.009 913.904 253.093C908.712 253.565 903.563 254.769 898.562 256.94C895.85 258.144 890.446 260.573 887.797 263.905C886.674 265.302 886.06 266.871 886.357 268.569C886.653 270.289 887.353 271.32 888.264 271.901C890.976 273.62 895.722 271.105 898.414 269.536C905.915 265.087 914.921 260.917 924.096 258.875C926.109 260.143 928.08 261.39 930.029 262.744C937.785 268.139 944.608 274.265 950.096 281.423C951.537 283.25 952.872 285.206 954.122 287.205C950.096 286.668 946.282 286.539 943.527 287.334H943.506C941.048 288.044 939.459 289.527 939.437 292.02C939.374 295.61 943.082 296.9 946.345 297.394C947.511 297.588 948.592 297.63 949.439 297.695C952.745 297.824 956.05 297.415 959.314 297.415C960.521 300.403 969.972 322.006 968.362 333.807" fill="#4E8271"/>
<path d="M938.908 304.637C941.409 302.144 944.079 299.93 946.346 297.394C943.083 296.899 939.375 295.61 939.438 292.02C939.459 289.527 941.049 288.043 943.507 287.334C936.281 286.926 928.737 283.809 921.575 283.68C913.629 283.551 903.733 282.175 895.999 284.11C895.575 284.217 895.194 284.583 895.088 285.034L894.982 285.572C889.239 283.938 883.433 282.519 877.627 281.229C878.708 279.23 880.191 277.339 882.437 275.576C884.26 274.136 886.23 272.954 888.264 271.901C887.353 271.32 886.654 270.288 886.357 268.569C886.061 266.871 886.675 265.301 887.798 263.904C885.849 264.657 883.921 265.473 882.225 265.989C877.076 267.601 871.694 268.913 866.714 270.955C863.536 272.223 861.332 274.007 859.213 276.608C858.959 276.973 858.683 277.231 858.387 277.554C852.538 276.565 846.711 275.576 840.884 274.738C843.214 272.889 845.206 270.632 846.605 267.623C846.859 267.021 847.198 266.269 847.537 265.388C845.249 267.602 842.769 269.386 839.718 270.203C838.044 270.675 836.985 268.934 837.26 267.451C838.171 262.744 839.951 258.165 842.388 253.866C842.113 253.845 841.816 253.802 841.562 253.737C835.12 252.447 828.89 250.449 822.999 247.418C822.003 246.902 821.071 246.386 820.16 245.848C818.634 249.653 816.218 254.791 812.595 255.478C813.654 261.175 814.396 266.935 813.57 272.416C804.606 272.309 795.601 272.954 786.489 274.867L786.192 274.931C762.335 279.983 739.973 290.601 718.281 301.478C693.478 313.881 671.116 329.12 652.003 349.541C650.848 350.788 652.619 352.808 653.8 351.561C669.611 334.666 687.812 320.759 708.054 309.839C729.1 298.468 751.14 287.657 774.008 280.843C777.653 279.768 781.276 278.865 784.879 278.113C794.308 276.157 803.632 275.297 813.019 275.297C812.129 278.757 810.518 282.089 807.827 285.099C803.441 290.085 797.571 292.6 792.295 296.319C790.515 297.587 789.116 299.006 787.951 300.511C788.396 300.511 788.862 300.575 789.35 300.618C790.43 300.769 791.426 301.671 791.32 302.853C791.066 307.131 789.095 310.205 787.697 314.16C786.658 317.04 785.98 320.157 785.599 323.338C792.316 324.542 799.86 319.319 803.653 314.16C806.302 310.549 807.531 306.314 809.183 302.187C812.002 295.158 816.473 289.677 822.597 285.357C827.237 282.068 832.832 279.983 837.663 277.016C840.079 277.339 842.494 277.661 844.931 278.091C848.66 278.693 852.432 279.316 856.183 279.94C852.157 283.916 848.131 285.98 842.409 288.667C837.79 290.881 835.48 295.91 833.933 301.306C836.73 303.434 837.599 309.689 837.853 312.763C838.595 323.059 837.536 331.915 841.731 341.91C842.6 343.931 843.532 345.865 844.592 347.757C847.622 347.735 850.652 347.714 853.703 347.692C854.339 345.865 854.593 343.823 854.763 341.867C855.653 331.012 853.937 319.125 859.573 309.324C863.854 301.843 872.775 299.672 874.703 290.687C875.275 288.129 875.784 285.808 876.568 283.723C882.797 285.034 888.985 286.496 895.109 288.215C896.295 292.837 901.656 297.888 903.542 301.499C908.119 310.377 906.403 320.651 909.709 329.937C911.934 336.257 915.536 342.018 919.647 347.284C925.198 347.133 930.56 346.94 935.561 346.682C927.296 338.514 920.961 328.347 921.808 316.89C921.956 315.17 923.673 314.439 925.093 315.17C926.809 316.116 927.911 317.277 928.843 318.631C930.051 314.074 934.331 309.646 937.065 306.572C949.101 314.482 959.653 324.628 967.218 337.095C967.536 336.73 967.748 336.429 967.811 336.257C968.045 335.505 968.235 334.666 968.363 333.806C960.607 321.619 950.457 312.139 938.908 304.637" fill="#366657"/>
<path d="M901.571 478.232C901.062 479.021 900.427 479.675 899.664 480.111C898.753 480.711 897.608 481.01 896.231 481.037C891.315 481.063 886.039 479.756 881.059 479.404C876.016 479.021 870.93 478.804 865.845 478.694C865.209 478.694 864.594 478.669 863.959 478.669V478.641C864.044 474.148 865.018 469.682 864.722 465.161L864.7 464.781C864.319 460.776 862.094 454.841 856.966 456.611L856.775 456.692C852.177 458.463 851.118 466.361 850.418 470.417C849.931 472.977 849.507 475.754 849.211 478.531C845.396 478.503 841.582 478.531 837.768 478.503C829.801 478.452 821.748 478.286 813.76 477.796C814.395 470.743 816.239 463.663 819.163 456.475C819.735 455.059 820.837 452.662 821.854 449.938C823.295 446.018 824.524 441.411 823.613 438.165C823.168 436.424 822.109 435.092 820.159 434.425C812.827 431.911 805.623 444.958 803.483 450.13C800.262 458.055 798.418 467.203 798.227 476.272C793.608 475.644 789.052 474.855 784.539 473.794C783.691 473.602 782.865 473.413 782.038 473.194C775.681 471.56 769.447 469.138 764.508 465.353C766.252 458.382 770.386 451.817 774.982 446.046C779.495 440.337 784.369 434.425 783.861 426.666L783.776 426.257C783.564 425.075 782.632 424.237 781.318 424.473C772.672 426.064 767.837 434.748 763.811 441.798C760.99 446.781 758.655 451.899 757.473 457.21C756.187 454.841 755.193 452.226 754.682 449.257C750.601 426.214 769.339 406.31 790.514 402.247C791.002 402.14 791.51 402.075 791.998 401.989C791.892 401.28 791.807 400.549 791.765 399.84C790.811 389.264 793.29 379.333 804.373 373.551C809.967 370.606 816.069 369.123 822.278 368.801C816.917 372.09 812.531 376.367 811.302 383.417C811.09 384.557 812.255 385.588 813.294 385.674C813.569 385.696 813.866 385.696 814.141 385.696C819.841 385.567 824.63 380.602 828.635 377.012C831.199 374.733 833.848 372.283 836.73 369.983C840.205 370.757 843.616 371.789 846.901 373.121C847.748 373.444 848.617 373.831 849.444 374.218C853.152 375.873 856.521 377.85 859.7 380.064C853.491 383.439 847.748 387.738 842.663 392.918C839.463 396.121 831.305 403.838 834.017 409.448C835.035 411.576 836.666 412.393 838.51 412.414C841.985 412.436 846.138 409.706 848.405 407.922C856.097 401.817 863.662 395.713 873.303 392.918L873.685 392.789C877.012 396.68 880 400.893 882.648 405.342C887.692 413.661 891.654 422.754 894.79 432.082C886.526 431.846 876.397 433.952 874.384 440.036L874.363 440.186C872.816 445.087 877.096 447.107 881.144 447.462L881.737 447.516C885.276 447.705 888.984 447.161 892.48 446.589C894.748 446.237 896.909 446.099 899.028 446.125C899.155 446.671 899.325 447.215 899.452 447.761C900.935 453.425 906.063 471.315 901.571 478.232" fill="#4E8271"/>
<path d="M876.313 451.492L876.609 451.138C877.436 450.211 879.216 448.932 881.144 447.462C877.097 447.107 872.816 445.087 874.363 440.186C872.647 440.895 870.973 441.691 869.341 442.529C868.578 442.916 867.773 443.324 866.968 443.754C861.925 439.799 856.754 436.059 851.414 432.491C852.135 431.996 852.792 431.416 853.364 430.707C855.779 427.633 854.974 423.613 856.712 420.239C858.873 416.004 864.128 413.403 867.985 411.103C872.562 408.416 877.33 405.944 882.648 405.342C880 400.893 877.012 396.68 873.685 392.789L873.304 392.918C863.662 395.713 856.097 401.817 848.405 407.922C846.138 409.706 841.985 412.436 838.51 412.414C837.238 415.402 836.285 418.67 835.543 422.281L835.522 422.517C830.118 419.357 824.673 416.305 819.142 413.403C820.202 411.468 821.303 409.556 822.956 407.9C826.325 404.526 827.745 403 828.593 397.905C829.334 393.413 829.991 389.995 833.382 386.771C835.776 384.428 838.912 382.902 841.455 380.666C843.129 379.161 845.29 376.281 846.901 373.121C843.616 371.789 840.205 370.757 836.73 369.983C833.848 372.283 831.199 374.733 828.635 377.012C824.63 380.602 819.841 385.567 814.141 385.696L814.12 385.847C812.637 393.198 815.603 402.828 809.374 408.373C806.301 406.826 803.207 405.299 800.156 403.816C797.359 402.484 794.54 401.151 791.765 399.84C748.213 379.591 701.771 364.373 653.424 365.19C651.705 365.254 651.572 367.963 653.288 367.92C701.262 367.124 747.327 382.235 790.514 402.247C792.697 403.3 794.901 404.289 797.041 405.342C800.325 406.89 803.588 408.502 806.873 410.136C802.762 412.393 797.613 413.102 793.693 415.789C789.603 418.583 786.933 422.603 783.776 426.257L783.861 426.666C784.369 434.425 779.496 440.336 774.982 446.046C770.386 451.817 766.252 458.382 764.508 465.353C769.447 469.138 775.681 471.56 782.038 473.194C782.865 473.413 783.691 473.602 784.539 473.794C784.645 471.943 784.666 470.225 784.687 468.946C785.153 455.086 781.551 437.091 796.003 428.966C801.618 425.806 808.208 424.881 813.463 420.926C815.434 419.465 816.726 417.659 817.828 415.768C823.592 418.777 829.292 421.98 834.886 425.29C834.462 427.203 833.933 429.116 833.021 430.793C831.241 434.06 828.339 435.35 825.33 437.091C824.757 437.435 824.164 437.8 823.613 438.165C824.524 441.411 823.295 446.018 821.854 449.938C826.707 447.161 832.068 445.173 836.645 441.691C840.184 439.025 842.938 436.682 847.007 434.834C847.6 434.554 848.215 434.275 848.808 434.017C854.148 437.542 859.36 441.282 864.404 445.194C861.924 446.671 859.615 448.496 858.386 450.893C857.899 451.817 857.263 454.078 856.775 456.692L856.966 456.61C862.094 454.841 864.319 460.776 864.7 464.781L864.722 465.161C865.548 464.263 866.311 463.418 866.819 462.874C869.574 459.934 871.99 456.664 874.554 453.534C883.708 461.539 892.184 470.307 899.664 480.111C900.427 479.675 901.062 479.021 901.571 478.232C894.07 468.375 885.53 459.525 876.313 451.492" fill="#366657"/>
<path d="M85.1922 128.177H96.2633V106.547H118.738V128.177H129.783V75.8136H118.738V97.4187H96.2633V75.8136H85.1922V128.177ZM156.604 128.944C166.32 128.944 172.866 124.214 174.4 116.927L164.326 116.262C163.226 119.254 160.414 120.814 156.783 120.814C151.337 120.814 147.885 117.208 147.885 111.353V111.328H174.63V108.336C174.63 94.9897 166.55 88.3932 156.17 88.3932C144.613 88.3932 137.121 96.6005 137.121 108.72C137.121 121.172 144.51 128.944 156.604 128.944ZM147.885 104.578C148.116 100.103 151.516 96.5238 156.349 96.5238C161.079 96.5238 164.351 99.8988 164.377 104.578H147.885ZM192.937 128.919C198.741 128.919 202.499 126.387 204.417 122.731H204.724V128.177H215.053V101.689C215.053 92.3307 207.127 88.3932 198.383 88.3932C188.974 88.3932 182.786 92.8932 181.277 100.052L191.351 100.87C192.093 98.2625 194.42 96.3449 198.331 96.3449C202.039 96.3449 204.161 98.2113 204.161 101.433V101.586C204.161 104.118 201.476 104.45 194.65 105.115C186.877 105.831 179.897 108.439 179.897 117.208C179.897 124.981 185.445 128.919 192.937 128.919ZM196.056 121.402C192.706 121.402 190.303 119.842 190.303 116.851C190.303 113.782 192.834 112.274 196.67 111.737C199.047 111.405 202.934 110.842 204.238 109.973V114.14C204.238 118.257 200.837 121.402 196.056 121.402ZM234.395 75.8136H223.503V128.177H234.395V75.8136ZM264.01 88.9045H256.621V79.4954H245.728V88.9045H240.359V97.0863H245.728V117.541C245.677 125.237 250.919 129.047 258.819 128.714C261.632 128.612 263.626 128.049 264.726 127.691L263.013 119.586C262.476 119.689 261.325 119.944 260.302 119.944C258.129 119.944 256.621 119.126 256.621 116.109V97.0863H264.01V88.9045ZM282.841 105.473C282.866 100.41 285.96 97.4443 290.409 97.4443C294.832 97.4443 297.44 100.282 297.415 105.115V128.177H308.307V103.172C308.332 93.967 302.912 88.3932 294.73 88.3932C288.773 88.3932 284.784 91.2057 282.994 95.8335H282.534V75.8136H271.949V128.177H282.841V105.473ZM322.197 142.905C330.302 142.905 334.597 138.762 336.822 132.422L352.086 88.9557L340.554 88.9045L332.347 117.745H331.938L323.807 88.9045H312.353L326.441 129.302L325.802 130.964C324.37 134.646 321.634 134.825 317.799 133.649L315.344 141.78C316.904 142.444 319.435 142.905 322.197 142.905ZM382.071 128.177H393.576L400.326 103.478H400.812L407.562 128.177H419.094L429.755 88.9045H418.761L412.778 115.137H412.446L406.003 88.9045H395.187L388.846 115.291H388.488L382.403 88.9045H371.383L382.071 128.177ZM452.326 128.944C464.241 128.944 471.655 120.788 471.655 108.694C471.655 96.5238 464.241 88.3932 452.326 88.3932C440.411 88.3932 432.996 96.5238 432.996 108.694C432.996 120.788 440.411 128.944 452.326 128.944ZM452.377 120.507C446.88 120.507 444.067 115.47 444.067 108.618C444.067 101.765 446.88 96.7028 452.377 96.7028C457.772 96.7028 460.584 101.765 460.584 108.618C460.584 115.47 457.772 120.507 452.377 120.507ZM478.738 128.177H489.63V105.958C489.63 101.126 493.158 97.8022 497.965 97.8022C499.474 97.8022 501.545 98.0579 502.567 98.3903V88.7255C501.596 88.4954 500.241 88.342 499.141 88.342C494.743 88.342 491.138 90.8988 489.706 95.7568H489.297V88.9045H478.738V128.177ZM508.199 128.177H519.091V115.7L522.031 112.351L532.744 128.177H545.503L530.187 105.907L544.761 88.9045H532.258L519.679 103.811H519.091V75.8136H508.199V128.177ZM573.238 102.353H549.357V110.995H573.238V102.353ZM593.411 75.8136H582.519V128.177H593.411V75.8136ZM602.136 128.177H613.028V88.9045H602.136V128.177ZM607.608 83.842C610.855 83.842 613.514 81.3619 613.514 78.3193C613.514 75.3022 610.855 72.8221 607.608 72.8221C604.386 72.8221 601.727 75.3022 601.727 78.3193C601.727 81.3619 604.386 83.842 607.608 83.842ZM642.873 88.9045H635.074V86.271C635.074 83.6119 636.148 82.0522 639.344 82.0522C640.648 82.0522 641.978 82.3335 642.847 82.6147L644.765 74.4329C643.41 74.0238 640.418 73.3591 637.069 73.3591C629.679 73.3591 624.182 77.5267 624.182 86.0664V88.9045H618.634V97.0863H624.182V128.177H635.074V97.0863H642.873V88.9045ZM666.018 128.944C675.734 128.944 682.28 124.214 683.814 116.927L673.74 116.262C672.64 119.254 669.828 120.814 666.197 120.814C660.751 120.814 657.299 117.208 657.299 111.353V111.328H684.044V108.336C684.044 94.9897 675.964 88.3932 665.584 88.3932C654.027 88.3932 646.535 96.6005 646.535 108.72C646.535 121.172 653.924 128.944 666.018 128.944ZM657.299 104.578C657.53 100.103 660.93 96.5238 665.763 96.5238C670.493 96.5238 673.765 99.8988 673.791 104.578H657.299ZM708.02 128.177H718.759V121.887H719.245C720.753 125.16 724.052 128.816 730.393 128.816C739.341 128.816 746.322 121.734 746.322 108.592C746.322 95.092 739.035 88.3932 730.418 88.3932C723.847 88.3932 720.702 92.3051 719.245 95.5011H718.912V75.8136H708.02V128.177ZM718.682 108.541C718.682 101.535 721.648 97.0608 726.941 97.0608C732.336 97.0608 735.199 101.74 735.199 108.541C735.199 115.393 732.285 120.149 726.941 120.149C721.699 120.149 718.682 115.547 718.682 108.541ZM764.788 128.919C770.592 128.919 774.351 126.387 776.268 122.731H776.575V128.177H786.905V101.689C786.905 92.3307 778.978 88.3932 770.234 88.3932C760.825 88.3932 754.638 92.8932 753.129 100.052L763.203 100.87C763.944 98.2625 766.271 96.3449 770.183 96.3449C773.89 96.3449 776.013 98.2113 776.013 101.433V101.586C776.013 104.118 773.328 104.45 766.501 105.115C758.728 105.831 751.748 108.439 751.748 117.208C751.748 124.981 757.297 128.919 764.788 128.919ZM767.907 121.402C764.558 121.402 762.155 119.842 762.155 116.851C762.155 113.782 764.686 112.274 768.521 111.737C770.899 111.405 774.785 110.842 776.089 109.973V114.14C776.089 118.257 772.689 121.402 767.907 121.402ZM806.247 75.8136H795.355V128.177H806.247V75.8136ZM826.171 128.919C831.975 128.919 835.733 126.387 837.651 122.731H837.958V128.177H848.287V101.689C848.287 92.3307 840.361 88.3932 831.617 88.3932C822.208 88.3932 816.02 92.8932 814.512 100.052L824.586 100.87C825.327 98.2625 827.654 96.3449 831.566 96.3449C835.273 96.3449 837.395 98.2113 837.395 101.433V101.586C837.395 104.118 834.711 104.45 827.884 105.115C820.111 105.831 813.131 108.439 813.131 117.208C813.131 124.981 818.679 128.919 826.171 128.919ZM829.29 121.402C825.941 121.402 823.537 119.842 823.537 116.851C823.537 113.782 826.069 112.274 829.904 111.737C832.282 111.405 836.168 110.842 837.472 109.973V114.14C837.472 118.257 834.072 121.402 829.29 121.402ZM867.63 105.473C867.655 100.41 870.672 97.4443 875.07 97.4443C879.442 97.4443 882.076 100.308 882.05 105.115V128.177H892.942V103.172C892.942 94.0182 887.573 88.3932 879.391 88.3932C873.562 88.3932 869.343 91.2568 867.579 95.8335H867.118V88.9045H856.738V128.177H867.63V105.473ZM919.271 128.944C929.728 128.944 936.299 122.808 936.811 113.782H926.532C925.893 117.976 923.132 120.328 919.399 120.328C914.311 120.328 911.013 116.058 911.013 108.541C911.013 101.126 914.336 96.8818 919.399 96.8818C923.388 96.8818 925.944 99.5153 926.532 103.427H936.811C936.351 94.3505 929.473 88.3932 919.22 88.3932C907.305 88.3932 899.942 96.6517 899.942 108.694C899.942 120.635 907.177 128.944 919.271 128.944ZM961.682 128.944C971.398 128.944 977.944 124.214 979.478 116.927L969.404 116.262C968.304 119.254 965.492 120.814 961.861 120.814C956.415 120.814 952.964 117.208 952.964 111.353V111.328H979.708V108.336C979.708 94.9897 971.628 88.3932 961.248 88.3932C949.691 88.3932 942.199 96.6005 942.199 108.72C942.199 121.172 949.589 128.944 961.682 128.944ZM952.964 104.578C953.194 100.103 956.594 96.5238 961.427 96.5238C966.157 96.5238 969.429 99.8988 969.455 104.578H952.964Z" fill="#161E2E"/>
</svg>
