<svg xmlns="http://www.w3.org/2000/svg" viewBox="0 0 316.01 394.56"><defs><style>.cls-1{fill:#99b6a6;}.cls-2{fill:#7a9f89;}.cls-3{fill:#f8f0ec;}.cls-4{fill:#fff;}.cls-5{fill:#f5a89d;}.cls-6{fill:#37313b;}.cls-7{fill:#705f62;}.cls-8{fill:#dca978;}.cls-9{fill:#ef7e68;}.cls-10{fill:#f5d2b5;}.cls-11{fill:#deb18c;}.cls-12{fill:#1a161d;}.cls-13{fill:#e76c6d;}.cls-14{fill:#ba8452;}.cls-15{fill:#dfd2d2;}.cls-16{fill:#7e4a4a;}.cls-17{fill:#48383b;}</style></defs><g id="Calque_2" data-name="Calque 2"><g id="Calque_1-2" data-name="Calque 1"><path class="cls-1" d="M56.11,256c-.5-4.28-2.1-8.3-3.25-12.42a30.58,30.58,0,0,1-.5-14.48c.88-4.59,2.3-9.11,2.72-13.81.07-.79.11-1.6.11-2.38,0-6.06-1.87-11.89-4.16-17.47-1-2.36-2-4.71-3-7.08a61.62,61.62,0,0,1-4.55-13.77c-1.61-9.3,2.94-17.21,3.93-26.21.91-8.39-1.81-16.61-5.24-24.14-1.82-4.06-3.87-8.06-5.08-12.35a7.19,7.19,0,0,1-.24-.79,23.86,23.86,0,0,1-.73-5.23,35.53,35.53,0,0,1,1.05-9c1.73-7.72,2.52-15.43-1.48-22.64A19.39,19.39,0,0,0,19.27,64a16.3,16.3,0,0,0-2.76.2c-.4.06-.8.13-1.17.22C4,67.05-.35,81.46,1,92.12q.15,1.18.36,2.34a106.22,106.22,0,0,0,3.91,14.09c1,2.94,1.9,5.9,2.64,8.92,1.36,5.48.93,10.36-.49,15.79a49.65,49.65,0,0,0-1.94,13.28c.22,14.06,9.4,25.31,16.68,36.55.53.81,1.05,1.62,1.55,2.45,3.22,5.19,6.05,10.71,7.21,16.73a31.76,31.76,0,0,1,.53,6.36c-.09,6.68-1.73,13.34-1.24,20.06.62,8.35,4.66,14.34,9.62,20.79,5.69,7.39,8.87,15.6,10.72,24.71q.53,2.63,1,5.26a79,79,0,0,0-3,15.71c0,.74,1.11.89,1.16.14a68.82,68.82,0,0,1,2.3-13c.22,1.48.44,3,.65,4.46a.59.59,0,0,0,1.16-.16c-.34-2.38-.69-4.76-1.08-7.12.64-2.4,1.3-4.79,1.88-7.2.16-.68.33-1.38.48-2.07s.26-1.26.38-1.9A40.88,40.88,0,0,0,56.11,256Z"/><path class="cls-1" d="M148,122.19A9.24,9.24,0,0,0,145.7,119a7.66,7.66,0,0,0-.91-.73c-6.64-4.54-18.78.4-24.28,4.7-10.19,8-11.26,21.42-17.59,31.94-3.32,5.49-7.27,10.69-9.2,16.89-1,3.32-1.5,6.77-2.41,10.11a28.35,28.35,0,0,1-5.58,10.66c-2.75,3.42-5.57,6.57-7.65,10.22.7-2.12,1.37-4.24,2-6.39a130.12,130.12,0,0,0,4.48-27.23c.67-9.73,1.75-19.11,5.22-28.29,3.24-8.55,7.67-16.56,11.66-24.76A145.21,145.21,0,0,0,110,94c.13-.4.25-.81.36-1.22,2.42-8.38,5.08-16.74,11.4-23.07,2.4-2.4,4.86-4.62,7-7a22.29,22.29,0,0,0,5.81-11.29c1-5.5.19-14.18-4.55-18a5.08,5.08,0,0,0-1.16-.71,7.72,7.72,0,0,0-1.23-.41,20.74,20.74,0,0,0-7.07,0A35.2,35.2,0,0,0,93.63,49.56c-4,6.74-6.15,14.41-8.39,21.89-1.15,3.84-2.32,7.68-3.82,11.42-.07.19-.15.37-.23.55a127.54,127.54,0,0,1-6.35,12.5,67.6,67.6,0,0,0-5.47,13,65.62,65.62,0,0,0-2.31,11.32c-1,9.2-.73,18.47-1.64,27.67-1,9.56-4.65,18.77-4.67,28.41,0,5,.75,9.88.89,14.83a89.05,89.05,0,0,1-1.11,15.73q-.42,2.81-1,5.59c-2.56,13.66-6.5,27.3-6.22,41.2a60.32,60.32,0,0,0,.51,7.06l1.63,9.61c-.6-.44-1.19.58-.59,1s1.45,1.06,2.18,1.59l.17.46a.61.61,0,0,0,.72.36,2.28,2.28,0,0,0,0,.36c0,.87.1,1.75.17,2.62.12,1.44.28,2.89.49,4.33a.47.47,0,0,0,.69.37,20.42,20.42,0,0,1-.5,2.05c-.23.72.9,1,1.11.31,1.06-3.47,1.16-7.07,1.58-10.55s1.23-7.1,3.87-10.16c1.89-2.2,4-4.13,5.73-6.51A53.6,53.6,0,0,0,76,247.67c2.81-6.1,5.44-11.94,10-16.94,4.06-4.43,8.76-8.43,11.36-14,2.84-6.06,3-13.15,6.55-18.9a28.72,28.72,0,0,1,4.87-5.74c3-2.84,6.39-5.37,9.1-8.47a46.1,46.1,0,0,0,8.72-14.8c2.38-6.59,2.88-14,8.55-18.87,2.4-2,5.2-3.55,7.53-5.7a20.39,20.39,0,0,0,5.11-7.44C149.68,132.3,150.08,126.74,148,122.19ZM59.66,279.62c-.18-1.34-.3-2.67-.38-4,0-.36-.05-.73-.06-1.09.16.12.32.25.49.36l.39.3C60,276.65,59.86,278.16,59.66,279.62Zm.57-5.8-.75-.53-.33-.25a75.56,75.56,0,0,1,.37-9.87c.26,2.64.65,5.28,1.06,7.85-.06.35-.11.7-.15,1.06C60.35,272.65,60.29,273.24,60.23,273.82Z"/><path class="cls-2" d="M132.69,137.72c4.83-5.8,9.7-11.92,13-18.69a7.66,7.66,0,0,0-.91-.73c-3.41,7-8.55,13.35-13.53,19.33-8.83,10.59-17.19,21.5-25.42,32.55-6.61,8.88-13.58,17.85-18,28.06-3.61,1.68-6.79,3.54-8.84,7.07-1.35,2.33-2.3,4.81-4.28,6.72a16.15,16.15,0,0,1-4.2,2.78A28.88,28.88,0,0,0,71,209.3c0-4.53-1-9-1.48-13.46-1.09-9.46.17-19.1.83-28.56.64-9.28.66-18.92,2.43-28.07S80.23,123.23,84,115a165,165,0,0,0,5.9-16.3C95.67,96,103.22,93.51,110,94c.13-.4.25-.81.36-1.22,2.42-8.38,5.08-16.74,11.4-23.07,2.4-2.4,4.86-4.62,7-7a54.77,54.77,0,0,0-6.1.81,59.7,59.7,0,0,0-22,9.31c.81-1.56,1.61-3.11,2.46-4.64a176.1,176.1,0,0,1,25.76-35.46,7.72,7.72,0,0,0-1.23-.41,176.38,176.38,0,0,0-22.15,29.42q-3.66,6.08-6.79,12.42c-1,.69-1.95,1.37-2.91,2.1a38.89,38.89,0,0,1-14.5,7.17,127.54,127.54,0,0,1-6.35,12.5,67.6,67.6,0,0,0-5.47,13c6.2-3.52,12.65-6.59,19.09-9.58-1,2.93-2,5.88-3,8.8a77.76,77.76,0,0,1-6.07,13,79.74,79.74,0,0,0-5.7,10.72c-3.37,8.44-3.27,18-3.89,27-.68,9.69-1.77,19.47-1.83,29.2,0,9.16,3,18.25,1.3,27.35L67.9,216A12.12,12.12,0,0,1,65,217.09a8.77,8.77,0,0,1-4-1.66,8.67,8.67,0,0,1-1.36-3c-2.56,13.66-6.5,27.3-6.22,41.2a16,16,0,0,1,1.82,2.73,30.72,30.72,0,0,1,2.1,6.53c.12.49.24,1,.36,1.52.06,2.41.21,4.82.48,7.23-.06.82-.09,1.63-.11,2.45s0,1.44,0,2.18a.56.56,0,0,0,.22.44.58.58,0,0,0,.94-.44c0-.24,0-.46,0-.68l.14,0a.64.64,0,0,0,.43-.69v0c-.09-.53-.17-1.06-.23-1.59s-.14-1.06-.19-1.6.07-.95.11-1.43a11.22,11.22,0,0,0,1,1.82l.32.45a3.19,3.19,0,0,0,.8.74c.43-3.61,1.23-7.1,3.87-10.16,1.89-2.2,4-4.13,5.73-6.51A53.6,53.6,0,0,0,76,247.67c2.81-6.1,5.44-11.94,10-16.94,4.06-4.43,8.76-8.43,11.36-14,2.84-6.06,3-13.15,6.55-18.9a28.72,28.72,0,0,1,4.87-5.74c-2-1.85-4.16-1.49-6.53-.47-4.31,1.88-8.58,3.87-12.85,5.85,4.25-9.32,10.63-17.64,16.71-25.82C114.75,160.14,123.5,148.78,132.69,137.72Z"/><path class="cls-2" d="M61.88,287.18q-3.78-8.35-6.84-17a210.44,210.44,0,0,1-11.64-55.8c-.11-1.7-.18-3.41-.23-5.12a94.9,94.9,0,0,1,12,3.6c0-6.06-1.87-11.89-4.16-17.47-1-2.36-2-4.71-3-7.08a24.3,24.3,0,0,0-6.89-2.16c-1.55-5.64-4.16-10.9-6.5-16.28a57.85,57.85,0,0,1-3.81-11.06c-1-4.67-.87-9.45-.93-14.19a57.68,57.68,0,0,0-4.46-22c-1.48-3.64-2.9-7.25-4.14-10.91,5-.29,10.77-1,15.79.16a7.19,7.19,0,0,1-.24-.79,23.86,23.86,0,0,1-.73-5.23c-4.62-.43-9.47.46-14-.43-1-.19-1.93-.43-2.87-.7-.42-1.65-.81-3.31-1.13-5C15.85,88,15.8,76.08,16.51,64.23c-.4.06-.8.13-1.17.22a160.47,160.47,0,0,0,.58,29.16,104,104,0,0,0,1.92,10.69A48.53,48.53,0,0,1,1.36,94.46a106.22,106.22,0,0,0,3.91,14.09A26,26,0,0,0,8,110.05c3.75,1.66,7.86,1.86,11.9,1.7.49,1.48,1,3,1.57,4.4,3.1,7.93,6.62,15.35,7.08,24,.45,8.47-.16,16.52,2.73,24.65,2.54,7.17,6.49,13.8,8.57,21.14-1.53-.24-3-.4-4.37-.55a50.2,50.2,0,0,0-11.75.13h-.06c3.22,5.19,6.05,10.71,7.21,16.73a31.76,31.76,0,0,1,.53,6.36c.73-.08,1.46-.14,2.2-.19A36.59,36.59,0,0,1,42,209c0,.74.06,1.46.09,2.18a215.48,215.48,0,0,0,2.6,23.49,210.88,210.88,0,0,0,9.92,37.57q2.85,7.89,6.32,15.51C61.18,288.45,62.19,287.87,61.88,287.18Z"/><path class="cls-3" d="M93.63,260.91l-1.8,27.14v0l-2.33,35.15h0l-.25,3.93L87.07,359.9l-.54,8-.43,6.59a4.76,4.76,0,0,1-4.75,4.45H32.06a4.77,4.77,0,0,1-4.76-4.5l-.37-6.54-.4-7.06-1.91-33.67-.2-3.46-2-35.63h0l-1.54-27.21a4.77,4.77,0,0,1,4.75-5H88.87A4.78,4.78,0,0,1,93.63,260.91Z"/><polygon class="cls-4" points="22.4 288.07 33.87 268.5 45.55 288.07 22.4 288.07"/><polygon class="cls-4" points="45.55 288.07 57.01 268.5 68.69 288.07 45.55 288.07"/><polygon class="cls-4" points="68.69 288.07 80.16 268.5 91.84 288.07 68.69 288.07"/><polygon class="cls-4" points="45.55 327.17 24.62 327.17 24.42 323.71 33.87 307.59 45.55 327.17"/><polygon class="cls-4" points="45.55 327.17 57.01 307.6 68.69 327.17 45.55 327.17"/><polygon class="cls-4" points="89.49 323.23 89.49 323.24 89.24 327.17 68.69 327.17 80.15 307.59 89.49 323.23"/><polygon class="cls-4" points="45.55 367.9 26.93 367.9 26.53 360.84 33.87 348.32 45.55 367.9"/><polygon class="cls-4" points="45.55 367.9 57.01 348.32 68.69 367.9 45.55 367.9"/><polygon class="cls-4" points="87.07 359.9 86.53 367.9 68.69 367.9 80.15 348.32 87.07 359.9"/><path class="cls-5" d="M186.81,70.32s3.43-4.84,2.56-10.48-5.37-7.76-6.15-10.67-6.28-9.25-6.28-9.25-3.81-5.79-4.49-4.44-2.81,1.06-1.45,9c.8,4.72,3.44,11.43,4.39,16.87a21.19,21.19,0,0,1-.18,7.38l4,5.94Z"/><path class="cls-6" d="M192.57,372.33a41.71,41.71,0,0,1-9.44,7.87c-5,2.81-7.48,4.61-10.34,6.11s-8.08.82-8.08.82-2.85,3-1.73,3.7c.66.42,7.48.48,11.51-1.75s4.95-3.65,7.47-5.63a11,11,0,0,1,5.09-2.32,2.63,2.63,0,0,1,2,.49l2.74-.91a7.35,7.35,0,0,1,.47-2.61c.23-.75.94-1.73,1.23-2.8S192.57,372.33,192.57,372.33Z"/><polygon class="cls-5" points="186.04 320.45 187.71 342.58 189.22 362.6 189.25 363.04 188.41 363.21 178.62 365.94 171.89 344.79 164.83 320.23 158.6 295.18 186.04 320.45"/><path class="cls-5" d="M178.55,361.57s-.18,7.57-3.53,12.08a72.17,72.17,0,0,1-7.29,8.26s-3.33,6.62-.86,6.91,6.53-1.31,12.35-5.36a74.56,74.56,0,0,1,7.52-4.07,18.24,18.24,0,0,0,4.4-3.15,6.07,6.07,0,0,0,1.39-2,4.74,4.74,0,0,0-.13-2.66c-.47-2.1-1.41-3.59-2.13-5.6a49.72,49.72,0,0,1-1.32-6.88Z"/><path class="cls-6" d="M192.67,376s-.35,1.6-.78,3.78a74,74,0,0,0-.29,9.08h-1.74s-.29-6.07-.78-7.14-3.25-.72-3.25-.72Z"/><path class="cls-6" d="M193,371.61a14.11,14.11,0,0,0-1.9-3.71s-.09,1.34-1.83,3.91a37.87,37.87,0,0,1-10.13,8.94c-3.57,2-8.1,3.1-11.39,1.16a25.43,25.43,0,0,0-2.38,2.9c-2.59,4-2.58,5.17-2.58,5.17s4.78-.27,5.41-.37a15.09,15.09,0,0,0,3.59-1.45c.25-.29,4.66-2,4.66-2l7.91-4.72,7.28-3.53,1.84-2.62A8.59,8.59,0,0,0,193,371.61Z"/><path class="cls-6" d="M101.4,340.48a41.92,41.92,0,0,1-11.14,5.2c-5.59,1.43-8.4,2.55-11.55,3.27s-8-1.26-8-1.26-3.51,2.14-2.62,3.12c.53.58,7.11,2.38,11.58,1.25s5.71-2.26,8.66-3.54a11,11,0,0,1,5.51-.95,2.68,2.68,0,0,1,1.78,1l2.88-.18A7.4,7.4,0,0,1,99.6,346c.41-.67,1.35-1.44,1.9-2.4S101.4,340.48,101.4,340.48Z"/><polygon class="cls-5" points="120.97 296.36 110.28 315.81 100.62 333.4 100.4 333.79 99.61 333.47 89.92 330.41 95.82 309.02 103.31 284.58 111.77 260.19 120.97 296.36"/><path class="cls-5" d="M91.13,326s-2.65,7.77-7,11.28a72.91,72.91,0,0,1-9.16,6.13S70,349,72.35,349.87s6.64.39,13.3-2a73.93,73.93,0,0,1,8.31-2A18.7,18.7,0,0,0,99,343.89a6.15,6.15,0,0,0,1.86-1.62,4.77,4.77,0,0,0,.56-2.61c.08-2.14-.21-1.71-.36-3.85C100.9,333.1,105,325.5,105,325.5Z"/><path class="cls-6" d="M100.56,344.05s-.74,1.46-1.72,3.46a74.06,74.06,0,0,0-2.59,8.7l-1.69-.45s1.27-5.94,1.07-7.09-3-1.54-3-1.54Z"/><path class="cls-6" d="M102,339.88a13.77,13.77,0,0,0-.89-4.07s-.42,1.27-2.76,3.31a37.87,37.87,0,0,1-12.07,6.07c-4,1-8.62.93-11.31-1.78a24.56,24.56,0,0,0-3,2.19c-3.51,3.2-3.81,4.35-3.81,4.35s4.7.95,5.33,1a15.26,15.26,0,0,0,3.85-.49,49.11,49.11,0,0,1,5-.74l8.85-2.55,7.93-1.55,2.45-2.07A8.44,8.44,0,0,0,102,339.88Z"/><path class="cls-5" d="M261,107.87c-.49,4.37-65,8.15-66.95,6.7s-2.24-44.25-2.24-44.25l7.8-3.21,1.1-.46L228,55.4s5.71,1.94,12.46,4.45l1.18.44c9.41,3.55,20.27,8.06,20.51,10C262.5,73.81,261.45,103.51,261,107.87Z"/><path class="cls-6" d="M314.21,374.46a1.79,1.79,0,0,1-1.79-1.68l-9-137.63a1.8,1.8,0,0,1,3.59-.24L316,372.55a1.79,1.79,0,0,1-1.67,1.91Z"/><path class="cls-6" d="M248.5,384.27a1.79,1.79,0,0,1-1.8-1.79V235a1.8,1.8,0,1,1,3.59,0V382.48A1.79,1.79,0,0,1,248.5,384.27Z"/><path class="cls-6" d="M234.46,364.76a1.79,1.79,0,0,1-1.79-1.68l-9-137.63a1.8,1.8,0,0,1,3.59-.24l9,137.64a1.8,1.8,0,0,1-1.68,1.91Z"/><path class="cls-6" d="M168.75,374.57a1.79,1.79,0,0,1-1.8-1.79V225.33a1.8,1.8,0,1,1,3.59,0V372.78A1.79,1.79,0,0,1,168.75,374.57Z"/><path class="cls-7" d="M274.12,139.58s32-.4,35.83,6,2.56,82.73,0,89.13-47,11.29-72.2,10.86-44.62,2.54-49.73-3c-1.64-1.78-18.12-18.37-6.2-32.73C207.2,179.25,274.12,139.58,274.12,139.58Z"/><path class="cls-8" d="M203.9,295.18c-1.34,0-5.77,1.72-22.08,1.81s-41.9-.65-46.92-1.81S129.5,260.34,133,246s83.39-31.55,83.39-31.55Z"/><path class="cls-3" d="M189.33,57.1c-.4-2.11-2-3.31-.87-5.69.65-1.34-1.36-2.52-2-1.17a6.27,6.27,0,0,0-.11,5.75c.76,1.62.3,2.83.08,4.47a3.33,3.33,0,0,0,.5,2.4,1.17,1.17,0,0,0,2-1.18C188.28,60.62,189.58,58.4,189.33,57.1Z"/><path class="cls-6" d="M221.46,28.81c-.16-2.06.59-4,.82-6,.39-3.46-1.43-6.43-2.57-9.57s-2.36-6.17-4.78-8.4c-2.68-2.48-6.5-3.46-10-4.08C197.51-.53,187.59-.67,182,4.3c-2.29.58-4.56,1.46-5.87,3a18.34,18.34,0,0,0-5.29,4.78c-2.26,2.89-4.64,6.26-5.19,10a13.6,13.6,0,0,0,.15,4.27c.21,1.27.63,2.55.72,3.84.11,1.51-.43,2.56-.74,4-.71,3.26,2.32,8.51,3.8,11.41.92,1.8,2.16,3.44,3.06,5.26,1,2.07,1,4.12,1.34,6.35a10.16,10.16,0,0,0,.39,1.56c4-.15,10.19-7.5,13-8.42a11.11,11.11,0,0,1,6.94.43,25.73,25.73,0,0,0,3.21-.85c4.62-1.58,8.12-4.53,13.07-5.15a19.81,19.81,0,0,0,6.28-1.86C219.6,38.5,221.9,34.54,221.46,28.81Z"/><path class="cls-5" d="M226.51,65.45c-2.19,3.86-7.16,6.22-10.41,6.71s-5-1.88-7.06-3.79a2.82,2.82,0,0,1-.3-.3c-1-1-2.6-3-4.07-5-1.81-2.39-3.42-4.63-3.42-4.63l16.09-22.37s7.71,13,10.62,19.29C228.54,56.65,229.49,60.2,226.51,65.45Z"/><path class="cls-9" d="M217.19,57c-1.38,2.62-2.55,3.06-2.76,5.46-.16,1.71-3.6,4.26-5.69,5.61-1-1-2.6-3-4.07-5a29.57,29.57,0,0,0,4.44-4.44c2.55-3.34,5.82-8.8,6.18-8.66S218.58,54.38,217.19,57Z"/><path class="cls-5" d="M219.37,45.8c-1,6.48-5.92,13.4-10.84,17.53-3.89,3.26-11.77,2.44-16.15-1.16A61.45,61.45,0,0,1,177.8,44.9q-.54-.94-1.05-1.92c-.32-.62-.64-1.25-.94-1.88-.11-.21-.2-.43-.3-.64-4.25-12.67,3.55-26.27,17.58-29.47,7-1.59,12.7.35,17.8,3.79,5.39,6.84,8.58,16.2,8.22,16.83.32,1.83.63,3.67.91,5.5C220.45,39.88,219.79,43,219.37,45.8Z"/><path class="cls-6" d="M197.2,34.83l0,0-.06,0a1.48,1.48,0,0,0-.83-.31c-.35,0-.66.2-.92.71a1.2,1.2,0,0,0-.06.81c.25,1.27,2.2,3.92,3.63,3S198.14,35.52,197.2,34.83Z"/><path class="cls-6" d="M183.42,42.69l0,0-.06,0a1.39,1.39,0,0,0-.79-.24c-.31,0-.59.23-.79.71a1.14,1.14,0,0,0,0,.75c.32,1.16,2.29,3.46,3.55,2.49S184.33,43.27,183.42,42.69Z"/><path class="cls-9" d="M196.77,50.27c-1,.72-2.93,1.77-4,.53-.45-.51-.57-2.25-.74-2.93-.45-1.81-.91-3.63-1.37-5.44-.18-.73-1.27-.31-1.09.41.4,1.57.79,3.14,1.19,4.71.32,1.26.42,3.32,1.24,4.35,1.24,1.55,4.27.2,5.48-.68A.58.58,0,0,0,196.77,50.27Z"/><path class="cls-9" d="M203.08,50.67c-1.42,2.38-6.39,5.06-6.49,5.08-.65.11-.49,1.16.15,1.15a9.12,9.12,0,0,0,4.86-1.23A6.08,6.08,0,0,0,204.16,51,.58.58,0,0,0,203.08,50.67Z"/><path class="cls-6" d="M197.52,28.56a7,7,0,0,0-2.1.16A10.38,10.38,0,0,0,191.08,31c-.67.59-1.68,1.81-1,2.73.53.7,1.58.41,2.17-.06,1.22-1,2.28-2.16,3.58-3,.54-.36,1.62-.6,2-1.06C198.4,28.91,198.09,28.64,197.52,28.56Z"/><path class="cls-6" d="M181,40.63c-1.35.79-2.83,1.35-4.12,2.26a.47.47,0,0,0-.12.09c-.32-.62-.64-1.25-.94-1.88a10.14,10.14,0,0,1,3.12-2.55c.79-.4,2.28-.92,2.9.07C182.29,39.37,181.64,40.24,181,40.63Z"/><path class="cls-6" d="M213.31,15.67c-4.84-6.11-11.42-8.48-19.05-6.45A40.46,40.46,0,0,0,183,14.69a33.38,33.38,0,0,0-9.29,8c-2.29,3-4.12,6-3.77,9.91.11,1.22.4,2.42.39,3.65s-.55,2.38-.36,3.46a2.54,2.54,0,0,0,1.27,2,.59.59,0,0,0,.8-.21,11.42,11.42,0,0,1,2.84-3.47c.05.11.09.23.14.34a.58.58,0,0,0,.8.21,11.28,11.28,0,0,0,3-3.16,4.51,4.51,0,0,1,2.18-2c.56-.26,1-.13,1.44-.61a1.77,1.77,0,0,0,.52-1.88,18.48,18.48,0,0,0-1.09-2.67,14.36,14.36,0,0,1-.51-2.3c1,2.13,2.46,4.2,4.39,3.17a33.66,33.66,0,0,1,3.71-2c1-.38,1.94-.78,2.89-1.22,1.38-.63,3.23-1.26,4.37-2.42a16.92,16.92,0,0,0,8.67,3c1.06.08,2.21.3,3.1-.28s1.64-1.46,2.66-1.24a1.93,1.93,0,0,1,.88.27,6,6,0,0,1,2.76,2.23c1.44,2.38,2,6.2,2,9.19l.53.64c1,1.51,3.7,5,3.7,5S218.94,22.76,213.31,15.67Z"/><path class="cls-4" d="M217.22,42.33c-.4-2.12-2-3.31-.88-5.69.66-1.34-1.35-2.52-2-1.18a6.28,6.28,0,0,0-.11,5.75c.75,1.62.3,2.84.08,4.48a3.3,3.3,0,0,0,.5,2.39c.78,1.28,2.79.11,2-1.17C216.16,45.85,217.47,43.63,217.22,42.33Z"/><path class="cls-10" d="M264.78,160.85s9.27,45.35,3.64,61.52c-5,14.45-28.31,13.4-55.7,13.59-24,.16-26.53-.11-26.53-.11s7,23.39,6.61,37.53-1.3,17.38,2.39,33.54,5.29,36,5.29,36-14.16,7.68-26.06,8.89L162.52,353s-26.27-109.09-29.09-124.45,8.07-25.63,22.62-29.9,66.37-17.94,66.37-17.94Z"/><path class="cls-4" d="M194.86,69s9.91,10.89,14,21.75,11.32,13.59,11.32,13.59,3.12-10.68,8.42-15.72,6.27-9.9,9.95-14.75,8.26-11.61,8.26-11.61l3.11,1.11s12.7,45.43,13.09,47.18-.37,15.59,1.53,26.2-.11,22.9.83,24.06-6.24,8-7.22,8.74-11.83,4.27-15.91,2.71-45.89-9.89-45.89-9.89-8-88.63-7.48-90.19S194.86,69,194.86,69Z"/><path class="cls-8" d="M194.86,69a33.39,33.39,0,0,0-3.1,11.47c-.29,5.82,1.79,24.89,1.55,30.71s2.86,39,2.86,39l-26.26-2.48s3.48-63.6,5.9-68.26S194.86,69,194.86,69Z"/><path class="cls-8" d="M249.9,63.41s-4.12,26.82-1.4,46.23S246,137.44,245,156.78s-8.36,29.49-22.72,42.69-20.68,20.19-23.73,33.38-1.15,13.93-2.29,27.34-2.35,34.05,0,35,6.24-.17,10.79,0,14.21-.55,14.46-2.17c.58-3.78,2.13-53.27,2.13-53.27s23.19-16.59,29.89-20.08,28.82-28.32,27.07-43.13S271.77,82.89,268.7,75.45,249.9,63.41,249.9,63.41Z"/><path class="cls-10" d="M132.21,194.16s-8.57,3.37-14,17.73S85.61,305.77,86,306.38s4.66,4.91,18.25,9.36,16.3,6.72,19.79.92-3.49-6.66,4.66-14,9.7-6.55,11.64-16.25,10.87-20.19,14-25.23,11.19-35.71,13.55-41.53,11.35-19.12,8.82-20.19-44.47-5.31-44.47-5.31Z"/><path class="cls-7" d="M296.37,179.9s-49.3,12-57.45,20.93-15.33,38.91-15.33,38.91,43.67-4.48,48.32-4.71,21.35-10.33,25.23-17.31S296.37,179.9,296.37,179.9Z"/><path class="cls-4" d="M220.33,88.83a9.66,9.66,0,0,1-3.93,2.87c-2.63.77-4.5-.5-5.76-2.76-1.06-1.89-2.2-3.89-3.14-5.93,2.84,2.89,7.35,5.07,11.21,3.35,2.6-1.16,4.74-3.3,6.73-5.28,1.06-1,2.1-2.12,3.16-3.18A50.18,50.18,0,0,1,220.33,88.83Zm20.09-29c-1.88,3.45-3.19,7.17-5.86,10.28-3.43,4-7.28,7.61-11.06,11.22-2.28,2.17-5.28,5.07-8.75,4.44a13.3,13.3,0,0,1-6.52-3.68,30.79,30.79,0,0,1-7.57-15.46l-1.1.46a29.18,29.18,0,0,0,2,6.63,36,36,0,0,0,1.79,3.57A24,24,0,0,1,205.43,81a48.16,48.16,0,0,0,2.13,4.47A40.58,40.58,0,0,0,210.44,91a5.88,5.88,0,0,0,6.81,1.85c3.09-1.23,5.81-5,7.79-7.49a53.07,53.07,0,0,0,3.73-5.37c.57-1,1.12-1.92,1.63-2.9a11.46,11.46,0,0,1,1.07-2,25.36,25.36,0,0,1,1.93-2A34,34,0,0,0,238.9,66c1-1.84,1.76-3.79,2.7-5.66Z"/><path class="cls-4" d="M217.23,86.5a1.46,1.46,0,1,1-1.45-1.63A1.55,1.55,0,0,1,217.23,86.5Z"/><ellipse class="cls-4" cx="204.16" cy="77.23" rx="1.46" ry="1.63"/><ellipse class="cls-4" cx="224.17" cy="85.82" rx="1.46" ry="1.63"/><ellipse class="cls-4" cx="221.26" cy="89.07" rx="1.46" ry="1.63"/><path class="cls-4" d="M216.37,95.48c0,1.54-.65,2.79-1.46,2.79s-1.45-1.25-1.45-2.79.65-2.78,1.45-2.78S216.37,94,216.37,95.48Z"/><path class="cls-11" d="M140,251.11a.59.59,0,0,1-.58-.45c-.18-.69-4.22-16.92-4.87-23.57-1.26-12.82,4.67-20.52,18.65-24.25a.61.61,0,0,1,.73.43.61.61,0,0,1-.42.73c-17.49,4.66-18.52,15.34-17.77,23,.64,6.56,4.79,23.23,4.84,23.4a.6.6,0,0,1-.44.72A.36.36,0,0,1,140,251.11Z"/><path class="cls-12" d="M172.8,14.27c-3.11,4.28-5.22,9.08-4.11,14.44.16.74,1.28.43,1.13-.31-1-5,1.09-9.55,4-13.54C174.25,14.25,173.24,13.67,172.8,14.27Z"/><path class="cls-12" d="M171.07,40.59c-1.5-2.12-2.78-5.25-1.76-7.82.27-.7-.85-1-1.12-.31-1.12,2.83.21,6.37,1.87,8.71C170.49,41.78,171.5,41.2,171.07,40.59Z"/><path class="cls-12" d="M184.25,8.19c-4.79,3.54-6.16,11.8-4.44,17.26.23.72,1.35.41,1.12-.31-1.53-4.86-.37-12.78,3.91-15.94C185.43,8.76,184.85,7.75,184.25,8.19Z"/><path class="cls-12" d="M186,22.43c-1.56-2.41-1.15-5.17-.68-7.86.13-.73-1-1-1.12-.3-.53,3-.94,6.07.8,8.75C185.41,23.65,186.42,23.07,186,22.43Z"/><path class="cls-6" d="M80.56,394.56A1.79,1.79,0,0,1,78.93,392l92.26-199.68a1.8,1.8,0,1,1,3.26,1.51L82.19,393.52A1.78,1.78,0,0,1,80.56,394.56Z"/><polygon class="cls-6" points="0 171.97 0 178.71 4.96 182.07 4.96 170.43 0 171.97"/><polygon class="cls-6" points="264.43 171.97 264.43 178.71 262.14 180.44 262.14 174.22 264.43 171.97"/><ellipse class="cls-6" cx="132.21" cy="178.71" rx="132.21" ry="26.58"/><path class="cls-6" d="M173.93,392.42a1.79,1.79,0,0,1-1.64-1.05L81.64,192.75a1.8,1.8,0,0,1,3.27-1.49l90.65,198.62a1.8,1.8,0,0,1-.89,2.38A1.76,1.76,0,0,1,173.93,392.42Z"/><ellipse class="cls-7" cx="132.21" cy="171.97" rx="132.21" ry="26.58"/><path class="cls-13" d="M98.88,169.55s-.48,1.5.27,2,33.32,3.49,38.47,4.35,38,5.33,39.6,5.4,36.7-12.27,37.08-12.75,0-1.48,0-1.48Z"/><path class="cls-4" d="M98.88,169.55s16.86-6.38,27.81-4.06c6.29,1.33,16.54,8.63,16.54,8.63s10.34-4.35,19.36-2.42a33.61,33.61,0,0,1,15,7.73s36.26-12.38,36.74-12.38-9.22-7.22-24.19-10.32c-8.37-1.74-21.89,1-21.89,1s-9.59-4.66-18.82-4.63a86.51,86.51,0,0,0-14.14,1.77Z"/><path class="cls-4" d="M108.91,165.49s-10.57,3.95-10,4.06,44.35,4.57,44.35,4.57,33.15,5.52,34.33,5.31,1.71-1.62,1.71-1.62-7.09-9.45-16.32-11.59-36.28-7.73-36.6-7.51S108.91,165.49,108.91,165.49Z"/><path class="cls-10" d="M139.07,172.4a.62.62,0,0,1-.55-.34.6.6,0,0,1,.29-.8l28.47-13.44a.6.6,0,1,1,.51,1.08l-28.47,13.44A.57.57,0,0,1,139.07,172.4Z"/><path class="cls-10" d="M176.39,178.76a.59.59,0,0,1-.38-.14c-.09-.07-8.34-6.88-17.76-7.35a48.47,48.47,0,0,0-15.72,1.5.61.61,0,0,1-.76-.38.6.6,0,0,1,.39-.76c.26-.08,6.41-2,16.15-1.56s18.12,7.34,18.46,7.63a.59.59,0,0,1,.08.84A.61.61,0,0,1,176.39,178.76Z"/><path class="cls-10" d="M137.35,172.88a.58.58,0,0,1-.33-.1c-.07-.05-6.81-4.56-14.29-5.26s-20.66,1.93-20.79,1.95a.6.6,0,1,1-.24-1.17c.54-.11,13.41-2.69,21.14-2s14.56,5.26,14.85,5.46a.6.6,0,0,1,.16.83A.61.61,0,0,1,137.35,172.88Z"/><path class="cls-10" d="M208.43,167.71a.58.58,0,0,1-.37-.13c-.1-.08-9.87-7.74-22.75-8.88a63.15,63.15,0,0,0-14.6.85.6.6,0,1,1-.22-1.17,63.4,63.4,0,0,1,14.92-.87c13.26,1.17,23.29,9.05,23.39,9.13a.6.6,0,0,1,.1.84A.61.61,0,0,1,208.43,167.71Z"/><path class="cls-10" d="M203.26,169.41a.66.66,0,0,1-.35-.11c-.1-.08-10.34-7.29-18.71-7.85a90,90,0,0,0-20.75,1.4.6.6,0,0,1-.24-1.18,91.75,91.75,0,0,1,21.07-1.41c8.71.58,18.9,7.76,19.33,8.06a.6.6,0,0,1-.35,1.09Z"/><path class="cls-10" d="M155,162.26a.6.6,0,0,1-.36-.12,22.5,22.5,0,0,0-10.6-4,68,68,0,0,0-16.66,1.37.6.6,0,0,1-.71-.46.59.59,0,0,1,.45-.71,69.42,69.42,0,0,1,17-1.4,23.39,23.39,0,0,1,11.23,4.2.6.6,0,0,1-.36,1.08Z"/><path class="cls-10" d="M151.56,164.32a.62.62,0,0,1-.32-.09s-4.23-2.69-7.13-3.19a29.07,29.07,0,0,0-6.39-.23.6.6,0,0,1-.65-.54.6.6,0,0,1,.54-.65,28.92,28.92,0,0,1,6.71.24c3.14.54,7.38,3.24,7.56,3.36a.6.6,0,0,1,.19.82A.61.61,0,0,1,151.56,164.32Z"/><path class="cls-10" d="M197.92,171.69c-.23,0-.26,0-1.09-.63a44.29,44.29,0,0,0-7.2-4.5,27.24,27.24,0,0,0-7.85-2,.6.6,0,0,1-.56-.64.59.59,0,0,1,.64-.55,27.47,27.47,0,0,1,8.26,2.06,45.66,45.66,0,0,1,7.42,4.62c.31.23.52.39.62.45a.6.6,0,0,1-.24,1.15Z"/><path class="cls-5" d="M205,178.54c-.42-2.21-1.6-5.84-1.6-5.84s-5.69-2.89-7.44-3.66a7.73,7.73,0,0,0-3.87-.47,41.16,41.16,0,0,0-5.75,1.49c-1.77.44-6.07.4-7.78,1-1.19.43-2.69,1.7-1.34,2.89.66.58,4.07.52,5.35.47A27.52,27.52,0,0,1,172,176.36a4,4,0,0,0-3.09.64c-.44.41-1.07.93-1.12,1.57-.08.91.88,1.3,1.24,2s.12,1.1.27,1.69c.74,2.92,3.43,1.74,5.32,3.42,1.08,1,2.31,2.13,3.81,2.24,6.3.46,12.54-.85,18.69-2.06,1.76-.35,8.3-1.79,8.3-1.79S205.22,179.68,205,178.54Z"/><path class="cls-5" d="M246.27,178.9s-11.82,1.9-24.81,3.49c-2.68.33-5.08.61-7.14.83l-1.24.13-3.85.4c-.46,0-.87.08-1.26.1l-1.3.12c-.71.07-1.12.09-1.21.1h0l-3.06-7-.78-4.39,2.3-.53c.33-.08.72-.16,1.13-.27l1.15-.27,1.14-.25c.47-.12,1-.24,1.45-.35l1.15-.26,12.65-3c8-1.89,17.66-6.93,17.66-6.93Z"/><path class="cls-8" d="M283,133.37c-.8-5.92-1.91-11.76-2.33-17.74-.54-7.68-1.23-11.78-2.33-19.4-1-7.11-2.28-13.14-5.34-17.83-6.67-10.21-18.28-13.28-18.28-13.28s4.59,4.08,4.62,4.92q.31,7.47.67,14.95a1.09,1.09,0,0,0,.55.92c-1.81,8.41,0,17,.19,25.76.21,7.41-1.11,12.8-6,18.56l-.06.06c-1,3.43-1.48,5.72-3.93,8.3-3.92,4.12-5.12,10.14-9.44,14.31-2.26,2.18-6.54,7.95-6.11,10.36.37,4.32,2.13,5.35,4.05,9.35,1.45,3,3,6,4.39,9.1,3.87,8.33,22.14-3.41,26.75-6.69,6.88-4.89,10.42-12.16,11.61-20.36,1-6.85,1.94-14,1-20.91C283,133.62,283,133.49,283,133.37Z"/><path class="cls-9" d="M188.22,172.9a20.78,20.78,0,0,0-4.37.65.58.58,0,0,0,.31,1.12,18.52,18.52,0,0,1,4.06-.6C189,174,189,172.87,188.22,172.9Z"/><path class="cls-9" d="M186.8,178c-5.74,1.09-11.06,2.07-16.92,1.38-.74-.09-.73,1.07,0,1.16,6,.72,11.34-.3,17.23-1.42C187.85,179,187.54,177.89,186.8,178Z"/><path class="cls-9" d="M190.1,181.53a45.61,45.61,0,0,1-16.72,1.57c-.75-.07-.74,1.1,0,1.17a46.64,46.64,0,0,0,17-1.62A.58.58,0,0,0,190.1,181.53Z"/><path class="cls-9" d="M191.45,184.69a43.43,43.43,0,0,1-11.28,1.4.59.59,0,0,0,0,1.17,44.9,44.9,0,0,0,11.59-1.45A.58.58,0,0,0,191.45,184.69Z"/><path class="cls-5" d="M175.21,68.75s-22.8,58-22.28,65.13,6.75,17.73,12.71,12.43,10.37-9.5,12.49-29.9,8.68-46.09,8.68-46.09Z"/><path class="cls-8" d="M185.57,124a18.54,18.54,0,0,0-10-4.22c-6.37-.76-15.57-7.88-17.17-7.57s-5.1,9.31-6,13.68-3.74,12.38-1,15.87c3.11,4,8.86,8.73,14.75,7.71S179,140.77,181,134.94A93.84,93.84,0,0,1,185.57,124Z"/><path class="cls-4" d="M209.23,183.75c-.46,0-.87.08-1.26.1-.32-.62-.64-1.23-.93-1.86-.1.66-.23,1.31-.37,2-.71.07-1.12.09-1.21.1a39.67,39.67,0,0,0,.68-4.14,40.27,40.27,0,0,1-2.24-7.77c.33-.08.72-.16,1.13-.27a37.8,37.8,0,0,0,1.32,5.18,41.52,41.52,0,0,0-.17-5.45l1.14-.25a39.88,39.88,0,0,1,0,8.39A42.68,42.68,0,0,0,209.23,183.75Z"/><path class="cls-4" d="M214.32,183.22l-1.24.13c-1.93-3.87-3-8.26-4.31-12.33l1.15-.26C211.24,174.87,212.31,179.37,214.32,183.22Z"/><path class="cls-4" d="M209.41,181.33a2.23,2.23,0,1,1,2.23-2.22A2.23,2.23,0,0,1,209.41,181.33Zm0-3.25a1,1,0,1,0,1,1A1,1,0,0,0,209.41,178.08Z"/><path class="cls-14" d="M271.57,81.58a86.19,86.19,0,0,1-6,16.22c-2.25,4.56-5.08,8.72-7.75,13-2.31,3.74-4.31,7.65-4.91,12-.42,3.06-.3,6.18-1.17,9.17A34.88,34.88,0,0,1,248,139.7a.59.59,0,0,0,1,.59c2.5-4.28,4.23-8.21,4.66-13.2a32.34,32.34,0,0,1,1.58-8.84,42.71,42.71,0,0,1,4.08-7.67c5.77-9.12,10.59-18.19,13.36-28.69A.58.58,0,0,0,271.57,81.58Z"/><path class="cls-14" d="M270.23,131.49A54.76,54.76,0,0,0,248,142.7c-.58.48.25,1.3.82.82a53.76,53.76,0,0,1,21.77-10.91A.58.58,0,0,0,270.23,131.49Z"/><path class="cls-14" d="M178.84,121.17c-.5-.57-1.32.26-.83.82a14,14,0,0,1,3,4c.71,1.81.08,3.85-.39,5.7a37,37,0,0,1-3.8,9.28.59.59,0,0,0,1,.59,37.84,37.84,0,0,0,4.54-12.55C183,125.28,181.28,124,178.84,121.17Z"/><path class="cls-14" d="M196.26,238.56a99.68,99.68,0,0,0-2,21.66.58.58,0,0,0,1.16,0,98.14,98.14,0,0,1,2-21.35C197.54,238.14,196.41,237.83,196.26,238.56Z"/><path class="cls-15" d="M246.66,65.43q-2.17,6.28-4.37,12.57c-1.23,3.57-2.72,7.21-2.8,11-.06,2.58.72,4.78-1.87,6.45-1.88,1.22-3.86,2.29-5.79,3.43l-11.41,6.77a.47.47,0,0,0-.62.26c-.05.1-.08.2-.12.29-2.87-1.33-5.94-1.59-9-2.38-4.09-1.07-7.08-4-10.23-6.67-1.37-1.15-3.3-2.31-4.06-3.92-.85-1.84-.34-4.6-.31-6.63q.1-6.36.19-12.72a.58.58,0,0,0-1.16,0q-.12,7.52-.23,15c0,1.46-.44,3.41.12,4.8s2,2.08,3,2.89c3,2.54,6,5.71,9.63,7.39s7.84,1.52,11.49,3.24l.12,0c-1.89,5.76.64,11.65.35,17.6-.2,4-2.54,7-3.53,10.76s-.29,7.48.38,11.14c.13.73,1.25.42,1.12-.31-.82-4.49-1.3-8.73.54-13,1.09-2.54,2.32-4.89,2.59-7.69.61-6.3-2.63-12.84,0-18.92a.64.64,0,0,0,.16-.06l12.55-7.43c2.33-1.39,6.83-2.88,7.4-5.93.41-2.23-.29-4.56.11-6.85a47.77,47.77,0,0,1,2.15-7.21l4.74-13.62C248,65,246.91,64.72,246.66,65.43Z"/><path class="cls-6" d="M66.8,114.13a2.24,2.24,0,1,1-2.21-2.6A2.43,2.43,0,0,1,66.8,114.13Z"/><path class="cls-6" d="M53.52,123.09s-4.45,51.63-3.82,52.54c.31.46,4.4,4.78,15.35,4.28,11.19-.51,14.59-3.13,15.23-4.74,1.26-3.19-4.11-52.08-4.11-52.08Z"/><path class="cls-7" d="M76.17,123.09a5.05,5.05,0,0,0,.11-1c0-4.23-5.12-7.65-11.44-7.65s-11.44,3.42-11.44,7.65a5.07,5.07,0,0,0,.12,1Z"/><path class="cls-6" d="M53.52,123.09H49.61a1.09,1.09,0,0,0-1.09,1.09h0a1.08,1.08,0,0,0,.75,1,4.12,4.12,0,0,1,2.48,2.31c1.18,2.47,2.52,5.52,2.52,5.75s2.7-3,2.85-4.25S53.52,123.09,53.52,123.09Z"/><path class="cls-6" d="M75.25,156.06l-.16-1.18h0l-1.2.06A1.24,1.24,0,0,1,75,153.68c3.49-.39,7.24-1.55,7.69-3,.92-3.12.62-21.53-.74-23.42-.94-1-4.51-1.1-6.74-.86a1.2,1.2,0,0,1-1.31-1.07A1.18,1.18,0,0,1,75,124c1.09-.12,6.63-.6,8.74,1.61,2.4,2.5,2.13,22.88,1.28,25.74C84,154.74,77.84,155.78,75.25,156.06Z"/><path class="cls-12" d="M53.35,129.28h0a.59.59,0,0,1-.57-.62l.18-4.84a.6.6,0,0,1,.62-.57.59.59,0,0,1,.57.62l-.18,4.84A.59.59,0,0,1,53.35,129.28Z"/><path class="cls-12" d="M64.38,179c-9.21,0-14-4-14.19-4.2a.6.6,0,0,1-.07-.84.61.61,0,0,1,.85-.07s4.68,3.91,13.41,3.91h.27c9.81-.09,14-3.53,14-3.57a.6.6,0,0,1,.84.07.59.59,0,0,1-.06.84c-.18.16-4.5,3.76-14.8,3.86Z"/><path class="cls-3" d="M93.45,162.43H106a11.69,11.69,0,0,0,2.75-6.63l2.7-13.83a.49.49,0,0,0-.42-.63H88.41A.5.5,0,0,0,88,142l2.7,13.83A11.77,11.77,0,0,0,93.45,162.43Z"/><path class="cls-3" d="M109,159a4.12,4.12,0,0,1-.86-.1c-1-.22-2.19-1.05-2.55-3.7a14.12,14.12,0,0,1,.27-4.77c1.06-4.58,2.91-6.8,5.2-6.27,2.82.65,5.38,3.58,4.3,8.45h0a8.61,8.61,0,0,1-3.62,5.52A5.19,5.19,0,0,1,109,159Zm1.46-12.8c-.85,0-1.9,1.92-2.54,4.7a12,12,0,0,0-.23,4c.14,1.1.49,1.82.93,1.92a2.77,2.77,0,0,0,2-.49,6.53,6.53,0,0,0,2.69-4.19c.82-3.73-1-5.53-2.72-5.94Z"/><ellipse class="cls-3" cx="99.74" cy="141.77" rx="11.75" ry="3.38"/><path class="cls-3" d="M106.23,161.89c0,1.38-3,2.06-6.49,2.06s-6.49-.72-6.49-2.11,3-2.48,6.49-2.48S106.23,160.5,106.23,161.89Z"/><ellipse class="cls-16" cx="99.74" cy="141.77" rx="10.16" ry="2.83"/><path class="cls-3" d="M93.23,176.91a.72.72,0,0,0-.72.37c-1.17,2.05-6.2,11-6,11.32s36.29,3.8,36.87,3.41,3-8.41,3.88-11.13a.75.75,0,0,0-.66-1Z"/><path class="cls-3" d="M86.48,188.6S86,189.85,88,190.07l34.34,2.47a1.59,1.59,0,0,0,1.64-1c1-2.67,3.36-8.28,3.43-8.81a8.93,8.93,0,0,0-.19-2.12l-3.91,8.54Z"/><path class="cls-7" d="M94.05,178.43c-.29.06-1,1.67-2.06,3.64a55.34,55.34,0,0,0-2.88,5.6c.18.37,29.86,2.86,30.41,2.49a42,42,0,0,0,2.09-4.94c.86-2.12,1.74-4,1.59-4.24s-7.82-.74-15.28-1.35C101.06,179.07,94.36,178.37,94.05,178.43Z"/><path class="cls-7" d="M125.25,185.22a1.4,1.4,0,1,1-1.39-1.2A1.31,1.31,0,0,1,125.25,185.22Z"/><path class="cls-17" d="M281.71,184a.6.6,0,0,1-.11-1.19c.12,0,11.67-2.23,14.71-4.94,2.51-2.24,8-22.57,9.86-30.22a.6.6,0,1,1,1.16.29c-.7,2.85-7,27.92-10.22,30.82s-14.8,5.14-15.28,5.23Z"/><path class="cls-3" d="M113.6,118c-4-.66-8.2,4.13-10.15,7-1.11,1.63-1.35,3.61-2.08,5.45-.49,1.23-1.33,2.44-1.74,3.75-.17.54-.18,4.32.81,2.78s2.45-2.54,3.82-3.91a7.76,7.76,0,0,0,2.06-1.41,7.18,7.18,0,0,0,1-2.29c.88-2.22,2.62-3.46,4.49-4.82,1.42-1,3.86-2.48,3.79-4.55A2.11,2.11,0,0,0,113.6,118Z"/></g></g></svg>