<?xml version="1.0" encoding="utf-8"?>
<!-- Generator: Adobe Illustrator 24.1.0, SVG Export Plug-In . SVG Version: 6.00 Build 0)  -->
<svg version="1.1" id="Calque_1" xmlns="http://www.w3.org/2000/svg" xmlns:xlink="http://www.w3.org/1999/xlink" x="0px" y="0px"
	 viewBox="0 0 500 500" style="enable-background:new 0 0 500 500;" xml:space="preserve">
<style type="text/css">
	.st0{fill:#5850EC;}
	.st1{fill:#263238;}
	.st2{opacity:0.6;}
	.st3{fill:#2F2F7F;}
	.st4{opacity:0.4;enable-background:new    ;}
	.st5{fill:#455A64;}
	.st6{fill:#FFFFFF;}
</style>
<circle class="st0" cx="228.6" cy="254.9" r="203.5"/>
<path class="st0" d="M449.4,261.3c-0.3-1-0.4-2.2-0.3-3.3c-0.1-1,0-2.2,0.4-3.3c0.4,1,0.4,2.2,0.3,3.3
	C449.9,259.2,449.7,260.3,449.4,261.3z"/>
<path class="st0" d="M448.7,274.3c-0.3-2.2-0.1-4.4,0.5-6.5C449.5,270,449.4,272.2,448.7,274.3z"/>
<path class="st0" d="M447.1,287.2c-0.1-1-0.1-2.2,0.1-3.3c0-1,0.3-2.2,0.8-3.3c0.3,1,0.1,2.2-0.1,3.3
	C447.9,285.1,447.7,286.3,447.1,287.2z"/>
<path class="st0" d="M444.9,300c-0.1-1,0-2.2,0.3-3.3c0.1-1,0.4-2.2,0.9-3.1c0.1,1,0,2.2-0.3,3.3C445.7,298,445.5,299.1,444.9,300z"
	/>
<path class="st0" d="M441.8,312.7c0.1-2.2,0.7-4.3,1.6-6.2C443.4,308.5,442.9,310.7,441.8,312.7z"/>
<path class="st0" d="M438,325.2c0-1,0.3-2.2,0.7-3.3c0.3-1,0.7-2.1,1.3-3c0,1-0.3,2.2-0.7,3.3C439.2,323.2,438.7,324.2,438,325.2z"
	/>
<path class="st0" d="M433.6,337.2c0.1-1,0.4-2.2,0.9-3.1c0.3-1,0.8-2.1,1.4-2.9c-0.1,1-0.4,2.2-0.9,3.1
	C434.8,335.4,434.3,336.5,433.6,337.2z"/>
<path class="st0" d="M428.4,349.2c0.1-1,0.5-2.1,1-3.1c0.4-1,0.9-2,1.7-2.9c-0.1,1-0.5,2.2-1,3.1
	C429.7,347.4,429.1,348.4,428.4,349.2z"/>
<path class="st0" d="M422.4,360.8c0.3-1,0.7-2.1,1.2-3c0.8-1.6,1.7-2.9,1.8-2.7c-0.1,1-0.7,2.1-1.2,3
	C423.5,359.6,422.7,360.9,422.4,360.8z"/>
<path class="st0" d="M415.9,372c0.3-1,0.8-2.1,1.4-3c0.9-1.6,1.8-2.7,2-2.6c-0.3,1-0.8,2.1-1.4,3C417,370.9,416.1,372.1,415.9,372z"
	/>
<path class="st0" d="M408.6,382.8c0.4-1,0.9-2.1,1.6-2.9c1-1.4,2-2.6,2.1-2.5c-0.3,1-0.9,2.1-1.6,2.9
	C409.7,381.9,408.8,382.9,408.6,382.8z"/>
<path class="st0" d="M400.8,393.2c0.4-1,0.9-2,1.7-2.7c1.2-1.4,2.1-2.5,2.2-2.3c0.1,0.1-0.7,1.3-1.7,2.7
	C402,392.3,401,393.3,400.8,393.2z"/>
<path class="st0" d="M392.4,403.1c-0.1-0.1,0.7-1.3,2-2.6s2.2-2.3,2.5-2.2s-0.7,1.3-2,2.6S392.5,403.2,392.4,403.1z"/>
<path class="st0" d="M383.4,412.4c-0.1-0.1,0.8-1.3,2.1-2.6s2.3-2.2,2.6-2.1s-0.8,1.3-2.1,2.6C384.7,411.6,383.5,412.5,383.4,412.4z
	"/>
<path class="st0" d="M373.8,421.3c-0.1-0.1,0.9-1.2,2.2-2.5c1.3-1.3,2.5-2.1,2.6-2s-0.8,1.2-2.2,2.5
	C375,420.6,373.9,421.4,373.8,421.3z"/>
<path class="st0" d="M363.8,429.5c-0.1-0.1,0.9-1.2,2.3-2.3c0.8-0.8,1.7-1.4,2.7-1.8c0.1,0.1-0.9,1.2-2.3,2.3
	C365.7,428.5,364.8,429.1,363.8,429.5z"/>
<path class="st0" d="M353.2,437.1c-0.1-0.1,1-1.2,2.5-2.1c0.8-0.8,1.8-1.3,2.9-1.6c0.1,0.1-1,1.2-2.5,2.1
	C355.3,436.3,354.3,436.9,353.2,437.1z"/>
<path class="st0" d="M342.3,444.2c-0.1-0.1,1-1,2.6-2c0.9-0.7,1.8-1.2,3-1.4c0.1,0.1-1,1-2.6,2C344.4,443.4,343.4,443.9,342.3,444.2
	z"/>
<path class="st0" d="M331,450.5c-0.1-0.1,1.2-1,2.7-1.8c0.9-0.7,2-1,3-1.3c-0.8,0.8-1.7,1.4-2.7,1.8
	C333.1,449.9,332,450.4,331,450.5z"/>
<path class="st0" d="M319.3,456.2c0.8-0.8,1.8-1.3,2.7-1.7c0.9-0.5,2-0.9,3.1-1c-0.8,0.8-1.8,1.3-2.9,1.7
	C321.5,455.7,320.5,456.1,319.3,456.2z"/>
<path class="st0" d="M307.3,461.2c0.9-0.7,1.8-1.2,2.9-1.6c1-0.5,2.1-0.8,3.1-0.9c-0.9,0.7-1.8,1.2-2.9,1.6
	C309.5,460.8,308.4,461.2,307.3,461.2z"/>
<path class="st0" d="M295.1,465.5c0.9-0.7,2-1,3-1.3c1-0.5,2.1-0.7,3.3-0.7C299.3,464.6,297.2,465.4,295.1,465.5L295.1,465.5z"/>
<path class="st0" d="M282.5,469c0.9-0.7,2-1,3-1.2c1-0.4,2.1-0.5,3.3-0.5c-0.9,0.7-2,1-3.1,1.2C284.7,468.9,283.7,469.1,282.5,469z"
	/>
<path class="st0" d="M269.9,471.9c0.9-0.5,2.1-0.9,3.1-1c1-0.4,2.2-0.4,3.3-0.3c-0.9,0.5-2.1,0.9-3.1,1
	C272.1,471.9,270.9,472,269.9,471.9z"/>
<path class="st0" d="M257,473.8c1-0.5,2.1-0.8,3.1-0.8c1-0.3,2.2-0.3,3.3-0.1C261.3,473.7,259.1,473.9,257,473.8L257,473.8z"/>
<path class="st0" d="M244,475.1c1-0.4,2.1-0.7,3.3-0.7c1-0.3,2.2-0.1,3.3,0.1c-1,0.4-2.1,0.7-3.3,0.7
	C246.2,475.4,245.2,475.4,244,475.1z"/>
<path class="st0" d="M231.1,475.6c1-0.4,2.1-0.5,3.3-0.4c1-0.1,2.2,0,3.3,0.3c-1,0.4-2.2,0.5-3.3,0.4
	C233.2,476,232.2,475.9,231.1,475.6z"/>
<path class="st0" d="M218.1,475.4c1-0.3,2.2-0.4,3.3-0.3c1-0.1,2.2,0.1,3.3,0.4C222.4,476,220.2,475.9,218.1,475.4z"/>
<path class="st0" d="M205.1,474.5c1-0.3,2.2-0.3,3.3,0c1,0,2.2,0.3,3.3,0.7c-1,0.3-2.2,0.3-3.3,0
	C207.2,475.1,206.1,474.8,205.1,474.5z"/>
<path class="st0" d="M192.2,472.6c2.2-0.1,4.4,0.1,6.4,0.9c-1,0.1-2.2,0.1-3.3-0.1C194.3,473.4,193.1,473.2,192.2,472.6z"/>
<path class="st0" d="M179.5,470.2c1-0.1,2.2,0,3.3,0.4c1,0.1,2.2,0.5,3.1,1C183.6,471.5,181.4,471.1,179.5,470.2L179.5,470.2z"/>
<path class="st0" d="M166.9,466.9c2.2,0.1,4.3,0.8,6.2,1.7c-1,0-2.2-0.1-3.3-0.5C168.8,468,167.8,467.6,166.9,466.9z"/>
<path class="st0" d="M154.5,462.9c1,0,2.2,0.3,3.1,0.7c1,0.3,2.1,0.8,3,1.3c-1,0-2.2-0.3-3.1-0.7
	C156.3,464.1,155.4,463.5,154.5,462.9z"/>
<path class="st0" d="M142.4,458.2c1,0.1,2.2,0.4,3.1,0.9c1,0.3,2.1,0.8,2.9,1.6C146.2,460.3,144.2,459.4,142.4,458.2z"/>
<path class="st0" d="M130.6,452.7c2.1,0.5,4.2,1.4,5.9,2.9c-1-0.1-2.1-0.5-3.1-1C131.8,453.6,130.5,452.9,130.6,452.7z"/>
<path class="st0" d="M119.1,446.6c1,0.3,2.1,0.7,3,1.3c1,0.4,2,1,2.7,1.8c-1-0.3-2.1-0.7-3-1.3C120.2,447.7,119,446.8,119.1,446.6z"
	/>
<path class="st0" d="M108,439.9c1,0.3,2.1,0.8,2.9,1.4c1.6,0.9,2.7,1.8,2.6,2.1c-1-0.3-2.1-0.8-2.9-1.4C109,440.9,108,440,108,439.9
	z"/>
<path class="st0" d="M97.3,432.4c1,0.4,2,0.9,2.9,1.6c1.4,1,2.6,2,2.5,2.2c-1-0.4-2-0.9-2.9-1.6C98.3,433.5,97.2,432.6,97.3,432.4z"
	/>
<path class="st0" d="M87.1,424.4c1,0.4,2,1,2.7,1.8c1.4,1.2,2.5,2.2,2.3,2.3c-1-0.4-2-1-2.7-1.8C88.1,425.6,87,424.5,87.1,424.4z"/>
<path class="st0" d="M77.4,415.8c1,0.5,1.8,1.2,2.6,2c1.3,1.2,2.3,2.3,2.2,2.5c-0.1,0.1-1.3-0.8-2.6-2
	C78.3,417.1,77.3,415.8,77.4,415.8z"/>
<path class="st0" d="M68.2,406.6c0.9,0.5,1.8,1.3,2.5,2.1c1.3,1.3,2.2,2.5,2.1,2.6c-0.1,0.1-1.3-0.8-2.5-2.1
	C69.1,407.9,68,406.7,68.2,406.6z"/>
<path class="st0" d="M59.6,396.8c0.1-0.1,1.2,0.9,2.3,2.2c0.8,0.8,1.4,1.7,1.8,2.7c-0.1,0.1-1.2-0.9-2.3-2.2
	C60.2,398.2,59.4,396.9,59.6,396.8z"/>
<path class="st0" d="M51.5,386.7c0.1-0.1,1.2,0.9,2.2,2.3c0.8,0.8,1.3,1.7,1.7,2.7c-0.1,0.1-1.2-0.9-2.2-2.3
	C52.2,388,51.3,386.8,51.5,386.7z"/>
<path class="st0" d="M44,376c0.1-0.1,1,1,2.1,2.5c0.7,0.8,1.3,1.8,1.6,2.9c-0.1,0.1-1-1-2.1-2.5C44.9,378.1,44.4,377,44,376z"/>
<path class="st0" d="M37.2,364.9c0.1-0.1,1,1,2,2.6c0.7,0.9,1,2,1.3,3c-0.1,0.1-1-1-2-2.6C37.9,367,37.5,366,37.2,364.9z"/>
<path class="st0" d="M31,353.5c0.1-0.1,1,1.2,1.8,2.7c0.7,0.9,1,2,1.2,3c-0.1,0.1-1-1.2-1.8-2.7C31.6,355.6,31.2,354.7,31,353.5z"/>
<path class="st0" d="M25.5,341.7c1.3,1.8,2.2,3.8,2.6,6c-0.1,0.1-0.9-1.2-1.7-2.9C26,343.9,25.6,342.8,25.5,341.7z"/>
<path class="st0" d="M20.8,329.7c0.7,0.9,1.2,1.8,1.4,2.9c0.5,1,0.8,2.1,0.8,3.1c-0.7-0.9-1.2-1.8-1.4-2.9
	C21.1,331.8,20.8,330.7,20.8,329.7z"/>
<path class="st0" d="M16.8,317.2c0.7,0.9,1,2,1.3,3c0.4,1,0.7,2.1,0.7,3.3c-0.7-0.9-1-2-1.3-3C16.9,319.4,16.8,318.4,16.8,317.2z"/>
<path class="st0" d="M13.4,304.7c0.5,0.9,0.9,2,1.2,3.1c0.4,1,0.5,2.1,0.4,3.3c-0.5-0.9-0.9-2-1-3.1
	C13.5,306.9,13.4,305.8,13.4,304.7z"/>
<path class="st0" d="M10.9,292c0.5,0.9,0.8,2.1,0.9,3.1c0.3,1,0.4,2.2,0.3,3.3c-0.5-0.9-0.8-2.1-0.9-3.1
	C10.8,294.2,10.8,293,10.9,292z"/>
<path class="st0" d="M9.1,279.1c0.5,1,0.8,2.1,0.8,3.3c0.3,1,0.3,2.2,0,3.3C9.1,283.4,8.9,281.2,9.1,279.1L9.1,279.1z"/>
<path class="st0" d="M8.1,266.1c0.4,1,0.5,2.1,0.5,3.3c0.1,1,0.1,2.2-0.1,3.3c-0.4-1-0.5-2.1-0.5-3.3C7.8,268.3,7.8,267.1,8.1,266.1
	z"/>
<path class="st0" d="M7.8,253.1c0.4,1,0.4,2.2,0.4,3.3c0.1,1,0,2.2-0.3,3.3c-0.4-1-0.5-2.2-0.4-3.3C7.4,255.3,7.4,254.1,7.8,253.1z"
	/>
<path class="st0" d="M8.2,240.1c0.3,1,0.4,2.2,0.1,3.3c0,1-0.1,2.2-0.5,3.3c-0.3-1-0.4-2.2-0.1-3.3C7.7,242.3,7.8,241.1,8.2,240.1z"
	/>
<path class="st0" d="M9.5,227.2c0.3,1,0.3,2.2,0,3.3c0,1-0.3,2.2-0.7,3.3C8.6,231.5,8.9,229.3,9.5,227.2L9.5,227.2z"/>
<path class="st0" d="M11.5,214.3c0.1,1,0.1,2.2-0.3,3.3c-0.1,1-0.4,2.2-0.9,3.1c-0.1-1-0.1-2.2,0.3-3.3
	C10.7,216.4,10.9,215.3,11.5,214.3z"/>
<path class="st0" d="M14.2,201.6c0,2.2-0.5,4.3-1.4,6.4c-0.1-1,0-2.2,0.4-3.3C13.3,203.5,13.7,202.5,14.2,201.6z"/>
<path class="st0" d="M17.7,189.1c-0.1,2.2-0.8,4.3-1.8,6.2c0-1,0.1-2.2,0.5-3.3C16.7,191.1,17,190,17.7,189.1z"/>
<path class="st0" d="M22,176.8c0,1-0.3,2.2-0.8,3.1c-0.3,1-0.8,2.1-1.4,3c0-1,0.3-2.2,0.8-3.1C20.8,178.7,21.3,177.7,22,176.8z"/>
<path class="st0" d="M26.9,164.8c-0.1,1-0.4,2.2-0.9,3.1c-0.4,1-0.9,2.1-1.6,2.9c0.1-1,0.4-2.2,1-3.1
	C25.6,166.6,26.2,165.6,26.9,164.8z"/>
<path class="st0" d="M32.5,153.1c-0.5,2.1-1.6,4-2.9,5.9c0.1-1,0.5-2.1,1.2-3.1C31.6,154.3,32.4,153,32.5,153.1z"/>
<path class="st0" d="M38.9,141.6c-0.3,1-0.7,2.1-1.3,3c-0.9,1.6-1.7,2.7-2,2.6c0.3-1,0.7-2.1,1.3-3
	C37.9,142.8,38.8,141.6,38.9,141.6z"/>
<path class="st0" d="M45.9,130.7c-0.3,1-0.8,2.1-1.6,2.9c-1,1.4-2,2.6-2.1,2.5c0.3-1,0.8-2.1,1.6-2.9
	C44.7,131.8,45.8,130.6,45.9,130.7z"/>
<path class="st0" d="M53.5,120.2c-0.4,1-0.9,2-1.7,2.9c-1,1.4-2.1,2.5-2.2,2.5c-0.1,0,0.7-1.3,1.7-2.9
	C52.3,121.1,53.3,120.1,53.5,120.2z"/>
<path class="st0" d="M61.8,110.2c0.1,0.1-0.7,1.3-1.8,2.7c-1.2,1.4-2.2,2.3-2.3,2.3s0.7-1.3,1.8-2.7C60.6,111.1,61.7,110,61.8,110.2
	z"/>
<path class="st0" d="M70.5,100.5c0.1,0.1-0.8,1.3-2,2.6c-1.2,1.3-2.3,2.2-2.5,2.1c-0.1-0.1,0.8-1.3,2-2.6
	C69.2,101.3,70.4,100.4,70.5,100.5z"/>
<path class="st0" d="M79.9,91.6c0.1,0.1-0.8,1.3-2.1,2.5c-1.3,1.2-2.5,2.1-2.6,2c-0.1-0.1,0.8-1.2,2.1-2.5
	C78.6,92.2,79.7,91.4,79.9,91.6z"/>
<path class="st0" d="M89.7,83.1c0.1,0.1-0.9,1.2-2.3,2.3c-0.8,0.8-1.7,1.4-2.7,1.8c-0.1-0.1,0.9-1.2,2.3-2.3
	C87.8,84.2,88.7,83.5,89.7,83.1z"/>
<path class="st0" d="M100,75.2c0.1,0.1-0.9,1.2-2.5,2.2c-0.8,0.8-1.8,1.3-2.9,1.7c-0.1-0.1,0.9-1.2,2.5-2.2
	C98.1,76.1,99,75.6,100,75.2z"/>
<path class="st0" d="M110.8,67.9c0.1,0.1-1,1-2.5,2.1c-0.9,0.7-1.8,1.2-2.9,1.4c-0.1-0.1,1-1,2.5-2.1
	C108.9,68.7,109.8,68.2,110.8,67.9z"/>
<path class="st0" d="M122,61.3c0.1,0.1-1,1-2.6,2c-0.9,0.7-2,1-3,1.3c0.8-0.8,1.6-1.4,2.6-2C119.9,62,121,61.5,122,61.3z"/>
<path class="st0" d="M133.6,55.4c-0.8,0.8-1.7,1.3-2.7,1.7c-0.9,0.7-2,1-3.1,1.2c0.8-0.8,1.7-1.3,2.7-1.7
	C131.5,55.9,132.5,55.5,133.6,55.4z"/>
<path class="st0" d="M145.5,50.1c-0.8,0.8-1.8,1.3-2.9,1.6c-0.9,0.5-2.1,0.9-3.1,0.9c0.8-0.7,1.8-1.3,2.9-1.6
	C143.3,50.6,144.4,50.2,145.5,50.1z"/>
<path class="st0" d="M157.6,45.5c-0.9,0.7-1.8,1.2-3,1.4c-1,0.5-2.1,0.8-3.1,0.8c0.9-0.7,1.8-1.2,3-1.4
	C155.4,45.9,156.6,45.7,157.6,45.5z"/>
<path class="st0" d="M170.1,41.8c-0.9,0.7-2,1-3,1.2c-1,0.4-2.1,0.7-3.3,0.5C165.8,42.5,167.9,41.9,170.1,41.8z"/>
<path class="st0" d="M182.7,38.8c-2,0.9-4.2,1.4-6.4,1.4c0.9-0.5,2-0.9,3.1-1C180.5,38.8,181.6,38.6,182.7,38.8z"/>
<path class="st0" d="M195.5,36.4c-2.1,0.8-4.2,1.2-6.4,1c1-0.5,2.1-0.8,3.1-0.9C193.3,36.3,194.4,36.3,195.5,36.4z"/>
<path class="st0" d="M208.5,34.9c-2.1,0.7-4.3,0.9-6.5,0.7c1-0.4,2.1-0.7,3.3-0.7C206.3,34.6,207.3,34.6,208.5,34.9z"/>
<path class="st0" d="M221.4,34.1c-1,0.4-2.1,0.5-3.3,0.5c-1,0.1-2.2,0.1-3.3-0.1c1-0.4,2.1-0.5,3.3-0.5
	C219.3,33.7,220.3,33.8,221.4,34.1z"/>
<path class="st0" d="M234.4,34c-1,0.3-2.2,0.4-3.3,0.3c-1,0.1-2.2,0-3.3-0.4C230.1,33.6,232.3,33.6,234.4,34z"/>
<path class="st0" d="M247.4,34.7c-2.2,0.3-4.4,0.1-6.5-0.5c1-0.3,2.2-0.3,3.3-0.1C245.3,34.1,246.3,34.3,247.4,34.7z"/>
<path class="st0" d="M260.4,36.2c-1,0.1-2.2,0.1-3.3-0.1c-1,0-2.2-0.3-3.1-0.8C256.1,35.1,258.3,35.5,260.4,36.2L260.4,36.2z"/>
<path class="st0" d="M273.1,38.4c-2.2,0-4.4-0.4-6.4-1.2c1-0.1,2.2,0,3.3,0.3C271,37.6,272.2,37.9,273.1,38.4z"/>
<path class="st0" d="M285.7,41.4c-2.2-0.1-4.3-0.7-6.4-1.6C281.7,39.9,283.8,40.5,285.7,41.4z"/>
<path class="st0" d="M298.2,45.1c-2.2-0.3-4.3-0.9-6.2-2c1,0,2.2,0.3,3.1,0.7C296.3,44.1,297.3,44.5,298.2,45.1z"/>
<path class="st0" d="M310.5,49.6c-1-0.1-2.2-0.4-3.1-0.8c-1-0.3-2.1-0.8-2.9-1.4c1,0.1,2.2,0.4,3.1,0.8
	C308.6,48.4,309.7,48.9,310.5,49.6z"/>
<path class="st0" d="M322.4,54.8c-1-0.1-2.1-0.5-3.1-1c-1-0.4-2-0.9-2.9-1.7c1,0.1,2.1,0.5,3.1,1C321.2,53.9,322.6,54.6,322.4,54.8z
	"/>
<path class="st0" d="M334,60.6c-1-0.1-2.1-0.7-3-1.2c-1.6-0.8-2.9-1.7-2.7-1.8c1,0.1,2.1,0.7,3,1.2C332.3,59.2,333.2,59.8,334,60.6z
	"/>
<path class="st0" d="M345.2,67.1c-1-0.3-2.1-0.8-3-1.4c-1.6-0.9-2.7-1.8-2.6-2c1,0.3,2.1,0.8,3,1.4C344.1,66.1,345.3,67,345.2,67.1z
	"/>
<path class="st0" d="M356.1,74.4c-1-0.4-2.1-0.9-2.9-1.6c-1.4-1-2.6-2-2.5-2.1c1,0.3,2.1,0.9,2.9,1.6
	C355.1,73.2,356.2,74.3,356.1,74.4z"/>
<path class="st0" d="M366.5,82.2c-1-0.4-2-0.9-2.7-1.7c-1.4-1.2-2.5-2.1-2.3-2.2c1,0.4,2,0.9,2.7,1.7
	C365.5,81,366.6,82.1,366.5,82.2z"/>
<path class="st0" d="M376.4,90.7c-0.1,0.1-1.3-0.7-2.6-1.8c-1.3-1.2-2.3-2.2-2.2-2.3c0.1-0.1,1.3,0.7,2.6,1.8
	C375.5,89.5,376.5,90.4,376.4,90.7z"/>
<path class="st0" d="M385.8,99.5c-0.1,0.1-1.3-0.8-2.6-2.1c-0.9-0.7-1.6-1.6-2.1-2.5c0.1-0.1,1.3,0.8,2.6,2.1
	C385,98.3,385.9,99.4,385.8,99.5z"/>
<path class="st0" d="M394.6,109.1c-0.1,0.1-1.2-0.8-2.5-2.2c-1.3-1.4-2.1-2.5-2-2.6c0.1-0.1,1.2,0.8,2.5,2.2
	C394,108,394.7,109,394.6,109.1z"/>
<path class="st0" d="M402.9,119.1c-0.1,0.1-1.2-0.9-2.3-2.3c-0.8-0.8-1.4-1.7-1.8-2.7c0.1-0.1,1.2,0.9,2.3,2.3
	C401.9,117.2,402.5,118.1,402.9,119.1z"/>
<path class="st0" d="M410.6,129.5c-0.1,0.1-1.2-1-2.2-2.5c-0.8-0.8-1.3-1.8-1.6-2.9c0.1-0.1,1.2,1,2.2,2.5
	C409.7,127.6,410.2,128.5,410.6,129.5z"/>
<path class="st0" d="M417.6,140.5c-0.1,0.1-1-1-2-2.6c-0.7-0.9-1.2-1.8-1.4-3c0.1-0.1,1,1,2,2.6C417,138.4,417.4,139.4,417.6,140.5z
	"/>
<path class="st0" d="M424.1,151.8c-0.1,0.1-1-1.2-1.8-2.7c-0.7-0.9-1-2-1.3-3c0.1-0.1,1,1.2,1.8,2.7
	C423.3,149.7,423.9,150.7,424.1,151.8z"/>
<path class="st0" d="M429.8,163.5c-0.8-0.8-1.3-1.8-1.7-2.7c-0.5-0.9-0.9-2-1-3.1c0.8,0.8,1.3,1.8,1.7,2.7
	C429.3,161.4,429.7,162.4,429.8,163.5z"/>
<path class="st0" d="M434.8,175.5c-0.7-0.9-1.2-1.8-1.6-2.9c-0.5-0.9-0.8-2.1-0.9-3.1c0.7,0.9,1.2,1.8,1.6,2.9
	C434.4,173.2,434.8,174.3,434.8,175.5z"/>
<path class="st0" d="M439.1,187.7c-0.7-0.9-1-2-1.3-3c-0.4-1-0.7-2.1-0.7-3.3c0.7,0.9,1,2,1.3,3C439,185.5,439.1,186.6,439.1,187.7z
	"/>
<path class="st0" d="M442.7,200.2c-1-2-1.6-4-1.7-6.2C442.1,195.9,442.6,198,442.7,200.2z"/>
<path class="st0" d="M445.6,212.9c-0.9-2-1.3-4.2-1.3-6.4c0.5,0.9,0.9,2.1,1,3.1C445.6,210.7,445.7,211.9,445.6,212.9z"/>
<path class="st0" d="M447.7,225.8c-0.5-1-0.8-2.1-0.8-3.1c-0.3-1-0.3-2.2-0.1-3.3C447.4,221.4,447.8,223.6,447.7,225.8L447.7,225.8z
	"/>
<path class="st0" d="M449,238.7c-0.4-1-0.7-2.1-0.7-3.3c-0.3-1-0.3-2.2,0-3.3c0.4,1,0.7,2.1,0.7,3.3
	C449.1,236.5,449.1,237.6,449,238.7z"/>
<path class="st0" d="M449.5,251.7c-0.4-1-0.5-2.1-0.4-3.3c-0.1-1,0-2.2,0.3-3.3c0.4,1,0.5,2.1,0.4,3.3
	C449.9,249.5,449.7,250.6,449.5,251.7z"/>
<path class="st1" d="M431.9,263.8c0.1-2.3,0.1-4.7,0.1-6.9c0-2.2,0-4.8,0-7.3c0,2.5,0,4.8,0,7.3S432.1,261.6,431.9,263.8z"/>
<path class="st1" d="M302.4,366.8c-6.1,6.9-8.5,16.3-11.2,25.1c-2.7,8.8-6.5,18.1-14.3,23c-7.8,4.9-20.5,2.7-23.2-6.1
	c-1.4-4.8,0.4-10,0-15c-0.5-6.5-4.8-12.1-6.4-18.5c-1.3-5.5-0.5-11.1,0.1-16.6c3.5-30.2,0.7-62.7-16.6-87.8
	c-2.1-3.1-4.6-6.1-8.1-7.5c-4.2-1.7-9.1-0.8-12.4,2.3c-2,2-3.3,4.6-5.5,6.1c-4.9,3.4-12.2-0.7-14.4-6.2s-0.9-11.8,0.5-17.7
	c1.7-7.3,3.4-14.4,5.1-21.7c0.9-3.8,2-7.8,4.8-10.4c4.2-3.6,10.7-2.9,15.5-5.6c6.4-3.5,8.3-11.6,12.9-17.2
	c4.6-5.7,16.3-6.6,16.9,0.5c15.7-23.9,36.7,18.1,52.8,17.4c4.7-0.1,9.5-1.7,14-0.4c7.9,2.3,10.9,11.8,12.5,20
	c2.7,13.5,5.5,26.9,8.2,40.4c1,5.2,2.5,10.9,7.2,13.5c3.5,2,7.9,1.4,11.4,3.4c9.4,5.1,3.9,20.2-5.1,25.9s-20.8,8.5-26,17.7
	c-3.9,7-2.9,16-7,22.9C311.4,359.4,306.2,362.5,302.4,366.8z"/>
<path class="st1" d="M338.7,380.6c-3.3,0-6.9-2.2-9.8-0.4c-1.6,1-2.2,3.1-3.1,4.8c-1,2.5-3,4.4-5.5,5.6c-2.5,1.2-5.5,0.7-7.5-1.2
	c-2-2-2-5.2,0-7.2c1-0.7,2.1-1.3,3.1-2c4.9-3.4,3-11.4,7-15.7c2.3-2.6,5.9-5.1,8.3-7.7c2-2,2.9-3.6,5.9-3.8
	C350.8,352.5,352.7,380.7,338.7,380.6z"/>
<path class="st0" d="M45.9,282.4c0.3-5.9,3-11.3,3.9-17.2c0.7-4,1-8.3,1.6-12.4c-3.4-0.7-6.8-1.7-10-2.9c-0.7-0.1-1.3-0.7-1.7-1.2
	c-0.3-0.7-0.3-1.4-0.1-2.2c0.4-4.6-3.5-8.2-7.2-11.1c-1.8-1.6-3.8-2.9-5.7-3.9c0,0.5-0.1,0.9-0.1,1.4c-2.3,22-1.2,44.1,3.6,65.7
	c2.1,9.6,4.9,19,8.5,28.2c1.4,3.9,3.1,7.8,4.8,11.7c2.2,4.8,4.4,9.5,7,14c2.3,4.4,4.9,8.7,7.7,12.9c3.8,5.7,7.8,11.3,12.1,16.8
	c3.8,4.8,7.9,9.4,12.1,13.8c-6.8-31.1-12.7-62.7-27.8-90.5C50.3,298.2,45.7,290.7,45.9,282.4z"/>
<path class="st1" d="M27.8,222c-0.3,1.2-0.4,2.5-0.7,3.6c-0.1,1-0.3,2-0.4,3c0.1-1,0.3-2,0.4-3C27.5,224.5,27.6,223.3,27.8,222z"/>
<g class="st2">
	<path class="st1" d="M92.3,405.9c1.6,1.4,3.1,2.7,4.7,4c1,0.9,2.2,1.8,3.4,2.7c-1.2-0.9-2.2-1.8-3.4-2.7
		C95.5,408.6,93.9,407.2,92.3,405.9z"/>
</g>
<path class="st0" d="M347.3,314c9-5.7,14.4-20.8,5.1-25.9c-3.5-2-7.9-1.4-11.4-3.4c-4.6-2.6-6-8.3-7.2-13.5
	c-2.7-13.5-5.5-26.9-8.2-40.4c-1.7-8.1-4.6-17.7-12.5-20c-4.6-1.3-9.2,0.3-14,0.4c-16.1,0.7-37.1-41.4-52.8-17.4
	c-0.7-7.2-12.4-6.2-16.9-0.5c-4.6,5.7-6.5,13.8-12.9,17.2c-4.8,2.6-11.3,2-15.5,5.6c-3,2.6-3.9,6.6-4.8,10.4
	c-1.7,7.3-3.4,14.4-5.1,21.7c-1.3,5.9-2.6,12.1-0.5,17.7c2.1,5.6,9.4,9.5,14.4,6.2c2.3-1.6,3.5-4.2,5.5-6.1c3.3-3.1,8.2-4,12.4-2.3
	c3.4,1.4,6,4.6,8.1,7.5c17.3,25,20.2,57.5,16.6,87.8c-0.7,5.6-1.4,11.2-0.1,16.6c1.6,6.4,5.9,12,6.4,18.5c0.4,4.9-1.4,10.1,0,15
	c2.6,8.8,15.3,11.1,23.2,6.1c7.8-4.9,11.6-14.2,14.3-23s4.9-18.2,11.2-25.1c3.8-4.3,9-7.4,12-12.2c4.2-6.9,3.1-15.9,7-22.9
	C326.5,322.4,338.3,319.7,347.3,314z"/>
<g class="st2">
	<path class="st1" d="M28.6,217.3L28.6,217.3L28.6,217.3L28.6,217.3c-0.1,0.4-0.1,0.7-0.3,1.2c-0.3,1.2-0.4,2.5-0.5,3.6
		c0.3-1.2,0.4-2.5,0.5-3.6C28.5,218,28.6,217.7,28.6,217.3z"/>
</g>
<g class="st2">
	<path class="st1" d="M26.9,228.6c-0.1,1-0.3,2-0.4,3l0,0C26.5,230.6,26.8,229.6,26.9,228.6z"/>
</g>
<path class="st0" d="M52.8,245.2l-1.2-0.4c-3.5-0.9-7.5-1.7-9.1-4.9c-1.8-3.8,1.2-8.5-0.7-12.2c-0.9-2-3-3-4.6-4.6s-2.7-3.9-1.3-5.7
	c1-1.4,3.4-1.4,4.7-2.7c1-1,1.3-2.7,0.5-4c-3-4.8-8.3,3.4-10.7,5.2c-0.7,0.5-1.2,0.9-1.8,1.3l0,0c-0.1,0.4-0.1,0.7-0.3,1.2
	c-0.3,1.2-0.4,2.5-0.5,3.6c-0.1,1.2-0.4,2.5-0.7,3.6c-0.1,1-0.3,2-0.4,3c-0.1,1-0.3,2-0.4,3c2.1,1,4,2.3,5.7,3.9
	c3.6,2.9,7.5,6.5,7.2,11.1c-0.1,0.8-0.1,1.4,0.1,2.2c0.4,0.7,1,1,1.7,1.2c3.3,1.3,6.6,2.2,10,2.9"/>
<path class="st0" d="M51.3,252.8c-0.5,4-0.9,8.3-1.6,12.4c-0.9,5.9-3.6,11.3-3.9,17.2c-0.3,8.3,4.4,15.9,8.5,23.2
	c15.2,27.8,21.2,59.4,27.8,90.5l0,0c1.8,2,3.6,3.8,5.6,5.6c1.4,1.4,3,2.9,4.6,4.3c1.6,1.4,3.1,2.7,4.7,4c1,0.9,2.2,1.8,3.4,2.7
	c-0.1-0.4-0.3-0.7-0.4-1c-3-10.4-1.3-24.5,9-27.8c2-0.7,4-0.9,5.9-2.1c4.8-3.4,2.5-12.2,7.4-15.6c2.7-2,6.4-1.2,9.6-2.1
	c5.7-1.7,8.3-8.3,8.8-14.2c0.5-5.9-0.7-12,0.8-17.7c2.3-8.7,10.5-16.6,7.7-25.2c-3.1-9.5-16.3-10-24.7-15.2
	c-11.8-7.4-13.5-23.7-20.2-36c-6-11.1-21.7-24.5-35.4-23.4c-9.9,0.8-14,6-16,12.9"/>
<path class="st0" d="M48.4,168.8c4.2-2.7,10.8-2.1,13.1,2.3c1.7,3.1,0.7,7-0.4,10.4c-1.4,4.6-2.9,9.2-4.3,13.8
	c-0.5,1.3-0.7,2.9-0.4,4.3c1,3.3,6,3.4,8.2,0.9c2.2-2.5,2.6-6.1,2.6-9.4c0-3.4-0.3-6.9,1.6-9.8c4.3-7.2,15.5-4.3,22.8-8.3
	c4.6-2.5,7-7.3,10.1-11.4s7.8-8.1,12.9-7c1.7,0.3,3.3,1.2,5.1,1.4c5.1,0.5,9.1-6.4,6-10.4c-0.8-0.8-1.4-1.7-2-2.6
	c-0.4-2,0.5-3.9,2.3-4.8c1.8-0.8,3.6-1,5.6-0.9c4.4-0.1,8.8-0.1,13.1-0.1c4.8,0,11.3-1.6,11.3-6.5c0-4.2-5.3-6.9-5.5-11.1
	c0.1-1,0-2.1-0.1-3.1c-0.9-2.9-4.9-2.3-7.7-1.3c-0.7-3.4-4-5.6-7.4-4.9c-0.5,0.1-1.2,0.3-1.7,0.5c-2.9,1.7-3.8,5.3-5.1,8.5
	c-3.3,7.3-10.1,12.2-16.8,16.8c-2.2,1.6-4.7,3.1-7.3,2.9c-2.6-0.3-5.1-3.5-3.5-5.6c1-1.4,3.5-2.1,3.5-3.9c0-2.3-3.9-2.7-4.4-4.9
	c2.5-6.1,10-7.7,16.1-10.3c7.4-3.1,13.5-8.7,17.2-15.9c0.8-1,1-2.3,0.8-3.6c-0.7-1.7-2.7-2.3-4.6-2.6c-4.3-0.7-9.6-0.9-11.8,2.9
	c-1.2,2.1-0.9,4.6-1.7,6.6c-2.5,6.4-11.7,5.9-17.8,9c-2.3,1.2-4.4,3.1-6.9,3.9c-2.7,0.9-5.7,0.4-8.7,0.1c-0.5,0-1,0-1.6,0
	c-2.1,2.2-4.2,4.4-6.1,6.8c-2,2.3-3.9,4.7-5.9,7c-9,11.3-16.8,23.5-23.2,36.4c-2.2,4.6-4.3,9.2-6.2,13.9c-2,4.7-3.6,9.6-5.2,14.6
	c2.6-3.8,4.2-8.7,5.5-12.2C41.9,176.4,44.2,171.6,48.4,168.8z"/>
<g class="st2">
	<path class="st1" d="M430.4,281.2c0.4-2.9,0.8-5.9,1-8.7C431.1,275.3,430.8,278.2,430.4,281.2c0,0.9-0.1,1.8-0.4,2.7
		c-0.7,4.4-1.4,8.8-2.3,13.1c0.9-4.4,1.7-8.7,2.3-13.1C430.2,283,430.4,282.1,430.4,281.2z"/>
</g>
<g class="st2">
	<path class="st1" d="M427.6,211.7c0.7,2.7,1.2,5.3,1.6,8.1C428.7,217.1,428.2,214.5,427.6,211.7
		C426.7,207.7,427.6,211.7,427.6,211.7L427.6,211.7z"/>
</g>
<path class="st0" d="M430.4,281.2c0.4-2.9,0.8-5.9,1-8.7c0.3-2.9,0.5-5.7,0.5-8.6c0.1-2.3,0.1-4.7,0.1-6.9c0-2.2,0-4.8,0-7.3
	c-0.1-7.3-0.8-14.4-1.7-21.6c-0.4-2.7-0.8-5.5-1.3-8.2c-0.5-2.7-1-5.3-1.6-8.1l0,0l0,0c-0.8-2.1-1.6-4-2.5-6.1
	c-8.6-19.4-22.9-35.6-32.8-54.4c-3.3-6.1-5.7-11.1-12.6-13.3c-10.3-3.1-16.5,2.1-22.5-9c-1.6-3-4.8-6-7.9-4.8
	c0.5,2.2,0.9,4.6,1.4,6.8c0.1,0.5,0.1,0.9,0,1.4c-0.4,1.4-2.6,1.6-3.8,0.5c-1-1.2-1.7-2.6-2.2-4c-2.9-4.9-9.2-6.8-14.2-3.9
	c-0.3,0.1-0.5,0.3-0.8,0.5c0.1-2.1-0.9-4-2.6-5.2c-1.2,3.6-5.1,5.7-8.7,4.6c-0.3-0.1-0.5-0.1-0.8-0.3c-0.3-2.1,3.3-1.8,4.7-3.4
	c1.4-1.6,0.3-3.8-0.9-5.3c-3.4-3.9-7.9-6.5-13-7.4c-3.3-0.5-6.8-0.4-9.4-2.5c-1.4-1.2-2.5-3-3.9-4.2c-3.3-2.5-8.2-2.7-14.6,1.3
	c-5.3,2-7.9,3.5-10.5,8.6c-2.6,5.1,0.3,12.7,6,12.9c1.4,0,3-0.4,4.3,0.1c2,0.8,2.5,3.3,2.3,5.3s-0.7,4.2,0,6.1
	c0.7,2,3.5,3.3,4.8,1.7c3-2.1,3.3-6.4,3.1-10s-0.3-7.7,2.2-10.3c2.5-2.6,8.5-0.8,7.5,2.7c-0.5,2.1-3.1,3.3-3.4,5.3
	c-0.3,2.1,2.2,3.8,4.4,3.9c2.2,0.1,4.6-0.3,6.5,0.7c2,0.9,3.4,3.8,1.6,5.2c-3.1,2.6-9.2-3.5-11.2,0c-0.5,0.9-0.3,2.1-0.5,3
	c-0.7,3.1-4.8,3.6-7.9,3.6c-3.1,0-6.5-0.3-9.2-2.1c-2.7-1.8-4-5.7-2.1-8.2c-1.4-1.4-4-0.5-5.2,1c-0.9,1.8-1.3,3.8-1.2,5.7
	c-3.3-1.2-6.6,1.2-8.8,3.6c-2.2,2.5-4.6,5.5-7.9,6c-3.4,0.5-7.7-1.4-9.8,1.2c-2.7,3.5,3,9.2,0.1,12.7c-1.6,2-4.7,1.4-7.2,1.8
	c-6.6,0.9-10.3,9.9-6.6,15.6s12.5,6.6,17.7,2.5c3.6-2.9,5.7-7.3,8.6-10.9c2.9-3.6,7.8-6.5,12-4.6c1.6,0.9,3,2.1,4.2,3.5
	c1.8,2.1,3.8,4.2,5.6,6.4c1.2,1.3,2.5,3,2.1,4.8c-0.4,1.4-1.6,2.3-2.3,3.6c-2,3.6,3.1,8.2,7,6.5c3.8-1.7,4.9-6.9,3.1-10.7
	c-2.6-5.1-9.8-8.5-8.8-14c4.3-2.6,9.9,1.6,11.4,6.4c1.6,4.8,0.9,10,2.1,14.8s5.9,9.6,10.7,8.1c-0.5-4.2-1.2-8.2-1.7-12.4
	c3.1-1.7,5.5,4.9,9,4.4c2.1-0.4,2.9-3.3,2.2-5.3c-0.7-2.1-2-4-2-6.2c-0.1-4,4.8-6.8,8.6-5.6c3.8,1.2,6.1,5.3,6.2,9.4
	c-0.1,1.6,0,3.1,0.4,4.7c1,3.3,4.7,4.7,7.7,6.5c3,1.8,5.7,5.3,4,8.3c-0.8,1.3-2.5,2.3-2.1,3.9c0.4,1.6,2.1,2.1,2,3.5
	c-0.1,0.9-1.2,1.3-2.1,1.6c-2.2,0.5-4.6,0.5-6.8,1.2c-2.2,0.7-4.3,2.3-4.4,4.6c-0.3,3.3,3.4,5.3,4.8,8.2c1.4,2.9,0.7,6.1,1.3,9.1
	c0.7,2.7,2.5,5.2,3.8,7.7c4.3,7.9,4.2,17.4,5.5,26.3c0.7,4,2.1,8.6,5.9,9.9c2.2,0.5,4.4,0.4,6.5-0.3c6-1.4,12.4-3,16.9-7
	c4.6-4,7.2-11.4,3.6-16.6c-0.4-0.7-1-1.3-1.8-1.6c-1-0.1-2.2,0.1-3.1,0.7c-3.1,0.9-6.5-0.7-8.6-3.3c-2.1-2.6-3.1-5.6-4.2-8.7
	c-1.2-3.4-2.2-6.8-3.4-10.3c2.1-1.3,5.1-0.3,6.8,1.6s2.6,4.3,3.8,6.4c3.9,6.6,11.3,10.4,18.7,12.4c2,0.4,3.8,1,5.5,2
	c5.2,3.4,5.7,12,11.4,14.6c1.6,0.8,3.4,0.9,4.9,1.8c2.2,1.4,3,4.3,3.4,6.9c0.7,4.9,0.4,9.9,1.7,14.6s4.7,9.4,9.5,10.1
	c3.1,0.4,6.2-0.5,8.6-2.5l0,0c0.9-4.4,1.7-8.7,2.3-13.1C430.2,283,430.4,282.1,430.4,281.2z"/>
<path class="st0" d="M337.2,353.1c-3.1,0.1-3.9,1.8-5.9,3.8c-2.6,2.6-6,5.1-8.3,7.7c-4,4.4-2.1,12.4-7,15.7c-1,0.5-2.1,1.2-3.1,2
	c-2,2-2,5.2,0,7.2c2.1,1.8,4.9,2.3,7.5,1.2c2.5-1.2,4.4-3.1,5.5-5.6c0.8-1.7,1.4-3.8,3.1-4.8c2.7-1.8,6.4,0.4,9.8,0.4
	C352.7,380.7,350.8,352.5,337.2,353.1z"/>
<g>
	<path class="st3" d="M347.3,314c9-5.7,14.4-20.8,5.1-25.9c-3.5-2-7.9-1.4-11.4-3.4c-4.6-2.6-6-8.3-7.2-13.5
		c-2.7-13.5-5.5-26.9-8.2-40.4c-1.7-8.1-4.6-17.7-12.5-20c-4.6-1.3-9.2,0.3-14,0.4c-16.1,0.7-37.1-41.4-52.8-17.4
		c-0.7-7.2-12.4-6.2-16.9-0.5c-4.6,5.7-6.5,13.8-12.9,17.2c-4.8,2.6-11.3,2-15.5,5.6c-3,2.6-3.9,6.6-4.8,10.4
		c-1.7,7.3-3.4,14.4-5.1,21.7c-1.3,5.9-2.6,12.1-0.5,17.7c2.1,5.6,9.4,9.5,14.4,6.2c2.3-1.6,3.5-4.2,5.5-6.1c3.3-3.1,8.2-4,12.4-2.3
		c3.4,1.4,6,4.6,8.1,7.5c17.3,25,20.2,57.5,16.6,87.8c-0.7,5.6-1.4,11.2-0.1,16.6c1.6,6.4,5.9,12,6.4,18.5c0.4,4.9-1.4,10.1,0,15
		c2.6,8.8,15.3,11.1,23.2,6.1c7.8-4.9,11.6-14.2,14.3-23s4.9-18.2,11.2-25.1c3.8-4.3,9-7.4,12-12.2c4.2-6.9,3.1-15.9,7-22.9
		C326.5,322.4,338.3,319.7,347.3,314z"/>
</g>
<path class="st3" d="M82.2,396L82.2,396c1.8,2,3.6,3.8,5.6,5.6c1.4,1.4,3,2.9,4.6,4.3c1.6,1.4,3.1,2.7,4.7,4c1,0.9,2.2,1.8,3.4,2.7
	c-0.1-0.4-0.3-0.7-0.4-1c-3-10.4-1.3-24.5,9-27.8c2-0.7,4-0.9,5.9-2.1c4.8-3.4,2.5-12.2,7.4-15.6c2.7-2,6.4-1.2,9.6-2.1
	c5.7-1.7,8.3-8.3,8.8-14.2c0.5-5.9-0.7-12,0.8-17.7c2.3-8.7,10.5-16.6,7.7-25.2c-3.1-9.5-16.3-10-24.7-15.2
	c-11.8-7.4-13.5-23.7-20.2-36c-6-11.1-21.7-24.5-35.4-23.4c-9.9,0.8-14,6-16,12.9l-1.2-0.4c-3.5-0.9-7.5-1.7-9.1-4.9
	c-1.8-3.8,1.2-8.5-0.7-12.2c-0.9-2-3-3-4.6-4.6c-1.6-1.6-2.7-3.9-1.3-5.7c1-1.4,3.4-1.4,4.7-2.7c1-1,1.3-2.7,0.5-4
	c-3-4.8-8.3,3.4-10.7,5.2c-0.7,0.5-1.2,0.9-1.8,1.3l0,0c-0.1,0.4-0.1,0.7-0.3,1.2c-0.3,1.2-0.4,2.5-0.5,3.6
	c-0.1,1.2-0.4,2.5-0.7,3.6c-0.1,1-0.3,2-0.4,3c-0.1,1-0.3,2-0.4,3c0,0.5-0.1,0.9-0.1,1.4c-2.5,22-1.3,44.2,3.5,65.8
	c2.1,9.6,4.9,19,8.5,28.2c1.4,3.9,3.1,7.8,4.8,11.7c2.2,4.8,4.4,9.5,7,14c2.3,4.4,4.9,8.7,7.7,12.9c3.8,5.7,7.8,11.3,12.1,16.8
	C73.9,387.1,78,391.6,82.2,396"/>
<g>
	<path class="st3" d="M48.4,168.8c4.2-2.7,10.8-2.1,13.1,2.3c1.7,3.1,0.7,7-0.4,10.4c-1.4,4.6-2.9,9.2-4.3,13.8
		c-0.5,1.3-0.7,2.9-0.4,4.3c1,3.3,6,3.4,8.2,0.9c2.2-2.5,2.6-6.1,2.6-9.4c0-3.4-0.3-6.9,1.6-9.8c4.3-7.2,15.5-4.3,22.8-8.3
		c4.6-2.5,7-7.3,10.1-11.4s7.8-8.1,12.9-7c1.7,0.3,3.3,1.2,5.1,1.4c5.1,0.5,9.1-6.4,6-10.4c-0.8-0.8-1.4-1.7-2-2.6
		c-0.4-2,0.5-3.9,2.3-4.8c1.8-0.8,3.6-1,5.6-0.9c4.4-0.1,8.8-0.1,13.1-0.1c4.8,0,11.3-1.6,11.3-6.5c0-4.2-5.3-6.9-5.5-11.1
		c0.1-1,0-2.1-0.1-3.1c-0.9-2.9-4.9-2.3-7.7-1.3c-0.7-3.4-4-5.6-7.4-4.9c-0.5,0.1-1.2,0.3-1.7,0.5c-2.9,1.7-3.8,5.3-5.1,8.5
		c-3.3,7.3-10.1,12.2-16.8,16.8c-2.2,1.6-4.7,3.1-7.3,2.9c-2.6-0.3-5.1-3.5-3.5-5.6c1-1.4,3.5-2.1,3.5-3.9c0-2.3-3.9-2.7-4.4-4.9
		c2.5-6.1,10-7.7,16.1-10.3c7.4-3.1,13.5-8.7,17.2-15.9c0.8-1,1-2.3,0.8-3.6c-0.7-1.7-2.7-2.3-4.6-2.6c-4.3-0.7-9.6-0.9-11.8,2.9
		c-1.2,2.1-0.9,4.6-1.7,6.6c-2.5,6.4-11.7,5.9-17.8,9c-2.3,1.2-4.4,3.1-6.9,3.9c-2.7,0.9-5.7,0.4-8.7,0.1c-0.5,0-1,0-1.6,0
		c-2.1,2.2-4.2,4.4-6.1,6.8c-2,2.3-3.9,4.7-5.9,7c-9,11.3-16.8,23.5-23.2,36.4c-2.2,4.6-4.3,9.2-6.2,13.9c-2,4.7-3.6,9.6-5.2,14.6
		c2.6-3.8,4.2-8.7,5.5-12.2C41.9,176.4,44.2,171.6,48.4,168.8z"/>
</g>
<g>
	<path class="st3" d="M430.4,281.2c0.4-2.9,0.8-5.9,1-8.7c0.3-2.9,0.5-5.7,0.5-8.6c0.1-2.3,0.1-4.7,0.1-6.9c0-2.2,0-4.8,0-7.3
		c-0.1-7.3-0.8-14.4-1.7-21.6c-0.4-2.7-0.8-5.5-1.3-8.2c-0.5-2.7-1-5.3-1.6-8.1l0,0l0,0c-0.8-2.1-1.6-4-2.5-6.1
		c-8.6-19.4-22.9-35.6-32.8-54.4c-3.3-6.1-5.7-11.1-12.6-13.3c-10.3-3.1-16.5,2.1-22.5-9c-1.6-3-4.8-6-7.9-4.8
		c0.5,2.2,0.9,4.6,1.4,6.8c0.1,0.5,0.1,0.9,0,1.4c-0.4,1.4-2.6,1.6-3.8,0.5c-1-1.2-1.7-2.6-2.2-4c-2.9-4.9-9.2-6.8-14.2-3.9
		c-0.3,0.1-0.5,0.3-0.8,0.5c0.1-2.1-0.9-4-2.6-5.2c-1.2,3.6-5.1,5.7-8.7,4.6c-0.3-0.1-0.5-0.1-0.8-0.3c-0.3-2.1,3.3-1.8,4.7-3.4
		c1.4-1.6,0.3-3.8-0.9-5.3c-3.4-3.9-7.9-6.5-13-7.4c-3.3-0.5-6.8-0.4-9.4-2.5c-1.4-1.2-2.5-3-3.9-4.2c-3.3-2.5-2,2.9-5.9,4.3
		c-5.3,2-8.2,2.6-10.7,7.7c-0.5,1-0.9,2.1-1.3,3.1c-1,2.9,0,6,2.6,7.7l0.4,0.3c2,0.8,2.5,3.3,2.3,5.3s-0.7,4.2,0,6.1
		c0.7,2,3.5,3.3,4.8,1.7c3-2.1,3.3-6.4,3.1-10c-0.1-3.6-0.3-7.7,2.2-10.3c2.5-2.6,8.5-0.8,7.5,2.7c-0.5,2.1-3.1,3.3-3.4,5.3
		c-0.3,2.1,2.2,3.8,4.4,3.9c2.2,0.1,4.6-0.3,6.5,0.7c2,0.9,3.4,3.8,1.6,5.2c-3.1,2.6-9.2-3.5-11.2,0c-0.5,0.9-0.3,2.1-0.5,3
		c-0.7,3.1-4.8,3.6-7.9,3.6c-3.1,0-6.5-0.3-9.2-2.1s-4-5.7-2.1-8.2c-1.4-1.4-4-0.5-5.2,1c-0.9,1.8-1.3,3.8-1.2,5.7
		c-3.3-1.2-6.6,1.2-8.8,3.6c-2.2,2.5-4.6,5.5-7.9,6c-3.4,0.5-7.7-1.4-9.8,1.2c-2.7,3.5,2.9,9.2,0.1,12.7c-1.6,2-4.7,1.4-7.2,1.8
		c-6.6,0.9-10.3,9.9-6.6,15.6s12.5,6.6,17.7,2.5c3.6-2.9,5.7-7.3,8.6-10.9c2.9-3.6,7.8-6.5,12-4.6c1.6,0.9,3,2.1,4.2,3.5
		c1.8,2.1,3.8,4.2,5.6,6.4c1.2,1.3,2.5,3,2.1,4.8c-0.4,1.4-1.6,2.3-2.3,3.6c-2,3.6,3.1,8.2,7,6.5c3.8-1.7,4.9-6.9,3.1-10.7
		c-2.6-5.1-9.8-8.5-8.8-14c4.3-2.6,9.9,1.6,11.4,6.4c1.6,4.8,0.9,10,2.1,14.8c1.2,4.8,5.9,9.6,10.7,8.1c-0.5-4.2-1.2-8.2-1.7-12.4
		c3.1-1.7,5.5,4.9,9,4.4c2.1-0.4,2.9-3.3,2.2-5.3c-0.7-2.1-2-4-2-6.2c-0.1-4,4.8-6.8,8.6-5.6c3.8,1.2,6.1,5.3,6.2,9.4
		c-0.1,1.6,0,3.1,0.4,4.7c1,3.3,4.7,4.7,7.7,6.5c3,1.8,5.7,5.3,4,8.3c-0.8,1.3-2.5,2.3-2.1,3.9c0.4,1.6,2.1,2.1,2,3.5
		c-0.1,0.9-1.2,1.3-2.1,1.6c-2.2,0.5-4.6,0.5-6.8,1.2c-2.2,0.7-4.3,2.3-4.4,4.6c-0.3,3.3,3.4,5.3,4.8,8.2c1.4,2.9,0.7,6.1,1.3,9.1
		c0.7,2.7,2.5,5.2,3.8,7.7c4.3,7.9,4.2,17.4,5.5,26.3c0.7,4,2.1,8.6,5.9,9.9c2.2,0.5,4.4,0.4,6.5-0.3c6-1.4,12.4-3,16.9-7
		c4.6-4,7.2-11.4,3.6-16.6c-0.4-0.7-1-1.3-1.8-1.6c-1-0.1-2.2,0.1-3.1,0.7c-3.1,0.9-6.5-0.7-8.6-3.3c-2.1-2.6-3.1-5.6-4.2-8.7
		c-1.2-3.4-2.2-6.8-3.4-10.3c2.1-1.3,5.1-0.3,6.8,1.6c1.7,1.8,2.6,4.3,3.8,6.4c3.9,6.6,11.3,10.4,18.7,12.4c2,0.4,3.8,1,5.5,2
		c5.2,3.4,5.7,12,11.4,14.6c1.6,0.8,3.4,0.9,4.9,1.8c2.2,1.4,3,4.3,3.4,6.9c0.7,4.9,0.4,9.9,1.7,14.6c1.3,4.7,4.7,9.4,9.5,10.1
		c3.1,0.4,6.2-0.5,8.6-2.5l0,0c0.9-4.4,1.7-8.7,2.3-13.1C430.2,283,430.4,282.1,430.4,281.2z"/>
</g>
<g>
	<path class="st3" d="M337.2,353.1c-3.1,0.1-3.9,1.8-5.9,3.8c-2.6,2.6-6,5.1-8.3,7.7c-4,4.4-2.1,12.4-7,15.7c-1,0.5-2.1,1.2-3.1,2
		c-2,2-2,5.2,0,7.2c2.1,1.8,4.9,2.3,7.5,1.2c2.5-1.2,4.4-3.1,5.5-5.6c0.8-1.7,1.4-3.8,3.1-4.8c2.7-1.8,6.4,0.4,9.8,0.4
		C352.7,380.7,350.8,352.5,337.2,353.1z"/>
</g>
<path class="st0" d="M55.2,59.7c-5.5-1.7-11.4-0.5-15.9,3c0,0-10.7,8.2-6.5,20.2c1.6,4.4,4.7,8.1,8.7,10.4c1.6,0.9,3.1,1.6,4.8,2.2
	c5.9,1.8,22.8,6.2,22.8,6.2l1.8-1.4c-0.1-5.2-2.6-20.8-3.5-25.8C66.3,68.3,61.9,61.8,55.2,59.7z M59.1,84.8
	c-5.1,3.9-12.2,2.9-16.1-2.1C39,77.7,40.1,70.5,45,66.6c5.1-3.9,12.2-2.9,16.1,2.1l0,0C65,73.7,64.1,81,59.1,84.8L59.1,84.8z"/>
<path class="st4" d="M55.2,59.7c-5.5-1.7-11.4-0.5-15.9,3c0,0-10.7,8.2-6.5,20.2c1.6,4.4,4.7,8.1,8.7,10.4c1.6,0.9,3.1,1.6,4.8,2.2
	c5.9,1.8,22.8,6.2,22.8,6.2l1.8-1.4c-0.1-5.2-2.6-20.8-3.5-25.8C66.3,68.3,61.9,61.8,55.2,59.7z M59.1,84.8
	c-5.1,3.9-12.2,2.9-16.1-2.1C39,77.7,40.1,70.5,45,66.6c5.1-3.9,12.2-2.9,16.1,2.1l0,0C65,73.7,64.1,81,59.1,84.8L59.1,84.8z"/>
<path class="st0" d="M57.1,58.4c-5.5-1.7-11.4-0.5-15.9,3c0,0-10.7,8.2-6.5,20.2c1.6,4.4,4.7,8.1,8.7,10.4c1.6,0.9,3.1,1.7,4.8,2.2
	c5.9,1.8,22.8,6.2,22.8,6.2s-0.5-21.3-1.6-27.2C68.3,66.9,63.9,60.4,57.1,58.4z M59.1,84.9c-4.9,3.9-12.1,3-16-2l-0.1-0.1
	C39,77.8,40.1,70.6,45,66.7c5.1-3.9,12.2-2.9,16.1,2.1C65,73.7,64.1,81,59.1,84.9L59.1,84.9L59.1,84.9z"/>
<path class="st0" d="M45,66.6c-3.9,3-5.5,8.1-3.9,12.7c-1.2-5.3,2.1-10.7,7.4-11.8c5.3-1.2,10.7,2.1,11.8,7.4
	c1.2,5.3-2.1,10.7-7.4,11.8c-1.6,0.4-3.1,0.4-4.7,0c6,2.1,12.6-1,14.7-7s-1-12.6-7-14.7C52.3,63.6,48.3,64.3,45,66.6L45,66.6z"/>
<path class="st4" d="M45,66.6c-3.9,3-5.5,8.1-3.9,12.7c-1.2-5.3,2.1-10.7,7.4-11.8c5.3-1.2,10.7,2.1,11.8,7.4
	c1.2,5.3-2.1,10.7-7.4,11.8c-1.6,0.4-3.1,0.4-4.7,0c6,2.1,12.6-1,14.7-7s-1-12.6-7-14.7C52.3,63.6,48.3,64.3,45,66.6L45,66.6z"/>
<path class="st0" d="M489.2,217.6c4-4,5.7-9.9,4.7-15.5c0,0-2.3-13.3-15-15.1c-4.7-0.7-9.4,0.4-13.3,3c-1.6,0.9-2.9,2.1-4.2,3.3
	c-4.3,4.3-16,17.3-16,17.3l0.4,2.3c4.7,2.2,19.8,7.3,24.5,8.8C476.5,223.6,484.2,222.7,489.2,217.6z M465.1,209.4
	c-1-6.2,3.1-12.2,9.4-13.3c6.2-1,12.2,3.1,13.3,9.4c1,6.2-3.1,12.2-9.4,13.3C472.1,219.9,466.3,215.8,465.1,209.4L465.1,209.4
	L465.1,209.4z"/>
<path class="st4" d="M489.2,217.6c4-4,5.7-9.9,4.7-15.5c0,0-2.3-13.3-15-15.1c-4.7-0.7-9.4,0.4-13.3,3c-1.6,0.9-2.9,2.1-4.2,3.3
	c-4.3,4.3-16,17.3-16,17.3l0.4,2.3c4.7,2.2,19.8,7.3,24.5,8.8C476.5,223.6,484.2,222.7,489.2,217.6z M465.1,209.4
	c-1-6.2,3.1-12.2,9.4-13.3c6.2-1,12.2,3.1,13.3,9.4c1,6.2-3.1,12.2-9.4,13.3C472.1,219.9,466.3,215.8,465.1,209.4L465.1,209.4
	L465.1,209.4z"/>
<path class="st0" d="M489.5,219.9c4-4,5.7-9.9,4.7-15.5c0,0-2.3-13.3-15-15.1c-4.7-0.7-9.4,0.4-13.3,3c-1.6,0.9-2.9,2.1-4.2,3.3
	c-4.4,4.3-16,17.3-16,17.3s19.1,9.4,25,11.1C476.8,225.9,484.6,225,489.5,219.9z M465,209.5c-1-6.2,3.1-12.2,9.4-13.4
	c6.2-1.2,12.2,3.1,13.4,9.4c1,6.2-3.1,12.2-9.4,13.4l0,0c-6.2,1.2-12.2-3-13.3-9.2C465,209.5,465,209.5,465,209.5L465,209.5z"/>
<path class="st0" d="M487.7,205.5c-0.9-4.8-4.7-8.6-9.4-9.4c5.3,1.3,8.5,6.8,7.2,12c-1.3,5.3-6.8,8.5-12,7.2
	c-5.3-1.3-8.5-6.8-7.2-12c0.4-1.6,1.2-3,2.2-4.2c-4.7,4.3-4.9,11.6-0.5,16.3c4.3,4.7,11.6,4.9,16.3,0.5
	C487.1,213.2,488.4,209.3,487.7,205.5z"/>
<path class="st4" d="M487.7,205.5c-0.9-4.8-4.7-8.6-9.4-9.4c5.3,1.3,8.5,6.8,7.2,12c-1.3,5.3-6.8,8.5-12,7.2
	c-5.3-1.3-8.5-6.8-7.2-12c0.4-1.6,1.2-3,2.2-4.2c-4.7,4.3-4.9,11.6-0.5,16.3c4.3,4.7,11.6,4.9,16.3,0.5
	C487.1,213.2,488.4,209.3,487.7,205.5z"/>
<path class="st1" d="M19.4,418.4c-0.8,5.7,1.3,11.3,5.5,15.2c0,0,9.9,9.2,20.9,3.1c4-2.3,7.3-6,8.8-10.4c0.7-1.7,1-3.4,1.3-5.2
	c0.9-6,2.3-23.4,2.3-23.4l-1.7-1.6c-5.1,1-20.2,6-24.8,7.7C25.9,406,20.3,411.4,19.4,418.4z M43.4,410.5c4.7,4.3,4.9,11.6,0.5,16.3
	c-4.3,4.7-11.6,4.9-16.3,0.5c-4.7-4.3-4.9-11.6-0.5-16.3l0,0C31.6,406.3,38.9,406.2,43.4,410.5L43.4,410.5z"/>
<path class="st5" d="M17.7,416.7c-0.8,5.7,1.3,11.3,5.5,15.2c0,0,9.9,9.2,20.9,3.1c4.2-2.3,7.3-6,8.8-10.4c0.7-1.7,1-3.4,1.3-5.2
	c0.9-6,2.3-23.4,2.3-23.4s-20.9,4-26.5,6.1C24.2,404.4,18.6,409.7,17.7,416.7z M43.6,410.3c4.7,4.3,4.9,11.6,0.5,16.3
	c-4.3,4.7-11.6,4.9-16.3,0.5c-4.7-4.3-4.9-11.6-0.5-16.3l0,0C31.6,406.3,38.8,406,43.6,410.3C43.4,410.3,43.4,410.3,43.6,410.3z"/>
<path class="st1" d="M27.7,427.2c3.5,3.4,8.8,4,13.1,1.8c-5.1,2.1-10.8-0.3-12.9-5.3c-2.1-5.1,0.3-10.8,5.3-12.9
	c5.1-2.1,10.8,0.3,12.9,5.3c0.7,1.4,0.9,3.1,0.7,4.7c1.2-6.2-3-12.2-9.4-13.4c-6.2-1.2-12.2,3-13.4,9.4
	C23.5,420.7,24.8,424.6,27.7,427.2z"/>
<path class="st1" d="M417,89.9c0.5-4-0.9-8.1-3.9-10.8c0,0-7-6.5-15-2.2c-2.9,1.6-5.1,4.3-6.2,7.3c-0.4,1.2-0.8,2.3-0.9,3.6
	c-0.7,4.3-1.7,16.6-1.7,16.6l1.2,1.2c3.6-0.8,14.3-4.3,17.7-5.5C412.3,98.7,416.3,94.8,417,89.9z M399.8,95.6
	c-3.3-3.1-3.5-8.2-0.4-11.6c3.1-3.3,8.2-3.5,11.6-0.4c3.3,3.1,3.5,8.2,0.4,11.6C408.3,98.5,403.1,98.6,399.8,95.6z"/>
<path class="st5" d="M418.1,91c0.5-4-0.9-8.1-3.9-10.8c0,0-7-6.5-15-2.2c-2.9,1.7-5.1,4.3-6.2,7.4c-0.4,1.2-0.8,2.3-0.9,3.6
	c-0.7,4.3-1.7,16.6-1.7,16.6s14.8-2.9,18.9-4.3C413.3,100,417.5,96.1,418.1,91z M399.8,95.6c-3.3-3-3.5-8.2-0.5-11.4
	c0,0,0-0.1,0.1-0.1c3.1-3.3,8.2-3.5,11.6-0.4c3.3,3.1,3.5,8.2,0.4,11.6C408.3,98.5,403.1,98.7,399.8,95.6z"/>
<path class="st1" d="M411,83.6c-2.5-2.3-6.2-2.9-9.4-1.3c3.5-1.4,7.7,0.3,9.1,3.8s-0.3,7.7-3.8,9.1c-3.5,1.4-7.7-0.3-9.1-3.8
	c-0.4-1-0.7-2.2-0.5-3.3c-0.8,4.4,2.2,8.7,6.6,9.5s8.7-2.2,9.5-6.6C414,88.3,412.9,85.5,411,83.6z"/>
<path class="st6" d="M170.9,343.1h48.3c0,0-4.3-7.8-16.6-6.6c-11.8,1-12.5-3.8-18.5-4.4C178.1,331.4,172.9,336.1,170.9,343.1z"/>
<path class="st6" d="M204.1,301.2h71.4c0,0-6.4-11.4-24.7-9.8c-17.6,1.6-18.5-5.6-27.3-6.5C214.6,284.1,207.1,290.8,204.1,301.2z"/>
<path class="st6" d="M111.5,194.6h46.7c0,0-4.2-7.5-16.1-6.4c-11.4,1-12.1-3.8-17.9-4.3C118.2,183.4,113.4,187.7,111.5,194.6z"/>
</svg>
