<svg xmlns="http://www.w3.org/2000/svg" viewBox="0 0 402.36 469.75"><defs><style>.cls-1{fill:#dca978;}.cls-2{fill:#f5d2b5;}.cls-3{fill:#fff;}.cls-4{fill:#99b6a6;}.cls-5{fill:#7a9f89;}.cls-6{fill:#37313b;}.cls-7{fill:#705f62;}.cls-8{fill:#7e4a4a;}.cls-9{fill:#ef7e68;}.cls-10{fill:#f5a89d;}.cls-11{fill:#e76c6d;}.cls-12{fill:#f8f0ec;}.cls-13{fill:#e0cfc7;}.cls-14{fill:#1a161d;}.cls-15{fill:#b64949;}.cls-16{fill:#7c9fba;}.cls-17{fill:#88534e;}.cls-18{opacity:0.44;}</style></defs><g id="Calque_2" data-name="Calque 2"><g id="Calque_1-2" data-name="Calque 1"><path class="cls-1" d="M97.91,262.44H155v41.15c0,19.42,4.2,35.17-28.55,35.17-31.89,0-28.54-15.75-28.54-35.17Z"/><path class="cls-2" d="M402.36,379.53s-5.72,17.5-12,33.94c-.17.43-.33.87-.5,1.3-.8,2.09-1.62,4.15-2.42,6.14C380.15,439,379,469.75,379,469.75s-26.08-.8-55.55-2.2l-1.31-.08c-33.2-1.59-70.23-3.94-79.06-6.73a97.18,97.18,0,0,0-13-2.46l-1.52-.22c-16.73-2.28-43.42-4.72-67.13-6.64-1.82-.16-3.62-.3-5.39-.43-24.73-2-44.94-3.36-44.94-3.36s6.13-22.5,11.64-31c1.86-2.91,12.2-12.94,17.62-24.59.23-.47.45-.95.64-1.43a35.69,35.69,0,0,0,2-6c3.41-14.6,14.56-25.77,14.56-25.77L173,360.09l1.46.1c18.67,1.48,48.38,3.76,66.1,4.84,26.08,1.59,24.15,4.83,50.64,5.73l3.87.1c1.14,0,2.34.06,3.59.11,18,.65,47.76,3.19,70.8,5.34.43,0,.85.09,1.28.12C388.77,378.12,402.36,379.53,402.36,379.53Z"/><path class="cls-3" d="M346.83,421.11q9.56-18.36,19.45-36.52c1.49-2.72,3-5.44,4.47-8.16-.43,0-.85-.08-1.28-.12q-12.35,22.38-24.13,45.06-19.11,3.28-38.23,6.47-43.37,7.19-86.83,13.75c-10.77-18.69-21.12-37.59-31.63-56.41q27.72-3.74,55.48-7.22,27.27-3.46,54.54-7c-1.25-.05-2.45-.08-3.59-.11l-3.87-.1c-34.39,4.45-68.82,8.68-103.18,13.31l-1-1.75q-6.23-11.1-12.58-22.13l-1.46-.1q7,12,13.74,24.16c-3.19.43-6.37.85-9.55,1.29-12,1.66-24.16,3.12-36.23,5-.19.48-.41,1-.64,1.43,9.31-1.49,18.65-2.71,27.92-4q9.56-1.35,19.11-2.64c7.71,13.8,15.34,27.63,23.08,41.4q4.25,7.53,8.55,15-16,2.42-32,4.76-15.48,2.26-31,4.45c1.77.13,3.57.27,5.39.43l8.52-1.21q24.89-3.56,49.71-7.33,4.38,7.62,8.9,15.18l1.52.22q-4.63-7.77-9.15-15.59,34.93-5.28,69.82-10.95,27-4.39,53.93-9-3.3,6.38-6.57,12.78-8.11,15.93-16,32l1.31.08q11.07-22.69,22.72-45.1,21.87-3.75,43.72-7.68c.17-.43.33-.87.5-1.3Q368.61,417.37,346.83,421.11Z"/><path class="cls-4" d="M171,44.47a6.73,6.73,0,0,0-.48-1.19,6.92,6.92,0,0,0-1-1.47c-3.31-3.8-7.92.1-10.31,2.79-3.3,3.69-5.33,7.88-7.46,12.17-.6,1.2-1.21,2.41-1.86,3.62-1.68,3.12-4,5.68-6.18,8.47-.5.66-1,1.33-1.46,2a48.26,48.26,0,0,0-4.21,7.26,46.74,46.74,0,0,0-3.14,8.79c-1.15,4.72-4.54,9.63-4.83,14.39a6,6,0,0,0,3,5.49,3.87,3.87,0,0,0,1.15.37,4,4,0,0,0,3-.74c2.12-1.48,3.72-4.21,5.26-6.25,2.17-2.9,4.23-5.9,6.16-9,2.87-4.6,5.05-9.65,7.73-14.35.65-1.12,1.31-2.21,2-3.28l.06-.09c1.7-2.54,3.72-4.84,5.35-7.44a80.22,80.22,0,0,0,5-9.57C170.29,53.14,172.13,48.33,171,44.47Z"/><path class="cls-4" d="M181.74,71.57a4,4,0,0,0-.38-.68,2.74,2.74,0,0,0-.88-.82c-2.46-1.48-7,.85-8.91,2.18a55.82,55.82,0,0,0-12.42,12c-3.91,5.09-5.43,11.35-9.12,16.5-2.18,3-5.19,5.39-7.3,8.49-1.36,2-4.85,10.93-3.76,14.62a2.23,2.23,0,0,0,.68,1.15.55.55,0,0,0,.17.14c4.07,2.73,14-9.47,16.16-12a153.57,153.57,0,0,0,11.1-14.9c3.3-4.89,7.27-9.14,10.77-13.88C180.11,81.28,183.43,75.61,181.74,71.57Z"/><path class="cls-4" d="M188.57,118.6a2.88,2.88,0,0,0-.34-.56,2.71,2.71,0,0,0-.42-.41c-1.53-1.29-4.12-.9-5.88-.48a40.46,40.46,0,0,0-14.81,6.8,88.62,88.62,0,0,0-14.63,14c-.52.6-1,1.2-1.51,1.81q-2.16,2.65-4.17,5.42c-.88,1.2-1.75,2.42-2.6,3.64-1.7,2.48-4.32,5.9-3.48,9.11a2.74,2.74,0,0,0,1.59,1.92,3.69,3.69,0,0,0,1.2.28,7.52,7.52,0,0,0,3.41-.64c4.18-1.78,7.75-4.72,11.17-7.65,2.15-1.83,4.3-3.55,6.52-5.19s4.73-3.35,7.24-4.93c1.15-.73,2.28-1.48,3.38-2.3A40.6,40.6,0,0,0,184,130.8c2.07-2.82,4.42-6.39,4.9-10A3.93,3.93,0,0,0,188.57,118.6Z"/><path class="cls-4" d="M100.66,141.75c-.07-.21-.13-.42-.2-.62a37,37,0,0,0-5.83-10.78,46.13,46.13,0,0,0-4.52-4.75,54,54,0,0,1-4.64-4.81,31.32,31.32,0,0,1-2.4-3.42c-1.33-2.16-2.48-4.46-3.63-6.7C76.09,104.13,73,97.4,68.83,91.34A48.83,48.83,0,0,0,62.7,84c-1.73-1.66-3.87-3.79-6.37-4.15a5.1,5.1,0,0,0-4.62,1.59,8.55,8.55,0,0,0-.76.93c-1.79,2.65-2.31,6.76-2.1,9.44.55,6.92,4.31,13.78,8.27,19.33,2.07,2.89,4.61,4.94,7.22,7.29.84.75,1.64,1.56,2.43,2.41a78.77,78.77,0,0,1,7,9c1.32,1.9,2.59,3.79,3.87,5.59,3,4.14,5.93,8.3,9.24,12.18,3,3.46,7.15,8.27,12.36,6.28a4.83,4.83,0,0,0,.91-.46,4.06,4.06,0,0,0,.84-.75C103.27,150,101.58,144.65,100.66,141.75Z"/><path class="cls-4" d="M82.65,66.7c-.19-.29-.38-.58-.57-.85-2.51-3.77-22.6-33.41-29.59-26.62a3.84,3.84,0,0,0-.74.93,4.62,4.62,0,0,0-.28.48c-1.14,2.24-.68,5.49-.17,7.84a23,23,0,0,0,4.42,8.76c4,5.33,9.41,9.59,12.91,15.31,3.12,5.13,4.87,10.88,7.73,16.12C78.71,93,81.93,98.42,86,101.3c2.36,1.69,4.18,1.12,5.47-.4a7.27,7.27,0,0,0,.78-1.13,12.43,12.43,0,0,0,1.16-2.85C96.52,85.94,88.5,75.38,82.65,66.7Z"/><path class="cls-4" d="M113.91,63.62c-.22-4.57-1.37-8.92-2.29-13.33q-.45-2-.78-4a70.85,70.85,0,0,1-.72-11.39c0-3.64.16-7.27.08-11a44.17,44.17,0,0,0-3.8-17.12c-1.08-2.38-2.88-6.31-5.12-6.74a2,2,0,0,0-1.19.1,5.32,5.32,0,0,0-2.35,2.36,13.38,13.38,0,0,0-1.46,4.1c-2.17,10.12.53,19.4,2.51,29.26,1,4.78,1.81,9.7,2.77,14.61.57,3,1.2,6,1.93,9a89.21,89.21,0,0,0,4.86,14.9,2.89,2.89,0,0,0,1.3,1.63,1.6,1.6,0,0,0,.4.11,2,2,0,0,0,1.15-.28,2.25,2.25,0,0,0,.45-.35,4.56,4.56,0,0,0,1-1.9A26.86,26.86,0,0,0,113.91,63.62Z"/><path class="cls-5" d="M188.57,118.6a2.88,2.88,0,0,0-.34-.56,2.71,2.71,0,0,0-.42-.41C180.88,127.12,170.5,133.1,161,140c-.18,0-.35-.09-.52-.15-2-.66-3.88-1.58-6-1.84a17.72,17.72,0,0,0-1.94-.12c-.52.6-1,1.2-1.51,1.81q-2.16,2.65-4.17,5.42c2.32.13,4.65.32,7,.53a53.91,53.91,0,0,0-7.2,7.51,44.65,44.65,0,0,0-4.25,6.63c-4.12,7.89-6,16.86-7,25.69-.79,6.83-1.12,13.72-1.74,20.58-.66,7.27-1.94,14.42-3.29,21.58a195.89,195.89,0,0,0-3.14,21.93c-.59,7.85-.6,15.73-.61,23.61a.6.6,0,0,0,1.2,0c0-13.88.46-27.53,3-41.22,1.19-6.54,2.55-13,3.4-19.63s1.18-13,1.71-19.43c.9-11.18,2.43-22.85,7.76-32.83a42.67,42.67,0,0,1,2.5-4.15,52.25,52.25,0,0,1,9.4-10.13c3.07.28,6.13.56,9.2.8,2.33-1.72,4.73-3.35,7.24-4.93,1.15-.73,2.28-1.48,3.38-2.3-4.06.26-8.68,1.5-12.73.95,2.12-1.52,4.26-3,6.38-4.47C176.09,130.85,183.33,125.61,188.57,118.6Z"/><path class="cls-5" d="M180.48,70.07q-19.6,23.52-37.56,48.35L139,123.84c-5.12,7-10.05,14.21-12.91,22.49-1.87,5.46-3.52,11-5,16.62l.9-8.07c1.31-11.76,2.37-23.75,6.44-34.94a97.69,97.69,0,0,1,5.86-12.78c3.06-5.74,6.46-11.3,9.53-17,2.84-5.29,5-10.87,7.38-16.33a45.57,45.57,0,0,1,5.24,3c.65-1.12,1.31-2.21,2-3.28-.46-.78-1-1.53-1.6-2.34a15.77,15.77,0,0,1-2.17-4.78,58.47,58.47,0,0,1,3.85-6.36A168.66,168.66,0,0,1,171,44.47a6.73,6.73,0,0,0-.48-1.19q-5.24,5.76-9.93,12a100.26,100.26,0,0,0-6.41,9.34c-.28-1.23-.55-2.51-.91-3.84a25.13,25.13,0,0,0-1.49-4c-.6,1.2-1.21,2.41-1.86,3.62-1.68,3.12-4,5.68-6.18,8.47-.5.66-1,1.33-1.46,2a19.5,19.5,0,0,1,2.46.45,38,38,0,0,1,5.26,2c-1.72,4.21-3.28,8.49-5.32,12.58-3.57,7.14-7.82,13.91-11.57,21-1.63,3-3.15,6.13-4.49,9.31-4.41,10.54-6,21.85-7.23,33.11q-.7,6.31-1.39,12.63c-2.29-28.76-5-57.45-8.78-86q-1.41-10.82-3-21.61,1.74-2,3.46-3.91-.45-2-.78-4a70.85,70.85,0,0,1-.72-11.39,22.55,22.55,0,0,0-1.52,3.89,53.46,53.46,0,0,1-1.84,5.75.2.2,0,0,0,0,.08C104.37,29.8,101.79,15,101.28.05a2,2,0,0,0-1.19.1c.42,12.37,2.26,24.66,4.21,36.89.49,3.07,1,6.15,1.45,9.23a22.48,22.48,0,0,1-3.52,3.59c-.23.2-.46.41-.67.62.57,3,1.2,6,1.93,9,1.21-1.37,2.43-2.73,3.64-4.09q1.55,10.33,2.92,20.73.72,5.49,1.39,11c3.28,27,5.75,54,7.83,81.06l-.36,3.3q-1.06,4.43-2,8.86Q115,189.1,113.55,198c-.47-7.15-.58-14.33-1.21-21.47-1.14-13-3.82-25.83-6.54-38.53a149.91,149.91,0,0,0-12.43-36c-.37-.73-.74-1.46-1.13-2.19A303,303,0,0,0,73.85,69.56Q63.5,54.19,52.49,39.23a3.84,3.84,0,0,0-.74.93C65.48,58.6,79,77.58,89.85,97.78c.55,1,1.1,2.08,1.61,3.12a144.82,144.82,0,0,1,12.33,33.45,335,335,0,0,1,7.13,39.85c.51,4.87.72,9.75,1,14.64a173.67,173.67,0,0,0-5-22.37A72.73,72.73,0,0,0,101,152.72,114.35,114.35,0,0,0,89.6,136.27c-2.34-2.86-4.59-5.75-6.78-8.65l1.26-.36c2-.56,4.07-1,6-1.66a54,54,0,0,1-4.64-4.81,31.32,31.32,0,0,1-2.4-3.42,13.88,13.88,0,0,0-2.54.42,16,16,0,0,0-3.63,1.68c-2.75-4-5.38-8-7.89-12.29-5.25-8.92-10.48-18-17.3-25.73a8.55,8.55,0,0,0-.76.93c5.85,6.72,10.52,14.36,15,22,3.14,5.33,6.34,10.56,9.76,15.65a9.5,9.5,0,0,1-1.46.6,17.3,17.3,0,0,1-6.88.26l-.64-.08a78.77,78.77,0,0,1,7,9A70.55,70.55,0,0,0,81.43,128q1.36,1.8,2.8,3.58c5.74,7.06,11.52,14,15.89,21.87a61.69,61.69,0,0,1,4,8.71c4.42,12,6.31,25,8.14,37.66.16,1.08.3,2.16.44,3.25-.77,5.23-1.45,10.49-2,15.76-.08.76,1.12.76,1.2,0,.39-3.74.87-7.46,1.39-11.19.08.59.15,1.19.25,1.79q2.21,18.2,2.86,36.55c0,.77,1.24.77,1.2,0q-.52-14.4-2-28.75a.59.59,0,0,0,.63-.74,76.74,76.74,0,0,1-1.65-8.17c-.17-1.32-.31-2.67-.49-4l-.14-1.11a.66.66,0,0,1,0-.14q1.53-10.35,3.71-20.61-.53,4.74-1,9.48c-.09.77,1.11.76,1.19,0,.65-5.82,1.28-11.62,1.93-17.44q.43,5.76.85,11.52c1.32,18.5,2.52,37,3.7,55.5,0,.76,1.25.76,1.2,0-1.53-23.92-3.08-47.84-4.91-71.74q2.31-9.3,5.12-18.48a65.43,65.43,0,0,1,6.59-15.58c2.29-3.69,4.81-7.23,7.34-10.75.67-.91,1.32-1.83,2-2.74q10-14.06,20.64-27.68,9.33-12,19.09-23.68A2.74,2.74,0,0,0,180.48,70.07Z"/><path class="cls-6" d="M245,353.18a1.53,1.53,0,0,1-.3,0,1.79,1.79,0,0,1-1.47-2.07l20.7-123.69a1.8,1.8,0,0,1,3.54.6l-20.7,123.69A1.8,1.8,0,0,1,245,353.18Z"/><path class="cls-6" d="M376,351.78a1.79,1.79,0,0,1-1.76-1.45L351.47,235a1.79,1.79,0,0,1,3.52-.7l22.78,115.36a1.8,1.8,0,0,1-1.41,2.11A2.07,2.07,0,0,1,376,351.78Z"/><path class="cls-7" d="M243.4,173.47s-6.48-19.37-1.4-25.36,84.72-.6,88.91,3.59,4.49,10.75,17.06,23.19,17.09,16,19.46,26.21-.3,30.54,0,31.43-47.19,37.14-61.62,37.73-29.55-.29-32.91,0S243.4,173.47,243.4,173.47Z"/><path class="cls-8" d="M339.2,362.46s-1.13,1-1,5.16a47.86,47.86,0,0,0,1.56,10.31c.66,2.41,1.26,5.07,2.76,7.13,2.22,3,7.63,5.61,10.76,2.39.91-.94.71-4.13.71-4.13Z"/><path class="cls-9" d="M360.77,317.68,349.71,358l-.19.69h0l-.35,1.27-.2.14h0c-1.4,1-9.17,6-9.5-.25v0a.08.08,0,0,1,0,0c0-.15,0-.29,0-.44v-1c0-.2,0-.39,0-.61,0,0,0,0,0-.06v0c0-.16,0-.32,0-.49v0c0-.5,0-1,0-1.62.1-12.49.32-43.82.32-43.82l.6-26.55Z"/><path class="cls-9" d="M353.92,384.62c-.52,3.78-6.37,3.51-8.82,1a16.36,16.36,0,0,1-3.28-4.59,10.45,10.45,0,0,1-.52-1.24q-.19-.57-.39-1.2c-.13-.41-.24-.84-.34-1.29-.41-1.65-.73-3.54-1.14-5.83-1.15-6.44-.83-8.08-.51-10.05s.53-3.22.53-3.22,4.33-3.19,5.1-3.82c1-.86,4.81,3.54,4.81,3.54s.05.18.12.52c0,.17.08.38.13.64v0c.09.35.19.78.29,1.28h0c.76,3.53,2.15,10.24,3.09,15.78q.13.71.24,1.38c.06.4.11.79.17,1.15s.14.94.2,1.37A21.69,21.69,0,0,1,353.92,384.62Z"/><path class="cls-8" d="M353.6,380.05a26.75,26.75,0,0,0-5-.41c-1.92,0-4.9.23-6.81,1.37a10.45,10.45,0,0,1-.52-1.24c3.25-2,8.17-1.71,12.1-1.09C353.48,379.16,353.54,379.62,353.6,380.05Z"/><path class="cls-8" d="M349.78,359.86v0a6.87,6.87,0,0,1-.81.22h0a11.34,11.34,0,0,1-4.35.06,20.62,20.62,0,0,1-5.13-1.78h0c0-.2,0-.39,0-.61,0,0,0,0,0-.06v0c0-.16,0-.32,0-.49v0c0-.5,0-1,0-1.62l.6.47c2.63,1.9,6.26,3,9.33,2.08a1.92,1.92,0,0,0,.31-.11l-.19.7C349.59,359,349.69,359.4,349.78,359.86Z"/><path class="cls-8" d="M353.23,377.53a18.86,18.86,0,0,0-12.32,1c-.13-.41-.24-.84-.34-1.29A19.85,19.85,0,0,1,353,376.15Q353.13,376.86,353.23,377.53Z"/><path class="cls-8" d="M331.75,377.32s-1,1.15-.32,5.25a47.61,47.61,0,0,0,3,10c1,2.31,1.94,4.86,3.71,6.69,2.62,2.71,8.32,4.51,11,.89.77-1.05.14-4.18.14-4.18Z"/><path class="cls-10" d="M347,330l-5.44,41.44-.09.71h0l-.17,1.3-.18.17h0c-1.26,1.14-8.26,7.18-9.45,1.06v0a0,0,0,0,1,0,0,3.35,3.35,0,0,1-.07-.44c0-.27-.09-.61-.13-1,0-.19-.05-.38-.08-.59,0,0,0,0,0-.06v0c0-.16,0-.31-.06-.48v0c-.07-.49-.14-1-.21-1.61L325.39,327l-3-26.38Z"/><path class="cls-10" d="M349.37,397.25c0,3.82-5.84,4.34-8.61,2.18a16.2,16.2,0,0,1-3.87-4.1,11.09,11.09,0,0,1-.69-1.16c-.18-.35-.36-.73-.55-1.13s-.35-.8-.51-1.23c-.63-1.58-1.21-3.4-1.93-5.63-2-6.21-1.93-7.88-1.88-9.88s.08-3.25.08-3.25,3.86-3.76,4.53-4.5c.88-1,5.26,2.86,5.26,2.86l.18.49c.07.16.13.37.22.62v0c.13.34.29.74.46,1.23h0c1.24,3.39,3.54,9.84,5.23,15.2.15.46.29.91.42,1.34s.23.76.33,1.12.26.91.38,1.33A21.4,21.4,0,0,1,349.37,397.25Z"/><path class="cls-8" d="M348.42,392.77a26,26,0,0,0-5,.27c-1.89.3-4.82.9-6.55,2.29a11.09,11.09,0,0,1-.69-1.16c2.95-2.42,7.86-2.81,11.84-2.73C348.19,391.9,348.3,392.35,348.42,392.77Z"/><path class="cls-8" d="M341.88,373.29v0a5.25,5.25,0,0,1-.77.33h0a11.37,11.37,0,0,1-4.3.65,20.86,20.86,0,0,1-5.33-1.05s0,0,0,0c0-.19-.05-.38-.08-.59,0,0,0,0,0-.06v0c0-.16,0-.31-.06-.48v0c-.07-.49-.14-1-.21-1.61l.65.39c2.87,1.52,6.61,2.13,9.52.77a1.17,1.17,0,0,0,.3-.14l-.09.72C341.58,372.48,341.72,372.85,341.88,373.29Z"/><path class="cls-8" d="M347.71,390.32A18.89,18.89,0,0,0,335.65,393q-.27-.59-.51-1.23A19.82,19.82,0,0,1,347.29,389C347.44,389.44,347.58,389.89,347.71,390.32Z"/><path class="cls-6" d="M320.73,160.17S331.6,185.47,333.6,187c5.89,4.59,8,6.12,23.52,16.17,14.32,9.25,33.66,19.45,31.57,34.42-1.26,8.95-6,30.86-12.28,50-4.56,13.89-7.23,25.21-9.58,32.43A208.47,208.47,0,0,1,354.46,350s-9.58-37.92-10-41.11S330.93,245,323.33,239.42s-67.13-47.3-68.66-50.89-5.85-19.63-5.85-19.63Z"/><path class="cls-6" d="M250.82,196.31s.39,12,17.29,34.73S307.06,269,307.06,269s2.52,5.38,4.12,15.36,7.27,50.5,8.11,53.29,1.27,16.84,1.27,16.84,16.73,4.46,24.32,2.19,9.58-6.66,9.58-6.66-4-97.89-9.18-111.41-46.7-37.07-49.1-37.47S250.82,196.31,250.82,196.31Z"/><path class="cls-6" d="M299,56.62a13.53,13.53,0,0,0-1.27-1.24c-1.28-1.28-1.59-2.52-2.29-4.05a4.75,4.75,0,0,0-2.84-2.67c-2.35-.95-4.37-.68-6.36-2.7-1.4-1.43-2.18-3.51-3.86-4.68a3.86,3.86,0,0,0-.88-.45c.88-4,1.37-8.62.82-11.52-.8-4.21-1.16-9-3.72-12.47a19.65,19.65,0,0,0-8.07-6.8c-2.86-1.21-7.09-4.1-10.42-4-.4-.1-.8-.21-1.21-.28-5.51-1-11.23,1.4-16.37,3.41a28.89,28.89,0,0,0-7.6,4.63c-2.39,1.95-4.1,4.71-5.72,7.4-2.72,4.5-2.35,10.51-1.45,15.24.53,2.77.27,5.55,1.13,8.26.71,2.23,5.22,8.54,6.73,10.34,3.37,4,5.35.25,10.48.81.62.07.72-.7.34-1a21,21,0,0,0,3.13.42c2.58.13,5.17-.17,7.76-.11a69.31,69.31,0,0,0,7.35,0c4.63-.4,7.79-.84,10.24-2.36a42.47,42.47,0,0,0,3.25,10.7.62.62,0,0,0,.5.38c.13,1.84.08,4.92.87,6.28,1.49,2.58,5-.38,7.28-.91,1.88-.42,3.88-.42,5.68-1.14s10.12,7.65,11.42,6.07C305.8,71.81,301.26,59.58,299,56.62Z"/><path class="cls-11" d="M318.25,106.65c-.73-6.45-1.83-12.75-2.23-19.27-.23-3.7-.43-7.4-.82-11.08-.22-2.11-.35-4.74-2.24-6.13-2.55-1.87-7.49-1.59-10.46-2q-6.44-.78-12.88-1.44-13.08-1.34-26.2-2.19a.65.65,0,0,0-.64-.29l-1.07.18-.26,0a.5.5,0,0,0-.37.12l-14.29,2.29c-4.65.75-10.09.9-14.48,2.65-7.19,2.88-6.84,12.5-6.22,18.84.58,5.9,1.95,11.68,2.64,17.56.62,5.26-2.31,1.52-1.76,6.79a176.67,176.67,0,0,0,4.15,21.53c4.59,15.21,10.74,23.72,17.7,34.66,1.93.19,3.86.26,5.8.27,9.7,0,23-.5,32.7-.6a45.66,45.66,0,0,0,8.12-.88c3.92-1.18,9-3.74,12.08-4,1.9-.13,13.81-1.2,14.74-2.82.51-.9,0-3.75.06-4.82.06-2.13-2.27-4.26-2.18-6.39.33-8-3.88-15.93-2.81-23.85C318.2,119.5,319,113.05,318.25,106.65Z"/><path class="cls-11" d="M244.39,143s-16.46-3.29-20.35-4.19-10.78-1.79-13.24-4.19S189,123,189.31,122.07s7.18-7.49,9.28-15.87a21.28,21.28,0,0,1,2.94-6.37,50.4,50.4,0,0,1,3.3-4.44c3.42-4.23,7.45-8.47,10.22-13.28,5.09-8.81,17.26-12.59,17.26-12.59s2.67,8.92,5.82,19.17c.54,1.73,1.08,3.5,1.63,5.27,3.53,11.37,7.19,22.79,8.18,24.52C250,122.07,244.39,143,244.39,143Z"/><path class="cls-12" d="M257.15,84.77c-.33-1.71-.44-4.92-2.15-2.81a20.6,20.6,0,0,0-2.69,5.44,11,11,0,0,1-7.63,6.93,12.6,12.6,0,0,1-3.35.35,15.42,15.42,0,0,1-6.79-1.84c-1.26-.67-2.94-2.63-4.5-2.38-.65.11-.87.43-.84.84a5,5,0,0,0,1.21,2.14c2.39,2.9,6,5.85,9.79,6.36A18,18,0,0,0,243,100a12.3,12.3,0,0,0,7.38-2.5c1.76-1.43,4-2.4,5.31-4.28A12.89,12.89,0,0,0,257.15,84.77Z"/><path class="cls-12" d="M239.82,59c-1.82.11-3.21,2-3.06,4.15a44.77,44.77,0,0,0,.75,6.1c.33,1.45,1,3.29,2.59,3.08s2.08-2.4,2.38-3.87a40,40,0,0,0,.66-5.58c.11-2.2-1.45-4-3.32-3.88Z"/><path class="cls-12" d="M242,57a2,2,0,1,1-2-2.28A2.17,2.17,0,0,1,242,57Z"/><path class="cls-10" d="M273.59,81.1c-4.79,2-14.18.7-14.87-1-.09-.2-.23-.5-.42-.87-1.43-2.83-5.47-9.9-5.47-9.9l1.69-1.86,19.07-21s7.19,21.35,7.78,25.45S278.38,79.11,273.59,81.1Z"/><path class="cls-10" d="M290.49,74.86c.06.61-1.73,4.35-4.07,8.53l-1.13,2c-2.34,4-5,8.1-6.73,9.93-6.75,6.93-4.81,14.5-20.3-4.3a33.61,33.61,0,0,1-5.83-9.23,9.9,9.9,0,0,1-.59-2.23,6,6,0,0,1-.06-.81c0-2.49,6.78-7,6.78-7l20.16-5.38S290,70,290.49,74.86Z"/><path class="cls-9" d="M270.91,52.57c-1.63,1.66-2.72,4.3-4.17,6.15a28.28,28.28,0,0,1-5.57,5.52,23.48,23.48,0,0,1-5.77,2.9,9,9,0,0,0-.88.33l-1.69,1.86s4,7.07,5.47,9.9a7,7,0,0,0,2.57-.62c2.06-.94,4-2.24,6-3.37,1.37-.78,3.17-1.49,4.16-2.78s.87-2.87,1.48-4.32c.69-1.66,1.65-2.86,2-4.68C274.72,62,274.8,48.65,270.91,52.57Z"/><path class="cls-10" d="M275.29,41.51c-.57-6.43-1.72-16.84-4.66-22.6-1.52-3-4.62-3-7.45-4.86a13.07,13.07,0,0,0-1.72-.94c-2.67-1.25-5.56.08-8.51-.12-4.06-.29-8.27-.1-12,1.53-6.51,2.85-12.17,8.31-10.38,17.7.73,3.88,1.57,7.87,2.58,11.74.18.72.38,1.43.58,2.14,2.25,8.12,5.29,15.49,9.61,19.84,3.94,4,8.43,6.9,12.88,6.88C270.87,72.77,276.31,52.86,275.29,41.51Z"/><path class="cls-3" d="M273.71,51.13c-1.82.11-3.21,2-3.06,4.14a46.31,46.31,0,0,0,.74,6.1c.34,1.46,1,3.29,2.6,3.09s2.08-2.41,2.38-3.88A39.71,39.71,0,0,0,277,55c.11-2.2-1.45-4-3.32-3.88Z"/><path class="cls-3" d="M275.89,49.14a2,2,0,1,1-2-2.29A2.17,2.17,0,0,1,275.89,49.14Z"/><path class="cls-6" d="M256.05,43.79v-.1a1.48,1.48,0,0,1,.06-.85,1,1,0,0,1,1-.5,1.18,1.18,0,0,1,.72.27c1,.73,2.48,3.48,1.08,4.32S256.27,44.87,256.05,43.79Z"/><path class="cls-6" d="M238.8,48.55v0a.13.13,0,0,1,0-.06,1.37,1.37,0,0,1,.07-.84,1,1,0,0,1,1-.5,1.14,1.14,0,0,1,.72.27c1,.73,2.47,3.47,1.08,4.32S239,49.63,238.8,48.55Z"/><path class="cls-9" d="M254.74,58.24c-1.49.94-3.64,1.12-4.33-.94a13.71,13.71,0,0,1-.43-2.37c-.3-2.07-.59-4.13-.88-6.2-.11-.76-1.26-.44-1.15.32l.87,6.19a8.58,8.58,0,0,0,.92,3.49c1.32,2.07,3.77,1.69,5.6.55C256,58.87,255.39,57.83,254.74,58.24Z"/><path class="cls-9" d="M260.06,59.86c-2.66,1.81-4.58,2.24-7.73,2.87-1,.2-2.19.31-1,.83a7.78,7.78,0,0,0,6.78.24,6.77,6.77,0,0,0,3.8-4c.32-.72.09-1.39-.45-1.08C261.34,58.8,260.28,59.71,260.06,59.86Z"/><path class="cls-6" d="M262.1,37.89a1.64,1.64,0,0,0-.26-.17c-2.84-1.57-8.48-.48-9.62,2.9a.6.6,0,0,0,.72.75c1.46-.23,3.19-1,4.68-1.35,1.66-.4,3.42-.67,4.62-1.05C262.89,38.76,262.48,38.2,262.1,37.89Z"/><path class="cls-6" d="M241.63,44.26c-1.4.47-3.28.6-4.78,1-1.06.28-2.14.61-3.11.87-.2-.71-.4-1.42-.58-2.14,2.36-1.94,6.59-2.76,8.76-.7A.6.6,0,0,1,241.63,44.26Z"/><path class="cls-6" d="M277.4,39.41a.61.61,0,0,0-.25-.56l-.15-.34c-.53-3.73-2.21-7.29-2.84-11a42.26,42.26,0,0,0-3.7-12.14c-1.23-2.43-3-4.45-5.77-4.92-4.34-.72-9.35,0-13.66.58-6.46.88-15.92,2-20.34,7.42-2.54,3.13-2.17,6.75-1.86,10.53.38,4.61.9,9.64,2.41,14,.39,1.12,1.12-.17,1.29-.62a16.57,16.57,0,0,0,.6-3.65c.27-2.36.5-4.81,1.8-6.87a13.74,13.74,0,0,1,2.68-3,8.76,8.76,0,0,0,3,3.1c2.62,1.47,5.73,1.09,8.43,2.44,2.21,1.1,4,1.93,6.56,1.61a15.39,15.39,0,0,0,1.89-.37A40.4,40.4,0,0,0,260.83,38c.55.36,1.11.7,1.68,1a25.22,25.22,0,0,0,3,2.81c2.42,1.81,5.3,5,8.32,5.44,1.15.15,6.1,1.79,6.71.44S278.2,41.26,277.4,39.41Z"/><path class="cls-13" d="M5.8,300.19S22.33,436.7,22.64,439.92c.45,4.64,6.07,7.86,6.06-2.7,0-7.59-8.53-147.91-8.53-147.91Z"/><path class="cls-13" d="M260.43,311.37s3.94,136.79,4.19,140c.36,4.65,5.93,8,6.11-2.58.13-7.6,5.06-148.2,5.06-148.2Z"/><path class="cls-13" d="M305.37,220.91s1.32,150.79,1.57,154c.36,4.64,5.93,8,6.11-2.58.13-7.6,7.68-162.2,7.68-162.2Z"/><path class="cls-13" d="M78.12,220.73s6.66,150.66,6.55,153.89c-.15,4.66-5.56,8.23-6.22-2.3C78,364.74,62.29,210.67,62.29,210.67Z"/><polygon class="cls-12" points="0 260.07 5.8 300.19 275.41 313.96 320.73 210.68 320.73 171.76 0 260.07"/><path class="cls-12" d="M0,260.07,65.7,165a4.67,4.67,0,0,1,4.07-2.13l251,8.89L274.56,272.1Z"/><path class="cls-13" d="M275.79,275.94h0l-274-15.26a.6.6,0,0,1-.57-.63.62.62,0,0,1,.63-.57l273.6,15.24,43.34-100.07a.6.6,0,1,1,1.1.48l-43.5,100.45A.61.61,0,0,1,275.79,275.94Z"/><path class="cls-13" d="M274.56,312.86h0a.6.6,0,0,1-.58-.62l1.23-36.92a.6.6,0,0,1,.6-.58h0a.61.61,0,0,1,.58.62l-1.23,36.92A.6.6,0,0,1,274.56,312.86Z"/><path class="cls-11" d="M350.1,139.13s-12.21,3-19.14,3.89-13.71-2.39-19.16-2.39-5.32,2.09-6.43,0-2.55-14.07-2.73-22.15C302.55,114.56,304.7,103,307,92c2.08-10.21,4.25-19.84,4.74-22l.11-.47s.2,0,.56.17A17.31,17.31,0,0,1,316.89,72a27.45,27.45,0,0,1,9.23,12c5,11.7,13.9,28,16.81,36.77.22.66.41,1.28.55,1.85.35,1.31.74,2.63,1.19,3.92A92.78,92.78,0,0,0,350.1,139.13Z"/><path class="cls-10" d="M259.46,177.75l-4.16,8.68-7.17-1.3-4.94-.91c-14.11-2.64-36.19-7-41.68-9.16-8.24-3.3-18.58-10.23-17.09-16.67s12.89-31.52,12.89-31.52l23.48,11.29s-10,15.11-10.18,15.57c0,.36,24.12,12.08,38.46,19l4.3,2.08Z"/><path class="cls-12" d="M311.4,89.41a11,11,0,0,1-1.17-10.25A14.4,14.4,0,0,1,316.89,72a17.31,17.31,0,0,0-4.53-2.35,4,4,0,0,0-.67.3,11.37,11.37,0,0,0-3.31,2.35c-3.61,3.82-5.48,11.27-3.61,16.43A10,10,0,0,0,307,92a12.53,12.53,0,0,0,3.77,2.84c1.58.76,4.25,2.53,3.53-.09A20.35,20.35,0,0,0,311.4,89.41Z"/><path class="cls-12" d="M207.59,99.33c-1-1.24-1.74-2.72-2.76-3.94a50.4,50.4,0,0,0-3.3,4.44,10.48,10.48,0,0,1,2.9,5.14,14.57,14.57,0,0,1-1.55,10.13c-.69,1.26-2.66,2.91-2.42,4.48.11.66.42.86.82.85a5.16,5.16,0,0,0,2.16-1.2c2.91-2.37,5.88-5.92,6.43-9.75C210.37,106.06,209.82,102.11,207.59,99.33Z"/><path class="cls-12" d="M298,116.63c-1.54-.81-4.13-2.71-3.53-.06a20.64,20.64,0,0,0,2.63,5.48,11,11,0,0,1,.75,10.28,14.48,14.48,0,0,1-7.41,7.07c-1.3.59-3.89.69-4.65,2.08-.31.57-.2.94.14,1.17a5,5,0,0,0,2.43.37c3.75-.1,8.28-1.1,11.05-3.79,2.49-2.42,4.46-5.88,4.39-9.44-.05-2.27.59-4.64-.1-6.82A12.81,12.81,0,0,0,298,116.63Z"/><path class="cls-12" d="M343.48,122.67c-.14-.57-.33-1.19-.55-1.85a10.53,10.53,0,0,1-4.63,4,14.63,14.63,0,0,1-10.25.27c-1.36-.44-3.34-2.08-4.84-1.57-.62.22-.78.58-.68,1a5,5,0,0,0,1.55,1.9c2.86,2.45,6.89,4.73,10.74,4.59,3.48-.13,7.25-1.39,9.6-4.07a3.33,3.33,0,0,1,.25-.28C344.22,125.3,343.83,124,343.48,122.67Z"/><path class="cls-12" d="M264.09,154a20.58,20.58,0,0,0-6,.4,11,11,0,0,1-9.84-3.11,14.67,14.67,0,0,1-3.8-9.51c-.06-1.44.8-3.87-.21-5.09-.42-.51-.8-.54-1.13-.31a5.06,5.06,0,0,0-1.25,2.12c-1.31,3.53-2.06,8.1-.58,11.66,1.32,3.21,3.8,6.34,7.13,7.6,2.12.8,4.1,2.27,6.37,2.43a12.78,12.78,0,0,0,8-2.94C264.06,156.1,266.78,154.38,264.09,154Z"/><path class="cls-10" d="M289.76,188.09c-1-1.19-4.25-1.9-5.68-2.35-.91-.29-1.83-.54-2.75-.78h1.44c1.59,0,7.13,0,7.1-1.62s-3.46-1.8-4.75-2c-1.75-.3-9-1.6-10.53-2,1-.06,2-.14,2.94-.28,1.14-.16,2.87-.16,3.76-1,1.48-1.48,0-2.07-1.63-2.12a40.18,40.18,0,0,1-8.37-1.27,27,27,0,0,0-6.24-1.1c-4.09,0-7.43,2.41-10.52,4.82-.4.3-.18.75.18.92a23.61,23.61,0,0,0-2.46,5.77.61.61,0,0,0,.41.73l12.08,5c3.59,1.49,7.2,3.17,11.07,3.78,1.34.21,4.27,1,5.15-.5a1.61,1.61,0,0,0,.18-1.18,40.25,40.25,0,0,0,4.77.12c1.33,0,2.77-1.2,2.59-2.2C290,190.37,291,189.6,289.76,188.09Z"/><path class="cls-9" d="M280.24,184.29a26.71,26.71,0,0,1-4.93-.89.6.6,0,0,0-.32,1.15,27.51,27.51,0,0,0,5.25.93C281,185.55,281,184.35,280.24,184.29Z"/><path class="cls-9" d="M287.45,189.35c-4.3-.6-8.72-1-12.95-2-.75-.18-1.07,1-.32,1.15,4.23,1,8.65,1.37,12.95,2C287.89,190.61,288.21,189.46,287.45,189.35Z"/><path class="cls-9" d="M280,191.84a21.36,21.36,0,0,1-6.23-1.51c-.69-.34-1.3.69-.6,1a22.41,22.41,0,0,0,6.51,1.64C280.47,193.11,280.8,192,280,191.84Z"/><path class="cls-10" d="M285.23,119.52s49,16.77,54.76,21.41c6.23,5,7,18-1.15,19s-12.18-1.31-30.28-12.15c-18.53-11.08-30-18.27-30-18.27Z"/><path class="cls-3" d="M246.57,131l17.57.28c1.42-1.74,2.51-21.41,2.51-21.41.06-.34-.13-.65-.4-.65l-21.51-.12c-.27,0-.46.32-.4.65C244.34,109.72,245.48,129.55,246.57,131Z"/><path class="cls-3" d="M265,127.3a3.65,3.65,0,0,1-.88-.1c-1-.23-2.25-1.09-2.61-3.82a14.49,14.49,0,0,1,.31-4.91c1.11-4.69,3-7,5.37-6.41,2.9.69,5.51,3.71,4.39,8.72h0a8.94,8.94,0,0,1-3.76,5.65A5.27,5.27,0,0,1,265,127.3Zm1.57-13.14c-.88,0-2,2-2.64,4.81a12.2,12.2,0,0,0-.26,4.13c.14,1.14.5,1.88.95,2a2.83,2.83,0,0,0,2.05-.5,6.76,6.76,0,0,0,2.79-4.29c.86-3.84-.95-5.7-2.77-6.13Z"/><path class="cls-3" d="M266.65,109.63c0,1.92-5,3.45-11.18,3.42s-11.15-1.62-11.14-3.54,5-3.44,11.18-3.41S266.66,107.71,266.65,109.63Z"/><path class="cls-3" d="M264.26,130.83c0,1.42-4.13,2.94-8.87,2.91s-8.88-1.63-8.87-3.05,4.13-2.53,8.87-2.5S264.26,129.41,264.26,130.83Z"/><path class="cls-8" d="M265,109.87c0,1.47-4.28,2.64-9.55,2.61s-9.54-1.24-9.53-2.71,4.29-2.65,9.56-2.62S265,108.39,265,109.87Z"/><path class="cls-10" d="M288.76,121.81a18.88,18.88,0,0,1-3.23-5.58c-.13-.36-.24-.74-.34-1.11a13.56,13.56,0,0,0-2.33-3.52c-2.68-2.69-8.59-1.65-12-1.15a.82.82,0,0,1-.28,0c-.92.35-1.68.72-1.79,1.27-.26,1.21.15,1.39,1.42,2.21-1.57.89-.6.94-2.37,1.5a2.74,2.74,0,0,0-2.16,1.78,4.44,4.44,0,0,0,.47,4.71c1.33,1.31.77,2,1.66,3.63a10.43,10.43,0,0,0,1.24,2c2.41,2.78,7.69,4.46,11.16,3a13.87,13.87,0,0,0,7.28-8.47l.42.56C288.42,123.18,289.22,122.37,288.76,121.81Z"/><path class="cls-3" d="M286.42,83.39l-1.13,2c-.29.17-.59.34-.89.49a35.94,35.94,0,0,1-14.15,4.66c-4.75.41-8.51-1.36-12.2-4.17-1.92-1.45-3.85-2.95-5.62-4.58a9.9,9.9,0,0,1-.59-2.23,66.19,66.19,0,0,0,6.3,5.38c4.72,3.65,9,5.12,15,4A39.86,39.86,0,0,0,286.42,83.39Z"/><path class="cls-14" d="M255.54,32.8a105.39,105.39,0,0,1-12.36-8c-.61-.46-1.21.58-.6,1a105.77,105.77,0,0,0,12.36,8C255.61,34.2,256.22,33.17,255.54,32.8Z"/><path class="cls-14" d="M248,10.23c-3.16.81-4.49,2.8-5.57,5.7-1.4,3.75-4.92,5.13-4.71,9.53,0,.77,1.23.78,1.2,0-.18-3.53,2.39-4.72,3.92-7.36,1.67-2.88,1.51-5.7,5.47-6.72A.6.6,0,0,0,248,10.23Z"/><path class="cls-14" d="M274.22,42.64c-3.47-7.25-12.83-12.22-20-15-.72-.28-1,.88-.32,1.15,6.89,2.67,15.92,7.48,19.26,14.45C273.52,43.94,274.55,43.34,274.22,42.64Z"/><path class="cls-14" d="M279.85,40.14a16.83,16.83,0,0,1-.59,4.35,2.45,2.45,0,0,1-1.12,1.61,7,7,0,0,0-1.14.71c-.58.51.27,1.36.84.85s1.26-.58,1.74-1.11a3.51,3.51,0,0,0,.73-1.39,17.38,17.38,0,0,0,.74-5A.6.6,0,0,0,279.85,40.14Z"/><path class="cls-14" d="M295.93,59.05c-1.06-2.68-2.13-6-4.39-7.93a11.18,11.18,0,0,0-3.32-1.59,17.66,17.66,0,0,1-5.55-3.65c-.56-.53-1.4.31-.84.85a19,19,0,0,0,6.4,4.1,7.06,7.06,0,0,1,4.12,3.28,34.25,34.25,0,0,1,2.42,5.26C295.05,60.08,296.21,59.77,295.93,59.05Z"/><path class="cls-14" d="M295.08,65.64A50.49,50.49,0,0,0,291,55.34c-.36-.68-1.4-.08-1,.61a48.59,48.59,0,0,1,4,10A.6.6,0,0,0,295.08,65.64Z"/><path class="cls-14" d="M355.54,268.58c-.19-9.8.93-21.46-3.93-30.38-2.28-4.17-5.83-7.45-9.21-10.71l-13.2-12.71c-.55-.54-1.4.31-.85.85l12.37,11.92c3.58,3.44,7.45,6.84,9.85,11.26,2.7,4.94,3.23,10.66,3.45,16.18.21,5.31.28,10.63.37,15.94.42,23,.17,46.09-3.27,68.88-.11.76,1,1.08,1.16.32C355.85,316.45,356,292.47,355.54,268.58Z"/><path class="cls-15" d="M231.41,134.05a45.64,45.64,0,0,1-4.07-11.42c-.66-3.66-.83-7.46-2.37-10.91-1.44-3.2-3.73-6-5.47-9A81.53,81.53,0,0,1,214,90.89c-.27-.72-1.42-.41-1.15.31a81.79,81.79,0,0,0,4.86,10.7c1.91,3.5,4.54,6.69,6.15,10.32s1.71,7.81,2.52,11.73a49,49,0,0,0,4,10.71C230.7,135.35,231.73,134.75,231.41,134.05Z"/><path class="cls-15" d="M321.27,126.57c-1-2.83-.57-6.08-.55-9q0-4.11,0-8.23l.09-17.63a.6.6,0,0,0-1.2,0q0,9.41-.1,18.81c0,3.13,0,6.27,0,9.4,0,2.38-.18,4.72.6,7C320.36,127.61,321.52,127.3,321.27,126.57Z"/><path class="cls-16" d="M149.27,218.49c0,1.8,45.11,16.17,47.7,17s52.9,18.48,53.63,17.77c2-1.91,37.67-40.84,37.82-42S191,175.78,189.08,176,149.27,216.69,149.27,218.49Z"/><path class="cls-3" d="M152.49,217.48s13.47,1.13,24.69,6.22c11.79,5.34,17.82,10,17.82,10s20.65.9,29.93,5.09,21.41,11.38,22.75,11.23,37.53-38.63,37.94-41a210.18,210.18,0,0,0-24.23-12.77c-8.77-3.59-23.61-3.81-23.61-3.81s-16.59-11.31-26.92-13.4-17.55-3.53-19-2.37S152.49,217.48,152.49,217.48Z"/><path class="cls-2" d="M195.7,232.93a.62.62,0,0,1-.44-.18.61.61,0,0,1,0-.85l41.11-39.33a.6.6,0,0,1,.83.87l-41.11,39.33A.61.61,0,0,1,195.7,232.93Z"/><path class="cls-2" d="M246.39,246a.59.59,0,0,1-.34-.1,135.71,135.71,0,0,0-22.45-12c-7-3-19.87-2.54-20-2.53a.62.62,0,0,1-.62-.58.6.6,0,0,1,.58-.62c.54,0,13.28-.43,20.51,2.62a136.58,136.58,0,0,1,22.66,12.16.59.59,0,0,1,.15.83A.58.58,0,0,1,246.39,246Z"/><path class="cls-2" d="M251.73,240.9a.67.67,0,0,1-.33-.1c-.13-.09-13.3-8.78-22.6-12.11a57.84,57.84,0,0,0-19.15-3,.65.65,0,0,1-.63-.58.6.6,0,0,1,.58-.62,59.42,59.42,0,0,1,19.61,3c9.43,3.37,22.72,12.14,22.85,12.23a.59.59,0,0,1,.17.83A.6.6,0,0,1,251.73,240.9Z"/><path class="cls-2" d="M256.15,235.88a.58.58,0,0,1-.33-.1c-.13-.09-13.3-8.77-22.6-12.1a58.07,58.07,0,0,0-19.16-3,.62.62,0,0,1-.62-.57.61.61,0,0,1,.58-.63,60,60,0,0,1,19.6,3c9.44,3.38,22.73,12.14,22.86,12.23a.6.6,0,0,1,.17.83A.62.62,0,0,1,256.15,235.88Z"/><path class="cls-2" d="M275,217.11a.64.64,0,0,1-.33-.1c-.14-.09-13.3-8.78-22.61-12.11a57.87,57.87,0,0,0-19.15-3,.62.62,0,0,1-.62-.58.59.59,0,0,1,.57-.62,59.39,59.39,0,0,1,19.61,3c9.44,3.37,22.72,12.14,22.86,12.23a.61.61,0,0,1,.17.83A.62.62,0,0,1,275,217.11Z"/><path class="cls-2" d="M279.41,212.09a.58.58,0,0,1-.33-.1c-.13-.09-13.3-8.77-22.6-12.1a58.1,58.1,0,0,0-19.16-3,.59.59,0,0,1-.62-.57.6.6,0,0,1,.58-.62,59.49,59.49,0,0,1,19.6,3c9.44,3.38,22.73,12.14,22.86,12.23a.6.6,0,0,1,.17.83A.57.57,0,0,1,279.41,212.09Z"/><path class="cls-2" d="M195.7,228.74a.59.59,0,0,1-.34-.1,107.15,107.15,0,0,0-19.23-10.14,64.43,64.43,0,0,0-18.67-3.77.59.59,0,0,1-.58-.61.61.61,0,0,1,.61-.59,65.52,65.52,0,0,1,19.06,3.85A107.1,107.1,0,0,1,196,227.65a.6.6,0,0,1-.33,1.09Z"/><path class="cls-2" d="M201.15,224.12a.59.59,0,0,1-.33-.11c-.1-.06-9.74-6.59-19.23-10.14a64.38,64.38,0,0,0-18.67-3.77.59.59,0,0,1-.58-.61.61.61,0,0,1,.61-.59A65.92,65.92,0,0,1,182,212.75c9.63,3.6,19.38,10.21,19.48,10.27a.6.6,0,0,1,.16.83A.61.61,0,0,1,201.15,224.12Z"/><path class="cls-2" d="M206.61,219.49a.59.59,0,0,1-.33-.11c-.1-.06-9.74-6.59-19.23-10.13a64.25,64.25,0,0,0-18.67-3.78.59.59,0,0,1-.58-.61.6.6,0,0,1,.61-.59,66.22,66.22,0,0,1,19.05,3.85c9.64,3.6,19.39,10.21,19.49,10.27a.61.61,0,0,1,.16.83A.58.58,0,0,1,206.61,219.49Z"/><path class="cls-2" d="M231.91,194a.6.6,0,0,1-.34-.11c-.1-.06-9.74-6.59-19.23-10.13A64.2,64.2,0,0,0,193.67,180a.59.59,0,0,1-.58-.61.61.61,0,0,1,.61-.59,66.32,66.32,0,0,1,19.06,3.85,108.5,108.5,0,0,1,19.48,10.27.6.6,0,0,1-.33,1.1Z"/><path class="cls-2" d="M210.29,215.2a.63.63,0,0,1-.43-.17c-.08-.08-8.09-8-19-10a.6.6,0,1,1,.22-1.18c11.33,2.13,19.34,10,19.67,10.37a.61.61,0,0,1,0,.85A.63.63,0,0,1,210.29,215.2Z"/><path class="cls-2" d="M214.7,210.57a.59.59,0,0,1-.43-.17c-.08-.08-8.09-8-19-10a.6.6,0,0,1-.48-.7.61.61,0,0,1,.7-.48c11.33,2.13,19.33,10,19.67,10.37a.61.61,0,0,1,0,.85A.58.58,0,0,1,214.7,210.57Z"/><ellipse class="cls-3" cx="93.1" cy="233.1" rx="44.31" ry="21.04"/><path class="cls-2" d="M92.71,248.16c-19.39,0-37.06-7.8-37.06-16.37,0-8.19,16.28-14.6,37.06-14.6s37.07,6.41,37.07,14.6C129.78,240.36,112.11,248.16,92.71,248.16Zm0-29.77c-19.44,0-35.86,6.14-35.86,13.4,0,7,15.66,15.17,35.86,15.17s35.87-8.15,35.87-15.17C128.58,224.53,112.15,218.39,92.71,218.39Z"/><path class="cls-1" d="M122.53,227.08c-1.21-4.83-6.71-4.7-10.7-4-3.7.15-8.93.73-8.74,4.7a4.71,4.71,0,0,0,3,3.77c2.25,1,4.12.47,6.37-.11C115.25,230.72,124,232.76,122.53,227.08Z"/><path class="cls-1" d="M91.31,218c-5.9-2.18-10.77-1.75-15.75,1.18a4.2,4.2,0,0,0-3,2.41,3,3,0,0,0,1.22,3.73c2.15,1.48,5.62,1,8.07,1,3.24,0,7,.35,10.06-.78,1.67-.61,3.31-2,3.23-3.95C95.06,219.43,93,218.59,91.31,218Z"/><path class="cls-1" d="M87.85,234.45a.31.31,0,0,0-.14-.07A14.54,14.54,0,0,0,85,234a2.7,2.7,0,0,0,0-2.4c-.79-2-3.8-3-5.61-3.6-3.83-1.28-18.68-4.37-18.58,3.27,0,2.13,2,3.39,3.82,4a41.55,41.55,0,0,0,9.67,1.57c.29,0,.69,0,1.16,0a8.37,8.37,0,0,0-1.65,1.81c-3.28,4.86,5.2,6.26,8.17,6.5,3.75.3,11.78.84,13.54-3.68C97.52,236.43,91.72,234.72,87.85,234.45Z"/><path class="cls-17" d="M109,224.46a1.5,1.5,0,0,0-1.86.23c-.4.42-.75,1.16-.14,1.55a1.53,1.53,0,0,0,1.78-.25C109.19,225.62,109.49,224.9,109,224.46Z"/><path class="cls-17" d="M118.22,228c-.58-.62-1.66-.13-2.27.16a.53.53,0,0,0-.09.91c.29.58,1.2.53,1.73.36S118.76,228.61,118.22,228Z"/><path class="cls-17" d="M78.29,220.64c0-.54-.8-1-1.3-1.07-.69-.15-1.79.14-1.41,1.1s1.59,1,2.36.79A.55.55,0,0,0,78.29,220.64Z"/><path class="cls-17" d="M83.65,217.57l-.07,0c-.53-.26-1.65-.47-2.08.05a.93.93,0,0,0,.6,1.41,2.39,2.39,0,0,0,1.86-.12C84.48,218.42,84.13,217.84,83.65,217.57Z"/><path class="cls-17" d="M92,223a2.58,2.58,0,0,0-2.58-.1.51.51,0,0,0-.3.35l0,0a.9.9,0,0,0,0,1c.48.68,1.78.6,2.49.38S92.74,223.55,92,223Z"/><path class="cls-17" d="M80,232.16a2.17,2.17,0,0,0-2.37,0,.87.87,0,0,0-.17,1,.85.85,0,0,0,.1.14.51.51,0,0,0,.18.3,2.33,2.33,0,0,0,2.38.51C80.92,233.68,80.64,232.59,80,232.16Z"/><path class="cls-17" d="M73.15,232.84a2.87,2.87,0,0,0-2.08,0,.94.94,0,0,0-.4,1.27.54.54,0,0,0,.42.53c.65.18,2.06.56,2.54-.11A1.21,1.21,0,0,0,73.15,232.84Z"/><path class="cls-17" d="M67.6,226.76c-.36-.45-1-.43-1.57-.41a1.69,1.69,0,0,0-1.57.68c-.39.65.6,1.1,1.09,1.2a3.51,3.51,0,0,0,1.25.09C67.51,228.2,68.15,227.45,67.6,226.76Z"/><path class="cls-17" d="M80.85,237.89c-.12-.6-.82-.68-1.32-.69-.73,0-2.08.43-1.89,1.42s1.36.8,2,.76A1.27,1.27,0,0,0,80.85,237.89Z"/><path class="cls-17" d="M90.62,241.48c-.53-.87-2.27-.84-3-.31a1,1,0,0,0-.34,1.37c.31.53.87.51,1.4.53a1.72,1.72,0,0,0,1.59-.21A1.11,1.11,0,0,0,90.62,241.48Z"/><path class="cls-17" d="M93.25,238.6c-.5-.64-1.65-.42-2.34-.41a.56.56,0,0,0-.57.57.77.77,0,0,0-.09.89c.33.71,1.59.67,2.22.55A1,1,0,0,0,93.25,238.6Z"/><path class="cls-7" d="M153,186.31a1.87,1.87,0,0,1-1.15,2.06l-34.94,14.48a1.86,1.86,0,0,1-2.1-.47L104.6,191.52a1.9,1.9,0,0,1,.67-3.05L138.6,175a1.89,1.89,0,0,1,1.92.31l11.79,9.9A1.89,1.89,0,0,1,153,186.31Z"/><path class="cls-6" d="M153,186.31a1.87,1.87,0,0,1-1.15,2.06l-34.94,14.48a1.86,1.86,0,0,1-2.1-.47L104.6,191.52a1.88,1.88,0,0,1-.29-2.18c2.13,2.22,11.65,12,11.65,12Z"/><polygon class="cls-6" points="106.31 189.16 116.38 199.68 148.75 186.58 136.88 176.81 106.31 189.16"/><path class="cls-6" d="M144.28,179.22c.7.71.9,1.65.44,2.1s-1.4.26-2.1-.44-.9-1.64-.44-2.1S143.58,178.52,144.28,179.22Z"/><path class="cls-6" d="M253.37,174.82q-2.56,5.16-5.24,10.31l-4.94-.91q3-5.72,5.88-11.48Z"/><path class="cls-3" d="M249.66,175.38a4.28,4.28,0,1,1-5.77,2.55A4.47,4.47,0,0,1,249.66,175.38Z"/><g class="cls-18"><path class="cls-3" d="M264.55,84.29c-4-1.25-5.61,5-6.24,7.6-.38,1.53-.44,3-1.51,4.22a8.69,8.69,0,0,0-1.89,2.26c-.85,2-.09,4.91.07,7,.06.8,1,.69,1.22.06s.15-1.52.41-2.26a6.79,6.79,0,0,1,1.09-1.88c.93-1.17,2.09-2.11,3-3.27a10,10,0,0,0,1-2.32,10.41,10.41,0,0,1,2.88-3.09C266.73,90.79,268.19,85.42,264.55,84.29Z"/></g></g></g></svg>