<svg xmlns="http://www.w3.org/2000/svg" viewBox="0 0 715.37 360.8"><defs><style>.cls-1{fill:#e5be5b;}.cls-2{fill:#a54a47;}.cls-3{fill:#fff;}.cls-4{fill:#deb789;}.cls-5{fill:#122244;}.cls-6{fill:#2c89aa;}.cls-7{fill:#db474d;}.cls-8{fill:#f08555;}</style></defs><title>Asset 1</title><g id="Layer_2" data-name="Layer 2"><g id="Layer_1-2" data-name="Layer 1"><path class="cls-1" d="M242,135.93a12.48,12.48,0,0,1-4.48,4.17,42.87,42.87,0,0,1,1.32,13.26c0,.29,0,.58,0,.86a1.46,1.46,0,0,1,.29,0c4.71-1.65,10.55-4.11,12.2-6.27,2.51-3.27-10-2.36-10-2.36s9.51-3.75,9.64-12.45c.09-5.69-10.07-8.81-17.14-10.29-1.22-.07-2.14-.17-2.36-.2C232.51,122.77,248.6,125,242,135.93Z"/><path class="cls-1" d="M231.44,122.63h0Z"/><path class="cls-2" d="M191.32,214.73a11.06,11.06,0,0,1,.47,3.79,78,78,0,0,1,8.24,6,31.69,31.69,0,0,1,4,4.12c1.62-8.08,13.38-21.79,13.38-21.79s17.3,3.66,19.21-1.73a52.31,52.31,0,0,0,2.18-8.77c-11.83-6.48-8.27-15.85-3.82-12.68a17.94,17.94,0,0,0,4.89,2.61c.24-4.27.14-7.26.14-7.26s10.56-3.37,6.59-8.11a64,64,0,0,1-5.09-6.32c-.13.73-.25,1.45-.35,2.16-.25,2-.7,4.44-2.89,5.18-1.86.63-3.27-.61-3.58-2.41a26.15,26.15,0,0,1,.41-7.59,18.4,18.4,0,0,1,1.37-5.66c-1.87.05-3.74.08-5.61.11-.26.15-.53.33-.88.5-1.25.63-2,.2-2.26-.46q-11.94.12-23.88-.27c.47,6.8.48,13.12-1.1,13.24-2.52.19-4.35-5.5-5.15-8.53a11,11,0,0,0-2.91-5.07l-.4,0a.46.46,0,0,1-.37-.67,8.8,8.8,0,0,0-.9-.6c-2.34,4.47-4.89,8.84-6.76,10.71,1.41,2.93,3.56,5.74,3.07,9-.94,6.25-10.5,11.43-10.5,11.43-.3-.81-.59-1.68-.88-2.57,1.1,5.89,1.69,11.29.31,15.65-.64,2-2.6,4.94-5.49,8.44C182.29,207.38,189.65,209.51,191.32,214.73Zm40.06-53.59a1.61,1.61,0,1,1,.9,2.09A1.61,1.61,0,0,1,231.38,161.14Z"/><path class="cls-2" d="M239,195.05l-.21,1.31Z"/><path class="cls-2" d="M239.37,192.39c-.1.85-.22,1.72-.35,2.6C239.15,194.11,239.27,193.24,239.37,192.39Z"/><path class="cls-2" d="M227.89,155.55c.86-1.15,4-2.41,7-1.54.82.24,1.29.69,1.25,1.4l.9,0a4.46,4.46,0,0,1,.64-.66,2.26,2.26,0,0,1,1.11-.51c0-.28,0-.57,0-.86a42.87,42.87,0,0,0-1.32-13.26c-9.23,5.45-27.12,5.27-34.92,3.23.37,3,.87,7.54,1.2,11.95Q215.84,155.67,227.89,155.55Z"/><path class="cls-2" d="M207.2,320l-.95,9.38a66.32,66.32,0,0,1,11.57-6.61c10.62-4.81,20.76-3.82,29.57-7.43-3.46-5-7.14-10.62-10.84-16.67C226.1,306.28,204.75,319.12,207.2,320Z"/><path class="cls-2" d="M237.59,156.16a8.18,8.18,0,0,0-.62,1.45,30.62,30.62,0,0,0-1.36,7.84c-.06.85-.12,1.71-.12,2.56a7.25,7.25,0,0,0,.1,1.54,2,2,0,0,0,2.75,1.41c1.5-.76,1.77-2.71,1.95-4.2.15-1.09.36-2.2.56-3.3a17.19,17.19,0,0,1-2.07-8.35h0a1.87,1.87,0,0,0-1,.84A.46.46,0,0,1,237.59,156.16Z"/><path class="cls-2" d="M239.88,186.31l-.06,1.09Z"/><path class="cls-2" d="M239.82,187.42l-.09,1.16Z"/><path class="cls-2" d="M239.73,188.61c0,.38-.06.78-.1,1.18C239.67,189.39,239.7,189,239.73,188.61Z"/><path class="cls-2" d="M239.63,189.83c-.07.81-.16,1.65-.26,2.51C239.47,191.48,239.56,190.64,239.63,189.83Z"/><path class="cls-3" d="M238.81,196.36h0l.21-1.31V195c.13-.88.25-1.75.35-2.6v0c.1-.86.19-1.7.26-2.51v0c0-.4.07-.8.1-1.18v0l.09-1.16v0l.06-1.09v0h0a17.94,17.94,0,0,1-4.89-2.61C230.54,180.51,227,189.88,238.81,196.36Z"/><path class="cls-4" d="M200,224.53a78,78,0,0,0-8.24-6,17.94,17.94,0,0,1-7.09,13c3.73,2.29,8.16,6.91,5.68,15.35,10.22.07,19.42,0,25.49-.36-4.14-7.18-8.14-13.5-11.83-17.91A31.69,31.69,0,0,0,200,224.53Z"/><path class="cls-4" d="M236.55,298.67c3.61-2.63,5.93-4.63,5.5-5.3-3.93-6.24-8.06-13.68-12.23-21.36-5.91,2.05-19.28,3.82-34.74,5.28h0c-2.14.21-4.32.4-6.53.59h-.08c-3.59.31-7.24.6-10.9.88.09.88.19,1.86.28,2.91v0c0,.34.06.68.09,1v.05c0,.35.05.71.08,1.08v0c0,.37.06.74.08,1.12h0c.48,7.38.46,16.39-2.13,19.39S165.89,308,157,305.89c-1.93,5.92-4,14.4-2.8,20.77,19.57,2,36.36,16.7,36.75,21.09h0a45,45,0,0,1,15.27-18.37l.95-9.38C204.75,319.12,226.1,306.28,236.55,298.67Z"/><path class="cls-5" d="M194.29,154.9c3.17.16,6.33.28,9.49.38-.33-4.41-.83-8.91-1.2-11.95a8.11,8.11,0,0,1-3.43-1.53s-2.86,6.45-6.13,12.71a8.8,8.8,0,0,1,.9.6A.37.37,0,0,1,194.29,154.9Z"/><path class="cls-5" d="M189.33,174.24c.49-3.28-1.66-6.09-3.07-9a2.57,2.57,0,0,1-1.62.95c-3.65-.13-5.81-10.39-5.81-10.39s-2.25,3.67-5.48,5c.55,4,2.14,14.44,4.6,22.28.29.89.58,1.76.88,2.57C178.83,185.67,188.39,180.49,189.33,174.24Z"/><path class="cls-5" d="M197.6,160.87c.8,3,2.63,8.72,5.15,8.53,1.58-.12,1.57-6.44,1.1-13.24-3-.1-6.11-.22-9.16-.36A11,11,0,0,1,197.6,160.87Z"/><path class="cls-1" d="M178.83,155.78S181,166,184.64,166.17a2.57,2.57,0,0,0,1.62-.95c1.87-1.87,4.42-6.24,6.76-10.71,3.27-6.26,6.13-12.71,6.13-12.71a8.11,8.11,0,0,0,3.43,1.53c7.8,2,25.69,2.22,34.92-3.23a12.48,12.48,0,0,0,4.48-4.17c6.62-11-9.47-13.16-10.54-13.3h0c.22,0,1.14.13,2.36.2,2.7.14,6.84.07,8.08-1.51,1.88-2.4-8.19-11-30.89-7.7,0,0,8-5.55.71-7.11S185.94,117.17,181.06,130c0,0-25.45,11.45-17.35,25.61,3.4,5.94,6.88,6.44,9.64,5.26C176.58,159.45,178.83,155.78,178.83,155.78Z"/><path class="cls-5" d="M232.28,163.23a1.61,1.61,0,1,0-.9-2.09A1.6,1.6,0,0,0,232.28,163.23Z"/><path class="cls-5" d="M230,156.89c.35-.17.62-.35.88-.5l-3.14,0C228,157.09,228.74,157.52,230,156.89Z"/><path class="cls-5" d="M234.88,154c-3-.87-6.13.39-7,1.54q4.11,0,8.24-.14C236.17,154.7,235.7,154.25,234.88,154Z"/><path class="cls-5" d="M238.78,154.22a2.26,2.26,0,0,0-1.11.51,4.46,4.46,0,0,0-.64.66h.29a.42.42,0,0,1,.4.57,1.87,1.87,0,0,1,1-.84h0c1.57-.36,2.27,1.81,2.41,3a18.46,18.46,0,0,1-.34,5.39c-.2,1.1-.41,2.21-.56,3.3-.18,1.49-.45,3.44-1.95,4.2a2,2,0,0,1-2.75-1.41,7.25,7.25,0,0,1-.1-1.54c0-.85.06-1.71.12-2.56a30.62,30.62,0,0,1,1.36-7.84,8.18,8.18,0,0,1,.62-1.45.41.41,0,0,1-.27.1l-.84,0a18.4,18.4,0,0,0-1.37,5.66,26.15,26.15,0,0,0-.41,7.59c.31,1.8,1.72,3,3.58,2.41,2.19-.74,2.64-3.17,2.89-5.18.1-.71.22-1.43.35-2.16.46-2.49,1-5.06.38-7.52-.32-1.36-1.49-2.85-2.83-2.88A1.46,1.46,0,0,0,238.78,154.22Z"/><path class="cls-5" d="M237.59,156.16a.46.46,0,0,0,.13-.21.42.42,0,0,0-.4-.57H237l-.9,0q-4.12.09-8.24.14-12.06.12-24.11-.27c-3.16-.1-6.32-.22-9.49-.38a.37.37,0,0,0-.37.21.46.46,0,0,0,.37.67l.4,0c3.05.14,6.11.26,9.16.36q11.93.39,23.88.27l3.14,0c1.87,0,3.74-.06,5.61-.11l.84,0A.41.41,0,0,0,237.59,156.16Z"/><path class="cls-6" d="M133.27,213.62a148.46,148.46,0,0,1,18.62-4.52c-1.14-2.52-2.4-5-3.74-7.49a37,37,0,0,1-13.73,4.62A38.51,38.51,0,0,1,133.27,213.62Z"/><path class="cls-6" d="M102,234.68a21.49,21.49,0,0,0-.94,15.57l10.31-.33,0-.19c-1.74-9.69,5.34-12.89,5.34-12.89s-3.36-3.71-1.66-11.6c-9,1.3-9.49,1.77-9.49,1.77Z"/><path class="cls-7" d="M158.05,39c-.87-.23-1.74-.44-2.6-.65,0,1.53,0,3.13-.2,4.79a40.75,40.75,0,0,1-.94,5.26c15.21,1.79,42.06,3.75,41.85-4.78-.17-6.87-22.61-11.46-37.64-13.71A34.92,34.92,0,0,1,158.05,39Z"/><path class="cls-8" d="M153.43,80.25c.85-4,1.25-6.92,1.25-6.92s-.45,2.91-1.28,6.9Z"/><path class="cls-8" d="M114.4,93c-2.74-9.12-.85-29.24-.39-35.1.12-1.59,0-8.3,1.86-9.26s4.71-.91,4.82,2.11-1.87,24.75,7.21,26.31,17.21-7.17,26.78-3.74a16.33,16.33,0,0,0,3.42-2.11c4-3-2-7.27-4.64-14.69-.61-1.74.14-4.92.85-8.14a40.75,40.75,0,0,0,.94-5.26c.15-1.66.21-3.26.2-4.79-39-9.46-58.76.07-63,2.57-3.89,15.48,2,31.48.18,37.48-.19.61-.45,1.32-.79,2.13a22.6,22.6,0,0,1,10.45,3.11A50.08,50.08,0,0,1,114.4,93Zm34.51-35.26a1.59,1.59,0,1,1-3-1,1.59,1.59,0,0,1,3,1Zm-6-6.5c.11-1.21,3.78-2.41,6.46-.71a1.29,1.29,0,0,1,.64,1.66,1.24,1.24,0,0,1-1.79.27c-1.91-1.15-2.28-.52-3.57-.13S142.89,52,143,51.25Z"/><path class="cls-8" d="M124.21,104.31l1.15-2.75s.76.14,2,.28a38.89,38.89,0,0,1-7.75-2.94C121.35,101,122.84,102.83,124.21,104.31Z"/><path class="cls-5" d="M127.9,77.07c-9.08-1.56-7.09-23.29-7.21-26.31s-3-3.08-4.82-2.11-1.74,7.67-1.86,9.26c-.46,5.86-2.35,26,.39,35.1,2,2,3.69,4,5.24,5.89a38.89,38.89,0,0,0,7.75,2.94c6.24,1.71,13.16,2.35,16.77,1.18,2.77-.89,5.16-6.89,7-13.26a3.68,3.68,0,0,1-1.09-.21c-4.95-1.78-8.93-10.36-4.3-12.06,3.54-1.3,4.78.78,7.67,2.74.83-4,1.28-6.9,1.28-6.9C145.11,69.9,137,78.63,127.9,77.07Z"/><path class="cls-4" d="M124.5,116.59A41.4,41.4,0,0,1,137,114.87c-2.76-3.94-6.51-6.76-8.55-7.38a10.56,10.56,0,0,1-4.21-3.18c-1.37-1.48-2.86-3.35-4.57-5.41C118.09,97,116.37,95,114.4,93a50.08,50.08,0,0,0-12.15-9.38A22.6,22.6,0,0,0,91.8,80.52c-7.19-.08-10.84,5-12.68,6.83C92,91.35,114.24,108.38,124.5,116.59Z"/><path class="cls-6" d="M35.13,272.7h0A97.52,97.52,0,0,1,42.3,261.2h0c.29-.4.58-.79.88-1.17h0A47.36,47.36,0,0,1,51,251.84c4.92-4.75,13.93-12.24,18.7-18.12a40.64,40.64,0,0,1-38-8.89c-.2,8.9-.37,18.44-.61,28.75a225.44,225.44,0,0,0,.63,25.85c1.1-2.32,2.23-4.57,3.4-6.73Z"/><path class="cls-6" d="M48.57,158.81c.91-1.49,4.47-27.15,11.16-43,8-18.95,22.48-16.66,31.39-10.88s15.51,18.29,23.88,15a90.91,90.91,0,0,1,9.5-3.33C114.24,108.38,92,91.35,79.12,87.35c-4-1.25-7.1-1.23-8.63.73-21.59,27.84-30.8,50.42-35,78.46,5.15-3.45,10.2-5.81,13.09-7.73Z"/><path class="cls-7" d="M155.45,38.34c.86.21,1.73.42,2.6.65a34.92,34.92,0,0,0,.47-9.09c-.43-5.73-2.39-12.92-8.81-17.72-11.42-8.53-32-9.19-46.06,1.24C87.17,25.61,91.5,41.48,91.5,41.48a10.74,10.74,0,0,1,.91-.57C96.69,38.41,116.45,28.88,155.45,38.34Z"/><path class="cls-3" d="M145.73,77.49c-4.63,1.7-.65,10.28,4.3,12.06a3.68,3.68,0,0,0,1.09.21c4.11.16,5.55-7.85,5.55-7.85a14.38,14.38,0,0,1-3.24-1.66l0,0C150.51,78.27,149.27,76.19,145.73,77.49Z"/><path class="cls-5" d="M147.88,55.75a1.59,1.59,0,0,0-1,3,1.6,1.6,0,0,0,2-1A1.59,1.59,0,0,0,147.88,55.75Z"/><path class="cls-5" d="M144.69,52.34c1.29-.39,1.66-1,3.57.13a1.24,1.24,0,0,0,1.79-.27,1.29,1.29,0,0,0-.64-1.66c-2.68-1.7-6.35-.5-6.46.71C142.89,52,143.4,52.73,144.69,52.34Z"/><path class="cls-7" d="M530.65,11.14c1,.71,1.88,1.46,2.75,2.24,7.88,7,12.22,16.68,12.48,25a51.14,51.14,0,0,1-1.48,13.45c2.81,1.16,5.82,2.38,8,5.67,4.52,6.7-.75,15-2.32,24.26,7.73.18,11.2,9.3,13.27,3.47,2.43-6.85,10.12-12.13,19.91-8.43a19.79,19.79,0,0,1,11,11.94,8,8,0,0,1-.68,6.5c.22-.22.43-.44.63-.67,10.36-11.83,13.29-46.37-19-54.69-11.72-3-4.76-23.87-17.46-34.63-14.1-12-27.22.11-31.56,2.43q1,.59,1.86,1.26A24.27,24.27,0,0,1,530.65,11.14Z"/><path class="cls-8" d="M523.23,95c5.22-5,9.86.72,11.94-.5s5.07-9.84,10.52-12a12.68,12.68,0,0,1,1.51-.5c-4.74-6-7.54-11.88-9-14.3a18.71,18.71,0,0,1-3.09.86.4.4,0,0,1-.08.42q-7.8,6.79-15.83,13.3a.42.42,0,0,1-.63-.08c-2.35-3.23-4.59-6.54-6.93-9.77a24.74,24.74,0,0,1-2.6-4c-.44-.94-.92-1.75-.34-2.68l.06-.07h0c3.89-4.32,9-7.76,13.52-11.33.53-.41,1.24-1.46,1.94-1.38,1.14.14,2.32,2.51,2.92,3.33a.76.76,0,0,1,.08.11c2.42-6,.56-15-5.9-15.85-8.32-1-7.65,8.71-12.24,9.37a2.66,2.66,0,0,1-2.25-1.18,14.45,14.45,0,0,1-2.05-3.44c-.91-1.87-1.22-4.77-1.84-7.2-7.31,3.78-9.6,1.42-10.28-.89-2.12,1.67-4.36,3.12-7.06,2.07-1.39-.74-1-2.49-.25-3.52a16.48,16.48,0,0,1-6.73,4.27,15,15,0,0,1-2.5.5c-.77.1-2.52.36-4.28.48a62.83,62.83,0,0,0,1.86,10.62c1.7,6.35-5.08,15-1.59,17.29a41.37,41.37,0,0,0,5.1,2.85s.83,1.74,2.12,4.25a14.66,14.66,0,0,0,4.42-2.39c3.16-2.38,6-.18,5.22,3.41-.43,2.08-2.73,5.11-5,7.35,2.75,4.57,5.8,8.77,8,9.41,4,1.17,21.14-8.2,21.14-8.2L521.56,97A15,15,0,0,1,523.23,95ZM481.18,57.36a1.76,1.76,0,1,1,1.31-2.12A1.76,1.76,0,0,1,481.18,57.36Zm1.51-8.55c-1.39-.54-1.74-1.26-3.95-.16a1.38,1.38,0,0,1-1.95-.46,1.43,1.43,0,0,1,.85-1.77c3.1-1.64,7.05,0,7.06,1.35C484.7,48.61,484.08,49.36,482.69,48.81Z"/><path class="cls-8" d="M533.76,128.6a78.1,78.1,0,0,1-.92-8.88,3.73,3.73,0,0,1-1.1-.06,23.26,23.26,0,0,1-9.13-4.37c-3.25,1.71-7.1,3.87-11.13,6.41,3.41,3.77,4.42,8.53,4.73,13.3A71.78,71.78,0,0,0,533.76,128.6Z"/><path class="cls-8" d="M529.12,66.47a8.32,8.32,0,0,1-2.19-9.14l-1.3-1.79c-.2-.28-.93-1.5-1.42-1.48s-.62.37-.92.61c-.53.44-1.08.85-1.62,1.27q-2.1,1.64-4.17,3.29a68.42,68.42,0,0,0-8.08,7c-.77,1.31,1.31,3.21,1.95,4.14s1.36,2.08,2.1,3.11c1.89,2.63,3.66,5.34,5.57,8q3.56-2.9,7.07-5.83a83.22,83.22,0,0,0,7.35-6.27,3.09,3.09,0,0,0,.57-.65C532.33,68.76,530.94,68.1,529.12,66.47Z"/><path class="cls-1" d="M596.39,149.42c.52,8.06,13.55,40.79,13.55,40.79a24.58,24.58,0,0,1,14.12-1.86c-2.8-48.53-22.46-70.62-31.5-78.3C599.65,138.19,596.39,149.42,596.39,149.42Z"/><path class="cls-1" d="M560.26,219c.86-9.16,8.15-13.94,15.79-18.33h0l.27,1.35c-.75-6.48-2.74-15.54-6.63-20l-.1,0c-5.43,4.72-13.47,5-17.56,5.26-6.06.31-7.45-2.89-8.25-5.77a37.39,37.39,0,0,1-3.06-7h0c-.15-.43-.29-.87-.43-1.32v0c-.14-.43-.27-.87-.4-1.31v0c-.13-.44-.25-.87-.37-1.3v0c-.12-.43-.23-.86-.34-1.28v-.05l-.3-1.24v0c-.1-.41-.19-.82-.28-1.21v-.05c-.09-.4-.17-.8-.25-1.18v0c-.08-.39-.15-.77-.23-1.14h0c-.36-1.86-.62-3.46-.79-4.58a4.5,4.5,0,0,1-.65-.29c-.8-.46-.49-1.17-.13-1.65a25,25,0,0,1-4.62-3.34c-4.22-3.57-.65-5.61,2.66-9.71,1.67-2.07.28-9-.79-16.17a71.78,71.78,0,0,1-17.55,6.4c.5,7.79-.87,15.62,3.21,19.28C544.34,176.57,535,194.93,535,194.93l-38.74,5.23c.69,4.92,2.2,9.44,3.09,13.4a6.87,6.87,0,0,0,1,2.4c21-1.91,39.21,1.18,46.27,14.74.2.37.37.74.54,1.1C554.12,224.48,560.26,219,560.26,219Z"/><path class="cls-6" d="M474.94,112.64c2.87-2.66,6.19-4.72,10.22-5a12,12,0,0,1,7.44,2.3,29.22,29.22,0,0,1,4.44,1.38c-.83-.69-1.68-1.36-2.54-2-2.74-2-5.85-3.48-9.34-3.28-5.94.34-10.42,4.17-14.22,8.42a36.65,36.65,0,0,0,4-1.85Z"/><path class="cls-6" d="M448,172.43h0c0-.36,0-.72,0-1.07v0l0-1v0c.13-3.34.4-5.66.4-5.66a32.78,32.78,0,0,1-3.12-6.68c-1.41-4.08,6.43-2.29,8.51-13a58.45,58.45,0,0,1,5.54-16.66c-.9-1.89-1.36-3.13-1.36-3.13,2.17-6.09,6.92-8.2,11.58-10.08-2,.26-23.36,3.41-32.93,18.56q4.06-4.56,8.44-8.83c.74-.73,1.88.41,1.14,1.14a168.23,168.23,0,0,0-12.35,13.39,31.65,31.65,0,0,0-1.8,9.51,57.48,57.48,0,0,1-1.86,13.47,11.4,11.4,0,0,1-.73,7.05c-1.86,4-6.14,7.3-6.09,12a.8.8,0,0,1-1.6,0c-.06-4.82,3.74-8.06,5.88-12a9.24,9.24,0,0,0,1-2.92c-5.32,11.38-15.05,8-16.46,23.67l39.32,1.13C448.44,186.81,447.88,178.57,448,172.43Z"/><path class="cls-8" d="M331.22,172.76s-5.11-7.47-9.16-12.22c-.47,1-1,2.19-1.62,3.4,3.25,5.19,7.85,11.26,7.85,11.26s-4.48-5.62-8.54-9.9c-.54,1.07-1.13,2.19-1.74,3.33,3.64,4.49,8.11,9.15,8.11,9.15s-4.7-4.21-9-7.57c-.64,1.17-1.3,2.35-2,3.54a102.08,102.08,0,0,0,11.18,10.51c.29-.35.57-.49.85-.36s.55.74.64,1.59c1.29,1,2.56,2,3.78,3,.87-1.42,1.51-1.7,1.62.12,0,.37,0,.76,0,1.15,2.72,2.07,5,3.76,6.52,4.84a102.21,102.21,0,0,1,9.61-12.36c-5.39-7-5.22-18.48-7.2-17.83-2.21.72-2.25,10.14-2.25,10.14s-11.12-14.54-16-19.06a16.15,16.15,0,0,1-1,3C325.58,164,331.22,172.76,331.22,172.76Z"/><path class="cls-8" d="M314.68,164.15l.05.07c.46-.64,1-1.41,1.63-2.22l-.21-.18C315.61,162.69,315.11,163.48,314.68,164.15Z"/><path class="cls-8" d="M321.75,154.23c-.21.22-.17.72,0,1.44a5.67,5.67,0,0,1,1.31-.92C322.42,154.23,322,154,321.75,154.23Z"/><path class="cls-8" d="M318.07,159.78c.51-.64,1-1.28,1.55-1.87a9.87,9.87,0,0,0-.76-.65c-.35.62-.71,1.25-1.09,1.88C317.86,159.35,318,159.56,318.07,159.78Z"/><path class="cls-7" d="M327.69,216.37c-.57,2.67,8.12,13.27,19.16,25.69-.92-5.1-1.35-8.93-1-9.76,1.07-2.32,4.66,10.75,5.84,15.2l.14.16c-.79-4.44-3.16-18.85-.76-19.06,2.84-.24,5.2,18.26,5.2,18.26s-.38-17.72,1.21-19.19,3.59,17.25,3.59,17.25,1.47-13.87,3.15-14.4,3,24.56,3,24.56a28.37,28.37,0,0,0,6.72-3.06L374,252c-2.1-5.59-4.09-10.95-5.81-15.74h0l0-.17-.23-.63v0h0c-1.7-4.78-3.1-9-4-12.14h0c-1.06-3.65-1.5-6-1-6.63a21.41,21.41,0,0,1,5.29-3.88,21.76,21.76,0,0,0-8.44-11.9c-2.11-1.48-4-3.2-4.24-4.75-.57-3.68,10.86,3.94,10.86,3.94s-4.06-9.29-7.08-17.15a31.19,31.19,0,0,0-4.66-3.89c-1-.44-2.88.87-5.16,3.24a102.21,102.21,0,0,0-9.61,12.36C333.91,203.22,328.44,212.87,327.69,216.37Z"/><path class="cls-7" d="M376.94,259.76h0c-.68-1.83-1.37-3.64-2-5.44a17.29,17.29,0,0,1-2,3.16,12.24,12.24,0,0,0-2.6,9.13l.93.19a22.72,22.72,0,0,1,10.27,5c-1.41-3.8-2.87-7.67-4.31-11.52Z"/><path class="cls-7" d="M401.86,226.76c-1.15-.81-2.28-1.61-3.39-2.41.78,1.68,1.59,3.46,2.44,5.31C401.2,228.71,401.52,227.74,401.86,226.76Z"/><path class="cls-8" d="M500.34,216a6.87,6.87,0,0,1-1-2.4c-.89-4-2.4-8.48-3.09-13.4l-25.83,3.49c.95,5.88,1.55,13.1-.06,17.57A209.65,209.65,0,0,1,500.34,216Z"/><path class="cls-8" d="M448,172.42c0-.36,0-.72,0-1.07C448,171.7,448,172.06,448,172.42Z"/><path class="cls-8" d="M476.72,169.66c4.53-10.59,5.28-19.22-4.23-25-6.53-4-11-12-13.15-16.4a58.45,58.45,0,0,0-5.54,16.66c-2.08,10.75-9.92,9-8.51,13a32.78,32.78,0,0,0,3.12,6.68s-.27,2.32-.4,5.66c0-.33,0-.65.05-1a3,3,0,0,0,.79-.42c2.7-2,7.28-2.44,6,3-.63,2.8-3.46,5.18-6.79,6.5-.14-2.07-.17-4.1-.15-5.95-.08,6.14.48,14.38,3.57,18.82a7.28,7.28,0,0,0,3.1,2.65,19.16,19.16,0,0,0,9.1.92C465.18,183.6,475.63,172.22,476.72,169.66ZM457.1,141.74c3-1.05,6.38,1,6.19,2.21-.11.77-.78,1.35-2,.66s-1.4-1.38-3.55-.7a1.25,1.25,0,0,1-1.7-.68A1.32,1.32,0,0,1,457.1,141.74Zm.27,7a1.6,1.6,0,1,1-1.48,1.73A1.61,1.61,0,0,1,457.37,148.73Z"/><path class="cls-8" d="M448,171.33l0-1Z"/><path class="cls-3" d="M448,171.33v0c0,.35,0,.71,0,1.07h0c0,1.85,0,3.88.15,5.95,3.33-1.32,6.16-3.7,6.79-6.5,1.23-5.4-3.35-5-6-3a3,3,0,0,1-.79.42c0,.31,0,.63-.05,1v0Z"/><path class="cls-6" d="M496.24,200.16,535,194.93s9.36-18.36-15.56-40.65c-4.08-3.66-2.71-11.49-3.21-19.28-.31-4.77-1.32-9.53-4.73-13.3l-.12-.14A40.32,40.32,0,0,0,497,111.36,29.22,29.22,0,0,0,492.6,110a24.53,24.53,0,0,0-17.66,2.66h0a36.65,36.65,0,0,1-4,1.85l-1.38.56c-4.66,1.88-9.41,4-11.58,10.08,0,0,.46,1.24,1.36,3.13,2.11,4.43,6.62,12.43,13.15,16.4,9.51,5.78,8.76,14.41,4.23,25-1.09,2.56-11.54,13.94-13,25.16a15.9,15.9,0,0,0,1.48,9.53l5.2-.7Z"/><path class="cls-7" d="M482.8,237a10.3,10.3,0,0,1,.49-1.14A13.51,13.51,0,0,1,494,228.9c2.36-.19,4,.8,5.73,2.27l.64.53a9.84,9.84,0,0,1,1.09.52c9,5.05,15.47,4,20.24,2.53,8.48-2.66,15.9-1.24,20.91,2,1.52-1.71,3-3.37,4.55-4.94-.17-.36-.34-.73-.54-1.1-7.06-13.56-25.23-16.65-46.27-14.74a209.65,209.65,0,0,0-30,5.26c-6.2,1.51-12.33,3.22-18.2,5,1.42.46,2.86.87,4.31,1.25C463.32,229.24,472.82,232.82,482.8,237Z"/><path class="cls-7" d="M419.5,273.66h0A270.42,270.42,0,0,1,428.44,301h0l.21.83v0h0c.34,1.37.65,2.71.93,4l12.62-5.73-2-22,9.12-2.39c-3.75-1.69-6.48-3-7.68-3.68-4.46-2.62-20-12.2-31-20.37C413.68,258.85,416.72,266.31,419.5,273.66Z"/><path class="cls-7" d="M485.76,235.2a9.14,9.14,0,0,0-1.34,2.47l1.28.54A12.88,12.88,0,0,1,496.48,231C492.91,229.44,487.86,232.44,485.76,235.2Z"/><path class="cls-7" d="M487.77,302.77c-3.6-1.09-4.87-7-5.22-12.86-12.44-5.12-25.2-10.53-33.26-14.15l-9.12,2.39,2,22,3.19,34.52c32.88-8.39,39.79.67,48.13,2,2-1,3.82-1.76,5.29-2.35,10.86-4.33,8.41-7.67,9-13.05.16-1.46,1.81-3,4.22-4.56a35.78,35.78,0,0,0-5.85-13.25S493.19,304.41,487.77,302.77Z"/><path class="cls-5" d="M457.62,151.93a1.6,1.6,0,1,0-1.73-1.47A1.6,1.6,0,0,0,457.62,151.93Z"/><path class="cls-5" d="M457.78,143.91c2.15-.68,2.37,0,3.55.7s1.85.11,2-.66c.19-1.22-3.15-3.26-6.19-2.21a1.32,1.32,0,0,0-1,1.49A1.25,1.25,0,0,0,457.78,143.91Z"/><path class="cls-6" d="M421.78,181.39a.8.8,0,0,0,1.6,0c-.05-4.75,4.23-8,6.09-12a11.4,11.4,0,0,0,.73-7.05,68.65,68.65,0,0,0-1.89-6.85c-.85-3-1.05-5.86.31-8.76a36.2,36.2,0,0,1,5.18-7.3l.06-.07a168.23,168.23,0,0,1,12.35-13.39c.74-.73-.4-1.87-1.14-1.14q-4.36,4.28-8.44,8.83-2.34,2.64-4.58,5.37c-3.4,4.17-6.77,8.48-5.9,14.17.69,4.54,3.27,8.85,2.52,13.3a9.24,9.24,0,0,1-1,2.92C425.52,173.33,421.72,176.57,421.78,181.39Z"/><path class="cls-2" d="M250.55,234.08a5.4,5.4,0,0,0-1.83,2.63c-.11.32-.79,2.62-.55,2.71.67.25,1.93-2,2.18-2.49a9.08,9.08,0,0,0,.7-2.33A.42.42,0,0,1,250.55,234.08Z"/><path class="cls-2" d="M274,207.49a9.91,9.91,0,0,0-2.68-5s0,0,0,.07C271.15,204.7,272.43,206.24,274,207.49Z"/><path class="cls-2" d="M256.64,223.66l-.11.15,0,.05a.38.38,0,0,1,0,.24,10.35,10.35,0,0,0,.77,6.17c.61-2.13,1-4.45-.54-6.29A.5.5,0,0,1,256.64,223.66Z"/><path class="cls-2" d="M264.91,214.61a8.3,8.3,0,0,0-.15,4.08,6.3,6.3,0,0,0,.72,1.64l.41.57a.37.37,0,0,1,0-.34c.36-2,.42-5.15-1.21-6.56a.3.3,0,0,1-.08-.08l-.09.14A.45.45,0,0,1,264.91,214.61Z"/><path class="cls-2" d="M217.8,246.48c-.34.45-.74,1.12-.86,1.28-.3.4-.64.8-.91,1.23a5.64,5.64,0,0,0-.65,2.85.31.31,0,0,1,.13,0,4.11,4.11,0,0,0,2.12-2.73A14,14,0,0,0,217.8,246.48Z"/><path class="cls-2" d="M253.83,218c-.17.88,2.47.73,3.08.61a10.27,10.27,0,0,0,1.89-.56C257,217.54,254.08,216.79,253.83,218Z"/><path class="cls-2" d="M218.21,246.4Z"/><path class="cls-2" d="M217.71,246.44h0Z"/><path class="cls-2" d="M267.16,207.09a.35.35,0,0,1,.24.16c.37-.68.74-1.35,1.11-2q1.65-2.9,3.29-5.79l.3-.49c-2.54,2.59-5.26,5.34-8.07,8.17A6.37,6.37,0,0,1,267.16,207.09Z"/><path class="cls-2" d="M264.16,208.7a15,15,0,0,0,1.55-.91,5.68,5.68,0,0,0-2,.37c-.1,0-.65.27-1.22.55l0,0-.64.64c.28,0,.54,0,.6,0A7.39,7.39,0,0,0,264.16,208.7Z"/><path class="cls-2" d="M254.85,216.57c1.8-.24,3.76.61,5.47,1.07a.44.44,0,0,1,.28.25c.39-.45.78-.9,1.15-1.37A55.27,55.27,0,0,0,267,208a12.7,12.7,0,0,1-4.33,2.17,5.42,5.42,0,0,1-1.81.17c-2.09,2.1-4.21,4.22-6.33,6.32v0Z"/><path class="cls-2" d="M273.32,197.72h0Z"/><path class="cls-2" d="M218.25,250.16a5.73,5.73,0,0,1-2.47,2.52,27.7,27.7,0,0,0-3.38,6.5c1.7-.8,4-1.24,5.15.15a.45.45,0,0,1,0,.62,6,6,0,0,1-3.22,1.46,5.06,5.06,0,0,1-2.88-.15,2.56,2.56,0,0,1-.11.24,12,12,0,0,1-6,5.87c-1.07.49-2.15,1-3.21,1.5,1.35-.12,2.51.09,2.56,1.17s-1.49,1.17-2.15,1.29a8.81,8.81,0,0,1-4.14-.29.45.45,0,0,1-.2-.12,36,36,0,0,0-5.27,3.6.37.37,0,0,1-.15.13.55.55,0,0,1-.19.15c-.49.42-1,.86-1.42,1.32a19.43,19.43,0,0,1,4.12.26c.5.1.87.34.86.81l-1.09.1c15.46-1.46,28.83-3.23,34.74-5.28.48-.17.91-.33,1.28-.5,16.17-7.22,56.71-55.53,74.22-82.31l-16.73-7.43c0,.2-5.86,6.32-14.06,14.71-.3.54-.62,1.06-.93,1.6l-2,3.58a.44.44,0,0,1,.22.12,11,11,0,0,1,3.22,6.73.45.45,0,0,1-.67.38c-1.82-1.35-3.57-3-3.89-5.26l-.13.23c-1.78,3.12-3.47,6.33-5.32,9.41a.47.47,0,0,1,.3.11,5.3,5.3,0,0,1,1.56,4.32,15.64,15.64,0,0,1-.13,3.75c-.1.35-.09.5-.42.68a.48.48,0,0,1-.45,0c-2.25-1.6-2.34-4.72-1.9-7.19l0,.06c-1.95,3-4.72,5.4-6.94,8.23a.35.35,0,0,1,.39.13c2,2.43,1.31,5.44.44,8.2a.44.44,0,0,1-.8.11,11.43,11.43,0,0,1-1.5-6.38,32.81,32.81,0,0,0-3.4,6.84.35.35,0,0,1,.07.26,12,12,0,0,1-1.62,6c-.53.78-1.89,2.49-3,2.12a.42.42,0,0,1-.31-.31,7.75,7.75,0,0,1,3.68-7.34h0a33.46,33.46,0,0,1,4.14-8.47,56.11,56.11,0,0,1,4.9-5.75,10.2,10.2,0,0,1-4.9,1c-.62-.08-2.07-.37-2.42-1.1-13.77,13.62-26.92,26.07-29.89,27.18a18.59,18.59,0,0,1-4.09.68A10,10,0,0,1,218.25,250.16Z"/><path class="cls-2" d="M214.57,260.49a5,5,0,0,0,2-.86c-1.24-.82-3.45.05-4.68.84A5.16,5.16,0,0,0,214.57,260.49Z"/><path class="cls-2" d="M206.44,259a9.64,9.64,0,0,0-.87,2.57,6.66,6.66,0,0,0,.13,3.52C206.71,263.44,206.69,261,206.44,259Z"/><path class="cls-2" d="M195.05,277.28c-.33-.32-1.83-.21-2.31-.23-.8,0-1.61-.05-2.41,0-.23.25-.46.51-.68.77l-1.13.1c2.21-.19,4.39-.38,6.53-.59Z"/><path class="cls-2" d="M190.38,246.92s0,0,0,.06c-1.44,4.84-6,8.83-11.27,12,2,3.68,3.82,5.87,1.69,8.94a22.09,22.09,0,0,1-3.43,3.71s-.18,1.2-.35,2.8h0s.25,1.72.54,4.36c3.66-.28,7.31-.57,10.9-.88a27.83,27.83,0,0,1,3.32-3.54,3.78,3.78,0,0,1-.58-2.91c.12-.89.53-3,1.44-3.46s1.26.81,1.34,1.43c.17,1.33-.54,2.52-.83,3.78A37.88,37.88,0,0,1,197.9,270a.35.35,0,0,1,.31-.29l.37-.09c1.55-.85,3.15-1.62,4.77-2.32.48-.2,1-.4,1.43-.62a.35.35,0,0,1,.06-.52,2.39,2.39,0,0,0,.23-.22,7.11,7.11,0,0,1-.45-4c.22-1.3.7-3.37,1.8-4.24.22-.18.67-.17.73.2.41,2.45.67,5.9-.91,8.07a9.46,9.46,0,0,0,2.14-1.61,14,14,0,0,0,2.47-3.83A.46.46,0,0,1,211,260l.1-.07a47.11,47.11,0,0,1,3.34-6.89v0c.11-1.78,0-3.33,1.07-4.82.37-.52.74-1.13,1.15-1.68l-.81.05C209.8,246.91,200.6,247,190.38,246.92Z"/><path class="cls-2" d="M193,269.16c-.43-.17-.92,2.18-1,2.67a3.25,3.25,0,0,0,.18,1.53,7.4,7.4,0,0,1,.4-1.48C192.74,271.48,193.57,269.39,193,269.16Z"/><path class="cls-2" d="M199.28,270.36a7.64,7.64,0,0,0,2.13.22c.16,0,2.51-.22,1.93-.78-.4-.39-2.11.17-2.6.27Z"/><path class="cls-2" d="M315.19,173.75c.67-1.19,1.33-2.37,2-3.54l.85-1.58c.61-1.14,1.2-2.26,1.74-3.33.24-.46.47-.92.69-1.36.6-1.21,1.15-2.36,1.62-3.4.33-.73.63-1.41.88-2a16.15,16.15,0,0,0,1-3c.07-.51,0-.81-.2-.86a1,1,0,0,0-.65.13,5.67,5.67,0,0,0-1.31.92,23.6,23.6,0,0,0-2.16,2.24c-.51.59-1,1.23-1.55,1.87s-1.17,1.5-1.71,2.22-1.17,1.58-1.63,2.22c-.81,1.14-1.34,1.91-1.34,1.91s.52-.78,1.29-2c.43-.67.93-1.46,1.47-2.33s1.08-1.75,1.62-2.68c.38-.63.74-1.26,1.09-1.88,1.87-3.33,3.27-6.37,2.29-6.58-2.21-.47-11.89,14.91-11.89,14.91s9.05-17.71,7.7-18.58-11.57,16.89-11.57,16.89,11.67-24.14,5.05-17.14c-4.28,4.53-11.12,18.87-16.22,28.78.27-4.21.6-11.65-1.52-10.21-1.92,1.29-2.13,6.68-4.11,16.44l16.73,7.43A138.22,138.22,0,0,0,315.19,173.75Z"/><path class="cls-5" d="M124.5,116.59a90.91,90.91,0,0,0-9.5,3.33c-8.37,3.34-15-9.17-23.88-15S67.74,96.9,59.73,115.85c-6.69,15.81-10.25,41.47-11.16,43h0l1.85.54c4.09-8.13,9-14.65,15-17.9A49.26,49.26,0,0,1,114,142s-.29,1.5-.87,3.9c6.44,5.81,10.57,17,13.39,24.42,3.73,9.76,10.13,5.56,8.69,11.76a27.31,27.31,0,0,1-2,6,82.65,82.65,0,0,1,1.33,14.15c0,.9.06,1.83.06,2.77l-.12.13c0,.37,0,.73-.05,1.09a37,37,0,0,0,13.73-4.62,23.85,23.85,0,0,0,4.75-3.78c11.68-12.21,6.46-25.8-2.15-33.91s12.55-21.15,3.38-38.53c-4-7.65-10.49-10.27-17.16-10.52A41.4,41.4,0,0,0,124.5,116.59Z"/><path class="cls-5" d="M255.08,219.6a10.2,10.2,0,0,0,4.9-1,56.11,56.11,0,0,0-4.9,5.75,33.46,33.46,0,0,0-4.14,8.47h0a7.75,7.75,0,0,0-3.68,7.34.42.42,0,0,0,.31.31c1.13.37,2.49-1.34,3-2.12a12,12,0,0,0,1.62-6,.35.35,0,0,0-.07-.26,32.81,32.81,0,0,1,3.4-6.84,11.43,11.43,0,0,0,1.5,6.38.44.44,0,0,0,.8-.11c.87-2.76,1.57-5.77-.44-8.2a.35.35,0,0,0-.39-.13c2.22-2.83,5-5.19,6.94-8.23l0-.06c-.44,2.47-.35,5.59,1.9,7.19a.48.48,0,0,0,.45,0c.33-.18.32-.33.42-.68a15.64,15.64,0,0,0,.13-3.75,5.3,5.3,0,0,0-1.56-4.32.47.47,0,0,0-.3-.11c1.85-3.08,3.54-6.29,5.32-9.41l.13-.23c.32,2.26,2.07,3.91,3.89,5.26a.45.45,0,0,0,.67-.38,11,11,0,0,0-3.22-6.73.44.44,0,0,0-.22-.12l2-3.58c.31-.54.63-1.06.93-1.6h0l-1.2,1.23h0L272.1,199h0l-.3.49q-1.64,2.89-3.29,5.79c-.37.65-.74,1.32-1.11,2a.35.35,0,0,0-.24-.16,6.37,6.37,0,0,0-3.13,0h0l-1.54,1.55,0,0c.57-.28,1.12-.52,1.22-.55a5.68,5.68,0,0,1,2-.37,15,15,0,0,1-1.55.91,7.39,7.39,0,0,1-1.71.6c-.06,0-.32,0-.6,0h0l-1,1h0a5.42,5.42,0,0,0,1.81-.17A12.7,12.7,0,0,0,267,208a55.27,55.27,0,0,1-5.26,8.54c-.37.47-.76.92-1.15,1.37a.44.44,0,0,0-.28-.25c-1.71-.46-3.67-1.31-5.47-1.07l-.3.05v0l-1.88,1.86h0C253,219.23,254.46,219.52,255.08,219.6Zm-4.73,17.33c-.25.52-1.51,2.74-2.18,2.49-.24-.09.44-2.39.55-2.71a5.4,5.4,0,0,1,1.83-2.63.42.42,0,0,0,.5.52A9.08,9.08,0,0,1,250.35,236.93Zm6.94-6.66a10.35,10.35,0,0,1-.77-6.17.38.38,0,0,0,0-.24l0-.05.11-.15a.5.5,0,0,0,.11.32C258.27,225.82,257.9,228.14,257.29,230.27Zm14-27.75a9.91,9.91,0,0,1,2.68,5c-1.52-1.25-2.8-2.79-2.67-4.9C271.28,202.57,271.27,202.55,271.27,202.52Zm-6.68,11.4a.3.3,0,0,0,.08.08c1.63,1.41,1.57,4.57,1.21,6.56a.37.37,0,0,0,0,.34l-.41-.57a6.3,6.3,0,0,1-.72-1.64,8.3,8.3,0,0,1,.15-4.08.45.45,0,0,0-.41-.55Zm-5.79,4.17a10.27,10.27,0,0,1-1.89.56c-.61.12-3.25.27-3.08-.61C254.08,216.79,257,217.54,258.8,218.09Z"/><path class="cls-5" d="M215.53,248.19c-1.06,1.49-1,3-1.07,4.82v0a47.11,47.11,0,0,0-3.34,6.89l-.1.07a.46.46,0,0,0-.17.51,14,14,0,0,1-2.47,3.83,9.46,9.46,0,0,1-2.14,1.61c1.58-2.17,1.32-5.62.91-8.07-.06-.37-.51-.38-.73-.2-1.1.87-1.58,2.94-1.8,4.24a7.11,7.11,0,0,0,.45,4,2.39,2.39,0,0,1-.23.22.35.35,0,0,0-.06.52c-.47.22-.95.42-1.43.62-1.62.7-3.22,1.47-4.77,2.32l-.37.09a.35.35,0,0,0-.31.29,37.88,37.88,0,0,0-4.77,3.21c.29-1.26,1-2.45.83-3.78-.08-.62-.5-1.86-1.34-1.43s-1.32,2.57-1.44,3.46a3.78,3.78,0,0,0,.58,2.91,27.83,27.83,0,0,0-3.32,3.54h.08l1.13-.1c.22-.26.45-.52.68-.77.8,0,1.61,0,2.41,0,.48,0,2-.09,2.31.23h0l1.09-.1c0-.47-.36-.71-.86-.81a19.43,19.43,0,0,0-4.12-.26c.46-.46.93-.9,1.42-1.32a.55.55,0,0,0,.19-.15.37.37,0,0,0,.15-.13,36,36,0,0,1,5.27-3.6.45.45,0,0,0,.2.12,8.81,8.81,0,0,0,4.14.29c.66-.12,2.19-.33,2.15-1.29s-1.21-1.29-2.56-1.17c1.06-.51,2.14-1,3.21-1.5a12,12,0,0,0,6-5.87,2.56,2.56,0,0,0,.11-.24,5.06,5.06,0,0,0,2.88.15,6,6,0,0,0,3.22-1.46.45.45,0,0,0,0-.62c-1.15-1.39-3.45-.95-5.15-.15a27.7,27.7,0,0,1,3.38-6.5,5.73,5.73,0,0,0,2.47-2.52,10,10,0,0,0,.43-3.8h0l-.47,0h0l-.49,0h0l-1,.07h0C216.27,247.06,215.9,247.67,215.53,248.19Zm-22.94,23.69a7.4,7.4,0,0,0-.4,1.48,3.25,3.25,0,0,1-.18-1.53c0-.49.53-2.84,1-2.67C193.57,269.39,192.74,271.48,192.59,271.88Zm10.75-2.08c.58.56-1.77.77-1.93.78a7.64,7.64,0,0,1-2.13-.22l1.46-.29C201.23,270,202.94,269.41,203.34,269.8Zm2.23-8.2a9.64,9.64,0,0,1,.87-2.57c.25,2,.27,4.41-.74,6.09A6.66,6.66,0,0,1,205.57,261.6Zm11-2a5,5,0,0,1-2,.86,5.16,5.16,0,0,1-2.7,0C213.1,259.68,215.31,258.81,216.55,259.63Zm-1-7.82a.31.31,0,0,0-.13,0A5.64,5.64,0,0,1,216,249c.27-.43.61-.83.91-1.23.12-.16.52-.83.86-1.28a14,14,0,0,1-.17,2.6A4.11,4.11,0,0,1,215.51,251.81Z"/><path class="cls-2" d="M89.72,221.08c.28.33.12.42.58.22.26-.11.54-1.18.57-1.29a16.44,16.44,0,0,0,.33-5,37.77,37.77,0,0,1-2.15,3.9h0A5.82,5.82,0,0,0,89.72,221.08Z"/><path class="cls-2" d="M84.21,250.79h0l1,0h0l8.77-.28h.43l6.72-.22a21.49,21.49,0,0,1,.94-15.57l3.53-7.67s.45-.47,9.49-1.77c.15-.67.32-1.36.54-2.08.89-2.91,8.06-6.5,17.67-9.54a38.51,38.51,0,0,0,1.15-7.39c0-.36,0-.72.05-1.09a2.71,2.71,0,0,1-1.89,1c-4.56.45-12.78-5.7-9-11.05,3.23-4.62,6.66-.1,10.46.5.22,1.87.43,4.15.52,6.61a82.65,82.65,0,0,0-1.33-14.15,27.31,27.31,0,0,0,2-6c1.44-6.2-5-2-8.69-11.76-2.82-7.4-7-18.61-13.39-24.42-1.22,5-3.73,14-7.61,21.34A12.11,12.11,0,0,1,90.92,173c-2.45-.81-5.15-.43-7.15,3.33a11.94,11.94,0,0,0,5,16c.07-.19.14-.38.22-.56.3-.64.74-1,1.34-.46a3.7,3.7,0,0,1,.6,1.77c0,.08,0,.16,0,.24a7.7,7.7,0,0,1,4.22,7.76,44.93,44.93,0,0,1-3,11.85c0,1.79,0,3.58-.11,5.34-.08,1.12-.29,3.75-1.68,4.14-1.14.31-1.6-1.35-1.84-2.13l-.09-.36A38.31,38.31,0,0,1,81,228a30.22,30.22,0,0,1-11.29,5.67h0c-4.77,5.88-13.78,13.37-18.7,18.12h0Zm36.5-73.18a1.76,1.76,0,1,1,1.72-1.79A1.75,1.75,0,0,1,120.71,177.61Zm-.44-8.14c-2.41-.51-2.57.28-3.78,1.15s-2,.31-2.21-.51c-.33-1.3,3.08-3.88,6.5-3.07a1.44,1.44,0,0,1,1.27,1.5A1.37,1.37,0,0,1,120.27,169.47Z"/><path class="cls-2" d="M89.74,192.13c0,.18-.1.41-.15.59l.36.15C89.88,192.63,89.78,192.35,89.74,192.13Z"/><path class="cls-1" d="M15.41,340.92q2.1-1.67,4.4-3.19a36.09,36.09,0,0,0-.88-8.88,25.65,25.65,0,0,0-2.76-6.75L16.5,321q-1,3.58-2,7a34.13,34.13,0,0,1,.8,3.32A27.9,27.9,0,0,1,15.41,340.92Z"/><path class="cls-1" d="M27.73,310.38a22.46,22.46,0,0,1,.62,7.44C28,323,27.55,328.24,27,333.44a107.09,107.09,0,0,1,9.78-4.53,34.58,34.58,0,0,0,2-12.18c-.4-11.24-5.65-21.33-9.6-31.7.17-.38.33-.76.5-1.13,1.87,5.05,4.07,10,6,15,2.23,6,4,12.31,4,18.76a34.28,34.28,0,0,1-1.76,10.77c4.15-1.65,8.35-3.05,12.45-4.24,1.22-9.41-1.23-19.26-5-27.93-2.5-5.83-5.93-11.21-8.38-17.05a26.94,26.94,0,0,1-1.88-6.55c-1.17,2.16-2.3,4.41-3.4,6.73-2.77,5.82-5.33,12.08-7.68,18.46a38.4,38.4,0,0,0,1.17,5.18C26,305.54,27,307.9,27.73,310.38Z"/><path class="cls-1" d="M20,329.8a37.46,37.46,0,0,1,.64,7.37C22.38,336.06,24.16,335,26,334c.55-5.6,1.26-11.22,1.53-16.84a22.19,22.19,0,0,0-1.28-8.59,73.66,73.66,0,0,1-2.51-7.75q-.15-.65-.27-1.29c.19-.55.39-1.09.59-1.64-2.82,7.67-5.34,15.53-7.53,23,.48.81,1,1.62,1.38,2.46A25,25,0,0,1,20,329.8Z"/><path class="cls-1" d="M14.34,341.8a26.94,26.94,0,0,0,.44-8.18,31.16,31.16,0,0,0-.72-3.95c.14-.55.29-1.1.45-1.66-1.78,6.49-3.3,12.56-4.54,17.84h0A48.26,48.26,0,0,1,14.34,341.8Z"/><path class="cls-1" d="M107,260.14a36.19,36.19,0,0,0-.5,10,96,96,0,0,0,3.25,18.58c2,7.53,4.3,15,5.9,22.6a30.79,30.79,0,0,0,3-7.73l-1.32-3.66c-2.29-6.33-5.49-13-5.59-19.81a43.8,43.8,0,0,1,3-15.85c-1.29-5-2.49-9.93-3.18-13.43l-.44.69C109.41,254.22,107.73,257,107,260.14Z"/><path class="cls-1" d="M42.3,261.2c.29-.4.58-.79.88-1.17C42.88,260.41,42.59,260.8,42.3,261.2Z"/><path class="cls-1" d="M94.15,282.53a58.66,58.66,0,0,1-.2-32l-8.77.28c-1.66,3.57-1.6,7.94-.8,11.79,1.28,6.11,3.89,11.87,3.82,18.22-.08,6.65-2.17,13.18-3.8,19.56q-1.87,7.34-3.74,14.67c12.16-2.37,20.57-1.3,25.44,0a57.7,57.7,0,0,0-4.31-14.76C99.15,294.35,96,288.74,94.15,282.53Z"/><path class="cls-1" d="M87.23,278.12c-.56-6.48-3.74-12.42-4.22-18.91a18.35,18.35,0,0,1,1.2-8.42L51,251.84h0A47.36,47.36,0,0,0,43.18,260a64,64,0,0,0,1,15.19c1.42,7.45,4.6,14.08,7.33,21.09a50.22,50.22,0,0,1,3.45,19,56.91,56.91,0,0,1-.67,7.82c1.58-.42,3.14-.8,4.66-1.15.43-1.43.8-2.88,1.11-4.33a41.34,41.34,0,0,0-1.41-21.8c-2.09-6.17-5.2-12-6.21-18.54-1.39-9,1.31-17.59,5.13-25.69l1,0a67.59,67.59,0,0,0-4.07,10.53,35.06,35.06,0,0,0,.07,20.29c2,6.29,5.12,12.18,6.43,18.68a41.83,41.83,0,0,1-.79,19.64c-.1.35-.2.69-.31,1,2.84-.64,5.54-1.16,8-1.58-.21-1.08-.07-1.78.52-2,2.18-.72,4.27-1.33,6.28-1.86a45.46,45.46,0,0,0,.07-7.74,44.08,44.08,0,0,0-5.52-18.28c-2.85-5-6.71-9.51-9-14.87a18.86,18.86,0,0,1,.58-16.2,63.83,63.83,0,0,1,4.73-7.89l1.08,0c-.46.67-.9,1.35-1.35,2a39.35,39.35,0,0,0-5.1,9.87c-1.89,6.33.53,12.12,3.89,17.44,3.06,4.84,6.45,9.36,8.56,14.73a45.65,45.65,0,0,1,3,20.71c1.4-.36,2.75-.67,4.06-.94l4.1-16.09C85.54,292.29,87.84,285.23,87.23,278.12Z"/><path class="cls-1" d="M54,311.08c-.49-7.25-2.9-13.72-5.74-20.34a70.41,70.41,0,0,1-6-29.54,97.52,97.52,0,0,0-7.17,11.49l.74-1.35a18.91,18.91,0,0,0,.37,2.69,41,41,0,0,0,4.26,10.38c5.83,11,11.32,22.7,11,35.47a39.56,39.56,0,0,1-.3,4.09l2.14-.59A53.88,53.88,0,0,0,54,311.08Z"/><path class="cls-1" d="M113.45,285.86A146,146,0,0,0,119,302.05a72.33,72.33,0,0,0,1.06-18.19s-2.54-8.9-4.94-18.09c-.14.42-.28.84-.4,1.26C112.93,273.1,111.87,279.64,113.45,285.86Z"/><path class="cls-1" d="M113,315a19.84,19.84,0,0,0,2-2.58c-.65-3.26-1.45-6.49-2.31-9.7-3.22-12-7.31-24-7.15-36.55a24.65,24.65,0,0,1,1.57-9.2,44.33,44.33,0,0,1,4-7h.31l-10.31.33-6.72.22.48,0a58.2,58.2,0,0,0-2.17,16.87,57,57,0,0,0,3.79,19.32c2.36,6.13,5.84,11.76,8,18a57.16,57.16,0,0,1,2.56,10.65,19.41,19.41,0,0,1,4.13,1.64C111.73,316.36,112.34,315.71,113,315Z"/><path class="cls-3" d="M40.5,284.41A41,41,0,0,1,36.24,274a18.91,18.91,0,0,1-.37-2.69l-.74,1.35h0A26.94,26.94,0,0,0,37,279.25c2.45,5.84,5.88,11.22,8.38,17.05,3.74,8.67,6.19,18.52,5,27.93l.89-.26a39.56,39.56,0,0,0,.3-4.09C51.82,307.11,46.33,295.43,40.5,284.41Z"/><path class="cls-3" d="M61,301.1c-1.31-6.5-4.47-12.39-6.43-18.68a35.06,35.06,0,0,1-.07-20.29,67.59,67.59,0,0,1,4.07-10.53l-1,0c-3.82,8.1-6.52,16.73-5.13,25.69,1,6.5,4.12,12.37,6.21,18.54a41.34,41.34,0,0,1,1.41,21.8c-.31,1.45-.68,2.9-1.11,4.33l.94-.21c.11-.35.21-.69.31-1A41.83,41.83,0,0,0,61,301.1Z"/><path class="cls-3" d="M72.7,295.42c-2.11-5.37-5.5-9.89-8.56-14.73-3.36-5.32-5.78-11.11-3.89-17.44a39.35,39.35,0,0,1,5.1-9.87c.45-.68.89-1.36,1.35-2l-1.08,0a63.83,63.83,0,0,0-4.73,7.89,18.86,18.86,0,0,0-.58,16.2c2.29,5.36,6.15,9.83,9,14.87a44.08,44.08,0,0,1,5.52,18.28,45.46,45.46,0,0,1-.07,7.74l.89-.23A45.65,45.65,0,0,0,72.7,295.42Z"/><path class="cls-3" d="M88.2,280.77c.07-6.35-2.54-12.11-3.82-18.22-.8-3.85-.86-8.22.8-11.79h0l-1,0h0a18.35,18.35,0,0,0-1.2,8.42c.48,6.49,3.66,12.43,4.22,18.91.61,7.11-1.69,14.17-3.42,21l-4.1,16.09,1-.19q1.88-7.33,3.74-14.67C86,294,88.12,287.42,88.2,280.77Z"/><path class="cls-3" d="M96.48,286.64a57,57,0,0,1-3.79-19.32,58.2,58.2,0,0,1,2.17-16.87l-.48,0H94a58.66,58.66,0,0,0,.2,32c1.83,6.21,5,11.82,7.64,17.7A57.7,57.7,0,0,1,106.1,315l1,.27a57.16,57.16,0,0,0-2.56-10.65C102.32,298.4,98.84,292.77,96.48,286.64Z"/><path class="cls-3" d="M107.12,256.92a24.65,24.65,0,0,0-1.57,9.2c-.16,12.54,3.93,24.58,7.15,36.55.86,3.21,1.66,6.44,2.31,9.7q.34-.53.66-1.08c-1.6-7.61-4-15.07-5.9-22.6a96,96,0,0,1-3.25-18.58,36.19,36.19,0,0,1,.5-10c.71-3.19,2.39-5.92,4.12-8.64l.44-.69c-.06-.31-.12-.6-.17-.89h-.31A44.33,44.33,0,0,0,107.12,256.92Z"/><path class="cls-3" d="M111.76,280.09c.1,6.85,3.3,13.48,5.59,19.81l1.32,3.66c.13-.5.25-1,.36-1.51a146,146,0,0,1-5.58-16.19c-1.58-6.22-.52-12.76,1.3-18.83.12-.42.26-.84.4-1.26l-.39-1.53A43.8,43.8,0,0,0,111.76,280.09Z"/><path class="cls-3" d="M35.63,298.94c-1.88-5.05-4.08-10-6-15-.17.37-.33.75-.5,1.13,4,10.37,9.2,20.46,9.6,31.7a34.58,34.58,0,0,1-2,12.18l1.09-.44a34.28,34.28,0,0,0,1.76-10.77C39.62,311.25,37.86,304.94,35.63,298.94Z"/><path class="cls-3" d="M23.72,300.83a73.66,73.66,0,0,0,2.51,7.75,22.19,22.19,0,0,1,1.28,8.59c-.27,5.62-1,11.24-1.53,16.84l1.06-.57c.51-5.2,1-10.41,1.31-15.62a22.46,22.46,0,0,0-.62-7.44c-.69-2.48-1.76-4.84-2.51-7.31a38.4,38.4,0,0,1-1.17-5.18h0c-.2.55-.4,1.09-.59,1.64Q23.57,300.19,23.72,300.83Z"/><path class="cls-3" d="M18.93,328.85a36.09,36.09,0,0,1,.88,8.88l.86-.56A37.46,37.46,0,0,0,20,329.8a25,25,0,0,0-2.14-6.4c-.42-.84-.9-1.65-1.38-2.46h0v0l-.33,1.13A25.65,25.65,0,0,1,18.93,328.85Z"/><path class="cls-3" d="M14.78,333.62a26.94,26.94,0,0,1-.44,8.18c.35-.3.71-.59,1.07-.88a27.9,27.9,0,0,0-.1-9.6,34.13,34.13,0,0,0-.8-3.32h0c-.16.56-.31,1.11-.45,1.66A31.16,31.16,0,0,1,14.78,333.62Z"/><path class="cls-3" d="M51.54,296.31c-2.73-7-5.91-13.64-7.33-21.09a64,64,0,0,1-1-15.19h0c-.3.38-.59.77-.88,1.17h0a70.41,70.41,0,0,0,6,29.54c2.84,6.62,5.25,13.09,5.74,20.34a53.88,53.88,0,0,1-.61,12.3l.93-.24a56.91,56.91,0,0,0,.67-7.82A50.22,50.22,0,0,0,51.54,296.31Z"/><path class="cls-5" d="M120.64,174.1a1.76,1.76,0,1,0,1.79,1.72A1.75,1.75,0,0,0,120.64,174.1Z"/><path class="cls-5" d="M120.78,167c-3.42-.81-6.83,1.77-6.5,3.07.21.82,1,1.39,2.21.51s1.37-1.66,3.78-1.15a1.37,1.37,0,0,0,1.78-.93A1.44,1.44,0,0,0,120.78,167Z"/><path class="cls-3" d="M123.55,195.13c-3.75,5.35,4.47,11.5,9,11.05a2.71,2.71,0,0,0,1.89-1l.12-.13c0-.94,0-1.87-.06-2.77-.09-2.46-.3-4.74-.52-6.61C130.21,195,126.78,190.51,123.55,195.13Z"/><path class="cls-8" d="M321.51,182.42C319,181.63,317,205,317,205s1.36-21.93-.85-22.57-6.36,29.07-6.36,29.07-4.95-8.78-7.38-8.24c-2.27.52,4.53,12.1,2.38,21.9a56.44,56.44,0,0,1,16.59,2.8c3.78-8.56,11.95-27.57,11.94-38.17,0-.39,0-.78,0-1.15-.11-1.82-.75-1.54-1.62-.12-2.58,4.19-7.29,18.35-7.29,18.35s4-16.09,3.51-21.34c-.09-.85-.29-1.41-.64-1.59s-.56,0-.85.36c-2.46,3-5.39,21.36-5.39,21.36S324,183.2,321.51,182.42Z"/><path class="cls-6" d="M327.76,232.55c-.25-1.76-2.82-3.36-6.41-4.63a56.44,56.44,0,0,0-16.59-2.8,22.14,22.14,0,0,0-7.15.83c-2.75,1-8.39,18.45-14.65,40.26,8.68-5.48,18.78-7.52,25.16-6.48a57.93,57.93,0,0,1,13.12,3.58C325.13,247.23,328,234.38,327.76,232.55Z"/><path class="cls-2" d="M581.58,149c-.52-6.09.63-14.19-3.45-18.83s-9.38,0-10.69,4.49-4.53,7.13-7.37,5.79-.15-19.16-1-23.3c-1.39-6.94-20.22,2.26-26.26,2.62a78.1,78.1,0,0,0,.92,8.88c1.07,7.16,2.46,14.1.79,16.17-3.31,4.1-6.88,6.14-2.66,9.71a25,25,0,0,0,4.62,3.34,3.66,3.66,0,0,1,.47-.52s10.17-6.83,10.89-2.48c.35,2.14-2.54,1.39-5.77,3.28-2.67,1.57-3.77,2-4.81,1.66.17,1.12.43,2.72.79,4.58,2.79-2,6.23-5.41,10-3.84,5.13,2.11,0,11.93-7.39,14.11a37.39,37.39,0,0,0,3.06,7c-.07-.22-.12-.43-.18-.65-.79-3,13.45-2.8,20.79-7.73,2.89-1.94,2.62-5.63,3.09-9.66s7.6-10.08,7.61,4.61c0,6.79-2.29,11.14-5.5,13.94l.1,0c3.89,4.43,5.88,13.49,6.63,20q1.2,5.79,2.17,11.61c7.1,0,24.63-2.38,32.55-9.81-.67-8.53-1.1-13.62-1.1-13.62s-13-32.73-13.55-40.79C596.39,149.42,582.59,160.76,581.58,149Zm-39.35-8.26a1.76,1.76,0,1,1,1.31-2.12A1.76,1.76,0,0,1,542.23,140.69Zm1.46-7.14c-1.39-.55-1.74-1.27-4-.17a1.37,1.37,0,0,1-2-.46,1.43,1.43,0,0,1,.86-1.77c3.1-1.64,7.05,0,7.05,1.35C545.71,133.35,545.08,134.09,543.69,133.55Z"/><path class="cls-2" d="M540.72,174.6c-.15-.43-.29-.87-.43-1.32C540.43,173.73,540.57,174.17,540.72,174.6Z"/><path class="cls-2" d="M540.29,173.26c-.14-.43-.27-.87-.4-1.31C540,172.39,540.15,172.83,540.29,173.26Z"/><path class="cls-2" d="M539.89,171.92c-.13-.44-.25-.87-.37-1.3C539.64,171.05,539.76,171.48,539.89,171.92Z"/><path class="cls-2" d="M538.57,166.7c-.09-.4-.17-.8-.25-1.18C538.4,165.9,538.48,166.3,538.57,166.7Z"/><path class="cls-2" d="M538.31,165.49c-.08-.39-.15-.77-.23-1.14C538.16,164.72,538.23,165.1,538.31,165.49Z"/><path class="cls-2" d="M539.17,169.25l-.3-1.24Z"/><path class="cls-2" d="M539.52,170.58c-.12-.43-.23-.86-.34-1.28C539.29,169.72,539.4,170.15,539.52,170.58Z"/><path class="cls-2" d="M538.86,168c-.1-.41-.19-.82-.28-1.21C538.67,167.14,538.76,167.55,538.86,168Z"/><path class="cls-3" d="M586.55,271.65c2.84-2.79,5.26-6.38,3.61-9.61-1.2-2.34-4-3.92-6.27-5l-.27-.13C587.59,260.43,590.12,266.16,586.55,271.65Z"/><path class="cls-3" d="M578.49,213.64a309.33,309.33,0,0,1,4,39.49l0,1.38c4.09,1.56,9.91,4.69,9.89,9.7s-5.2,9.48-8.87,12.19l-.2.14,2.35,63a33.79,33.79,0,0,1,8,9.81c6.59-7.32,15.53-13.35,23.77-18,0-2.5.07-5.1.1-7.8-1.25-30.58-3-70.32-4.06-86.09-.93-13.48-1.82-25.22-2.48-33.63C603.12,211.26,585.59,213.59,578.49,213.64Z"/><path class="cls-4" d="M674.55,213.61c-11.77-13-37.6-16.91-37.6-16.91a20.73,20.73,0,0,0-12.89-8.35,24.58,24.58,0,0,0-14.12,1.86s.43,5.09,1.1,13.62,1.55,20.15,2.48,33.63c1.09,15.77,2.81,55.51,4.06,86.09.1,2.6.21,5.12.31,7.56,8.08-4.56,15.44-7.8,19.16-9.66l19.67,39.35h29.37c-.3-5-.71-11.63-1.17-18.91.32-.35.61-.68.87-1,8.05-9.87,34.15-23,28.88-50.73C710.09,266,688.17,228.69,674.55,213.61Z"/><path class="cls-3" d="M538.08,164.35c.08.37.15.75.23,1.14v0c.08.38.16.78.25,1.18v.05c.09.39.18.8.28,1.21v0l.3,1.24v.05c.11.42.22.85.34,1.28v0c.12.43.24.86.37,1.3v0c.13.44.26.88.4,1.31v0c.14.45.28.89.43,1.32h0c7.38-2.18,12.52-12,7.39-14.11-3.8-1.57-7.24,1.84-10,3.84h0Z"/><path class="cls-4" d="M617.89,331.11l-.41.24c-8.24,4.67-17.18,10.7-23.77,18a21.65,21.65,0,0,1,1.26,3,27.84,27.84,0,0,1,1.51,8.39h60.24l-19.67-39.35C633.33,323.31,626,326.55,617.89,331.11Z"/><path class="cls-4" d="M536.16,310a10.38,10.38,0,0,1,1.24,2c1.55-.7,3-1.59,4.59-2.24a17.41,17.41,0,0,1,4.11-1.07c-.44-.12-.88-.24-1.32-.38C542,307.43,539.24,308.74,536.16,310Z"/><path class="cls-4" d="M561.61,237.79a8.4,8.4,0,0,0-9.11,0,6.73,6.73,0,0,0-2.76,7.43c3.77-3.25,9.37-6.44,14.62-4.51A14.34,14.34,0,0,0,561.61,237.79Z"/><path class="cls-4" d="M547.85,242.16a9.19,9.19,0,0,1,8.28-7.43,9.74,9.74,0,0,1,8.48,3.51c1.43,1.68,2.74,3.33,4.95,4a5.32,5.32,0,0,0,5.9-1.76c.7-.89,1.93.36,1.24,1.24a7.07,7.07,0,0,1-7.88,2.13l-.4-.16c2.45,3.18,3.2,7.49,6.75,9.16a48.88,48.88,0,0,1,7.17,1.56l.21.08,0-1.38a309.33,309.33,0,0,0-4-39.49q-1-5.82-2.17-11.61l-.27-1.35h0c-7.64,4.39-14.93,9.17-15.79,18.33,0,0-6.14,5.47-13.11,12.79-1.5,1.57-3,3.23-4.55,4.94A15.73,15.73,0,0,1,547.85,242.16Z"/><path class="cls-4" d="M568.73,281.67l-.16.62a23.19,23.19,0,0,1-.89,18.18c-2.92,6.48-7.73,9.43-14.29,9.33-1.5.16-3,.22-4.48.33a23.14,23.14,0,0,0-9.31,2.71c-.49.25-1,.46-1.46.66a7.87,7.87,0,0,0,1.64,2.79c3.1,2.16,30.61,9.79,45.94,23.27l-2.35-63C579.05,279.65,573.89,280.8,568.73,281.67Z"/><path class="cls-2" d="M374.7,171c4.11,7.52,8.79,24.39,10.88,34.7,2.51-.4,4.35-.13,4.83,1.21.1.29.35.87.73,1.7h0l.36.79h0c1.12,2.45,3,6.43,5.35,11.48l0,.07h0c.51,1.09,1,2.24,1.59,3.43,1.11.8,2.24,1.6,3.39,2.41a69.81,69.81,0,0,1,5.82-12.68,25.21,25.21,0,0,1-3.32-1.37l-.1.06c-.08-.76-.17-1.51-.28-2.21-1.83-11.9-12-45.91-14.11-44.4S391.54,184,391.54,184s-4.92-20.25-7.05-18.73,3.35,21.82,3.35,21.82-8-21.6-9.77-21.13,5.3,23.1,5.3,23.1-8.26-20.94-10.24-20.29A6.17,6.17,0,0,1,374.7,171Z"/><path class="cls-2" d="M372.74,171.3a45.57,45.57,0,0,0,1.93,8.78,75.31,75.31,0,0,1-2-10C372.7,170.45,372.71,170.84,372.74,171.3Z"/><path class="cls-2" d="M568.57,282.29l.16-.62-.38.06C568.43,281.92,568.5,282.1,568.57,282.29Z"/><path class="cls-4" d="M484.65,244a10.54,10.54,0,0,1,1.05-5.81l-1.28-.54A8.32,8.32,0,0,0,484.65,244Z"/><path class="cls-4" d="M401.86,226.76c-.34,1-.66,2-.95,2.9,2,4.31,4.09,9.05,6.28,14h0l.27.61.08.2h0q1.54,3.53,3.11,7.2c11,8.17,26.5,17.75,31,20.37,1.2.7,3.93,2,7.68,3.68,8.06,3.62,20.82,9,33.26,14.15-.1-1.62-.13-3.23-.11-4.73v-.05c0-.29,0-.58,0-.86v-.09c0-.28,0-.55,0-.82v-.06c.1-3.33.36-5.74.36-5.74a16.14,16.14,0,0,1-2.75-3.93c-1.31-2.53,3.17-3.92,6.35-9.24,1.34-2.22,2.42-7.19,4.05-12.3a10.68,10.68,0,0,1-4-3.3,12.59,12.59,0,0,1-1.59-1.36A9.92,9.92,0,0,1,482.8,237c-10-4.16-19.48-7.74-26.34-9.51-1.45-.38-2.89-.79-4.31-1.25-18.78-6-34.33-17.83-39.32-17.31-1.49.16-3.32,2.19-5.15,5.17A69.81,69.81,0,0,0,401.86,226.76Z"/><path class="cls-5" d="M532.84,119.72c6-.36,24.87-9.56,26.26-2.62.82,4.14-1.87,22,1,23.3s6.07-1.31,7.37-5.79,6.6-9.13,10.69-4.49,2.93,12.74,3.45,18.83c1,11.81,14.81.47,14.81.47s3.26-11.23-3.83-39.37c-.53-2.1-1.11-4.29-1.76-6.59-1-3.5,1.36-5.53,2.83-8.26a8,8,0,0,0,.68-6.5,19.79,19.79,0,0,0-11-11.94c-9.79-3.7-17.48,1.58-19.91,8.43-2.07,5.83-5.54-3.29-13.27-3.47a10.58,10.58,0,0,0-2.92.34,12.68,12.68,0,0,0-1.51.5c-5.45,2.14-8.43,10.77-10.52,12s-6.72-4.48-11.94.5A15,15,0,0,0,521.56,97c-3.57,4.81-5.46,12.81,1.05,18.34a23.26,23.26,0,0,0,9.13,4.37A3.73,3.73,0,0,0,532.84,119.72Z"/><path class="cls-8" d="M370.25,266.61a12.24,12.24,0,0,1,2.6-9.13,17.29,17.29,0,0,0,2-3.16c-.3-.79-.59-1.57-.88-2.35l-.09.05a28.37,28.37,0,0,1-6.72,3.06s-1.29-25.08-3-24.56-3.15,14.4-3.15,14.4-2-18.73-3.59-17.25-1.21,19.19-1.21,19.19-2.36-18.5-5.2-18.26c-2.4.21,0,14.62.76,19.06.14.81.23,1.28.23,1.28l-.37-1.44c-1.18-4.45-4.77-17.52-5.84-15.2-.38.83.05,4.66,1,9.76a229.36,229.36,0,0,0,6.72,27.52A25.06,25.06,0,0,1,370.25,266.61Z"/><path class="cls-6" d="M389.39,312.88l.66-.59h0c1.27-1.13,2.17-2,2.6-2.47a2.43,2.43,0,0,0,.32-1.53,11.77,11.77,0,0,0-.1-1.21h0c-.11-.85-.31-1.87-.58-3.05h0c-.07-.29-.14-.58-.22-.89h0c-.6-2.37-1.46-5.27-2.53-8.55h0c-.09-.28-.19-.57-.28-.87h0c-.95-2.89-2.05-6.06-3.24-9.4-.09-.27-.19-.53-.28-.79-1.18-3.31-2.46-6.78-3.77-10.34h0c-.1-.26-.19-.52-.29-.77l-.23-.63a22.72,22.72,0,0,0-10.27-5l-.93-.19a25.06,25.06,0,0,0-16.68,3,29.2,29.2,0,0,0-12.42,13.36c3.48,7.5,5.64,16.38,8.23,26.11,6.43,5.65,13.44,9.67,13.6,17a66.8,66.8,0,0,0,.77,8.7l3.15-2.67.33-.29h0c2.26-1.92,4.51-3.81,6.67-5.65h0l.69-.58h0l6.12-5.18.6-.51C384.56,317.09,387.35,314.69,389.39,312.88Z"/><path class="cls-6" d="M493.52,336.7c-8.34-1.37-15.25-10.43-48.13-2l-.5.13c-8.47,2.19-13-.87-17.12-5.7-1.58,2.65-3.53,5.5-5.73,8.47h0c-.16.23-.33.45-.5.68l0,0h0c-1.53,2-3.18,4.12-4.91,6.23h0c-4.46,5.45-9.47,11-14.42,16.31h65.75C472.06,349.06,484.68,341,493.52,336.7Z"/><path class="cls-8" d="M516.19,300.51a.71.71,0,0,1,.16-.35,19.09,19.09,0,0,1,3.39-7.69,25.67,25.67,0,0,1,6.59-6.43c5.15-3.54,8.33-12.69,1.4-14.89-5.61-1.79-9.3,1.78-11,4a12.78,12.78,0,0,0-.86,7.87c.41,2.59,1.12,5.17,1,7.81a11.83,11.83,0,0,1-2.63,6.82c-1.92,2.61-3.48,4.74-2.43,8.14,1,3.09,2.2,6,2.76,9.18a1.85,1.85,0,0,1,0,.23,74.14,74.14,0,0,1,7.93-3.48C519,309.21,515.21,304.91,516.19,300.51Z"/><path class="cls-8" d="M509.8,304.71c-.9-5.57,5.21-8.51,5.38-13.87s-2.68-10.52-.33-15.79a61.93,61.93,0,0,1,3.25-5.64,18,18,0,0,0-.4-9.78c-2.32-6-18.39-3.12-27.21-7.54-1.63,5.11-2.71,10.08-4.05,12.3-3.18,5.32-7.66,6.71-6.35,9.24a16.14,16.14,0,0,0,2.75,3.93s-.26,2.41-.36,5.74c0-.27,0-.54,0-.8a10.44,10.44,0,0,0,4.84-2.39c3.13-2.58,6-.51,5.39,2.39-.36,1.83-4.21,6-10.17,7.6-.11-1.68-.14-3.36-.12-4.92,0,1.5,0,3.11.11,4.73.35,5.84,1.62,11.77,5.22,12.86,5.42,1.64,18.38.72,18.38.72A35.78,35.78,0,0,1,512,316.74c.33-.21.68-.42,1-.63-.12-.75-.25-1.49-.41-2.23C511.94,310.76,510.31,307.84,509.8,304.71Zm-16.9-42.24c-1.07,0-1.66-.74-1.59-1.21a1.42,1.42,0,0,1,1.51-1.27c3.5-.22,6.42,2.89,5.88,4.12-.35.78-1.22,1.2-2.27.13S495.36,262.38,492.9,262.47Zm.84,4.89a1.76,1.76,0,1,1-1.39-2.06A1.76,1.76,0,0,1,493.74,267.36Z"/><path class="cls-8" d="M482.45,284.18c0-.28,0-.55,0-.82C482.46,283.63,482.46,283.9,482.45,284.18Z"/><path class="cls-8" d="M482.44,285.13c0-.29,0-.58,0-.86C482.44,284.55,482.44,284.84,482.44,285.13Z"/><path class="cls-3" d="M482.56,290.1c6-1.59,9.81-5.77,10.17-7.6.58-2.9-2.26-5-5.39-2.39a10.44,10.44,0,0,1-4.84,2.39c0,.26,0,.53,0,.8v.06c0,.27,0,.54,0,.82v.09c0,.28,0,.57,0,.86v.05C482.42,286.74,482.45,288.42,482.56,290.1Z"/><path class="cls-6" d="M595,352.41a21.65,21.65,0,0,0-1.26-3,33.79,33.79,0,0,0-8-9.81c-15.33-13.48-42.84-21.11-45.94-23.27a7.87,7.87,0,0,1-1.64-2.79,15.41,15.41,0,0,1-14.34-1c-.4-.24-.8-.5-1.2-.79a74.14,74.14,0,0,0-7.93,3.48,39.42,39.42,0,0,1,.46,8.88c-.07,1.13-1.82,1.13-1.75,0a38,38,0,0,0-.34-8c-.36.21-.71.42-1,.63-2.41,1.53-4.06,3.1-4.22,4.56-.56,5.38,1.89,8.72-9,13.05-1.47.59-3.28,1.37-5.29,2.35-8.84,4.3-21.46,12.36-25.59,24.1H596.48A27.84,27.84,0,0,0,595,352.41Z"/><path class="cls-6" d="M525.15,311.28a15.39,15.39,0,0,0,1.83.88,13.36,13.36,0,0,0,8,.67,13.65,13.65,0,0,0,2.42-.86,10.38,10.38,0,0,0-1.24-2C533,311.31,529.43,312.56,525.15,311.28Z"/><path class="cls-5" d="M517.7,259.63a18,18,0,0,1,.4,9.78,20.41,20.41,0,0,0,1.15-2.29,23,23,0,0,0,1.65-9.38.88.88,0,0,1,1.76,0,24.48,24.48,0,0,1-1.39,9,45,45,0,0,1-4,7.46c-.19.33-.36.66-.51,1,1.67-2.23,5.36-5.8,11-4,6.93,2.2,3.75,11.35-1.4,14.89a25.67,25.67,0,0,0-6.59,6.43,19.09,19.09,0,0,0-3.39,7.69.9.9,0,0,1,1.53.81c-.62,2.78,1.55,5.4,3.36,7.26a18.06,18.06,0,0,0,3.91,3c4.28,1.28,7.82,0,11-1.27s5.84-2.58,8.62-1.73c.44.14.88.26,1.32.38,3.22-.46,6.57-.32,9.75-1.06,4.92-1.13,6.5-5.56,7.75-9.93a.88.88,0,0,1,1.7.47c-1.28,4.47-3,9.23-7.83,10.84a19.17,19.17,0,0,1-4.08.82c6.56.1,11.37-2.85,14.29-9.33a23.19,23.19,0,0,0,.89-18.18c-.07-.19-.14-.37-.22-.56l-1,.17a.94.94,0,0,1-1.06-.71A20.55,20.55,0,0,1,554.62,277c-8.92-6.91-6.6-30.2-6.6-30.2l.27-.27a8.32,8.32,0,0,1-.44-4.38,15.73,15.73,0,0,0-5.25-5.42c-5-3.23-12.43-4.65-20.91-2-4.77,1.49-11.28,2.52-20.24-2.53a9.84,9.84,0,0,0-1.09-.52,22.86,22.86,0,0,0,6.47,3.67c1.05.38.59,2.08-.47,1.69a24.61,24.61,0,0,1-4.93-2.38c-1.6-1-2.95-2.65-4.63-3.54l-.32-.15a12.88,12.88,0,0,0-10.78,7.22,10.54,10.54,0,0,0-1.05,5.81,7.81,7.81,0,0,0,1.66,2.35c3.12,3,7.64,3.69,11.78,4.16,1.11.13,1.12,1.89,0,1.76-4-.46-8.3-1.09-11.62-3.5a10.68,10.68,0,0,0,4,3.3C499.31,256.51,515.38,253.61,517.7,259.63Z"/><path class="cls-5" d="M566.84,280.21c5.34-.86,10.83-1.79,15.35-5a35.77,35.77,0,0,0,4.36-3.59c3.57-5.49,1-11.22-2.93-14.78a28.39,28.39,0,0,0-7.46-2.16c-4.21-.72-9-1.76-11-6-.47-1,1-1.91,1.52-.89,1.55,3.33,4.92,4.39,8.45,5.08-3.55-1.67-4.3-6-6.75-9.16a9.9,9.9,0,0,1-3.26-2.15,10.85,10.85,0,0,1-.8-.86c-5.25-1.93-10.85,1.26-14.62,4.51a7.52,7.52,0,0,0,.92,2.13c.61,1-.92,1.84-1.52.88a9.47,9.47,0,0,1-.85-1.68l-.27.27s-2.32,23.29,6.6,30.2a20.55,20.55,0,0,0,11.63,4.18A.73.73,0,0,1,566.84,280.21Z"/><path class="cls-5" d="M498.09,252.29c1.12.13,1.11-1.63,0-1.76-4.14-.47-8.66-1.11-11.78-4.16a7.81,7.81,0,0,1-1.66-2.35,8.32,8.32,0,0,1-.23-6.35,9.14,9.14,0,0,1,1.34-2.47c2.1-2.76,7.15-5.76,10.72-4.21l.32.15c1.68.89,3,2.5,4.63,3.54a24.61,24.61,0,0,0,4.93,2.38c1.06.39,1.52-1.31.47-1.69a22.86,22.86,0,0,1-6.47-3.67l-.64-.53c-1.74-1.47-3.37-2.46-5.73-2.27a13.51,13.51,0,0,0-10.7,6.94,10.3,10.3,0,0,0-.49,1.14,9.92,9.92,0,0,0,2.08,10.45,12.59,12.59,0,0,0,1.59,1.36C489.79,251.2,494.07,251.83,498.09,252.29Z"/><path class="cls-5" d="M550.66,247.34a7.52,7.52,0,0,1-.92-2.13,6.73,6.73,0,0,1,2.76-7.43,8.4,8.4,0,0,1,9.11,0,14.34,14.34,0,0,1,2.75,2.91,10.85,10.85,0,0,0,.8.86,9.9,9.9,0,0,0,3.26,2.15l.4.16a7.07,7.07,0,0,0,7.88-2.13c.69-.88-.54-2.13-1.24-1.24a5.32,5.32,0,0,1-5.9,1.76c-2.21-.69-3.52-2.34-4.95-4a9.74,9.74,0,0,0-8.48-3.51,9.19,9.19,0,0,0-8.28,7.43,8.32,8.32,0,0,0,.44,4.38,9.47,9.47,0,0,0,.85,1.68C549.74,249.18,551.27,248.3,550.66,247.34Z"/><path class="cls-5" d="M575.17,252.87c-3.53-.69-6.9-1.75-8.45-5.08-.48-1-2-.13-1.52.89,2,4.27,6.75,5.31,11,6a28.39,28.39,0,0,1,7.46,2.16l.27.13c2.27,1.12,5.07,2.7,6.27,5,1.65,3.23-.77,6.82-3.61,9.61a35.77,35.77,0,0,1-4.36,3.59c-4.52,3.18-10,4.11-15.35,5a.73.73,0,0,0-.59,1,.94.94,0,0,0,1.06.71l1-.17.38-.06c5.16-.87,10.32-2,14.64-5.13l.2-.14c3.67-2.71,8.85-7.19,8.87-12.19s-5.8-8.14-9.89-9.7l-.21-.08A48.88,48.88,0,0,0,575.17,252.87Z"/><path class="cls-5" d="M548.91,310.13c1.47-.11,3-.17,4.48-.33a19.17,19.17,0,0,0,4.08-.82c4.81-1.61,6.55-6.37,7.83-10.84a.88.88,0,0,0-1.7-.47c-1.25,4.37-2.83,8.8-7.75,9.93-3.18.74-6.53.6-9.75,1.06a17.41,17.41,0,0,0-4.11,1.07c-1.57.65-3,1.54-4.59,2.24a13.65,13.65,0,0,1-2.42.86,13.36,13.36,0,0,1-8-.67,15.39,15.39,0,0,1-1.83-.88,18.06,18.06,0,0,1-3.91-3c-1.81-1.86-4-4.48-3.36-7.26a.9.9,0,0,0-1.53-.81.71.71,0,0,0-.16.35c-1,4.4,2.85,8.7,6.41,11.22.4.29.8.55,1.2.79a15.41,15.41,0,0,0,14.34,1c.49-.2,1-.41,1.46-.66A23.14,23.14,0,0,1,548.91,310.13Z"/><path class="cls-5" d="M490.29,266.69a1.76,1.76,0,0,0,3.45.67,1.76,1.76,0,1,0-3.45-.67Z"/><path class="cls-5" d="M498.7,264.11c.54-1.23-2.38-4.34-5.88-4.12a1.42,1.42,0,0,0-1.51,1.27c-.07.47.52,1.25,1.59,1.21,2.46-.09,2.49.7,3.53,1.77S498.35,264.89,498.7,264.11Z"/><path class="cls-5" d="M511.87,305.8c-1.05-3.4.51-5.53,2.43-8.14a11.83,11.83,0,0,0,2.63-6.82c.09-2.64-.62-5.22-1-7.81a12.78,12.78,0,0,1,.86-7.87c.15-.32.32-.65.51-1a45,45,0,0,0,4-7.46,24.48,24.48,0,0,0,1.39-9,.88.88,0,0,0-1.76,0,23,23,0,0,1-1.65,9.38,20.41,20.41,0,0,1-1.15,2.29,61.93,61.93,0,0,0-3.25,5.64c-2.35,5.27.49,10.4.33,15.79s-6.28,8.3-5.38,13.87c.51,3.13,2.14,6.05,2.83,9.17.16.74.29,1.48.41,2.23a38,38,0,0,1,.34,8c-.07,1.13,1.68,1.13,1.75,0a39.42,39.42,0,0,0-.46-8.88,1.85,1.85,0,0,0,0-.23C514.07,311.76,512.83,308.89,511.87,305.8Z"/><path class="cls-8" d="M355.46,196.09c.24,1.55,2.13,3.27,4.24,4.75a21.76,21.76,0,0,1,8.44,11.9c5.1-3,12.55-6.3,17.44-7.07-2.09-10.31-6.77-27.18-10.88-34.7a6.17,6.17,0,0,0-1.57-2.2c-.37-.17-.48.37-.42,1.35a75.31,75.31,0,0,0,2,10c.6,2.4,1.09,4.23,1.09,4.23s-7.68-20.49-9.95-19.45,4.25,18.84,4.25,18.84-6.42-17.4-9.2-16.65,4.48,19.66,4.48,19.66-7-14.72-9.07-14.58c-.88.06.77,5,3,10.75,3,7.86,7.08,17.15,7.08,17.15S354.89,192.41,355.46,196.09Z"/><path class="cls-3" d="M430.9,321.66c0,.3-.1.59-.15.86-5.06-1.28-10.21-2.26-15.26-3.54-8.27-2.1-15.92-5.36-22.52-10.69h0a2.43,2.43,0,0,1-.32,1.53c-.43.48-1.33,1.34-2.6,2.47,2.38,1.78,4.52,3.92,6.76,5.86,3.94,3.43,8,6.71,12.17,9.89s8.65,6.42,13.06,9.52c2.2-3,4.15-5.82,5.73-8.47q1.22-2,2.12-3.92A12.65,12.65,0,0,0,430.9,321.66Z"/><path class="cls-3" d="M391.14,208.58c-.38-.83-.63-1.41-.73-1.7-.48-1.34-2.32-1.61-4.83-1.21-4.89.77-12.34,4.08-17.44,7.07a21.41,21.41,0,0,0-5.29,3.88c-.46.59,0,3,1,6.63-.09-.29-.17-.58-.25-.85Z"/><path class="cls-3" d="M368.16,236.06l-.23-.63Z"/><path class="cls-3" d="M376.94,259.76a207,207,0,0,0,30.25-16.07c-2.19-5-4.31-9.72-6.28-14-.85-1.85-1.66-3.63-2.44-5.31-.55-1.19-1.08-2.34-1.59-3.43a152.06,152.06,0,0,1-28.67,15.31c1.72,4.79,3.71,10.15,5.81,15.74.29.78.58,1.56.88,2.35C375.57,256.12,376.26,257.93,376.94,259.76Zm-5-13.34a68.27,68.27,0,0,0,6.53-3.5l10.83-6.23L401,230c.12.26.24.53.37.8l-12.27,7.05-11.43,6.57a55.73,55.73,0,0,1-5.46,2.87C372.15,247,372,246.69,371.94,246.42Z"/><path class="cls-3" d="M412.71,303.75c-3.47.21-7,.3-10.44.26-1.57,0-3.14-.06-4.71-.13-1.16-.05-4.07-.71-5.27.15.27,1.18.47,2.2.58,3.05,7.15,6,15.58,9.32,24.64,11.5,4.45,1.06,8.95,2,13.39,3.08.59-4,0-9.42-1.32-15.79-.28-1.29-.59-2.63-.93-4A146.81,146.81,0,0,1,412.71,303.75Z"/><path class="cls-3" d="M428.44,301l.21.83Z"/><path class="cls-3" d="M377.25,260.57c0-.1-.08-.2-.11-.3,1.44,3.85,2.9,7.72,4.31,11.52l.23.63,0-.05q15.93-6.94,31.52-14.64l.33.82q-15.6,7.68-31.54,14.64c1.31,3.56,2.59,7,3.77,10.34v0a179,179,0,0,0,33.46-10.66c.11.27.21.54.31.81-2.78-7.35-5.82-14.81-8.85-22q-1.56-3.68-3.11-7.2A205.93,205.93,0,0,1,377.25,260.57Z"/><path class="cls-3" d="M396.51,220.12l.34.73c-2.35-5-4.23-9-5.35-11.48l-27.61,13.89c.93,3.19,2.33,7.36,4,12.14A151,151,0,0,0,396.51,220.12Z"/><path class="cls-3" d="M407.19,243.7l.27.61Z"/><path class="cls-3" d="M382.75,351.2c-5.77-5.93-11-12.41-16.19-18.86l.34-.28-3.15,2.67-4.37,3.73a114.39,114.39,0,0,0,11.18,19.3c.74,1,1.45,2,2.13,3h19.63C389.23,357.51,385.89,354.43,382.75,351.2Z"/><path class="cls-3" d="M422,337.56c-.16.23-.33.45-.5.68C421.7,338,421.87,337.79,422,337.56Z"/><path class="cls-3" d="M416,345.18c-12.6-7.17-25-14.65-35.39-24.77l.06-.05-6.12,5.18c8.18,5.78,14.62,13.71,21.88,20.55q5.16,4.88,10.65,9.36l-.6.66q-5-4.11-9.75-8.52c-7.6-7.09-14.29-15.48-22.87-21.47-2.16,1.84-4.41,3.73-6.67,5.65,5.31,6.59,10.63,13.2,16.55,19.22,3.22,3.28,6.62,6.43,9.74,9.81h8.66c4.95-5.27,10-10.86,14.42-16.31Z"/><path class="cls-3" d="M397.18,319.63c-2.57-2.21-5-4.73-7.79-6.75h0c-2,1.81-4.83,4.21-8.08,7h0c10.35,10.07,22.73,17.52,35.28,24.65,1.73-2.11,3.38-4.19,4.91-6.23-4.38-3.08-8.72-6.22-13-9.47C404.67,325.84,400.87,322.8,397.18,319.63Z"/><path class="cls-3" d="M398.24,303c3.7.14,7.4.15,11.11,0a145.74,145.74,0,0,0,19.09-2,270.42,270.42,0,0,0-8.94-27.35A179.89,179.89,0,0,1,386,284.35v0c1.19,3.34,2.29,6.51,3.24,9.4a151.42,151.42,0,0,0,35.49-5.22c.1.28.19.56.28.84a152.51,152.51,0,0,1-35.49,5.25c1.07,3.28,1.93,6.18,2.53,8.55C393.75,302.23,396.57,303,398.24,303Z"/><path class="cls-7" d="M383.78,351c-5.92-6-11.24-12.63-16.55-19.22h0l-.33.29-.34.28c5.21,6.45,10.42,12.93,16.19,18.86,3.14,3.23,6.48,6.31,9.57,9.6h1.2C390.4,357.42,387,354.27,383.78,351Z"/><path class="cls-7" d="M373.9,326.12h0c8.58,6,15.27,14.38,22.87,21.47q4.74,4.41,9.75,8.52l.6-.66q-5.49-4.49-10.65-9.36c-7.26-6.84-13.7-14.77-21.88-20.55h0Z"/><path class="cls-7" d="M381.31,319.85l-.6.51-.06.05C391,330.53,403.44,338,416,345.18l.56-.69h0c-12.55-7.13-24.93-14.58-35.28-24.65Z"/><path class="cls-7" d="M396.81,318.15c-2.24-1.94-4.38-4.08-6.76-5.86h0l-.66.59h0c2.77,2,5.22,4.54,7.79,6.75,3.69,3.17,7.49,6.21,11.35,9.16,4.26,3.25,8.6,6.39,13,9.47h0l0,0c.17-.23.34-.45.5-.68h0c-4.41-3.1-8.78-6.26-13.06-9.52S400.75,321.58,396.81,318.15Z"/><path class="cls-7" d="M397.56,303.88c1.57.07,3.14.11,4.71.13,3.48,0,7-.05,10.44-.26a146.81,146.81,0,0,0,15.94-1.88h0v0l-.21-.83h0a145.74,145.74,0,0,1-19.09,2c-3.71.14-7.41.13-11.11,0-1.67-.07-4.49-.8-6.17.11h0c.08.31.15.6.22.89h0C393.49,303.17,396.4,303.83,397.56,303.88Z"/><path class="cls-7" d="M417.51,318.58c-9.06-2.18-17.49-5.51-24.64-11.5h0a11.77,11.77,0,0,1,.1,1.21h0c6.6,5.33,14.25,8.59,22.52,10.69,5.05,1.28,10.2,2.26,15.26,3.54.05-.27.1-.56.15-.86h0C426.46,320.54,422,319.64,417.51,318.58Z"/><path class="cls-7" d="M425,289.34c-.09-.28-.18-.56-.28-.84a151.42,151.42,0,0,1-35.49,5.22h0c.09.3.19.59.28.87h0A152.51,152.51,0,0,0,425,289.34Z"/><path class="cls-7" d="M419.5,273.67h0c-.1-.27-.2-.54-.31-.81a179,179,0,0,1-33.46,10.66v0c.09.26.19.52.28.79v0A179.89,179.89,0,0,0,419.5,273.67Z"/><path class="cls-7" d="M413.51,258.55l-.33-.82q-15.58,7.69-31.52,14.64l0,.05c.1.25.19.51.29.77h0Q397.92,266.25,413.51,258.55Z"/><path class="cls-7" d="M376.94,259.76h0l.2.51c0,.1.07.2.11.3a205.93,205.93,0,0,0,30.29-16.06h0l-.08-.2-.27-.61h0A207,207,0,0,1,376.94,259.76Z"/><path class="cls-7" d="M389.14,237.8l12.27-7.05c-.13-.27-.25-.54-.37-.8l-11.74,6.74-10.83,6.23a68.27,68.27,0,0,1-6.53,3.5c.1.27.21.54.31.82a55.73,55.73,0,0,0,5.46-2.87Z"/><path class="cls-7" d="M396.88,220.92h0l0-.07-.34-.73a151,151,0,0,1-28.59,15.28h0v0l.23.63,0,.17h0A152.06,152.06,0,0,0,396.88,220.92Z"/><path class="cls-7" d="M391.5,209.37h0l-.36-.79h0l-27.5,13.82c.08.27.16.56.25.85h0Z"/><path class="cls-5" d="M176.18,250.19a23.75,23.75,0,0,0,2.91,8.77c5.28-3.15,9.83-7.14,11.27-12,0,0,0,0,0-.06,2.48-8.44-1.95-13.06-5.68-15.35a18.81,18.81,0,0,1-7.91,3.52C177.58,240,175.49,244.64,176.18,250.19Z"/><path class="cls-8" d="M157,305.89a61.8,61.8,0,0,1-9-2.95c-8.27-3.41-9.53-12.56-9.8-24.86s-1.12-24.58-1.12-24.58c-1.48-3.13-9.92-3.53-11,5.05-.47,3.64,1.41,6.3,2.93,8.13,4,4.83-.1,12-5.38,15.37a18.41,18.41,0,0,1-3.56,1.81A72.33,72.33,0,0,1,119,302.05c-.11.51-.23,1-.36,1.51a30.79,30.79,0,0,1-3,7.73q-.32.56-.66,1.08a19.84,19.84,0,0,1-2,2.58c-.69.76-1.3,1.41-1.84,1.95h0s-.37,4.91-1,11.66l.2-1.05s12.64,17,39.36,12.34c2.48-7.54,4.5-13.19,4.5-13.19h0C153,320.29,155.09,311.81,157,305.89Z"/><path class="cls-8" d="M180.78,267.9c2.13-3.07.29-5.26-1.69-8.94a23.75,23.75,0,0,1-2.91-8.77c-.69-5.55,1.4-10.24.61-15.1a23.91,23.91,0,0,1-8.34.06c-10.8-1.72-22.25,4.92-22.88,8.56,0,0-2.1,21.61-1.8,29.92s8,17.28,16.38,7.43C167.9,272,177,274.41,177,274.41c.17-1.6.35-2.8.35-2.8A22.09,22.09,0,0,0,180.78,267.9ZM167,252.39c-1.21.87-2,.31-2.21-.51-.33-1.3,3.08-3.88,6.49-3.07a1.43,1.43,0,0,1,1.28,1.5,1.38,1.38,0,0,1-1.78.93C168.35,250.73,168.19,251.51,167,252.39Zm6.36,4.13a1.76,1.76,0,1,1-1.8-1.71A1.76,1.76,0,0,1,173.34,256.52Z"/><path class="cls-6" d="M68,320.2c-2.5.42-5.2.94-8,1.58L59,322c-1.52.35-3.08.73-4.66,1.15l-.93.24-2.14.59-.89.26c-4.1,1.19-8.3,2.59-12.45,4.24l-1.09.44A107.09,107.09,0,0,0,27,333.44L26,334c-1.82,1-3.6,2.05-5.31,3.16l-.86.56q-2.29,1.53-4.4,3.19c-.36.29-.72.58-1.07.88A48.26,48.26,0,0,0,10,345.85h0A45.18,45.18,0,0,0,0,360.8H95.19C85.19,349.56,69.34,327.06,68,320.2Z"/><path class="cls-5" d="M171.54,254.81a1.76,1.76,0,1,0,1.8,1.71A1.75,1.75,0,0,0,171.54,254.81Z"/><path class="cls-5" d="M172.54,250.31a1.43,1.43,0,0,0-1.28-1.5c-3.41-.81-6.82,1.77-6.49,3.07.21.82,1,1.38,2.21.51s1.37-1.66,3.78-1.15A1.38,1.38,0,0,0,172.54,250.31Z"/><path class="cls-7" d="M149.72,339.85c-26.72,4.7-39.36-12.34-39.36-12.34l-.2,1.05c-1,10-2.56,24.1-4.48,32.24h37.71C145.2,354,147.62,346.23,149.72,339.85Z"/><path class="cls-6" d="M191,347.77v0h0Z"/><path class="cls-6" d="M190.48,348.9c-1.73,2.43-8,7-15.44,11.9h12.33A47.88,47.88,0,0,1,190.48,348.9Z"/><path class="cls-5" d="M177.92,282.8c0,.35.05.71.08,1.08C178,283.51,178,283.15,177.92,282.8Z"/><path class="cls-5" d="M178,283.92c0,.37.06.74.08,1.12C178.06,284.66,178,284.29,178,283.92Z"/><path class="cls-5" d="M177.82,281.71c0,.34.06.68.09,1C177.88,282.39,177.85,282.05,177.82,281.71Z"/><path class="cls-5" d="M115.6,223.16c-.22.72-.39,1.41-.54,2.08-1.7,7.89,1.66,11.6,1.66,11.6s-7.08,3.2-5.34,12.89l0,.19h0c0,.29.11.58.17.89.69,3.5,1.89,8.44,3.18,13.43l.39,1.53c2.4,9.19,4.94,18.09,4.94,18.09a18.41,18.41,0,0,0,3.56-1.81c5.28-3.41,9.39-10.54,5.38-15.37-1.52-1.83-3.4-4.49-2.93-8.13,1.1-8.58,9.54-8.18,11-5.05,0,0,.85,12.29,1.12,24.58s1.53,21.45,9.8,24.86a61.8,61.8,0,0,0,9,2.95c8.87,2.15,16.29,1.63,18.93-1.45s2.61-12,2.13-19.39c.1,1.56.18,3.19.22,4.82-12.51-1.52-11.46-10.15-7.43-11.53,3-1,3.81,2.47,6.86,2.32l.09,1c-.09-1.05-.19-2-.28-2.91-.29-2.64-.54-4.36-.54-4.36h0s-9.1-2.43-16.85,6.65c-8.39,9.85-16.09.88-16.38-7.43s1.8-29.92,1.8-29.92c.63-3.64,12.08-10.28,22.88-8.56a23.91,23.91,0,0,0,8.34-.06,18.81,18.81,0,0,0,7.91-3.52,17.94,17.94,0,0,0,7.09-13,11.06,11.06,0,0,0-.47-3.79c-1.67-5.22-9-7.35-18.55-7.54a111.55,111.55,0,0,0-20.88,1.91,148.46,148.46,0,0,0-18.62,4.52C123.66,216.66,116.49,220.25,115.6,223.16Z"/><path class="cls-3" d="M178,283.92v0c0-.37-.05-.73-.08-1.08v-.05c0-.36-.06-.7-.09-1v0l-.09-1c-3,.15-3.88-3.34-6.86-2.32-4,1.38-5.08,10,7.43,11.53,0-1.63-.12-3.26-.22-4.82h0C178.06,284.66,178,284.29,178,283.92Z"/><path class="cls-3" d="M110.16,328.56c.66-6.75,1-11.66,1-11.66h0a19.41,19.41,0,0,0-4.13-1.64l-1-.27c-4.87-1.29-13.28-2.36-25.44,0l-1,.19c-1.31.27-2.66.58-4.06.94l-.89.23c-2,.53-4.1,1.14-6.28,1.86-.59.2-.73.9-.52,2,1.38,6.86,17.23,29.36,27.23,40.6h10.49C107.6,352.66,109.19,338.58,110.16,328.56Z"/><path class="cls-3" d="M190.48,348.9c.16-.38.32-.76.49-1.13v0h0c-.39-4.39-17.18-19.06-36.75-21.09h0s-2,5.65-4.5,13.19c-2.1,6.38-4.52,14.11-6.33,20.95H175C182.52,355.94,188.75,351.33,190.48,348.9Z"/><path class="cls-5" d="M359.38,338.46c-4.71-10.29-7.55-20.23-10-29.41-2.59-9.73-4.75-18.61-8.23-26.11-4-8.6-9.74-15.4-19.91-19.63a57.93,57.93,0,0,0-13.12-3.58c-6.38-1-16.48,1-25.16,6.48-6.95,4.39-13,11-15.49,20-5.16,18.73-12.07,25.82-20.08,29.11-8.81,3.61-18.95,2.62-29.57,7.43a66.32,66.32,0,0,0-11.57,6.61A45,45,0,0,0,191,347.75v0c-.17.37-.33.75-.49,1.13a47.88,47.88,0,0,0-3.11,11.9H372.69c-.68-1-1.39-2-2.13-3A114.39,114.39,0,0,1,359.38,338.46Z"/><path class="cls-5" d="M541.43,137.27a1.76,1.76,0,0,0,.8,3.42,1.77,1.77,0,0,0,1.31-2.12A1.75,1.75,0,0,0,541.43,137.27Z"/><path class="cls-5" d="M538.65,131.15a1.43,1.43,0,0,0-.86,1.77,1.37,1.37,0,0,0,2,.46c2.21-1.1,2.56-.38,4,.17s2-.2,2-1.05C545.7,131.16,541.75,129.51,538.65,131.15Z"/><path class="cls-3" d="M489,77.12c.76-3.59-2.06-5.79-5.22-3.41a14.66,14.66,0,0,1-4.42,2.39c-1.11.37-2.21.61-3.52,1,0,0,1.84,10.57,3.94,10.34.89-.09,2.55-1.31,4.22-3C486.29,82.23,488.59,79.2,489,77.12Z"/><path class="cls-7" d="M478.67,40.11a16.48,16.48,0,0,0,6.73-4.27c-.74,1-1.14,2.78.25,3.52,2.7,1,4.94-.4,7.06-2.07a7.57,7.57,0,0,1-.25-2.77l22-6.16s.6,3.53-11.3,9.75l-.15.07c.62,2.43.93,5.33,1.84,7.2a14.45,14.45,0,0,0,2.05,3.44A2.66,2.66,0,0,0,509.13,50c4.59-.66,3.92-10.4,12.24-9.37,6.46.8,8.32,9.8,5.9,15.85a120.13,120.13,0,0,1,7.86,12.08.14.14,0,0,1,0,.06,18.71,18.71,0,0,0,3.09-.86,64.16,64.16,0,0,0,6.16-16,51.14,51.14,0,0,0,1.48-13.45c-.26-8.28-4.6-18-12.48-25-.87-.78-1.79-1.53-2.75-2.24a24.27,24.27,0,0,0-2.53-2.24q-.9-.68-1.86-1.26a31.31,31.31,0,0,0-8.83-3.77,34.62,34.62,0,0,0-5.9-1,35.82,35.82,0,0,0-5.95,0l-2.08.22a26.06,26.06,0,0,0-3.79,1.41c-1.22.56-2.4,1.21-3.58,1.89a8.4,8.4,0,0,1-2.06,1.52,20,20,0,0,1-3,1.73c-1,.49-35,9.15-23.82,30.68.43.82,2.55.89,4.67.74,1.76-.12,3.51-.38,4.28-.48A15,15,0,0,0,478.67,40.11Z"/><path class="cls-7" d="M533.81,67.85a17.33,17.33,0,0,0-1.29-2.2c-.71-1.17-1.45-2.33-2.2-3.48-1.09-1.64-2.24-3.24-3.39-4.84a8.32,8.32,0,0,0,2.19,9.14c1.82,1.63,3.21,2.29,4.91,2.26C534.1,68.54,534,68.35,533.81,67.85Z"/><path class="cls-5" d="M480.38,53.94a1.76,1.76,0,1,0,2.11,1.3A1.75,1.75,0,0,0,480.38,53.94Z"/><path class="cls-7" d="M477.64,46.42a1.43,1.43,0,0,0-.85,1.77,1.38,1.38,0,0,0,1.95.46c2.21-1.1,2.56-.38,3.95.16s2-.2,2-1C484.69,46.42,480.74,44.78,477.64,46.42Z"/><path class="cls-7" d="M514.44,28.36l-22,6.16a7.57,7.57,0,0,0,.25,2.77c.68,2.31,3,4.67,10.28.89l.15-.07C515,31.89,514.44,28.36,514.44,28.36Z"/><path class="cls-5" d="M552,187.35c4.09-.22,12.13-.54,17.56-5.26,3.21-2.8,5.51-7.15,5.5-13.94,0-14.69-7.14-8.64-7.61-4.61s-.2,7.72-3.09,9.66c-7.34,4.93-21.58,4.71-20.79,7.73.06.22.11.43.18.65C544.58,184.46,546,187.66,552,187.35Z"/><path class="cls-5" d="M536.64,159.47a4.5,4.5,0,0,0,.65.29c1,.32,2.14-.09,4.81-1.66,3.23-1.89,6.12-1.14,5.77-3.28-.72-4.35-10.89,2.48-10.89,2.48a3.66,3.66,0,0,0-.47.52C536.15,158.3,535.84,159,536.64,159.47Z"/><path class="cls-5" d="M69.71,233.72h0A30.22,30.22,0,0,0,81,228a38.31,38.31,0,0,0,7.37-8.14c-1.51-5.41-1.07-11.35-.83-16.87.09-2.05.26-4.11.48-6.15a22.46,22.46,0,0,1,.69-4.57,11.94,11.94,0,0,1-5-16c2-3.76,4.7-4.14,7.15-3.33a12.11,12.11,0,0,0,14.56-5.75c3.88-7.35,6.39-16.31,7.61-21.34.58-2.4.87-3.9.87-3.9a49.26,49.26,0,0,0-48.52-.54c-6,3.25-10.93,9.77-15,17.9l-1.85-.54h0c-2.89,1.92-7.94,4.28-13.09,7.73-9.29,6.22-18.93,16-16.95,33a39.94,39.94,0,0,0,13.18,25.33A40.64,40.64,0,0,0,69.71,233.72Z"/><path class="cls-5" d="M91.17,213.8a158.7,158.7,0,0,0-.58-16.89,37.68,37.68,0,0,0-.57-3.79c0-.07,0-.16-.07-.25l-.36-.15c0,.13-.07.24-.08.28-.13.58-.22,1.16-.31,1.74a82.08,82.08,0,0,0-.75,8.29c-.23,5.27-.54,10.67.6,15.86A37.77,37.77,0,0,0,91.2,215Z"/><path class="cls-5" d="M92.07,208.7c0,1.4,0,2.8.05,4.21a44.93,44.93,0,0,0,3-11.85A7.7,7.7,0,0,0,91,193.3c.23,1.19.38,2.41.52,3.61A108.13,108.13,0,0,1,92.07,208.7Z"/><path class="cls-3" d="M90.33,222.39c1.39-.39,1.6-3,1.68-4.14.12-1.76.13-3.55.11-5.34,0-1.41,0-2.81-.05-4.21a108.13,108.13,0,0,0-.6-11.79c-.14-1.2-.29-2.42-.52-3.61,0-.08,0-.16,0-.24a3.7,3.7,0,0,0-.6-1.77c-.6-.57-1-.18-1.34.46-.08.18-.15.37-.22.56a22.46,22.46,0,0,0-.69,4.57c-.22,2-.39,4.1-.48,6.15-.24,5.52-.68,11.46.83,16.87l.09.36C88.73,221,89.19,222.7,90.33,222.39ZM88.45,203a82.08,82.08,0,0,1,.75-8.29c.09-.58.18-1.16.31-1.74,0,0,0-.15.08-.28s.11-.41.15-.59c0,.22.14.5.21.74,0,.09,0,.18.07.25a37.68,37.68,0,0,1,.57,3.79,158.7,158.7,0,0,1,.58,16.89l0,1.19a16.44,16.44,0,0,1-.33,5c0,.11-.31,1.18-.57,1.29-.46.2-.3.11-.58-.22a5.82,5.82,0,0,1-.66-2.19h0C87.91,213.7,88.22,208.3,88.45,203Z"/><path class="cls-3" d="M527.27,56.48a.76.76,0,0,0-.08-.11c-.6-.82-1.78-3.19-2.92-3.33-.7-.08-1.41,1-1.94,1.38-4.56,3.57-9.63,7-13.52,11.33h0l-.06.07c-.58.93-.1,1.74.34,2.68a24.74,24.74,0,0,0,2.6,4c2.34,3.23,4.58,6.54,6.93,9.77a.42.42,0,0,0,.63.08q8-6.51,15.83-13.3a.4.4,0,0,0,.08-.42.14.14,0,0,0,0-.06A120.13,120.13,0,0,0,527.27,56.48Zm6.19,12.9a83.22,83.22,0,0,1-7.35,6.27q-3.51,2.94-7.07,5.83c-1.91-2.63-3.68-5.34-5.57-8-.74-1-1.39-2.09-2.1-3.11s-2.72-2.83-1.95-4.14a68.42,68.42,0,0,1,8.08-7q2.07-1.65,4.17-3.29c.54-.42,1.09-.83,1.62-1.27.3-.24.56-.59.92-.61s1.22,1.2,1.42,1.48l1.3,1.79c1.15,1.6,2.3,3.2,3.39,4.84.75,1.15,1.49,2.31,2.2,3.48a17.33,17.33,0,0,1,1.29,2.2c.21.5.29.69.22.88A3.09,3.09,0,0,1,533.46,69.38Z"/></g></g></svg>