<svg width="639" height="512" viewBox="0 0 639 512" fill="none" xmlns="http://www.w3.org/2000/svg">
<g clip-path="url(#clip0)">
<path d="M615.6 317.9C613.9 335.1 611.1 352.6 606.6 369.5C600.1 393.8 590.1 416.8 574.7 435.8C570.3 441.3 565.4 446.4 560 451.2C553.9 456.6 547.4 461.3 540.6 465.4C540.3 465.6 539.9 465.8 539.6 466C527.4 473.2 514.2 478.6 500.3 482.6C500 482.7 499.6 482.8 499.3 482.9C486.6 486.6 473.4 489.1 460 491.1C459.7 491.2 459.3 491.2 459 491.3C446 493.2 432.8 494.5 419.7 495.7C419.4 495.7 419 495.8 418.7 495.8C413.1 496.3 407.6 496.8 402.1 497.2C398.4 497.5 394.8 497.8 391.1 498.2C387.4 498.5 383.8 498.9 380.1 499.2C379.9 499.2 379.7 499.2 379.4 499.3C379.1 499.3 378.7 499.4 378.4 499.4C376.3 499.6 374.3 499.8 372.2 500C371.1 500.1 370.1 500.2 369 500.3C364.1 500.8 359.2 501.3 354.3 501.8C351.8 502 349.3 502.3 346.8 502.5C344.2 502.8 341.7 503 339.1 503.3C338.8 503.3 338.4 503.4 338.1 503.4C337.5 503.5 336.9 503.5 336.4 503.6C334.4 503.8 332.4 504 330.4 504.2C326.5 504.6 322.7 505 318.8 505.3C317.2 505.4 315.6 505.6 314 505.7C312.3 505.9 310.7 506 309 506.2C305.6 506.5 302.2 506.8 298.8 507.1C298.5 507.1 298.1 507.2 297.8 507.2C296.1 507.3 294.5 507.5 292.8 507.6C291.5 507.7 290.3 507.8 289 507.9C288.8 507.9 288.7 507.9 288.6 507.9C286.3 508.1 284 508.3 281.6 508.4C279.1 508.6 276.6 508.8 274.1 508.9C272.9 509 271.8 509.1 270.6 509.1C268.7 509.2 266.8 509.4 264.8 509.5C262.7 509.6 260.7 509.7 258.6 509.9C258.5 509.9 258.5 509.9 258.4 509.9C258.1 509.9 257.7 509.9 257.4 509.9C255.4 510 253.4 510.1 251.4 510.2C250.1 510.3 248.8 510.3 247.4 510.4C243.5 510.6 239.6 510.7 235.8 510.9H235.7C234.1 510.9 232.5 511 230.8 511C229.2 511 227.6 511.1 226.1 511.1C225.8 511.1 225.5 511.1 225.2 511.1C224 511.1 222.9 511.1 221.7 511.2C220.5 511.2 219.3 511.2 218.1 511.2C217.8 511.2 217.5 511.2 217.2 511.2H217.1H216.7C206.6 511.3 196.5 511.2 186.4 510.8C183.5 510.7 180.7 510.6 177.8 510.4C177.5 510.4 177.1 510.4 176.8 510.3C176.4 510.3 176 510.3 175.7 510.2C174.5 510.1 173.2 510.1 172 510C171.6 510 171.2 510 170.9 509.9C169.4 509.8 167.9 509.7 166.4 509.6C165.6 509.5 164.8 509.5 164 509.4C163.1 509.3 162.3 509.3 161.4 509.2C160.9 509.2 160.3 509.1 159.8 509.1C158.6 509 157.4 508.9 156.2 508.7C155.2 508.6 154.2 508.5 153.1 508.4C152.4 508.3 151.6 508.2 150.9 508.1C148.2 507.8 145.6 507.4 142.9 507.1C141.7 506.9 140.5 506.7 139.3 506.6C138.7 506.5 138.1 506.4 137.5 506.3C137.2 506.3 136.9 506.2 136.5 506.1C136.3 506.1 136.1 506 135.8 506C135.2 505.9 134.5 505.8 133.9 505.7C131.9 505.3 129.8 505 127.8 504.6C127 504.5 126.3 504.3 125.6 504.2C125.4 504.2 125.2 504.1 125 504.1C123.9 503.9 122.8 503.6 121.7 503.4C120.3 503.1 118.9 502.8 117.5 502.4C109.9 500.6 102.4 498.4 95.0005 495.9C81.1005 491.1 67.7005 484.8 55.3005 476.6C27.2005 458.2 4.50045 429.2 0.400454 395.8C-2.99955 368.5 6.20045 341.3 10.0005 314.1C19.6005 246.7 -1.99955 178.1 20.2005 112.3C22.5005 105.5 25.4005 98.9002 28.7005 92.6002C38.2005 75.6002 51.0005 60.7002 65.9005 48.2002C74.2005 41.2002 83.3004 35.0002 92.7004 29.6002C107.9 20.9002 124.2 14.3002 140.5 9.80015C199.2 -6.19985 261.4 0.500152 321.9 7.30015C369.1 12.6002 416.3 17.9002 463.4 23.2002C465.5 23.4002 467.6 23.7002 469.7 23.9002C470 23.9002 470.3 24.0002 470.6 24.0002C480.2 25.1002 489.9 26.2002 499.5 28.0002C504.2 28.9002 508.8 29.9002 513.4 31.1002C517.8 32.3002 522.1 33.6002 526.3 35.2002C531.6 37.2002 536.7 39.6002 541.6 42.5002C547.2 45.8002 552.3 49.7002 557 54.0002C580.2 75.3002 592.9 107.5 601.2 138.6C616.6 196.9 621.5 257.9 615.6 317.9Z" fill="#FAF8F7"/>
<path d="M522.8 382.4L265.2 457.7C265.2 457.7 95.4 431.7 95.4 429.7C95.4 429.1 88.3 392.8 78.1 341.2C77.4 337.9 76.8 334.5 76.1 331C62.2 260.2 43.4 165 29 92.6002C38.2 75.6002 51 60.7002 65.9 48.2002C74.2 41.2002 83.3 35.0002 92.7 29.6002C107.9 20.9002 124.2 14.3002 140.5 9.80015C199.2 -6.19985 261.4 0.500152 321.9 7.30015C369.1 12.6002 416.3 17.9002 463.4 23.2002C465.5 23.4002 467.6 23.7002 469.7 23.9002C470 23.9002 470.3 24.0002 470.6 24.0002C480.2 25.1002 489.9 26.2002 499.5 28.0002C504.2 28.9002 508.8 29.9002 513.4 31.1002C519 138.2 522.8 382.4 522.8 382.4Z" fill="#6B3939"/>
<path d="M606.6 369.5C604 379.2 600.9 388.6 597.1 397.7C591.3 411.5 584 424.4 574.7 435.8C570.3 441.3 565.4 446.4 560 451.2C553.9 456.6 547.4 461.3 540.6 465.4C540.3 465.6 539.9 465.8 539.6 466C527.4 473.2 514.2 478.6 500.3 482.6C500 482.7 499.6 482.8 499.3 482.9C486.6 486.6 473.4 489.1 460 491.1C459.7 491.2 459.3 491.2 459 491.3C446 493.2 432.8 494.5 419.7 495.7C419.4 495.7 419 495.8 418.7 495.8C413.1 496.3 407.6 496.8 402.1 497.2C398.4 497.5 394.8 497.8 391.1 498.2C387.4 498.5 383.8 498.9 380.1 499.2C379.9 499.2 379.7 499.2 379.4 499.3C379.1 499.3 378.7 499.4 378.4 499.4C376.4 499.6 374.4 499.8 372.3 500H372.2C371.1 500.1 370.1 500.2 369 500.3C364.1 500.8 359.2 501.3 354.3 501.8C351.8 502 349.3 502.3 346.8 502.5C344.2 502.8 341.7 503 339.1 503.3C338.8 503.3 338.4 503.4 338.1 503.4C337.5 503.5 336.9 503.5 336.4 503.6C334.4 503.8 332.4 504 330.4 504.2C326.5 504.6 322.7 505 318.8 505.3C317.2 505.4 315.6 505.6 314 505.7C312.3 505.9 310.7 506 309 506.2C305.6 506.5 302.2 506.8 298.8 507.1C298.5 507.1 298.1 507.2 297.8 507.2C296.1 507.3 294.5 507.5 292.8 507.6C291.5 507.7 290.3 507.8 289 507.9C288.8 507.9 288.7 507.9 288.6 507.9C286.3 508.1 284 508.3 281.6 508.4C279.1 508.6 276.6 508.8 274.1 508.9C272.9 509 271.8 509.1 270.6 509.1C268.7 509.2 266.8 509.4 264.8 509.5C262.7 509.6 260.7 509.7 258.6 509.9H258.4C258.1 509.9 257.7 509.9 257.4 509.9C255.4 510 253.4 510.1 251.4 510.2C250.1 510.3 248.8 510.3 247.4 510.4C243.5 510.6 239.6 510.7 235.8 510.9H235.7C234.1 510.9 232.5 511 230.8 511C229.2 511 227.6 511.1 226.1 511.1C225.8 511.1 225.5 511.1 225.2 511.1C224 511.1 222.9 511.1 221.7 511.2C220.5 511.2 219.3 511.2 218.1 511.2H217.2H217.1C217 511.2 216.8 511.2 216.7 511.2C206.6 511.3 196.5 511.2 186.4 510.8C183.5 510.7 180.7 510.6 177.8 510.4C177.5 510.4 177.1 510.4 176.8 510.3C176.4 510.3 176 510.3 175.7 510.2C174.5 510.1 173.2 510.1 172 510C171.6 510 171.2 510 170.9 509.9C169.4 509.8 167.9 509.7 166.4 509.6C165.6 509.5 164.8 509.5 164 509.4C163.1 509.3 162.3 509.3 161.4 509.2C160.9 509.2 160.3 509.1 159.8 509.1C158.6 509 157.4 508.9 156.2 508.7C155.2 508.6 154.2 508.5 153.1 508.4C152.4 508.3 151.6 508.2 150.9 508.1C148.2 507.8 145.6 507.4 142.9 507.1C141.7 506.9 140.5 506.7 139.3 506.6C138.7 506.5 138.1 506.4 137.5 506.3C137.2 506.3 136.9 506.2 136.5 506.1C136.3 506.1 136.1 506 135.8 506C135.2 505.9 134.5 505.8 133.9 505.7C131.9 505.3 129.8 505 127.8 504.6C127 504.5 126.3 504.3 125.6 504.2C125.4 504.2 125.2 504.1 125 504.1C123.9 503.9 122.8 503.6 121.7 503.4C120.3 503.1 118.9 502.8 117.5 502.4C109.9 500.6 102.4 498.4 95 495.9L86.7 399.3C86.7 399.3 84.7 368.8 91.7 370.8C93 371.2 109.8 369.5 136.4 366.6C136.7 366.6 137.1 366.5 137.4 366.5C148.9 365.3 162.1 363.8 176.7 362.1C177 362.1 177.4 362 177.7 362C189.9 360.6 203.1 359.1 217 357.5C217.3 357.5 217.7 357.4 218 357.4C230.6 355.9 243.8 354.4 257.3 352.8C257.6 352.8 258 352.7 258.3 352.7C271.1 351.2 284.3 349.7 297.6 348.1C297.9 348.1 298.3 348 298.6 348C311.6 346.5 324.7 344.9 337.9 343.3C338.2 343.3 338.6 343.2 338.9 343.2C352.1 341.6 365.2 340.1 378.2 338.5C378.5 338.5 378.9 338.4 379.2 338.4C485.8 325.7 581.3 314.1 581.3 314.1C581.3 314.1 595.7 344.2 606.6 369.5Z" fill="#485A7E"/>
<path d="M463.6 23.1992V308.399L343.6 318.599L276 324.399L264.5 325.399L262 325.599L185.9 332.099L164.1 333.999L78.1004 341.299L76.5004 341.399L76.1004 331.099L74.5004 287.899L65.9004 48.1992C74.2004 41.1992 83.3004 34.9992 92.7004 29.5992C107.9 20.8992 124.2 14.2992 140.5 9.79922C180 -0.900777 221 -1.40078 262 1.49922C262.8 1.59922 263.7 1.59922 264.5 1.69922C283.7 3.09922 303 5.19922 322 7.29922C369.2 12.5992 416.4 17.8992 463.6 23.1992Z" fill="white"/>
<path d="M463.6 33.3008V308.401L343.6 318.701V96.3008L374.1 78.3008L408.5 96.3008V33.3008H463.6Z" fill="#F5F0ED"/>
<path d="M275.9 125.301V324.401L264.5 325.401L262 325.601L185.9 332.101V125.301H275.9Z" fill="#F5F0ED"/>
<path d="M164.1 56.3008V333.901L78.0996 341.301L76.4996 341.401L76.0996 331.101L74.5996 287.901L84.5996 56.3008H164.1Z" fill="#F5F0ED"/>
<path d="M264.5 1.7V331.2H262V1.5C262.8 1.5 263.7 1.6 264.5 1.7Z" fill="#6B3939"/>
<path d="M203.6 138.801C202.2 138.801 201.1 137.701 201.1 136.301V81.8008C201.1 80.4008 202.2 79.3008 203.6 79.3008C205 79.3008 206.1 80.4008 206.1 81.8008V136.301C206.1 137.601 204.9 138.801 203.6 138.801Z" fill="#F5F0ED"/>
<path d="M557.1 54V336.5H540.6H539.6H500.3H499.3H470.8V24C480.3 25.1 489.9 26.2 499.3 27.9C499.4 27.9 499.5 27.9 499.7 28C499.9 28 500.1 28.1 500.3 28.1C514.1 30.7 527.5 34.5 539.6 41.3C539.9 41.5 540.3 41.7 540.6 41.9C541 42.1 541.3 42.3 541.7 42.6C547.3 45.8 552.4 49.7 557.1 54Z" fill="#485A7E"/>
<path d="M540.6 41.9008V465.501C540.3 465.701 539.9 465.901 539.6 466.101V41.3008C539.9 41.5008 540.3 41.7008 540.6 41.9008Z" fill="#324366"/>
<path d="M500.3 28.1004V482.6C500 482.7 499.6 482.8 499.3 482.9V27.9004C499.4 27.9004 499.5 27.9004 499.7 28.0004C499.9 28.0004 500.1 28.1004 500.3 28.1004Z" fill="#324366"/>
<path d="M460 335.801V491.201C459.7 491.301 459.3 491.301 459 491.401V335.801C459 335.501 459.2 335.301 459.5 335.301C459.8 335.301 460 335.501 460 335.801Z" fill="#324366"/>
<path d="M419.7 335.801V495.701C419.4 495.701 419 495.801 418.7 495.801V335.801C418.7 335.501 418.9 335.301 419.2 335.301C419.5 335.301 419.7 335.501 419.7 335.801Z" fill="#324366"/>
<path d="M379.5 335.801V499.301C379.2 499.301 378.8 499.401 378.5 499.401V335.801C378.5 335.501 378.7 335.301 379 335.301C379.3 335.301 379.5 335.501 379.5 335.801Z" fill="#324366"/>
<path d="M339.2 335.801V503.301C338.9 503.301 338.5 503.401 338.2 503.401V335.801C338.2 335.501 338.4 335.301 338.7 335.301C339 335.301 339.2 335.501 339.2 335.801Z" fill="#324366"/>
<path d="M298.899 335.801V507.001C298.599 507.001 298.199 507.101 297.899 507.101V335.801C297.899 335.501 298.099 335.301 298.399 335.301C298.699 335.301 298.899 335.501 298.899 335.801Z" fill="#324366"/>
<path d="M258.6 335.801V510.001C258.3 510.001 257.9 510.001 257.6 510.001V335.801C257.6 335.501 257.8 335.301 258.1 335.301C258.4 335.301 258.6 335.501 258.6 335.801Z" fill="#324366"/>
<path d="M217.3 347.4V511.3C217.4 511.3 217.4 511.3 217.4 511.3H218.3V347.4H217.3Z" fill="#324366"/>
<path d="M177.1 347.4V510.5C177.4 510.5 177.7 510.5 178.1 510.6V347.4H177.1Z" fill="#324366"/>
<path d="M136.8 358.1V506.2C137.1 506.3 137.4 506.3 137.8 506.4V358.1H136.8Z" fill="#324366"/>
<path d="M617.7 251.1C617.6 246.4 617.3 241.6 617 236.9C616.4 227.8 615.6 218.6 614.6 209.5C612.9 195.1 610.7 180.9 607.8 166.7C605.9 157.3 603.7 147.9 601.2 138.6C597.2 123.5 592.2 108.2 585.4 93.9996C582.1 87.0996 578.4 80.3996 574.2 74.0996C569.2 66.6996 563.6 59.8996 557.1 53.8996C552.4 49.5996 547.3 45.6996 541.7 42.3996C536.8 39.4996 531.7 37.0996 526.4 35.0996C526.9 47.0996 530.3 59.0996 534.5 70.1996C535.5 72.8996 536.6 75.5996 537.7 78.1996C539.3 82.2996 541 86.2996 542.7 90.3996C547 101 550.8 111.7 552.5 122.9C552.8 124.8 553 126.8 553.1 128.8C553.3 132.1 553.3 135.4 553.1 138.6C552.6 146 551.4 153.3 550.9 160.7C550.2 170.9 552.1 180.3 555.4 189.9C555.4 190 555.5 190.1 555.5 190.2C556.9 194.4 558.4 198.5 559.6 202.6C561.5 208.6 563.1 214.6 564.1 220.9C564.9 226.1 565.5 231.3 565.8 236.6C566.1 241.2 566.1 245.8 566 250.4C566 251.3 566 252.2 565.9 253.1C565.2 274.3 559.3 295.7 562.4 316.9C563.5 324.6 565.6 332.1 567.9 339.6C569.1 343.5 570.4 347.4 571.7 351.3C573.9 358 576 364.8 577.6 371.7C579.8 381.1 580.9 390.9 579.3 400.5C577.8 410 573.1 419 573.6 428.8C573.7 431.2 574.1 433.5 574.6 435.7C591.5 414.9 601.9 389.2 608.3 362.4C611.8 347.7 614.1 332.6 615.5 317.8C615.6 316.3 615.8 314.7 615.9 313.2C617.8 292.6 618.4 271.8 617.7 251.1Z" fill="#AACBE6"/>
<path d="M574.2 74.1992C573.1 74.6992 571.9 75.1992 570.7 75.5992C565.6 77.4992 560.3 79.0992 554.9 79.4992C549.2 79.9992 543.7 79.0992 538.1 78.3992C538 78.3992 537.9 78.3992 537.7 78.3992C539.3 82.4992 541 86.4992 542.7 90.5992C545.7 89.6992 548.6 88.8992 551.6 88.1992C557.3 86.9992 562.9 86.7992 568.5 88.3992C573.1 89.6992 577.4 91.7992 582 93.1992C583.2 93.5992 584.3 93.8992 585.4 93.9992C582.1 87.0992 578.4 80.3992 574.2 74.1992Z" fill="#D2E7F7"/>
<path d="M590.1 125.8C587.4 123.4 583.7 123 580.2 123.1C575 123.3 569.8 123.8 564.6 123.7C561.8 123.7 559.1 123.5 556.4 123.4C555.1 123.3 553.8 123.2 552.5 123.1C552.8 125 553 127 553.1 129C553.3 132.3 553.3 135.6 553.1 138.8C554.7 139 556.3 139.1 557.9 139.2C562.7 139.5 567.6 139.4 572.4 139.2C576.8 139 581.4 139 585.7 138.1C588.5 137.5 591.4 136 592.4 133.1C593.3 130.4 592.1 127.6 590.1 125.8Z" fill="#D2E7F7"/>
<path d="M582.2 175.3C578.2 176.4 562.2 183 555.4 190C555.4 190.1 555.5 190.2 555.5 190.3C556.9 194.5 558.4 198.6 559.6 202.7C561.6 203.2 563.7 203.3 565.8 203.3C571.4 203.3 576.9 203 582.4 202.4C587 201.9 591.6 201.2 595.9 203.2C601.9 206 608.4 209.1 614.5 209.4C612.8 195 610.6 180.8 607.7 166.6C600 170.9 590.8 172.9 582.2 175.3Z" fill="#D2E7F7"/>
<path d="M617 236.899C610.7 238.999 604.2 240.399 597.5 240.699C591.6 240.899 586.2 239.899 580.5 238.499C578.1 237.899 575.6 237.299 573.1 237.299C570.9 237.199 568.7 237.399 566.6 237.399C567.9 235.299 569.2 233.299 570.6 231.199C571 230.699 570.1 230.199 569.7 230.699C568.3 232.699 567 234.799 565.7 236.899C566 241.499 566 246.099 565.9 250.699C576.3 249.799 586.9 250.599 597.3 250.799C603.7 250.899 610.1 250.999 616.6 251.199C616.9 251.199 617.3 251.199 617.6 251.199C617.6 246.299 617.3 241.599 617 236.899Z" fill="#D2E7F7"/>
<path d="M609.401 287.899C608.401 285.199 603.501 285.199 601.201 285.099C600.001 285.099 598.8 285.099 597.6 285.199C592.2 284.099 586.4 283.799 581.6 286.499C577.6 288.699 573.601 294.799 578.501 298.399C583.801 302.199 601.801 298.799 606.501 294.499C608.201 292.999 610.201 290.199 609.401 287.899Z" fill="#D2E7F7"/>
<path d="M608.2 322.599C602.4 328.299 595.7 332.299 587.9 334.599C581.3 336.599 574.4 337.599 567.9 339.799C569.1 343.699 570.4 347.599 571.7 351.499C575.3 350.699 578.9 350.099 582.6 350.399C585.3 350.599 588 351.299 590.3 352.699C592.6 354.099 594.4 356.099 596.6 357.699C599.6 359.999 603.2 361.599 606.9 362.299C607.4 362.399 607.9 362.499 608.4 362.499C611.9 347.799 614.2 332.699 615.6 317.899C615.7 316.399 615.9 314.799 616 313.299C613.7 316.599 611.1 319.699 608.2 322.599Z" fill="#D2E7F7"/>
<path d="M557.1 336.5V346L100.1 389.4L50.7002 360L53.3002 351.8L557.1 336.5Z" fill="#D6BFB6"/>
<path d="M53.2998 351.8L98.5998 379.8L557.1 336.5L470.8 314.1L53.2998 351.8Z" fill="white"/>
<path d="M119 430.4C117.2 422.1 115 414 114.3 405.7C114.1 403.6 114 401.5 114 399.3C114 392.5 114.7 385.7 115 378.9C115.2 374.9 115.2 370.9 114.9 366.9C114.2 357.5 111.2 348.5 107.7 339.7C104.2 330.7 100.2 321.9 97.5995 312.6C96.8995 309.9 96.2995 307.2 95.8995 304.5C94.6995 297 94.5995 289.3 95.0995 281.6C95.5995 273.9 96.6995 266.3 97.6995 258.6C99.4995 245.7 101.2 232.8 100.3 219.7C98.7995 199 91.5995 179.1 90.2995 158.4C89.4995 145.5 91.3995 132.9 93.5995 120.2C94.4995 115.2 95.3995 110.2 96.0995 105.2C96.5995 101.7 97.0995 98.1996 97.4995 94.5996C99.5995 74.5996 98.2995 54.1996 93.8995 34.5996C93.4995 32.8996 93.0995 31.2996 92.6995 29.5996C68.4995 43.4996 47.0995 62.4996 32.6995 86.0996C27.6995 94.2996 23.4995 103.1 20.3995 112.3C20.1995 113.1 19.8995 113.8 19.6995 114.5C10.9995 141.7 9.49952 169.3 10.0995 197.2C10.1995 202.3 10.3995 207.4 10.5995 212.5C11.6995 238.1 13.6995 263.9 12.4995 289.5C12.2995 294.8 11.8995 300.1 11.2995 305.4C10.9995 308.3 10.6995 311.2 10.1995 314.1C9.29952 320.3 8.19952 326.5 6.99952 332.7C5.49952 340.4 3.89952 348 2.59952 355.7C1.79952 360.7 0.999515 365.6 0.599515 370.6C-0.200485 379 -0.400485 387.5 0.699515 395.9C0.999515 398.6 1.49952 401.2 1.99952 403.8C5.09952 418.3 11.6995 431.9 20.5995 444C25.7995 451 31.6995 457.5 38.2995 463.4C43.6995 468.3 49.5995 472.8 55.5995 476.7C74.5995 489.1 95.6995 497.2 117.8 502.5C117.3 498.2 116.2 493.8 115.7 489.7C114.5 479.5 117.5 469.5 119.5 459.6C121.4 449.6 121.1 440.2 119 430.4Z" fill="#AACBE6"/>
<path d="M82.8998 74.8987C80.1998 72.8987 76.2998 73.1987 73.1998 73.7987C69.2998 74.5987 65.6998 76.1987 62.0998 77.9987C54.6998 81.7987 46.8998 87.4987 38.1998 87.0987C36.2998 86.9987 34.4998 86.4987 32.7998 86.0987C27.7998 94.2987 23.5998 103.099 20.4998 112.299C20.2998 113.099 19.9998 113.799 19.7998 114.499C19.9998 114.199 20.1998 113.999 20.3998 113.699C23.8998 109.099 27.8998 104.999 33.2998 102.499C38.1998 100.299 43.5998 99.2987 48.9998 98.5987C57.7998 97.3987 66.7998 96.5987 74.5998 91.8987C77.8998 89.8987 80.7998 87.2987 82.6998 83.9987C84.2998 81.3987 85.9998 77.1987 82.8998 74.8987Z" fill="#D2E7F7"/>
<path d="M68.1992 113.7C58.6992 117.3 49.0992 122.2 42.8992 130.5C40.9992 133.1 39.0992 137.6 43.6992 138.5C47.9992 139.4 52.4992 135.9 55.7992 133.6C60.7992 130.2 65.3992 126.4 70.8992 123.8C77.0992 121 83.4992 120.2 90.1992 120.2C91.3992 120.2 92.5992 120.2 93.7992 120C94.6992 115 95.5992 110 96.2992 105C86.7992 107.6 77.2992 110.2 68.1992 113.7Z" fill="#D2E7F7"/>
<path d="M85.3992 199C84.1992 194.7 79.1992 194.899 75.7992 196.399C70.2992 198.799 66.7992 204 61.7992 207C58.7992 208.8 55.0992 209.8 51.7992 208C47.9992 205.9 47.2992 201.999 49.9992 198.699C51.9992 196.399 54.2992 194.299 56.4992 192.199C59.2992 189.499 62.0992 186.699 64.7992 183.999C67.0992 181.699 69.3992 179.399 71.7992 177.199C73.7992 175.199 76.0992 173.299 77.3992 170.699C79.0992 167.299 78.5992 162.799 74.5992 161.399C70.1992 159.799 64.2992 161.799 60.2992 163.699C55.3992 165.899 51.0992 169.2 47.0992 172.8C37.2992 181.5 28.4992 193.399 15.0992 196.699C13.4992 197.099 11.8992 197.299 10.1992 197.399C10.2992 202.499 10.4992 207.599 10.6992 212.699C13.2992 211.799 15.8992 211.2 18.6992 211.1C22.1992 211 25.6992 211.699 28.8992 213.199C31.8992 214.599 34.4992 216.699 37.2992 218.399C46.6992 224.099 58.4992 224.9 68.4992 220.3C73.1992 218.2 77.3992 214.899 80.6992 210.899C83.2992 207.799 86.5992 203.2 85.3992 199Z" fill="#D2E7F7"/>
<path d="M77.9994 234.3C68.7994 232.4 59.2994 240.9 51.9994 245.2C45.0994 249.3 33.3994 251.6 30.1994 259.8C28.4994 264 30.3994 268.6 34.9994 269.6C40.6994 270.8 45.0994 266.5 49.5994 263.8C55.1994 260.4 61.7994 258.9 67.6994 256.2C72.8994 253.8 77.7994 250.4 79.9994 245C81.3994 241.8 82.5994 235.3 77.9994 234.3Z" fill="#D2E7F7"/>
<path d="M95.0994 281.6C95.5994 273.9 96.6994 266.3 97.6994 258.6C89.7994 266.9 83.3994 277.1 74.6994 284.7C66.1994 292.2 56.0994 295.2 44.8994 294.3C34.1994 293.4 23.3994 289.6 12.5994 289.5C12.3994 294.8 11.9994 300.1 11.3994 305.4C11.8994 305.3 12.3994 305.3 12.8994 305.2C19.1994 304.5 25.4994 303.4 31.7994 302.1C35.0994 301.4 38.2994 300.5 41.6994 300.2C45.2994 299.9 48.8994 300.5 52.4994 301C58.9994 302 65.5994 303 72.0994 303.9C79.8994 305 88.0994 305.8 95.8994 304.4C94.6994 296.9 94.5994 289.3 95.0994 281.6Z" fill="#D2E7F7"/>
<path d="M86.8992 351.899C83.3992 349.499 79.1992 348.599 75.4992 346.699C71.0992 344.499 67.3992 340.799 65.0992 336.399C63.0992 332.499 62.6992 327.899 60.3992 324.199C58.3992 320.899 54.9992 319.199 51.1992 318.799C41.5992 317.899 32.9992 323.799 24.8992 327.899C20.3992 330.199 15.4992 332.299 10.3992 332.699C9.29922 332.799 8.19922 332.799 7.09922 332.699C5.59922 340.399 3.99922 347.999 2.69922 355.699C6.19922 356.199 9.79922 355.999 12.1992 355.799C16.6992 355.399 20.5992 353.799 24.4992 351.299C28.3992 348.799 32.1992 345.799 36.8992 344.899C48.9992 342.799 56.5992 355.499 63.9992 362.699C69.5992 368.099 78.9992 373.199 86.3992 367.999C92.1992 363.999 92.9992 356.099 86.8992 351.899Z" fill="#D2E7F7"/>
<path d="M115 378.9C108.9 388.1 101 395.9 90.1996 399.4C81.8996 402.1 72.3995 402.2 64.6995 397.6C58.2995 393.9 51.5996 384.2 42.9996 387.6C37.6996 389.7 36.0996 396.6 37.7996 401.6C40.0996 408.4 47.7996 411.7 54.2996 412.7C58.8996 413.5 63.4996 413.5 68.0996 412.8C73.0996 412.1 77.8996 410.3 82.6996 408.9C85.1996 408.1 87.7996 407.5 90.3996 407.2C93.4996 406.9 96.3996 407.4 99.3996 407.9C103.3 408.5 107.1 408.7 110.9 407.2C112.1 406.7 113.2 406.2 114.3 405.5C114.1 403.4 114 401.3 114 399.1C114 392.4 114.7 385.7 115 378.9Z" fill="#D2E7F7"/>
<path d="M25.5991 376.599C24.6991 367.799 14.6991 369.199 8.29912 369.599C5.79912 369.699 3.19912 369.999 0.699125 370.599C-0.100875 378.999 -0.300875 387.499 0.799125 395.899C1.09912 398.599 1.59912 401.199 2.09912 403.799C6.59912 401.499 11.0991 398.999 14.9991 396.099C20.9991 391.599 26.3991 384.499 25.5991 376.599Z" fill="#D2E7F7"/>
<path d="M110.9 452.4C110.5 449.5 108.4 447.3 105.9 446C102.4 444.2 98.6 444.2 94.8 444.4C89.4 444.7 84.8 444.3 79.9 441.9C76.2 440.1 72.7 437.9 68.6 436.8C64.7 435.8 60.6 436 56.7 436.8C45.8 439 36.3 444.7 24.9 444.2C23.4 444.1 22 444 20.5 443.9C25.7 450.9 31.6 457.4 38.2 463.3C44.4 461 50.7 458.9 57.4 459.2C67.3 459.7 76.3 464.6 86 466C92.8 467 100.6 466.4 106.1 461.9C109 459.6 111.4 456.1 110.9 452.4Z" fill="#D2E7F7"/>
<path d="M555.7 336.601H555.6L483.4 317.801C483.1 317.701 483 317.501 483 317.201C483.1 316.901 483.3 316.801 483.6 316.801L555.8 335.601C556.1 335.701 556.2 335.901 556.2 336.201C556.1 336.501 555.9 336.601 555.7 336.601Z" fill="#D6BFB6"/>
<path d="M443.4 216.999C443.4 216.999 453.1 191.299 450.8 184.599C448.4 177.799 452.1 152.599 452.4 150.899C452.7 149.199 464 150.999 473.4 153.599C482.8 156.199 527 159.899 534 161.299C541 162.599 577.1 178.099 581.8 179.499C586.5 180.899 585.8 183.599 584.5 190.699C583.2 197.899 583.2 245.899 578.8 259.499C574.5 273.199 563.5 325.899 563.1 331.199C562.8 336.499 558 338.299 548.4 337.399C538.8 336.499 516.9 331.599 505 331.199C493.1 330.799 464.8 317.699 464.8 317.699L433.1 307.399L443.4 216.999Z" fill="#DE684E"/>
<path d="M474.8 152.101C474.4 154.901 475.6 156.701 476.9 159.101C478.8 162.701 477.7 166.001 478 169.801C478.2 172.501 479.5 174.801 481.1 176.901C482 178.101 483 179.301 484.1 180.401C484 183.001 484.6 185.601 487.4 186.601C488.9 187.201 489.8 187.901 490.8 189.201C492.7 189.201 494.7 189.301 496.5 189.801C498.7 190.501 499 191.501 502.1 190.901C503.2 190.701 504.3 190.201 505.3 189.801C508.5 188.701 511.6 187.201 515 186.701C518.3 186.301 521 187.201 524.2 187.801C528.3 188.601 530.7 187.001 534.3 185.601C535.5 185.101 536.8 185.001 538.2 185.001C539.4 185.001 541.2 185.701 542.3 185.401C544 185.001 544.5 180.801 544.5 179.001C544.5 176.601 543.7 174.401 542.7 172.301C541.5 169.901 539.7 167.701 538.3 165.301C539.1 161.801 539.3 158.301 538.3 154.701C537.5 151.901 536.1 149.201 535.4 146.401C534.5 143.101 535.3 140.001 535.1 136.701C535 134.001 534.8 131.001 533.8 128.401C532.9 126.101 531.1 124.301 529.2 122.601C526.8 120.401 524 118.601 521 117.601C520.1 116.901 518.9 116.401 518 115.901C514.1 113.701 510.8 111.901 506.3 113.101C503.8 113.801 501.5 114.601 498.9 114.901C496.9 115.201 494.9 115.601 493.1 116.401C490.6 117.601 487.6 119.301 485.3 121.501C484 121.601 482.6 121.901 481.5 122.301C480 122.901 479 124.301 478.1 125.701C478 125.701 477.8 125.801 477.8 125.901C476.1 128.601 474.4 131.301 473.8 134.501C473.2 137.301 473.8 139.601 474.9 142.201C475.7 144.201 476.1 145.901 475.7 148.101C475.4 149.601 475 150.801 474.8 152.101Z" fill="#362D29"/>
<path d="M536.9 118.201C536.4 116.901 535.4 115.901 534.3 115.001C533 114.101 531.3 115.101 530.4 116.001C530 116.401 529.7 116.801 529.4 117.301C528.3 117.401 527.3 117.701 526.8 118.801C526 120.401 526.8 122.201 527.9 123.301C529.3 124.701 531.1 125.601 533 125.101C534.9 124.601 537.2 123.401 538 121.501C538.7 119.901 537.3 119.601 536.9 118.201Z" fill="#362D29"/>
<path d="M413.601 241.5C415.001 236.7 398.401 222.4 398.401 222.4L367.701 223.9L364.101 232.2C364.101 232.2 366.001 233 369.301 234.2C370.401 234.6 371.701 235.1 373.201 235.7C379.101 237.9 385.101 240 391.101 242C396.001 243.6 404.801 248.4 409.901 245.9C411.901 244.9 413.101 243.4 413.601 241.5Z" fill="#FEA689"/>
<path d="M369.6 224.4C369.6 224.4 358.6 219.2 354.2 219.4C349.8 219.6 344 226.5 342.7 227.4C341.4 228.3 339.7 232.2 341.4 233.4C343.1 234.5 351.4 231.7 355.9 231.9C360.5 232 365.8 233 365.8 233L372.4 228.3L369.6 224.4Z" fill="#FEA689"/>
<path d="M474.9 179.4C474.9 179.4 452.4 212.5 451.1 213.8C449.8 215.1 435 241.9 432.3 242.3C429.6 242.6 420.6 254.6 420.6 254.6C420.6 254.6 417.2 253.5 412.9 251.6C412.9 251.5 412.2 243.4 412 242.7C411.1 239.6 409.7 236.6 407.5 234.3C405.8 232.4 403.7 231 402.2 228.9C400.4 226.5 396.8 221.8 399.4 219C401 217.2 406 215.8 408.1 215.1C411.6 214 412.9 209.8 415.9 207.9C416.1 207.8 416.3 207.7 416.5 207.6C417.2 207.2 418 206.8 418.7 206.4C426.2 202.5 433.5 200.2 439.8 194.3C455.8 179.4 474.9 179.4 474.9 179.4Z" fill="#FFD791"/>
<path d="M290.5 165.402L347.8 169.902C348.3 169.902 348.6 170.302 348.7 170.702L361.6 240.002L302.9 231.902L289.4 166.702C289.3 165.902 289.9 165.302 290.5 165.402Z" fill="#878484"/>
<path d="M201 309.801L183.3 329.301L193.6 335.801L218.1 315.601L201 309.801Z" fill="#FEA689"/>
<path d="M195.6 327.401C195.6 327.401 196 336.601 194.2 340.701C192.4 344.901 187.9 344.801 177.7 346.701C173.9 347.401 160.5 351.301 157 350.101C153.5 348.901 156.3 345.301 160.1 343.501C164 341.701 174.9 334.601 178.3 332.401C181.7 330.201 183.8 328.001 183.8 328.001L189.1 322.701L195.6 327.401Z" fill="#FEA689"/>
<path d="M244.1 317.701L230.1 340.001L241.5 344.601L262 320.301L244.1 317.701Z" fill="#FEA689"/>
<path d="M407.4 252.401C407.4 252.401 294.1 219.201 276.6 232.701C259.1 246.201 201 309.701 201 309.701L223.6 328.201C223.6 328.201 256.1 312.701 261.1 308.701C266.1 304.701 308.6 281.101 308.6 281.101C308.6 281.101 320.8 291.001 332.4 299.201C345.1 308.201 386.6 332.701 386.6 332.701L413.1 295.701L447.6 299.701C447.6 299.701 471.9 288.001 470.8 281.101C469.6 274.301 407.4 252.401 407.4 252.401Z" fill="#6B3939"/>
<path d="M355.699 229.201C355.699 229.201 398.899 252.301 400.199 253.801C400.399 254.101 400.499 254.401 400.599 254.701C400.899 256.801 398.599 258.301 396.699 257.301L351.699 233.801L355.699 229.201Z" fill="#878484"/>
<path d="M480.4 294.102C480.4 294.102 477.1 303.402 474.9 307.402C472.7 311.402 453.4 337.702 418.7 342.402C384 347.102 359 319.702 343.4 306.702C327.7 293.702 320.4 281.402 320.4 281.402C320.4 281.402 317.1 289.502 307.1 302.002C297.1 314.402 290.1 313.102 285.4 320.102C280.7 327.102 274.7 334.102 268.4 337.802C262.1 341.502 260.7 343.002 260.7 343.002L237.8 327.702C237.8 327.702 253 303.302 269.3 277.802C284.4 254.102 300.3 229.502 309.7 223.402C332.2 208.802 429.6 283.502 431.3 283.502C433 283.502 465.6 274.502 465.6 274.502L480.4 294.102Z" fill="#6B3939"/>
<path d="M532.699 247.401C530.899 257.101 515.499 279.801 497.999 291.601C493.799 294.501 490.599 298.401 487.899 302.601C487.399 303.301 486.999 304.001 486.599 304.701C485.699 306.201 484.899 307.601 484.199 309.101C483.399 310.601 482.699 312.001 481.999 313.401C481.299 314.701 480.699 315.901 480.099 317.101C479.499 318.301 478.799 319.401 478.199 320.501C474.799 326.001 470.899 329.301 464.599 327.001C459.299 325.101 459.599 287.401 459.099 286.901C458.599 286.401 407.399 252.401 407.399 252.401C407.399 252.401 435.299 219.801 436.899 214.401C443.399 192.401 460.999 183.601 469.599 180.701C478.199 177.901 492.799 176.401 514.099 180.001C535.399 183.701 540.799 206.201 542.299 218.001C543.699 229.901 534.599 237.801 532.699 247.401Z" fill="#FFD791"/>
<path d="M461.4 204.5C462.8 203.5 463.3 198.2 463.3 197C463.2 195.5 462.9 194 463.2 192.5C463.5 191 466.1 187.9 467.5 190.3C468.2 191.5 466.7 195.5 466.7 197.1C466.8 198.6 466.4 203.8 468.2 204.5C471.2 205.7 471 197 470.9 195.5C470.8 194.2 470.7 192.8 470.8 191.5C471 190.2 471.6 188.8 472.7 188.2C473.9 187.5 475.6 187.9 476.1 189.1C476.5 190.1 476 191.3 475.6 192.3C474.3 195.7 473.9 199.5 474.6 203.1C474.8 204.1 475.4 205.3 476.4 205.2C477.1 205.1 477.5 204.3 477.8 203.6C478.5 201.6 478.8 199.6 478.7 197.5C478.6 195.2 478 192.9 478.6 190.8C479.2 188.6 481.6 186.7 483.6 187.7C483.7 192.9 481.9 198.3 483.5 203.3C484.2 205.5 486.7 205.9 487.1 203.2C487.6 199.9 486.4 195.8 486.1 192.6C486 191.3 485.9 189.7 486.8 188.8C488 187.7 490 188.2 491.4 189C492.2 189.5 493.6 188.7 493.4 187.6C493.2 186.4 490.7 186.4 489.8 186.1C487.2 185.5 484.6 185.3 482 185.2C478 185 473.9 185.3 470 185.9C467.9 186.2 465.9 186.7 464.1 187.8C460.5 190.1 459.1 194.7 459 199C459 200.3 459.2 203.6 460.4 204.4C460.7 204.8 461.1 204.7 461.4 204.5Z" fill="white"/>
<path d="M463.999 230.701C463.399 232.401 466.099 236.901 466.899 237.901C467.799 239.101 468.999 240.101 469.599 241.501C470.199 242.901 469.899 246.901 467.399 245.801C466.099 245.201 464.999 241.101 463.999 239.801C463.099 238.601 460.299 234.201 458.499 234.701C455.399 235.501 460.599 242.401 461.499 243.601C462.299 244.601 463.199 245.601 463.899 246.801C464.499 248.001 464.799 249.401 464.299 250.601C463.699 251.801 462.099 252.501 460.999 251.801C459.999 251.201 459.799 250.001 459.499 248.901C458.599 245.301 456.699 242.001 453.999 239.501C453.299 238.801 451.999 238.101 451.299 238.801C450.799 239.301 450.899 240.201 451.099 240.901C451.699 242.901 452.599 244.801 453.899 246.401C455.299 248.201 457.099 249.701 457.899 251.801C458.699 253.901 457.799 256.901 455.599 257.201C452.499 253.001 450.799 247.601 446.599 244.501C444.699 243.101 442.399 244.201 443.699 246.601C445.199 249.501 448.499 252.201 450.699 254.601C451.599 255.601 452.599 256.801 452.299 258.101C451.999 259.701 450.099 260.501 448.499 260.601C447.499 260.701 446.899 262.101 447.699 262.901C448.599 263.701 450.599 262.301 451.499 262.001C453.899 261.001 456.199 259.601 458.399 258.201C461.799 256.001 464.899 253.401 467.799 250.601C469.299 249.101 470.699 247.501 471.399 245.601C472.899 241.601 471.399 237.101 468.999 233.601C468.299 232.601 466.199 229.901 464.699 230.001C464.299 230.101 464.099 230.301 463.999 230.701Z" fill="white"/>
<path d="M411 250.2C411 250.2 402.5 241.5 398.3 240.2C394.1 238.9 386.3 243.3 384.7 243.7C383.1 244.1 380.2 247.2 381.4 248.9C382.6 250.6 391.3 250.8 395.6 252.5C399.8 254.2 404.5 256.9 404.5 256.9L412.3 254.8L411 250.2Z" fill="#FEA689"/>
<path d="M517.8 159.102L517.6 180.902C517.6 180.902 509.3 189.602 502.5 190.802C495.7 192.002 492.9 186.802 492.9 186.802L492.5 185.002L492.2 183.702L491.7 181.302L491.5 180.202L489 167.702L517.8 159.102Z" fill="#FEA689"/>
<path d="M520.5 160.7C520.2 161.6 516.2 163.4 515.8 164.3C513.1 171.1 514.9 170.2 508.7 174.4C501.2 179.4 492.3 181.4 488 179.4C485 178 481.3 170.4 480.5 159.2C480.3 156.8 480 152.6 480.3 147.6C480.4 146.8 480.4 146 480.5 145.3C480.7 141.8 481 139.1 481 139.1C481 139.1 492.2 124.3 499.4 124.2C506.6 124.1 519.9 126.8 522.9 134.1C523.4 135.3 523.6 136.7 523.8 138C524.4 145.4 522.8 153.5 520.5 160.7Z" fill="#FEA689"/>
<path d="M498.1 152.301C498.2 151.601 498.5 150.901 499.1 150.801C500.7 150.501 501.1 153.401 501 154.301C500.9 154.801 500.6 155.501 500.1 155.701C499.5 156.001 499 155.701 498.7 155.201C498.4 154.801 498.3 154.301 498.2 153.801C498 153.401 498 152.801 498.1 152.301Z" fill="#252730"/>
<path d="M483.399 152.001C483.499 151.301 483.699 150.601 484.299 150.501C485.899 150.201 486.399 153.001 486.299 153.901C486.199 154.401 485.899 155.101 485.399 155.301C484.899 155.601 484.299 155.301 483.899 154.801C483.599 154.401 483.399 153.901 483.399 153.401C483.399 153.101 483.399 152.501 483.399 152.001Z" fill="#252730"/>
<path d="M486.699 167.4C486.699 167.4 488.499 167.9 491.599 167.8C495.099 167.7 497.399 167.4 497.399 167.4C497.399 167.4 495.799 170.3 492.299 170.5C488.699 170.6 486.699 167.4 486.699 167.4Z" fill="white"/>
<path d="M522.6 151.701C521.8 150.201 520.6 149.001 519 148.401C517 147.701 515.2 148.401 514.7 150.501C514.6 151.101 515.5 151.401 515.6 150.801C515.8 150.701 516 150.601 516.3 150.501C516.1 152.001 516.2 153.601 516.1 155.101C516.1 157.501 515.3 159.801 515.1 162.201C515 163.001 517.1 162.901 517.6 162.701C522 161.601 524.7 155.801 522.6 151.701Z" fill="#FEA689"/>
<path d="M491 164.8C491 164.8 490.9 164.8 490.8 164.8C490.5 164.7 488 163.9 488.1 162.3C488.2 161.1 489.9 155.9 490 155.4C490.1 155.1 490.4 155 490.6 155.1C490.9 155.2 491 155.5 490.9 155.7C490.4 157.2 489.1 161.4 489 162.4C489 163 490.2 163.6 491.1 163.9C491.4 164 491.5 164.3 491.4 164.5C491.4 164.7 491.2 164.8 491 164.8Z" fill="#F2835E"/>
<path d="M508.3 172.9C508.2 173.2 506.3 177.3 505 179C503.7 180.8 500.8 180.2 498.6 182.1C496.4 184 494.7 184.2 492.5 183.7C492.4 183.7 492.3 183.6 492.2 183.6L491.7 181.2L491.5 180.1C493.2 180 495.2 179.8 498.3 178.7C503.8 176.8 508 173.2 508.3 172.9Z" fill="#F2835E"/>
<path d="M497.899 144.801C499.299 144.201 501.699 144.501 502.399 144.601C503.399 144.801 504.399 145.201 505.199 145.801C505.499 146.001 506.199 146.501 506.299 146.801C506.899 148.301 503.699 147.501 503.099 147.401C501.699 147.201 500.199 147.401 498.799 147.401C497.999 147.401 496.799 146.901 496.899 145.901C496.899 145.401 497.299 145.001 497.899 144.801Z" fill="#362D29"/>
<path d="M486 147.601C484.6 147.601 483.2 147.301 481.7 147.401C481.5 147.401 480.9 147.501 480.3 147.601C480.4 146.801 480.4 146.001 480.5 145.301C481.1 145.001 481.8 144.801 482.5 144.701C484 144.401 485.6 144.501 487 145.101C488.9 145.901 487.9 147.501 486 147.601Z" fill="#362D29"/>
<path d="M242.999 318.1C242.899 318.1 242.799 318.1 242.699 318C242.499 317.8 242.399 317.5 242.599 317.3C242.799 317.1 257.699 293.9 267.799 277.6C277.899 261.2 300.699 231.2 300.899 230.9C301.099 230.7 301.399 230.6 301.599 230.8C301.799 231 301.899 231.3 301.699 231.5C301.499 231.8 278.699 261.8 268.599 278.1C258.499 294.4 243.499 317.6 243.299 317.8C243.299 318 243.099 318.1 242.999 318.1Z" fill="#522828"/>
<path d="M448.099 289.601C447.999 289.601 447.999 289.601 447.899 289.601C446.999 289.201 425.999 280.701 423.499 279.101C420.999 277.501 387.699 255.201 387.399 255.001C387.199 254.801 387.099 254.501 387.299 254.301C387.499 254.101 387.799 254.001 387.999 254.201C388.299 254.401 421.599 276.601 424.099 278.301C426.599 279.901 448.199 288.601 448.399 288.701C448.699 288.801 448.799 289.101 448.699 289.401C448.399 289.501 448.299 289.601 448.099 289.601Z" fill="#522828"/>
<path d="M362.299 322.3C362.199 322.3 361.999 322.3 361.899 322.2L321.599 282L318.099 287.4C317.899 287.6 317.599 287.7 317.399 287.5C317.199 287.3 317.099 287 317.299 286.8L321.499 280.4L362.699 321.4C362.899 321.6 362.899 321.9 362.699 322.1C362.599 322.2 362.399 322.3 362.299 322.3Z" fill="#522828"/>
<path d="M320 282.701L329.7 267.501C329.8 267.301 330.2 267.201 330.4 267.301C330.6 267.401 330.7 267.801 330.6 268.001L323.3 279.501L332.2 274.001C332.4 273.901 332.7 273.901 332.9 274.201C333 274.401 333 274.701 332.7 274.901L320 282.701Z" fill="#522828"/>
<path d="M241.899 340.401C241.899 340.401 241.499 349.601 239.299 353.601C237.099 357.601 232.699 357.101 222.299 358.101C218.399 358.501 204.699 361.101 201.399 359.601C198.099 358.101 201.099 354.801 205.099 353.301C209.099 351.801 220.599 345.801 224.199 343.901C227.799 342.001 229.599 340.101 229.599 340.101L234.999 335.801L241.899 340.401Z" fill="#FEA689"/>
<path d="M325.3 189.102C325.2 190.302 322.1 190.902 318.4 190.502C314.7 190.102 311.8 188.802 311.9 187.602C312 186.402 315.1 185.802 318.8 186.202C322.6 186.702 325.5 187.902 325.3 189.102Z" fill="#736D6D"/>
<path d="M543.8 242.3C538.8 248.8 539.3 258.9 533.9 266.7C533.1 267.9 532.1 269 531 270.1C530.4 270.6 529.9 271.2 529.4 271.7C526.8 274.5 525.5 276.9 524.6 279.2C523.6 281.6 523 283.9 521.7 286.1C521.1 287.1 520.3 288.2 519.3 289.2C507.9 300.8 502.7 288.2 502.7 288.2C502.7 288.2 486.5 254.6 486.8 251.6C487.1 248.6 517.1 203.3 517.1 203.3L519.2 181.5C519.2 181.5 541.6 191.8 547 200.5C547.9 201.9 548.5 203.8 549 206C549.1 206.7 549.3 207.5 549.4 208.3C551.1 219.6 548.3 236.4 543.8 242.3Z" fill="#FFD791"/>
<path d="M404.5 256.9C404.5 256.9 440.8 277.2 454.5 282.5C463.6 286 471.4 284.5 473.4 284.1C479.5 283.1 497 279.6 497 279.6L474.1 258.2L464.5 259.2L409.8 249.9L404.5 256.9Z" fill="#FEA689"/>
<path d="M492.899 186.3C492.899 186.3 489.999 191.7 488.399 195.1C486.799 198.4 485.499 200.3 484.399 203.6C483.299 206.9 478.399 214.4 478.399 214.4C478.399 214.4 491.099 206.4 498.999 201.6C506.899 196.8 517.699 180.9 517.699 180.9C517.699 180.9 509.899 185.5 507.799 185.9C492.999 188.5 492.899 186.3 492.899 186.3Z" fill="#FEA689"/>
<path d="M438.1 231.602C436.9 230.302 431.6 230.401 430.4 230.701C428.9 231.001 427.4 231.501 425.9 231.401C424.4 231.301 421 229.101 423.2 227.401C424.4 226.501 428.5 227.601 430.1 227.401C431.6 227.201 436.8 226.901 437.3 225.001C438.1 221.901 429.5 223.101 428 223.401C426.7 223.601 425.4 224.001 424.1 224.001C422.8 224.001 421.4 223.501 420.6 222.501C419.8 221.401 420 219.701 421.1 219.001C422.1 218.401 423.3 218.802 424.3 219.102C427.9 220.002 431.7 219.902 435.2 218.802C436.2 218.502 437.3 217.701 437.1 216.701C436.9 216.001 436.1 215.701 435.4 215.501C433.4 215.101 431.3 215.002 429.2 215.302C427 215.702 424.8 216.501 422.5 216.201C420.3 215.901 418.1 213.702 418.8 211.602C424 210.902 429.5 212.002 434.3 209.802C436.4 208.802 436.5 206.301 433.8 206.201C430.5 206.101 426.6 207.801 423.4 208.501C422.1 208.801 420.6 209.101 419.5 208.201C418.9 207.701 418.7 207.101 418.6 206.401C417.9 206.801 417.1 207.202 416.4 207.602C416.3 209.602 416.4 211.501 416.6 213.501C416.9 217.501 417.6 221.502 418.7 225.302C419.3 227.302 420 229.301 421.3 230.901C424 234.201 428.8 235.002 433 234.602C434.3 234.502 437.6 233.902 438.2 232.602C438.5 232.202 438.4 231.902 438.1 231.602Z" fill="white"/>
<path d="M486.3 301.7C484.3 301.3 482.2 301.2 480.1 301.5C477.9 301.9 475.7 302.7 473.4 302.4C471.2 302.1 469 299.9 469.7 297.8C474.9 297.1 480.4 298.2 485.2 296C487.3 295 487.4 292.5 484.7 292.4C481.4 292.3 477.5 294 474.3 294.7C473 295 471.5 295.3 470.4 294.4C469.1 293.4 469.4 291.3 470.1 289.8C470.5 288.9 469.5 287.7 468.5 288C467.3 288.3 467.6 290.8 467.5 291.8C467.2 294.4 467.3 297.1 467.5 299.7C467.8 303.7 468.5 307.7 469.6 311.6C470.2 313.6 470.9 315.6 472.2 317.2C473.7 318.9 475.7 320 477.9 320.5C478.6 319.5 479.2 318.3 479.8 317.1C478.8 317.3 477.7 317.5 476.7 317.5C475.2 317.4 471.8 315.2 474 313.5C475.2 312.6 479.3 313.7 480.9 313.5C481.1 313.5 481.4 313.4 481.8 313.4C482.5 312 483.3 310.5 484 309.1C481.8 309.1 479.5 309.4 478.8 309.5C477.5 309.7 476.2 310 474.9 310C473.6 310 472.2 309.5 471.4 308.5C470.6 307.4 470.7 305.7 471.9 305C472.9 304.5 474.1 304.8 475.1 305.1C478.7 306 482.5 305.9 486 304.8C486.2 304.8 486.3 304.7 486.5 304.6C486.9 303.9 487.4 303.2 487.8 302.5C487.6 302.1 487 301.8 486.3 301.7Z" fill="white"/>
<path d="M525.499 224.1C523.899 224.8 522.199 229.8 521.999 231C521.699 232.5 521.699 234.1 521.099 235.4C520.499 236.8 517.299 239.3 516.399 236.6C515.999 235.2 518.399 231.7 518.699 230.1C518.999 228.6 520.499 223.6 518.899 222.5C516.299 220.7 514.499 229.2 514.299 230.7C514.099 232 513.999 233.3 513.499 234.6C512.999 235.8 512.199 237 510.899 237.4C509.599 237.8 507.999 237.1 507.799 235.8C507.599 234.7 508.299 233.7 508.999 232.8C511.099 229.8 512.299 226.1 512.399 222.5C512.399 221.5 512.099 220.1 511.099 220C510.399 219.9 509.799 220.6 509.399 221.2C508.299 223 507.499 224.9 507.199 227C506.799 229.2 506.899 231.6 505.799 233.6C504.699 235.6 501.899 236.9 500.199 235.5C501.299 230.4 504.199 225.5 503.699 220.3C503.499 218 501.099 217 500.199 219.6C498.999 222.7 499.199 226.9 498.899 230.2C498.699 231.5 498.499 233.1 497.299 233.8C495.899 234.6 494.099 233.7 492.899 232.6C492.199 231.9 490.699 232.4 490.699 233.5C490.599 234.7 492.999 235.3 493.899 235.7C496.299 236.9 498.799 237.6 501.299 238.3C505.199 239.4 509.199 240 513.199 240.3C515.299 240.4 517.399 240.4 519.399 239.7C523.399 238.2 525.799 234 526.799 229.9C527.099 228.7 527.699 225.3 526.599 224.3C526.199 224 525.799 224 525.499 224.1Z" fill="white"/>
<path d="M527.899 266.101C523.899 265.901 519.799 266.201 515.899 266.801C513.799 267.101 511.799 267.601 509.999 268.701C506.399 271.001 504.999 275.601 504.899 279.901C504.899 281.201 505.099 284.501 506.299 285.301C506.699 285.501 506.999 285.501 507.399 285.301C508.799 284.301 509.299 279.001 509.299 277.801C509.199 276.301 508.899 274.801 509.199 273.301C509.499 271.801 512.099 268.701 513.499 271.101C514.199 272.301 512.699 276.301 512.699 277.901C512.699 279.401 512.399 284.601 514.199 285.301C517.199 286.501 516.999 277.801 516.899 276.301C516.799 275.001 516.699 273.601 516.799 272.301C516.999 271.001 517.599 269.601 518.699 269.001C519.799 268.401 521.599 268.701 522.099 269.901C522.499 270.901 521.999 272.101 521.599 273.101C520.199 276.501 519.899 280.301 520.599 283.901C520.699 284.701 521.199 285.601 521.799 285.901C523.099 283.701 523.699 281.401 524.699 279.001C524.699 278.801 524.699 278.501 524.699 278.301C524.599 276.101 523.999 273.801 524.599 271.601C525.199 269.401 527.599 267.501 529.599 268.501C529.599 269.501 529.599 270.501 529.499 271.501C529.999 271.001 530.499 270.501 531.099 269.901C532.199 268.901 533.199 267.701 533.999 266.501C531.899 266.301 529.899 266.201 527.899 266.101Z" fill="white"/>
<path d="M549.2 206.002C548.8 206.302 548.4 206.502 548 206.602C544.9 202.402 543.2 197.002 539 193.902C537.1 192.502 534.8 193.602 536.1 196.102C537.6 199.002 541 201.702 543.2 204.102C544.1 205.102 545.1 206.302 544.8 207.602C544.5 209.202 542.6 209.902 541 210.102C540 210.202 539.4 211.602 540.2 212.402C541.1 213.202 543.1 211.802 544 211.502C546 210.702 547.9 209.602 549.8 208.402C549.5 207.502 549.3 206.702 549.2 206.002Z" fill="white"/>
<path d="M476.199 255.101C476.099 255.101 475.899 255.001 475.799 254.901C475.599 254.701 475.699 254.401 475.899 254.201C475.999 254.101 490.799 241.801 496.799 238.001C498.699 236.801 501.299 234.401 504.299 231.601C510.699 225.701 518.599 218.301 525.099 217.701C534.499 216.801 544.599 219.001 544.699 219.001C544.999 219.101 545.099 219.301 545.099 219.601C544.999 219.901 544.799 220.001 544.499 220.001C544.399 220.001 534.499 217.801 525.199 218.701C518.999 219.301 511.199 226.501 504.999 232.401C501.999 235.201 499.399 237.701 497.399 238.901C491.499 242.701 476.699 254.901 476.599 255.001C476.399 255.001 476.299 255.101 476.199 255.101Z" fill="#F7B36F"/>
<path d="M414.599 242.601C414.499 242.601 414.399 242.601 414.299 242.501C414.099 242.301 414.099 242.001 414.299 241.801C414.499 241.601 435.499 219.801 439.799 214.201C443.999 208.701 445.999 194.401 445.999 194.301C445.999 194.001 446.299 193.801 446.599 193.901C446.899 193.901 447.099 194.201 446.999 194.501C446.899 195.101 444.899 209.201 440.599 214.901C436.299 220.501 415.899 241.701 415.099 242.601C414.799 242.501 414.699 242.601 414.599 242.601Z" fill="#F7B36F"/>
<path d="M466.399 224.001L466.999 222.901C467.099 222.801 472.999 211.601 474.499 207.501C475.299 205.201 475.899 199.001 476.399 194.001C476.899 189.001 477.099 187.101 477.399 186.501C478.099 185.301 485.699 183.601 488.999 182.901C489.299 182.801 489.499 183.001 489.599 183.301C489.699 183.601 489.499 183.801 489.199 183.901C484.299 184.901 478.799 186.401 478.299 187.001C478.099 187.501 477.699 190.901 477.499 194.001C476.999 199.001 476.499 205.301 475.599 207.701C474.399 211.101 470.199 219.101 468.699 222.101C473.299 220.501 489.899 214.501 498.999 210.901C509.099 206.801 519.299 199.801 520.299 198.301C519.499 196.801 518.699 190.001 518.199 185.901C518.199 185.601 518.399 185.401 518.599 185.301C518.899 185.301 519.099 185.501 519.199 185.701C519.799 191.101 520.699 197.101 521.099 197.701C521.199 197.801 521.299 198.001 521.299 198.301C520.999 200.001 509.099 207.801 499.399 211.701C488.799 216.001 467.999 223.301 467.799 223.401L466.399 224.001Z" fill="#F7B36F"/>
<path d="M524.2 131.602C522.9 128.702 520.6 126.802 518 125.202C515.1 123.402 511.8 121.502 508.3 121.102C504.3 120.702 500.4 122.302 496.6 123.502C494.5 124.202 492.1 124.802 490.8 126.602C490.6 126.602 490.4 126.702 490.4 127.002C490.3 127.002 490.3 127.002 490.2 127.102C489.8 127.402 489.3 127.802 488.9 128.002C488.8 128.102 488.7 128.202 488.7 128.302C485.3 130.902 481 136.302 480 140.402C479.9 140.802 480.3 141.202 480.7 140.902C481.9 140.102 483.1 139.202 484.2 138.302C485.6 137.002 485.4 136.502 487.2 135.802C488.2 135.402 489.2 135.202 489.8 134.302C489.9 134.102 490 134.002 490.1 133.802C490.5 135.102 491 136.402 491.8 137.402C493.3 139.102 495.2 139.002 497.2 139.102C499.8 139.302 500.1 140.402 501.4 142.202C502 142.902 502.6 143.502 503.4 143.902C504.9 144.702 506.4 144.802 508 144.302C509.4 146.102 511.3 145.402 511.7 147.702C511.8 148.402 511.8 149.002 511.8 149.702C512.3 149.502 512.9 149.402 513.6 149.502C515.6 149.802 516.5 151.902 516.8 153.602C517.4 156.602 516.3 159.402 514.4 161.602C514.3 162.702 517.5 180.702 517.5 180.702C517.5 180.702 527.6 177.602 527.8 177.202C529.5 173.502 520.6 170.102 522.1 166.302C523.5 162.802 524.2 159.402 524.6 155.702C525.1 151.202 525.7 146.602 525.7 142.102C525.8 138.802 525.6 134.902 524.2 131.602Z" fill="#362D29"/>
<path d="M483.1 160.401C481.7 160.401 480.4 159.801 479.3 158.701C478.2 157.501 477.6 156.001 477.5 154.301C477.3 150.801 479.7 147.801 482.7 147.701C485.7 147.501 488.3 150.301 488.5 153.801C488.6 155.501 488.1 157.101 487.1 158.301C486.1 159.601 484.8 160.301 483.3 160.401C483.2 160.401 483.2 160.401 483.1 160.401ZM482.9 148.701C482.8 148.701 482.8 148.701 482.7 148.701C480.2 148.801 478.3 151.301 478.5 154.301C478.6 155.701 479.1 157.102 480 158.102C480.9 159.102 482 159.501 483.2 159.501C484.4 159.401 485.5 158.801 486.3 157.801C487.1 156.701 487.5 155.401 487.5 153.901C487.4 151.001 485.3 148.701 482.9 148.701Z" fill="white"/>
<path d="M497.9 160.4C496.5 160.4 495.2 159.8 494.1 158.7C493 157.5 492.4 156 492.3 154.3C492.2 152.6 492.7 151 493.7 149.8C494.7 148.5 496 147.8 497.5 147.7C500.6 147.6 503.1 150.3 503.3 153.8C503.5 157.3 501.1 160.3 498.1 160.4C498.1 160.4 498 160.4 497.9 160.4ZM497.8 148.7C497.7 148.7 497.7 148.7 497.6 148.7C496.4 148.8 495.3 149.4 494.5 150.4C493.7 151.5 493.3 152.8 493.3 154.3C493.4 155.7 493.9 157.1 494.8 158.1C495.7 159.1 496.9 159.5 498 159.5C500.5 159.4 502.4 156.9 502.2 153.9C502.2 151 500.2 148.7 497.8 148.7Z" fill="white"/>
<path d="M492.9 153.301H488V154.301H492.9V153.301Z" fill="white"/>
<path d="M502.799 153.801C502.599 153.801 502.399 153.701 502.299 153.501C502.199 153.201 502.299 153.001 502.599 152.801L513.399 148.301C513.699 148.201 513.899 148.301 514.099 148.601C514.199 148.901 514.099 149.101 513.799 149.301L502.999 153.801C502.999 153.801 502.899 153.801 502.799 153.801Z" fill="white"/>
<path d="M555.7 333.3C555.6 333.3 555.6 333.3 555.7 333.3C555.4 333.3 555.2 333 555.2 332.7C555.5 330.9 561.6 287.3 564.9 277.4C568.1 267.5 571.6 250 571.8 234.8C572 219.9 578.8 184.6 578.9 184.3C579 184 579.2 183.9 579.5 183.9C579.8 184 579.9 184.2 579.9 184.5C579.8 184.9 573 220 572.8 234.9C572.6 250.2 569.1 267.9 565.9 277.8C562.7 287.6 556.3 332.5 556.3 333C556.1 333.1 555.9 333.3 555.7 333.3Z" fill="#BF4C33"/>
<path d="M535.7 328.301C535.6 328.301 535.6 328.301 535.7 328.301C535.3 328.201 527.3 326.901 518.2 318.901C509.2 310.901 499.8 295.401 499.7 295.301C499.6 295.101 499.6 294.801 499.9 294.601C500.1 294.501 500.4 294.501 500.6 294.801C500.7 295.001 510 310.301 518.9 318.201C527.7 326.001 535.7 327.301 535.8 327.301C536.1 327.301 536.3 327.601 536.2 327.901C536.1 328.101 535.9 328.301 535.7 328.301Z" fill="#BF4C33"/>
<path d="M532.8 313.001C532.7 313.001 532.6 313.001 532.6 312.901L509 300.701C508.8 300.601 508.7 300.301 508.8 300.001C508.9 299.801 509.2 299.701 509.5 299.801L533.1 312.001C533.3 312.101 533.4 312.401 533.3 312.701C533.2 312.901 533 313.001 532.8 313.001Z" fill="#BF4C33"/>
<path d="M549.6 199.901C549.5 199.901 549.3 199.801 549.2 199.701C549 199.501 549 199.201 549.2 199.001C549.3 198.901 556.8 192.301 563.8 188.601C570.6 185.001 572 184.801 572.2 184.801C572.5 184.801 572.7 185.001 572.7 185.301C572.7 185.601 572.5 185.801 572.2 185.801C572.2 185.801 570.8 186.001 564.3 189.501C557.4 193.201 550 199.701 549.9 199.801C549.8 199.801 549.7 199.901 549.6 199.901Z" fill="#BF4C33"/>
<path d="M236.1 449.801V511.001C234.4 511.001 232.8 511.101 231.1 511.101V449.801H236.1Z" fill="#362D29"/>
<path d="M314.1 443.9V454.8C314.1 454.8 296.3 471.7 241.9 473C183.1 474.5 161.6 454.8 161.6 454.8V443.9H314.1Z" fill="#362D29"/>
<path d="M237.9 466.4C280.039 466.4 314.2 456.327 314.2 443.9C314.2 431.474 280.039 421.4 237.9 421.4C195.76 421.4 161.6 431.474 161.6 443.9C161.6 456.327 195.76 466.4 237.9 466.4Z" fill="#FAD3B1"/>
<path d="M166.6 453.5V509.7C164.9 509.6 163.3 509.4 161.6 509.3V453.5H166.6Z" fill="#362D29"/>
<path d="M314.1 453.5V505.6C312.4 505.8 310.8 505.9 309.1 506.1V453.5H314.1Z" fill="#362D29"/>
<path d="M239.2 413.401L237.9 448.501L199.3 451.801L177.6 438.401V404.401L214.5 401.301L239.2 413.401Z" fill="white"/>
<path d="M199.9 450.299C199.6 450.299 199.4 450.099 199.4 449.799L199.7 419.699C199.7 419.399 199.9 419.199 200.2 419.199C200.5 419.199 200.7 419.399 200.7 419.699L200.4 449.799C200.4 449.999 200.2 450.299 199.9 450.299Z" fill="#E0CCC3"/>
<path d="M233.7 427.7C233.6 427.4 233.1 427.2 232.9 427.5C230.4 430.4 225.3 435.4 225.4 436.2C225.6 436.9 228.7 437.3 229.8 437.6C231.7 438 233.5 438.5 235.4 438.9C235.8 439 236.1 438.7 236 438.3C235.4 434.7 234.7 431.2 233.7 427.7ZM227.1 435.7C229.1 433.4 231.1 431.2 233 428.9C233.7 431.8 234.4 434.7 234.9 437.7C233.7 437.4 232.4 437.1 231.2 436.8C230.2 436.6 228 436.5 227.1 435.7Z" fill="#DE684E"/>
<path d="M193.8 430.601C193.8 430.201 193.4 429.901 193.1 430.101C189.7 432.001 183.3 435.101 183.2 435.901C183.1 436.601 185.9 438.001 186.9 438.601C188.5 439.601 190.1 440.601 191.8 441.601C192.1 441.801 192.5 441.601 192.6 441.201C193.2 437.701 193.6 434.201 193.8 430.601ZM184.9 436.001C187.5 434.501 190.1 433.001 192.7 431.501C192.5 434.501 192.1 437.501 191.7 440.401C190.6 439.701 189.5 439.101 188.5 438.401C187.6 437.801 185.5 437.001 184.9 436.001Z" fill="#DE684E"/>
<path d="M212 410.801C211.6 410.701 211.3 411.101 211.5 411.501C213.2 415.001 215.7 421.701 216.5 421.801C217.2 421.901 218.8 419.201 219.5 418.301C220.6 416.801 221.8 415.201 222.9 413.701C223.1 413.401 223 413.001 222.6 412.901C219 412.001 215.5 411.301 212 410.801ZM216.6 420.101C215.3 417.401 214 414.701 212.7 411.901C215.7 412.401 218.6 413.001 221.5 413.601C220.7 414.601 220 415.601 219.2 416.701C218.7 417.601 217.7 419.501 216.6 420.101Z" fill="#DE684E"/>
<path d="M185.5 411.799C182.9 411.199 180.2 410.599 177.6 410.199V411.199C180 411.599 182.3 412.099 184.6 412.599C183.8 413.599 183.1 414.599 182.3 415.699C181.7 416.599 180.7 418.499 179.6 419.099C178.9 417.599 178.2 416.199 177.5 414.699V417.499C178.3 419.299 179 420.699 179.3 420.699C180 420.799 181.6 418.099 182.3 417.199C183.4 415.699 184.6 414.099 185.7 412.599C186.1 412.299 185.9 411.899 185.5 411.799Z" fill="#DE684E"/>
<path d="M214.2 442.4C214.5 442.2 214.5 441.7 214.2 441.5C210.7 439.9 204.4 436.4 203.8 436.7C203.2 437.1 203.6 440.2 203.7 441.3C203.8 443.2 203.9 445.1 204 447C204 447.4 204.4 447.6 204.8 447.4C208 445.9 211.1 444.2 214.2 442.4ZM204.6 438.2C207.3 439.5 210.1 440.7 212.8 442C210.2 443.5 207.6 444.9 204.9 446.3C204.8 445 204.8 443.8 204.7 442.5C204.7 441.4 204.2 439.3 204.6 438.2Z" fill="#DE684E"/>
<path d="M181.8 406.001L200.1 417.501L236.1 414.901L212.7 403.801L181.8 406.001Z" fill="#6B3939"/>
<path d="M565.8 379.801C565.8 379.801 580.7 388.601 597 397.801C591.2 411.601 583.9 424.501 574.6 435.901C570.2 441.401 565.3 446.501 559.9 451.301C553.8 456.701 547.3 461.401 540.5 465.501C540.2 465.701 539.8 465.901 539.5 466.101C527.3 473.301 514.1 478.701 500.2 482.701C499.9 482.801 499.5 482.901 499.2 483.001C486.5 486.701 473.3 489.201 459.9 491.201C459.6 491.301 459.2 491.301 458.9 491.401C445.9 493.301 432.7 494.601 419.6 495.801C419.3 495.801 418.9 495.901 418.6 495.901C413 496.401 407.5 496.901 402 497.301C398.3 497.601 394.7 497.901 391 498.301C387.3 498.601 383.7 499.001 380 499.301C379.8 499.301 379.6 499.301 379.3 499.401C379 499.401 378.6 499.501 378.3 499.501C376.3 499.701 374.3 499.901 372.2 500.101V401.501L565.8 379.801Z" fill="white"/>
<path d="M450.7 448.101L450.6 448.001L373.9 404.201C373.7 404.101 373.6 403.801 373.7 403.501C373.8 403.301 374.1 403.201 374.4 403.301L451 447.001L576.4 429.601C576.7 429.601 576.9 429.801 577 430.001C577 430.301 576.8 430.501 576.6 430.601L450.7 448.101Z" fill="#E0CCC3"/>
<path d="M450.8 490.301C450.5 490.301 450.3 490.101 450.3 489.801V449.801C450.3 449.501 450.5 449.301 450.8 449.301C451.1 449.301 451.3 449.501 451.3 449.801V489.801C451.3 490.001 451 490.301 450.8 490.301Z" fill="#E0CCC3"/>
<path d="M452.1 478.901C451.9 478.901 451.6 478.701 451.6 478.501C451.6 478.201 451.8 478.001 452 477.901L536 466.301C536.3 466.301 536.5 466.501 536.6 466.701C536.6 467.001 536.4 467.201 536.2 467.301L452.1 478.901Z" fill="#E0CCC3"/>
<path d="M513.4 448.7C512.7 448.7 512 448.5 511.5 448C510.8 447.5 510.4 446.7 510.3 445.9C510.2 445.1 510.4 444.2 510.9 443.6C511.4 442.9 512.2 442.5 513 442.4L539.1 439C540.8 438.8 542.4 440 542.7 441.7C542.9 443.4 541.7 445 540 445.3L513.9 448.7C513.7 448.7 513.5 448.7 513.4 448.7ZM539.5 439.9C539.4 439.9 539.3 439.9 539.2 439.9L513.1 443.3C512.5 443.4 512 443.7 511.7 444.1C511.3 444.6 511.2 445.1 511.3 445.7C511.4 446.3 511.7 446.8 512.1 447.1C512.6 447.5 513.1 447.6 513.7 447.5L539.8 444.1C540.4 444 540.9 443.7 541.2 443.3C541.6 442.8 541.7 442.3 541.6 441.7C541.5 440.7 540.5 439.9 539.5 439.9Z" fill="#E0CCC3"/>
<path d="M521.4 395.9C521.4 397.2 522.3 398 523.7 398.4L555.6 408.2C556.1 408.2 556.6 408.1 557.1 407.8L566.1 402.1C566.8 401.6 567.3 400.8 567.3 400V399.2L521.4 395.9Z" fill="#4A4747"/>
<path d="M521.4 395.9L534.7 389.7C535.1 389.5 535.5 389.4 535.9 389.5L567.3 399.4L555.8 406.5L521.4 395.9Z" fill="#878484"/>
<path d="M526.601 396.1L537.301 390.9L565.201 399.5L555.801 405L526.601 396.1Z" fill="white"/>
<path d="M480.6 407.6C479.7 406.2 477.9 405 475.9 404C472 402.1 467.8 399.8 465.6 395.9C463.7 392.5 463.3 388.3 463.1 384.4C462.9 379.8 463.4 375.2 464.1 370.7C464.1 370.4 464.1 370.1 464 369.8C463.1 367.3 449 367.3 448 370.4C447.6 371.6 448.5 373.2 448.8 374.4C449.3 376.9 449.8 379.4 449.9 382C450.2 386.9 449.9 391.8 447.9 396.2C446.3 399.7 442.1 402.4 439.2 404.9C437.4 406.4 434.8 408.2 434.5 410.8C434 414.4 438.8 418.2 441.2 420.2C446.6 424.6 449.9 427.7 459 427.5C466.3 427.4 471.4 423.1 477.9 415.6C480.2 413.2 481.7 409.3 480.6 407.6Z" fill="#E6D6CF"/>
<path d="M463.1 370.401C463.1 370.701 462.8 370.901 462.2 371.201C461.9 371.301 461.5 371.401 461.1 371.601C460.2 371.801 459 372.001 457.7 372.101C457.4 372.101 457 372.101 456.7 372.201C456.6 372.201 456.4 372.201 456.3 372.201C455.8 372.201 455.3 372.201 454.8 372.201C454.4 372.201 454.1 372.201 453.8 372.201C453.1 372.201 452.5 372.101 451.9 372.001C451.5 371.901 451.1 371.901 450.8 371.801C449.9 371.601 449.4 371.301 449.4 370.901C449.4 370.601 449.7 370.401 450.3 370.101C450.6 370.001 450.9 369.901 451.2 369.801C451.8 369.601 452.6 369.501 453.6 369.401C453.9 369.301 454.2 369.301 454.6 369.301C455.2 369.301 455.7 369.201 456.3 369.201C456.6 369.201 456.9 369.201 457.1 369.201C457.5 369.201 457.8 369.201 458.1 369.201C459.5 369.201 460.7 369.401 461.6 369.601C462 369.701 462.3 369.801 462.6 369.901C462.9 369.901 463.1 370.101 463.1 370.401Z" fill="#4A4747"/>
<path d="M470 334.5C470.1 333.4 470.2 332.8 469.4 332.1C469.3 332 469 332 468.9 332.1C467 333 466.9 337.3 466.5 339.1C466.1 340.8 465.8 342.5 465.7 344.2C465.5 345.9 465.7 347.5 465.6 349.1C465.6 349.3 465.5 349.5 465.5 349.7C464.7 353.4 464.7 354 464 357.7C463.6 359.7 463.2 361.6 462.8 363.6C462.4 365.4 461.6 367.6 461.6 369.5C461.5 370.2 461.3 370.9 461.2 371.6C461.6 371.5 462 371.4 462.3 371.2L462.6 369.8C463.8 363.6 464.4 360.7 465.6 354.5C465.9 353.2 466 351.8 466.5 350.5C467 349.1 467.9 348 468.3 346.5C468.8 344.5 469.6 342.5 470.1 340.6C470.5 338.5 469.8 336.4 470 334.5Z" fill="#D99F82"/>
<path d="M451.1 369.7C449.5 365.1 447.9 360.5 446.1 356C445.6 351.2 444.1 338.6 440.3 340.6C437.7 342 439.8 346.5 440.3 348.2C440.9 350 441.1 352 442 353.7C442.7 355 444 356 444.9 357.1C445.3 357.6 445.4 358.2 445.7 358.8C446 359.4 446.4 359.8 446.7 360.3C447.5 361.5 447.6 363 448 364.4C448.7 366.3 449.3 368.1 449.9 370C450.1 370.5 450.3 371.1 450.5 371.6C450.8 371.7 451.2 371.8 451.6 371.8C451.6 371.1 451.4 370.4 451.1 369.7Z" fill="#D99F82"/>
<path d="M454.501 369.1C454.101 365.6 454.101 362.1 453.401 358.6C452.701 355.2 454.001 352 454.001 348.6C454.001 347.1 453.701 345.7 453.201 344.3C452.701 342.8 451.501 339.1 449.901 342.3C449.001 344.1 448.801 346.7 449.401 348.6C449.601 349.5 450.301 350.2 450.501 351.1C450.701 352.1 450.601 353.2 450.701 354.2C450.801 355.7 451.501 357.4 452.401 358.7C452.801 362.2 453.201 365.7 453.601 369.2C453.701 370.1 453.801 371.1 453.901 372C454.201 372 454.501 372 454.901 372C454.701 371.1 454.601 370.1 454.501 369.1Z" fill="#D99F82"/>
<path d="M461.101 332.4C459.101 332 459.201 336.5 459.201 337.6C459.201 339.7 458.901 341.7 458.701 343.9C458.601 345.1 459.001 346.3 459.101 347.5C459.301 349.5 458.901 351.7 458.701 353.8C458.501 355.5 458.401 357.2 458.201 358.9C457.801 362.3 457.401 365.7 457.101 369.1C457.001 370.1 456.901 371.1 456.801 372.2C457.101 372.2 457.501 372.2 457.801 372.1C457.901 371.1 458.001 370.1 458.101 369.1C458.901 362.4 459.401 355.7 460.301 349.1C460.801 345.8 462.301 342.6 462.701 339.3C462.901 337.8 463.501 332.8 461.101 332.4Z" fill="#D99F82"/>
<path d="M187.5 373.2C185.8 370.3 181.9 369.9 178.9 369.8C176.5 369.7 174.1 369.7 171.8 369C168.9 368.1 167.4 366.1 166.4 363.3C165.3 360.4 164.4 357.5 161.2 356.3C157.3 354.9 153.2 357 149.4 355.8C147.2 355.1 145.4 353.2 143.4 352.1C141.8 351.2 140 350.5 138.1 350.4C133.8 350 130.5 353.2 126.5 354.3C122.3 355.4 117.8 355.1 114 357.2C111.1 358.8 109.4 361.6 109.5 365C109.9 374.2 123.5 373.2 124 382.5C124.2 386.1 124.1 388.8 127.3 391.1C128.8 392.2 130.6 392.9 132.4 393.4C133.5 393.7 134.7 394 135.8 394.3C136.3 394.4 137 394.6 137.5 394.8C139.3 395.5 139.8 396.3 140.3 398C141.3 401.5 141.7 405.2 144.8 407.6C146.1 408.6 148.1 408.3 149.6 408.9C152.2 410.1 151 410.8 151.9 413.1C154.6 420.4 164.3 414 168.1 411.3C176.9 404.9 194.9 385.6 187.5 373.2Z" fill="#76A387"/>
<path d="M182.3 438.301C181.5 437.601 180.7 436.801 180 436.101C172.4 428.601 163.1 419.001 151.4 420.401C148.9 420.701 146 421.601 145 424.101C144.1 426.401 145.1 428.901 145.7 431.201C146.3 433.501 146.5 435.601 144.8 437.501C143.6 438.701 142.2 439.601 141 440.701C139 442.701 137.6 445.201 136.9 447.901C136.6 449.301 136.4 450.701 136.5 452.101C136.6 454.101 137.6 456.201 137.1 458.101C136.7 459.701 135.4 461.001 134.8 462.501C134.1 464.001 133.6 465.601 133.3 467.201C132.5 471.901 133.5 479.201 139.7 479.201C142.8 479.201 145.3 477.501 147.8 475.901C149.4 474.801 151 473.801 152.9 473.301C155.1 472.701 157.3 472.901 159.5 472.601C162.1 472.201 163.9 470.901 165.1 468.601C166.3 466.301 166.7 463.601 168.2 461.601C170.5 458.601 174.4 460.101 177.4 458.501C179.9 457.201 179.2 454.001 181.3 452.501C182.9 451.401 185 452.501 186.5 451.001C187.2 450.301 187.6 449.301 187.7 448.301C188 444.101 185.1 441.001 182.3 438.301Z" fill="#76A387"/>
<path d="M196.9 341.3C196.1 343 196 344.9 195.1 346.6C193.5 349.7 190.1 351.2 189.3 354.7C188.6 358.4 190.5 362.7 192.5 365.7C193.7 367.5 195.2 369.5 194.8 371.6C194.5 373.5 192.6 375.2 193 377.2C193.4 379.1 195.9 380.1 196.9 381.5C199.6 385.2 194.9 390.5 198.9 394.1C201.1 396.1 204.2 396.2 206.9 395.9C214.9 395 224 394.4 231.3 390.8C234.6 389.1 235 386.3 234.6 382.8C234.2 379.3 232.9 376 230.8 373.2C230 372.2 228.9 371.2 228.6 369.9C228.4 369 228.6 368.1 228.6 367.2C228.6 366 228.4 364.8 227.9 363.7C226.7 360.7 224.3 358.6 221.6 357C219.8 355.9 217.8 354.9 216.5 353.2C215.2 351.5 215.1 349.6 214.8 347.6C214.3 344.8 212.9 342.2 210.7 340.3C207.2 337.1 199.4 335.7 196.9 341.3Z" fill="#76A387"/>
<path d="M283.7 438.501C280.8 436.401 278.2 434.601 277.5 430.801C276.9 427.801 277.2 424.601 275.3 422.101C273.2 419.301 269.5 418.401 267.2 415.801C265.7 414.101 265 411.901 263.9 409.901C263 408.301 261.9 406.801 260.8 405.401C258.6 402.801 255.9 400.801 252.5 399.801C238 395.901 227 417.401 225.6 428.901C224.8 435.801 230.8 436.701 236.3 437.001C238.4 437.101 240.6 437.201 242.7 437.301C245.2 437.401 247.8 437.401 249.4 439.601C251.1 441.901 251.5 444.201 254.3 445.401C257.1 446.601 259.9 446.201 262.9 446.201C265.6 446.301 266.2 447.801 267.7 449.701C268.5 450.701 269.5 451.501 270.5 452.001C275.1 454.501 282.7 454.501 286.4 450.301C290.2 445.901 287.7 441.501 283.7 438.501Z" fill="#76A387"/>
<path d="M216.2 383C214.6 377 211.7 371.4 209.7 365.5C207.7 359.3 206.7 352.8 206.7 346.2C206.7 345.6 205.7 345.6 205.7 346.2C205.7 352.1 206.5 357.9 208.1 363.6C209.9 369.7 212.9 375.4 214.7 381.5C216.6 387.6 217.2 394.6 214.1 400.4C212.3 403.7 209.1 406.1 207.6 409.5C206.4 404.9 199.5 401.9 195.7 400.3C191.9 398.8 187.9 398.2 184 396.8C180.1 395.4 176.5 393.4 173.2 390.9C166.6 386 161.5 379.3 154.6 374.9C148.4 370.9 141.4 368.7 134.1 368.1C133.5 368.1 133.5 369.1 134.1 369.1C141.4 369.6 148.4 372 154.5 376C160.8 380.1 165.4 386.1 171.3 390.7C176.3 394.6 181.7 397.4 187.9 399C191.5 399.9 195.1 400.9 198.4 402.6C201.8 404.4 207.7 407.4 206.6 412C206.5 412.5 207.2 412.8 207.4 412.5C207.6 412.4 207.7 412.3 207.7 412.1C208.3 406.9 213.8 403.7 215.7 398.9C217.9 393.9 217.5 388.2 216.2 383Z" fill="#558567"/>
<path d="M205.9 412.1C201.8 407.7 195.4 407.9 190.3 410.5C183.8 413.8 178.3 419.8 173.9 425.4C169.1 431.6 166 438.9 160.5 444.6C157.9 447.3 155 449.8 152.5 452.6C150.3 455 148.2 457.4 147.8 460.7C147.7 461.3 148.7 461.3 148.8 460.7C149.2 456.8 152.6 453.8 155.2 451.2C157.5 448.9 159.9 446.8 162.1 444.4C166.4 439.8 168.9 434.2 172.4 429.1C176.2 423.6 180.8 418.5 186.1 414.4C191.4 410.2 199.7 407 205.2 412.8C205.6 413.3 206.3 412.6 205.9 412.1Z" fill="#558567"/>
<path d="M260.6 429.2C256.3 427 254.4 422.2 250.9 419.2C247.2 416 242.4 413.9 238 411.9C229.3 408.1 219.1 406.2 210.6 411.4C210 411.7 210.6 412.6 211.1 412.3C220.5 406.6 231.6 409.8 240.7 414.3C244.8 416.3 249.1 418.3 252.1 421.8C254.7 424.8 256.5 428.3 260.2 430.1C260.7 430.4 261.2 429.5 260.6 429.2Z" fill="#558567"/>
</g>
<defs>
<clipPath id="clip0">
<rect width="638.7" height="511.4" fill="white"/>
</clipPath>
</defs>
</svg>
