<svg version="1.1" id="Layer_1" xmlns="http://www.w3.org/2000/svg" xmlns:xlink="http://www.w3.org/1999/xlink" x="0px" y="0px" viewBox="0 0 140 23" style="enable-background:new 0 0 140 23;" xml:space="preserve">
                                    <g>
                                        <path d="M59.4,12.4c2.3-1.1,3.8-3.3,3.8-5.6c0-3.7-3.1-6.7-7-6.7H48v19.7h4.3v-6.6H55l5.4,9H65l-5.8-9.6L59.4,12.4z M56.2,9.6h-3.9
                                    V3.9h3.9c1.5,0,2.7,1.2,2.7,2.8S57.7,9.6,56.2,9.6z M105,5.3c-1.7,0-3.1,0.6-3.8,1.6l-0.4,0.6V0.1H97v19h3.7v-7.4
                                    c0-2,1-3.1,2.8-3.1c1.3,0,2.7,0.7,2.7,2.8v7.7h3.7v-8.3C110,8.1,108.4,5.3,105,5.3z M135,10.9c-1.3-0.3-2.3-0.6-2.3-1.4
                                    c0-0.5,0.4-1.1,1.5-1.1c0.9,0,1.6,0.4,2.1,1.2l3.4-1.8c-1.2-1.8-3.1-2.8-5.4-2.8c-2.8,0-5.6,1.4-5.6,4.6c0,3.1,2.9,3.8,5,4.4
                                    c1.3,0.4,2.4,0.6,2.4,1.4c0,0.4-0.2,1.2-1.9,1.2c-1.3,0-2.2-0.6-2.7-1.6L128,17c1.1,2.1,3.1,3.1,6.1,3.1c2.9,0,5.9-1.2,5.9-4.6
                                    C140,12.2,137.1,11.5,135,10.9z M120.2,5.1c-4.2,0-7.2,3.2-7.2,7.5c0,4.4,3.1,7.5,7.5,7.5c2.5,0,4.4-0.9,5.7-2.7l-3-1.8
                                    c-0.7,0.7-1.7,1.1-2.7,1.1c-1.9,0-3.1-0.7-3.6-2.2l-0.1-0.3h10c0.1-0.5,0.1-1,0.1-1.5C127,8.3,124.1,5.1,120.2,5.1z M116.8,11.3
                                    l0.1-0.3c0.4-1.6,1.6-2.5,3.3-2.5c1.6,0,2.8,0.9,3.2,2.5l0.1,0.3L116.8,11.3L116.8,11.3z M72.5,5.1c-4.2,0-7.5,3.3-7.5,7.5
                                    c0,4.2,3.3,7.5,7.5,7.5s7.5-3.3,7.5-7.5C80,8.4,76.7,5.1,72.5,5.1z M72.5,16.3c-2.1,0-3.6-1.6-3.6-3.7s1.5-3.7,3.6-3.7
                                    c2.1,0,3.6,1.6,3.6,3.7C76.1,14.8,74.6,16.3,72.5,16.3L72.5,16.3z M88.6,16.3c-2.1,0-3.6-1.5-3.6-3.7c0-2.1,1.5-3.7,3.6-3.7
                                    c1.3,0,2.4,0.6,3,1.5l3.5-2c-1.3-2.1-3.7-3.4-6.4-3.4c-4.3,0-7.6,3.2-7.6,7.5c0,4.3,3.3,7.5,7.6,7.5c2.7,0,5.1-1.3,6.4-3.4
                                    l-3.4-1.9C91,15.7,89.9,16.3,88.6,16.3L88.6,16.3z M4,0.1H0v19h11v-3.8H4V0.1z M35,10.9c-1.3-0.3-2.3-0.6-2.3-1.4
                                    c0-0.5,0.4-1.1,1.5-1.1c0.9,0,1.6,0.4,2.1,1.2l3.4-1.8c-1.2-1.8-3.1-2.8-5.4-2.8c-2.8,0-5.6,1.4-5.6,4.6c0,3.1,2.9,3.8,5,4.4
                                    c1.3,0.4,2.4,0.6,2.4,1.4c0,0.4-0.2,1.2-1.9,1.2c-1.3,0-2.2-0.6-2.7-1.6L28,17c1.1,2.1,3.1,3.1,6.1,3.1c2.9,0,5.9-1.2,5.9-4.6
                                    C40,12.2,37.1,11.5,35,10.9z M20.2,5.1C16,5.1,13,8.3,13,12.6c0,4.4,3.1,7.5,7.5,7.5c2.5,0,4.4-0.9,5.7-2.7l-3-1.8
                                    c-0.7,0.7-1.7,1.1-2.7,1.1c-1.9,0-3.1-0.7-3.6-2.2l-0.1-0.3h10c0.1-0.5,0.1-1,0.1-1.5C27,8.3,24.1,5.1,20.2,5.1z M16.8,11.3
                                    l0.1-0.3c0.4-1.6,1.6-2.5,3.3-2.5c1.6,0,2.8,0.9,3.2,2.5l0.1,0.3L16.8,11.3L16.8,11.3z"></path>
                                    </g>
                                </svg>