<svg xmlns="http://www.w3.org/2000/svg" viewBox="0 0 551.32 478.62"><defs><style>.cls-1{fill:#73b5b3;}.cls-2{fill:#469c99;}.cls-3{fill:#aecfe8;}.cls-4{fill:#343442;}.cls-5{fill:#f4a392;}.cls-6{fill:#8d4f4f;}.cls-7{fill:#f7e5cb;}.cls-8{fill:#e6c69e;}.cls-9{fill:#fff;}.cls-10{fill:#fac9a7;}.cls-11{fill:#e67d65;}.cls-12{fill:#cc784e;}.cls-13{fill:#4b5fa9;}.cls-14{fill:#f8ebe4;}.cls-15{fill:#ad562a;}.cls-16{fill:#e0c4c0;}.cls-17{fill:#db6648;}.cls-18{fill:#354899;}.cls-19{fill:#e7a06c;}.cls-20{fill:#f8ede4;}.cls-21{fill:#e6aa80;}</style></defs><g id="Calque_2" data-name="Calque 2"><g id="Calque_1-2" data-name="Calque 1"><path class="cls-1" d="M125.32,188.4a13.73,13.73,0,0,0-1.18-.92s0,0-.07-.06c-6.37-4.57-13.22-.29-18.25,4.46-6.06,5.7-9.87,13.34-12.78,21-1.91,5.05-3.49,10.21-5.34,15.28-.12.38-.27.75-.41,1.12a88.22,88.22,0,0,1-4,9c-1.35,2.69-2.77,5.35-4.17,8a75.33,75.33,0,0,0-5.35,13.79c-.13-2.26-.33-4.52-.46-6.74-.76-12.72-1.73-25.46-4-38A151.34,151.34,0,0,0,64.52,196c-.78-2.39-1.64-4.77-2.52-7.12-1.11-3-2.2-6-3-9.09-.24-.87-.45-1.75-.65-2.63-2-9.33,1.94-24.69-7.82-30.73a8.65,8.65,0,0,0-1.7-.84,7.73,7.73,0,0,0-1.43-.42c-7.14-1.31-13,7.92-15.15,13.81-3.84,10.76-3.75,23.54-2.28,34.7a80.82,80.82,0,0,0,4,16.85c.37,1,.79,2.06,1.24,3.06.73,1.7,1.54,3.36,2.4,5,1.36,2.62,2.84,5.19,4.27,7.83,6.72,12.44,6.78,27.39,12.27,40.36,1.39,3.25,3.18,6.28,4.67,9.48a30.33,30.33,0,0,1,2.79,13.55c0,5.3-.16,10.58-.31,15.87-3.73-9.06-10.08-17.2-13.39-26.51-1.25-3.52-2-7.26-3.7-10.61a3.9,3.9,0,0,0-.19-.35c-1.84-3.55-4.66-6.46-6.72-9.89-.52-.87-1-1.75-1.48-2.61-3-5.65-5.28-11.08-10.77-15.26s-15.33-7.34-20.91-3.86a6.14,6.14,0,0,0-1.14.89c-1.69,1.51-2.79,3.87-3,7.27-.38,6.36,3.28,11.42,7.07,16.15a52.58,52.58,0,0,1,6.57,9.84c1.58,3.28,3.13,6.34,5.76,8.89a55.2,55.2,0,0,0,9.45,7.05c2,1.26,4,2.5,6,3.82a53,53,0,0,1,5,3.64,57.36,57.36,0,0,1,15.72,20.06c-1-.33-2-.63-3-.9a.75.75,0,0,0-.4,1.45,49.56,49.56,0,0,1,7.57,2.66c.59.27,1.18.53,1.76.85s1.07.53,1.6.82a.74.74,0,0,0,1.11-.64c0-.29,0-.57,0-.85,1,.12,2,.23,3,.31a47.84,47.84,0,0,0-1,12.6c.07.94,1.57.95,1.49,0a43.29,43.29,0,0,1,.15-7.56c.18-1.65.42-3.29.7-4.94a.5.5,0,0,1,.17,0h.64c.51,0,1,.05,1.51.05a29.67,29.67,0,0,0,4.34-.26c3.75-.52,4.88-4.2,6.61-7.17,5.3-9.11,11.26-18.09,15.64-27.68a44.48,44.48,0,0,0,3.73-12.07c.9-6.18,1.33-11.58,4.2-17.25a46,46,0,0,0,4.55-12,.61.61,0,0,0,0-.13c1-5.32,1.66-10.56,4.64-15.23l.14-.19c4.62-7.14,12-12.21,15-20.42C132.25,198.84,130.65,192.87,125.32,188.4Z"/><path class="cls-2" d="M62.94,325c-.5-2.16-.94-4.46-1.42-6.8-1.37-6.73-3-13.79-7-19.06-2.69-3.58-6.24-6.45-9.06-9.93-3.2-3.92-5.6-8.3-8.3-12.53a18.58,18.58,0,0,1,3-4.81c1.17-1.33,2.76-2.31,3.82-3.72-1.84-3.55-4.66-6.46-6.72-9.89-.52-.87-1-1.75-1.48-2.61a32.4,32.4,0,0,1-.73,3.94c-.89,3.61-2.16,7-3.15,10.49-.92-.94-1.88-1.85-2.92-2.73a20.14,20.14,0,0,1-5.2-5.75c-1.22-2.19-2-4.61-3.16-6.83a44.8,44.8,0,0,0-7.11-10c-2.83-3-6.56-5.25-9.41-8.25a6.14,6.14,0,0,0-1.14.89c2.11,2.15,4.63,3.84,6.9,5.87a43.83,43.83,0,0,1,8.89,11.16c2.05,3.67,3.15,8,6,11.12C27,268,29.29,269.85,31.47,272a37.14,37.14,0,0,0-.85,4.81c-.31,3.3-.46,6.78-1.74,9.87,2,1.26,4,2.5,6,3.82a33.4,33.4,0,0,1,.86-9.81c.2-.76.44-1.52.7-2.27,1.94,3.11,3.74,6.29,5.9,9.24a92.68,92.68,0,0,0,8.37,9.45c5.26,5.48,7.39,12.89,9,20.3.59,2.71,1.13,5.43,1.73,8.06C61.71,326.39,63.15,326,62.94,325Z"/><path class="cls-2" d="M70.8,287.52a61.61,61.61,0,0,0-3.55-16.43c-1-2.72-2.13-5.39-2.87-8.2-.95-3.61-1-7.32-1.22-11-.64-11.9-5.63-23-7.57-34.7a104.38,104.38,0,0,0-4.3-17.6c0-.07,0-.15-.07-.21A53.69,53.69,0,0,1,62,188.87c-1.11-3-2.2-6-3-9.09-3.45,4-7.14,7.68-10.36,11.86a77.86,77.86,0,0,1-2.4-9.18,73.63,73.63,0,0,1,2.59-36.88,7.73,7.73,0,0,0-1.43-.42,75,75,0,0,0-3.76,28.41c.42,6.77,2.13,13.06,4.1,19.3-.21.28-.42.55-.61.83a193.35,193.35,0,0,0-10.46,17.21c-.49.88-1,1.78-1.42,2.67.73,1.7,1.54,3.36,2.4,5a99.37,99.37,0,0,1,7.57-11.41c1.61-2.15,3.28-4.37,5-6.55.66,2.09,1.28,4.18,1.87,6.32,1.58,5.89,2.13,12,3.44,17.95s3.54,11.66,4.91,17.6c1.45,6.21.9,12.58,2.08,18.82,1.13,5.92,4.1,11.33,5.46,17.22,3.33,14.39.9,29.37-1.43,43.72-.15.82.94,1.24,1.31.68a.51.51,0,0,0,.12-.29c.25-1.54.51-3.08.75-4.63C70.29,307.92,71.62,297.72,70.8,287.52Z"/><path class="cls-2" d="M105.07,225.36c-1.22,0-2.49.06-3.79.13a73.71,73.71,0,0,1,4.81-11.31c5.11-9.46,12-17.78,19.23-25.78a13.73,13.73,0,0,0-1.18-.92A160.91,160.91,0,0,0,108,208a78,78,0,0,0-7.19,14.1c-.44,1.17-.84,2.33-1.23,3.5a40.08,40.08,0,0,0-11.86,2.56c-.12.38-.27.75-.41,1.12a88.22,88.22,0,0,1-4,9c3,1.41,5.75,3.82,8.88,5.57-3.65,8.64-5.31,17.7-7.58,26.91a86.24,86.24,0,0,1-6.39,17.4c-2.4,5-4.83,10-6.29,15.32A92.07,92.07,0,0,0,69.34,318c-.94,8.69-1.36,17.45-3.6,25.91-.25.93,1.2,1.33,1.43.41,2.27-8.61,2.71-17.48,3.68-26.27.31-2.81.68-5.61,1.19-8.4,2.06-11.44,8.48-20.84,12-31.71s4.41-22.88,9.23-33.5a13.62,13.62,0,0,0,1.36.59,6.89,6.89,0,0,0,5.69-.1,80.21,80.21,0,0,1,9.58-3.4c1-5.32,1.66-10.56,4.64-15.23l.14-.19C111.68,226.39,108.09,225.31,105.07,225.36Z"/><path class="cls-3" d="M99.56,310.91V382H58.23a67.15,67.15,0,0,1-32.38-57.55V310.91Z"/><rect class="cls-4" x="25.85" y="310.91" width="73.72" height="11.75"/><path class="cls-4" d="M49.43,469.66h0a1.35,1.35,0,0,1-1.34-1.37l.81-92a1.36,1.36,0,0,1,1.35-1.34h43a1.36,1.36,0,1,1,0,2.71H51.59l-.8,90.67A1.37,1.37,0,0,1,49.43,469.66Z"/><path class="cls-1" d="M499.65,129.25c-1.71-.9-4.3.6-5.78,1.46a15.19,15.19,0,0,0-1.38.94c1.74-6.45,2.29-12.79-2.45-12.76-3.6,0-6.52,4.29-7.73,7.18-1.75,4.18-2.1,9-2,13.72-2.09-3.85-5.23-7.78-8.27-3.85-2.35,3,1.72,14.49,6.14,18.3a.73.73,0,0,0,.93,0c1.93,1.62,2.12,3.54,4.62,4.47a21.18,21.18,0,0,0,8.79,1.14c1.82-.18,1.36-1.58,2-3.37A79.69,79.69,0,0,0,498,145.19c.74-4,2-7.86,2.81-11.83C501.11,131.85,501.22,130.08,499.65,129.25Z"/><rect class="cls-4" x="458.43" y="192.57" width="4.48" height="49.25"/><path class="cls-5" d="M295.37,146l60.39-6.64,41,6.66a49,49,0,0,0,4.54-32.95c-4.1-18.29-26.88-19-47.58-16s-67.28,21.41-67.28,21.41Z"/><path class="cls-5" d="M304.46,142.86s1,7.6-4.59,11.52-16,11.28-21.13,11.11c-3.69-.13-4.69-3.77-1.93-6s6.14-5.36,6.14-5.36l-14.88,3.91-8.9-31.43,27.37-9.19s17.61,11.61,18.13,12.24S304.46,142.86,304.46,142.86Z"/><path class="cls-5" d="M230.82,152.16l-13.41,1.15c-2.33.21-4.86.44-7.53.66-22.11,1.93-53.91,4.75-54.6,5.05-1.05.46-21.81,16.19-21.81,16.19S114.65,159.57,119.22,143c4-14.41,22.22-21.05,37.8-21.05,5.78,0,35.51,2.51,55.18,4.22l7.44.65,10.29.92Z"/><path class="cls-5" d="M221.73,156.24a15.64,15.64,0,0,0,8.78,7.65c8.28,2.61,21.14,3.71,25.32,1.38,3-1.69-.61-6.35-3.87-7s-7.43-1.83-7.43-1.83l14.1-3.13-6.07-30.06-26.79,4.08s-9.71,17.26-9.88,18S221.73,156.24,221.73,156.24Z"/><path class="cls-6" d="M107.33,440.57c.25.74,4.48,30.72,4.48,30.72h11.45V439.07Z"/><path class="cls-6" d="M531.06,440.57c-.25.74-4.48,30.72-4.48,30.72H515.14V439.07Z"/><path class="cls-7" d="M95.41,379.74S79.32,260.34,85.29,245.42,118.88,223.78,153.2,223s299.26-4.48,319.4,0,21.65,42.54,26.87,84.33,5.22,57.46,5.22,57.46v25.37S226.34,414.07,224.1,414.07,95.41,379.74,95.41,379.74Z"/><path class="cls-7" d="M97,347.66s-12.61,0-13,15.92,12.32,79.25,17.24,83.08c6.72,5.22,196.27-2.49,250-2.49s179.6,0,189.06-3.48,11.58-76.78,10.94-81.72c-.75-5.72-4-9.82-24.38-18.78a320.67,320.67,0,0,0-38.31-13.93Z"/><path class="cls-8" d="M118.5,421.09a.68.68,0,0,1,0-1.35l405.9-6.31L491.34,387.9a.68.68,0,0,1,.83-1.07l34.58,26.71a.67.67,0,0,1-.4,1.21l-407.84,6.34Z"/><path class="cls-8" d="M113.06,392.09a.68.68,0,0,1-.68-.67.67.67,0,0,1,.67-.68l377-4.05h0a.68.68,0,0,1,0,1.36l-377,4Z"/><path class="cls-8" d="M118.5,443.85a.67.67,0,0,1-.67-.61c-.08-.78-7.86-78.41-10.06-87.59-2.07-8.6-12.12-7.17-12.54-7.1a.69.69,0,0,1-.78-.56.69.69,0,0,1,.57-.78c.12,0,11.71-1.7,14.07,8.12,2.22,9.27,9.77,84.58,10.09,87.78a.69.69,0,0,1-.61.74Z"/><path class="cls-8" d="M526.34,439.75h0a.67.67,0,0,1-.66-.69c0-.61,1.51-60.64,3.36-74,1.93-13.86,14.35-14,14.48-14a.68.68,0,1,1,0,1.36c-.46,0-11.38.18-13.14,12.85-1.83,13.24-3.33,73.2-3.35,73.8A.67.67,0,0,1,526.34,439.75Z"/><path class="cls-8" d="M491.76,388.05h0a.69.69,0,0,1-.67-.69c0-1.67.51-41.07,1.25-48.23a11.88,11.88,0,0,1,7.7-9.84.68.68,0,0,1,.41,1.3,10.28,10.28,0,0,0-6.76,8.68c-.74,7.1-1.24,47.7-1.24,48.11A.69.69,0,0,1,491.76,388.05Z"/><path class="cls-9" d="M515.47,346.4c.66-4.42,1.84-8.79,1.63-13.25-.42-8.94-6.3-16.58-11.93-23.55-4.42-5.5-9.21-11.24-15.91-13.39-4.79-1.54-9.95-1-15-1.15-7-.17-13.85-1.55-20.81-1.45a48.48,48.48,0,0,0-24.12,7c-6.67,4-13.37,8.06-14.79,16.25-.78,4.57-.54,9.32-1.9,13.74s-4.17,8.13-5.62,12.46a19.76,19.76,0,0,0-.87,3.57h0a22.7,22.7,0,0,0-.28,4.94c.3,7.76,3.85,15.63,7.33,22.79,3.33,6.84,7,14.11,13.74,17.7,4.73,2.56,10.3,2.9,15.57,4,2,.4,4,.92,5.91,1.48,3.76,1,7.46,2.26,11.24,3.14a45.27,45.27,0,0,0,6.73,1.14c15,1.33,29.69-6.85,39.61-18.21,4.49-5.15,8.32-11.19,9.2-17.95.68-5.24-.44-10.54-.12-15.81A33.69,33.69,0,0,1,515.47,346.4Z"/><path class="cls-3" d="M435,304.12s5.1,8.21,4,12.32a27.22,27.22,0,0,0-.87,8l8.7,1.86s5.6-5.59,8-9.2a45.41,45.41,0,0,1,6.72-7.43l-5.23-1.78s-6.84,4.73-8.7,8.21a15.91,15.91,0,0,1-3.86,5s-1.12-10.82-1.74-13.31a10.4,10.4,0,0,0-1.49-3.61Z"/><path class="cls-3" d="M471.68,386.85a44.66,44.66,0,0,0-6.72,7.42,55.7,55.7,0,0,1-5.28,6.38c-3.78-.88-7.48-2.1-11.24-3.14a23.38,23.38,0,0,1,.72-3.87c1.12-4.1-4-12.31-4-12.31h5.48a10.16,10.16,0,0,1,1.49,3.61c.63,2.49,1.75,13.31,1.75,13.31a16,16,0,0,0,3.85-5c1.86-3.48,8.72-8.21,8.72-8.21Z"/><path class="cls-3" d="M509.18,377.22s-7.12-6.45-7.24-10.69a27.75,27.75,0,0,0-1.46-7.88l-8.68.64s-3.63,6.92-4.82,11a45,45,0,0,1-4.16,9l5.39.25s5.06-6.44,5.81-10.3a16,16,0,0,1,2.18-5.84s4.14,10.06,5.43,12.27a10.45,10.45,0,0,0,2.43,3Z"/><path class="cls-3" d="M488.52,337.17s4.41-8.53,8.48-9.73a28,28,0,0,0,7.24-3.43l-2.84-8.22S493.78,314,489.5,314a44.8,44.8,0,0,1-9.76-1.73l1.14,5.28s7.52,3.24,11.44,3a15.88,15.88,0,0,1,6.21.62s-8.67,6.57-10.48,8.38a10.51,10.51,0,0,0-2.32,3.13Z"/><path class="cls-3" d="M429,358a27.63,27.63,0,0,1-7.24,3.42c-4.07,1.21-8.47,9.74-8.47,9.74l-2.79-4.56a10.51,10.51,0,0,1,2.32-3.12c1.81-1.82,10.47-8.39,10.47-8.39a15.94,15.94,0,0,0-6.2-.63c-3.48.24-9.76-2.27-11.16-2.85a22.7,22.7,0,0,1,.28-4.94,40,40,0,0,0,8.06,1.27c4.27.09,11.9,1.83,11.9,1.83Z"/><path class="cls-3" d="M477.34,355.74s-7.09-6.47-7.19-10.72a27.94,27.94,0,0,0-1.43-7.88l-8.68.6s-3.67,6.91-4.86,11a44.88,44.88,0,0,1-4.2,9l5.39.27s5.08-6.41,5.84-10.27a15.92,15.92,0,0,1,2.21-5.83s4.1,10.08,5.38,12.29a10.41,10.41,0,0,0,2.41,3.05Z"/><path class="cls-10" d="M286.32,113.89a6.58,6.58,0,0,0-1-3.08,37.11,37.11,0,0,0-2.76-4.56c-.86-1.06-2.61-1.56-3.24-2.51s-.43-2.5-1.21-3.64a6.43,6.43,0,0,0-2.84-2.2,9.79,9.79,0,0,0-5.55-.38c-3-2.18-7.4-2.28-10.89-1.08a16.47,16.47,0,0,0-12.67.28,8.39,8.39,0,0,0-3.47,2.84c-4,0-7.77,3-10.08,6.21a14.74,14.74,0,0,0-2.7,10.66,14,14,0,0,0-3.69,4.73,7.25,7.25,0,0,0-.24,5.56,16.9,16.9,0,0,1,1.19,5,4.91,4.91,0,0,0,.65,2c1.8,3.05,4.9,3.12,7.77,2.13a1.05,1.05,0,0,0,.32.09,8.39,8.39,0,0,0,3.09-1.08c3.22-1.41,6.36-3,9.53-4.53,7.06-3.38,14.23-7,22-8.42,4.12-.75,7.52.56,11.52.74a6.64,6.64,0,0,0,5.09-1.66C289.6,118.53,288.17,116.08,286.32,113.89Z"/><path class="cls-5" d="M180.37,151.28l-15.71.94s-38.47,15.81-33.28,21c7.5,7.49,20,15.61,34,23.93,11.05,6.59,31.58,16.18,31.58,16.18l6.13-49Z"/><path class="cls-5" d="M341,144.12l17.41-13.9s44.73-5.48,43.11,2.17c-2.33,11.06-9.15,23.39-15.87,35.33s-19,29.29-19,29.29L331.13,163.4Z"/><polygon class="cls-5" points="285.04 192.81 276.16 202.13 260.29 191.31 258.2 177.63 257.04 170.06 256.19 164.45 279.37 159.76 280.19 159.6 281.28 167.06 285.04 192.81"/><path class="cls-11" d="M282,165.06a12.9,12.9,0,0,1-.7,2A18.39,18.39,0,0,1,270,177.3a18.85,18.85,0,0,1-11.76.33L257,170.06a8.72,8.72,0,0,1,4.54-1.9c6.76-.91,14.59-6.65,17.79-8.4S282,165.06,282,165.06Z"/><path class="cls-5" d="M238.88,133a20.18,20.18,0,0,1,3.77-10.37c2.82-4.23,7.45-6.89,12.13-8.88a20.1,20.1,0,0,1,5-1.56c2.52-.34,9.46,1,11.93,1.55,4.65,1.07,6.7,5,8.29,8.89,3,7.42,6.17,23.54,5.74,31.51-.65,12.07-7.94,20.61-21.11,19.54-8.75-.7-14.53-9.36-18.82-16.55C242.72,151.83,238.12,140.32,238.88,133Z"/><path class="cls-5" d="M278.73,136.17s3.16-4.95,7.9-3.3C290,134,293.4,142,288.3,147.53A18,18,0,0,1,276,153Z"/><path class="cls-5" d="M246.52,145.84s-5-3.08-8.55.47c-2.49,2.5-2.12,11.17,4.88,13.92a18,18,0,0,0,13.48-.47Z"/><path class="cls-5" d="M245.27,180.87c.84.28,14.28-.66,22.11-1.22s30.88-5.9,30.88-5.9l9.14,8.61s-14.92,20-15,20.8-2.42,5.78-4.66,6-15.77,1-19.78,0-16.14-2-19.21-6.16-9.94-12.59-9.94-12.59Z"/><path class="cls-4" d="M255.76,143.12c-.45.23-.77.64-1.21.91a2.36,2.36,0,0,1-1.74.29c-.45-.1-.95-.45-1.41-.27-.88.32-.2,1.34.25,1.67a3.08,3.08,0,0,0,2.33.59,4,4,0,0,0,2.85-1.94,1.47,1.47,0,0,0,.13-.82.75.75,0,0,0-.53-.59.92.92,0,0,0-.56.1Z"/><path class="cls-4" d="M271,139.45c.5-.06,1,.08,1.51.05a2.32,2.32,0,0,0,1.59-.77c.31-.33.52-.9,1-1,.9-.24.93,1,.76,1.52a3.17,3.17,0,0,1-1.57,1.82,4,4,0,0,1-3.46.05,1.44,1.44,0,0,1-.56-.59.73.73,0,0,1,.08-.79,1,1,0,0,1,.52-.24Z"/><path class="cls-11" d="M268.6,148.73c-.65-1.82-2.47-3.52-3.63-5-.58-.75-1.87,0-1.29.75.92,1.21,1.88,2.4,2.78,3.63,1.22,1.69.52,3.28-.47,4.9-.5.82.79,1.57,1.29.75C268.15,152.3,269.21,150.45,268.6,148.73Z"/><path class="cls-11" d="M273.54,154.3c-1.54,1.6-3.13,3.27-5.37,3.83a9.9,9.9,0,0,1-7.22-1c-.82-.5-1.57.79-.75,1.29a11.2,11.2,0,0,0,7.43,1.28c2.94-.44,5-2.31,7-4.39C275.26,154.66,274.21,153.6,273.54,154.3Z"/><path class="cls-11" d="M285.67,138.05c-.66-.7-1.72.35-1.06,1a4.36,4.36,0,0,1,.79,4.92c-.42.86.87,1.62,1.29.75A5.91,5.91,0,0,0,285.67,138.05Z"/><path class="cls-11" d="M246.14,155.48c-1.13-.32-2.11-.49-2.66-1.67a7.11,7.11,0,0,1-.23-3.72c.1-1-1.4-1-1.49,0a7.58,7.58,0,0,0,.6,4.79c.79,1.32,2,1.64,3.38,2A.75.75,0,0,0,246.14,155.48Z"/><path class="cls-10" d="M254,132.92a6.06,6.06,0,0,0-3.93,1.31,9.5,9.5,0,0,0-2.89,2.86c-.56,1.18.62,1.53,1.52,1.22,1.24-.41,2.25-1.33,3.45-1.86.79-.35,1.66-.52,2.46-.86.62-.27,1.26-.78,1.21-1.44s-.76-1.06-1.4-1.18Z"/><path class="cls-10" d="M268,129.59a6,6,0,0,1,4-1,9.59,9.59,0,0,1,4,.92c1.1.7.27,1.62-.66,1.84-1.27.3-2.61,0-3.9.22-.87.12-1.69.44-2.55.56a1.67,1.67,0,0,1-1.79-.59,1.56,1.56,0,0,1,.58-1.73A2.6,2.6,0,0,1,268,129.59Z"/><path class="cls-10" d="M241.08,146.35c2.39-1.62-.73-14.14.57-15.94s5-1.06,7.08-3,3-7.58,6.21-7,1.75,2.61,6.22.74,8-3.48,9,0,4.07,3.51,7.37,3.61,4.48,10.34,5.85,10.89-.13-9.4,0-10.52-1.5-9.32-3.49-10.19-7.4-4.23-11.16-4.23-7.12-.13-10.1,0a22.51,22.51,0,0,0-8.21,2c-2.12,1-7.09,6-8.09,7.09s-4.1,3.6-4.72,5.34-3.86,5.27-3.86,5.27S238.69,148,241.08,146.35Z"/><path class="cls-12" d="M347.84,318.51s34.09,10.49,47.9,17.95,27.61,12.69,30.22,33.21-26.86,109-26.86,109H372.61l-18.29-8.95s3.73-15.67,6-22,3.42-20.76,4.48-32.33c1.24-13.56,4.1-21.23,4.1-21.23l-37.17-11-50.51-28-1.87-36.61Z"/><path class="cls-12" d="M232.82,370.79s9.29,13.88,26.08,20.06c7,2.57,14.73,8,21.93,9.82,2.25.58,4.5,1.11,6.77,1.61,3.5.77,3.29,2.93,4.22,6A61.08,61.08,0,0,0,297.26,421c5.51,9.7,9.43,12.19,10.92,18.9s7.21,15.18,12.44,23.39,10.57,15.29,10.57,15.29h41.42s-25-95.14-32.84-108.2-49.63-36.2-51.49-36.57-35.51-14.27-37.91-14.23S237.53,337,237.53,338.2,232.82,370.79,232.82,370.79Z"/><path class="cls-9" d="M253,180.62s6.28,6.59,17.6,5.66,20.28-10.88,20.28-10.88l11-3.3,20.33,24.81,11.94,68.66,16.3,50.74s-8.89,13.13-19.34,18.11-10.42,3.94-21.58,7.42-28.83,3.1-40,.87-35.73-.87-35.73-.87l2.77-132.21-2.77-30.26Z"/><path class="cls-13" d="M297.26,173.49s13.65,29.39,17.39,45.06,5.47,15.18,9.45,27.12,11.44,49.25,15.92,55.72,8.65,17.38,8.65,17.38l18,5.93S353,259.1,350.47,245.42s-12.66-52.74-18.27-61.94S319.87,159.6,319.5,159,297.26,173.49,297.26,173.49Z"/><path class="cls-13" d="M253.46,390.19c-.26,1.49-6.48.49-15.18-3.48s-17.66-5.22-22.39-7.71-4-4.79-3-17.91,3.24-114.93,3-129.85,2.73-59.82,3.85-59.14,25.37,8,25.37,8-2.61,47,0,61.27c.77,4.12,1.47,10.57,2.09,18.09l0,0c.07,1,.16,2.06.24,3.12,1.41,18.09,2.43,40.95,2.76,52.47C250.71,332.24,253.7,388.7,253.46,390.19Z"/><path class="cls-13" d="M224.55,173.75l-35.83-17.66s-26,58.69-24.49,62c.8,1.78,2.93,1,4.45,1.82,2.36,1.23,3.89,4.34,5.5,6.34a10.62,10.62,0,0,0,7,4.2,6.65,6.65,0,0,1,2.18.42,5.23,5.23,0,0,1,1.74,1.76c3.66,5,18.47,14,22.34,18.78,3.24,4,15.18,17.91,15.18,17.91s9.2-59.88,9.2-59.67S224.55,173.75,224.55,173.75Z"/><path class="cls-13" d="M311.42,163.87l34.1-23.39s25.59,34,30.57,41.75,7.46,11,5.47,13.44-4.48,7.71-7.71,12.93-11.2,3-14.43,15.42-14.68,27.37-14.68,27.37Z"/><path class="cls-11" d="M283.78,163.9a.67.67,0,0,1-.38-.11.69.69,0,0,1-.18-.95s1.18-1.8,1.61-5.93c.34-3.4.32-7.17.32-7.21a.67.67,0,0,1,.26-.54s1.25-1,2.41-2.12,3.92-3.81,1.93-9.13c-1.75-4.65-4.66-4.7-4.71-4.7h0a.68.68,0,0,1-.68-.67.69.69,0,0,1,.67-.69h0c.22,0,3.92.09,6,5.58,2.3,6.16-1.12,9.49-2.25,10.58-.9.88-1.83,1.65-2.26,2,0,1,0,4.14-.33,7-.47,4.53-1.78,6.49-1.84,6.57A.67.67,0,0,1,283.78,163.9Z"/><path class="cls-11" d="M350.47,140.61a.68.68,0,0,1-.68-.58.69.69,0,0,1,.58-.77l14.68-2.12a.68.68,0,0,1,.19,1.35l-14.68,2.12Z"/><path class="cls-11" d="M251.66,166.17a.68.68,0,0,1-.51-.23l-3.5-4-.66-.05c-4.53-.35-8.28-2.48-10.27-5.85a9.71,9.71,0,0,1-1.29-7.35,5.94,5.94,0,0,1,3-3.7.68.68,0,0,1,.63,1.2,4.51,4.51,0,0,0-2.37,2.87,8.42,8.42,0,0,0,1.14,6.28c1.77,3,5.13,4.89,9.22,5.2l.93.08a.67.67,0,0,1,.46.22l3.67,4.17a.68.68,0,0,1-.5,1.13Z"/><path class="cls-11" d="M159.67,158.78a.68.68,0,0,1,0-1.35c10.6-.64,26.74-1.69,27.81-2a.66.66,0,0,1,.86.38.69.69,0,0,1-.39.89c-1,.41-21.84,1.68-28.2,2.06Z"/><path class="cls-6" d="M219.64,126.78q-1.12,13.28-2.23,26.53c-2.33.21-4.86.44-7.53.66q1.16-13.92,2.32-27.84Z"/><path class="cls-14" d="M197.42,166.46a1.57,1.57,0,0,0-1.44.44.35.35,0,0,0-.19.06,13.51,13.51,0,0,0-5.31,5.87c-.23.59-.33,1.26.28,1.66s1.48-.24,2-.75a43.2,43.2,0,0,1,3.15-3.2,5.21,5.21,0,0,0,2-2.36C198,167.54,198.15,166.71,197.42,166.46Z"/><path class="cls-14" d="M233.34,212.75a1.59,1.59,0,0,0-1.44.43.49.49,0,0,0-.19.07,13.51,13.51,0,0,0-5.31,5.87c-.23.59-.33,1.26.28,1.65s1.48-.23,2-.74a43.33,43.33,0,0,1,3.15-3.21,5.28,5.28,0,0,0,1.95-2.36C234,213.83,234.07,213,233.34,212.75Z"/><path class="cls-14" d="M350.11,229.05a1.57,1.57,0,0,0-1.44.44.35.35,0,0,0-.19.06,13.51,13.51,0,0,0-5.31,5.87c-.23.59-.33,1.26.28,1.65s1.48-.23,2-.74a39.48,39.48,0,0,1,3.14-3.2,5.23,5.23,0,0,0,1.95-2.37C350.73,230.13,350.84,229.29,350.11,229.05Z"/><path class="cls-14" d="M354,296.94a1.57,1.57,0,0,0-1.45.43.56.56,0,0,0-.19.07,13.5,13.5,0,0,0-5.3,5.87c-.24.59-.34,1.26.27,1.65s1.49-.24,2-.74a38.13,38.13,0,0,1,3.15-3.21,5.28,5.28,0,0,0,1.95-2.36C354.57,298,354.68,297.18,354,296.94Z"/><path class="cls-14" d="M232.66,277.41a1.6,1.6,0,0,0-1.45.43.56.56,0,0,0-.19.07,13.55,13.55,0,0,0-5.3,5.87c-.24.59-.34,1.26.27,1.65s1.49-.24,2-.74a38.13,38.13,0,0,1,3.15-3.21,5.28,5.28,0,0,0,2-2.36C233.27,278.49,233.38,277.65,232.66,277.41Z"/><path class="cls-14" d="M228.81,336.24a1.57,1.57,0,0,0-1.44.44.3.3,0,0,0-.19.07,13.49,13.49,0,0,0-5.31,5.86c-.23.6-.33,1.26.28,1.66s1.48-.24,2-.74a39.6,39.6,0,0,1,3.14-3.21,5.21,5.21,0,0,0,1.95-2.36C229.43,337.32,229.54,336.49,228.81,336.24Z"/><path class="cls-14" d="M193.58,200.4a1.56,1.56,0,0,0-1.44.44.39.39,0,0,0-.2.06,13.55,13.55,0,0,0-5.3,5.87c-.24.59-.33,1.26.28,1.65s1.48-.23,2-.74a39.61,39.61,0,0,1,3.15-3.2,5.36,5.36,0,0,0,1.95-2.37C194.19,201.48,194.31,200.64,193.58,200.4Z"/><path class="cls-14" d="M361.08,179.88a1.56,1.56,0,0,0-1.44.43.49.49,0,0,0-.19.07,13.46,13.46,0,0,0-5.31,5.87c-.23.59-.33,1.26.28,1.65s1.48-.24,2-.74a41.47,41.47,0,0,1,3.15-3.21,5.16,5.16,0,0,0,1.95-2.36C361.7,181,361.81,180.12,361.08,179.88Z"/><path class="cls-14" d="M318.54,168a1.6,1.6,0,0,0-1.44.44.49.49,0,0,0-.19.07,13.52,13.52,0,0,0-5.31,5.87c-.23.59-.33,1.26.28,1.65s1.48-.24,2-.74a39.6,39.6,0,0,1,3.14-3.21,5.16,5.16,0,0,0,1.95-2.36C319.16,169.12,319.27,168.28,318.54,168Z"/><path class="cls-14" d="M226.55,189.16a1.63,1.63,0,0,0-.3-1.55.41.41,0,0,0-.05-.21,14.14,14.14,0,0,0-5.51-6.17c-.59-.31-1.27-.49-1.75.1s.08,1.57.55,2.15a41.66,41.66,0,0,1,3,3.63,5.5,5.5,0,0,0,2.24,2.29C225.35,189.68,226.21,189.89,226.55,189.16Z"/><path class="cls-14" d="M346.74,159.41a1.62,1.62,0,0,0-.3-1.54.52.52,0,0,0,0-.21,14.13,14.13,0,0,0-5.52-6.18c-.59-.31-1.27-.48-1.75.11s.09,1.56.55,2.14a41.91,41.91,0,0,1,3,3.64,5.44,5.44,0,0,0,2.24,2.29C345.54,159.93,346.4,160.14,346.74,159.41Z"/><path class="cls-14" d="M247.22,259.48l0,0a13.44,13.44,0,0,0-5-5.27c-.59-.31-1.28-.49-1.76.11s.09,1.57.55,2.13a45.53,45.53,0,0,1,3,3.64,5.5,5.5,0,0,0,2.24,2.29,2.16,2.16,0,0,0,1.27.24C247.38,261.54,247.29,260.49,247.22,259.48Z"/><path class="cls-14" d="M245.51,372a1.66,1.66,0,0,0-.29-1.55.46.46,0,0,0-.05-.21,14.14,14.14,0,0,0-5.51-6.17c-.59-.31-1.28-.48-1.75.11s.08,1.56.55,2.14a45.26,45.26,0,0,1,3,3.63,5.52,5.52,0,0,0,2.24,2.3C244.32,372.51,245.17,372.72,245.51,372Z"/><path class="cls-14" d="M213.74,237a1.66,1.66,0,0,0-.29-1.55.63.63,0,0,0,0-.21,14.14,14.14,0,0,0-5.51-6.17c-.59-.31-1.28-.49-1.76.1s.09,1.57.56,2.15a43.56,43.56,0,0,1,3,3.63,5.5,5.5,0,0,0,2.24,2.29C212.54,237.49,213.4,237.7,213.74,237Z"/><path class="cls-14" d="M342.78,206a1.64,1.64,0,0,0-.3-1.55.39.39,0,0,0-.05-.2,14.11,14.11,0,0,0-5.51-6.18c-.59-.31-1.27-.48-1.75.11s.08,1.56.55,2.14a41.8,41.8,0,0,1,3,3.64,5.55,5.55,0,0,0,2.24,2.29C341.58,206.51,342.44,206.72,342.78,206Z"/><path class="cls-14" d="M342.78,266.48a1.64,1.64,0,0,0-.3-1.55.46.46,0,0,0-.05-.21,14.14,14.14,0,0,0-5.51-6.17c-.59-.31-1.27-.48-1.75.11s.08,1.56.55,2.14a43.21,43.21,0,0,1,3,3.63,5.58,5.58,0,0,0,2.24,2.3C341.58,267,342.44,267.21,342.78,266.48Z"/><path class="cls-14" d="M244.06,319.12a1.62,1.62,0,0,0-.3-1.54.39.39,0,0,0,0-.21,14.17,14.17,0,0,0-5.51-6.18c-.6-.31-1.28-.48-1.76.11s.09,1.57.55,2.15a40.32,40.32,0,0,1,3,3.63,5.49,5.49,0,0,0,2.24,2.29C242.86,319.64,243.72,319.85,244.06,319.12Z"/><path class="cls-5" d="M253,180.62s15.49,27.43,24.45,25.87,13.43-31.09,13.43-31.09L272,181.8Z"/><path class="cls-14" d="M323,265.82c-8,25.56-22.26,50.31-45.76,64.41a.75.75,0,0,0,.76,1.29c23.83-14.31,38.3-39.37,46.44-65.3C324.74,265.3,323.29,264.91,323,265.82Z"/><path class="cls-15" d="M346,382.6c-2.83-8.22-5.13-17-10.65-23.92a37.74,37.74,0,0,0-18.94-12.55.75.75,0,0,0-.39,1.44,36.09,36.09,0,0,1,18.55,12.54c5.12,6.65,7.29,15.07,10,22.89C344.86,383.9,346.3,383.51,346,382.6Z"/><path class="cls-15" d="M289.29,388.31c.09-.95-1.4-.94-1.5,0a62.68,62.68,0,0,0-.16,10.43,27.4,27.4,0,0,1-5.33-13.4c-.11-.94-1.6-.95-1.49,0a29.25,29.25,0,0,0,6.89,15.87.53.53,0,0,0,.15.12.13.13,0,0,0,0,.06c.1.95,1.6,1,1.49,0A60.84,60.84,0,0,1,289.29,388.31Z"/><path class="cls-15" d="M374.69,374.37a48.92,48.92,0,0,0-4.06,6.13,50.13,50.13,0,0,1,2.15-8.32c.32-.91-1.13-1.3-1.44-.4a50.83,50.83,0,0,0-2.83,19.9c.05,1,1.54,1,1.49,0a51.33,51.33,0,0,1,.11-7.13.58.58,0,0,0,.25-.28,45.71,45.71,0,0,1,5.39-8.85C376.33,374.67,375.28,373.61,374.69,374.37Z"/><path class="cls-15" d="M373.63,475.46q-5.73-16.57-10.15-33.56a.75.75,0,0,0-1.44.39q4.43,17,10.15,33.57C372.51,476.76,374,476.37,373.63,475.46Z"/><rect class="cls-6" x="400.93" y="181.74" width="119.47" height="11.46"/><path class="cls-10" d="M470.18,181.74,475,153.35a1.9,1.9,0,0,1,1.88-1.59h18.46a1.9,1.9,0,0,1,1.87,1.54l5.67,28.44Z"/><path class="cls-2" d="M489.94,133.89a44.88,44.88,0,0,0-6,16.73c-.14.94,1.29,1.34,1.44.39a43.71,43.71,0,0,1,5.88-16.37A.75.75,0,0,0,489.94,133.89Z"/><path class="cls-2" d="M483.32,148.6a54.12,54.12,0,0,1-1.56-7.12c-.14-.94-1.58-.54-1.44.4a54.12,54.12,0,0,0,1.56,7.12A.75.75,0,0,0,483.32,148.6Z"/><path class="cls-3" d="M452.24,144.61a2.56,2.56,0,0,1-.07,1c-.15.88-.29,1.75-.44,2.62l-1.41,8.43-3.27,19.44c-.31,1.86-.63,3.72-.94,5.59h15.3s-3-36.74-2.5-37.47,3.23-2.51-.83-2.87-7.13-.12-7.29.82,1,1.36,1.32,2.06A1.51,1.51,0,0,1,452.24,144.61Z"/><path class="cls-9" d="M219.09,271.54c-.67-1.31-.67-2-2.16-1.81a16.61,16.61,0,0,0-5.37,2.12,33.47,33.47,0,0,1-6.3,2.95,83.32,83.32,0,0,0-8.43-1.72,17.56,17.56,0,0,0-2.71-.12c-2-2.35-4.72-4.38-6.82-6.6-1.33-1.42-3.16-2.43-4.63-2-1,.32-1.65,3.25-2,5.15a69.08,69.08,0,0,0-.74,10.67,35.42,35.42,0,0,1-.25,3.92c-.2,1.85-.49,3.62-.54,5.82a19.91,19.91,0,0,0,1.56,9.53c1.24,3.09,10.33,6.55,18.3,7.25,9.67.84,14.73-6.13,15.53-14a36.09,36.09,0,0,0-.09-8C215.8,282.08,220.39,274.06,219.09,271.54Z"/><path class="cls-9" d="M214.1,392c-3.55-1.61-7.71-1.88-11.54-2.42-1.4-.2-2.79-.38-4.19-.54,4.25-7.11,10-14.47,9.25-23.17a19,19,0,0,0-6.76-12.58c2.75-6.62,6-13.85,6.35-21,.4-8.18-3.21-16.1-2.27-24.29.35-3,2.7-6.82,1.17-9.82-1.14-2.25-4.45-3.72-6.5-4.85-6-3.3-17-5.64-17.16-4.7-1.42,9-5.31,15.62-9.53,22.37-2,3.14-4,6.34-5.88,9.82-2,3.64-4.4,7-6.26,10.72a3.59,3.59,0,0,1-.21.38c-2,3.91-4.63,7.1-7.24,10.62-2.12,2.89-4.23,5.78-6.05,8.86-.35.57-.67,1.15-1,1.74-4.15,7.65-4.63,16.25-3.23,24.7.4,2.43.9,4.9,1.51,7.32s1.32,5.08,2.12,7.55a17.29,17.29,0,0,0,.64,1.66,8.11,8.11,0,0,0,4.36,4.52,13.16,13.16,0,0,0,4.59,1,55.46,55.46,0,0,0,6.51-.28l1.38-.1c8.35,1.49,16.41.79,24.86.28a101.16,101.16,0,0,1,13.37.2c4.27.31,9.73,1.36,13.89.06C221.58,398.36,217,393.27,214.1,392Z"/><path class="cls-9" d="M177.77,392.94c-8.66-1.32-17.3,3.71-26,3.45a.8.8,0,0,0-.24,0,3.44,3.44,0,0,1-.66-1.07c-.35-.89-1.78-.45-1.43.45,1,2.68,3.14,3.47,5.86,3.94,4.35.75,8.59,1.54,12.88,2.6a66.21,66.21,0,0,0,11.08,2c2.25.16,5.41.62,6.68-1.72C188.58,397.73,181.68,393.53,177.77,392.94Z"/><path class="cls-9" d="M214.74,413.51c-3-5.3-12.9-2.91-17.5-2.56-8.37.61-16.91.09-25.28-.23-4.76-.18-9.51-.35-14.26-.72s-10-1.14-11.45-6.62c-.07-.29-.14-.59-.19-.87-.53-3,.36-5.51,1.26-8.14.4-1.16.8-2.36,1.1-3.61a6.38,6.38,0,0,0-1.71-6.55.68.68,0,0,0-.9,0,.72.72,0,0,0-.47.2l-.78.8a26.46,26.46,0,0,0-6.5,13.69c-.87,5.82.43,11.75,5.17,15.66a30.2,30.2,0,0,0,16.68,6.28c4,.31,7.88-.38,11.82-.94,4.59-.65,8.64-.23,13.19.21a30.62,30.62,0,0,0,8.64-.81c4.63-.87,8.83-.38,13.45-.47C209.51,418.73,217.27,417.88,214.74,413.51Z"/><path class="cls-9" d="M200.65,395.8c-1.92-3.36-6.56-7.26-10.68-6.88-3.27.29-2.89,5.16-1.26,7.19.84,1.95,1.7,4.16,3.28,5.45s3.64,1.41,5.53,1.43c1.59,0,3.45-.05,4.16-1.74S201.5,397.28,200.65,395.8Z"/><path class="cls-9" d="M217.15,324.83c-1.64-4.59-3.94-9-6-13.43-1.43-3.17-2.77-6.4-6.11-7.89a.8.8,0,0,0-1.1.82,1,1,0,0,0-.15.2c-2,3.74-1.56,7.65-2,11.72-.47,4.31-1.48,7,.24,11.27,2.34,5.8,6.66,14.48,14.22,14,2-.14,3.32-1.13,3.54-3.18C220.26,334.27,218.49,328.58,217.15,324.83Z"/><path class="cls-16" d="M193.89,290.49a2,2,0,0,1-1.87.81,9.3,9.3,0,0,1-2-.63c-.89-.36-1.6.95-.71,1.32a9.27,9.27,0,0,0,3.13.88,3.57,3.57,0,0,0,2.54-1.36C195.65,290.82,194.56,289.81,193.89,290.49Z"/><path class="cls-16" d="M210.19,290.1c-1.28,1-2.91.78-4.36.31-.92-.3-1.26,1.15-.35,1.45a5.94,5.94,0,0,0,5.51-.5C211.74,290.77,211,289.51,210.19,290.1Z"/><path class="cls-7" d="M183.26,267a42.25,42.25,0,0,0-1.17,11.53.75.75,0,0,0,1.49-.05,41.37,41.37,0,0,1,1.13-11.14A.75.75,0,0,0,183.26,267Z"/><path class="cls-7" d="M215.12,271.65a7.61,7.61,0,0,0-2.53,1.75l-3.12,2.85c-.71.65.39,1.66,1.09,1l2.5-2.28a7.9,7.9,0,0,1,2.51-1.91C216.47,272.76,216,271.34,215.12,271.65Z"/><path class="cls-7" d="M216.54,324.62a37.92,37.92,0,0,0-12.26-11.55c-3.14-1.8-8.72-4.55-12.17-1.94-3.29,2.5-.88,6.6,1.63,8.52s5.07,3.15,7.21,5.27c2.63,2.61,3.29,6.18,4.35,9.59a.75.75,0,0,0,1.42-.45c-.87-2.84-1.44-6.18-3.23-8.61-2.27-3.07-5.87-4.68-8.78-7a12.27,12.27,0,0,1-2-2,5.71,5.71,0,0,1,.84.54c.75.59,1.77-.5,1-1.1a7.87,7.87,0,0,0-2.73-1.4h0a1.86,1.86,0,0,1,.62-1.59s0,0,.07,0a6,6,0,0,1,2.52,1.42c.7.66,1.71-.44,1-1.09a7.37,7.37,0,0,0-1.94-1.31,9.13,9.13,0,0,1,1.06-.31,8.22,8.22,0,0,1,3.66.55,25.54,25.54,0,0,1,6.29,3.09,36.39,36.39,0,0,1,10.18,10.1C215.81,326.21,217.08,325.42,216.54,324.62Z"/><path class="cls-7" d="M185.94,398.65a17.73,17.73,0,0,0-11.06-8.93c.64-5.41,1.07-10.83,1.24-16.28s.47-11.05-.68-16.34c-1.55-7.17-7.71-14.18-15.64-11.2-.9.33-.46,1.76.45,1.42,10.64-4,14.21,9.32,14.43,17a172.73,172.73,0,0,1-1.26,25.11,18.89,18.89,0,0,0-5.92-.12c-.94.13-.9,1.63.05,1.49a16.32,16.32,0,0,1,17.13,8.68C185.13,400.29,186.39,399.49,185.94,398.65Z"/><path class="cls-7" d="M180.6,402.53a7.53,7.53,0,0,0-3-3.56c-.81-.52-1.51.79-.7,1.31a5.78,5.78,0,0,1,2.23,2.7C179.53,403.86,181,403.43,180.6,402.53Z"/><path class="cls-7" d="M185,401.8a18.86,18.86,0,0,0-2.39-3c-.67-.69-1.68.41-1,1.1a16.73,16.73,0,0,1,2.14,2.73A.75.75,0,0,0,185,401.8Z"/><path class="cls-7" d="M199.68,394.27c-2.47-7-3.41-14.36-4.64-21.62-1.07-6.39-2.49-12.82-3-19.28-.93-12.4,2.22-25.22-3.85-36.75-.44-.85-1.7-.05-1.26.8,6.5,12.34,2.21,26.71,4.05,39.93.88,6.27,2.07,12.51,3.13,18.75s2,12.59,4.12,18.62C198.57,395.62,200,395.18,199.68,394.27Z"/><path class="cls-7" d="M190.47,396.32a203.41,203.41,0,0,1-11.55-30.91.75.75,0,0,0-1.43.44,205.92,205.92,0,0,0,11.72,31.26C189.61,398,190.87,397.18,190.47,396.32Z"/><path class="cls-7" d="M195.67,398.61c-.58-.76-1.85,0-1.26.8a6.48,6.48,0,0,1,1.25,2.85c.17.94,1.59.49,1.42-.45A7.44,7.44,0,0,0,195.67,398.61Z"/><path class="cls-7" d="M199.82,398.94c-.6-.74-1.86.05-1.26.79a4.54,4.54,0,0,1,1,2.2c.13.94,1.63.9,1.49-.05A5.85,5.85,0,0,0,199.82,398.94Z"/><path class="cls-7" d="M215.05,398.82l0,0,0,0A5.83,5.83,0,0,0,213.9,397a5.39,5.39,0,0,0-2.2-1.4c-.91-.32-1.25,1.13-.35,1.45a3.74,3.74,0,0,1,1.81,1.4c.37.53.43,1.28,1,1.64a.73.73,0,0,0,.9-.15l.05-.05A.77.77,0,0,0,215.05,398.82Z"/><path class="cls-7" d="M200,354.06a58.43,58.43,0,0,1-4.95,14.11c-.43.85.88,1.56,1.31.7a59.36,59.36,0,0,0,5.09-14.46A.75.75,0,0,0,200,354.06Z"/><path class="cls-7" d="M146.78,391.92a38.78,38.78,0,0,1-.94-5c-.11-1-1.61-.91-1.49,0a41.55,41.55,0,0,0,1,5.41C145.6,393.3,147,392.85,146.78,391.92Z"/><path class="cls-17" d="M197.41,304.75s-.73,6.78,2,6,2.83-5.77,2.83-5.77l-1.88-2.5Z"/><path class="cls-16" d="M203.28,304a6,6,0,0,1-2-1.74s-.06-.05-.09-.08a9,9,0,0,0,.24-1.88c.06-1-1.43-.9-1.49,0a4.36,4.36,0,0,1-.18,1.49,2.22,2.22,0,0,1-1,.85,8.81,8.81,0,0,1-2.74.89c-.94.17-.49,1.6.45,1.42a8.89,8.89,0,0,0,3.86-1.56l0,0a7.69,7.69,0,0,0,2.26,1.91A.75.75,0,0,0,203.28,304Z"/><path class="cls-5" d="M202.23,297.35a7.55,7.55,0,0,0-1.56-.11,9.21,9.21,0,0,0-1.89.15,2,2,0,0,0-.6.21.75.75,0,0,0-.37.5,1,1,0,0,0,.34.8,5.23,5.23,0,0,0,1.61,1.23,2,2,0,0,0,1.11.25,1.85,1.85,0,0,0,.91-.44,3.66,3.66,0,0,0,1.08-1.45,1,1,0,0,0,.09-.56.76.76,0,0,0-.49-.51Z"/><path class="cls-4" d="M194.12,273c-2-2.35-4.72-4.38-6.82-6.6-1.33-1.42-3.16-2.43-4.63-2-1,.32-1.65,3.25-2,5.15a69.08,69.08,0,0,0-.74,10.67,35.42,35.42,0,0,1-.25,3.92h.16a18.4,18.4,0,0,0,6.28-.74c2-.79,3.86-2.68,5.58-4a20.47,20.47,0,0,0,3.75-3.27,6.39,6.39,0,0,0,1.34-3.05A17.56,17.56,0,0,0,194.12,273Z"/><path class="cls-4" d="M202.46,277.77c-4.39-5-12.63,10.31-2.5,4.13C201.17,281.16,204.05,279.58,202.46,277.77Z"/><path class="cls-4" d="M178.77,327.38c-2.26-2.73-2.48-5.17-2.59-8.6a11.77,11.77,0,0,0-.92-4.94,7.79,7.79,0,0,0-2.34-2.84c-2,3.14-4,6.34-5.88,9.82-2,3.64-4.4,7-6.26,10.72a3.59,3.59,0,0,1-.21.38,4.83,4.83,0,0,0,3.51,1.91c1.66.17,2.33-.19,4.06.38,2,.66,2.22,1.52,3.73,2.83a7,7,0,0,0,3.93,1.77,5.74,5.74,0,0,0,5.82-3.33C183.05,332.25,180.72,329.7,178.77,327.38Z"/><path class="cls-4" d="M157.66,380.58c.77-2.85,2.23-5.07,2.3-8.13.1-5.31-2.35-12.69-5.81-16.79-1.6-1.92-4.14-3.23-6.87-4.26-.35.57-.67,1.15-1,1.74-4.15,7.65-4.63,16.25-3.23,24.7.4,2.43.9,4.9,1.51,7.32a26.46,26.46,0,0,0-6.5,13.69,15.94,15.94,0,0,0,2.16,1.61,18.78,18.78,0,0,0,5.84,2.05c-.53-3,.36-5.51,1.26-8.14a8.11,8.11,0,0,0,4.36,4.52,13.16,13.16,0,0,0,4.59,1c1.95-3,2.54-7.66,2.37-10.52S156.87,383.47,157.66,380.58Z"/><path class="cls-18" d="M240,179.53l-16.05,27.55a.76.76,0,0,0,.27,1,101.29,101.29,0,0,0,16.1,6.36.74.74,0,0,0,.39-1.43,100.71,100.71,0,0,1-15.06-5.9l15.63-26.85A.74.74,0,0,0,240,179.53Z"/><path class="cls-18" d="M325,194.76c-1.1-4.44-4.37-7.63-7.33-10.94q-6-6.76-12.29-13.32c-.66-.7-1.72.36-1.06,1.05,5.13,5.4,10.22,10.84,15.09,16.47a22.92,22.92,0,0,1,3,4.09c1.52,2.87-.16,2.95-2.51,4L309.28,201c-.87.39-.11,1.68.76,1.28l14.57-6.68A.74.74,0,0,0,325,194.76Z"/><rect class="cls-13" x="410.19" y="38" width="49.61" height="46.83"/><rect class="cls-9" x="417.08" y="44.72" width="35.84" height="33.4"/><rect class="cls-14" x="426.23" y="53.21" width="17.54" height="17.54"/><rect class="cls-19" x="311.42" y="15.66" width="45.34" height="60.82"/><rect class="cls-9" x="318.31" y="22.37" width="31.57" height="47.39"/><path class="cls-20" d="M195.1,59.71c-.44-4.8-2.89-8.84-2.67-13.77.31-7-.43-12.73-4.83-18.47a33.79,33.79,0,0,0-17-11.37,58.73,58.73,0,0,0-13.68-2.32c-2.41-.16-4.82-.21-7.24-.21-3,0-7,.74-9.58-1.3-1.45-1.16-2.24-3-3.75-4.11A18.06,18.06,0,0,0,131.84,6C118.48.73,107.54-2.35,93.4,2.23a58.48,58.48,0,0,0-12.7,6c-1.88,1.15-9.3,8.31-11,8.12-7.11-.79-14.48-1-20.86,2.75a17.35,17.35,0,0,0-5.77,5.27c-2.12,3.22-1.71,6.76-3,10.24C38.77,38.32,35,41.1,33.38,44.84a25.61,25.61,0,0,0-2.13,8.92,24.48,24.48,0,0,0,6.28,17.7c4.7,5.25,11.29,8.58,18,10.27,9,2.25,17.92,1.34,27.07,1.56,4.32.1,7,2.62,10.7,4.38a35.11,35.11,0,0,0,10.34,3A48.59,48.59,0,0,0,126,88.07c3.65-1.28,7.06-3.06,10.57-4.66a34.77,34.77,0,0,1,15.12-3.35c9,0,17.81.56,26.71-1.35,6.07-1.31,12.42-4,15.24-9.94A17.18,17.18,0,0,0,195.1,59.71Z"/><path class="cls-20" d="M217.84,85.49c-2.51-2.52-6.38-5.25-9.94-3.68a26,26,0,0,0-5.33,2.89,8.53,8.53,0,0,0-5.5,9.15,7.67,7.67,0,0,0,4.71,6.51,5.89,5.89,0,0,0,3.95,0c2.27-.62-.78-1.33,3.64-.89.81.08,1.48.64,2.37.68C217.84,100.45,221.81,89.49,217.84,85.49Z"/><path class="cls-21" d="M252.23,115.49a10.47,10.47,0,0,1-9.7,6.56.67.67,0,0,0-.65.49,5.36,5.36,0,0,1-2.54,4c-.73.48-.05,1.65.69,1.17a7.28,7.28,0,0,0,2.82-3.33c.54-1.19.09-.79,1.34-1.12a23.51,23.51,0,0,0,2.85-.77,11.93,11.93,0,0,0,6.5-6.69C253.86,115,252.55,114.69,252.23,115.49Z"/><path class="cls-21" d="M236.12,122c-1.33,1.2-3.5,3.07-5.3,1.57-.67-.55-1.63.4-1,1,2.47,2.06,5.24.22,7.21-1.57C237.72,122.34,236.76,121.39,236.12,122Z"/><path class="cls-21" d="M283.83,116.4a7.65,7.65,0,0,1-10.72-1c-.58-.65-1.54.31-1,1a9,9,0,0,0,12.37,1.22C285.2,117.05,284.52,115.87,283.83,116.4Z"/><path class="cls-21" d="M275,108.54a3.9,3.9,0,0,1-4.41,2.78c-.85-.14-1.22,1.17-.36,1.3a5.29,5.29,0,0,0,6.08-3.72C276.56,108.07,275.25,107.71,275,108.54Z"/></g></g></svg>